<svg xmlns="http://www.w3.org/2000/svg" xmlns:xlink="http://www.w3.org/1999/xlink" width="820" height="277.582" viewBox="0 0 820 277.582">
  <defs>
    <clipPath id="clip-path">
      <rect id="Rectángulo_403033" data-name="Rectángulo 403033" width="20.07" height="65.901" fill="#12263f"/>
    </clipPath>
    <clipPath id="clip-path-2">
      <rect id="Rectángulo_403033-2" data-name="Rectángulo 403033" width="20.07" height="106.803" fill="#12263f"/>
    </clipPath>
    <clipPath id="clip-path-3">
      <rect id="Rectángulo_403033-3" data-name="Rectángulo 403033" width="20.07" height="173.803" fill="#12263f"/>
    </clipPath>
  </defs>
  <g id="Grupo_1103874" data-name="Grupo 1103874" transform="translate(-390 -6555.867)">
    <g id="Grupo_1103071" data-name="Grupo 1103071" transform="translate(389.949 6555.867)">
      <rect id="Rectángulo_402888" data-name="Rectángulo 402888" width="820" height="277.582" transform="translate(0.051)" fill="#d6f1f4" opacity="0.3"/>
    </g>
    <path id="Trazado_915309" data-name="Trazado 915309" d="M4.672-5.07A7.053,7.053,0,0,1,1.863-6.434a2.6,2.6,0,0,1-.879-2,2.751,2.751,0,0,1,1.074-2.223,4.269,4.269,0,0,1,2.793-.879,4.66,4.66,0,0,1,2.09.453,3.436,3.436,0,0,1,1.422,1.25,3.2,3.2,0,0,1,.5,1.742H7.359A2.08,2.08,0,0,0,6.7-9.713,2.669,2.669,0,0,0,4.852-10.3a2.732,2.732,0,0,0-1.73.489A1.632,1.632,0,0,0,2.5-8.458,1.468,1.468,0,0,0,3.09-7.28,5.785,5.785,0,0,0,5.1-6.4a9.316,9.316,0,0,1,2.219.88A3.367,3.367,0,0,1,8.5-4.4a2.861,2.861,0,0,1,.387,1.508A2.658,2.658,0,0,1,7.813-.676,4.6,4.6,0,0,1,4.93.156,5.347,5.347,0,0,1,2.742-.293a3.681,3.681,0,0,1-1.566-1.23A3,3,0,0,1,.625-3.3H2.133a1.959,1.959,0,0,0,.762,1.629,3.207,3.207,0,0,0,2.035.6,2.948,2.948,0,0,0,1.82-.484,1.573,1.573,0,0,0,.633-1.32A1.545,1.545,0,0,0,6.8-4.168,6.755,6.755,0,0,0,4.672-5.07ZM15.8,0a3.036,3.036,0,0,1-.2-.891A3.225,3.225,0,0,1,13.2.156a2.984,2.984,0,0,1-2.051-.707,2.287,2.287,0,0,1-.8-1.793,2.39,2.39,0,0,1,1-2.051,4.733,4.733,0,0,1,2.824-.73h1.406v-.664A1.623,1.623,0,0,0,15.125-7a1.821,1.821,0,0,0-1.336-.449,2.107,2.107,0,0,0-1.3.391,1.151,1.151,0,0,0-.523.945H10.516a2,2,0,0,1,.449-1.223,3.066,3.066,0,0,1,1.219-.934,4.1,4.1,0,0,1,1.691-.344,3.342,3.342,0,0,1,2.289.73,2.635,2.635,0,0,1,.859,2.012v3.891a4.757,4.757,0,0,0,.3,1.852V0Zm-2.4-1.1A2.54,2.54,0,0,0,14.7-1.453a2.127,2.127,0,0,0,.883-.914V-4.1H14.445q-2.656,0-2.656,1.555a1.316,1.316,0,0,0,.453,1.063A1.742,1.742,0,0,0,13.406-1.1ZM20.859,0H19.414V-12h1.445Zm3.672-8.453.039.938a3.122,3.122,0,0,1,2.508-1.094A2.417,2.417,0,0,1,29.492-7.25a3.2,3.2,0,0,1,1.1-.984,3.242,3.242,0,0,1,1.6-.375q2.781,0,2.828,2.945V0H33.57V-5.578a1.941,1.941,0,0,0-.414-1.355,1.823,1.823,0,0,0-1.391-.449,1.916,1.916,0,0,0-1.336.48,1.949,1.949,0,0,0-.617,1.293V0H28.359V-5.539a1.613,1.613,0,0,0-1.8-1.844,1.934,1.934,0,0,0-1.945,1.211V0H23.164V-8.453ZM36.813-4.3A4.993,4.993,0,0,1,37.3-6.539,3.643,3.643,0,0,1,38.66-8.07a3.7,3.7,0,0,1,1.988-.539,3.565,3.565,0,0,1,2.793,1.2,4.6,4.6,0,0,1,1.066,3.18v.1a5.036,5.036,0,0,1-.473,2.215A3.589,3.589,0,0,1,42.684-.391a3.743,3.743,0,0,1-2.02.547,3.556,3.556,0,0,1-2.785-1.2A4.575,4.575,0,0,1,36.813-4.2Zm1.453.172a3.616,3.616,0,0,0,.652,2.258,2.088,2.088,0,0,0,1.746.852,2.075,2.075,0,0,0,1.75-.863A3.955,3.955,0,0,0,43.063-4.3a3.61,3.61,0,0,0-.66-2.254,2.1,2.1,0,0,0-1.754-.863,2.075,2.075,0,0,0-1.727.852A3.925,3.925,0,0,0,38.266-4.133Zm9.422-4.32.047,1.063a3.08,3.08,0,0,1,2.531-1.219q2.68,0,2.7,3.023V0H51.523V-5.594a1.946,1.946,0,0,0-.418-1.352,1.675,1.675,0,0,0-1.277-.437,2.086,2.086,0,0,0-1.234.375,2.546,2.546,0,0,0-.828.984V0H46.32V-8.453ZM58.656.156a3.693,3.693,0,0,1-2.8-1.129,4.19,4.19,0,0,1-1.078-3.02v-.266a5.073,5.073,0,0,1,.48-2.246,3.748,3.748,0,0,1,1.344-1.547,3.378,3.378,0,0,1,1.871-.559,3.166,3.166,0,0,1,2.563,1.086,4.7,4.7,0,0,1,.914,3.109v.6H56.227a3,3,0,0,0,.73,2.02,2.3,2.3,0,0,0,1.777.77,2.517,2.517,0,0,0,1.3-.312,3.259,3.259,0,0,0,.93-.828l.883.688A3.55,3.55,0,0,1,58.656.156Zm-.18-7.578a1.928,1.928,0,0,0-1.469.637A3.1,3.1,0,0,0,56.273-5h4.234v-.109a2.753,2.753,0,0,0-.594-1.707A1.815,1.815,0,0,0,58.477-7.422ZM65.2,0H63.75V-12H65.2Zm3.883,0H67.633V-12h1.445Zm7.531,0a3.036,3.036,0,0,1-.2-.891A3.225,3.225,0,0,1,74,.156a2.984,2.984,0,0,1-2.051-.707,2.288,2.288,0,0,1-.8-1.793,2.39,2.39,0,0,1,1-2.051,4.733,4.733,0,0,1,2.824-.73h1.406v-.664A1.623,1.623,0,0,0,75.93-7a1.821,1.821,0,0,0-1.336-.449,2.108,2.108,0,0,0-1.3.391,1.151,1.151,0,0,0-.523.945H71.32a2,2,0,0,1,.449-1.223,3.066,3.066,0,0,1,1.219-.934,4.1,4.1,0,0,1,1.691-.344,3.342,3.342,0,0,1,2.289.73,2.635,2.635,0,0,1,.859,2.012v3.891a4.757,4.757,0,0,0,.3,1.852V0Zm-2.4-1.1A2.54,2.54,0,0,0,75.5-1.453a2.127,2.127,0,0,0,.883-.914V-4.1H75.25q-2.656,0-2.656,1.555a1.316,1.316,0,0,0,.453,1.063A1.742,1.742,0,0,0,74.211-1.1ZM9.688,20.391a4.185,4.185,0,0,1-1.332,2.785,4.365,4.365,0,0,1-2.98.98,4.008,4.008,0,0,1-3.23-1.445A5.815,5.815,0,0,1,.93,18.844V17.75A6.481,6.481,0,0,1,1.5,14.961,4.231,4.231,0,0,1,3.1,13.113a4.47,4.47,0,0,1,2.406-.645A4.11,4.11,0,0,1,8.414,13.48a4.235,4.235,0,0,1,1.273,2.8H8.18a3.268,3.268,0,0,0-.848-1.975A2.565,2.565,0,0,0,5.508,13.7a2.684,2.684,0,0,0-2.254,1.063,4.882,4.882,0,0,0-.816,3.026v1.1a5.018,5.018,0,0,0,.773,2.948A2.5,2.5,0,0,0,5.375,22.93a2.887,2.887,0,0,0,1.918-.566,3.143,3.143,0,0,0,.887-1.973ZM16.727,24a3.036,3.036,0,0,1-.2-.891,3.225,3.225,0,0,1-2.406,1.047,2.984,2.984,0,0,1-2.051-.707,2.287,2.287,0,0,1-.8-1.793,2.39,2.39,0,0,1,1-2.051,4.733,4.733,0,0,1,2.824-.73H16.5v-.664A1.623,1.623,0,0,0,16.047,17a1.821,1.821,0,0,0-1.336-.449,2.108,2.108,0,0,0-1.3.391,1.151,1.151,0,0,0-.523.945H11.438a2,2,0,0,1,.449-1.223,3.066,3.066,0,0,1,1.219-.934,4.1,4.1,0,0,1,1.691-.344,3.342,3.342,0,0,1,2.289.73,2.635,2.635,0,0,1,.859,2.012v3.891a4.757,4.757,0,0,0,.3,1.852V24Zm-2.4-1.1a2.54,2.54,0,0,0,1.289-.352,2.127,2.127,0,0,0,.883-.914V19.9H15.367q-2.656,0-2.656,1.555a1.316,1.316,0,0,0,.453,1.063A1.742,1.742,0,0,0,14.328,22.9Zm7.242-7.352.039.938a3.122,3.122,0,0,1,2.508-1.094,2.417,2.417,0,0,1,2.414,1.359,3.2,3.2,0,0,1,1.1-.984,3.242,3.242,0,0,1,1.6-.375q2.781,0,2.828,2.945V24H30.609V18.422a1.941,1.941,0,0,0-.414-1.355,1.823,1.823,0,0,0-1.391-.449,1.916,1.916,0,0,0-1.336.48,1.949,1.949,0,0,0-.617,1.293V24H25.4V18.461a1.613,1.613,0,0,0-1.8-1.844,1.934,1.934,0,0,0-1.945,1.211V24H20.2V15.547Zm19.8,4.32a5.062,5.062,0,0,1-.883,3.109,2.829,2.829,0,0,1-2.391,1.18,3.1,3.1,0,0,1-2.422-.977v4.07H34.234v-11.7h1.32l.07.938a2.977,2.977,0,0,1,2.453-1.094,2.882,2.882,0,0,1,2.41,1.148,5.117,5.117,0,0,1,.887,3.2ZM39.93,19.7a3.735,3.735,0,0,0-.609-2.258,1.963,1.963,0,0,0-1.672-.828,2.125,2.125,0,0,0-1.969,1.164V21.82a2.129,2.129,0,0,0,1.984,1.156,1.954,1.954,0,0,0,1.652-.824A4.077,4.077,0,0,0,39.93,19.7Zm5.961,2.18,1.969-6.336h1.547l-3.4,9.758q-.789,2.109-2.508,2.109l-.273-.023-.539-.1V26.117l.391.031a1.923,1.923,0,0,0,1.145-.3,2.148,2.148,0,0,0,.676-1.086l.32-.859L42.2,15.547h1.578ZM52.266,24H50.82V12h1.445Zm1.93-4.3a4.993,4.993,0,0,1,.488-2.234,3.643,3.643,0,0,1,1.359-1.531,3.7,3.7,0,0,1,1.988-.539,3.565,3.565,0,0,1,2.793,1.2,4.6,4.6,0,0,1,1.066,3.18v.1a5.036,5.036,0,0,1-.473,2.215,3.589,3.589,0,0,1-1.352,1.527,3.743,3.743,0,0,1-2.02.547,3.556,3.556,0,0,1-2.785-1.2A4.575,4.575,0,0,1,54.2,19.8Zm1.453.172a3.616,3.616,0,0,0,.652,2.258,2.211,2.211,0,0,0,3.5-.012,3.955,3.955,0,0,0,.648-2.418,3.61,3.61,0,0,0-.66-2.254,2.1,2.1,0,0,0-1.754-.863,2.075,2.075,0,0,0-1.727.852A3.925,3.925,0,0,0,55.648,19.867Zm15.211,0a5.026,5.026,0,0,1-.891,3.113,2.846,2.846,0,0,1-2.391,1.176A2.947,2.947,0,0,1,65.1,23.023l-.07.977H63.7V12h1.445v4.477a2.93,2.93,0,0,1,2.414-1.086,2.863,2.863,0,0,1,2.418,1.164,5.177,5.177,0,0,1,.879,3.188ZM69.414,19.7a3.906,3.906,0,0,0-.57-2.281,1.888,1.888,0,0,0-1.641-.8,2.122,2.122,0,0,0-2.055,1.328V21.6a2.181,2.181,0,0,0,2.07,1.328,1.878,1.878,0,0,0,1.617-.8A4.153,4.153,0,0,0,69.414,19.7ZM77.9,24a3.036,3.036,0,0,1-.2-.891,3.225,3.225,0,0,1-2.406,1.047,2.984,2.984,0,0,1-2.051-.707,2.288,2.288,0,0,1-.8-1.793,2.39,2.39,0,0,1,1-2.051,4.733,4.733,0,0,1,2.824-.73h1.406v-.664A1.623,1.623,0,0,0,77.219,17a1.821,1.821,0,0,0-1.336-.449,2.108,2.108,0,0,0-1.3.391,1.151,1.151,0,0,0-.523.945H72.609a2,2,0,0,1,.449-1.223,3.066,3.066,0,0,1,1.219-.934,4.1,4.1,0,0,1,1.691-.344,3.342,3.342,0,0,1,2.289.73,2.635,2.635,0,0,1,.859,2.012v3.891a4.757,4.757,0,0,0,.3,1.852V24Zm-2.4-1.1a2.54,2.54,0,0,0,1.289-.352,2.127,2.127,0,0,0,.883-.914V19.9H76.539q-2.656,0-2.656,1.555a1.316,1.316,0,0,0,.453,1.063A1.742,1.742,0,0,0,75.5,22.9Zm9.273.078a2.082,2.082,0,0,0,1.352-.469,1.649,1.649,0,0,0,.641-1.172h1.367a2.621,2.621,0,0,1-.5,1.383,3.293,3.293,0,0,1-1.23,1.047,3.55,3.55,0,0,1-1.629.391A3.482,3.482,0,0,1,82.027,23a4.59,4.59,0,0,1-1.02-3.152v-.242a5.089,5.089,0,0,1,.453-2.2,3.451,3.451,0,0,1,1.3-1.492,3.7,3.7,0,0,1,2-.531,3.39,3.39,0,0,1,2.363.852,3.043,3.043,0,0,1,1,2.211H86.766a1.992,1.992,0,0,0-.621-1.348,1.932,1.932,0,0,0-1.379-.527,2.023,2.023,0,0,0-1.707.793,3.724,3.724,0,0,0-.605,2.293v.273a3.65,3.65,0,0,0,.6,2.25A2.033,2.033,0,0,0,84.773,22.977ZM91.719,13.5v2.047H93.3v1.117H91.719v5.249a1.173,1.173,0,0,0,.211.763.888.888,0,0,0,.719.254,3.5,3.5,0,0,0,.688-.094V24a4.215,4.215,0,0,1-1.109.155,1.8,1.8,0,0,1-1.461-.586,2.517,2.517,0,0,1-.492-1.664V16.664H88.734V15.547h1.539V13.5Zm6.773,10.656a3.693,3.693,0,0,1-2.8-1.129,4.19,4.19,0,0,1-1.078-3.02v-.266A5.073,5.073,0,0,1,95.1,17.5a3.748,3.748,0,0,1,1.344-1.547,3.378,3.378,0,0,1,1.871-.559,3.166,3.166,0,0,1,2.563,1.086,4.7,4.7,0,0,1,.914,3.109v.6H96.063a3,3,0,0,0,.73,2.02,2.3,2.3,0,0,0,1.777.77,2.517,2.517,0,0,0,1.3-.312,3.259,3.259,0,0,0,.93-.828l.883.688A3.55,3.55,0,0,1,98.492,24.156Zm-.18-7.578a1.928,1.928,0,0,0-1.469.637A3.1,3.1,0,0,0,96.109,19h4.234v-.109a2.753,2.753,0,0,0-.594-1.707A1.815,1.815,0,0,0,98.313,16.578Zm9.234.266a4.331,4.331,0,0,0-.711-.055A1.9,1.9,0,0,0,104.906,18v6h-1.445V15.547h1.406l.023.977a2.251,2.251,0,0,1,2.016-1.133,1.477,1.477,0,0,1,.641.109ZM4.789,42.336l2.969-5.711h1.7L5.539,43.758V48h-1.5V43.758L.117,36.625H1.836Zm8.914,5.82a3.693,3.693,0,0,1-2.8-1.129,4.19,4.19,0,0,1-1.078-3.02v-.266a5.073,5.073,0,0,1,.48-2.246,3.748,3.748,0,0,1,1.344-1.547,3.378,3.378,0,0,1,1.871-.559,3.166,3.166,0,0,1,2.563,1.086A4.7,4.7,0,0,1,17,43.586v.6H11.273a3,3,0,0,0,.73,2.02,2.3,2.3,0,0,0,1.777.77,2.517,2.517,0,0,0,1.3-.312,3.258,3.258,0,0,0,.93-.828l.883.688A3.55,3.55,0,0,1,13.7,48.156Zm-.18-7.578a1.928,1.928,0,0,0-1.469.637A3.1,3.1,0,0,0,11.32,43h4.234v-.109a2.753,2.753,0,0,0-.594-1.707A1.815,1.815,0,0,0,13.523,40.578Zm9.234.266a4.331,4.331,0,0,0-.711-.055A1.9,1.9,0,0,0,20.117,42v6H18.672V39.547h1.406l.023.977a2.251,2.251,0,0,1,2.016-1.133,1.477,1.477,0,0,1,.641.109Zm6.25,4.914a1.064,1.064,0,0,0-.441-.91,4.249,4.249,0,0,0-1.539-.559,7.277,7.277,0,0,1-1.742-.562,2.479,2.479,0,0,1-.953-.781,1.869,1.869,0,0,1-.309-1.078,2.193,2.193,0,0,1,.879-1.758,3.432,3.432,0,0,1,2.246-.719,3.532,3.532,0,0,1,2.332.742,2.357,2.357,0,0,1,.895,1.9H28.922a1.3,1.3,0,0,0-.5-1.023,1.888,1.888,0,0,0-1.27-.43,1.976,1.976,0,0,0-1.234.344,1.082,1.082,0,0,0-.445.9.877.877,0,0,0,.414.789,5.1,5.1,0,0,0,1.5.508,7.8,7.8,0,0,1,1.754.578,2.558,2.558,0,0,1,1,.809,1.988,1.988,0,0,1,.324,1.152,2.163,2.163,0,0,1-.906,1.816,3.8,3.8,0,0,1-2.352.684,4.257,4.257,0,0,1-1.8-.359,2.922,2.922,0,0,1-1.223-1,2.42,2.42,0,0,1-.441-1.395H25.18a1.5,1.5,0,0,0,.582,1.152,2.258,2.258,0,0,0,1.434.426,2.331,2.331,0,0,0,1.316-.332A1.02,1.02,0,0,0,29.008,45.758ZM33.906,48H32.461V39.547h1.445ZM32.344,37.3a.863.863,0,0,1,.215-.594.807.807,0,0,1,.637-.242.819.819,0,0,1,.641.242.854.854,0,0,1,.219.594.826.826,0,0,1-.219.586.834.834,0,0,1-.641.234.821.821,0,0,1-.637-.234A.834.834,0,0,1,32.344,37.3Zm5.242,2.242.047,1.063a3.08,3.08,0,0,1,2.531-1.219q2.68,0,2.7,3.023V48H41.422V42.406A1.946,1.946,0,0,0,41,41.055a1.675,1.675,0,0,0-1.277-.437,2.086,2.086,0,0,0-1.234.375,2.546,2.546,0,0,0-.828.984V48H36.219V39.547ZM46.617,48H45.172V39.547h1.445ZM45.055,37.3a.863.863,0,0,1,.215-.594.807.807,0,0,1,.637-.242.819.819,0,0,1,.641.242.854.854,0,0,1,.219.594.826.826,0,0,1-.219.586.834.834,0,0,1-.641.234.821.821,0,0,1-.637-.234A.834.834,0,0,1,45.055,37.3ZM54.148,48a3.036,3.036,0,0,1-.2-.891,3.225,3.225,0,0,1-2.406,1.047,2.984,2.984,0,0,1-2.051-.707,2.287,2.287,0,0,1-.8-1.793,2.39,2.39,0,0,1,1-2.051,4.733,4.733,0,0,1,2.824-.73h1.406v-.664A1.623,1.623,0,0,0,53.469,41a1.821,1.821,0,0,0-1.336-.449,2.107,2.107,0,0,0-1.3.391,1.151,1.151,0,0,0-.523.945H48.859a2,2,0,0,1,.449-1.223,3.066,3.066,0,0,1,1.219-.934,4.1,4.1,0,0,1,1.691-.344,3.342,3.342,0,0,1,2.289.73,2.635,2.635,0,0,1,.859,2.012v3.891a4.757,4.757,0,0,0,.3,1.852V48Zm-2.4-1.1a2.54,2.54,0,0,0,1.289-.352,2.127,2.127,0,0,0,.883-.914V43.9H52.789q-2.656,0-2.656,1.555a1.316,1.316,0,0,0,.453,1.063A1.742,1.742,0,0,0,51.75,46.9Z" transform="translate(855.854 6612.733)" fill="#12263f"/>
    <path id="Trazado_915310" data-name="Trazado 915310" d="M9.688-3.609A4.185,4.185,0,0,1,8.355-.824a4.365,4.365,0,0,1-2.98.98,4.008,4.008,0,0,1-3.23-1.445A5.815,5.815,0,0,1,.93-5.156V-6.25A6.481,6.481,0,0,1,1.5-9.039,4.231,4.231,0,0,1,3.1-10.887a4.47,4.47,0,0,1,2.406-.645A4.11,4.11,0,0,1,8.414-10.52a4.235,4.235,0,0,1,1.273,2.8H8.18a3.268,3.268,0,0,0-.848-1.975A2.565,2.565,0,0,0,5.508-10.3,2.684,2.684,0,0,0,3.254-9.241a4.882,4.882,0,0,0-.816,3.026v1.1a5.018,5.018,0,0,0,.773,2.948A2.5,2.5,0,0,0,5.375-1.07a2.887,2.887,0,0,0,1.918-.566A3.143,3.143,0,0,0,8.18-3.609ZM13.078,0H11.633V-12h1.445Zm1.93-4.3A4.993,4.993,0,0,1,15.5-6.539,3.643,3.643,0,0,1,16.855-8.07a3.7,3.7,0,0,1,1.988-.539,3.565,3.565,0,0,1,2.793,1.2A4.6,4.6,0,0,1,22.7-4.234v.1a5.036,5.036,0,0,1-.473,2.215A3.589,3.589,0,0,1,20.879-.391a3.743,3.743,0,0,1-2.02.547,3.556,3.556,0,0,1-2.785-1.2A4.575,4.575,0,0,1,15.008-4.2Zm1.453.172a3.616,3.616,0,0,0,.652,2.258,2.088,2.088,0,0,0,1.746.852,2.075,2.075,0,0,0,1.75-.863A3.955,3.955,0,0,0,21.258-4.3a3.61,3.61,0,0,0-.66-2.254,2.1,2.1,0,0,0-1.754-.863,2.075,2.075,0,0,0-1.727.852A3.925,3.925,0,0,0,16.461-4.133ZM29.438-2.242A1.064,1.064,0,0,0,29-3.152a4.249,4.249,0,0,0-1.539-.559,7.277,7.277,0,0,1-1.742-.562,2.479,2.479,0,0,1-.953-.781,1.869,1.869,0,0,1-.309-1.078,2.193,2.193,0,0,1,.879-1.758,3.432,3.432,0,0,1,2.246-.719,3.532,3.532,0,0,1,2.332.742,2.357,2.357,0,0,1,.895,1.9H29.352a1.3,1.3,0,0,0-.5-1.023,1.888,1.888,0,0,0-1.27-.43,1.976,1.976,0,0,0-1.234.344,1.082,1.082,0,0,0-.445.9.877.877,0,0,0,.414.789,5.1,5.1,0,0,0,1.5.508,7.8,7.8,0,0,1,1.754.578,2.558,2.558,0,0,1,1,.809,1.988,1.988,0,0,1,.324,1.152,2.163,2.163,0,0,1-.906,1.816,3.8,3.8,0,0,1-2.352.684,4.257,4.257,0,0,1-1.8-.359,2.922,2.922,0,0,1-1.223-1A2.42,2.42,0,0,1,24.164-2.6h1.445a1.5,1.5,0,0,0,.582,1.152,2.258,2.258,0,0,0,1.434.426,2.331,2.331,0,0,0,1.316-.332A1.02,1.02,0,0,0,29.438-2.242ZM34.727-10.5v2.047H36.3v1.117H34.727v5.249a1.173,1.173,0,0,0,.211.763.888.888,0,0,0,.719.254,3.5,3.5,0,0,0,.688-.094V0a4.215,4.215,0,0,1-1.109.155A1.8,1.8,0,0,1,33.773-.43a2.517,2.517,0,0,1-.492-1.664V-7.336H31.742V-8.453h1.539V-10.5Zm7.352,3.344a4.331,4.331,0,0,0-.711-.055A1.9,1.9,0,0,0,39.438-6V0H37.992V-8.453H39.4l.023.977a2.251,2.251,0,0,1,2.016-1.133,1.477,1.477,0,0,1,.641.109ZM44.977,0H43.531V-8.453h1.445ZM43.414-10.7a.863.863,0,0,1,.215-.594.807.807,0,0,1,.637-.242.819.819,0,0,1,.641.242.854.854,0,0,1,.219.594.826.826,0,0,1-.219.586.834.834,0,0,1-.641.234.821.821,0,0,1-.637-.234A.834.834,0,0,1,43.414-10.7Zm3.523,6.4a4.952,4.952,0,0,1,.922-3.129,2.915,2.915,0,0,1,2.414-1.184,2.932,2.932,0,0,1,2.352,1.016V-12H54.07V0H52.742l-.07-.906A2.943,2.943,0,0,1,50.258.156a2.887,2.887,0,0,1-2.395-1.2,5.008,5.008,0,0,1-.926-3.141Zm1.445.164a3.749,3.749,0,0,0,.594,2.25,1.92,1.92,0,0,0,1.641.813A2.108,2.108,0,0,0,52.625-2.3V-6.187a2.125,2.125,0,0,0-1.992-1.2,1.929,1.929,0,0,0-1.656.82A4.128,4.128,0,0,0,48.383-4.133ZM57.883,0H56.438V-8.453h1.445ZM56.32-10.7a.863.863,0,0,1,.215-.594.807.807,0,0,1,.637-.242.819.819,0,0,1,.641.242.854.854,0,0,1,.219.594.826.826,0,0,1-.219.586.834.834,0,0,1-.641.234.821.821,0,0,1-.637-.234A.834.834,0,0,1,56.32-10.7ZM65.414-.836a3.07,3.07,0,0,1-2.477.992,2.628,2.628,0,0,1-2.059-.785,3.4,3.4,0,0,1-.715-2.324v-5.5h1.445v5.461q0,1.922,1.563,1.922a2.163,2.163,0,0,0,2.2-1.234V-8.453H66.82V0H65.445Zm4.961-7.617.039.938a3.122,3.122,0,0,1,2.508-1.094A2.417,2.417,0,0,1,75.336-7.25a3.2,3.2,0,0,1,1.1-.984,3.242,3.242,0,0,1,1.6-.375q2.781,0,2.828,2.945V0H79.414V-5.578A1.941,1.941,0,0,0,79-6.934a1.823,1.823,0,0,0-1.391-.449,1.916,1.916,0,0,0-1.336.48,1.949,1.949,0,0,0-.617,1.293V0H74.2V-5.539a1.613,1.613,0,0,0-1.8-1.844,1.934,1.934,0,0,0-1.945,1.211V0H69.008V-8.453Zm23.766,4.32a5.062,5.062,0,0,1-.883,3.109A2.829,2.829,0,0,1,90.867.156,3.1,3.1,0,0,1,88.445-.82V3.25H87v-11.7h1.32l.07.938a2.977,2.977,0,0,1,2.453-1.094,2.882,2.882,0,0,1,2.41,1.148,5.117,5.117,0,0,1,.887,3.2ZM92.7-4.3a3.735,3.735,0,0,0-.609-2.258,1.963,1.963,0,0,0-1.672-.828,2.125,2.125,0,0,0-1.969,1.164V-2.18A2.129,2.129,0,0,0,90.43-1.023a1.954,1.954,0,0,0,1.652-.824A4.077,4.077,0,0,0,92.7-4.3ZM99.484.156a3.693,3.693,0,0,1-2.8-1.129,4.19,4.19,0,0,1-1.078-3.02v-.266A5.073,5.073,0,0,1,96.09-6.5a3.748,3.748,0,0,1,1.344-1.547A3.378,3.378,0,0,1,99.3-8.609a3.166,3.166,0,0,1,2.563,1.086,4.7,4.7,0,0,1,.914,3.109v.6H97.055a3,3,0,0,0,.73,2.02,2.3,2.3,0,0,0,1.777.77,2.517,2.517,0,0,0,1.3-.312,3.259,3.259,0,0,0,.93-.828l.883.688A3.55,3.55,0,0,1,99.484.156ZM99.3-7.422a1.928,1.928,0,0,0-1.469.637A3.1,3.1,0,0,0,97.1-5h4.234v-.109a2.753,2.753,0,0,0-.594-1.707A1.815,1.815,0,0,0,99.3-7.422Zm9.234.266a4.331,4.331,0,0,0-.711-.055A1.9,1.9,0,0,0,105.9-6V0h-1.445V-8.453h1.406l.023.977A2.251,2.251,0,0,1,107.9-8.609a1.477,1.477,0,0,1,.641.109ZM110.7,0V-7.336h-1.336V-8.453H110.7V-9.32a2.878,2.878,0,0,1,.727-2.1,2.745,2.745,0,0,1,2.055-.742,3.816,3.816,0,0,1,.992.132l-.078,1.165a4.151,4.151,0,0,0-.781-.07,1.41,1.41,0,0,0-1.086.411,1.669,1.669,0,0,0-.383,1.18v.893h1.8v1.117h-1.8V0Zm8.93-7.156a4.331,4.331,0,0,0-.711-.055A1.9,1.9,0,0,0,116.984-6V0h-1.445V-8.453h1.406l.023.977a2.251,2.251,0,0,1,2.016-1.133,1.477,1.477,0,0,1,.641.109ZM122.523,0h-1.445V-8.453h1.445Zm-1.562-10.7a.863.863,0,0,1,.215-.594.807.807,0,0,1,.637-.242.819.819,0,0,1,.641.242.854.854,0,0,1,.219.594.826.826,0,0,1-.219.586.834.834,0,0,1-.641.234.821.821,0,0,1-.637-.234A.834.834,0,0,1,120.961-10.7ZM126.2-8.453l.047,1.063a3.08,3.08,0,0,1,2.531-1.219q2.68,0,2.7,3.023V0h-1.445V-5.594a1.946,1.946,0,0,0-.418-1.352,1.675,1.675,0,0,0-1.277-.437,2.086,2.086,0,0,0-1.234.375,2.546,2.546,0,0,0-.828.984V0h-1.445V-8.453ZM133.32-4.3a4.968,4.968,0,0,1,.914-3.145,2.923,2.923,0,0,1,2.422-1.168,2.908,2.908,0,0,1,2.414,1.094l.07-.937h1.32V-.2a3.439,3.439,0,0,1-.973,2.586,3.589,3.589,0,0,1-2.613.945,4.348,4.348,0,0,1-1.789-.391,3.08,3.08,0,0,1-1.336-1.07L134.5,1a2.826,2.826,0,0,0,2.273,1.148,2.214,2.214,0,0,0,1.645-.594,2.269,2.269,0,0,0,.59-1.672V-.844a2.971,2.971,0,0,1-2.367,1,2.887,2.887,0,0,1-2.4-1.2A5.224,5.224,0,0,1,133.32-4.3Zm1.453.164a3.79,3.79,0,0,0,.586,2.246A1.9,1.9,0,0,0,137-1.07a2.117,2.117,0,0,0,2.008-1.242V-6.172a2.142,2.142,0,0,0-1.992-1.211,1.921,1.921,0,0,0-1.648.82A4.128,4.128,0,0,0,134.773-4.133ZM146.148.156a3.693,3.693,0,0,1-2.8-1.129,4.19,4.19,0,0,1-1.078-3.02v-.266a5.073,5.073,0,0,1,.48-2.246A3.748,3.748,0,0,1,144.1-8.051a3.378,3.378,0,0,1,1.871-.559,3.166,3.166,0,0,1,2.563,1.086,4.7,4.7,0,0,1,.914,3.109v.6h-5.727a3,3,0,0,0,.73,2.02,2.3,2.3,0,0,0,1.777.77,2.517,2.517,0,0,0,1.3-.312,3.258,3.258,0,0,0,.93-.828l.883.688A3.55,3.55,0,0,1,146.148.156Zm-.18-7.578a1.928,1.928,0,0,0-1.469.637A3.1,3.1,0,0,0,143.766-5H148v-.109a2.753,2.753,0,0,0-.594-1.707A1.815,1.815,0,0,0,145.969-7.422Zm6.516-1.031.047,1.063a3.08,3.08,0,0,1,2.531-1.219q2.68,0,2.7,3.023V0H156.32V-5.594a1.946,1.946,0,0,0-.418-1.352,1.675,1.675,0,0,0-1.277-.437,2.086,2.086,0,0,0-1.234.375,2.546,2.546,0,0,0-.828.984V0h-1.445V-8.453Zm12.383,6.211a1.064,1.064,0,0,0-.441-.91,4.249,4.249,0,0,0-1.539-.559,7.277,7.277,0,0,1-1.742-.562,2.479,2.479,0,0,1-.953-.781,1.869,1.869,0,0,1-.309-1.078,2.193,2.193,0,0,1,.879-1.758,3.432,3.432,0,0,1,2.246-.719,3.532,3.532,0,0,1,2.332.742,2.357,2.357,0,0,1,.895,1.9h-1.453a1.3,1.3,0,0,0-.5-1.023,1.888,1.888,0,0,0-1.27-.43,1.976,1.976,0,0,0-1.234.344,1.082,1.082,0,0,0-.445.9.877.877,0,0,0,.414.789,5.1,5.1,0,0,0,1.5.508,7.8,7.8,0,0,1,1.754.578,2.558,2.558,0,0,1,1,.809,1.988,1.988,0,0,1,.324,1.152,2.163,2.163,0,0,1-.906,1.816,3.8,3.8,0,0,1-2.352.684,4.257,4.257,0,0,1-1.8-.359,2.922,2.922,0,0,1-1.223-1,2.42,2.42,0,0,1-.441-1.395h1.445a1.5,1.5,0,0,0,.582,1.152,2.258,2.258,0,0,0,1.434.426,2.331,2.331,0,0,0,1.316-.332A1.02,1.02,0,0,0,164.867-2.242ZM172.1-4.617a12.079,12.079,0,0,1,.473-3.391,9.85,9.85,0,0,1,1.41-2.953,6,6,0,0,1,1.945-1.875l.3.953a6.222,6.222,0,0,0-1.871,2.672,11.583,11.583,0,0,0-.8,4.023l-.008.664a11.643,11.643,0,0,0,1.1,5.234,6.252,6.252,0,0,0,1.578,2.078l-.3.883a6.192,6.192,0,0,1-1.984-1.937A10.859,10.859,0,0,1,172.1-4.617Zm13.609-5.531h-3.656V0h-1.492V-10.148h-3.648v-1.227h8.8Zm4.2,10.3a3.693,3.693,0,0,1-2.8-1.129,4.19,4.19,0,0,1-1.078-3.02v-.266a5.073,5.073,0,0,1,.48-2.246,3.748,3.748,0,0,1,1.344-1.547,3.378,3.378,0,0,1,1.871-.559,3.166,3.166,0,0,1,2.563,1.086,4.7,4.7,0,0,1,.914,3.109v.6h-5.727a3,3,0,0,0,.73,2.02,2.3,2.3,0,0,0,1.777.77,2.517,2.517,0,0,0,1.3-.312,3.258,3.258,0,0,0,.93-.828l.883.688A3.55,3.55,0,0,1,189.906.156Zm-.18-7.578a1.928,1.928,0,0,0-1.469.637A3.1,3.1,0,0,0,187.523-5h4.234v-.109a2.753,2.753,0,0,0-.594-1.707A1.815,1.815,0,0,0,189.727-7.422Zm6.508-1.031.039.938a3.122,3.122,0,0,1,2.508-1.094A2.417,2.417,0,0,1,201.2-7.25a3.2,3.2,0,0,1,1.1-.984,3.242,3.242,0,0,1,1.6-.375q2.781,0,2.828,2.945V0h-1.445V-5.578a1.941,1.941,0,0,0-.414-1.355,1.823,1.823,0,0,0-1.391-.449,1.917,1.917,0,0,0-1.336.48,1.949,1.949,0,0,0-.617,1.293V0h-1.453V-5.539a1.613,1.613,0,0,0-1.8-1.844,1.934,1.934,0,0,0-1.945,1.211V0h-1.445V-8.453Zm19.8,4.32a5.062,5.062,0,0,1-.883,3.109,2.829,2.829,0,0,1-2.391,1.18,3.1,3.1,0,0,1-2.422-.977V3.25H208.9v-11.7h1.32l.07.938a2.977,2.977,0,0,1,2.453-1.094,2.882,2.882,0,0,1,2.41,1.148,5.117,5.117,0,0,1,.887,3.2ZM214.594-4.3a3.735,3.735,0,0,0-.609-2.258,1.963,1.963,0,0,0-1.672-.828,2.125,2.125,0,0,0-1.969,1.164V-2.18a2.129,2.129,0,0,0,1.984,1.156,1.954,1.954,0,0,0,1.652-.824A4.077,4.077,0,0,0,214.594-4.3ZM221.383.156a3.693,3.693,0,0,1-2.8-1.129,4.19,4.19,0,0,1-1.078-3.02v-.266a5.073,5.073,0,0,1,.48-2.246,3.748,3.748,0,0,1,1.344-1.547,3.378,3.378,0,0,1,1.871-.559,3.166,3.166,0,0,1,2.563,1.086,4.7,4.7,0,0,1,.914,3.109v.6h-5.727a3,3,0,0,0,.73,2.02,2.3,2.3,0,0,0,1.777.77,2.517,2.517,0,0,0,1.3-.312,3.258,3.258,0,0,0,.93-.828l.883.688A3.55,3.55,0,0,1,221.383.156Zm-.18-7.578a1.928,1.928,0,0,0-1.469.637A3.1,3.1,0,0,0,219-5h4.234v-.109a2.753,2.753,0,0,0-.594-1.707A1.815,1.815,0,0,0,221.2-7.422Zm9.234.266a4.331,4.331,0,0,0-.711-.055A1.9,1.9,0,0,0,227.8-6V0h-1.445V-8.453h1.406l.023.977A2.251,2.251,0,0,1,229.8-8.609a1.477,1.477,0,0,1,.641.109ZM236.672,0a3.036,3.036,0,0,1-.2-.891A3.225,3.225,0,0,1,234.063.156a2.984,2.984,0,0,1-2.051-.707,2.287,2.287,0,0,1-.8-1.793,2.39,2.39,0,0,1,1-2.051,4.733,4.733,0,0,1,2.824-.73h1.406v-.664A1.623,1.623,0,0,0,235.992-7a1.821,1.821,0,0,0-1.336-.449,2.107,2.107,0,0,0-1.3.391,1.151,1.151,0,0,0-.523.945h-1.453a2,2,0,0,1,.449-1.223,3.066,3.066,0,0,1,1.219-.934,4.1,4.1,0,0,1,1.691-.344,3.342,3.342,0,0,1,2.289.73,2.635,2.635,0,0,1,.859,2.012v3.891a4.757,4.757,0,0,0,.3,1.852V0Zm-2.4-1.1a2.54,2.54,0,0,0,1.289-.352,2.127,2.127,0,0,0,.883-.914V-4.1h-1.133q-2.656,0-2.656,1.555a1.316,1.316,0,0,0,.453,1.063A1.742,1.742,0,0,0,234.273-1.1Zm7.844-9.4v2.047H243.7v1.117h-1.578v5.249a1.173,1.173,0,0,0,.211.763.888.888,0,0,0,.719.254,3.5,3.5,0,0,0,.688-.094V0a4.215,4.215,0,0,1-1.109.155,1.8,1.8,0,0,1-1.461-.586,2.517,2.517,0,0,1-.492-1.664V-7.336h-1.539V-8.453h1.539V-10.5ZM250.6-.836a3.07,3.07,0,0,1-2.477.992,2.628,2.628,0,0,1-2.059-.785,3.4,3.4,0,0,1-.715-2.324v-5.5H246.8v5.461q0,1.922,1.563,1.922a2.163,2.163,0,0,0,2.2-1.234V-8.453h1.445V0h-1.375Zm7.688-6.32a4.331,4.331,0,0,0-.711-.055A1.9,1.9,0,0,0,255.648-6V0H254.2V-8.453h1.406l.023.977a2.251,2.251,0,0,1,2.016-1.133,1.477,1.477,0,0,1,.641.109ZM264.523,0a3.036,3.036,0,0,1-.2-.891A3.225,3.225,0,0,1,261.914.156a2.984,2.984,0,0,1-2.051-.707,2.288,2.288,0,0,1-.8-1.793,2.39,2.39,0,0,1,1-2.051,4.733,4.733,0,0,1,2.824-.73H264.3v-.664A1.623,1.623,0,0,0,263.844-7a1.821,1.821,0,0,0-1.336-.449,2.108,2.108,0,0,0-1.3.391,1.151,1.151,0,0,0-.523.945h-1.453a2,2,0,0,1,.449-1.223,3.066,3.066,0,0,1,1.219-.934,4.1,4.1,0,0,1,1.691-.344,3.342,3.342,0,0,1,2.289.73,2.635,2.635,0,0,1,.859,2.012v3.891a4.757,4.757,0,0,0,.3,1.852V0Zm-2.4-1.1a2.54,2.54,0,0,0,1.289-.352,2.126,2.126,0,0,0,.883-.914V-4.1h-1.133q-2.656,0-2.656,1.555a1.316,1.316,0,0,0,.453,1.063A1.742,1.742,0,0,0,262.125-1.1Zm14.961-3.977L271.922-7.1V-8.586l6.672,2.953v1.141l-6.672,2.961v-1.5ZM288.891,0h-1.453V-9.633l-2.914,1.07V-9.875l4.141-1.555h.227Zm4.9-5.7.578-5.672H300.2v1.336h-4.6l-.344,3.1a3.671,3.671,0,0,1,1.9-.492A3.138,3.138,0,0,1,299.617-6.4a4.026,4.026,0,0,1,.914,2.777,3.886,3.886,0,0,1-.949,2.77A3.46,3.46,0,0,1,296.93.156a3.6,3.6,0,0,1-2.461-.836,3.337,3.337,0,0,1-1.086-2.312h1.367a2.3,2.3,0,0,0,.7,1.473,2.162,2.162,0,0,0,1.484.5,1.95,1.95,0,0,0,1.582-.687,2.874,2.874,0,0,0,.574-1.9,2.638,2.638,0,0,0-.621-1.832,2.113,2.113,0,0,0-1.652-.691,2.383,2.383,0,0,0-1.484.414l-.383.313Zm12.352-3.8a1.994,1.994,0,0,1,.582-1.422,1.878,1.878,0,0,1,1.41-.609,1.842,1.842,0,0,1,1.387.605,2,2,0,0,1,.574,1.426,1.947,1.947,0,0,1-.574,1.414,1.871,1.871,0,0,1-1.387.586,1.918,1.918,0,0,1-1.406-.586A1.927,1.927,0,0,1,306.141-9.5Zm1.992,1a.99.99,0,0,0,.711-.276.951.951,0,0,0,.289-.72,1.012,1.012,0,0,0-.289-.743.962.962,0,0,0-.711-.292.959.959,0,0,0-.723.307,1.019,1.019,0,0,0-.293.728.954.954,0,0,0,.293.708A.991.991,0,0,0,308.133-8.5Zm12.656,4.891a4.185,4.185,0,0,1-1.332,2.785,4.365,4.365,0,0,1-2.98.98,4.008,4.008,0,0,1-3.23-1.445,5.815,5.815,0,0,1-1.215-3.867V-6.25a6.481,6.481,0,0,1,.566-2.789,4.231,4.231,0,0,1,1.605-1.848,4.47,4.47,0,0,1,2.406-.645,4.11,4.11,0,0,1,2.906,1.012,4.235,4.235,0,0,1,1.273,2.8h-1.508a3.268,3.268,0,0,0-.848-1.975,2.565,2.565,0,0,0-1.824-.611,2.684,2.684,0,0,0-2.254,1.063,4.882,4.882,0,0,0-.816,3.026v1.1a5.018,5.018,0,0,0,.773,2.948,2.5,2.5,0,0,0,2.164,1.095,2.886,2.886,0,0,0,1.918-.566,3.143,3.143,0,0,0,.887-1.973Zm4.953-.93a12.084,12.084,0,0,1-.457,3.34,9.876,9.876,0,0,1-1.4,2.949,6.127,6.127,0,0,1-1.973,1.922l-.3-.883a6.281,6.281,0,0,0,1.934-2.863,12.387,12.387,0,0,0,.746-4.309v-.25a12.862,12.862,0,0,0-.344-3.051,10.3,10.3,0,0,0-.957-2.527,5.838,5.838,0,0,0-1.379-1.742l.3-.883a6.1,6.1,0,0,1,1.965,1.906,9.9,9.9,0,0,1,1.4,2.945A12.363,12.363,0,0,1,325.742-4.539ZM4.672,18.93a7.053,7.053,0,0,1-2.809-1.363,2.6,2.6,0,0,1-.879-2,2.751,2.751,0,0,1,1.074-2.223,4.269,4.269,0,0,1,2.793-.879,4.66,4.66,0,0,1,2.09.453,3.436,3.436,0,0,1,1.422,1.25,3.2,3.2,0,0,1,.5,1.742H7.359A2.08,2.08,0,0,0,6.7,14.287,2.669,2.669,0,0,0,4.852,13.7a2.732,2.732,0,0,0-1.73.489A1.632,1.632,0,0,0,2.5,15.542a1.468,1.468,0,0,0,.59,1.178A5.785,5.785,0,0,0,5.1,17.6a9.316,9.316,0,0,1,2.219.88A3.367,3.367,0,0,1,8.5,19.6a2.861,2.861,0,0,1,.387,1.508,2.658,2.658,0,0,1-1.078,2.215,4.6,4.6,0,0,1-2.883.832,5.347,5.347,0,0,1-2.187-.449,3.681,3.681,0,0,1-1.566-1.23A3,3,0,0,1,.625,20.7H2.133a1.959,1.959,0,0,0,.762,1.629,3.207,3.207,0,0,0,2.035.6,2.948,2.948,0,0,0,1.82-.484,1.573,1.573,0,0,0,.633-1.32A1.545,1.545,0,0,0,6.8,19.832,6.755,6.755,0,0,0,4.672,18.93Zm7.875-5.43v2.047h1.578v1.117H12.547v5.249a1.173,1.173,0,0,0,.211.763.888.888,0,0,0,.719.254,3.5,3.5,0,0,0,.688-.094V24a4.215,4.215,0,0,1-1.109.155,1.8,1.8,0,0,1-1.461-.586,2.517,2.517,0,0,1-.492-1.664V16.664H9.563V15.547H11.1V13.5ZM21.031,24a3.036,3.036,0,0,1-.2-.891,3.225,3.225,0,0,1-2.406,1.047,2.984,2.984,0,0,1-2.051-.707,2.287,2.287,0,0,1-.8-1.793,2.39,2.39,0,0,1,1-2.051,4.733,4.733,0,0,1,2.824-.73H20.8v-.664A1.623,1.623,0,0,0,20.352,17a1.821,1.821,0,0,0-1.336-.449,2.108,2.108,0,0,0-1.3.391,1.151,1.151,0,0,0-.523.945H15.742a2,2,0,0,1,.449-1.223,3.066,3.066,0,0,1,1.219-.934,4.1,4.1,0,0,1,1.691-.344,3.342,3.342,0,0,1,2.289.73,2.635,2.635,0,0,1,.859,2.012v3.891a4.757,4.757,0,0,0,.3,1.852V24Zm-2.4-1.1a2.54,2.54,0,0,0,1.289-.352,2.127,2.127,0,0,0,.883-.914V19.9H19.672q-2.656,0-2.656,1.555a1.316,1.316,0,0,0,.453,1.063A1.742,1.742,0,0,0,18.633,22.9Zm13.023-3.031a5.062,5.062,0,0,1-.883,3.109,2.829,2.829,0,0,1-2.391,1.18,3.1,3.1,0,0,1-2.422-.977v4.07H24.516v-11.7h1.32l.07.938a2.977,2.977,0,0,1,2.453-1.094,2.882,2.882,0,0,1,2.41,1.148,5.117,5.117,0,0,1,.887,3.2ZM30.211,19.7a3.735,3.735,0,0,0-.609-2.258,1.963,1.963,0,0,0-1.672-.828,2.125,2.125,0,0,0-1.969,1.164V21.82a2.129,2.129,0,0,0,1.984,1.156,1.954,1.954,0,0,0,1.652-.824A4.077,4.077,0,0,0,30.211,19.7Zm4.727-3.133a3.073,3.073,0,0,1,2.5-1.18q2.68,0,2.7,3.023V24H38.7V18.406a1.946,1.946,0,0,0-.418-1.352A1.675,1.675,0,0,0,37,16.617a2.086,2.086,0,0,0-1.234.375,2.546,2.546,0,0,0-.828.984V24H33.492V12h1.445ZM45.07,21.883l1.969-6.336h1.547l-3.4,9.758q-.789,2.109-2.508,2.109l-.273-.023-.539-.1V26.117l.391.031a1.923,1.923,0,0,0,1.145-.3,2.148,2.148,0,0,0,.676-1.086l.32-.859-3.016-8.359h1.578ZM51.445,24H50V12h1.445Zm1.93-4.3a4.993,4.993,0,0,1,.488-2.234,3.643,3.643,0,0,1,1.359-1.531,3.7,3.7,0,0,1,1.988-.539A3.565,3.565,0,0,1,60,16.586a4.6,4.6,0,0,1,1.066,3.18v.1a5.036,5.036,0,0,1-.473,2.215,3.589,3.589,0,0,1-1.352,1.527,3.743,3.743,0,0,1-2.02.547,3.556,3.556,0,0,1-2.785-1.2A4.575,4.575,0,0,1,53.375,19.8Zm1.453.172a3.616,3.616,0,0,0,.652,2.258,2.211,2.211,0,0,0,3.5-.012,3.955,3.955,0,0,0,.648-2.418,3.61,3.61,0,0,0-.66-2.254,2.1,2.1,0,0,0-1.754-.863,2.075,2.075,0,0,0-1.727.852A3.925,3.925,0,0,0,54.828,19.867Zm11.445,3.109a2.082,2.082,0,0,0,1.352-.469,1.649,1.649,0,0,0,.641-1.172h1.367a2.621,2.621,0,0,1-.5,1.383,3.293,3.293,0,0,1-1.23,1.047,3.55,3.55,0,0,1-1.629.391A3.482,3.482,0,0,1,63.527,23a4.59,4.59,0,0,1-1.02-3.152v-.242a5.089,5.089,0,0,1,.453-2.2,3.451,3.451,0,0,1,1.3-1.492,3.7,3.7,0,0,1,2-.531,3.39,3.39,0,0,1,2.363.852,3.043,3.043,0,0,1,1,2.211H68.266a1.992,1.992,0,0,0-.621-1.348,1.932,1.932,0,0,0-1.379-.527,2.023,2.023,0,0,0-1.707.793,3.724,3.724,0,0,0-.605,2.293v.273a3.65,3.65,0,0,0,.6,2.25A2.033,2.033,0,0,0,66.273,22.977Zm4.6-3.281a4.993,4.993,0,0,1,.488-2.234,3.643,3.643,0,0,1,1.359-1.531,3.7,3.7,0,0,1,1.988-.539,3.565,3.565,0,0,1,2.793,1.2,4.6,4.6,0,0,1,1.066,3.18v.1a5.036,5.036,0,0,1-.473,2.215,3.589,3.589,0,0,1-1.352,1.527,3.743,3.743,0,0,1-2.02.547,3.556,3.556,0,0,1-2.785-1.2A4.575,4.575,0,0,1,70.875,19.8Zm1.453.172a3.616,3.616,0,0,0,.652,2.258,2.211,2.211,0,0,0,3.5-.012,3.955,3.955,0,0,0,.648-2.418,3.61,3.61,0,0,0-.66-2.254,2.1,2.1,0,0,0-1.754-.863,2.075,2.075,0,0,0-1.727.852A3.925,3.925,0,0,0,72.328,19.867Zm11.445,3.109a2.082,2.082,0,0,0,1.352-.469,1.649,1.649,0,0,0,.641-1.172h1.367a2.621,2.621,0,0,1-.5,1.383,3.293,3.293,0,0,1-1.23,1.047,3.55,3.55,0,0,1-1.629.391A3.482,3.482,0,0,1,81.027,23a4.59,4.59,0,0,1-1.02-3.152v-.242a5.089,5.089,0,0,1,.453-2.2,3.451,3.451,0,0,1,1.3-1.492,3.7,3.7,0,0,1,2-.531,3.39,3.39,0,0,1,2.363.852,3.043,3.043,0,0,1,1,2.211H85.766a1.992,1.992,0,0,0-.621-1.348,1.932,1.932,0,0,0-1.379-.527,2.023,2.023,0,0,0-1.707.793,3.724,3.724,0,0,0-.605,2.293v.273a3.65,3.65,0,0,0,.6,2.25A2.033,2.033,0,0,0,83.773,22.977Zm8.375,0a2.082,2.082,0,0,0,1.352-.469,1.649,1.649,0,0,0,.641-1.172h1.367a2.621,2.621,0,0,1-.5,1.383,3.293,3.293,0,0,1-1.23,1.047,3.55,3.55,0,0,1-1.629.391A3.482,3.482,0,0,1,89.4,23a4.59,4.59,0,0,1-1.02-3.152v-.242a5.089,5.089,0,0,1,.453-2.2,3.451,3.451,0,0,1,1.3-1.492,3.7,3.7,0,0,1,2-.531,3.39,3.39,0,0,1,2.363.852,3.043,3.043,0,0,1,1,2.211H94.141a1.992,1.992,0,0,0-.621-1.348,1.932,1.932,0,0,0-1.379-.527,2.023,2.023,0,0,0-1.707.793,3.724,3.724,0,0,0-.605,2.293v.273a3.65,3.65,0,0,0,.6,2.25A2.033,2.033,0,0,0,92.148,22.977Zm10.2.188a3.07,3.07,0,0,1-2.477.992,2.628,2.628,0,0,1-2.059-.785,3.4,3.4,0,0,1-.715-2.324v-5.5h1.445v5.461q0,1.922,1.563,1.922a2.163,2.163,0,0,0,2.2-1.234V15.547h1.445V24h-1.375Zm8.523-1.406a1.064,1.064,0,0,0-.441-.91,4.249,4.249,0,0,0-1.539-.559,7.277,7.277,0,0,1-1.742-.562,2.478,2.478,0,0,1-.953-.781,1.869,1.869,0,0,1-.309-1.078,2.193,2.193,0,0,1,.879-1.758,3.432,3.432,0,0,1,2.246-.719,3.532,3.532,0,0,1,2.332.742,2.357,2.357,0,0,1,.895,1.9h-1.453a1.3,1.3,0,0,0-.5-1.023,1.888,1.888,0,0,0-1.27-.43,1.976,1.976,0,0,0-1.234.344,1.082,1.082,0,0,0-.445.9.877.877,0,0,0,.414.789,5.1,5.1,0,0,0,1.5.508A7.8,7.8,0,0,1,111,19.7a2.558,2.558,0,0,1,1,.809,1.988,1.988,0,0,1,.324,1.152,2.163,2.163,0,0,1-.906,1.816,3.8,3.8,0,0,1-2.352.684,4.257,4.257,0,0,1-1.8-.359,2.922,2.922,0,0,1-1.223-1A2.42,2.42,0,0,1,105.6,21.4h1.445a1.5,1.5,0,0,0,.582,1.152,2.258,2.258,0,0,0,1.434.426,2.331,2.331,0,0,0,1.316-.332A1.02,1.02,0,0,0,110.875,21.758ZM123.383,24a3.036,3.036,0,0,1-.2-.891,3.225,3.225,0,0,1-2.406,1.047,2.984,2.984,0,0,1-2.051-.707,2.288,2.288,0,0,1-.8-1.793,2.39,2.39,0,0,1,1-2.051,4.733,4.733,0,0,1,2.824-.73h1.406v-.664A1.623,1.623,0,0,0,122.7,17a1.821,1.821,0,0,0-1.336-.449,2.108,2.108,0,0,0-1.3.391,1.151,1.151,0,0,0-.523.945h-1.453a2,2,0,0,1,.449-1.223,3.066,3.066,0,0,1,1.219-.934,4.1,4.1,0,0,1,1.691-.344,3.342,3.342,0,0,1,2.289.73,2.635,2.635,0,0,1,.859,2.012v3.891a4.757,4.757,0,0,0,.3,1.852V24Zm-2.4-1.1a2.54,2.54,0,0,0,1.289-.352,2.127,2.127,0,0,0,.883-.914V19.9h-1.133q-2.656,0-2.656,1.555a1.316,1.316,0,0,0,.453,1.063A1.742,1.742,0,0,0,120.984,22.9Zm11.1.266a3.07,3.07,0,0,1-2.477.992,2.628,2.628,0,0,1-2.059-.785,3.4,3.4,0,0,1-.715-2.324v-5.5h1.445v5.461q0,1.922,1.563,1.922a2.163,2.163,0,0,0,2.2-1.234V15.547h1.445V24h-1.375Zm7.688-6.32a4.331,4.331,0,0,0-.711-.055A1.9,1.9,0,0,0,137.133,18v6h-1.445V15.547h1.406l.023.977a2.251,2.251,0,0,1,2.016-1.133,1.477,1.477,0,0,1,.641.109Zm4.688,7.313a3.693,3.693,0,0,1-2.8-1.129,4.19,4.19,0,0,1-1.078-3.02v-.266a5.073,5.073,0,0,1,.48-2.246,3.748,3.748,0,0,1,1.344-1.547,3.378,3.378,0,0,1,1.871-.559,3.166,3.166,0,0,1,2.563,1.086,4.7,4.7,0,0,1,.914,3.109v.6h-5.727a3,3,0,0,0,.73,2.02,2.3,2.3,0,0,0,1.777.77,2.517,2.517,0,0,0,1.3-.312,3.258,3.258,0,0,0,.93-.828l.883.688A3.55,3.55,0,0,1,144.461,24.156Zm-.18-7.578a1.928,1.928,0,0,0-1.469.637A3.1,3.1,0,0,0,142.078,19h4.234v-.109a2.753,2.753,0,0,0-.594-1.707A1.815,1.815,0,0,0,144.281,16.578Zm10.367,6.586a3.07,3.07,0,0,1-2.477.992,2.628,2.628,0,0,1-2.059-.785,3.4,3.4,0,0,1-.715-2.324v-5.5h1.445v5.461q0,1.922,1.563,1.922a2.163,2.163,0,0,0,2.2-1.234V15.547h1.445V24H154.68Zm8.523-1.406a1.064,1.064,0,0,0-.441-.91,4.249,4.249,0,0,0-1.539-.559,7.277,7.277,0,0,1-1.742-.562,2.479,2.479,0,0,1-.953-.781,1.869,1.869,0,0,1-.309-1.078,2.193,2.193,0,0,1,.879-1.758,3.432,3.432,0,0,1,2.246-.719,3.532,3.532,0,0,1,2.332.742,2.357,2.357,0,0,1,.895,1.9h-1.453a1.3,1.3,0,0,0-.5-1.023,1.888,1.888,0,0,0-1.27-.43,1.976,1.976,0,0,0-1.234.344,1.082,1.082,0,0,0-.445.9.877.877,0,0,0,.414.789,5.1,5.1,0,0,0,1.5.508,7.8,7.8,0,0,1,1.754.578,2.558,2.558,0,0,1,1,.809,1.988,1.988,0,0,1,.324,1.152,2.163,2.163,0,0,1-.906,1.816,3.8,3.8,0,0,1-2.352.684,4.257,4.257,0,0,1-1.8-.359,2.922,2.922,0,0,1-1.223-1A2.42,2.42,0,0,1,157.9,21.4h1.445a1.5,1.5,0,0,0,.582,1.152,2.258,2.258,0,0,0,1.434.426,2.331,2.331,0,0,0,1.316-.332A1.02,1.02,0,0,0,163.172,21.758Z" transform="translate(855.854 6742.733)" fill="#12263f"/>
    <path id="Trazado_915311" data-name="Trazado 915311" d="M18,0H152a18,18,0,0,1,0,36H18A18,18,0,0,1,18,0Z" transform="translate(430 6696.891)" fill="#fcedb6"/>
    <path id="Trazado_915312" data-name="Trazado 915312" d="M18,0H125a18,18,0,0,1,0,36H18A18,18,0,0,1,18,0Z" transform="translate(647 6631.891)" fill="#fddadb"/>
    <path id="Trazado_915313" data-name="Trazado 915313" d="M18,0H125a18,18,0,0,1,0,36H18A18,18,0,0,1,18,0Z" transform="translate(647 6754.891)" fill="#fddadb"/>
    <path id="Trazado_915314" data-name="Trazado 915314" d="M.859,0V-11.375H4.945a5.786,5.786,0,0,1,3.34.8A2.677,2.677,0,0,1,9.43-8.234a2.707,2.707,0,0,1-.406,1.508,2.367,2.367,0,0,1-1.2.922A2.4,2.4,0,0,1,9.2-4.93a2.544,2.544,0,0,1,.477,1.563A3.012,3.012,0,0,1,8.613-.855,5.038,5.038,0,0,1,5.477,0ZM3.6-4.836v2.727H5.4a1.709,1.709,0,0,0,1.141-.34,1.189,1.189,0,0,0,.4-.957,1.261,1.261,0,0,0-1.414-1.43Zm0-1.8h1.43a2.031,2.031,0,0,0,1.281-.329A1.168,1.168,0,0,0,6.7-7.91a1.226,1.226,0,0,0-.414-1.038,2.216,2.216,0,0,0-1.336-.317H3.6ZM15.82,0a2.973,2.973,0,0,1-.25-.758,2.448,2.448,0,0,1-2.031.914,3,3,0,0,1-2.031-.723,2.3,2.3,0,0,1-.836-1.816,2.364,2.364,0,0,1,1.016-2.078,5.174,5.174,0,0,1,2.953-.7h.813v-.448q0-1.17-1.008-1.17a.824.824,0,0,0-.937.926H10.875a2.36,2.36,0,0,1,1.043-1.99,4.383,4.383,0,0,1,2.66-.765,3.843,3.843,0,0,1,2.555.789,2.743,2.743,0,0,1,.961,2.164v3.742a3.832,3.832,0,0,0,.359,1.781V0ZM14.172-1.719a1.469,1.469,0,0,0,.816-.211,1.322,1.322,0,0,0,.465-.477V-3.758h-.766q-1.375,0-1.375,1.234a.754.754,0,0,0,.242.582A.876.876,0,0,0,14.172-1.719Zm8.953-.156a1.171,1.171,0,0,0,.859-.3,1.1,1.1,0,0,0,.3-.84H26.75a2.922,2.922,0,0,1-1,2.281,3.705,3.705,0,0,1-2.566.891A3.751,3.751,0,0,1,20.281-1a4.556,4.556,0,0,1-1.062-3.2v-.109a5.149,5.149,0,0,1,.473-2.262,3.441,3.441,0,0,1,1.363-1.508,4.065,4.065,0,0,1,2.109-.527,3.658,3.658,0,0,1,2.617.914,3.242,3.242,0,0,1,.969,2.477H24.281a1.445,1.445,0,0,0-.32-1.008,1.106,1.106,0,0,0-.859-.352q-1.023,0-1.2,1.3a9.206,9.206,0,0,0-.055,1.141,3.616,3.616,0,0,0,.3,1.766A1.055,1.055,0,0,0,23.125-1.875Zm7.8-8.68v2.1H32.32v1.828H30.93v3.867a.987.987,0,0,0,.172.664.922.922,0,0,0,.68.188,3.862,3.862,0,0,0,.656-.047V-.07a4.859,4.859,0,0,1-1.484.227,2.758,2.758,0,0,1-2.008-.641A2.626,2.626,0,0,1,28.3-2.43v-4.2H27.219V-8.453H28.3v-2.1ZM37.445.156A4.345,4.345,0,0,1,34.3-1a4.006,4.006,0,0,1-1.2-3.02v-.219a5.191,5.191,0,0,1,.48-2.289,3.516,3.516,0,0,1,1.4-1.535,4.233,4.233,0,0,1,2.188-.543A3.659,3.659,0,0,1,39.977-7.5a4.344,4.344,0,0,1,1.031,3.082V-3.4H35.773a1.9,1.9,0,0,0,.617,1.117,1.836,1.836,0,0,0,1.234.406,2.366,2.366,0,0,0,1.953-.875l1.2,1.422A3.363,3.363,0,0,1,39.387-.246,4.713,4.713,0,0,1,37.445.156Zm-.3-6.734q-1.156,0-1.375,1.531H38.43v-.2a1.3,1.3,0,0,0-.32-.98A1.275,1.275,0,0,0,37.148-6.578ZM47.18-6.07l-.867-.062a1.558,1.558,0,0,0-1.594.781V0H42.086V-8.453h2.469l.086,1.086a2.039,2.039,0,0,1,1.852-1.242,2.567,2.567,0,0,1,.734.094ZM50.906,0H48.266V-8.453h2.641Zm-2.8-10.641a1.186,1.186,0,0,1,.406-.927,1.527,1.527,0,0,1,1.055-.362,1.527,1.527,0,0,1,1.055.362,1.186,1.186,0,0,1,.406.927,1.186,1.186,0,0,1-.406.927,1.527,1.527,0,0,1-1.055.362,1.527,1.527,0,0,1-1.055-.362A1.186,1.186,0,0,1,48.109-10.641ZM57.289,0a2.973,2.973,0,0,1-.25-.758,2.448,2.448,0,0,1-2.031.914,3,3,0,0,1-2.031-.723,2.3,2.3,0,0,1-.836-1.816,2.364,2.364,0,0,1,1.016-2.078,5.174,5.174,0,0,1,2.953-.7h.813v-.448q0-1.17-1.008-1.17a.824.824,0,0,0-.937.926H52.344a2.36,2.36,0,0,1,1.043-1.99,4.383,4.383,0,0,1,2.66-.765A3.843,3.843,0,0,1,58.6-7.82a2.743,2.743,0,0,1,.961,2.164v3.742a3.832,3.832,0,0,0,.359,1.781V0ZM55.641-1.719a1.469,1.469,0,0,0,.816-.211,1.322,1.322,0,0,0,.465-.477V-3.758h-.766q-1.375,0-1.375,1.234a.754.754,0,0,0,.242.582A.876.876,0,0,0,55.641-1.719Zm9.8-.656a.608.608,0,0,0-.352-.539,5.348,5.348,0,0,0-1.336-.422,6.092,6.092,0,0,1-1.625-.574,2.722,2.722,0,0,1-.977-.863,2.061,2.061,0,0,1-.336-1.164,2.336,2.336,0,0,1,.961-1.918A3.958,3.958,0,0,1,64.3-8.609a4.386,4.386,0,0,1,2.688.758A2.37,2.37,0,0,1,68-5.859H65.359q0-1.016-1.07-1.016a1.061,1.061,0,0,0-.7.23.714.714,0,0,0-.281.574.655.655,0,0,0,.344.57,3.248,3.248,0,0,0,1.1.359,9.486,9.486,0,0,1,1.324.336,2.406,2.406,0,0,1,1.906,2.352A2.214,2.214,0,0,1,66.957-.57,4.505,4.505,0,0,1,64.3.156a4.6,4.6,0,0,1-1.937-.391A3.24,3.24,0,0,1,61.031-1.3a2.406,2.406,0,0,1-.477-1.414h2.461a1.017,1.017,0,0,0,.391.855,1.607,1.607,0,0,0,.961.27,1.264,1.264,0,0,0,.809-.219A.7.7,0,0,0,65.445-2.375Z" transform="translate(483 6720.891)" fill="#12263f"/>
    <path id="Trazado_915315" data-name="Trazado 915315" d="M10.172-1.406A4.409,4.409,0,0,1,8.32-.273a7.986,7.986,0,0,1-2.672.43,4.764,4.764,0,0,1-3.57-1.367,5.534,5.534,0,0,1-1.43-3.8L.641-6a6.788,6.788,0,0,1,.594-2.934,4.409,4.409,0,0,1,1.7-1.93,4.807,4.807,0,0,1,2.559-.676,5.039,5.039,0,0,1,3.3.973,4.121,4.121,0,0,1,1.371,2.9H7.523a2.157,2.157,0,0,0-.609-1.359A1.966,1.966,0,0,0,5.586-9.43a1.789,1.789,0,0,0-1.594.875,4.672,4.672,0,0,0-.57,2.5v.688A4.574,4.574,0,0,0,4-2.809a2.059,2.059,0,0,0,1.832.855A2.3,2.3,0,0,0,7.43-2.43V-4.2H5.523V-6.078h4.648ZM16.758-6.07l-.867-.062a1.558,1.558,0,0,0-1.594.781V0H11.664V-8.453h2.469l.086,1.086A2.039,2.039,0,0,1,16.07-8.609a2.567,2.567,0,0,1,.734.094ZM22.234,0a2.973,2.973,0,0,1-.25-.758,2.448,2.448,0,0,1-2.031.914,3,3,0,0,1-2.031-.723,2.3,2.3,0,0,1-.836-1.816A2.364,2.364,0,0,1,18.1-4.461a5.174,5.174,0,0,1,2.953-.7h.813v-.448q0-1.17-1.008-1.17a.824.824,0,0,0-.937.926H17.289a2.36,2.36,0,0,1,1.043-1.99,4.383,4.383,0,0,1,2.66-.765,3.843,3.843,0,0,1,2.555.789,2.743,2.743,0,0,1,.961,2.164v3.742a3.832,3.832,0,0,0,.359,1.781V0ZM20.586-1.719A1.469,1.469,0,0,0,21.4-1.93a1.322,1.322,0,0,0,.465-.477V-3.758H21.1q-1.375,0-1.375,1.234a.754.754,0,0,0,.242.582A.876.876,0,0,0,20.586-1.719Zm7.867-6.734.086.992a2.906,2.906,0,0,1,2.414-1.148,2.14,2.14,0,0,1,2.164,1.273A2.813,2.813,0,0,1,35.6-8.609q2.57,0,2.641,3.109V0H35.6V-5.336a1.611,1.611,0,0,0-.219-.945.931.931,0,0,0-.8-.3,1.247,1.247,0,0,0-1.164.7l.008.109V0H30.789V-5.32a1.694,1.694,0,0,0-.211-.961.929.929,0,0,0-.8-.3,1.263,1.263,0,0,0-1.156.7V0H25.984V-8.453Zm13.711,0,.086.992a2.867,2.867,0,0,1,2.414-1.148,2.412,2.412,0,0,1,1.973.789,3.757,3.757,0,0,1,.676,2.375V0H44.672V-5.336a1.426,1.426,0,0,0-.258-.941,1.193,1.193,0,0,0-.937-.3,1.256,1.256,0,0,0-1.148.609V0H39.7V-8.453ZM52.859.156A4.345,4.345,0,0,1,49.711-1a4.006,4.006,0,0,1-1.2-3.02v-.219a5.191,5.191,0,0,1,.48-2.289,3.516,3.516,0,0,1,1.4-1.535,4.233,4.233,0,0,1,2.188-.543A3.659,3.659,0,0,1,55.391-7.5a4.344,4.344,0,0,1,1.031,3.082V-3.4H51.188A1.9,1.9,0,0,0,51.8-2.281a1.836,1.836,0,0,0,1.234.406,2.366,2.366,0,0,0,1.953-.875l1.2,1.422A3.363,3.363,0,0,1,54.8-.246,4.713,4.713,0,0,1,52.859.156Zm-.3-6.734q-1.156,0-1.375,1.531h2.656v-.2a1.3,1.3,0,0,0-.32-.98A1.275,1.275,0,0,0,52.563-6.578Zm4.609,2.289a5.708,5.708,0,0,1,.422-2.266A3.4,3.4,0,0,1,58.8-8.074a3.192,3.192,0,0,1,1.836-.535,2.538,2.538,0,0,1,2.063.891l.094-.734h2.391V-.32a3.564,3.564,0,0,1-.52,1.941,3.334,3.334,0,0,1-1.5,1.266,5.528,5.528,0,0,1-2.281.441,4.769,4.769,0,0,1-1.8-.352,3.251,3.251,0,0,1-1.332-.914l1.1-1.547a2.414,2.414,0,0,0,1.938.867,1.568,1.568,0,0,0,1.75-1.8V-.68a2.472,2.472,0,0,1-1.914.836,3.055,3.055,0,0,1-2.5-1.184A4.9,4.9,0,0,1,57.172-4.2Zm2.641.164A3.007,3.007,0,0,0,60.2-2.48a1.232,1.232,0,0,0,1.094.605,1.4,1.4,0,0,0,1.242-.57V-6a1.363,1.363,0,0,0-1.227-.578,1.241,1.241,0,0,0-1.1.629A3.429,3.429,0,0,0,59.813-4.125ZM71.445,0a2.973,2.973,0,0,1-.25-.758,2.448,2.448,0,0,1-2.031.914,3,3,0,0,1-2.031-.723A2.3,2.3,0,0,1,66.3-2.383a2.364,2.364,0,0,1,1.016-2.078,5.174,5.174,0,0,1,2.953-.7h.813v-.448q0-1.17-1.008-1.17a.824.824,0,0,0-.937.926H66.5a2.36,2.36,0,0,1,1.043-1.99,4.383,4.383,0,0,1,2.66-.765,3.843,3.843,0,0,1,2.555.789,2.743,2.743,0,0,1,.961,2.164v3.742a3.832,3.832,0,0,0,.359,1.781V0ZM69.8-1.719a1.469,1.469,0,0,0,.816-.211,1.322,1.322,0,0,0,.465-.477V-3.758h-.766q-1.375,0-1.375,1.234a.754.754,0,0,0,.242.582A.876.876,0,0,0,69.8-1.719Zm8.445-8.836v2.1h1.391v1.828H78.242v3.867a.987.987,0,0,0,.172.664.922.922,0,0,0,.68.188,3.862,3.862,0,0,0,.656-.047V-.07a4.859,4.859,0,0,1-1.484.227,2.758,2.758,0,0,1-2.008-.641,2.626,2.626,0,0,1-.648-1.945v-4.2H74.531V-8.453h1.078v-2.1ZM83.445,0H80.8V-8.453h2.641Zm-2.8-10.641a1.186,1.186,0,0,1,.406-.927,1.527,1.527,0,0,1,1.055-.362,1.527,1.527,0,0,1,1.055.362,1.186,1.186,0,0,1,.406.927,1.186,1.186,0,0,1-.406.927,1.527,1.527,0,0,1-1.055.362,1.527,1.527,0,0,1-1.055-.362A1.186,1.186,0,0,1,80.648-10.641Zm7.789,7.508,1.336-5.32h2.773L89.789,0H87.1L84.344-8.453h2.781ZM97.977,0a2.973,2.973,0,0,1-.25-.758A2.448,2.448,0,0,1,95.7.156a3,3,0,0,1-2.031-.723,2.3,2.3,0,0,1-.836-1.816,2.364,2.364,0,0,1,1.016-2.078,5.174,5.174,0,0,1,2.953-.7h.813v-.448q0-1.17-1.008-1.17a.824.824,0,0,0-.937.926H93.031a2.36,2.36,0,0,1,1.043-1.99,4.383,4.383,0,0,1,2.66-.765,3.843,3.843,0,0,1,2.555.789,2.743,2.743,0,0,1,.961,2.164v3.742a3.832,3.832,0,0,0,.359,1.781V0ZM96.328-1.719a1.469,1.469,0,0,0,.816-.211,1.322,1.322,0,0,0,.465-.477V-3.758h-.766q-1.375,0-1.375,1.234a.754.754,0,0,0,.242.582A.876.876,0,0,0,96.328-1.719Zm9.8-.656a.608.608,0,0,0-.352-.539,5.348,5.348,0,0,0-1.336-.422,6.092,6.092,0,0,1-1.625-.574,2.722,2.722,0,0,1-.977-.863,2.061,2.061,0,0,1-.336-1.164,2.336,2.336,0,0,1,.961-1.918,3.958,3.958,0,0,1,2.516-.754,4.386,4.386,0,0,1,2.688.758,2.37,2.37,0,0,1,1.016,1.992h-2.641q0-1.016-1.07-1.016a1.061,1.061,0,0,0-.7.23A.714.714,0,0,0,104-6.07a.655.655,0,0,0,.344.57,3.248,3.248,0,0,0,1.1.359,9.486,9.486,0,0,1,1.324.336,2.406,2.406,0,0,1,1.906,2.352A2.214,2.214,0,0,1,107.645-.57a4.505,4.505,0,0,1-2.66.727,4.6,4.6,0,0,1-1.937-.391A3.24,3.24,0,0,1,101.719-1.3a2.406,2.406,0,0,1-.477-1.414H103.7a1.017,1.017,0,0,0,.391.855,1.607,1.607,0,0,0,.961.27,1.264,1.264,0,0,0,.809-.219A.7.7,0,0,0,106.133-2.375Z" transform="translate(664 6656.891)" fill="#12263f"/>
    <path id="Trazado_915316" data-name="Trazado 915316" d="M10.172-1.406A4.409,4.409,0,0,1,8.32-.273a7.986,7.986,0,0,1-2.672.43,4.764,4.764,0,0,1-3.57-1.367,5.534,5.534,0,0,1-1.43-3.8L.641-6a6.788,6.788,0,0,1,.594-2.934,4.409,4.409,0,0,1,1.7-1.93,4.807,4.807,0,0,1,2.559-.676,5.039,5.039,0,0,1,3.3.973,4.121,4.121,0,0,1,1.371,2.9H7.523a2.157,2.157,0,0,0-.609-1.359A1.966,1.966,0,0,0,5.586-9.43a1.789,1.789,0,0,0-1.594.875,4.672,4.672,0,0,0-.57,2.5v.688A4.574,4.574,0,0,0,4-2.809a2.059,2.059,0,0,0,1.832.855A2.3,2.3,0,0,0,7.43-2.43V-4.2H5.523V-6.078h4.648ZM16.758-6.07l-.867-.062a1.558,1.558,0,0,0-1.594.781V0H11.664V-8.453h2.469l.086,1.086A2.039,2.039,0,0,1,16.07-8.609a2.567,2.567,0,0,1,.734.094ZM22.234,0a2.973,2.973,0,0,1-.25-.758,2.448,2.448,0,0,1-2.031.914,3,3,0,0,1-2.031-.723,2.3,2.3,0,0,1-.836-1.816A2.364,2.364,0,0,1,18.1-4.461a5.174,5.174,0,0,1,2.953-.7h.813v-.448q0-1.17-1.008-1.17a.824.824,0,0,0-.937.926H17.289a2.36,2.36,0,0,1,1.043-1.99,4.383,4.383,0,0,1,2.66-.765,3.843,3.843,0,0,1,2.555.789,2.743,2.743,0,0,1,.961,2.164v3.742a3.832,3.832,0,0,0,.359,1.781V0ZM20.586-1.719A1.469,1.469,0,0,0,21.4-1.93a1.322,1.322,0,0,0,.465-.477V-3.758H21.1q-1.375,0-1.375,1.234a.754.754,0,0,0,.242.582A.876.876,0,0,0,20.586-1.719Zm7.867-6.734.086.992a2.906,2.906,0,0,1,2.414-1.148,2.14,2.14,0,0,1,2.164,1.273A2.813,2.813,0,0,1,35.6-8.609q2.57,0,2.641,3.109V0H35.6V-5.336a1.611,1.611,0,0,0-.219-.945.931.931,0,0,0-.8-.3,1.247,1.247,0,0,0-1.164.7l.008.109V0H30.789V-5.32a1.694,1.694,0,0,0-.211-.961.929.929,0,0,0-.8-.3,1.263,1.263,0,0,0-1.156.7V0H25.984V-8.453ZM47.594-4.164a5.1,5.1,0,0,1-.887,3.145A2.843,2.843,0,0,1,44.313.156,2.437,2.437,0,0,1,42.4-.7V3.25H39.766v-11.7h2.461l.078.781A2.437,2.437,0,0,1,44.3-8.609a2.866,2.866,0,0,1,2.43,1.152,5.16,5.16,0,0,1,.867,3.168Zm-2.633-.164q0-2.25-1.312-2.25a1.239,1.239,0,0,0-1.25.672v3.328a1.279,1.279,0,0,0,1.266.7q1.258,0,1.3-2.172Zm3.461.023a4.989,4.989,0,0,1,.492-2.254,3.52,3.52,0,0,1,1.414-1.52,4.259,4.259,0,0,1,2.164-.531,3.887,3.887,0,0,1,2.992,1.176,4.512,4.512,0,0,1,1.094,3.2v.094A4.378,4.378,0,0,1,55.48-1,3.9,3.9,0,0,1,52.508.156a3.942,3.942,0,0,1-2.9-1.082,4.232,4.232,0,0,1-1.18-2.934Zm2.633.164a3.145,3.145,0,0,0,.367,1.719,1.223,1.223,0,0,0,1.086.547q1.406,0,1.438-2.164V-4.3q0-2.273-1.453-2.273-1.32,0-1.43,1.961ZM62.164-2.375a.608.608,0,0,0-.352-.539,5.348,5.348,0,0,0-1.336-.422,6.092,6.092,0,0,1-1.625-.574,2.722,2.722,0,0,1-.977-.863,2.061,2.061,0,0,1-.336-1.164A2.336,2.336,0,0,1,58.5-7.855a3.958,3.958,0,0,1,2.516-.754,4.386,4.386,0,0,1,2.688.758,2.37,2.37,0,0,1,1.016,1.992H62.078q0-1.016-1.07-1.016a1.061,1.061,0,0,0-.7.23.714.714,0,0,0-.281.574.655.655,0,0,0,.344.57,3.248,3.248,0,0,0,1.1.359A9.485,9.485,0,0,1,62.8-4.8,2.406,2.406,0,0,1,64.7-2.453,2.214,2.214,0,0,1,63.676-.57a4.505,4.505,0,0,1-2.66.727,4.6,4.6,0,0,1-1.937-.391A3.24,3.24,0,0,1,57.75-1.3a2.406,2.406,0,0,1-.477-1.414h2.461a1.017,1.017,0,0,0,.391.855,1.607,1.607,0,0,0,.961.27,1.264,1.264,0,0,0,.809-.219A.7.7,0,0,0,62.164-2.375ZM68.711,0H66.07V-8.453h2.641Zm-2.8-10.641a1.186,1.186,0,0,1,.406-.927,1.527,1.527,0,0,1,1.055-.362,1.527,1.527,0,0,1,1.055.362,1.186,1.186,0,0,1,.406.927,1.186,1.186,0,0,1-.406.927,1.527,1.527,0,0,1-1.055.362,1.527,1.527,0,0,1-1.055-.362A1.186,1.186,0,0,1,65.914-10.641Zm7.484.086v2.1h1.391v1.828H73.4v3.867a.987.987,0,0,0,.172.664.922.922,0,0,0,.68.188,3.862,3.862,0,0,0,.656-.047V-.07a4.859,4.859,0,0,1-1.484.227,2.758,2.758,0,0,1-2.008-.641,2.626,2.626,0,0,1-.648-1.945v-4.2H69.688V-8.453h1.078v-2.1ZM78.6,0H75.961V-8.453H78.6ZM75.8-10.641a1.186,1.186,0,0,1,.406-.927,1.527,1.527,0,0,1,1.055-.362,1.527,1.527,0,0,1,1.055.362,1.186,1.186,0,0,1,.406.927,1.186,1.186,0,0,1-.406.927,1.527,1.527,0,0,1-1.055.362,1.527,1.527,0,0,1-1.055-.362A1.186,1.186,0,0,1,75.8-10.641Zm7.789,7.508,1.336-5.32H87.7L84.945,0H82.258L79.5-8.453h2.781ZM93.133,0a2.973,2.973,0,0,1-.25-.758,2.448,2.448,0,0,1-2.031.914A3,3,0,0,1,88.82-.566a2.3,2.3,0,0,1-.836-1.816A2.364,2.364,0,0,1,89-4.461a5.174,5.174,0,0,1,2.953-.7h.813v-.448q0-1.17-1.008-1.17a.824.824,0,0,0-.937.926H88.188a2.36,2.36,0,0,1,1.043-1.99,4.383,4.383,0,0,1,2.66-.765,3.843,3.843,0,0,1,2.555.789,2.743,2.743,0,0,1,.961,2.164v3.742a3.832,3.832,0,0,0,.359,1.781V0ZM91.484-1.719A1.469,1.469,0,0,0,92.3-1.93a1.322,1.322,0,0,0,.465-.477V-3.758H92q-1.375,0-1.375,1.234a.754.754,0,0,0,.242.582A.876.876,0,0,0,91.484-1.719Zm9.8-.656a.608.608,0,0,0-.352-.539A5.348,5.348,0,0,0,99.6-3.336a6.092,6.092,0,0,1-1.625-.574A2.722,2.722,0,0,1,97-4.773a2.061,2.061,0,0,1-.336-1.164,2.336,2.336,0,0,1,.961-1.918,3.958,3.958,0,0,1,2.516-.754,4.386,4.386,0,0,1,2.688.758,2.37,2.37,0,0,1,1.016,1.992H101.2q0-1.016-1.07-1.016a1.061,1.061,0,0,0-.7.23.714.714,0,0,0-.281.574.655.655,0,0,0,.344.57,3.248,3.248,0,0,0,1.1.359,9.486,9.486,0,0,1,1.324.336,2.406,2.406,0,0,1,1.906,2.352A2.214,2.214,0,0,1,102.8-.57a4.505,4.505,0,0,1-2.66.727A4.6,4.6,0,0,1,98.2-.234,3.24,3.24,0,0,1,96.875-1.3,2.406,2.406,0,0,1,96.4-2.711h2.461a1.017,1.017,0,0,0,.391.855,1.607,1.607,0,0,0,.961.27,1.264,1.264,0,0,0,.809-.219A.7.7,0,0,0,101.289-2.375Z" transform="translate(665 6778.891)" fill="#12263f"/>
    <g id="Grupo_1103068" data-name="Grupo 1103068" transform="translate(804 6716.991)">
      <g id="Grupo_1103055" data-name="Grupo 1103055" transform="translate(0 -0.002)" clip-path="url(#clip-path)">
        <path id="Trazado_876229" data-name="Trazado 876229" d="M20.07.144C14.478-.641,8.768,1.851,6.985,5.1c-1.032,1.565-.874,3.36-.9,5-.131,5.456-.059,11.347-.224,16.767a6.351,6.351,0,0,1-2.6,3.93c-.56.42-2.74,2.06-3.257,2.447.491.341,1.647,1.1,2.144,1.448,2.221,1.442,3.4,3.406,3.305,5.388.014,3.772.038,7.557.1,11.329l.065,4.77A7.783,7.783,0,0,0,6.75,61.15c2.029,3.162,7.9,5.417,13.32,4.57-4.894-.576-9.22-2.286-11.158-5.126-.969-1.423-.861-2.853-.824-4.413l.065-4.77q.075-4.77.092-9.54c0-.41.008-1.384.009-1.789.13-2.4-1.323-4.827-3.982-6.581l-.463-.317L5.5,31.9a7.73,7.73,0,0,0,3.222-7.359c-.005-4.652-.093-9.76-.155-14.443,0-.642-.054-1.777-.008-2.377.1-3.9,5.606-6.809,11.512-7.58" transform="translate(0 0.002)" fill="#12263f"/>
      </g>
    </g>
    <g id="Grupo_1103067" data-name="Grupo 1103067" transform="translate(804.178 6576.09)">
      <g id="Grupo_1103055-2" data-name="Grupo 1103055" transform="translate(0 -0.002)" clip-path="url(#clip-path-2)">
        <path id="Trazado_876229-2" data-name="Trazado 876229" d="M20.07.234C14.478-1.038,8.768,3,6.985,8.261c-1.032,2.537-.874,5.445-.9,8.111-.131,8.843-.059,18.389-.224,27.173a12.056,12.056,0,0,1-2.6,6.37C2.7,50.595.517,53.253,0,53.881c.491.553,1.647,1.782,2.144,2.347A12.2,12.2,0,0,1,5.449,64.96c.014,6.114.038,12.248.1,18.36l.065,7.73c-.025,2.607,0,5.561,1.134,8.053,2.029,5.124,7.9,8.779,13.32,7.407-4.894-.934-9.22-3.7-11.158-8.308-.969-2.306-.861-4.624-.824-7.152l.065-7.73q.075-7.731.092-15.461c0-.665.008-2.243.009-2.9A15.05,15.05,0,0,0,4.274,54.3l-.463-.514L5.5,51.7c2.79-3.316,3.471-7.788,3.222-11.926-.005-7.539-.093-15.818-.155-23.407,0-1.041-.054-2.879-.008-3.852C8.659,6.191,14.164,1.485,20.07.234" transform="translate(0 0.002)" fill="#12263f"/>
      </g>
    </g>
    <g id="Grupo_1103065" data-name="Grupo 1103065" transform="translate(610.751 6611.09)">
      <g id="Grupo_1103055-3" data-name="Grupo 1103055" transform="translate(0 -0.002)" clip-path="url(#clip-path-3)">
        <path id="Trazado_876229-3" data-name="Trazado 876229" d="M20.07.383c-5.592-2.071-11.3,4.5-13.085,13.061-1.032,4.128-.874,8.861-.9,13.2-.131,14.39-.059,29.926-.224,44.219a27.414,27.414,0,0,1-2.6,10.366C2.7,82.335.517,86.662,0,87.682c.491.9,1.647,2.9,2.144,3.82a27.952,27.952,0,0,1,3.305,14.21c.014,9.949.038,19.931.1,29.878l.065,12.58c-.025,4.242,0,9.049,1.134,13.1,2.029,8.338,7.9,14.287,13.32,12.053-4.894-1.52-9.22-6.028-11.158-13.52-.969-3.753-.861-7.525-.824-11.639l.065-12.58q.075-12.58.092-25.16c0-1.081.008-3.651.009-4.717.13-6.333-1.323-12.731-3.982-17.355l-.463-.836L5.5,84.141c2.79-5.4,3.471-12.673,3.222-19.408-.005-12.269-.093-25.741-.155-38.091,0-1.694-.054-4.686-.008-6.269.1-10.3,5.606-17.956,11.512-19.991" transform="translate(0 0.002)" fill="#12263f"/>
      </g>
    </g>
    <g id="Grupo_1103661" data-name="Grupo 1103661" transform="translate(-559.155 6160.607)">
      <g id="Grupo_1098742" data-name="Grupo 1098742" transform="translate(1251.333 413)">
        <g id="Rectángulo_400898" data-name="Rectángulo 400898" transform="translate(0)" fill="#fff" stroke="#fff" stroke-width="3" opacity="0.859">
          <rect width="49.644" height="49.644" rx="24.822" stroke="none"/>
          <rect x="1.5" y="1.5" width="46.644" height="46.644" rx="23.322" fill="none"/>
        </g>
        <g id="Rectángulo_400907" data-name="Rectángulo 400907" transform="translate(0)" fill="none" stroke="#fff" stroke-width="3">
          <rect width="49.644" height="49.644" rx="24.822" stroke="none"/>
          <rect x="1.5" y="1.5" width="46.644" height="46.644" rx="23.322" fill="none"/>
        </g>
      </g>
      <g id="Grupo_1103656" data-name="Grupo 1103656" transform="translate(1260.419 421.742)">
        <path id="Trazado_914928" data-name="Trazado 914928" d="M16,1A15,15,0,1,0,31,16,15.017,15.017,0,0,0,16,1Zm0,27.1A12.1,12.1,0,1,1,28.1,16,12.11,12.11,0,0,1,16,28.1Z" fill="#7b8883"/>
        <path id="Trazado_914929" data-name="Trazado 914929" d="M8.258,14.548H23.742v2.9H8.258Z" fill="#7b8883"/>
      </g>
    </g>
    <g id="Grupo_1103660" data-name="Grupo 1103660" transform="translate(-559.155 6287.706)">
      <g id="Grupo_1098742-2" data-name="Grupo 1098742" transform="translate(1251.333 413)">
        <g id="Rectángulo_400898-2" data-name="Rectángulo 400898" transform="translate(0)" fill="#fff" stroke="#fff" stroke-width="3" opacity="0.859">
          <rect width="49.644" height="49.644" rx="24.822" stroke="none"/>
          <rect x="1.5" y="1.5" width="46.644" height="46.644" rx="23.322" fill="none"/>
        </g>
        <g id="Rectángulo_400907-2" data-name="Rectángulo 400907" transform="translate(0)" fill="none" stroke="#fff" stroke-width="3">
          <rect width="49.644" height="49.644" rx="24.822" stroke="none"/>
          <rect x="1.5" y="1.5" width="46.644" height="46.644" rx="23.322" fill="none"/>
        </g>
      </g>
      <g id="Grupo_1103657" data-name="Grupo 1103657" transform="translate(1260.593 421.818)">
        <path id="Trazado_914930" data-name="Trazado 914930" d="M15.826,30.651A14.826,14.826,0,1,1,30.651,15.826,14.826,14.826,0,0,1,15.826,30.651Zm0-26.956a12.13,12.13,0,1,0,12.13,12.13A12.13,12.13,0,0,0,15.826,3.7Z" transform="translate(0 0)" fill="#7b8883"/>
        <path id="Trazado_914931" data-name="Trazado 914931" d="M20.826,12.739H15.435V7.348a1.348,1.348,0,1,0-2.7,0v5.391H7.348a1.348,1.348,0,1,0,0,2.7h5.391v5.391a1.348,1.348,0,1,0,2.7,0V15.435h5.391a1.348,1.348,0,1,0,0-2.7Z" transform="translate(1.739 1.739)" fill="#7b8883"/>
      </g>
    </g>
    <g id="Grupo_1103654" data-name="Grupo 1103654" transform="translate(490 6637.156)">
      <g id="Rectángulo_400898-3" data-name="Rectángulo 400898" transform="translate(0)" fill="#fff" stroke="#fff" stroke-width="3" opacity="0.859">
        <rect width="49.644" height="49.644" rx="24.822" stroke="none"/>
        <rect x="1.5" y="1.5" width="46.644" height="46.644" rx="23.322" fill="none"/>
      </g>
      <g id="Rectángulo_400907-3" data-name="Rectángulo 400907" transform="translate(0)" fill="none" stroke="#fff" stroke-width="3">
        <rect width="49.644" height="49.644" rx="24.822" stroke="none"/>
        <rect x="1.5" y="1.5" width="46.644" height="46.644" rx="23.322" fill="none"/>
      </g>
    </g>
    <g id="Grupo_1103655" data-name="Grupo 1103655" transform="translate(492.807 6643.8)">
      <path id="Trazado_914926" data-name="Trazado 914926" d="M38.221,9.174H36.149a7.479,7.479,0,0,0-1.45-3.28l1.429-1.429a.992.992,0,1,0-1.4-1.4L33.3,4.492A7.479,7.479,0,0,0,30.11,3.065V.992a.992.992,0,1,0-1.984,0V2.954a7.489,7.489,0,0,0-3.67,1.277L22.986,2.76a.992.992,0,0,0-1.4,1.4l1.376,1.376-3.17,3.17L18.4,7.322a.992.992,0,0,0-1.4,1.4l1.385,1.385-3.17,3.17-1.385-1.385a.992.992,0,0,0-1.4,1.4l1.429,1.429a7.484,7.484,0,0,0-1.515,3.668H10.325a.992.992,0,1,0,0,1.984h2.027a7.482,7.482,0,0,0,1.493,3.573l-.22.22a1.116,1.116,0,0,1-1.576,0,3.4,3.4,0,0,0-4.81,4.81l.011.011a1.957,1.957,0,0,1,.022,2.79l-.321.321a.992.992,0,1,0,1.4,1.4l.321-.321a3.941,3.941,0,0,0-.037-5.61,1.418,1.418,0,0,1,2.009-2,3.1,3.1,0,0,0,4.381,0l.22-.22a7.483,7.483,0,0,0,3.629,1.5v2.008a.992.992,0,1,0,1.984,0V26.849a7.486,7.486,0,0,0,3.778-1.64l1.411,1.411a.992.992,0,1,0,1.4-1.4l-1.384-1.384,3.1-3.1,1.384,1.384a.992.992,0,1,0,1.4-1.4l-1.384-1.384,3.1-3.1,1.384,1.384a.992.992,0,0,0,1.4-1.4l-1.48-1.48a7.486,7.486,0,0,0,1.27-3.584h1.985a.992.992,0,0,0,0-1.984Zm-9.74,9.439-.021.019-.019.021-4.457,4.457-.021.019-.019.021L23.8,23.3a5.538,5.538,0,0,1-3.8,1.63.894.894,0,0,0-.268,0A5.538,5.538,0,0,1,15.907,23.3l0,0h0l0,0A5.54,5.54,0,0,1,14.267,19.4s0-.008,0-.013,0-.024,0-.036v0A5.542,5.542,0,0,1,15.9,15.4L24.752,6.55A5.541,5.541,0,0,1,28.7,4.917q.142,0,.283.007a1,1,0,0,0,.14.011h.006a5.534,5.534,0,0,1,3.5,1.6l.013.015.017.015a5.578,5.578,0,0,1-.009,7.879Z" fill="#7b8883"/>
      <path id="Trazado_914927" data-name="Trazado 914927" d="M293.365,118.2a3.214,3.214,0,1,0,0,4.548A3.22,3.22,0,0,0,293.365,118.2Zm-1.4,3.145a1.231,1.231,0,1,1,0-1.742A1.233,1.233,0,0,1,291.962,121.346Z" transform="translate(-263.011 -109.507)" fill="#7b8883"/>
      <circle id="Elipse_11522" data-name="Elipse 11522" cx="0.992" cy="0.992" r="0.992" transform="translate(18.463 20.035)" fill="#7b8883"/>
      <circle id="Elipse_11523" data-name="Elipse 11523" cx="0.992" cy="0.992" r="0.992" transform="translate(17.792 16.327)" fill="#7b8883"/>
    </g>
    <path id="Trazado_915272" data-name="Trazado 915272" d="M4281.747,1899.406a5.615,5.615,0,1,0-5.616,5.772A5.6,5.6,0,0,0,4281.747,1899.406Zm-2.128-1c-.246.252-.5.5-.747.748-.152.152-.308.3-.462.452a.215.215,0,0,1-.081.082,8.47,8.47,0,0,1-.607.6.036.036,0,0,1-.021.009.15.15,0,0,1-.107.108.038.038,0,0,1-.009.021h0a8.4,8.4,0,0,1-.6.607h0a.167.167,0,0,1-.1.087.035.035,0,0,1-.009.021h0a7.8,7.8,0,0,1-.63.63l-.084.084a9.609,9.609,0,0,1-.69.7c-.161.151-.38.107-.55-.085a1.508,1.508,0,0,1-.236-.236h0l-.478-.479a1.641,1.641,0,0,1-.237-.237h0l-.505-.5a1.315,1.315,0,0,1-.21-.209l-.026-.027h0l-.478-.479-.026-.027c-.279-.236-.279-.453,0-.689l.026-.027a3.09,3.09,0,0,1,.476-.455c.012-.024.034-.021.055-.018a.4.4,0,0,1,.424.134c.089.1.182.189.273.283l1.108,1.1c.139.138.139.139.285.017l.371-.371h0a3.461,3.461,0,0,1,.37-.37l.318-.318.027-.026h0l.4-.4h0l.319-.316a3.9,3.9,0,0,1,.372-.371,3.809,3.809,0,0,1,.37-.37,3.949,3.949,0,0,1,.37-.371c.12-.123.235-.251.36-.367a.353.353,0,0,1,.491.008c.175.167.347.338.514.513A.351.351,0,0,1,4279.619,1898.41Z" transform="translate(-3436.084 4705.91)" fill="#f54749"/>
    <path id="Trazado_915274" data-name="Trazado 915274" d="M4281.747,1899.406a5.615,5.615,0,1,0-5.616,5.772A5.6,5.6,0,0,0,4281.747,1899.406Zm-2.128-1c-.246.252-.5.5-.747.748-.152.152-.308.3-.462.452a.215.215,0,0,1-.081.082,8.47,8.47,0,0,1-.607.6.036.036,0,0,1-.021.009.15.15,0,0,1-.107.108.038.038,0,0,1-.009.021h0a8.4,8.4,0,0,1-.6.607h0a.167.167,0,0,1-.1.087.035.035,0,0,1-.009.021h0a7.8,7.8,0,0,1-.63.63l-.084.084a9.609,9.609,0,0,1-.69.7c-.161.151-.38.107-.55-.085a1.508,1.508,0,0,1-.236-.236h0l-.478-.479a1.641,1.641,0,0,1-.237-.237h0l-.505-.5a1.315,1.315,0,0,1-.21-.209l-.026-.027h0l-.478-.479-.026-.027c-.279-.236-.279-.453,0-.689l.026-.027a3.09,3.09,0,0,1,.476-.455c.012-.024.034-.021.055-.018a.4.4,0,0,1,.424.134c.089.1.182.189.273.283l1.108,1.1c.139.138.139.139.285.017l.371-.371h0a3.461,3.461,0,0,1,.37-.37l.318-.318.027-.026h0l.4-.4h0l.319-.316a3.9,3.9,0,0,1,.372-.371,3.809,3.809,0,0,1,.37-.37,3.949,3.949,0,0,1,.37-.371c.12-.123.235-.251.36-.367a.353.353,0,0,1,.491.008c.175.167.347.338.514.513A.351.351,0,0,1,4279.619,1898.41Z" transform="translate(-3436.084 4755.42)" fill="#f54749"/>
    <path id="Trazado_915275" data-name="Trazado 915275" d="M4281.747,1899.406a5.615,5.615,0,1,0-5.616,5.772A5.6,5.6,0,0,0,4281.747,1899.406Zm-2.128-1c-.246.252-.5.5-.747.748-.152.152-.308.3-.462.452a.215.215,0,0,1-.081.082,8.47,8.47,0,0,1-.607.6.036.036,0,0,1-.021.009.15.15,0,0,1-.107.108.038.038,0,0,1-.009.021h0a8.4,8.4,0,0,1-.6.607h0a.167.167,0,0,1-.1.087.035.035,0,0,1-.009.021h0a7.8,7.8,0,0,1-.63.63l-.084.084a9.609,9.609,0,0,1-.69.7c-.161.151-.38.107-.55-.085a1.508,1.508,0,0,1-.236-.236h0l-.478-.479a1.641,1.641,0,0,1-.237-.237h0l-.505-.5a1.315,1.315,0,0,1-.21-.209l-.026-.027h0l-.478-.479-.026-.027c-.279-.236-.279-.453,0-.689l.026-.027a3.09,3.09,0,0,1,.476-.455c.012-.024.034-.021.055-.018a.4.4,0,0,1,.424.134c.089.1.182.189.273.283l1.108,1.1c.139.138.139.139.285.017l.371-.371h0a3.461,3.461,0,0,1,.37-.37l.318-.318.027-.026h0l.4-.4h0l.319-.316a3.9,3.9,0,0,1,.372-.371,3.809,3.809,0,0,1,.37-.37,3.949,3.949,0,0,1,.37-.371c.12-.123.235-.251.36-.367a.353.353,0,0,1,.491.008c.175.167.347.338.514.513A.351.351,0,0,1,4279.619,1898.41Z" transform="translate(-3436.084 4861.042)" fill="#f54749"/>
    <path id="Trazado_915273" data-name="Trazado 915273" d="M4281.747,1899.406a5.615,5.615,0,1,0-5.616,5.772A5.6,5.6,0,0,0,4281.747,1899.406Zm-2.128-1c-.246.252-.5.5-.747.748-.152.152-.308.3-.462.452a.215.215,0,0,1-.081.082,8.47,8.47,0,0,1-.607.6.036.036,0,0,1-.021.009.15.15,0,0,1-.107.108.038.038,0,0,1-.009.021h0a8.4,8.4,0,0,1-.6.607h0a.167.167,0,0,1-.1.087.035.035,0,0,1-.009.021h0a7.8,7.8,0,0,1-.63.63l-.084.084a9.609,9.609,0,0,1-.69.7c-.161.151-.38.107-.55-.085a1.508,1.508,0,0,1-.236-.236h0l-.478-.479a1.641,1.641,0,0,1-.237-.237h0l-.505-.5a1.315,1.315,0,0,1-.21-.209l-.026-.027h0l-.478-.479-.026-.027c-.279-.236-.279-.453,0-.689l.026-.027a3.09,3.09,0,0,1,.476-.455c.012-.024.034-.021.055-.018a.4.4,0,0,1,.424.134c.089.1.182.189.273.283l1.108,1.1c.139.138.139.139.285.017l.371-.371h0a3.461,3.461,0,0,1,.37-.37l.318-.318.027-.026h0l.4-.4h0l.319-.316a3.9,3.9,0,0,1,.372-.371,3.809,3.809,0,0,1,.37-.37,3.949,3.949,0,0,1,.37-.371c.12-.123.235-.251.36-.367a.353.353,0,0,1,.491.008c.175.167.347.338.514.513A.351.351,0,0,1,4279.619,1898.41Z" transform="translate(-3436.084 4730.665)" fill="#f54749"/>
    <path id="Trazado_915276" data-name="Trazado 915276" d="M4281.747,1899.406a5.615,5.615,0,1,0-5.616,5.772A5.6,5.6,0,0,0,4281.747,1899.406Zm-2.128-1c-.246.252-.5.5-.747.748-.152.152-.308.3-.462.452a.215.215,0,0,1-.081.082,8.47,8.47,0,0,1-.607.6.036.036,0,0,1-.021.009.15.15,0,0,1-.107.108.038.038,0,0,1-.009.021h0a8.4,8.4,0,0,1-.6.607h0a.167.167,0,0,1-.1.087.035.035,0,0,1-.009.021h0a7.8,7.8,0,0,1-.63.63l-.084.084a9.609,9.609,0,0,1-.69.7c-.161.151-.38.107-.55-.085a1.508,1.508,0,0,1-.236-.236h0l-.478-.479a1.641,1.641,0,0,1-.237-.237h0l-.505-.5a1.315,1.315,0,0,1-.21-.209l-.026-.027h0l-.478-.479-.026-.027c-.279-.236-.279-.453,0-.689l.026-.027a3.09,3.09,0,0,1,.476-.455c.012-.024.034-.021.055-.018a.4.4,0,0,1,.424.134c.089.1.182.189.273.283l1.108,1.1c.139.138.139.139.285.017l.371-.371h0a3.461,3.461,0,0,1,.37-.37l.318-.318.027-.026h0l.4-.4h0l.319-.316a3.9,3.9,0,0,1,.372-.371,3.809,3.809,0,0,1,.37-.37,3.949,3.949,0,0,1,.37-.371c.12-.123.235-.251.36-.367a.353.353,0,0,1,.491.008c.175.167.347.338.514.513A.351.351,0,0,1,4279.619,1898.41Z" transform="translate(-3436.084 4836.287)" fill="#f54749"/>
  </g>
</svg>
