<svg xmlns="http://www.w3.org/2000/svg" xmlns:xlink="http://www.w3.org/1999/xlink" width="505" height="366.5" viewBox="0 0 505 366.5">
  <defs>
    <clipPath id="clip-path">
      <rect id="Rectángulo_403033" data-name="Rectángulo 403033" width="20.07" height="106.803" fill="#12263f"/>
    </clipPath>
  </defs>
  <g id="Grupo_1103873" data-name="Grupo 1103873" transform="translate(-180 -5541.8)">
    <g id="Grupo_1103073" data-name="Grupo 1103073" transform="translate(179.949 5541.8)">
      <rect id="Rectángulo_402888" data-name="Rectángulo 402888" width="505" height="366.5" transform="translate(0.051)" fill="#d6f1f4" opacity="0.3"/>
    </g>
    <path id="Trazado_915299" data-name="Trazado 915299" d="M9.945-3.789A4.025,4.025,0,0,1,8.59-.9,4.76,4.76,0,0,1,5.367.156,4.28,4.28,0,0,1,1.926-1.316,6.038,6.038,0,0,1,.672-5.359v-.7A6.819,6.819,0,0,1,1.25-8.945,4.332,4.332,0,0,1,2.9-10.863a4.629,4.629,0,0,1,2.5-.668A4.637,4.637,0,0,1,8.57-10.477,4.326,4.326,0,0,1,9.961-7.516H7.617A2.376,2.376,0,0,0,7-9.113a2.271,2.271,0,0,0-1.605-.5,1.991,1.991,0,0,0-1.754.84,4.707,4.707,0,0,0-.6,2.605V-5.3a5.038,5.038,0,0,0,.559,2.7,1.954,1.954,0,0,0,1.762.852,2.314,2.314,0,0,0,1.621-.5A2.241,2.241,0,0,0,7.6-3.789ZM10.984-4.3a5.013,5.013,0,0,1,.484-2.242A3.546,3.546,0,0,1,12.863-8.07a4.069,4.069,0,0,1,2.113-.539A3.849,3.849,0,0,1,17.77-7.562a4.2,4.2,0,0,1,1.207,2.844l.016.578A4.418,4.418,0,0,1,17.906-1.02,3.775,3.775,0,0,1,14.992.156a3.793,3.793,0,0,1-2.918-1.172A4.5,4.5,0,0,1,10.984-4.2Zm2.258.16A3.16,3.16,0,0,0,13.7-2.3a1.5,1.5,0,0,0,1.3.638,1.5,1.5,0,0,0,1.281-.63,3.457,3.457,0,0,0,.461-2.015,3.128,3.128,0,0,0-.461-1.831,1.5,1.5,0,0,0-1.3-.649,1.474,1.474,0,0,0-1.281.646A3.516,3.516,0,0,0,13.242-4.144Zm9.219-4.309.07.977a2.951,2.951,0,0,1,2.43-1.133,2.453,2.453,0,0,1,2,.789,3.682,3.682,0,0,1,.672,2.359V0H25.375V-5.419a1.47,1.47,0,0,0-.312-1.045,1.4,1.4,0,0,0-1.039-.325,1.553,1.553,0,0,0-1.43.814V0H20.336V-8.453Zm9.586-2.078v2.078h1.445V-6.8H32.047v4.219a1.007,1.007,0,0,0,.18.672.9.9,0,0,0,.688.2,3.6,3.6,0,0,0,.664-.055V-.047a4.648,4.648,0,0,1-1.367.2,2.156,2.156,0,0,1-2.422-2.4V-6.8H28.555V-8.453h1.234v-2.078ZM39.648,0a2.507,2.507,0,0,1-.227-.758,2.732,2.732,0,0,1-2.133.914A3,3,0,0,1,35.23-.562a2.312,2.312,0,0,1-.816-1.812,2.389,2.389,0,0,1,1-2.062,4.915,4.915,0,0,1,2.879-.727h1.039v-.484a1.393,1.393,0,0,0-.3-.937,1.183,1.183,0,0,0-.949-.352,1.345,1.345,0,0,0-.895.273.929.929,0,0,0-.324.75H34.6a2.268,2.268,0,0,1,.453-1.359,3,3,0,0,1,1.281-.98A4.669,4.669,0,0,1,38.2-8.609a3.689,3.689,0,0,1,2.48.785,2.747,2.747,0,0,1,.918,2.207v3.664a4.041,4.041,0,0,0,.336,1.82V0ZM37.781-1.57a1.945,1.945,0,0,0,.922-.223,1.462,1.462,0,0,0,.625-.6V-3.844h-.844q-1.7,0-1.8,1.172l-.008.133a.9.9,0,0,0,.3.7A1.153,1.153,0,0,0,37.781-1.57Zm7.664-6.883.07.945a2.971,2.971,0,0,1,2.43-1.1A2.255,2.255,0,0,1,50.188-7.32a2.9,2.9,0,0,1,2.539-1.289,2.521,2.521,0,0,1,2.047.8,3.681,3.681,0,0,1,.672,2.41V0H53.18V-5.4A1.616,1.616,0,0,0,52.9-6.456a1.245,1.245,0,0,0-.992-.333,1.409,1.409,0,0,0-1.406.971L50.508,0H48.25V-5.4a1.6,1.6,0,0,0-.289-1.065,1.257,1.257,0,0,0-.984-.329,1.463,1.463,0,0,0-1.391.8V0H43.328V-8.453ZM59.563,0H57.3V-8.453h2.266Zm-2.4-10.641a1.112,1.112,0,0,1,.34-.836,1.277,1.277,0,0,1,.926-.328,1.28,1.28,0,0,1,.922.328,1.105,1.105,0,0,1,.344.836,1.108,1.108,0,0,1-.348.844,1.283,1.283,0,0,1-.918.328,1.283,1.283,0,0,1-.918-.328A1.108,1.108,0,0,1,57.164-10.641ZM63.5-8.453l.07.977A2.951,2.951,0,0,1,66-8.609a2.453,2.453,0,0,1,2,.789,3.682,3.682,0,0,1,.672,2.359V0H66.414V-5.419A1.47,1.47,0,0,0,66.1-6.464a1.4,1.4,0,0,0-1.039-.325,1.553,1.553,0,0,0-1.43.814V0H61.375V-8.453ZM75.281,0a2.507,2.507,0,0,1-.227-.758,2.732,2.732,0,0,1-2.133.914,3,3,0,0,1-2.059-.719,2.312,2.312,0,0,1-.816-1.812,2.389,2.389,0,0,1,1-2.062,4.915,4.915,0,0,1,2.879-.727h1.039v-.484a1.393,1.393,0,0,0-.3-.937,1.183,1.183,0,0,0-.949-.352,1.345,1.345,0,0,0-.895.273.929.929,0,0,0-.324.75H70.234a2.268,2.268,0,0,1,.453-1.359,3,3,0,0,1,1.281-.98,4.669,4.669,0,0,1,1.859-.355,3.689,3.689,0,0,1,2.48.785,2.747,2.747,0,0,1,.918,2.207v3.664a4.041,4.041,0,0,0,.336,1.82V0ZM73.414-1.57a1.945,1.945,0,0,0,.922-.223,1.462,1.462,0,0,0,.625-.6V-3.844h-.844q-1.7,0-1.8,1.172l-.008.133a.9.9,0,0,0,.3.7A1.153,1.153,0,0,0,73.414-1.57Zm9.063-.094a1.481,1.481,0,0,0,1.016-.344,1.2,1.2,0,0,0,.406-.914h2.117a2.9,2.9,0,0,1-.469,1.574A3.093,3.093,0,0,1,84.285-.238a3.949,3.949,0,0,1-1.77.395A3.67,3.67,0,0,1,79.656-1,4.56,4.56,0,0,1,78.609-4.18v-.148a4.508,4.508,0,0,1,1.039-3.117A3.627,3.627,0,0,1,82.5-8.609a3.555,3.555,0,0,1,2.543.9,3.2,3.2,0,0,1,.973,2.4H83.9a1.551,1.551,0,0,0-.406-1.072,1.354,1.354,0,0,0-1.031-.412,1.36,1.36,0,0,0-1.191.575,3.333,3.333,0,0,0-.4,1.866v.235a3.375,3.375,0,0,0,.4,1.878A1.377,1.377,0,0,0,82.477-1.664ZM89.688,0H87.422V-8.453h2.266Zm-2.4-10.641a1.112,1.112,0,0,1,.34-.836,1.277,1.277,0,0,1,.926-.328,1.28,1.28,0,0,1,.922.328,1.105,1.105,0,0,1,.344.836,1.108,1.108,0,0,1-.348.844,1.283,1.283,0,0,1-.918.328,1.283,1.283,0,0,1-.918-.328A1.108,1.108,0,0,1,87.289-10.641ZM91.2-4.3a5.013,5.013,0,0,1,.484-2.242A3.546,3.546,0,0,1,93.074-8.07a4.069,4.069,0,0,1,2.113-.539A3.849,3.849,0,0,1,97.98-7.562a4.2,4.2,0,0,1,1.207,2.844l.016.578A4.418,4.418,0,0,1,98.117-1.02,3.775,3.775,0,0,1,95.2.156a3.793,3.793,0,0,1-2.918-1.172A4.5,4.5,0,0,1,91.2-4.2Zm2.258.16A3.16,3.16,0,0,0,93.906-2.3a1.5,1.5,0,0,0,1.3.638,1.5,1.5,0,0,0,1.281-.63,3.457,3.457,0,0,0,.461-2.015,3.128,3.128,0,0,0-.461-1.831,1.5,1.5,0,0,0-1.3-.649,1.474,1.474,0,0,0-1.281.646A3.516,3.516,0,0,0,93.453-4.144ZM95.633-12h2.461L95.93-9.578H94.094Zm7.039,3.547.07.977a2.951,2.951,0,0,1,2.43-1.133,2.453,2.453,0,0,1,2,.789,3.682,3.682,0,0,1,.672,2.359V0h-2.258V-5.419a1.47,1.47,0,0,0-.312-1.045,1.4,1.4,0,0,0-1.039-.325,1.553,1.553,0,0,0-1.43.814V0h-2.258V-8.453ZM117.43.156A4.15,4.15,0,0,1,114.4-.984a4.054,4.054,0,0,1-1.168-3.039v-.219a5.106,5.106,0,0,1,.492-2.277,3.612,3.612,0,0,1,1.395-1.547,3.914,3.914,0,0,1,2.059-.543,3.508,3.508,0,0,1,2.73,1.094,4.444,4.444,0,0,1,1,3.1v.922h-5.383a2.1,2.1,0,0,0,.66,1.328,2,2,0,0,0,1.395.5,2.437,2.437,0,0,0,2.039-.945l1.109,1.242a3.389,3.389,0,0,1-1.375,1.121A4.511,4.511,0,0,1,117.43.156Zm-.258-6.945a1.411,1.411,0,0,0-1.09.455,2.357,2.357,0,0,0-.535,1.3h3.141v-.181a1.681,1.681,0,0,0-.406-1.165A1.456,1.456,0,0,0,117.172-6.789Zm7.094-1.664.07.977a2.951,2.951,0,0,1,2.43-1.133,2.453,2.453,0,0,1,2,.789,3.682,3.682,0,0,1,.672,2.359V0H127.18V-5.419a1.47,1.47,0,0,0-.312-1.045,1.4,1.4,0,0,0-1.039-.325,1.553,1.553,0,0,0-1.43.814V0h-2.258V-8.453Zm18.477,4.3a5.07,5.07,0,0,1-.887,3.129A2.843,2.843,0,0,1,139.461.156a2.633,2.633,0,0,1-2.07-.891V3.25h-2.258v-11.7h2.094l.078.828a2.654,2.654,0,0,1,2.141-.984,2.862,2.862,0,0,1,2.43,1.156,5.207,5.207,0,0,1,.867,3.188Zm-2.258-.172a3.345,3.345,0,0,0-.418-1.826,1.36,1.36,0,0,0-1.215-.643,1.478,1.478,0,0,0-1.461.815V-2.5a1.5,1.5,0,0,0,1.477.839Q140.484-1.664,140.484-4.321ZM146.523,0h-2.266V-8.453h2.266Zm-2.4-10.641a1.112,1.112,0,0,1,.34-.836,1.277,1.277,0,0,1,.926-.328,1.28,1.28,0,0,1,.922.328,1.105,1.105,0,0,1,.344.836,1.109,1.109,0,0,1-.348.844,1.283,1.283,0,0,1-.918.328,1.283,1.283,0,0,1-.918-.328A1.109,1.109,0,0,1,144.125-10.641Zm8.148,10.8a4.15,4.15,0,0,1-3.027-1.141,4.054,4.054,0,0,1-1.168-3.039v-.219a5.106,5.106,0,0,1,.492-2.277,3.612,3.612,0,0,1,1.395-1.547,3.914,3.914,0,0,1,2.059-.543,3.508,3.508,0,0,1,2.73,1.094,4.444,4.444,0,0,1,1,3.1v.922h-5.383a2.1,2.1,0,0,0,.66,1.328,2,2,0,0,0,1.395.5,2.437,2.437,0,0,0,2.039-.945l1.109,1.242A3.389,3.389,0,0,1,154.2-.246,4.511,4.511,0,0,1,152.273.156Zm-.258-6.945a1.411,1.411,0,0,0-1.09.455,2.357,2.357,0,0,0-.535,1.3h3.141v-.181a1.681,1.681,0,0,0-.406-1.165A1.456,1.456,0,0,0,152.016-6.789ZM159.414,0h-2.266V-12h2.266Zm9-3.2,1.563-5.258H172.4L169,1.313l-.187.445a2.577,2.577,0,0,1-2.5,1.656,3.553,3.553,0,0,1-1-.148V1.555l.344.008a1.857,1.857,0,0,0,.957-.2,1.283,1.283,0,0,0,.5-.648l.266-.7-2.961-8.477h2.43Zm16.469-.953A5.07,5.07,0,0,1,184-1.02,2.843,2.843,0,0,1,181.6.156a2.633,2.633,0,0,1-2.07-.891V3.25h-2.258v-11.7h2.094l.078.828a2.654,2.654,0,0,1,2.141-.984,2.862,2.862,0,0,1,2.43,1.156,5.207,5.207,0,0,1,.867,3.188Zm-2.258-.172a3.345,3.345,0,0,0-.418-1.826,1.36,1.36,0,0,0-1.215-.643,1.478,1.478,0,0,0-1.461.815V-2.5a1.5,1.5,0,0,0,1.477.839Q182.625-1.664,182.625-4.321ZM190.172.156a4.15,4.15,0,0,1-3.027-1.141,4.054,4.054,0,0,1-1.168-3.039v-.219a5.106,5.106,0,0,1,.492-2.277,3.612,3.612,0,0,1,1.395-1.547,3.914,3.914,0,0,1,2.059-.543,3.508,3.508,0,0,1,2.73,1.094,4.444,4.444,0,0,1,1,3.1v.922h-5.383a2.1,2.1,0,0,0,.66,1.328,2,2,0,0,0,1.395.5,2.437,2.437,0,0,0,2.039-.945l1.109,1.242a3.389,3.389,0,0,1-1.375,1.121A4.511,4.511,0,0,1,190.172.156Zm-.258-6.945a1.411,1.411,0,0,0-1.09.455,2.357,2.357,0,0,0-.535,1.3h3.141v-.181a1.681,1.681,0,0,0-.406-1.165A1.456,1.456,0,0,0,189.914-6.789Zm7.609,4.969h4.133V0h-7.016V-1.375l3.977-5.258h-3.859v-1.82h6.773v1.33Zm10.609.961A2.831,2.831,0,0,1,205.82.156a2.67,2.67,0,0,1-2.074-.781,3.335,3.335,0,0,1-.73-2.289V-8.453h2.258v5.467q0,1.322,1.2,1.322a1.63,1.63,0,0,0,1.578-.8V-8.453h2.266V0H208.2ZM214.1-8.453l.07.977a2.951,2.951,0,0,1,2.43-1.133,2.453,2.453,0,0,1,2,.789,3.682,3.682,0,0,1,.672,2.359V0h-2.258V-5.419a1.47,1.47,0,0,0-.312-1.045,1.4,1.4,0,0,0-1.039-.325,1.553,1.553,0,0,0-1.43.814V0h-2.258V-8.453Zm4.484-3.445a2.187,2.187,0,0,1-.516,1.48,1.6,1.6,0,0,1-1.258.6,1.908,1.908,0,0,1-.527-.066,3.539,3.539,0,0,1-.637-.285,3.434,3.434,0,0,0-.586-.27,1.432,1.432,0,0,0-.391-.051.627.627,0,0,0-.465.2.759.759,0,0,0-.191.555L212.7-9.82a2.22,2.22,0,0,1,.512-1.477,1.578,1.578,0,0,1,1.254-.609,1.614,1.614,0,0,1,.441.059,4.861,4.861,0,0,1,.676.285,4.392,4.392,0,0,0,.648.273,1.48,1.48,0,0,0,.375.047.659.659,0,0,0,.473-.191.728.728,0,0,0,.2-.551Zm7.3,11.9a2.507,2.507,0,0,1-.227-.758,2.732,2.732,0,0,1-2.133.914,3,3,0,0,1-2.059-.719,2.312,2.312,0,0,1-.816-1.812,2.389,2.389,0,0,1,1-2.062,4.915,4.915,0,0,1,2.879-.727h1.039v-.484a1.393,1.393,0,0,0-.3-.937,1.183,1.183,0,0,0-.949-.352,1.345,1.345,0,0,0-.895.273.929.929,0,0,0-.324.75h-2.258a2.268,2.268,0,0,1,.453-1.359,3,3,0,0,1,1.281-.98,4.669,4.669,0,0,1,1.859-.355,3.689,3.689,0,0,1,2.48.785,2.747,2.747,0,0,1,.918,2.207v3.664a4.041,4.041,0,0,0,.336,1.82V0Zm-1.867-1.57a1.945,1.945,0,0,0,.922-.223,1.462,1.462,0,0,0,.625-.6V-3.844h-.844q-1.7,0-1.8,1.172l-.008.133a.9.9,0,0,0,.3.7A1.153,1.153,0,0,0,224.016-1.57Zm10.125-.766a.727.727,0,0,0-.41-.652,4.659,4.659,0,0,0-1.316-.426Q229.4-4.047,229.4-5.977a2.323,2.323,0,0,1,.934-1.879,3.766,3.766,0,0,1,2.441-.754,4.053,4.053,0,0,1,2.574.758,2.388,2.388,0,0,1,.965,1.969h-2.258a1.092,1.092,0,0,0-.312-.8A1.322,1.322,0,0,0,232.766-7a1.351,1.351,0,0,0-.883.258.814.814,0,0,0-.312.656.7.7,0,0,0,.355.605,3.657,3.657,0,0,0,1.2.4,9.8,9.8,0,0,1,1.422.379,2.336,2.336,0,0,1,1.789,2.273,2.205,2.205,0,0,1-.992,1.871,4.28,4.28,0,0,1-2.562.715,4.47,4.47,0,0,1-1.887-.379A3.166,3.166,0,0,1,229.6-1.262a2.414,2.414,0,0,1-.469-1.426h2.141a1.179,1.179,0,0,0,.445.922,1.766,1.766,0,0,0,1.109.32,1.635,1.635,0,0,0,.98-.246A.766.766,0,0,0,234.141-2.336ZM237.9-1.109a1.137,1.137,0,0,1,.363-.875,1.289,1.289,0,0,1,.91-.336,1.3,1.3,0,0,1,.918.336,1.137,1.137,0,0,1,.363.875,1.121,1.121,0,0,1-.359.863,1.305,1.305,0,0,1-.922.332,1.294,1.294,0,0,1-.914-.332A1.121,1.121,0,0,1,237.9-1.109Zm0-6.4a1.137,1.137,0,0,1,.363-.875,1.289,1.289,0,0,1,.91-.336,1.3,1.3,0,0,1,.918.336,1.137,1.137,0,0,1,.363.875,1.121,1.121,0,0,1-.359.863,1.305,1.305,0,0,1-.922.332,1.294,1.294,0,0,1-.914-.332A1.121,1.121,0,0,1,237.9-7.508Z" transform="translate(309.051 5584.8)" fill="#12263f"/>
    <path id="Trazado_915300" data-name="Trazado 915300" d="M4.672-5.07A7.053,7.053,0,0,1,1.863-6.434a2.6,2.6,0,0,1-.879-2,2.751,2.751,0,0,1,1.074-2.223,4.269,4.269,0,0,1,2.793-.879,4.66,4.66,0,0,1,2.09.453,3.436,3.436,0,0,1,1.422,1.25,3.2,3.2,0,0,1,.5,1.742H7.359A2.08,2.08,0,0,0,6.7-9.713,2.669,2.669,0,0,0,4.852-10.3a2.732,2.732,0,0,0-1.73.489A1.632,1.632,0,0,0,2.5-8.458,1.468,1.468,0,0,0,3.09-7.28,5.785,5.785,0,0,0,5.1-6.4a9.316,9.316,0,0,1,2.219.88A3.367,3.367,0,0,1,8.5-4.4a2.861,2.861,0,0,1,.387,1.508A2.658,2.658,0,0,1,7.813-.676,4.6,4.6,0,0,1,4.93.156,5.347,5.347,0,0,1,2.742-.293a3.681,3.681,0,0,1-1.566-1.23A3,3,0,0,1,.625-3.3H2.133a1.959,1.959,0,0,0,.762,1.629,3.207,3.207,0,0,0,2.035.6,2.948,2.948,0,0,0,1.82-.484,1.573,1.573,0,0,0,.633-1.32A1.545,1.545,0,0,0,6.8-4.168,6.755,6.755,0,0,0,4.672-5.07ZM15.8-.836a3.07,3.07,0,0,1-2.477.992A2.628,2.628,0,0,1,11.27-.629a3.4,3.4,0,0,1-.715-2.324v-5.5H12v5.461Q12-1.07,13.563-1.07a2.163,2.163,0,0,0,2.2-1.234V-8.453h1.445V0H15.836Zm7.109.992a3.693,3.693,0,0,1-2.8-1.129,4.19,4.19,0,0,1-1.078-3.02v-.266A5.073,5.073,0,0,1,19.52-6.5a3.748,3.748,0,0,1,1.344-1.547,3.378,3.378,0,0,1,1.871-.559A3.166,3.166,0,0,1,25.3-7.523a4.7,4.7,0,0,1,.914,3.109v.6H20.484a3,3,0,0,0,.73,2.02,2.3,2.3,0,0,0,1.777.77,2.517,2.517,0,0,0,1.3-.312,3.259,3.259,0,0,0,.93-.828l.883.688A3.55,3.55,0,0,1,22.914.156Zm-.18-7.578a1.928,1.928,0,0,0-1.469.637A3.1,3.1,0,0,0,20.531-5h4.234v-.109a2.753,2.753,0,0,0-.594-1.707A1.815,1.815,0,0,0,22.734-7.422ZM29.453,0H28.008V-12h1.445Zm1.93-4.3a4.993,4.993,0,0,1,.488-2.234A3.643,3.643,0,0,1,33.23-8.07a3.7,3.7,0,0,1,1.988-.539,3.565,3.565,0,0,1,2.793,1.2,4.6,4.6,0,0,1,1.066,3.18v.1a5.036,5.036,0,0,1-.473,2.215A3.589,3.589,0,0,1,37.254-.391a3.743,3.743,0,0,1-2.02.547,3.556,3.556,0,0,1-2.785-1.2A4.575,4.575,0,0,1,31.383-4.2Zm1.453.172a3.616,3.616,0,0,0,.652,2.258,2.088,2.088,0,0,0,1.746.852,2.075,2.075,0,0,0,1.75-.863A3.955,3.955,0,0,0,37.633-4.3a3.61,3.61,0,0,0-.66-2.254,2.1,2.1,0,0,0-1.754-.863,2.075,2.075,0,0,0-1.727.852A3.925,3.925,0,0,0,32.836-4.133ZM7.75,18.742H2.82v4.031H8.547V24H1.32V12.625H8.469v1.227H2.82v3.664H7.75Zm7.359,3.016a1.064,1.064,0,0,0-.441-.91,4.249,4.249,0,0,0-1.539-.559,7.277,7.277,0,0,1-1.742-.562,2.479,2.479,0,0,1-.953-.781,1.869,1.869,0,0,1-.309-1.078A2.193,2.193,0,0,1,11,16.109a3.432,3.432,0,0,1,2.246-.719,3.532,3.532,0,0,1,2.332.742,2.357,2.357,0,0,1,.895,1.9H15.023a1.3,1.3,0,0,0-.5-1.023,1.888,1.888,0,0,0-1.27-.43,1.976,1.976,0,0,0-1.234.344,1.082,1.082,0,0,0-.445.9.877.877,0,0,0,.414.789,5.1,5.1,0,0,0,1.5.508,7.8,7.8,0,0,1,1.754.578,2.558,2.558,0,0,1,1,.809,1.988,1.988,0,0,1,.324,1.152,2.163,2.163,0,0,1-.906,1.816,3.8,3.8,0,0,1-2.352.684,4.257,4.257,0,0,1-1.8-.359,2.922,2.922,0,0,1-1.223-1A2.42,2.42,0,0,1,9.836,21.4h1.445a1.5,1.5,0,0,0,.582,1.152,2.258,2.258,0,0,0,1.434.426,2.331,2.331,0,0,0,1.316-.332A1.02,1.02,0,0,0,15.109,21.758ZM20.4,13.5v2.047h1.578v1.117H20.4v5.249a1.173,1.173,0,0,0,.211.763.888.888,0,0,0,.719.254,3.5,3.5,0,0,0,.688-.094V24a4.215,4.215,0,0,1-1.109.155,1.8,1.8,0,0,1-1.461-.586,2.517,2.517,0,0,1-.492-1.664V16.664H17.414V15.547h1.539V13.5ZM25.234,24H23.789V15.547h1.445ZM23.672,13.3a.863.863,0,0,1,.215-.594.807.807,0,0,1,.637-.242.819.819,0,0,1,.641.242.854.854,0,0,1,.219.594.826.826,0,0,1-.219.586.834.834,0,0,1-.641.234.821.821,0,0,1-.637-.234A.834.834,0,0,1,23.672,13.3Zm7.383,10.852a3.693,3.693,0,0,1-2.8-1.129,4.19,4.19,0,0,1-1.078-3.02v-.266a5.073,5.073,0,0,1,.48-2.246A3.748,3.748,0,0,1,29,15.949a3.378,3.378,0,0,1,1.871-.559,3.166,3.166,0,0,1,2.563,1.086,4.7,4.7,0,0,1,.914,3.109v.6H28.625a3,3,0,0,0,.73,2.02,2.3,2.3,0,0,0,1.777.77,2.517,2.517,0,0,0,1.3-.312,3.259,3.259,0,0,0,.93-.828l.883.688A3.55,3.55,0,0,1,31.055,24.156Zm-.18-7.578a1.928,1.928,0,0,0-1.469.637A3.1,3.1,0,0,0,28.672,19h4.234v-.109a2.753,2.753,0,0,0-.594-1.707A1.815,1.815,0,0,0,30.875,16.578Zm.7-4.562h1.75l-2.094,2.3-1.164,0Zm8.531,4.828a4.331,4.331,0,0,0-.711-.055A1.9,1.9,0,0,0,37.469,18v6H36.023V15.547H37.43l.023.977a2.251,2.251,0,0,1,2.016-1.133,1.477,1.477,0,0,1,.641.109Zm4.57,6.133a2.082,2.082,0,0,0,1.352-.469,1.649,1.649,0,0,0,.641-1.172h1.367a2.621,2.621,0,0,1-.5,1.383,3.293,3.293,0,0,1-1.23,1.047,3.55,3.55,0,0,1-1.629.391A3.482,3.482,0,0,1,41.934,23a4.59,4.59,0,0,1-1.02-3.152v-.242a5.089,5.089,0,0,1,.453-2.2,3.451,3.451,0,0,1,1.3-1.492,3.7,3.7,0,0,1,2-.531,3.39,3.39,0,0,1,2.363.852,3.043,3.043,0,0,1,1,2.211H46.672a1.992,1.992,0,0,0-.621-1.348,1.932,1.932,0,0,0-1.379-.527,2.023,2.023,0,0,0-1.707.793,3.724,3.724,0,0,0-.605,2.293v.273a3.65,3.65,0,0,0,.6,2.25A2.033,2.033,0,0,0,44.68,22.977Zm4.6-3.281a4.993,4.993,0,0,1,.488-2.234,3.643,3.643,0,0,1,1.359-1.531,3.7,3.7,0,0,1,1.988-.539,3.565,3.565,0,0,1,2.793,1.2,4.6,4.6,0,0,1,1.066,3.18v.1a5.036,5.036,0,0,1-.473,2.215,3.589,3.589,0,0,1-1.352,1.527,3.743,3.743,0,0,1-2.02.547,3.556,3.556,0,0,1-2.785-1.2A4.575,4.575,0,0,1,49.281,19.8Zm1.453.172a3.616,3.616,0,0,0,.652,2.258,2.211,2.211,0,0,0,3.5-.012,3.955,3.955,0,0,0,.648-2.418,3.61,3.61,0,0,0-.66-2.254,2.1,2.1,0,0,0-1.754-.863,2.075,2.075,0,0,0-1.727.852A3.925,3.925,0,0,0,50.734,19.867ZM60.359,24H58.914V12h1.445Zm5.82.156a3.693,3.693,0,0,1-2.8-1.129,4.19,4.19,0,0,1-1.078-3.02v-.266a5.073,5.073,0,0,1,.48-2.246,3.748,3.748,0,0,1,1.344-1.547A3.378,3.378,0,0,1,66,15.391a3.166,3.166,0,0,1,2.563,1.086,4.7,4.7,0,0,1,.914,3.109v.6H63.75a3,3,0,0,0,.73,2.02,2.3,2.3,0,0,0,1.777.77,2.517,2.517,0,0,0,1.3-.312,3.259,3.259,0,0,0,.93-.828l.883.688A3.55,3.55,0,0,1,66.18,24.156ZM66,16.578a1.928,1.928,0,0,0-1.469.637A3.1,3.1,0,0,0,63.8,19h4.234v-.109a2.753,2.753,0,0,0-.594-1.707A1.815,1.815,0,0,0,66,16.578Zm10.07,5.18a1.064,1.064,0,0,0-.441-.91,4.249,4.249,0,0,0-1.539-.559,7.277,7.277,0,0,1-1.742-.562,2.478,2.478,0,0,1-.953-.781,1.869,1.869,0,0,1-.309-1.078,2.193,2.193,0,0,1,.879-1.758,3.432,3.432,0,0,1,2.246-.719,3.532,3.532,0,0,1,2.332.742,2.357,2.357,0,0,1,.895,1.9H75.984a1.3,1.3,0,0,0-.5-1.023,1.888,1.888,0,0,0-1.27-.43,1.976,1.976,0,0,0-1.234.344,1.082,1.082,0,0,0-.445.9.877.877,0,0,0,.414.789,5.1,5.1,0,0,0,1.5.508A7.8,7.8,0,0,1,76.2,19.7a2.558,2.558,0,0,1,1,.809,1.988,1.988,0,0,1,.324,1.152,2.163,2.163,0,0,1-.906,1.816,3.8,3.8,0,0,1-2.352.684,4.257,4.257,0,0,1-1.8-.359,2.922,2.922,0,0,1-1.223-1A2.42,2.42,0,0,1,70.8,21.4h1.445a1.5,1.5,0,0,0,.582,1.152,2.258,2.258,0,0,0,1.434.426,2.331,2.331,0,0,0,1.316-.332A1.02,1.02,0,0,0,76.07,21.758ZM2.82,43.547V48H1.32V36.625h4.2a4.215,4.215,0,0,1,2.926.953A3.231,3.231,0,0,1,9.5,40.1a3.189,3.189,0,0,1-1.035,2.551,4.4,4.4,0,0,1-2.965.895Zm0-1.227h2.7a2.7,2.7,0,0,0,1.844-.567A2.075,2.075,0,0,0,8,40.113a2.143,2.143,0,0,0-.641-1.628A2.525,2.525,0,0,0,5.6,37.852H2.82ZM12.758,48H11.313V39.547h1.445ZM11.2,37.3a.863.863,0,0,1,.215-.594.807.807,0,0,1,.637-.242.819.819,0,0,1,.641.242.854.854,0,0,1,.219.594.826.826,0,0,1-.219.586.834.834,0,0,1-.641.234.821.821,0,0,1-.637-.234A.834.834,0,0,1,11.2,37.3Zm7.383,10.852a3.693,3.693,0,0,1-2.8-1.129,4.19,4.19,0,0,1-1.078-3.02v-.266a5.073,5.073,0,0,1,.48-2.246,3.748,3.748,0,0,1,1.344-1.547,3.378,3.378,0,0,1,1.871-.559,3.166,3.166,0,0,1,2.563,1.086,4.7,4.7,0,0,1,.914,3.109v.6H16.148a3,3,0,0,0,.73,2.02,2.3,2.3,0,0,0,1.777.77,2.517,2.517,0,0,0,1.3-.312,3.259,3.259,0,0,0,.93-.828l.883.688A3.55,3.55,0,0,1,18.578,48.156Zm-.18-7.578a1.928,1.928,0,0,0-1.469.637A3.1,3.1,0,0,0,16.2,43H20.43v-.109a2.753,2.753,0,0,0-.594-1.707A1.815,1.815,0,0,0,18.4,40.578Zm6.516-1.031.047,1.063a3.08,3.08,0,0,1,2.531-1.219q2.68,0,2.7,3.023V48H28.75V42.406a1.946,1.946,0,0,0-.418-1.352,1.675,1.675,0,0,0-1.277-.437,2.086,2.086,0,0,0-1.234.375,2.546,2.546,0,0,0-.828.984V48H23.547V39.547ZM37.3,45.758a1.064,1.064,0,0,0-.441-.91,4.249,4.249,0,0,0-1.539-.559,7.277,7.277,0,0,1-1.742-.562,2.479,2.479,0,0,1-.953-.781,1.869,1.869,0,0,1-.309-1.078,2.193,2.193,0,0,1,.879-1.758,3.432,3.432,0,0,1,2.246-.719,3.532,3.532,0,0,1,2.332.742,2.357,2.357,0,0,1,.895,1.9H37.211a1.3,1.3,0,0,0-.5-1.023,1.888,1.888,0,0,0-1.27-.43,1.976,1.976,0,0,0-1.234.344,1.082,1.082,0,0,0-.445.9.877.877,0,0,0,.414.789,5.1,5.1,0,0,0,1.5.508,7.8,7.8,0,0,1,1.754.578,2.558,2.558,0,0,1,1,.809,1.988,1.988,0,0,1,.324,1.152,2.163,2.163,0,0,1-.906,1.816,3.8,3.8,0,0,1-2.352.684,4.257,4.257,0,0,1-1.8-.359,2.922,2.922,0,0,1-1.223-1,2.42,2.42,0,0,1-.441-1.395h1.445a1.5,1.5,0,0,0,.582,1.152,2.258,2.258,0,0,0,1.434.426,2.331,2.331,0,0,0,1.316-.332A1.02,1.02,0,0,0,37.3,45.758ZM40.242,43.7a4.993,4.993,0,0,1,.488-2.234A3.643,3.643,0,0,1,42.09,39.93a3.7,3.7,0,0,1,1.988-.539,3.565,3.565,0,0,1,2.793,1.2,4.6,4.6,0,0,1,1.066,3.18v.1a5.036,5.036,0,0,1-.473,2.215,3.589,3.589,0,0,1-1.352,1.527,3.743,3.743,0,0,1-2.02.547,3.556,3.556,0,0,1-2.785-1.2A4.575,4.575,0,0,1,40.242,43.8Zm1.453.172a3.616,3.616,0,0,0,.652,2.258,2.211,2.211,0,0,0,3.5-.012,3.955,3.955,0,0,0,.648-2.418,3.61,3.61,0,0,0-.66-2.254,2.1,2.1,0,0,0-1.754-.863,2.075,2.075,0,0,0-1.727.852A3.925,3.925,0,0,0,41.7,43.867Zm12.977,1.891a1.064,1.064,0,0,0-.441-.91,4.249,4.249,0,0,0-1.539-.559,7.277,7.277,0,0,1-1.742-.562A2.479,2.479,0,0,1,50,42.945a1.869,1.869,0,0,1-.309-1.078,2.193,2.193,0,0,1,.879-1.758,3.432,3.432,0,0,1,2.246-.719,3.532,3.532,0,0,1,2.332.742,2.357,2.357,0,0,1,.895,1.9H54.586a1.3,1.3,0,0,0-.5-1.023,1.888,1.888,0,0,0-1.27-.43,1.976,1.976,0,0,0-1.234.344,1.082,1.082,0,0,0-.445.9.877.877,0,0,0,.414.789,5.1,5.1,0,0,0,1.5.508A7.8,7.8,0,0,1,54.8,43.7a2.558,2.558,0,0,1,1,.809,1.988,1.988,0,0,1,.324,1.152,2.163,2.163,0,0,1-.906,1.816,3.8,3.8,0,0,1-2.352.684,4.257,4.257,0,0,1-1.8-.359,2.922,2.922,0,0,1-1.223-1A2.42,2.42,0,0,1,49.4,45.4h1.445a1.5,1.5,0,0,0,.582,1.152,2.258,2.258,0,0,0,1.434.426,2.331,2.331,0,0,0,1.316-.332A1.02,1.02,0,0,0,54.672,45.758ZM7.6,69.023H2.836L1.766,72H.219L4.563,60.625H5.875L10.227,72H8.688ZM3.289,67.8H7.156l-1.937-5.32Zm7.9-.094a4.968,4.968,0,0,1,.914-3.145,2.923,2.923,0,0,1,2.422-1.168,2.908,2.908,0,0,1,2.414,1.094l.07-.937h1.32V71.8a3.439,3.439,0,0,1-.973,2.586,3.589,3.589,0,0,1-2.613.945,4.348,4.348,0,0,1-1.789-.391,3.08,3.08,0,0,1-1.336-1.07l.75-.867a2.826,2.826,0,0,0,2.273,1.148,2.214,2.214,0,0,0,1.645-.594,2.269,2.269,0,0,0,.59-1.672v-.727a2.971,2.971,0,0,1-2.367,1,2.887,2.887,0,0,1-2.4-1.2A5.224,5.224,0,0,1,11.188,67.7Zm1.453.164a3.79,3.79,0,0,0,.586,2.246,1.9,1.9,0,0,0,1.641.816,2.117,2.117,0,0,0,2.008-1.242V65.828a2.142,2.142,0,0,0-1.992-1.211,1.921,1.921,0,0,0-1.648.82A4.128,4.128,0,0,0,12.641,67.867Zm13.086,3.3a3.07,3.07,0,0,1-2.477.992,2.628,2.628,0,0,1-2.059-.785,3.4,3.4,0,0,1-.715-2.324v-5.5h1.445v5.461q0,1.922,1.563,1.922a2.163,2.163,0,0,0,2.2-1.234V63.547h1.445V72H25.758Zm8.82.836a3.036,3.036,0,0,1-.2-.891,3.225,3.225,0,0,1-2.406,1.047,2.984,2.984,0,0,1-2.051-.707,2.287,2.287,0,0,1-.8-1.793,2.39,2.39,0,0,1,1-2.051,4.733,4.733,0,0,1,2.824-.73H34.32v-.664A1.623,1.623,0,0,0,33.867,65a1.821,1.821,0,0,0-1.336-.449,2.108,2.108,0,0,0-1.3.391,1.151,1.151,0,0,0-.523.945H29.258a2,2,0,0,1,.449-1.223,3.066,3.066,0,0,1,1.219-.934,4.1,4.1,0,0,1,1.691-.344,3.342,3.342,0,0,1,2.289.73,2.635,2.635,0,0,1,.859,2.012v3.891a4.757,4.757,0,0,0,.3,1.852V72Zm-2.4-1.1a2.54,2.54,0,0,0,1.289-.352,2.127,2.127,0,0,0,.883-.914V67.9H33.188q-2.656,0-2.656,1.555a1.316,1.316,0,0,0,.453,1.063A1.742,1.742,0,0,0,32.148,70.9Z" transform="translate(542.051 5710.8)" fill="#12263f"/>
    <path id="Trazado_915301" data-name="Trazado 915301" d="M18,0H231a18,18,0,0,1,0,36H18A18,18,0,0,1,18,0Z" transform="translate(239.051 5738.8)" fill="#fcedb6"/>
    <path id="Trazado_915302" data-name="Trazado 915302" d="M4.461-11.375,7-3.461l2.531-7.914h3.609V0h-2.75V-2.656l.266-5.437L7.906,0H6.094L3.336-8.1,3.6-2.656V0H.859V-11.375ZM17.539,0H14.9V-8.453h2.641Zm-2.8-10.641a1.186,1.186,0,0,1,.406-.927A1.527,1.527,0,0,1,16.2-11.93a1.527,1.527,0,0,1,1.055.362,1.186,1.186,0,0,1,.406.927,1.186,1.186,0,0,1-.406.927,1.527,1.527,0,0,1-1.055.362,1.527,1.527,0,0,1-1.055-.362A1.186,1.186,0,0,1,14.742-10.641Zm7.992,8.766a1.171,1.171,0,0,0,.859-.3,1.1,1.1,0,0,0,.3-.84h2.469a2.922,2.922,0,0,1-1,2.281A3.705,3.705,0,0,1,22.8.156,3.751,3.751,0,0,1,19.891-1a4.556,4.556,0,0,1-1.062-3.2v-.109A5.149,5.149,0,0,1,19.3-6.574a3.441,3.441,0,0,1,1.363-1.508,4.065,4.065,0,0,1,2.109-.527,3.658,3.658,0,0,1,2.617.914,3.242,3.242,0,0,1,.969,2.477H23.891a1.445,1.445,0,0,0-.32-1.008,1.106,1.106,0,0,0-.859-.352q-1.023,0-1.2,1.3a9.206,9.206,0,0,0-.055,1.141,3.616,3.616,0,0,0,.3,1.766A1.055,1.055,0,0,0,22.734-1.875Zm9.852-4.2-.867-.062a1.558,1.558,0,0,0-1.594.781V0H27.492V-8.453h2.469l.086,1.086A2.039,2.039,0,0,1,31.9-8.609a2.567,2.567,0,0,1,.734.094ZM32.922-4.3a4.989,4.989,0,0,1,.492-2.254,3.52,3.52,0,0,1,1.414-1.52,4.259,4.259,0,0,1,2.164-.531,3.887,3.887,0,0,1,2.992,1.176,4.512,4.512,0,0,1,1.094,3.2v.094A4.378,4.378,0,0,1,39.98-1,3.9,3.9,0,0,1,37.008.156a3.942,3.942,0,0,1-2.9-1.082,4.232,4.232,0,0,1-1.18-2.934Zm2.633.164a3.145,3.145,0,0,0,.367,1.719,1.223,1.223,0,0,0,1.086.547q1.406,0,1.438-2.164V-4.3q0-2.273-1.453-2.273-1.32,0-1.43,1.961ZM41.906-4.3A4.989,4.989,0,0,1,42.4-6.559a3.52,3.52,0,0,1,1.414-1.52,4.259,4.259,0,0,1,2.164-.531,3.887,3.887,0,0,1,2.992,1.176,4.512,4.512,0,0,1,1.094,3.2v.094A4.378,4.378,0,0,1,48.965-1,3.9,3.9,0,0,1,45.992.156a3.942,3.942,0,0,1-2.9-1.082,4.232,4.232,0,0,1-1.18-2.934Zm2.633.164a3.145,3.145,0,0,0,.367,1.719,1.223,1.223,0,0,0,1.086.547q1.406,0,1.438-2.164V-4.3q0-2.273-1.453-2.273-1.32,0-1.43,1.961Zm11.8-1.93-.867-.062a1.558,1.558,0,0,0-1.594.781V0H51.242V-8.453h2.469L53.8-7.367a2.039,2.039,0,0,1,1.852-1.242,2.567,2.567,0,0,1,.734.094Zm.492,1.781a5.708,5.708,0,0,1,.422-2.266,3.4,3.4,0,0,1,1.211-1.52A3.192,3.192,0,0,1,60.3-8.609a2.538,2.538,0,0,1,2.063.891l.094-.734h2.391V-.32a3.564,3.564,0,0,1-.52,1.941,3.334,3.334,0,0,1-1.5,1.266,5.528,5.528,0,0,1-2.281.441,4.769,4.769,0,0,1-1.8-.352,3.251,3.251,0,0,1-1.332-.914l1.1-1.547a2.414,2.414,0,0,0,1.938.867,1.568,1.568,0,0,0,1.75-1.8V-.68a2.472,2.472,0,0,1-1.914.836,3.055,3.055,0,0,1-2.5-1.184A4.9,4.9,0,0,1,56.828-4.2Zm2.641.164a3.007,3.007,0,0,0,.391,1.645,1.232,1.232,0,0,0,1.094.605,1.4,1.4,0,0,0,1.242-.57V-6a1.363,1.363,0,0,0-1.227-.578,1.241,1.241,0,0,0-1.1.629A3.429,3.429,0,0,0,59.469-4.125ZM71.1,0a2.973,2.973,0,0,1-.25-.758A2.448,2.448,0,0,1,68.82.156a3,3,0,0,1-2.031-.723,2.3,2.3,0,0,1-.836-1.816,2.364,2.364,0,0,1,1.016-2.078,5.174,5.174,0,0,1,2.953-.7h.813v-.448q0-1.17-1.008-1.17a.824.824,0,0,0-.937.926H66.156A2.36,2.36,0,0,1,67.2-7.845a4.383,4.383,0,0,1,2.66-.765,3.843,3.843,0,0,1,2.555.789,2.743,2.743,0,0,1,.961,2.164v3.742a3.832,3.832,0,0,0,.359,1.781V0ZM69.453-1.719a1.469,1.469,0,0,0,.816-.211,1.322,1.322,0,0,0,.465-.477V-3.758h-.766q-1.375,0-1.375,1.234a.754.754,0,0,0,.242.582A.876.876,0,0,0,69.453-1.719Zm7.8-6.734.086.992A2.867,2.867,0,0,1,79.75-8.609a2.412,2.412,0,0,1,1.973.789A3.757,3.757,0,0,1,82.4-5.445V0H79.758V-5.336a1.426,1.426,0,0,0-.258-.941,1.193,1.193,0,0,0-.937-.3,1.256,1.256,0,0,0-1.148.609V0H74.781V-8.453ZM86.633,0H83.992V-8.453h2.641Zm-2.8-10.641a1.186,1.186,0,0,1,.406-.927A1.527,1.527,0,0,1,85.3-11.93a1.527,1.527,0,0,1,1.055.362,1.186,1.186,0,0,1,.406.927,1.186,1.186,0,0,1-.406.927,1.527,1.527,0,0,1-1.055.362,1.527,1.527,0,0,1-1.055-.362A1.186,1.186,0,0,1,83.836-10.641ZM92.68-2.375a.608.608,0,0,0-.352-.539,5.348,5.348,0,0,0-1.336-.422,6.092,6.092,0,0,1-1.625-.574,2.722,2.722,0,0,1-.977-.863,2.061,2.061,0,0,1-.336-1.164,2.336,2.336,0,0,1,.961-1.918,3.958,3.958,0,0,1,2.516-.754,4.386,4.386,0,0,1,2.688.758,2.37,2.37,0,0,1,1.016,1.992H92.594q0-1.016-1.07-1.016a1.061,1.061,0,0,0-.7.23.714.714,0,0,0-.281.574.655.655,0,0,0,.344.57,3.248,3.248,0,0,0,1.1.359,9.486,9.486,0,0,1,1.324.336,2.406,2.406,0,0,1,1.906,2.352A2.214,2.214,0,0,1,94.191-.57a4.505,4.505,0,0,1-2.66.727,4.6,4.6,0,0,1-1.937-.391A3.24,3.24,0,0,1,88.266-1.3a2.406,2.406,0,0,1-.477-1.414H90.25a1.017,1.017,0,0,0,.391.855,1.607,1.607,0,0,0,.961.27A1.264,1.264,0,0,0,92.41-1.8.7.7,0,0,0,92.68-2.375Zm6.258-6.078.086.992a2.906,2.906,0,0,1,2.414-1.148A2.14,2.14,0,0,1,103.6-7.336a2.813,2.813,0,0,1,2.484-1.273q2.57,0,2.641,3.109V0h-2.641V-5.336a1.611,1.611,0,0,0-.219-.945.931.931,0,0,0-.8-.3,1.247,1.247,0,0,0-1.164.7l.008.109V0h-2.641V-5.32a1.694,1.694,0,0,0-.211-.961.929.929,0,0,0-.8-.3,1.263,1.263,0,0,0-1.156.7V0H96.469V-8.453ZM109.9-4.3a4.989,4.989,0,0,1,.492-2.254,3.52,3.52,0,0,1,1.414-1.52,4.259,4.259,0,0,1,2.164-.531,3.887,3.887,0,0,1,2.992,1.176,4.512,4.512,0,0,1,1.094,3.2v.094A4.378,4.378,0,0,1,116.957-1a3.9,3.9,0,0,1-2.973,1.16,3.942,3.942,0,0,1-2.9-1.082,4.232,4.232,0,0,1-1.18-2.934Zm2.633.164a3.145,3.145,0,0,0,.367,1.719,1.223,1.223,0,0,0,1.086.547q1.406,0,1.438-2.164V-4.3q0-2.273-1.453-2.273-1.32,0-1.43,1.961Zm11.109,1.766a.608.608,0,0,0-.352-.539,5.348,5.348,0,0,0-1.336-.422,6.092,6.092,0,0,1-1.625-.574,2.722,2.722,0,0,1-.977-.863,2.061,2.061,0,0,1-.336-1.164,2.336,2.336,0,0,1,.961-1.918,3.958,3.958,0,0,1,2.516-.754,4.386,4.386,0,0,1,2.688.758A2.37,2.37,0,0,1,126.2-5.859h-2.641q0-1.016-1.07-1.016a1.061,1.061,0,0,0-.7.23.714.714,0,0,0-.281.574.655.655,0,0,0,.344.57,3.248,3.248,0,0,0,1.1.359,9.486,9.486,0,0,1,1.324.336,2.406,2.406,0,0,1,1.906,2.352A2.214,2.214,0,0,1,125.152-.57a4.505,4.505,0,0,1-2.66.727,4.6,4.6,0,0,1-1.937-.391A3.24,3.24,0,0,1,119.227-1.3a2.406,2.406,0,0,1-.477-1.414h2.461a1.017,1.017,0,0,0,.391.855,1.607,1.607,0,0,0,.961.27,1.264,1.264,0,0,0,.809-.219A.7.7,0,0,0,123.641-2.375Zm15.6-1.789a5.1,5.1,0,0,1-.887,3.145A2.843,2.843,0,0,1,135.961.156,2.437,2.437,0,0,1,134.047-.7V3.25h-2.633v-11.7h2.461l.078.781a2.437,2.437,0,0,1,1.992-.937,2.866,2.866,0,0,1,2.43,1.152,5.16,5.16,0,0,1,.867,3.168Zm-2.633-.164q0-2.25-1.312-2.25a1.239,1.239,0,0,0-1.25.672v3.328a1.279,1.279,0,0,0,1.266.7q1.258,0,1.3-2.172ZM145.164,0a2.973,2.973,0,0,1-.25-.758,2.448,2.448,0,0,1-2.031.914,3,3,0,0,1-2.031-.723,2.3,2.3,0,0,1-.836-1.816,2.364,2.364,0,0,1,1.016-2.078,5.174,5.174,0,0,1,2.953-.7h.813v-.448q0-1.17-1.008-1.17a.824.824,0,0,0-.937.926h-2.633a2.36,2.36,0,0,1,1.043-1.99,4.383,4.383,0,0,1,2.66-.765,3.843,3.843,0,0,1,2.555.789,2.743,2.743,0,0,1,.961,2.164v3.742A3.832,3.832,0,0,0,147.8-.133V0Zm-1.648-1.719a1.469,1.469,0,0,0,.816-.211,1.322,1.322,0,0,0,.465-.477V-3.758h-.766q-1.375,0-1.375,1.234a.754.754,0,0,0,.242.582A.876.876,0,0,0,143.516-1.719Zm8.445-8.836v2.1h1.391v1.828h-1.391v3.867a.987.987,0,0,0,.172.664.922.922,0,0,0,.68.188,3.862,3.862,0,0,0,.656-.047V-.07a4.859,4.859,0,0,1-1.484.227,2.758,2.758,0,0,1-2.008-.641,2.626,2.626,0,0,1-.648-1.945v-4.2H148.25V-8.453h1.078v-2.1ZM153.82-4.3a4.989,4.989,0,0,1,.492-2.254,3.52,3.52,0,0,1,1.414-1.52,4.259,4.259,0,0,1,2.164-.531,3.887,3.887,0,0,1,2.992,1.176,4.512,4.512,0,0,1,1.094,3.2v.094A4.378,4.378,0,0,1,160.879-1a3.9,3.9,0,0,1-2.973,1.16,3.942,3.942,0,0,1-2.9-1.082,4.232,4.232,0,0,1-1.18-2.934Zm2.633.164a3.145,3.145,0,0,0,.367,1.719,1.223,1.223,0,0,0,1.086.547q1.406,0,1.438-2.164V-4.3q0-2.273-1.453-2.273-1.32,0-1.43,1.961ZM158.25-12h2.781l-2.172,2.453-2.148,0Zm4.578,7.711a5.708,5.708,0,0,1,.422-2.266,3.4,3.4,0,0,1,1.211-1.52,3.192,3.192,0,0,1,1.836-.535,2.538,2.538,0,0,1,2.063.891l.094-.734h2.391V-.32a3.564,3.564,0,0,1-.52,1.941,3.334,3.334,0,0,1-1.5,1.266,5.528,5.528,0,0,1-2.281.441,4.769,4.769,0,0,1-1.8-.352,3.251,3.251,0,0,1-1.332-.914l1.1-1.547a2.414,2.414,0,0,0,1.938.867,1.568,1.568,0,0,0,1.75-1.8V-.68a2.472,2.472,0,0,1-1.914.836,3.055,3.055,0,0,1-2.5-1.184,4.9,4.9,0,0,1-.953-3.168Zm2.641.164a3.007,3.007,0,0,0,.391,1.645,1.232,1.232,0,0,0,1.094.605,1.4,1.4,0,0,0,1.242-.57V-6a1.363,1.363,0,0,0-1.227-.578,1.241,1.241,0,0,0-1.1.629A3.429,3.429,0,0,0,165.469-4.125ZM176.43.156A4.345,4.345,0,0,1,173.281-1a4.006,4.006,0,0,1-1.2-3.02v-.219a5.191,5.191,0,0,1,.48-2.289,3.516,3.516,0,0,1,1.4-1.535,4.233,4.233,0,0,1,2.188-.543A3.659,3.659,0,0,1,178.961-7.5a4.344,4.344,0,0,1,1.031,3.082V-3.4h-5.234a1.9,1.9,0,0,0,.617,1.117,1.836,1.836,0,0,0,1.234.406,2.366,2.366,0,0,0,1.953-.875l1.2,1.422a3.363,3.363,0,0,1-1.395,1.082A4.713,4.713,0,0,1,176.43.156Zm-.3-6.734q-1.156,0-1.375,1.531h2.656v-.2a1.3,1.3,0,0,0-.32-.98A1.275,1.275,0,0,0,176.133-6.578Zm7.336-1.875.086.992a2.867,2.867,0,0,1,2.414-1.148,2.412,2.412,0,0,1,1.973.789,3.757,3.757,0,0,1,.676,2.375V0h-2.641V-5.336a1.426,1.426,0,0,0-.258-.941,1.193,1.193,0,0,0-.937-.3,1.256,1.256,0,0,0-1.148.609V0H181V-8.453ZM189.742-4.3a4.989,4.989,0,0,1,.492-2.254,3.52,3.52,0,0,1,1.414-1.52,4.259,4.259,0,0,1,2.164-.531A3.887,3.887,0,0,1,196.8-7.434a4.512,4.512,0,0,1,1.094,3.2v.094A4.378,4.378,0,0,1,196.8-1a3.9,3.9,0,0,1-2.973,1.16,3.942,3.942,0,0,1-2.9-1.082,4.232,4.232,0,0,1-1.18-2.934Zm2.633.164a3.145,3.145,0,0,0,.367,1.719,1.223,1.223,0,0,0,1.086.547q1.406,0,1.438-2.164V-4.3q0-2.273-1.453-2.273-1.32,0-1.43,1.961Zm11.109,1.766a.608.608,0,0,0-.352-.539,5.348,5.348,0,0,0-1.336-.422,6.092,6.092,0,0,1-1.625-.574,2.722,2.722,0,0,1-.977-.863,2.061,2.061,0,0,1-.336-1.164,2.336,2.336,0,0,1,.961-1.918,3.958,3.958,0,0,1,2.516-.754,4.386,4.386,0,0,1,2.688.758,2.37,2.37,0,0,1,1.016,1.992H203.4q0-1.016-1.07-1.016a1.061,1.061,0,0,0-.7.23.714.714,0,0,0-.281.574.655.655,0,0,0,.344.57,3.248,3.248,0,0,0,1.1.359,9.485,9.485,0,0,1,1.324.336,2.406,2.406,0,0,1,1.906,2.352A2.214,2.214,0,0,1,205-.57a4.505,4.505,0,0,1-2.66.727A4.6,4.6,0,0,1,200.4-.234,3.24,3.24,0,0,1,199.07-1.3a2.406,2.406,0,0,1-.477-1.414h2.461a1.017,1.017,0,0,0,.391.855,1.607,1.607,0,0,0,.961.27,1.264,1.264,0,0,0,.809-.219A.7.7,0,0,0,203.484-2.375Zm5.406-.18a1.5,1.5,0,0,1,1.039.371,1.218,1.218,0,0,1,.414.949,1.218,1.218,0,0,1-.414.949,1.5,1.5,0,0,1-1.039.371,1.486,1.486,0,0,1-1.043-.375,1.226,1.226,0,0,1-.41-.945,1.226,1.226,0,0,1,.41-.945A1.486,1.486,0,0,1,208.891-2.555Zm0-6.234a1.5,1.5,0,0,1,1.039.371,1.218,1.218,0,0,1,.414.949,1.218,1.218,0,0,1-.414.949,1.5,1.5,0,0,1-1.039.371,1.486,1.486,0,0,1-1.043-.375,1.226,1.226,0,0,1-.41-.945,1.226,1.226,0,0,1,.41-.945A1.486,1.486,0,0,1,208.891-8.789Z" transform="translate(256.051 5763.8)" fill="#12263f"/>
    <g id="Grupo_1103056" data-name="Grupo 1103056" transform="translate(498.802 5686.999)">
      <g id="Grupo_1103055" data-name="Grupo 1103055" transform="translate(0 -0.002)" clip-path="url(#clip-path)">
        <path id="Trazado_876229" data-name="Trazado 876229" d="M20.07.234C14.478-1.038,8.768,3,6.985,8.261c-1.032,2.537-.874,5.445-.9,8.111-.131,8.843-.059,18.389-.224,27.173a12.056,12.056,0,0,1-2.6,6.37C2.7,50.595.517,53.253,0,53.881c.491.553,1.647,1.782,2.144,2.347A12.2,12.2,0,0,1,5.449,64.96c.014,6.114.038,12.248.1,18.36l.065,7.73c-.025,2.607,0,5.561,1.134,8.053,2.029,5.124,7.9,8.779,13.32,7.407-4.894-.934-9.22-3.7-11.158-8.308-.969-2.306-.861-4.624-.824-7.152l.065-7.73q.075-7.731.092-15.461c0-.665.008-2.243.009-2.9A15.05,15.05,0,0,0,4.274,54.3l-.463-.514L5.5,51.7c2.79-3.316,3.471-7.788,3.222-11.926-.005-7.539-.093-15.818-.155-23.407,0-1.041-.054-2.879-.008-3.852C8.659,6.191,14.164,1.485,20.07.234" transform="translate(0 0.002)" fill="#12263f"/>
      </g>
    </g>
    <g id="Grupo_1103084" data-name="Grupo 1103084" transform="translate(-913.977 5266.978)">
      <g id="Grupo_1098742" data-name="Grupo 1098742" transform="translate(1251.333 413)">
        <g id="Rectángulo_400898" data-name="Rectángulo 400898" transform="translate(0)" fill="#fff" stroke="#fff" stroke-width="3" opacity="0.859">
          <rect width="49.644" height="49.644" rx="24.822" stroke="none"/>
          <rect x="1.5" y="1.5" width="46.644" height="46.644" rx="23.322" fill="none"/>
        </g>
        <g id="Rectángulo_400907" data-name="Rectángulo 400907" transform="translate(0)" fill="none" stroke="#fff" stroke-width="3">
          <rect width="49.644" height="49.644" rx="24.822" stroke="none"/>
          <rect x="1.5" y="1.5" width="46.644" height="46.644" rx="23.322" fill="none"/>
        </g>
      </g>
      <g id="Grupo_1103652" data-name="Grupo 1103652" transform="translate(1256.027 417.822)">
        <path id="Trazado_914924" data-name="Trazado 914924" d="M39.949,16.463a1.17,1.17,0,1,0-2.341,0A2.343,2.343,0,0,1,35.268,18.8H32.05a6.851,6.851,0,0,1-2.709-6.54l2.22-2.22a2.343,2.343,0,0,1,3.31,0,1.17,1.17,0,0,0,1.655-1.655,4.671,4.671,0,0,0-3.6-1.359,4.651,4.651,0,0,0-1.361-3.607,1.17,1.17,0,0,0-1.655,1.655,2.339,2.339,0,0,1,0,3.31l-2.22,2.22A6.851,6.851,0,0,1,21.145,7.9V4.682a2.343,2.343,0,0,1,2.341-2.341,1.17,1.17,0,1,0,0-2.341,4.671,4.671,0,0,0-3.511,1.59A4.671,4.671,0,0,0,16.463,0a1.17,1.17,0,0,0,0,2.341A2.343,2.343,0,0,1,18.8,4.682V7.9a6.851,6.851,0,0,1-6.54,2.709l-2.22-2.22a2.339,2.339,0,0,1,0-3.31A1.17,1.17,0,0,0,8.388,3.423,4.651,4.651,0,0,0,7.027,7.03a4.671,4.671,0,0,0-3.6,1.359,1.17,1.17,0,0,0,1.655,1.655,2.343,2.343,0,0,1,3.31,0l2.22,2.22A6.851,6.851,0,0,1,7.9,18.8H4.682a2.343,2.343,0,0,1-2.341-2.341,1.17,1.17,0,1,0-2.341,0,4.671,4.671,0,0,0,1.59,3.511A4.671,4.671,0,0,0,0,23.486a1.17,1.17,0,1,0,2.341,0,2.343,2.343,0,0,1,2.341-2.341H7.9a6.851,6.851,0,0,1,2.709,6.54l-2.22,2.22a2.34,2.34,0,0,1-3.31,0,1.17,1.17,0,1,0-1.655,1.655,4.663,4.663,0,0,0,3.6,1.359,4.651,4.651,0,0,0,1.361,3.607,1.17,1.17,0,1,0,1.655-1.655,2.341,2.341,0,0,1,0-3.31l2.22-2.22A6.851,6.851,0,0,1,18.8,32.05v3.218a2.343,2.343,0,0,1-2.341,2.341,1.17,1.17,0,1,0,0,2.341,4.671,4.671,0,0,0,3.511-1.59,4.671,4.671,0,0,0,3.511,1.59,1.17,1.17,0,1,0,0-2.341,2.343,2.343,0,0,1-2.341-2.341V32.049a6.851,6.851,0,0,1,6.54-2.709l2.22,2.22a2.339,2.339,0,0,1,0,3.31,1.17,1.17,0,1,0,1.655,1.655,4.651,4.651,0,0,0,1.361-3.607,4.663,4.663,0,0,0,3.6-1.359,1.17,1.17,0,0,0-1.655-1.655,2.34,2.34,0,0,1-3.31,0l-2.22-2.22a6.851,6.851,0,0,1,2.709-6.54h3.218a2.343,2.343,0,0,1,2.341,2.341,1.17,1.17,0,0,0,2.341,0,4.671,4.671,0,0,0-1.59-3.511A4.67,4.67,0,0,0,39.949,16.463ZM26.925,26.925A9.18,9.18,0,0,0,19.975,29.8a9.176,9.176,0,0,0-6.951-2.879,9.177,9.177,0,0,0-2.879-6.951,9.177,9.177,0,0,0,2.879-6.951,9.177,9.177,0,0,0,6.951-2.879,9.178,9.178,0,0,0,6.951,2.879A9.177,9.177,0,0,0,29.8,19.975,9.178,9.178,0,0,0,26.925,26.925Z" fill="#7b8883"/>
        <path id="Trazado_914925" data-name="Trazado 914925" d="M186.852,181a5.852,5.852,0,1,0,5.852,5.852A5.859,5.859,0,0,0,186.852,181Zm0,9.363a3.511,3.511,0,1,1,3.511-3.511A3.515,3.515,0,0,1,186.852,190.363Z" transform="translate(-166.877 -166.877)" fill="#7b8883"/>
      </g>
    </g>
    <g id="Grupo_1103839" data-name="Grupo 1103839" transform="translate(-602.563 216.665)">
      <path id="Trazado_915260" data-name="Trazado 915260" d="M4281.747,1899.406a5.615,5.615,0,1,0-5.616,5.772A5.6,5.6,0,0,0,4281.747,1899.406Zm-2.128-1c-.246.252-.5.5-.747.748-.152.152-.308.3-.462.452a.215.215,0,0,1-.081.082,8.47,8.47,0,0,1-.607.6.036.036,0,0,1-.021.009.15.15,0,0,1-.107.108.038.038,0,0,1-.009.021h0a8.4,8.4,0,0,1-.6.607h0a.167.167,0,0,1-.1.087.035.035,0,0,1-.009.021h0a7.8,7.8,0,0,1-.63.63l-.084.084a9.609,9.609,0,0,1-.69.7c-.161.151-.38.107-.55-.085a1.508,1.508,0,0,1-.236-.236h0l-.478-.479a1.641,1.641,0,0,1-.237-.237h0l-.505-.5a1.315,1.315,0,0,1-.21-.209l-.026-.027h0l-.478-.479-.026-.027c-.279-.236-.279-.453,0-.689l.026-.027a3.09,3.09,0,0,1,.476-.455c.012-.024.034-.021.055-.018a.4.4,0,0,1,.424.134c.089.1.182.189.273.283l1.108,1.1c.139.138.139.139.285.017l.371-.371h0a3.461,3.461,0,0,1,.37-.37l.318-.318.027-.026h0l.4-.4h0l.319-.316a3.9,3.9,0,0,1,.372-.371,3.809,3.809,0,0,1,.37-.37,3.949,3.949,0,0,1,.37-.371c.12-.123.235-.251.36-.367a.353.353,0,0,1,.491.008c.175.167.347.338.514.513A.351.351,0,0,1,4279.619,1898.41Z" transform="translate(-3145.521 3588.491)" fill="#f54749"/>
      <path id="Trazado_915263" data-name="Trazado 915263" d="M4281.747,1899.406a5.615,5.615,0,1,0-5.616,5.772A5.6,5.6,0,0,0,4281.747,1899.406Zm-2.128-1c-.246.252-.5.5-.747.748-.152.152-.308.3-.462.452a.215.215,0,0,1-.081.082,8.47,8.47,0,0,1-.607.6.036.036,0,0,1-.021.009.15.15,0,0,1-.107.108.038.038,0,0,1-.009.021h0a8.4,8.4,0,0,1-.6.607h0a.167.167,0,0,1-.1.087.035.035,0,0,1-.009.021h0a7.8,7.8,0,0,1-.63.63l-.084.084a9.609,9.609,0,0,1-.69.7c-.161.151-.38.107-.55-.085a1.508,1.508,0,0,1-.236-.236h0l-.478-.479a1.641,1.641,0,0,1-.237-.237h0l-.505-.5a1.315,1.315,0,0,1-.21-.209l-.026-.027h0l-.478-.479-.026-.027c-.279-.236-.279-.453,0-.689l.026-.027a3.09,3.09,0,0,1,.476-.455c.012-.024.034-.021.055-.018a.4.4,0,0,1,.424.134c.089.1.182.189.273.283l1.108,1.1c.139.138.139.139.285.017l.371-.371h0a3.461,3.461,0,0,1,.37-.37l.318-.318.027-.026h0l.4-.4h0l.319-.316a3.9,3.9,0,0,1,.372-.371,3.809,3.809,0,0,1,.37-.37,3.949,3.949,0,0,1,.37-.371c.12-.123.235-.251.36-.367a.353.353,0,0,1,.491.008c.175.167.347.338.514.513A.351.351,0,0,1,4279.619,1898.41Z" transform="translate(-3145.521 3638.135)" fill="#f54749"/>
      <path id="Trazado_915261" data-name="Trazado 915261" d="M4281.747,1899.406a5.615,5.615,0,1,0-5.616,5.772A5.6,5.6,0,0,0,4281.747,1899.406Zm-2.128-1c-.246.252-.5.5-.747.748-.152.152-.308.3-.462.452a.215.215,0,0,1-.081.082,8.47,8.47,0,0,1-.607.6.036.036,0,0,1-.021.009.15.15,0,0,1-.107.108.038.038,0,0,1-.009.021h0a8.4,8.4,0,0,1-.6.607h0a.167.167,0,0,1-.1.087.035.035,0,0,1-.009.021h0a7.8,7.8,0,0,1-.63.63l-.084.084a9.609,9.609,0,0,1-.69.7c-.161.151-.38.107-.55-.085a1.508,1.508,0,0,1-.236-.236h0l-.478-.479a1.641,1.641,0,0,1-.237-.237h0l-.505-.5a1.315,1.315,0,0,1-.21-.209l-.026-.027h0l-.478-.479-.026-.027c-.279-.236-.279-.453,0-.689l.026-.027a3.09,3.09,0,0,1,.476-.455c.012-.024.034-.021.055-.018a.4.4,0,0,1,.424.134c.089.1.182.189.273.283l1.108,1.1c.139.138.139.139.285.017l.371-.371h0a3.461,3.461,0,0,1,.37-.37l.318-.318.027-.026h0l.4-.4h0l.319-.316a3.9,3.9,0,0,1,.372-.371,3.809,3.809,0,0,1,.37-.37,3.949,3.949,0,0,1,.37-.371c.12-.123.235-.251.36-.367a.353.353,0,0,1,.491.008c.175.167.347.338.514.513A.351.351,0,0,1,4279.619,1898.41Z" transform="translate(-3145.521 3613.313)" fill="#f54749"/>
      <path id="Trazado_915262" data-name="Trazado 915262" d="M4281.747,1899.406a5.615,5.615,0,1,0-5.616,5.772A5.6,5.6,0,0,0,4281.747,1899.406Zm-2.128-1c-.246.252-.5.5-.747.748-.152.152-.308.3-.462.452a.215.215,0,0,1-.081.082,8.47,8.47,0,0,1-.607.6.036.036,0,0,1-.021.009.15.15,0,0,1-.107.108.038.038,0,0,1-.009.021h0a8.4,8.4,0,0,1-.6.607h0a.167.167,0,0,1-.1.087.035.035,0,0,1-.009.021h0a7.8,7.8,0,0,1-.63.63l-.084.084a9.609,9.609,0,0,1-.69.7c-.161.151-.38.107-.55-.085a1.508,1.508,0,0,1-.236-.236h0l-.478-.479a1.641,1.641,0,0,1-.237-.237h0l-.505-.5a1.315,1.315,0,0,1-.21-.209l-.026-.027h0l-.478-.479-.026-.027c-.279-.236-.279-.453,0-.689l.026-.027a3.09,3.09,0,0,1,.476-.455c.012-.024.034-.021.055-.018a.4.4,0,0,1,.424.134c.089.1.182.189.273.283l1.108,1.1c.139.138.139.139.285.017l.371-.371h0a3.461,3.461,0,0,1,.37-.37l.318-.318.027-.026h0l.4-.4h0l.319-.316a3.9,3.9,0,0,1,.372-.371,3.809,3.809,0,0,1,.37-.37,3.949,3.949,0,0,1,.37-.371c.12-.123.235-.251.36-.367a.353.353,0,0,1,.491.008c.175.167.347.338.514.513A.351.351,0,0,1,4279.619,1898.41Z" transform="translate(-3145.521 3662.957)" fill="#f54749"/>
    </g>
  </g>
</svg>
