<svg xmlns="http://www.w3.org/2000/svg" xmlns:xlink="http://www.w3.org/1999/xlink" width="505" height="357.074" viewBox="0 0 505 357.074">
  <defs>
    <clipPath id="clip-path">
      <rect id="Rectángulo_402982" data-name="Rectángulo 402982" width="505" height="356.144" fill="#f54749" stroke="#707070" stroke-width="1" opacity="0.65"/>
    </clipPath>
    <clipPath id="clip-path-2">
      <rect id="Rectángulo_404420" data-name="Rectángulo 404420" width="345.514" height="336.15" fill="none"/>
    </clipPath>
    <clipPath id="clip-path-7">
      <rect id="Rectángulo_404417" data-name="Rectángulo 404417" width="89.868" height="89.868" fill="none"/>
    </clipPath>
    <clipPath id="clip-path-8">
      <rect id="Rectángulo_404418" data-name="Rectángulo 404418" width="76.97" height="76.969" fill="none"/>
    </clipPath>
  </defs>
  <g id="Grupo_1103874" data-name="Grupo 1103874" transform="translate(-180 -9949.845)">
    <g id="Enmascarar_grupo_1098693" data-name="Enmascarar grupo 1098693" transform="translate(180 9949.845)" clip-path="url(#clip-path)">
      <rect id="food-safety-inspector-checking-products-iso-22000-certification-background" width="533.901" height="356.144" transform="translate(-28.174 0)" fill="#feeded"/>
    </g>
    <g id="Grupo_1103555" data-name="Grupo 1103555" transform="translate(269.531 9970.77)">
      <g id="Grupo_1103554" data-name="Grupo 1103554" clip-path="url(#clip-path-2)">
        <g id="Grupo_1103541" data-name="Grupo 1103541">
          <g id="Grupo_1103540" data-name="Grupo 1103540" clip-path="url(#clip-path-2)">
            <path id="Trazado_914404" data-name="Trazado 914404" d="M5.749,172.264c1.08.808,27.308,28.156,27.308,28.156l1.989-11.564L60.29,207.442l-30.725-34.78-1.891,12.731Z" transform="translate(-1.33 -39.84)" fill="#ade3ea"/>
            <path id="Trazado_914405" data-name="Trazado 914405" d="M407.452,261.917c-.646-.042-18.343-4.165-18.343-4.165l2.227,5.168-15.007-.859,21.451,5.931-2.574-5.61Z" transform="translate(-87.034 -59.611)" fill="#ade3ea"/>
            <path id="Trazado_914406" data-name="Trazado 914406" d="M52.1,243.241c-.645-.042-18.34-4.178-18.34-4.178l2.224,5.169-15.008-.87,21.447,5.947L39.857,243.7Z" transform="translate(-4.852 -55.289)" fill="#ade3ea"/>
            <path id="Trazado_914407" data-name="Trazado 914407" d="M366.281,399.228c-.758-.4-19.952-14.892-19.952-14.892l-.081,7.447-17.692-9.1,22.761,18.7-.1-8.169Z" transform="translate(-75.986 -88.504)" fill="#ade3ea"/>
            <path id="Trazado_914408" data-name="Trazado 914408" d="M412.345,184.123c-1.229.6-38.062,11.727-38.062,11.727l9.546,7.131-28.451,14.271,45.629-11.765-10.646-7.58Z" transform="translate(-82.189 -42.582)" fill="#ade3ea"/>
            <path id="Trazado_914409" data-name="Trazado 914409" d="M69.844,364.458c-1.228.6-38.061,11.727-38.061,11.727l9.545,7.131L12.877,397.586l45.629-11.765-10.646-7.58Z" transform="translate(-2.978 -84.289)" fill="#ade3ea"/>
            <path id="Trazado_914410" data-name="Trazado 914410" d="M296.358,105.254c-.357.815-14.007,21.766-14.007,21.766l7.73-.453-8.165,19,17.752-24.953-8.465.69Z" transform="translate(-65.199 -24.342)" fill="#ade3ea"/>
            <path id="Trazado_914411" data-name="Trazado 914411" d="M355.669,144.968a4.8,4.8,0,1,0-4.817-8.048q-2-4.866-4-9.731l-3.863,3.336q.507,1.941,1.015,3.881a4.969,4.969,0,0,0-3.3,7.736c-2.785.064-5.825.713-7.539,2.91a6.624,6.624,0,0,0-.018,7.622,8.757,8.757,0,0,0,7.015,3.534,13.075,13.075,0,0,0,7.612-2.535,5.891,5.891,0,1,0,7.9-8.706" transform="translate(-76.77 -29.415)" fill="#fddadb"/>
            <path id="Trazado_914412" data-name="Trazado 914412" d="M395.874,9.937c-1.235-2.433-2.764-4.888-5.167-6.181s-5.877-.949-7.28,1.391C381.977,1.539,377.7-.371,373.833.06s-7.286,2.775-9.957,5.6a9.091,9.091,0,0,0-2.749,4.861,4.505,4.505,0,0,0,.7,2.971,4.885,4.885,0,0,0-5.035,1.374c-1.752,2.067-1.549,5.343.028,7.547a10.257,10.257,0,0,0,6.925,3.825,9.984,9.984,0,0,1,3.724.886,5.075,5.075,0,0,1,2.178,4.436c-.008,1.724-.275,7.607-.124,9.428h6.832c.38-2.581,2.09-8.607,2.328-10.727A6.2,6.2,0,0,0,388.8,25.878c.076-1.142,0-2.6,1.038-3.077a3.761,3.761,0,0,1,2.18.13c2.777.474,5.34-2.135,5.787-4.916s-.66-5.566-1.935-8.078" transform="translate(-82.229 0)" fill="#fddadb"/>
            <path id="Trazado_914413" data-name="Trazado 914413" d="M370.307,46.278s-2.83,14.759-1.82,19.41,3.235,4.65,3.235,4.65.2,2.527.91,6.267,2.729,5.054,1.516,10.008c0,0-8.9-2.123-12.13,4.752s-2.932,14.253,1.213,18.3,10.706,11.9,25.475,7.379c12.991-3.975,19.495-13.676,21.564-25.655C412.3,79.632,406.3,55.68,380.922,60.835c0,0-3.336.3-2.73-3.841S379,45.57,379,45.57Z" transform="translate(-83.218 -10.539)" fill="#fbb5b6"/>
            <path id="Trazado_914414" data-name="Trazado 914414" d="M358.952,104.532a26.449,26.449,0,0,0-7.364-2.487c-2.46-.41-9.468,1.244-10.137,8.512s2.582,17.5,2.582,17.5l7.746-2.1a81.952,81.952,0,0,1-2.008-11.2c-.288-4.2,2.47-4.088,4.68-3.125,3.73,1.626,3.258,4.183,3.258,4.183Z" transform="translate(-78.947 -23.587)" fill="#fbb5b6"/>
            <path id="Trazado_914415" data-name="Trazado 914415" d="M379.721,69.042a11.42,11.42,0,0,1-1.061,1,10.287,10.287,0,0,0-3.023,6.094,11.375,11.375,0,0,1-.153,1.449,3.545,3.545,0,0,1-.128-1.474,8.939,8.939,0,0,1,3.113-6.279,3.571,3.571,0,0,1,1.251-.789" transform="translate(-86.808 -15.967)" fill="#e0e0e0"/>
            <path id="Trazado_914416" data-name="Trazado 914416" d="M387.406,106.115a21.611,21.611,0,0,0-9.6-6.942,5.629,5.629,0,0,1,1.723.448,15.948,15.948,0,0,1,6.907,5,5.6,5.6,0,0,1,.965,1.5" transform="translate(-87.377 -22.934)" fill="#e0e0e0"/>
            <path id="Trazado_914417" data-name="Trazado 914417" d="M359.6,112.246a4.182,4.182,0,0,1-.193-1.568,10.77,10.77,0,0,1,2.665-7.028,4.16,4.16,0,0,1,1.184-1.047,16.9,16.9,0,0,0-2.775,4.463,16.928,16.928,0,0,0-.881,5.18" transform="translate(-83.12 -23.729)" fill="#e0e0e0"/>
            <path id="Trazado_914418" data-name="Trazado 914418" d="M348.029,43.517A4.119,4.119,0,0,0,340.9,47.3,3.645,3.645,0,1,0,344.28,52.9a3.933,3.933,0,1,0,6.562-3.525,3.235,3.235,0,1,0-2.615-5.6" transform="translate(-78.069 -9.726)" fill="#fddadb"/>
            <path id="Trazado_914419" data-name="Trazado 914419" d="M380.77,149.754a2.378,2.378,0,1,0,.585-.13" transform="translate(-87.717 -34.602)" fill="#f5f5f5"/>
            <path id="Trazado_914420" data-name="Trazado 914420" d="M340.544,26.533a2.379,2.379,0,1,0,.586-.13" transform="translate(-78.413 -6.104)" fill="#f5f5f5"/>
            <path id="Trazado_914421" data-name="Trazado 914421" d="M364.02,117.624a2.15,2.15,0,0,1-.408-.58,9.353,9.353,0,0,1-.783-1.77,10.679,10.679,0,0,1,3.364-11.627,9.257,9.257,0,0,1,1.607-1.079,2.116,2.116,0,0,1,.655-.273c.038.066-.882.5-2.076,1.565a10.985,10.985,0,0,0-3.279,11.33c.439,1.542.988,2.4.92,2.433" transform="translate(-83.788 -23.657)" fill="#fff"/>
            <path id="Trazado_914422" data-name="Trazado 914422" d="M380.416,83.546a3.717,3.717,0,0,1-.93-1.282,8.434,8.434,0,0,1-.094-7.456,3.736,3.736,0,0,1,.9-1.305c.058.04-.28.538-.639,1.421a9.35,9.35,0,0,0,.091,7.219c.381.873.731,1.363.675,1.4" transform="translate(-87.552 -16.999)" fill="#fff"/>
            <path id="Trazado_914423" data-name="Trazado 914423" d="M373.437,61.911a9.754,9.754,0,0,1,.07-4.05,9.751,9.751,0,0,1,1.35-3.818c.111.047-.572,1.717-.956,3.89s-.342,3.974-.464,3.978" transform="translate(-86.328 -12.498)" fill="#fff"/>
            <path id="Trazado_914424" data-name="Trazado 914424" d="M343.579,115.782a7.632,7.632,0,0,1,1.936-7.163A19.357,19.357,0,0,0,344,112.054a19.252,19.252,0,0,0-.425,3.728" transform="translate(-79.402 -25.12)" fill="#fff"/>
          </g>
        </g>
        <g id="Grupo_1103543" data-name="Grupo 1103543">
          <g id="Grupo_1103542" data-name="Grupo 1103542" clip-path="url(#clip-path-2)">
            <path id="Trazado_914425" data-name="Trazado 914425" d="M345.514,436.64c0,.221-77.353.4-172.749.4C77.336,437.04,0,436.861,0,436.64s77.336-.4,172.766-.4c95.4,0,172.749.18,172.749.4" transform="translate(0 -100.89)" fill="#263238"/>
          </g>
        </g>
        <path id="Trazado_914426" data-name="Trazado 914426" d="M68.682,28.976l-16.415-17L48.188,38.864,26.2,38.119,39.958,56.191,26.111,74.363l22.931-4.521,3.314,23.072L70.894,78.87,94.271,91.11,89.154,67.493l26.523-4.175L95.048,51.144,107.074,30.4,86.459,38.463,83.952,12.88Z" transform="translate(-6.039 -2.771)" fill="#fff"/>
        <g id="Grupo_1103545" data-name="Grupo 1103545">
          <g id="Grupo_1103544" data-name="Grupo 1103544" clip-path="url(#clip-path-2)">
            <path id="Trazado_914427" data-name="Trazado 914427" d="M68.548,28.915s.341-.376,1-1.085l2.94-3.13,11.26-11.945.14-.148.02.2c.691,6.942,1.551,15.588,2.546,25.579l-.179-.109L106.885,30.2l.411-.161-.221.383L95.064,51.169,95,50.935,115.638,63.1l.443.261-.508.08L89.051,67.624l.16-.232c1.632,7.525,3.359,15.49,5.121,23.616l.09.415-.377-.2-20.252-10.6-3.125-1.637.214-.018L52.343,93.01l-.268.2-.048-.333L48.718,69.808l.228.162L26.014,74.483l-.479.094.3-.387L39.687,56.025v.21L25.939,38.154l-.2-.263.33.012,21.99.766-.138.115C49.543,28.2,50.922,19.2,52.04,11.9l.029-.191.133.138L64.35,24.509l3.135,3.278c.7.74,1.064,1.128,1.064,1.128s-.359-.355-1.066-1.078L64.33,24.606,52.065,11.985l.162-.052c-1.1,7.3-2.448,16.3-4.039,26.89l-.018.119-.121,0-21.992-.723.13-.251L39.962,56.025l.08.1-.08.105L26.125,74.413l-.182-.293,22.929-4.529.2-.039.028.2q1.62,11.254,3.319,23.071l-.316-.13L70.64,78.649l.1-.077.112.059,3.126,1.637,20.251,10.6-.286.218C92.185,82.965,90.461,75,88.831,67.474l-.043-.2.2-.032,26.524-4.167-.065.341L94.828,51.231l-.148-.088L94.767,51l12.041-20.732.19.221-20.623,8.04-.163.063-.017-.173c-.964-9.994-1.8-18.643-2.468-25.586l.16.055L72.512,24.8,69.555,27.88c-.666.692-1.007,1.035-1.007,1.035" transform="translate(-5.906 -2.709)" fill="#263238"/>
            <path id="Trazado_914428" data-name="Trazado 914428" d="M141.125,98.511c3.993,5.246-1.935,11.173-7.18,7.18-4-5.246,1.934-11.177,7.18-7.18" transform="translate(-30.674 -22.48)" fill="#fff"/>
            <path id="Trazado_914429" data-name="Trazado 914429" d="M141.073,98.477a8.382,8.382,0,0,1-1.061-.582,5.732,5.732,0,0,0-3.149-.528l-.514.086c-.17.048-.337.12-.512.181a5.018,5.018,0,0,0-1.021.524,5.234,5.234,0,0,0-1.608,1.919,5.107,5.107,0,0,0-.364,2.726,6.56,6.56,0,0,0,1.2,2.726,6.711,6.711,0,0,0,2.7,1.176,5.1,5.1,0,0,0,2.727-.363,5.228,5.228,0,0,0,1.92-1.607,5,5,0,0,0,.524-1.021c.061-.174.132-.342.181-.512q.044-.262.086-.514a5.73,5.73,0,0,0-.527-3.149,8.459,8.459,0,0,1-.581-1.062c.01-.01.078.071.2.238s.306.415.519.751a5.639,5.639,0,0,1,.67,3.258c-.026.178-.052.361-.079.547-.048.181-.118.362-.179.549a5.256,5.256,0,0,1-.54,1.1,5.506,5.506,0,0,1-2.038,1.755,5.429,5.429,0,0,1-2.941.416l-.77-.169a7.291,7.291,0,0,1-.743-.291l-.372-.158-.342-.217-.343-.22-.173-.111-.086-.056-.043-.028-.022-.014-.011-.007-.005,0c.028.028-.045-.042-.038-.037a6.856,6.856,0,0,1-1.28-2.92,5.434,5.434,0,0,1,.417-2.94,5.5,5.5,0,0,1,1.756-2.037,5.252,5.252,0,0,1,1.1-.539c.188-.061.367-.132.55-.179l.547-.078a5.637,5.637,0,0,1,3.257.67c.337.214.583.4.751.52s.248.191.238.2" transform="translate(-30.622 -22.445)" fill="#263238"/>
            <path id="Trazado_914430" data-name="Trazado 914430" d="M84.1,46.876,83.06,64.25a2.819,2.819,0,0,1-5.614.151L75.458,46.949a2.21,2.21,0,0,1,2.22-2.461l4.237.044A2.212,2.212,0,0,1,84.1,46.876" transform="translate(-17.448 -10.289)" fill="#ff725e"/>
            <path id="Trazado_914431" data-name="Trazado 914431" d="M75.91,84.685a4.24,4.24,0,1,0,2.669-5.369,4.24,4.24,0,0,0-2.669,5.369" transform="translate(-17.505 -18.292)" fill="#ff725e"/>
          </g>
        </g>
        <g id="Grupo_1103553" data-name="Grupo 1103553">
          <g id="Grupo_1103552" data-name="Grupo 1103552" clip-path="url(#clip-path-2)">
            <path id="Trazado_914432" data-name="Trazado 914432" d="M219.349,8.434a8.633,8.633,0,0,0-8.739-4.828,11.8,11.8,0,0,0-14.528-.447,10.5,10.5,0,0,0-16.244,7.788,9.011,9.011,0,0,0-9.383,4.164,9.013,9.013,0,0,0,1,10.218,8.731,8.731,0,0,0-6.114,9.512,8.73,8.73,0,0,0,8.848,7.041l43.1-23.678a8.633,8.633,0,0,0,2.06-9.77" transform="translate(-38.215 -0.202)" fill="#263238"/>
            <path id="Trazado_914433" data-name="Trazado 914433" d="M173.741,46.309a35.771,35.771,0,0,1,37.247-31.086l1.85.092C232.73,17.472,242.011,35.57,239.3,55.395l-5.287,75.132,11.379,5.39-34.435,25.122-39.516-27.924,15.475-5.088.274-13.114s-19.031-3.934-18.315-23.121c.346-9.266,2.611-28.29,4.861-45.483" transform="translate(-39.053 -3.51)" fill="#ffc09d"/>
            <path id="Trazado_914434" data-name="Trazado 914434" d="M192.677,143.071s12.051,1.31,25.333-6.141c0,0-6.4,14.115-25.443,11.438Z" transform="translate(-44.535 -31.668)" fill="#ff9b6c"/>
            <path id="Trazado_914435" data-name="Trazado 914435" d="M185.464,79.715a2.74,2.74,0,0,0,2.5,2.893,2.622,2.622,0,0,0,2.945-2.328,2.742,2.742,0,0,0-2.5-2.9,2.624,2.624,0,0,0-2.948,2.33" transform="translate(-42.89 -17.893)" fill="#263238"/>
            <path id="Trazado_914436" data-name="Trazado 914436" d="M179.953,67.356c.321.374,2.471-1.059,5.419-.9,2.945.111,5.032,1.735,5.37,1.391.165-.153-.149-.815-1.056-1.547a7.517,7.517,0,0,0-4.277-1.554,7.222,7.222,0,0,0-4.335,1.165c-.941.65-1.28,1.281-1.12,1.449" transform="translate(-41.609 -14.971)" fill="#263238"/>
            <path id="Trazado_914437" data-name="Trazado 914437" d="M219.146,81.4a2.742,2.742,0,0,0,2.5,2.893,2.622,2.622,0,0,0,2.946-2.329,2.744,2.744,0,0,0-2.5-2.9,2.624,2.624,0,0,0-2.948,2.331" transform="translate(-50.68 -18.283)" fill="#263238"/>
            <path id="Trazado_914438" data-name="Trazado 914438" d="M217.6,69.942c.322.374,2.475-1.058,5.42-.9,2.944.111,5.032,1.735,5.37,1.39.165-.152-.145-.813-1.057-1.546a7.52,7.52,0,0,0-4.276-1.555,7.232,7.232,0,0,0-4.336,1.165c-.938.65-1.278,1.281-1.12,1.449" transform="translate(-50.315 -15.569)" fill="#263238"/>
            <path id="Trazado_914439" data-name="Trazado 914439" d="M200.055,91.1c.022-.168-1.793-.575-4.742-1.1-.749-.115-1.454-.3-1.555-.82a3.841,3.841,0,0,1,.613-2.205l2.509-5.619c3.5-8,6.065-14.6,5.742-14.738s-3.419,6.237-6.914,14.241q-1.266,2.962-2.418,5.658a4.357,4.357,0,0,0-.537,2.933,1.89,1.89,0,0,0,1.182,1.162,5.128,5.128,0,0,0,1.269.241c2.979.309,4.831.414,4.851.248" transform="translate(-44.555 -15.406)" fill="#263238"/>
            <path id="Trazado_914440" data-name="Trazado 914440" d="M230.344,62.785c-.147-.83-2.8-.816-5.8-1.654-3.018-.77-5.345-2.117-5.849-1.461-.228.317.1,1.123.988,2.031a9.352,9.352,0,0,0,4.161,2.338,9.018,9.018,0,0,0,4.715.034c1.194-.351,1.846-.9,1.787-1.289" transform="translate(-50.561 -13.76)" fill="#263238"/>
            <path id="Trazado_914441" data-name="Trazado 914441" d="M191.147,60.011c-.577-.708-3.052-.169-5.976-.323-2.928-.068-5.368-.793-5.982-.131-.271.324.075,1.019,1.116,1.72a9.529,9.529,0,0,0,4.786,1.406,9.379,9.379,0,0,0,4.85-1.04c1.076-.622,1.459-1.289,1.206-1.633" transform="translate(-41.421 -13.71)" fill="#263238"/>
            <path id="Trazado_914442" data-name="Trazado 914442" d="M178.176,36.867S183.83,25.11,189.76,22.6c7.178-3.044,9.814,4.8,16.586,3.265s13.627-4.458,20.2,1.045c7.191,6.023,3.493,9.815,3.532,18.346.158,34.587,5.972,44.654,8.571,28.5.284-1.77,5.3-2.94,6.4-10.424,1.434-9.705,2.4-21.527.565-28.556-1.545-5.925-4.671-10.12-10.414-14.86-9.066-7.481-21.99-8.275-30.816-7.827s-26.26,9.711-26.207,24.787" transform="translate(-41.207 -2.771)" fill="#263238"/>
            <path id="Trazado_914443" data-name="Trazado 914443" d="M254.9,90.131a5.212,5.212,0,0,1,5.869-4.737c3.558.518,7.437,2.746,6.835,10.124-1.071,13.088-13.99,9.315-13.982,8.937.005-.256.782-8.852,1.278-14.324" transform="translate(-58.655 -19.737)" fill="#ffc09d"/>
            <path id="Trazado_914444" data-name="Trazado 914444" d="M257.844,101.046c.061-.037.215.178.587.387a2.28,2.28,0,0,0,1.7.174c1.424-.394,2.767-2.494,3.024-4.848a7.556,7.556,0,0,0-.371-3.316,2.642,2.642,0,0,0-1.572-1.89,1.165,1.165,0,0,0-1.4.514c-.205.352-.144.62-.214.637-.039.03-.263-.243-.114-.775a1.469,1.469,0,0,1,.582-.778,1.727,1.727,0,0,1,1.288-.23,3.216,3.216,0,0,1,2.215,2.224,7.769,7.769,0,0,1,.493,3.712c-.3,2.631-1.852,4.989-3.788,5.38a2.449,2.449,0,0,1-2.057-.517c-.379-.357-.424-.655-.377-.675" transform="translate(-59.629 -21.019)" fill="#ff9b6c"/>
            <path id="Trazado_914445" data-name="Trazado 914445" d="M241.384,46.407c-1.76,1.077-3.618,2.187-5.68,2.288s-4.349-1.194-4.594-3.243c-.11-.92.165-1.968-.4-2.7-.674-.877-2.008-.679-3.113-.617-3.831.215-8.075-4.216-8.862-7.972a3.424,3.424,0,0,1-4.619.72,12.262,12.262,0,0,1-3.02-2.964c-1.086-1.376-2.643-2.635-4.388-2.475-.976.09-1.912.622-2.883.487-1.714-.238-2.455-2.3-2.63-4.017s-.279-3.725-1.691-4.726c-1.308-.928-3.084-.517-4.68-.363s-3.625-.319-3.953-1.889a3.115,3.115,0,0,1,.7-2.348,8.5,8.5,0,0,1,10.182-2.716,11.521,11.521,0,0,1,21.254-1.18,11.692,11.692,0,0,1,18.457,5.185A8.475,8.475,0,0,1,250.4,30.66c2.29,1.463,4.191,3.905,4.105,6.621s-2.864,5.288-5.447,4.444A4.693,4.693,0,0,1,240.721,46" transform="translate(-44.134 -1.425)" fill="#263238"/>
            <path id="Trazado_914446" data-name="Trazado 914446" d="M203.528,21.14a.684.684,0,0,0-.009.24c.01.158.007.4.049.7a8.243,8.243,0,0,0,.826,2.573,9.4,9.4,0,0,0,2.754,3.244,8.746,8.746,0,0,0,5.293,1.8l-.208-.3a4.755,4.755,0,0,0,.083,3.633,13.6,13.6,0,0,0,2.083,3.336,9.815,9.815,0,0,0,1.392,1.577,4.6,4.6,0,0,0,2.039.874,4.792,4.792,0,0,0,4.295-1.3l-.484-.165a9.848,9.848,0,0,0,3.833,7.011,7.179,7.179,0,0,0,4.235,1.624,12.946,12.946,0,0,0,4.288-.72l-.343-.171a10.35,10.35,0,0,0,2.9,4.2,5.508,5.508,0,0,0,4.506,1.471,7.23,7.23,0,0,0,5.841-5.375l-.3.124a6.768,6.768,0,0,0,4.472.886,7.346,7.346,0,0,0,3.211-1.245,6.329,6.329,0,0,0,1.544-1.529,3.082,3.082,0,0,0,.366-.661,7.882,7.882,0,0,1-2.034,2.007,7.282,7.282,0,0,1-3.127,1.112,6.477,6.477,0,0,1-4.216-.909l-.239-.151-.065.275a6.819,6.819,0,0,1-5.522,4.974A5,5,0,0,1,236.9,48.89a9.861,9.861,0,0,1-2.724-3.984l-.091-.248-.252.076a12.532,12.532,0,0,1-4.1.685,6.626,6.626,0,0,1-3.911-1.511A9.316,9.316,0,0,1,222.2,37.3l-.052-.623-.432.46a4.258,4.258,0,0,1-3.793,1.148,4.064,4.064,0,0,1-1.808-.759,9.528,9.528,0,0,1-1.313-1.479,13.263,13.263,0,0,1-2.041-3.194,4.308,4.308,0,0,1-.122-3.29l.123-.307-.331.005a8.43,8.43,0,0,1-5.077-1.643,9.329,9.329,0,0,1-2.743-3.076,10.168,10.168,0,0,1-1.083-3.4" transform="translate(-47.068 -4.889)" fill="#455a64"/>
            <path id="Trazado_914447" data-name="Trazado 914447" d="M208.153,106.9a5.316,5.316,0,0,0-1.49-1.682,5.094,5.094,0,0,0-4.048-.559,8.216,8.216,0,0,0-3.3,1.847c-1.644,1.5-1.265,3.166-.942,6.918,3.715-.48,7.418.518,10.959-.706a8.978,8.978,0,0,0-1.176-5.818" transform="translate(-45.812 -24.163)" fill="#ff9b6c"/>
            <path id="Trazado_914448" data-name="Trazado 914448" d="M199.681,106.551l.053-.029,0,0Z" transform="translate(-46.181 -24.635)" fill="#ff9b6c"/>
            <path id="Trazado_914449" data-name="Trazado 914449" d="M198.452,113.388a14.54,14.54,0,0,1,4.233-.464c1.312-.044,2.866-.06,4.573-.208l.647-.061a4.039,4.039,0,0,0,.6-.084.832.832,0,0,0,.656-.646,3.42,3.42,0,0,0-.032-1.27c-.076-.478-.156-.958-.259-1.433a7.284,7.284,0,0,0-.981-2.564,3.464,3.464,0,0,0-1.946-1.412,6.628,6.628,0,0,0-2.312-.208,8.74,8.74,0,0,0-2.036.336,4.95,4.95,0,0,0-2.467,1.564c-.449.548-.617.926-.68.9-.038-.012.028-.433.429-1.082a4.873,4.873,0,0,1,2.541-1.918,8.737,8.737,0,0,1,2.163-.46,7.06,7.06,0,0,1,2.565.16,4.182,4.182,0,0,1,2.388,1.675,7.821,7.821,0,0,1,1.118,2.841c.108.5.19,1,.264,1.48a4.047,4.047,0,0,1,0,1.584,1.585,1.585,0,0,1-.454.79,1.78,1.78,0,0,1-.766.4,4.431,4.431,0,0,1-.73.094l-.663.048c-1.747.109-3.317.066-4.624.038-2.613-.081-4.221.013-4.236-.1" transform="translate(-45.894 -24.128)" fill="#263238"/>
            <path id="Trazado_914450" data-name="Trazado 914450" d="M225.83,88.862c-.129.2-1.78-.807-4.068-1.065-2.283-.3-4.128.282-4.2.058-.036-.1.385-.377,1.161-.613a8.028,8.028,0,0,1,6.132.747c.7.416,1.038.789.98.873" transform="translate(-50.314 -20.107)" fill="#ff9b6c"/>
            <path id="Trazado_914451" data-name="Trazado 914451" d="M187.739,86.34c-.118.205-1.7-.6-3.819-.746-2.114-.181-3.8.37-3.888.149-.038-.1.344-.369,1.054-.612a7.612,7.612,0,0,1,5.706.441c.664.35,1,.679.948.767" transform="translate(-41.636 -19.606)" fill="#ff9b6c"/>
            <path id="Trazado_914452" data-name="Trazado 914452" d="M202,62.736c-.05-.108.277-.336.676-.78a3.9,3.9,0,0,0,.774-4.211c-.214-.557-.438-.886-.353-.97.067-.073.461.128.854.706a3.616,3.616,0,0,1-.9,4.9c-.572.4-1.012.448-1.049.355" transform="translate(-46.715 -13.127)" fill="#ff9b6c"/>
            <path id="Trazado_914453" data-name="Trazado 914453" d="M209.433,63.362c-.084.059-.4-.2-.738-.753a5.495,5.495,0,0,1-.259-4.892c.275-.589.565-.877.655-.827.206.109-.415,1.485-.3,3.262.075,1.777.837,3.08.643,3.211" transform="translate(-48.1 -13.156)" fill="#ff9b6c"/>
            <path id="Trazado_914454" data-name="Trazado 914454" d="M249.142,24.093a10.761,10.761,0,0,1,.111,2.749,3.533,3.533,0,0,1-.65,2.1,2.763,2.763,0,0,1-1.977.719,9.788,9.788,0,0,1-2.624-.42.481.481,0,0,0-.256.927c1.731.438,4.138.958,5.536-.547a4.259,4.259,0,0,0,.908-2.54,11.677,11.677,0,0,0-.122-3.244c-.1-.609-1.03-.351-.926.255" transform="translate(-56.293 -5.433)" fill="#455a64"/>
            <path id="Trazado_914455" data-name="Trazado 914455" d="M254.861,23.837a11.706,11.706,0,0,0-.121,3.244,4.253,4.253,0,0,0,.907,2.541c1.4,1.5,3.805.985,5.536.547a.481.481,0,0,0-.255-.926,9.762,9.762,0,0,1-2.624.419,2.764,2.764,0,0,1-1.978-.719,3.526,3.526,0,0,1-.65-2.1,10.8,10.8,0,0,1,.111-2.75c.1-.6-.822-.865-.926-.255" transform="translate(-58.9 -5.433)" fill="#455a64"/>
            <path id="Trazado_914456" data-name="Trazado 914456" d="M256.04,41.421a10.726,10.726,0,0,1-.111-2.749,3.533,3.533,0,0,1,.65-2.1,2.761,2.761,0,0,1,1.977-.719,9.788,9.788,0,0,1,2.624.42.481.481,0,0,0,.256-.927c-1.73-.438-4.138-.958-5.536.547a4.259,4.259,0,0,0-.908,2.54,11.648,11.648,0,0,0,.123,3.244c.1.609,1.029.351.926-.255" transform="translate(-58.958 -8.069)" fill="#455a64"/>
            <path id="Trazado_914457" data-name="Trazado 914457" d="M250.321,41.676a11.706,11.706,0,0,0,.121-3.244,4.255,4.255,0,0,0-.907-2.541c-1.4-1.5-3.805-.985-5.536-.547a.481.481,0,0,0,.255.926,9.762,9.762,0,0,1,2.624-.419,2.764,2.764,0,0,1,1.978.719,3.526,3.526,0,0,1,.65,2.1,10.8,10.8,0,0,1-.111,2.75c-.1.6.822.865.926.255" transform="translate(-56.351 -8.069)" fill="#455a64"/>
            <path id="Trazado_914458" data-name="Trazado 914458" d="M205.593,124.923c-.077.1-.543-.191-1.321-.53a9.678,9.678,0,0,0-6.431-.5c-.822.215-1.325.425-1.387.319-.052-.082.363-.478,1.2-.853a7.551,7.551,0,0,1,6.886.535c.769.5,1.118.956,1.054,1.029" transform="translate(-45.433 -28.393)" fill="#ff9b6c"/>
            <path id="Trazado_914459" data-name="Trazado 914459" d="M305.931,178.352s11.793,3.884,20.435,21.664c6.686,13.756,20.659,43.217,20.659,43.217l-41.391,15.158-4.2-17.295Z" transform="translate(-69.713 -41.248)" fill="#2994a3"/>
            <path id="Trazado_914460" data-name="Trazado 914460" d="M264.819,174.315l-41.252-10.087c-21.1,11.247-32.3,11.488-46.935-3.33l-44.938,10.444.9,68.8.792,57.584-9.713,75.235H267.731l-4.217-120.208Z" transform="translate(-28.601 -37.211)" fill="#2994a3"/>
            <path id="Trazado_914461" data-name="Trazado 914461" d="M309.543,384.178a1.9,1.9,0,0,1-.066-.448c-.027-.313-.065-.752-.113-1.321-.083-1.178-.2-2.888-.359-5.084-.277-4.432-.676-10.819-1.169-18.705-.465-7.9-1.018-17.309-1.632-27.75q-.225-3.917-.46-8.022c-.119-2.75-.123-5.536-.19-8.384-.1-5.691-.2-11.583-.3-17.618-.4-24.149-.661-46.01-.755-61.834-.038-7.913-.051-14.316,0-18.742.014-2.212.053-3.931.089-5.1.021-.572.038-1.012.049-1.325a1.9,1.9,0,0,1,.044-.45c.035,2.2.618,39.3,1.374,87.434.1,6.035.2,11.927.288,17.618.061,2.842.059,5.649.17,8.369q.223,4.1.434,8.021c.55,10.442,1.045,19.847,1.461,27.751.386,7.891.7,14.282.915,18.716.09,2.2.16,3.912.208,5.092.015.571.026,1.012.035,1.325a1.9,1.9,0,0,1-.016.453" transform="translate(-70.413 -48.428)" fill="#263238"/>
            <path id="Trazado_914462" data-name="Trazado 914462" d="M122.418,174.4s-8.908,2.171-15.876,12.962-24.122,41.3-24.122,41.3l41.318,22.594Z" transform="translate(-19.061 -40.333)" fill="#2994a3"/>
            <path id="Trazado_914463" data-name="Trazado 914463" d="M123.667,384.178a1.189,1.189,0,0,1,.013-.327c.026-.228.062-.543.108-.953.111-.853.273-2.089.482-3.681l1.923-13.721c1.7-11.7,4.092-28.1,6.839-46.979l0,.064c-.131-6.774-.272-13.992-.417-21.424-.41-24.23-.783-46.161-1.052-62.053-.1-7.929-.173-14.351-.227-18.805-.009-2.209-.017-3.929-.022-5.114.006-.574.012-1.015.015-1.331a1.912,1.912,0,0,1,.032-.454,1.892,1.892,0,0,1,.049.452c.015.314.037.756.065,1.329.039,1.184.1,2.9.171,5.111.114,4.454.278,10.874.482,18.8.329,15.89.784,37.821,1.287,62.048.136,7.434.268,14.651.391,21.425v.033l0,.031c-2.859,18.858-5.344,35.247-7.117,46.939-.914,5.823-1.645,10.475-2.149,13.687-.264,1.585-.468,2.814-.61,3.662-.075.405-.133.717-.174.944a1.185,1.185,0,0,1-.082.317" transform="translate(-28.599 -48.428)" fill="#263238"/>
            <path id="Trazado_914464" data-name="Trazado 914464" d="M214.379,243.025a14.82,14.82,0,0,1-1.987,1.5c-1.308.926-3.223,2.233-5.606,3.823-4.764,3.18-11.42,7.464-18.888,12.008s-14.338,8.484-19.353,11.253c-2.507,1.385-4.548,2.484-5.971,3.219a14.825,14.825,0,0,1-2.249,1.074,14.928,14.928,0,0,1,2.1-1.346l5.843-3.439c4.94-2.892,11.752-6.906,19.216-11.445s14.157-8.742,19-11.8l5.741-3.608a14.811,14.811,0,0,1,2.159-1.243" transform="translate(-37.079 -56.204)" fill="#263238"/>
            <path id="Trazado_914465" data-name="Trazado 914465" d="M206.462,379.025a50.255,50.255,0,1,1,50.256-50.255,50.312,50.312,0,0,1-50.256,50.255m0-99.742a49.487,49.487,0,1,0,49.487,49.487,49.543,49.543,0,0,0-49.487-49.487" transform="translate(-36.126 -64.413)" fill="#ff725e"/>
            <path id="Trazado_914466" data-name="Trazado 914466" d="M253,330.372a44.934,44.934,0,1,1-44.934-44.934A44.934,44.934,0,0,1,253,330.372" transform="translate(-37.727 -66.014)" fill="#ff725e"/>
            <g id="Grupo_1103548" data-name="Grupo 1103548" transform="translate(125.401 219.424)" opacity="0.4">
              <g id="Grupo_1103547" data-name="Grupo 1103547">
                <g id="Grupo_1103546" data-name="Grupo 1103546" clip-path="url(#clip-path-7)">
                  <path id="Trazado_914467" data-name="Trazado 914467" d="M253,330.372a44.934,44.934,0,1,1-44.934-44.934A44.934,44.934,0,0,1,253,330.372" transform="translate(-163.128 -285.437)" fill="#fff"/>
                </g>
              </g>
            </g>
            <path id="Trazado_914468" data-name="Trazado 914468" d="M248.488,332.312A38.485,38.485,0,1,1,210,293.827a38.485,38.485,0,0,1,38.485,38.485" transform="translate(-39.667 -67.954)" fill="#ff725e"/>
            <g id="Grupo_1103551" data-name="Grupo 1103551" transform="translate(131.851 225.873)" opacity="0.3">
              <g id="Grupo_1103550" data-name="Grupo 1103550">
                <g id="Grupo_1103549" data-name="Grupo 1103549" clip-path="url(#clip-path-8)">
                  <path id="Trazado_914469" data-name="Trazado 914469" d="M248.488,332.312A38.485,38.485,0,1,1,210,293.827a38.485,38.485,0,0,1,38.485,38.485" transform="translate(-171.518 -293.827)" fill="#fff"/>
                </g>
              </g>
            </g>
            <path id="Trazado_914470" data-name="Trazado 914470" d="M243.367,334.515A31.162,31.162,0,1,1,212.2,303.353a31.162,31.162,0,0,1,31.162,31.162" transform="translate(-41.87 -70.157)" fill="#ff725e"/>
            <path id="Trazado_914471" data-name="Trazado 914471" d="M243.367,334.515A31.162,31.162,0,1,1,212.2,303.353a31.162,31.162,0,0,1,31.162,31.162" transform="translate(-41.87 -70.157)" fill="#f54749"/>
            <path id="Trazado_914472" data-name="Trazado 914472" d="M234.356,258.213s2.822-19.549,2.476-20.4,8.845,18.866,8.85,19.69,17.748-26.8,17.748-26.8l-2.222,31.2,15.874-3.98-9.6,10.472,15.581,2.209s-15.124,8.182-16.058,8.727l7.958-6.352-12.583-2.33,6.56-7.995-10.525,3.7.294-21.344-13.073,16.222-7.153-11.611Z" transform="translate(-54.2 -53.354)" fill="#f54749"/>
            <path id="Trazado_914473" data-name="Trazado 914473" d="M128.418,385.166l-16.473,9.176,21.34,2.235-6.61,17.729,17.806-13.1s3.919,12.5,4.087,12.238,9.173-9.936,9.173-9.936l-7.79,5.423-5-10.155-11.276,5.44,3.307-9.547-15.561-1.953Z" transform="translate(-25.89 -89.078)" fill="#f54749"/>
            <path id="Trazado_914474" data-name="Trazado 914474" d="M264,400.6l12.426,6.085-.37-10.546,29.548,3.638-17.668-24.655,10.027-2.32-15.523.7,12.488,20.444L272.45,391.98l.185,9.159Z" transform="translate(-61.056 -86.219)" fill="#f54749"/>
            <path id="Trazado_914475" data-name="Trazado 914475" d="M230.948,320.555s-7.679,1-11.8-2.844-9.527-9.653-13.509-10.585-15.073-1.075-15.784-.932c-.55.11-5.555,3.2-7.787,4.595a1.231,1.231,0,0,0-.313,1.806,6.289,6.289,0,0,0,5.54,2.7c4.124-.427,5.839-2.035,5.839-2.035l4.775,1.009a9.151,9.151,0,0,1-4.215,3.585c-2.7,1-12.514,3.076-15.358,2.818s-17.206-.258-19.055,2.444-1,4.266,2.275,4.835,19.766.569,20.619.853-22.752,1.28-27.729,2.987-1.991,4.408-.711,5.688,28.867-.711,28.867-.711-26.876,5.688-27.729,7.394-.284,4.55,3.128,4.55,27.872-3.839,27.872-3.839-22.752,6.968-23.463,8.39a3.018,3.018,0,0,0,1.279,3.839c1.138.427,30.005-4.123,30.005-4.123s21.9-2.275,25.88-5.261,12.514-2.133,12.514-2.133Z" transform="translate(-35.077 -70.803)" fill="#ffc09d"/>
            <path id="Trazado_914476" data-name="Trazado 914476" d="M254.8,310.9s50.628-2.75,55.254-6.168L298.8,276.847l33.957-12.435s10.477,31.072,11.281,43.339-.069,21.069-5.228,25.339c-5.832,4.826-11.953,4.481-20.618,6.148a94.861,94.861,0,0,1-30.033.916l-33.361-4.3V311.773" transform="translate(-58.928 -61.151)" fill="#ffc09d"/>
            <path id="Trazado_914477" data-name="Trazado 914477" d="M347.208,321.847c-.091.106-1.152-.8-3.07-1.906-.481-.274-1.009-.571-1.6-.837-.577-.3-1.228-.543-1.9-.819a24.13,24.13,0,0,0-9.3-1.547c-.728.043-1.423.062-2.066.158-.648.06-1.243.171-1.787.274-2.174.427-3.47.939-3.522.81a9.846,9.846,0,0,1,3.4-1.361,15.656,15.656,0,0,1,1.821-.379A20.648,20.648,0,0,1,331.3,316a22.045,22.045,0,0,1,9.6,1.6,20.636,20.636,0,0,1,1.933.913,15.659,15.659,0,0,1,1.6.948,9.873,9.873,0,0,1,2.774,2.388" transform="translate(-74.922 -73.075)" fill="#ff9b6c"/>
            <path id="Trazado_914478" data-name="Trazado 914478" d="M198.115,343.268A2.9,2.9,0,0,0,195,338.848a44.457,44.457,0,0,1-8,1.23c-5.236.3-11.552-.706-12.932-.323-2.91.808-13.418,6.3-18.267,7.6a21.38,21.38,0,0,1-9.265.281l-12.087,21.428s51.1,27.435,53.684,28.243,11.478,3.557,12.286,1.455a5.917,5.917,0,0,0,0-4.041l-17.459-9.376s23.925,6.628,26.511,6.466,5.174-2.586,2.425-5.011-23.6-9.376-23.6-9.376,26.468,4.133,29.422,3.718c3.293-.462,3.557-4.85,0-6.143s-28.936-6.467-28.451-7.76,24.729-1.388,26.461-3.053c1.7-1.637,2.152-4.706-3.506-6s-26.511.323-29.744-1.778-2.587-7.113-2.587-7.113,9.046.865,12.448-.646c2.91-1.294,4.294-3.232,5.776-5.379" transform="translate(-31.095 -78.345)" fill="#ffc09d"/>
            <path id="Trazado_914479" data-name="Trazado 914479" d="M92.072,296.3l18.755-32.122L78.267,246.375s-8.975,19.984-14.744,32.071-10.988,20.6-4.67,31.318S122.587,350.7,122.587,350.7l12.087-21.428Z" transform="translate(-12.945 -56.98)" fill="#ffc09d"/>
            <path id="Trazado_914480" data-name="Trazado 914480" d="M197.91,399.812c-3.257,0-8.258-1.567-9.974-2.266-2.5-1.018-51.629-27.148-53.719-28.26l.361-.679c.512.272,51.186,27.223,53.648,28.227,3.644,1.482,10.963,3.151,11.8,1.625a2.933,2.933,0,0,0,.121-3.159,2.9,2.9,0,0,0-1.079-.956l-19.376-10.4,3.314.918c8.136,2.254,23.931,6.455,26.291,6.455.035,0,.065,0,.094,0a3.577,3.577,0,0,0,3.152-1.951,2.232,2.232,0,0,0-.957-2.388c-2.659-2.346-23.261-9.231-23.469-9.3l.17-.746s28.127,3.558,29.421,3.718a1.917,1.917,0,0,0,2.18-1.554,3.331,3.331,0,0,0-2.364-3.848c-1.309-.5-5.872-1.57-10.7-2.706-12.26-2.883-17.462-4.232-17.94-5.127a.505.505,0,0,1-.033-.421c.308-.82,3.377-1.118,13.777-1.717,5.235-.3,10.648-.612,12.254-1.082a2.055,2.055,0,0,0,1.443-2.093c-.039-1.305-1.175-2.949-4.245-3.651-2.443-.559-7.756-.566-13.382-.573-7.5-.008-14.578-.018-16.486-1.258-3.4-2.207-2.786-7.27-2.759-7.485l.048-.368.371.035c.09.009,8.986.839,12.255-.615,2.878-1.279,4.208-3.206,5.616-5.246a2.42,2.42,0,0,0-.011-2.8,2.489,2.489,0,0,0-2.693-1.029,45.123,45.123,0,0,1-8.069,1.241,70.191,70.191,0,0,1-8.535-.234,22.259,22.259,0,0,0-4.317-.1,69.532,69.532,0,0,0-6.836,2.906,92.364,92.364,0,0,1-11.435,4.694,21.579,21.579,0,0,1-9.45.284l.171-.75a21.175,21.175,0,0,0,9.08-.277,92.033,92.033,0,0,0,11.313-4.649,69.1,69.1,0,0,1,6.95-2.947,20.238,20.238,0,0,1,4.576.077,69.357,69.357,0,0,0,8.438.233,44.367,44.367,0,0,0,7.929-1.218,3.28,3.28,0,0,1,3.51,1.338,3.168,3.168,0,0,1,.011,3.672c-1.407,2.038-2.861,4.145-5.937,5.512s-10.457.861-12.253.712c-.067,1.159-.055,4.749,2.445,6.374,1.718,1.117,9.342,1.126,16.069,1.134,5.67.008,11.026.014,13.552.592,3.5.8,4.8,2.785,4.842,4.377a2.811,2.811,0,0,1-1.995,2.854c-1.69.494-6.9.794-12.426,1.112-4.872.281-11.409.657-12.885,1.161,1.7.94,10.956,3.116,17.213,4.588,5.067,1.192,9.442,2.22,10.8,2.736a4.128,4.128,0,0,1,2.836,4.751,2.7,2.7,0,0,1-3.02,2.132c-1-.123-17.96-2.269-25.666-3.243,6.118,2.114,18.056,6.387,20.148,8.232,1.522,1.342,1.39,2.59,1.175,3.214a4.309,4.309,0,0,1-3.831,2.468c-2.03.147-16.686-3.766-23.363-5.581l13.355,7.171a3.493,3.493,0,0,1,1.268,5.164c-.393.713-1.444.982-2.794.982" transform="translate(-31.041 -78.23)" fill="#ff9b6c"/>
            <path id="Trazado_914481" data-name="Trazado 914481" d="M98.048,311.036c-.018.25-4.16-.143-9.139.777-4.988.876-8.732,2.689-8.836,2.461-.11-.159,3.567-2.345,8.694-3.249,5.118-.942,9.328-.177,9.28.011" transform="translate(-18.518 -71.825)" fill="#ff9b6c"/>
          </g>
        </g>
      </g>
    </g>
  </g>
</svg>
