<svg xmlns="http://www.w3.org/2000/svg" width="85" height="72.783" viewBox="0 0 85 72.783">
  <g id="Grupo_1103879" data-name="Grupo 1103879" transform="translate(-180 -5083.584)">
    <rect id="Rectángulo_403013" data-name="Rectángulo 403013" width="85" height="72.783" transform="translate(180 5083.584)" fill="#ebf8fa"/>
    <g id="Grupo_1103743" data-name="Grupo 1103743" transform="translate(196.791 5097.781)">
      <path id="Trazado_914990" data-name="Trazado 914990" d="M4.152,3.675A3.675,3.675,0,0,0,7.827,7.35l.861-3.675L7.827,0A3.675,3.675,0,0,0,4.152,3.675Z" fill="#2bb300"/>
      <path id="Trazado_914991" data-name="Trazado 914991" d="M46.819,0V7.35a3.675,3.675,0,1,0,0-7.35Z" transform="translate(-38.992)" fill="#1e8000"/>
      <path id="Trazado_914992" data-name="Trazado 914992" d="M36.152,57.008a3.675,3.675,0,0,0,3.675,3.675l.861-3.675-.861-3.675A3.675,3.675,0,0,0,36.152,57.008Z" transform="translate(-29.244 -48.739)" fill="#b9e600"/>
      <path id="Trazado_914993" data-name="Trazado 914993" d="M78.819,53.333v7.35a3.675,3.675,0,1,0,0-7.35Z" transform="translate(-68.236 -48.739)" fill="#7c0"/>
      <path id="Trazado_914994" data-name="Trazado 914994" d="M89.486,89.008a3.675,3.675,0,0,0,3.675,3.675l.861-3.912-.861-3.438A3.675,3.675,0,0,0,89.486,89.008Z" transform="translate(-77.984 -77.983)" fill="#2bb300"/>
      <path id="Trazado_914995" data-name="Trazado 914995" d="M132.152,85.333v7.35a3.675,3.675,0,1,0,0-7.35Z" transform="translate(-116.975 -77.983)" fill="#1e8000"/>
      <path id="Trazado_914996" data-name="Trazado 914996" d="M110.819,142.342a3.675,3.675,0,0,0,3.675,3.675l.861-3.833-.861-3.517A3.675,3.675,0,0,0,110.819,142.342Z" transform="translate(-97.479 -126.723)" fill="#b9e600"/>
      <path id="Trazado_914997" data-name="Trazado 914997" d="M153.486,138.667v7.35a3.675,3.675,0,1,0,0-7.35Z" transform="translate(-136.471 -126.723)" fill="#7c0"/>
      <path id="Trazado_914998" data-name="Trazado 914998" d="M76.863,185.053a3.675,3.675,0,0,0,3.675,3.675l.861-3.873-.861-3.477A3.675,3.675,0,0,0,76.863,185.053Z" transform="translate(-66.448 -165.755)" fill="#2bb300"/>
      <path id="Trazado_914999" data-name="Trazado 914999" d="M119.53,181.378v7.35a3.675,3.675,0,1,0,0-7.35Z" transform="translate(-105.44 -165.755)" fill="#1e8000"/>
      <path id="Trazado_915000" data-name="Trazado 915000" d="M83.694,238.342a3.675,3.675,0,0,0,3.675,3.675l.861-3.768-.861-3.582A3.675,3.675,0,0,0,83.694,238.342Z" transform="translate(-72.691 -214.454)" fill="#b9e600"/>
      <path id="Trazado_915001" data-name="Trazado 915001" d="M126.361,234.667v7.35a3.675,3.675,0,1,0,0-7.35Z" transform="translate(-111.683 -214.454)" fill="#7c0"/>
      <path id="Trazado_915002" data-name="Trazado 915002" d="M112.694,291.676a3.675,3.675,0,0,0,3.675,3.675l.861-3.969L116.369,288A3.675,3.675,0,0,0,112.694,291.676Z" transform="translate(-99.193 -263.194)" fill="#2bb300"/>
      <path id="Trazado_915003" data-name="Trazado 915003" d="M155.361,288v7.35a3.675,3.675,0,1,0,0-7.35Z" transform="translate(-138.185 -263.193)" fill="#1e8000"/>
      <path id="Trazado_915004" data-name="Trazado 915004" d="M166.028,323.676a3.675,3.675,0,0,0,3.675,3.675l.861-4.206L169.7,320A3.675,3.675,0,0,0,166.028,323.676Z" transform="translate(-147.933 -292.438)" fill="#b9e600"/>
      <path id="Trazado_915005" data-name="Trazado 915005" d="M208.694,320v7.35a3.675,3.675,0,1,0,0-7.35Z" transform="translate(-186.924 -292.437)" fill="#7c0"/>
      <g id="Grupo_1103735" data-name="Grupo 1103735" transform="translate(19.933 32.157)">
        <path id="Trazado_915006" data-name="Trazado 915006" d="M187.361,377.008a3.675,3.675,0,0,0,3.675,3.675l.861-3.89-.861-3.46A3.675,3.675,0,0,0,187.361,377.008Z" transform="translate(-187.361 -373.333)" fill="#2bb300"/>
        <path id="Trazado_915007" data-name="Trazado 915007" d="M230.028,373.333v7.35a3.675,3.675,0,1,0,0-7.35Z" transform="translate(-226.353 -373.333)" fill="#1e8000"/>
      </g>
      <path id="Trazado_915008" data-name="Trazado 915008" d="M166.028,430.341a3.675,3.675,0,0,0,3.675,3.675l.861-3.675-.861-3.675A3.675,3.675,0,0,0,166.028,430.341Z" transform="translate(-147.933 -389.915)" fill="#b9e600"/>
      <path id="Trazado_915009" data-name="Trazado 915009" d="M208.694,426.667v7.35a3.675,3.675,0,1,0,0-7.35Z" transform="translate(-186.924 -389.916)" fill="#7c0"/>
      <g id="Grupo_1103742" data-name="Grupo 1103742" transform="translate(30.557 3.243)">
        <g id="Grupo_1103736" data-name="Grupo 1103736" transform="translate(9.631)">
          <path id="Trazado_915010" data-name="Trazado 915010" d="M422.515,41.326A3.675,3.675,0,0,0,426.19,45l.861-3.89-.861-3.46A3.675,3.675,0,0,0,422.515,41.326Z" transform="translate(-422.515 -37.651)" fill="#2bb300"/>
          <path id="Trazado_915011" data-name="Trazado 915011" d="M465.181,37.651V45a3.675,3.675,0,1,0,0-7.35Z" transform="translate(-461.506 -37.651)" fill="#1e8000"/>
        </g>
        <g id="Grupo_1103737" data-name="Grupo 1103737" transform="translate(5.083 1.516)">
          <path id="Trazado_915012" data-name="Trazado 915012" d="M369.717,58.931a3.675,3.675,0,0,0,3.675,3.675l.861-3.675-.861-3.675A3.675,3.675,0,0,0,369.717,58.931Z" transform="translate(-369.717 -55.256)" fill="#b9e600"/>
          <path id="Trazado_915013" data-name="Trazado 915013" d="M412.384,55.256v7.35a3.675,3.675,0,1,0,0-7.35Z" transform="translate(-408.709 -55.256)" fill="#7c0"/>
        </g>
        <g id="Grupo_1103738" data-name="Grupo 1103738" transform="translate(1.949 4.874)">
          <path id="Trazado_915014" data-name="Trazado 915014" d="M333.331,97.907a3.675,3.675,0,0,0,3.675,3.675l.861-3.89-.861-3.46a3.675,3.675,0,0,0-3.675,3.675Z" transform="translate(-333.331 -94.232)" fill="#2bb300"/>
          <path id="Trazado_915015" data-name="Trazado 915015" d="M376,94.232v7.35a3.675,3.675,0,1,0,0-7.35Z" transform="translate(-372.323 -94.232)" fill="#1e8000"/>
        </g>
        <g id="Grupo_1103739" data-name="Grupo 1103739" transform="translate(0.65 10.071)">
          <path id="Trazado_915016" data-name="Trazado 915016" d="M318.246,158.247a3.675,3.675,0,0,0,3.675,3.675l.861-3.675-.861-3.675A3.675,3.675,0,0,0,318.246,158.247Z" transform="translate(-318.246 -154.572)" fill="#b9e600"/>
          <path id="Trazado_915017" data-name="Trazado 915017" d="M360.913,154.572v7.35a3.675,3.675,0,1,0,0-7.35Z" transform="translate(-357.238 -154.572)" fill="#7c0"/>
        </g>
        <g id="Grupo_1103740" data-name="Grupo 1103740" transform="translate(1.949 15.268)">
          <path id="Trazado_915018" data-name="Trazado 915018" d="M333.331,218.586a3.675,3.675,0,0,0,3.675,3.675l.861-3.89-.861-3.46A3.675,3.675,0,0,0,333.331,218.586Z" transform="translate(-333.331 -214.911)" fill="#2bb300"/>
          <path id="Trazado_915019" data-name="Trazado 915019" d="M376,214.912v7.35a3.675,3.675,0,1,0,0-7.35Z" transform="translate(-372.323 -214.912)" fill="#1e8000"/>
        </g>
        <g id="Grupo_1103741" data-name="Grupo 1103741" transform="translate(0 19.816)">
          <path id="Trazado_915020" data-name="Trazado 915020" d="M310.7,271.384a3.675,3.675,0,0,0,3.675,3.675l.861-3.675-.861-3.675A3.675,3.675,0,0,0,310.7,271.384Z" transform="translate(-310.703 -267.709)" fill="#b9e600"/>
          <path id="Trazado_915021" data-name="Trazado 915021" d="M353.37,267.709v7.35a3.675,3.675,0,1,0,0-7.35Z" transform="translate(-349.695 -267.709)" fill="#7c0"/>
        </g>
      </g>
    </g>
  </g>
</svg>
