<svg xmlns="http://www.w3.org/2000/svg" width="85" height="94" viewBox="0 0 85 94">
  <g id="Grupo_1103875" data-name="Grupo 1103875" transform="translate(-178.866 -434)">
    <rect id="Rectángulo_402996" data-name="Rectángulo 402996" width="85" height="94" transform="translate(178.866 434)" fill="#ebf8fa"/>
    <g id="Grupo_1103723" data-name="Grupo 1103723" transform="translate(189 452.129)">
      <path id="Trazado_914945" data-name="Trazado 914945" d="M41.23,7.317a13.073,13.073,0,0,0-10.8,3.408,13.073,13.073,0,0,0-10.8-3.408C11.521,8.745,6.5,18.657,8.4,29.456s10.013,18.4,18.113,16.967a11.45,11.45,0,0,0,3.909-1.484,11.452,11.452,0,0,0,3.909,1.484c8.1,1.428,16.209-6.168,18.113-16.967S49.329,8.745,41.23,7.317Z" transform="translate(6.95 3.648)" fill="#fc3a52"/>
      <path id="Trazado_914946" data-name="Trazado 914946" d="M20.869,17.588A1.868,1.868,0,0,1,19,15.719V14.427A11.717,11.717,0,0,1,27.891,3.041,1.869,1.869,0,1,1,28.8,6.667a7.984,7.984,0,0,0-6.059,7.76v1.292a1.868,1.868,0,0,1-1.869,1.869Z" transform="translate(16.507 0)" fill="#39e889"/>
      <circle id="Elipse_11528" data-name="Elipse 11528" cx="13.081" cy="13.081" r="13.081" transform="translate(1.869 17.382)" fill="#c4fff9"/>
      <path id="Trazado_914947" data-name="Trazado 914947" d="M14.95,39.59A14.95,14.95,0,1,1,29.9,24.64,14.95,14.95,0,0,1,14.95,39.59Zm0-26.163A11.213,11.213,0,1,0,26.163,24.64,11.213,11.213,0,0,0,14.95,13.428Z" transform="translate(0 5.826)" fill="#53e6d2"/>
      <g id="Grupo_1103722" data-name="Grupo 1103722" transform="translate(7.475 22.991)">
        <path id="Trazado_914948" data-name="Trazado 914948" d="M12.874,23.665a1.871,1.871,0,0,1-1.621-.934L9.1,18.993a1.869,1.869,0,0,1,3.237-1.869l2.157,3.738a1.869,1.869,0,0,1-1.617,2.8Z" transform="translate(0.209 -11.518)" fill="#fc3a52"/>
        <path id="Trazado_914949" data-name="Trazado 914949" d="M5.869,21.165a1.869,1.869,0,0,1-1.321-3.19l3.738-3.738a1.869,1.869,0,1,1,2.643,2.643L7.19,20.618a1.863,1.863,0,0,1-1.321.548Z" transform="translate(-4 -13.69)" fill="#fc3a52"/>
        <circle id="Elipse_11529" data-name="Elipse 11529" cx="1.869" cy="1.869" r="1.869" transform="translate(3.737 11.211)" fill="#fc3a52"/>
      </g>
    </g>
  </g>
</svg>
