<svg xmlns="http://www.w3.org/2000/svg" width="295" height="246" viewBox="0 0 295 246">
  <g id="Grupo_1099000" data-name="Grupo 1099000" transform="translate(-600.256 -404)">
    <rect id="Rect치ngulo_35929" data-name="Rect치ngulo 35929" width="295" height="246" transform="translate(600.256 404)" fill="#ffeed2"/>
    <g id="Grupo_133938" data-name="Grupo 133938" transform="translate(621.477 404.435)">
      <g id="Grupo_131231" data-name="Grupo 131231" transform="translate(0.778 7.566)">
        <path id="Trazado_126381" data-name="Trazado 126381" d="M74.814,292.217s14.25-28.305,51.9-22.886,33.507,30.112,59.573,28.908,54.445-18.67,77.6,15.631c26.859,39.793-19.039,73.636-.809,97.953,32.661,43.568,0,94.922-72.941,85.173-60.493-8.082-61.034-19.425-96.148-5.687S26.944,454.316,39.7,414.6s45.176-24.572,29.985-57.005S74.814,292.217,74.814,292.217Z" transform="translate(-36.834 -268.641)" fill="#fcd189"/>
        <g id="Get_Treathment" data-name="Get Treathment" transform="translate(51 43.332)">
          <path id="Trazado_915126" data-name="Trazado 915126" d="M52.641,33.645V6.05a2.55,2.55,0,0,0-5.1,0V33.645a2.55,2.55,0,0,0,5.1,0Z" transform="translate(67.502 0)" fill="#f1edf0" fill-rule="evenodd"/>
          <path id="Trazado_915127" data-name="Trazado 915127" d="M86.529,70.732V44.744a10.405,10.405,0,0,0-6.707-9.717l-4.744-1.785a11.808,11.808,0,0,1-7.651-11.068V12.38H23.1v9.793a11.833,11.833,0,0,1-7.65,11.068l-4.745,1.786A10.405,10.405,0,0,0,4,44.744V123.09A12.012,12.012,0,0,0,16.012,135.1h19.1Z" transform="translate(0 13.767)" fill="#33b9cb"/>
          <rect id="Rect치ngulo_404472" data-name="Rect치ngulo 404472" width="54.067" height="20.097" rx="1.28" transform="translate(18.231 6.05)" fill="#1f6f7a"/>
          <path id="Trazado_915128" data-name="Trazado 915128" d="M71.334,20.544A3.494,3.494,0,0,0,67.84,17.05H46.418A3.468,3.468,0,0,0,43,20.544V63.492H71.334Z" transform="translate(60.463 21.007)" fill="#f1edf0" fill-rule="evenodd"/>
          <path id="Trazado_915129" data-name="Trazado 915129" d="M58.628,15.081A1.556,1.556,0,0,0,57.046,13.5h-9.36a1.607,1.607,0,0,0-1.607,1.581v7.472H58.628Z" transform="translate(65.238 15.503)" fill="#faf6f9" fill-rule="evenodd"/>
          <path id="Trazado_915130" data-name="Trazado 915130" d="M86.529,47.771V27.19H4V79.957H26.953Z" transform="translate(0 36.728)" fill="#f1edf0"/>
          <path id="Trazado_915131" data-name="Trazado 915131" d="M21.161,35.26H124.7a8.161,8.161,0,0,1,8.161,8.161V91.47a8.161,8.161,0,0,1-8.161,8.161H21.161A8.161,8.161,0,0,1,13,91.47V43.421a8.161,8.161,0,0,1,8.161-8.161" transform="translate(13.953 49.239)" fill="#faf6f9"/>
          <g id="Grupo_1103774" data-name="Grupo 1103774" transform="translate(36.95 96.077)">
            <path id="Trazado_915132" data-name="Trazado 915132" d="M32.987,47.884a8.034,8.034,0,1,1-8.034-8.034,8.034,8.034,0,0,1,8.034,8.034" transform="translate(-16.92 -39.722)" fill="#fc636f"/>
            <path id="Trazado_915133" data-name="Trazado 915133" d="M32.987,57.7a8.034,8.034,0,1,1-8.034-8.034A8.034,8.034,0,0,1,32.987,57.7" transform="translate(-16.92 -24.498)" fill="#fc636f"/>
            <path id="Trazado_915134" data-name="Trazado 915134" d="M43.937,47.961a8.034,8.034,0,1,1-2.325-5.781,8.034,8.034,0,0,1,2.325,5.781" transform="translate(0.057 -39.8)" fill="#fc636f"/>
            <path id="Trazado_915135" data-name="Trazado 915135" d="M43.937,57.7a8.046,8.046,0,1,0-.077,0" transform="translate(0.056 -24.498)" fill="#fc636f"/>
            <path id="Trazado_915136" data-name="Trazado 915136" d="M54.9,47.961a8.034,8.034,0,1,1-2.289-5.745A8.034,8.034,0,0,1,54.9,47.961" transform="translate(17.049 -39.8)" fill="#fc636f"/>
            <path id="Trazado_915137" data-name="Trazado 915137" d="M54.9,57.7a8.011,8.011,0,1,1,.051,0" transform="translate(17.048 -24.498)" fill="#fc636f"/>
            <path id="Trazado_915138" data-name="Trazado 915138" d="M65.847,47.884a8.034,8.034,0,1,1-8.034-8.034,8.034,8.034,0,0,1,8.034,8.034" transform="translate(34.024 -39.722)" fill="#fc636f"/>
            <path id="Trazado_915139" data-name="Trazado 915139" d="M65.847,57.7a8.034,8.034,0,1,1-8.034-8.034A8.034,8.034,0,0,1,65.847,57.7" transform="translate(34.024 -24.498)" fill="#fc636f"/>
          </g>
          <path id="Trazado_915140" data-name="Trazado 915140" d="M64.156,21.65v5.1h-8.7a2.55,2.55,0,0,1,0-5.1Zm0,11.757v5.1H50.18a2.55,2.55,0,1,1,0-5.1Zm0,11.757v5.1h-8.7a2.55,2.55,0,0,1,0-5.1Z" transform="translate(67.641 28.139)" fill="#faf6f9" fill-rule="evenodd"/>
        </g>
      </g>
      <path id="Trazado_126379" data-name="Trazado 126379" d="M3.31.1A2.737,2.737,0,0,0,1.725.136,2.33,2.33,0,0,0,.669,1.258C-.763,4,.305,7.407,1.98,10.006s3.94,4.842,5.179,7.675c1.045,2.393,1.3,5.085,2.439,7.434s3.7,4.4,6.2,3.632c5.6-1.712,3.849-13.368,2.252-17.428C15.805,5.6,9.145,1.207,3.31.1Z" transform="translate(239.263 151.788) rotate(-155)" fill="#fcd189"/>
      <path id="Trazado_126382" data-name="Trazado 126382" d="M3.31.1A2.737,2.737,0,0,0,1.725.136,2.33,2.33,0,0,0,.669,1.258C-.763,4,.305,7.407,1.98,10.006s3.94,4.842,5.179,7.675c1.045,2.393,1.3,5.085,2.439,7.434s3.7,4.4,6.2,3.632c5.6-1.712,3.849-13.368,2.252-17.428C15.805,5.6,9.145,1.207,3.31.1Z" transform="matrix(0.951, 0.309, -0.309, 0.951, 10.983, 83.264)" fill="#fcd189"/>
    </g>
  </g>
</svg>
