<svg xmlns="http://www.w3.org/2000/svg" width="295" height="246" viewBox="0 0 295 246">
  <g id="Grupo_1099000" data-name="Grupo 1099000" transform="translate(-600.256 -404)">
    <rect id="Rectángulo_35929" data-name="Rectángulo 35929" width="295" height="246" transform="translate(600.256 404)" fill="#ffeed2"/>
    <g id="Grupo_133938" data-name="Grupo 133938" transform="translate(621.477 404.435)">
      <g id="Grupo_131231" data-name="Grupo 131231" transform="translate(0.778 7.566)">
        <path id="Trazado_126381" data-name="Trazado 126381" d="M74.814,292.217s14.25-28.305,51.9-22.886,33.507,30.112,59.573,28.908,54.445-18.67,77.6,15.631c26.859,39.793-19.039,73.636-.809,97.953,32.661,43.568,0,94.922-72.941,85.173-60.493-8.082-61.034-19.425-96.148-5.687S26.944,454.316,39.7,414.6s45.176-24.572,29.985-57.005S74.814,292.217,74.814,292.217Z" transform="translate(-36.834 -268.641)" fill="#fcd189"/>
        <g id="Layer_4" transform="translate(20 38.617)">
          <g id="Grupo_1103770" data-name="Grupo 1103770" transform="translate(4 4.57)">
            <g id="Grupo_1103758" data-name="Grupo 1103758" transform="translate(60.308 9.388)">
              <path id="Trazado_915072" data-name="Trazado 915072" d="M35.554,44.386V16.213a5.8,5.8,0,0,1,5.824-5.778h98a5.8,5.8,0,0,1,5.824,5.778v132.9a5.813,5.813,0,0,1-5.824,5.824H37.211Z" transform="translate(-33.316 -8.197)" fill="#f5f9f7"/>
              <path id="Trazado_915073" data-name="Trazado 915073" d="M140.489,158.281H36.114L34.425,45.5V17.32a8.047,8.047,0,0,1,8.062-8.014h98a8.047,8.047,0,0,1,8.062,8.014v132.9A8.072,8.072,0,0,1,140.489,158.281ZM40.526,153.8h99.961a3.586,3.586,0,0,0,3.584-3.582V17.32a3.562,3.562,0,0,0-3.584-3.534h-98A3.562,3.562,0,0,0,38.9,17.32V45.475Z" transform="translate(-34.425 -9.306)" fill="#b6bab9"/>
            </g>
            <g id="Grupo_1103759" data-name="Grupo 1103759" transform="translate(88.321)">
              <path id="Trazado_915074" data-name="Trazado 915074" d="M106.642,27.8H48.557V13.742A9.172,9.172,0,0,1,57.729,4.57H97.47a9.172,9.172,0,0,1,9.172,9.172Z" transform="translate(-48.557 -4.57)" fill="#1f6f7a"/>
            </g>
            <g id="Grupo_1103760" data-name="Grupo 1103760" transform="translate(86.428 47.238)">
              <path id="Trazado_915075" data-name="Trazado 915075" d="M110.305,32.881H49.842a2.24,2.24,0,1,1,0-4.48h60.464a2.24,2.24,0,0,1,0,4.48Z" transform="translate(-47.602 -28.401)" fill="#c2c6c5"/>
            </g>
            <g id="Grupo_1103761" data-name="Grupo 1103761" transform="translate(86.428 65.976)">
              <path id="Trazado_915076" data-name="Trazado 915076" d="M66.332,42.334H49.842a2.24,2.24,0,1,1,0-4.48h16.49a2.24,2.24,0,0,1,0,4.48Z" transform="translate(-47.602 -37.854)" fill="#c2c6c5"/>
            </g>
            <g id="Grupo_1103762" data-name="Grupo 1103762" transform="translate(119.408 65.976)">
              <path id="Trazado_915077" data-name="Trazado 915077" d="M93.963,42.334H66.48a2.24,2.24,0,0,1,0-4.48H93.963a2.24,2.24,0,0,1,0,4.48Z" transform="translate(-64.24 -37.854)" fill="#c2c6c5"/>
            </g>
            <g id="Grupo_1103763" data-name="Grupo 1103763" transform="translate(86.428 103.45)">
              <path id="Trazado_915078" data-name="Trazado 915078" d="M110.305,61.239H49.842a2.24,2.24,0,0,1,0-4.48h60.464a2.24,2.24,0,0,1,0,4.48Z" transform="translate(-47.602 -56.759)" fill="#c2c6c5"/>
            </g>
            <g id="Grupo_1103764" data-name="Grupo 1103764" transform="translate(130.401 84.71)">
              <path id="Trazado_915079" data-name="Trazado 915079" d="M88.516,51.785H72.026a2.24,2.24,0,0,1,0-4.48h16.49a2.24,2.24,0,0,1,0,4.48Z" transform="translate(-69.786 -47.305)" fill="#c2c6c5"/>
            </g>
            <g id="Grupo_1103765" data-name="Grupo 1103765" transform="translate(86.428 84.71)">
              <path id="Trazado_915080" data-name="Trazado 915080" d="M77.325,51.785H49.842a2.24,2.24,0,1,1,0-4.48H77.325a2.24,2.24,0,1,1,0,4.48Z" transform="translate(-47.602 -47.305)" fill="#c2c6c5"/>
            </g>
            <g id="Grupo_1103766" data-name="Grupo 1103766" transform="translate(0.001 45.565)">
              <path id="Trazado_915081" data-name="Trazado 915081" d="M36.706,27.557H71.349a3.953,3.953,0,0,1,3.536,5.721L71.51,40.031A15.808,15.808,0,0,0,69.841,47.1v20.93a8.078,8.078,0,0,0,.91,3.717L84.269,97.206l17.907,33.719a15.8,15.8,0,0,1-13.955,23.243H19.835A15.8,15.8,0,0,1,5.88,130.926L23.788,97.206,37.306,71.749a8.065,8.065,0,0,0,.91-3.717V47.1a15.8,15.8,0,0,0-1.669-7.071l-3.376-6.753A3.951,3.951,0,0,1,36.706,27.557Z" transform="translate(-4.001 -27.557)" fill="#d6f1f4"/>
            </g>
            <g id="Grupo_1103767" data-name="Grupo 1103767" transform="translate(0 109.186)">
              <path id="Trazado_915082" data-name="Trazado 915082" d="M27,59.653l-3.245,6.093L5.877,99.456a15.784,15.784,0,0,0,14.006,23.186H88.172a15.783,15.783,0,0,0,14.006-23.186L92.287,80.94,65.3,81.731A45.228,45.228,0,0,1,35.392,70.414Z" transform="translate(-4 -59.653)" fill="#f54749"/>
            </g>
            <g id="Grupo_1103768" data-name="Grupo 1103768" transform="translate(24.252 131.391)">
              <circle id="Elipse_11532" data-name="Elipse 11532" cx="6.884" cy="6.884" r="6.884" fill="#ffa9c4"/>
            </g>
            <g id="Grupo_1103769" data-name="Grupo 1103769" transform="translate(56.381 140.571)">
              <circle id="Elipse_11533" data-name="Elipse 11533" cx="6.884" cy="6.884" r="6.884" fill="#ffa9c4"/>
            </g>
          </g>
        </g>
      </g>
      <path id="Trazado_126379" data-name="Trazado 126379" d="M3.31.1A2.737,2.737,0,0,0,1.725.136,2.33,2.33,0,0,0,.669,1.258C-.763,4,.305,7.407,1.98,10.006s3.94,4.842,5.179,7.675c1.045,2.393,1.3,5.085,2.439,7.434s3.7,4.4,6.2,3.632c5.6-1.712,3.849-13.368,2.252-17.428C15.805,5.6,9.145,1.207,3.31.1Z" transform="translate(239.263 151.788) rotate(-155)" fill="#fcd189"/>
      <path id="Trazado_126382" data-name="Trazado 126382" d="M3.31.1A2.737,2.737,0,0,0,1.725.136,2.33,2.33,0,0,0,.669,1.258C-.763,4,.305,7.407,1.98,10.006s3.94,4.842,5.179,7.675c1.045,2.393,1.3,5.085,2.439,7.434s3.7,4.4,6.2,3.632c5.6-1.712,3.849-13.368,2.252-17.428C15.805,5.6,9.145,1.207,3.31.1Z" transform="matrix(0.951, 0.309, -0.309, 0.951, 10.983, 83.264)" fill="#fcd189"/>
    </g>
  </g>
</svg>
