<svg xmlns="http://www.w3.org/2000/svg" width="47.67" height="50.319" viewBox="0 0 47.67 50.319">
  <g id="Grupo_1103751" data-name="Grupo 1103751" transform="translate(-6 -5)">
    <path id="Trazado_915044" data-name="Trazado 915044" d="M50.612,55.319A3.072,3.072,0,0,0,53.67,52.26V8.059A3.072,3.072,0,0,0,50.612,5H9.059A3.072,3.072,0,0,0,6,8.059v44.2a3.072,3.072,0,0,0,3.059,3.059ZM8.648,52.26V8.059a.41.41,0,0,1,.41-.41H50.612a.41.41,0,0,1,.41.41v44.2a.41.41,0,0,1-.41.41H9.059a.41.41,0,0,1-.41-.41Z" transform="translate(0)" fill="#2994a3"/>
    <path id="Trazado_915045" data-name="Trazado 915045" d="M21.324,12.648H41.187a1.324,1.324,0,1,0,0-2.648H21.324a1.324,1.324,0,1,0,0,2.648Z" transform="translate(4.538 1.621)" fill="#2994a3"/>
    <path id="Trazado_915046" data-name="Trazado 915046" d="M21.324,17.648H41.187a1.324,1.324,0,1,0,0-2.648H21.324a1.324,1.324,0,0,0,0,2.648Z" transform="translate(4.538 3.242)" fill="#2994a3"/>
    <path id="Trazado_915047" data-name="Trazado 915047" d="M21.324,22.648H31.918a1.324,1.324,0,0,0,0-2.648H21.324a1.324,1.324,0,0,0,0,2.648Z" transform="translate(4.538 4.863)" fill="#2994a3"/>
    <path id="Trazado_915048" data-name="Trazado 915048" d="M21.324,28.648H41.187a1.324,1.324,0,1,0,0-2.648H21.324a1.324,1.324,0,1,0,0,2.648Z" transform="translate(4.538 6.808)" fill="#2994a3"/>
    <path id="Trazado_915049" data-name="Trazado 915049" d="M21.324,33.648H41.187a1.324,1.324,0,1,0,0-2.648H21.324a1.324,1.324,0,1,0,0,2.648Z" transform="translate(4.538 8.429)" fill="#2994a3"/>
    <path id="Trazado_915050" data-name="Trazado 915050" d="M21.324,38.648H31.918a1.324,1.324,0,0,0,0-2.648H21.324a1.324,1.324,0,1,0,0,2.648Z" transform="translate(4.538 10.05)" fill="#2994a3"/>
    <path id="Trazado_915051" data-name="Trazado 915051" d="M12.324,19.269h6.621a1.324,1.324,0,0,0,1.324-1.324V11.324A1.324,1.324,0,0,0,18.945,10H12.324A1.324,1.324,0,0,0,11,11.324v6.621A1.324,1.324,0,0,0,12.324,19.269Zm1.324-6.621h3.973v3.973H13.648Z" transform="translate(1.621 1.621)" fill="#2994a3"/>
    <path id="Trazado_915052" data-name="Trazado 915052" d="M12.324,35.269h6.621a1.324,1.324,0,0,0,1.324-1.324V27.324A1.324,1.324,0,0,0,18.945,26H12.324A1.324,1.324,0,0,0,11,27.324v6.621A1.324,1.324,0,0,0,12.324,35.269Zm1.324-6.621h3.973v3.973H13.648Z" transform="translate(1.621 6.808)" fill="#2994a3"/>
  </g>
</svg>
