<svg xmlns="http://www.w3.org/2000/svg" width="42.628" height="62.264" viewBox="0 0 42.628 62.264">
  <path id="Trazado_915056" data-name="Trazado 915056" d="M122.389,7.819h-8.364V5.9a.973.973,0,0,0-.973-.973h-3.917a7.561,7.561,0,0,0-14.174,0H91.044a.973.973,0,0,0-.973.973v1.92H81.707a.973.973,0,0,0-.973.973v52.5a.973.973,0,0,0,.973.973h40.682a.973.973,0,0,0,.973-.973V8.792a.973.973,0,0,0-.973-.973ZM92.017,6.873h3.657a.973.973,0,0,0,.942-.729,5.614,5.614,0,0,1,10.865,0,.973.973,0,0,0,.942.729h3.657v3.839H92.017Zm29.4,53.446H82.68V9.765h7.391v1.92a.973.973,0,0,0,.973.973h22.009a.973.973,0,0,0,.973-.973V9.765h7.391ZM102.048,3.1a2.735,2.735,0,1,0,2.735,2.735A2.738,2.738,0,0,0,102.048,3.1Zm0,3.525a.79.79,0,1,1,.789-.79A.791.791,0,0,1,102.048,6.623Zm0,32.222A11.979,11.979,0,1,0,90.07,26.867,11.992,11.992,0,0,0,102.048,38.845Zm0-22.012A10.033,10.033,0,1,1,92.015,26.867,10.044,10.044,0,0,1,102.048,16.834ZM98.489,30.426v3.337a.973.973,0,0,0,.973.973h5.172a.973.973,0,0,0,.973-.973V30.426h3.337a.973.973,0,0,0,.973-.973V24.281a.973.973,0,0,0-.973-.973h-3.337V19.97a.973.973,0,0,0-.973-.973H99.462a.973.973,0,0,0-.973.973v3.337H95.152a.973.973,0,0,0-.973.973v5.172a.973.973,0,0,0,.973.973Zm-2.364-5.172h3.337a.973.973,0,0,0,.973-.973V20.943h3.227v3.337a.973.973,0,0,0,.973.973h3.337V28.48h-3.337a.973.973,0,0,0-.973.973V32.79h-3.227V29.453a.973.973,0,0,0-.973-.973H96.125Zm-4.8,17.5h26.48a.973.973,0,1,1,0,1.946H91.329a.973.973,0,0,1,0-1.946Zm-2.384.973a.973.973,0,0,1-.973.973H86.287a.973.973,0,0,1,0-1.946h1.685A.973.973,0,0,1,88.945,43.727Zm29.836,5.855a.973.973,0,0,1-.973.973H91.329a.973.973,0,0,1,0-1.946h26.48A.973.973,0,0,1,118.782,49.582Zm-29.836,0a.973.973,0,0,1-.973.973H86.287a.973.973,0,0,1,0-1.946h1.685A.973.973,0,0,1,88.945,49.582Zm29.836,5.855a.973.973,0,0,1-.973.973H91.329a.973.973,0,0,1,0-1.946h26.48A.973.973,0,0,1,118.782,55.437Zm-29.836,0a.973.973,0,0,1-.973.973H86.287a.973.973,0,0,1,0-1.946h1.685A.973.973,0,0,1,88.945,55.437Z" transform="translate(-80.734)" fill="#2994a3"/>
</svg>
