<svg xmlns="http://www.w3.org/2000/svg" width="54.195" height="51.39" viewBox="0 0 54.195 51.39">
  <g id="Grupo_1103744" data-name="Grupo 1103744" transform="translate(0.499 -13)">
    <path id="Trazado_915022" data-name="Trazado 915022" d="M3.378,36.971a3.377,3.377,0,0,0,3.234-4.35l4.576-2.669,6.926,4.039v8.076l-7.318,4.268a.779.779,0,0,0-.387.673v8.523L5.834,58.2a3.362,3.362,0,1,0,.78,1.349l4.574-2.667,4.544,2.65a3.384,3.384,0,1,0,.786-1.345l-4.551-2.655V47.456l6.926-4.039,6.927,4.039v8.523a.779.779,0,0,0,.387.673l2.473,1.442a.779.779,0,0,0,.785-1.346l-2.086-1.217V47.456L34.3,43.417l6.926,4.039v8.075L34.3,59.57l-1.7-.991a.779.779,0,0,0-.785,1.346l2.091,1.22a.779.779,0,0,0,.785,0l7.7-4.494a.779.779,0,0,0,.387-.673V47.456l4.58-2.671a3.376,3.376,0,1,0,3.126-5.63v-4.2a3.376,3.376,0,1,0-1.558-.049v4.3a3.378,3.378,0,0,0-2.351,4.233l-4.576,2.669-6.926-4.039v-2.22a.779.779,0,0,0-1.558,0v2.22L26.6,46.107l-6.927-4.039V33.991L26.6,29.952l6.927,4.039v2.219a.779.779,0,0,0,1.558,0V33.991L42.4,29.723a.779.779,0,0,0,.387-.673V20.079a.779.779,0,0,0-.387-.673l-7.7-4.494a.779.779,0,0,0-.785,0L31.8,16.145a.779.779,0,0,0,.785,1.346l1.723-1,6.926,4.039V28.6L34.3,32.642,27.378,28.6V20.526l2.062-1.2a.779.779,0,1,0-.785-1.346l-2.449,1.429a.779.779,0,0,0-.387.673V28.6l-6.927,4.039L11.967,28.6v-8.44a3.376,3.376,0,1,0-1.558,0V28.6l-4.58,2.671a3.376,3.376,0,1,0-2.451,5.7Zm0,25.361A1.818,1.818,0,1,1,5.2,60.513,1.82,1.82,0,0,1,3.378,62.331Zm15.584-3.636a1.818,1.818,0,1,1-1.818,1.818A1.82,1.82,0,0,1,18.962,58.695ZM48,31.647a1.818,1.818,0,1,1,1.818,1.818A1.82,1.82,0,0,1,48,31.647Zm1.818,9A1.818,1.818,0,1,1,48,42.464,1.82,1.82,0,0,1,49.819,40.646ZM9.369,16.877a1.818,1.818,0,1,1,1.818,1.818A1.82,1.82,0,0,1,9.369,16.877Zm-5.991,14.9a1.818,1.818,0,1,1-1.818,1.818A1.82,1.82,0,0,1,3.378,31.776Z" transform="translate(0 0)" fill="#2994a3" stroke="#278e9d" stroke-width="1"/>
  </g>
</svg>
