<svg xmlns="http://www.w3.org/2000/svg" width="48.023" height="54.655" viewBox="0 0 48.023 54.655">
  <g id="Grupo_1103752" data-name="Grupo 1103752" transform="translate(-31.062)">
    <path id="Trazado_915057" data-name="Trazado 915057" d="M240.7,16.109l-1.026-.513a1.327,1.327,0,0,1-.738-1.194V11.537a1.871,1.871,0,0,0,1.658-1.856V1.868A1.87,1.87,0,0,0,238.723,0H224.279a1.87,1.87,0,0,0-1.868,1.868V9.681a1.871,1.871,0,0,0,1.658,1.856V14.4a1.327,1.327,0,0,1-.738,1.194l-1.026.513a8.759,8.759,0,0,0-4.868,7.877V50.225a4.435,4.435,0,0,0,4.43,4.43h19.268a4.435,4.435,0,0,0,4.43-4.43V23.986A8.758,8.758,0,0,0,240.7,16.109Zm-7.538,16.4a.8.8,0,0,0-.8.8v13.11H230.32a1.336,1.336,0,0,1-1.334-1.334V27.8a1.336,1.336,0,0,1,1.334-1.334h2.038v3.106a.8.8,0,1,0,1.6,0V26.47h10v8.346h-7.489a.8.8,0,1,0,0,1.6h7.489v1.715h-7.489a.8.8,0,1,0,0,1.6h7.489v6.688h-10V33.312a.8.8,0,0,0-.8-.8ZM224.279,1.6h14.444a.267.267,0,0,1,.267.267V6.632h-1.715V4.116a.8.8,0,1,0-1.6,0V6.632H233.96V4.116a.8.8,0,1,0-1.6,0V6.632h-1.715V4.116a.8.8,0,1,0-1.6,0V6.632h-1.715V4.116a.8.8,0,0,0-1.6,0V6.632h-1.715V1.868a.267.267,0,0,1,.267-.267Zm-.267,6.632H238.99V9.681a.267.267,0,0,1-.267.267H224.279a.267.267,0,0,1-.267-.267Zm17.123,44.821H221.867a2.832,2.832,0,0,1-2.829-2.829V23.986a7.166,7.166,0,0,1,3.983-6.445l1.026-.513A2.92,2.92,0,0,0,225.67,14.4V11.549h11.662V14.4a2.92,2.92,0,0,0,1.623,2.626l1.026.513a7.166,7.166,0,0,1,3.983,6.445v.883H230.32a2.939,2.939,0,0,0-2.936,2.936V45.088a2.939,2.939,0,0,0,2.936,2.936h13.644v2.2A2.832,2.832,0,0,1,241.135,53.054Z" transform="translate(-166.48 0)" fill="#2994a3"/>
    <path id="Trazado_915058" data-name="Trazado 915058" d="M326.957,141.382h3.316a.8.8,0,0,0,0-1.6h-3.316a.8.8,0,1,0,0,1.6Z" transform="translate(-263.593 -124.86)" fill="#2994a3"/>
    <path id="Trazado_915059" data-name="Trazado 915059" d="M46.307,217.438H34a2.939,2.939,0,0,0-2.936,2.936v25.573A2.939,2.939,0,0,0,34,248.882H46.307a2.939,2.939,0,0,0,2.936-2.936v-4.17a.8.8,0,1,0-1.6,0v4.17a1.336,1.336,0,0,1-1.334,1.334H34a1.336,1.336,0,0,1-1.334-1.334V220.374A1.336,1.336,0,0,1,34,219.039H46.307a1.336,1.336,0,0,1,1.334,1.334V238.04a.8.8,0,0,0,1.6,0V220.374A2.939,2.939,0,0,0,46.307,217.438Z" transform="translate(0 -194.227)" fill="#2994a3"/>
    <path id="Trazado_915060" data-name="Trazado 915060" d="M64.584,248.5a2.459,2.459,0,1,0,2.459,2.459A2.461,2.461,0,0,0,64.584,248.5Zm0,3.316a.857.857,0,1,1,.857-.857A.858.858,0,0,1,64.584,251.816Z" transform="translate(-27.747 -221.973)" fill="#2994a3"/>
    <path id="Trazado_915061" data-name="Trazado 915061" d="M126.709,248.5a2.459,2.459,0,1,0,2.459,2.459A2.461,2.461,0,0,0,126.709,248.5Zm0,3.316a.857.857,0,1,1,.857-.857A.858.858,0,0,1,126.709,251.816Z" transform="translate(-83.24 -221.973)" fill="#2994a3"/>
    <path id="Trazado_915062" data-name="Trazado 915062" d="M64.584,310.625a2.459,2.459,0,1,0,2.459,2.459A2.461,2.461,0,0,0,64.584,310.625Zm0,3.316a.857.857,0,1,1,.857-.857A.858.858,0,0,1,64.584,313.941Z" transform="translate(-27.747 -277.466)" fill="#2994a3"/>
    <path id="Trazado_915063" data-name="Trazado 915063" d="M126.709,310.625a2.459,2.459,0,1,0,2.459,2.459A2.461,2.461,0,0,0,126.709,310.625Zm0,3.316a.857.857,0,1,1,.857-.857A.858.858,0,0,1,126.709,313.941Z" transform="translate(-83.24 -277.466)" fill="#2994a3"/>
    <path id="Trazado_915064" data-name="Trazado 915064" d="M64.584,372.75a2.459,2.459,0,1,0,2.459,2.459A2.461,2.461,0,0,0,64.584,372.75Zm0,3.316a.857.857,0,1,1,.857-.857A.858.858,0,0,1,64.584,376.066Z" transform="translate(-27.747 -332.96)" fill="#2994a3"/>
    <path id="Trazado_915065" data-name="Trazado 915065" d="M126.709,372.75a2.459,2.459,0,1,0,2.459,2.459A2.461,2.461,0,0,0,126.709,372.75Zm0,3.316a.857.857,0,1,1,.857-.857A.858.858,0,0,1,126.709,376.066Z" transform="translate(-83.24 -332.96)" fill="#2994a3"/>
    <path id="Trazado_915066" data-name="Trazado 915066" d="M64.584,434.875a2.459,2.459,0,1,0,2.459,2.459A2.461,2.461,0,0,0,64.584,434.875Zm0,3.316a.857.857,0,1,1,.857-.857A.858.858,0,0,1,64.584,438.191Z" transform="translate(-27.747 -388.453)" fill="#2994a3"/>
    <path id="Trazado_915067" data-name="Trazado 915067" d="M126.709,434.875a2.459,2.459,0,1,0,2.459,2.459A2.461,2.461,0,0,0,126.709,434.875Zm0,3.316a.857.857,0,1,1,.857-.857A.858.858,0,0,1,126.709,438.191Z" transform="translate(-83.24 -388.453)" fill="#2994a3"/>
    <path id="Trazado_915068" data-name="Trazado 915068" d="M47.431,0h-12.9a3.473,3.473,0,0,0-3.469,3.469V14.711a3.473,3.473,0,0,0,3.469,3.469h5.59l4.127,2.879a1.068,1.068,0,0,0,1.678-.876v-2h1.5A3.473,3.473,0,0,0,50.9,14.711V9.771a.8.8,0,1,0-1.6,0v4.94a1.87,1.87,0,0,1-1.868,1.868H45.393a1.069,1.069,0,0,0-1.067,1.067v1.514l-3.356-2.342a1.328,1.328,0,0,0-.763-.24H34.531a1.87,1.87,0,0,1-1.868-1.868V3.469A1.87,1.87,0,0,1,34.531,1.6h12.9A1.87,1.87,0,0,1,49.3,3.469V6.035a.8.8,0,1,0,1.6,0V3.469A3.473,3.473,0,0,0,47.431,0Z" transform="translate(0)" fill="#2994a3"/>
    <path id="Trazado_915069" data-name="Trazado 915069" d="M74.541,42.611H76.79a1.336,1.336,0,0,0,1.334-1.334V39.3h1.981a1.336,1.336,0,0,0,1.334-1.334V35.712a1.336,1.336,0,0,0-1.334-1.334H78.124V32.4a1.336,1.336,0,0,0-1.334-1.334H74.541A1.336,1.336,0,0,0,73.207,32.4v1.981H71.225a1.336,1.336,0,0,0-1.334,1.334v2.248a1.336,1.336,0,0,0,1.334,1.334h1.981v1.981A1.336,1.336,0,0,0,74.541,42.611Zm-3.049-4.917V35.979h2.248a1.069,1.069,0,0,0,1.067-1.067V32.663h1.715v2.248a1.069,1.069,0,0,0,1.067,1.067h2.248v1.715H77.59a1.069,1.069,0,0,0-1.067,1.067v2.248H74.808V38.761a1.069,1.069,0,0,0-1.067-1.067H71.492Z" transform="translate(-34.684 -27.746)" fill="#2994a3"/>
    <path id="Trazado_915070" data-name="Trazado 915070" d="M389.082,389.882h4.974a.8.8,0,0,0,0-1.6h-4.974a.8.8,0,1,0,0,1.6Z" transform="translate(-319.086 -346.833)" fill="#2994a3"/>
    <path id="Trazado_915071" data-name="Trazado 915071" d="M390.74,268.949a2.459,2.459,0,1,0-2.459-2.459A2.461,2.461,0,0,0,390.74,268.949Zm0-3.316a.857.857,0,1,1-.857.857A.858.858,0,0,1,390.74,265.633Z" transform="translate(-319.086 -235.847)" fill="#2994a3"/>
  </g>
</svg>
