<svg xmlns="http://www.w3.org/2000/svg" width="388.914" height="234.057" viewBox="0 0 388.914 234.057">
  <g id="Grupo_1103873" data-name="Grupo 1103873" transform="translate(-602.132 -3010.716)">
    <path id="Trazado_876248" data-name="Trazado 876248" d="M-982.249-9181.147v-39.424l39.424-21.824,38.944,21.824v39.424l-38.944,20.423Z" transform="translate(1769.065 12341.267)" fill="none" stroke="#12263f" stroke-width="3"/>
    <path id="Trazado_876256" data-name="Trazado 876256" d="M-982.249-9181.147v-39.424l39.424-21.824,38.944,21.824v39.424l-38.944,20.423Z" transform="translate(1585.881 12403.806)" fill="none" stroke="#12263f" stroke-width="3"/>
    <path id="Trazado_876249" data-name="Trazado 876249" d="M-982.249-9181.147v-39.424l39.424-21.824,38.944,21.824v39.424l-38.944,20.423Z" transform="translate(1847.433 12341.267)" fill="none" stroke="#12263f" stroke-width="3"/>
    <g id="Trazado_915299" data-name="Trazado 915299" transform="translate(802.051 3117.129)" fill="#fff">
      <path d="M 23.5 45.5 C 20.52935981750488 45.5 17.64837074279785 44.91852951049805 14.9370698928833 43.77175140380859 C 12.31750011444092 42.66376113891602 9.964579582214355 41.0772705078125 7.943649768829346 39.05635070800781 C 5.922729969024658 37.03541946411133 4.336239814758301 34.68249893188477 3.228250026702881 32.06293106079102 C 2.081470012664795 29.35162925720215 1.5 26.47064018249512 1.5 23.5 C 1.5 20.52935981750488 2.081470012664795 17.64837074279785 3.228250026702881 14.9370698928833 C 4.336239814758301 12.31750011444092 5.922729969024658 9.964579582214355 7.943649768829346 7.943649768829346 C 9.964579582214355 5.922729969024658 12.31750011444092 4.336239814758301 14.9370698928833 3.228250026702881 C 17.64837074279785 2.081470012664795 20.52935981750488 1.5 23.5 1.5 C 26.47064018249512 1.5 29.35162925720215 2.081470012664795 32.06293106079102 3.228250026702881 C 34.68249893188477 4.336239814758301 37.03541946411133 5.922729969024658 39.05635070800781 7.943649768829346 C 41.0772705078125 9.964579582214355 42.66376113891602 12.31750011444092 43.77175140380859 14.9370698928833 C 44.91852951049805 17.64837074279785 45.5 20.52935981750488 45.5 23.5 C 45.5 26.47064018249512 44.91852951049805 29.35162925720215 43.77175140380859 32.06293106079102 C 42.66376113891602 34.68249893188477 41.0772705078125 37.03541946411133 39.05635070800781 39.05635070800781 C 37.03541946411133 41.0772705078125 34.68249893188477 42.66376113891602 32.06293106079102 43.77175140380859 C 29.35162925720215 44.91852951049805 26.47064018249512 45.5 23.5 45.5 Z" stroke="none"/>
      <path d="M 23.5 3 C 20.73119926452637 3 18.04681015014648 3.541599273681641 15.52140045166016 4.609760284423828 C 13.08063125610352 5.642120361328125 10.88795852661133 7.120658874511719 9.004310607910156 9.004310607910156 C 7.120658874511719 10.88795852661133 5.642120361328125 13.08063125610352 4.609760284423828 15.52140045166016 C 3.541599273681641 18.04681015014648 3 20.73119926452637 3 23.5 C 3 26.26880073547363 3.541599273681641 28.95318984985352 4.609760284423828 31.47859954833984 C 5.642120361328125 33.91936874389648 7.120658874511719 36.11203765869141 9.004310607910156 37.99568939208984 C 10.88795852661133 39.87934112548828 13.08063125610352 41.35787963867188 15.52140045166016 42.39023971557617 C 18.04681015014648 43.45840072631836 20.73119926452637 44 23.5 44 C 26.26880073547363 44 28.95318984985352 43.45840072631836 31.47859954833984 42.39023971557617 C 33.91936874389648 41.35787963867188 36.11203765869141 39.87934112548828 37.99568939208984 37.99568939208984 C 39.87934112548828 36.11203765869141 41.35787963867188 33.91936874389648 42.39023971557617 31.47859954833984 C 43.45840072631836 28.95318984985352 44 26.26880073547363 44 23.5 C 44 20.73119926452637 43.45840072631836 18.04681015014648 42.39023971557617 15.52140045166016 C 41.35787963867188 13.08063125610352 39.87934112548828 10.88795852661133 37.99568939208984 9.004310607910156 C 36.11203765869141 7.120658874511719 33.91936874389648 5.642120361328125 31.47859954833984 4.609760284423828 C 28.95318984985352 3.541599273681641 26.26880073547363 3 23.5 3 M 23.5 0 C 36.47869110107422 0 47 10.52130889892578 47 23.5 C 47 36.47869110107422 36.47869110107422 47 23.5 47 C 10.52130889892578 47 0 36.47869110107422 0 23.5 C 0 10.52130889892578 10.52130889892578 0 23.5 0 Z" stroke="none" fill="#12263f"/>
    </g>
    <g id="Trazado_915300" data-name="Trazado 915300" transform="translate(618.867 3179.668)" fill="#fff">
      <path d="M 23.5 45.5 C 20.52935981750488 45.5 17.64837074279785 44.91852951049805 14.9370698928833 43.77175140380859 C 12.31750011444092 42.66376113891602 9.964579582214355 41.0772705078125 7.943649768829346 39.05635070800781 C 5.922729969024658 37.03541946411133 4.336239814758301 34.68249893188477 3.228250026702881 32.06293106079102 C 2.081470012664795 29.35162925720215 1.5 26.47064018249512 1.5 23.5 C 1.5 20.52935981750488 2.081470012664795 17.64837074279785 3.228250026702881 14.9370698928833 C 4.336239814758301 12.31750011444092 5.922729969024658 9.964579582214355 7.943649768829346 7.943649768829346 C 9.964579582214355 5.922729969024658 12.31750011444092 4.336239814758301 14.9370698928833 3.228250026702881 C 17.64837074279785 2.081470012664795 20.52935981750488 1.5 23.5 1.5 C 26.47064018249512 1.5 29.35162925720215 2.081470012664795 32.06293106079102 3.228250026702881 C 34.68249893188477 4.336239814758301 37.03541946411133 5.922729969024658 39.05635070800781 7.943649768829346 C 41.0772705078125 9.964579582214355 42.66376113891602 12.31750011444092 43.77175140380859 14.9370698928833 C 44.91852951049805 17.64837074279785 45.5 20.52935981750488 45.5 23.5 C 45.5 26.47064018249512 44.91852951049805 29.35162925720215 43.77175140380859 32.06293106079102 C 42.66376113891602 34.68249893188477 41.0772705078125 37.03541946411133 39.05635070800781 39.05635070800781 C 37.03541946411133 41.0772705078125 34.68249893188477 42.66376113891602 32.06293106079102 43.77175140380859 C 29.35162925720215 44.91852951049805 26.47064018249512 45.5 23.5 45.5 Z" stroke="none"/>
      <path d="M 23.5 3 C 20.73119926452637 3 18.04681015014648 3.541599273681641 15.52140045166016 4.609760284423828 C 13.08063125610352 5.642120361328125 10.88795852661133 7.120658874511719 9.004310607910156 9.004310607910156 C 7.120658874511719 10.88795852661133 5.642120361328125 13.08063125610352 4.609760284423828 15.52140045166016 C 3.541599273681641 18.04681015014648 3 20.73119926452637 3 23.5 C 3 26.26880073547363 3.541599273681641 28.95318984985352 4.609760284423828 31.47859954833984 C 5.642120361328125 33.91936874389648 7.120658874511719 36.11203765869141 9.004310607910156 37.99568939208984 C 10.88795852661133 39.87934112548828 13.08063125610352 41.35787963867188 15.52140045166016 42.39023971557617 C 18.04681015014648 43.45840072631836 20.73119926452637 44 23.5 44 C 26.26880073547363 44 28.95318984985352 43.45840072631836 31.47859954833984 42.39023971557617 C 33.91936874389648 41.35787963867188 36.11203765869141 39.87934112548828 37.99568939208984 37.99568939208984 C 39.87934112548828 36.11203765869141 41.35787963867188 33.91936874389648 42.39023971557617 31.47859954833984 C 43.45840072631836 28.95318984985352 44 26.26880073547363 44 23.5 C 44 20.73119926452637 43.45840072631836 18.04681015014648 42.39023971557617 15.52140045166016 C 41.35787963867188 13.08063125610352 39.87934112548828 10.88795852661133 37.99568939208984 9.004310607910156 C 36.11203765869141 7.120658874511719 33.91936874389648 5.642120361328125 31.47859954833984 4.609760284423828 C 28.95318984985352 3.541599273681641 26.26880073547363 3 23.5 3 M 23.5 0 C 36.47869110107422 0 47 10.52130889892578 47 23.5 C 47 36.47869110107422 36.47869110107422 47 23.5 47 C 10.52130889892578 47 0 36.47869110107422 0 23.5 C 0 10.52130889892578 10.52130889892578 0 23.5 0 Z" stroke="none" fill="#12263f"/>
    </g>
    <path id="Trazado_876250" data-name="Trazado 876250" d="M-1220.76-9163.17v25.328" transform="translate(2130.499 12239.069)" fill="none" stroke="#12263f" stroke-width="3"/>
    <path id="Trazado_876260" data-name="Trazado 876260" d="M-1220.76-9163.17v25.328" transform="translate(1912.76 12243.069)" fill="none" stroke="#12263f" stroke-width="3"/>
    <path id="Trazado_876261" data-name="Trazado 876261" d="M-1220.76-9163.17v25.328" transform="translate(1912.76 12194.069)" fill="none" stroke="#12263f" stroke-width="3"/>
    <path id="Trazado_876251" data-name="Trazado 876251" d="M-1220.76-9163.17v25.328" transform="translate(2120.13 12239.069)" fill="none" stroke="#12263f" stroke-width="3"/>
    <path id="Trazado_876259" data-name="Trazado 876259" d="M-1220.76-9163.17v25.328" transform="translate(1902.391 12243.069)" fill="none" stroke="#12263f" stroke-width="3"/>
    <path id="Trazado_876262" data-name="Trazado 876262" d="M-1220.76-9163.17v25.328" transform="translate(1902.391 12194.069)" fill="none" stroke="#12263f" stroke-width="3"/>
    <path id="Trazado_876258" data-name="Trazado 876258" d="M-1220.76-9163.17v25.328" transform="translate(2046.76 12239.069)" fill="none" stroke="#12263f" stroke-width="3"/>
    <path id="Trazado_876253" data-name="Trazado 876253" d="M-1220.76-9163.17v13.48" transform="translate(9936.506 1900.074) rotate(-90)" fill="none" stroke="#12263f" stroke-width="3"/>
    <path id="Trazado_876257" data-name="Trazado 876257" d="M-1220.76-9163.17v23.328" transform="translate(1864.497 12301.608)" fill="none" stroke="#12263f" stroke-width="3"/>
    <path id="Trazado_876255" data-name="Trazado 876255" d="M-1220.76-9139.842v-23.328" transform="translate(2046.681 12342.299)" fill="none" stroke="#12263f" stroke-width="3"/>
    <path id="Trazado_876254" data-name="Trazado 876254" d="M-1220.76-9163.17v23.328" transform="translate(-7317.662 -939.272) rotate(124)" fill="none" stroke="#12263f" stroke-width="3"/>
    <g id="Trazado_915301" data-name="Trazado 915301" transform="translate(895 3047.361)" fill="none">
      <path d="M9.369,0A9.369,9.369,0,1,1,0,9.369,9.369,9.369,0,0,1,9.369,0Z" stroke="none"/>
      <path d="M 9.369011878967285 3.000003814697266 C 5.857131958007812 3.000003814697266 3.000001907348633 5.857133865356445 3.000001907348633 9.369013786315918 C 3.000001907348633 12.88089370727539 5.857131958007812 15.73802375793457 9.369011878967285 15.73802375793457 C 12.88089179992676 15.73802375793457 15.73802185058594 12.88089370727539 15.73802185058594 9.369013786315918 C 15.73802185058594 5.857133865356445 12.88089179992676 3.000003814697266 9.369011878967285 3.000003814697266 M 9.369011878967285 3.814697265625e-06 C 14.54337120056152 3.814697265625e-06 18.73802185058594 4.194653511047363 18.73802185058594 9.369013786315918 C 18.73802185058594 14.54337310791016 14.54337120056152 18.73802375793457 9.369011878967285 18.73802375793457 C 4.19465160369873 18.73802375793457 1.9073486328125e-06 14.54337310791016 1.9073486328125e-06 9.369013786315918 C 1.9073486328125e-06 4.194653511047363 4.19465160369873 3.814697265625e-06 9.369011878967285 3.814697265625e-06 Z" stroke="none" fill="#12263f"/>
    </g>
    <g id="Trazado_915302" data-name="Trazado 915302" transform="translate(934.183 3113.129)" fill="#fff">
      <path d="M 9.369011878967285 17.23802375793457 C 5.030021667480469 17.23802375793457 1.500001907348633 13.70800399780273 1.500001907348633 9.369013786315918 C 1.500001907348633 5.030023574829102 5.030021667480469 1.500003814697266 9.369011878967285 1.500003814697266 C 13.7080020904541 1.500003814697266 17.23802185058594 5.030023574829102 17.23802185058594 9.369013786315918 C 17.23802185058594 13.70800399780273 13.7080020904541 17.23802375793457 9.369011878967285 17.23802375793457 Z" stroke="none"/>
      <path d="M 9.369011878967285 3.000003814697266 C 5.857131958007812 3.000003814697266 3.000001907348633 5.857133865356445 3.000001907348633 9.369013786315918 C 3.000001907348633 12.88089370727539 5.857131958007812 15.73802375793457 9.369011878967285 15.73802375793457 C 12.88089179992676 15.73802375793457 15.73802185058594 12.88089370727539 15.73802185058594 9.369013786315918 C 15.73802185058594 5.857133865356445 12.88089179992676 3.000003814697266 9.369011878967285 3.000003814697266 M 9.369011878967285 3.814697265625e-06 C 14.54337120056152 3.814697265625e-06 18.73802185058594 4.194653511047363 18.73802185058594 9.369013786315918 C 18.73802185058594 14.54337310791016 14.54337120056152 18.73802375793457 9.369011878967285 18.73802375793457 C 4.19465160369873 18.73802375793457 1.9073486328125e-06 14.54337310791016 1.9073486328125e-06 9.369013786315918 C 1.9073486328125e-06 4.194653511047363 4.19465160369873 3.814697265625e-06 9.369011878967285 3.814697265625e-06 Z" stroke="none" fill="#12263f"/>
    </g>
    <path id="Trazado_915303" data-name="Trazado 915303" d="M11.32-4.333a4.673,4.673,0,0,1-.721,2.36A4.35,4.35,0,0,1,8.75-.387a6.3,6.3,0,0,1-2.72.563A5.025,5.025,0,0,1,2.057-1.468,6.786,6.786,0,0,1,.606-6.108v-.633a7.746,7.746,0,0,1,.655-3.292,4.961,4.961,0,0,1,1.885-2.18,5.26,5.26,0,0,1,2.848-.769,5.516,5.516,0,0,1,3.744,1.226,4.844,4.844,0,0,1,1.608,3.379H8.271a2.292,2.292,0,0,0-.589-1.679,2.422,2.422,0,0,0-1.687-.51A1.843,1.843,0,0,0,4.307-9.7a5.536,5.536,0,0,0-.562,2.751v.905A6.125,6.125,0,0,0,4.258-3.12a1.882,1.882,0,0,0,1.771.879,2.369,2.369,0,0,0,1.626-.5,2.126,2.126,0,0,0,.6-1.591Zm11.593-.044H17.631V-6.662h5.282ZM40.676-6.135a7.546,7.546,0,0,1-.694,3.313A5.132,5.132,0,0,1,38.008-.6a5.494,5.494,0,0,1-2.914.778,5.572,5.572,0,0,1-2.9-.751,5.123,5.123,0,0,1-1.973-2.149,7.329,7.329,0,0,1-.743-3.208v-.721a7.58,7.58,0,0,1,.69-3.318,5.119,5.119,0,0,1,1.978-2.219,5.533,5.533,0,0,1,2.931-.782,5.479,5.479,0,0,1,2.9.773A5.211,5.211,0,0,1,39.959-10a7.362,7.362,0,0,1,.716,3.274Zm-3.138-.536a5.381,5.381,0,0,0-.637-2.9,2.044,2.044,0,0,0-1.824-.989q-2.32,0-2.452,3.48l-.009.94a5.535,5.535,0,0,0,.624,2.892,2.041,2.041,0,0,0,1.854,1.011,2.016,2.016,0,0,0,1.8-.993,5.383,5.383,0,0,0,.642-2.856Zm9.483,2.145h-1.67V0H42.267V-12.8H47.3a5.621,5.621,0,0,1,3.56,1.01,3.421,3.421,0,0,1,1.283,2.853A4.155,4.155,0,0,1,51.6-6.721,3.837,3.837,0,0,1,49.913-5.3L52.585-.132V0h-3.3ZM45.352-6.9H47.3a1.751,1.751,0,0,0,1.323-.463,1.788,1.788,0,0,0,.444-1.291,1.809,1.809,0,0,0-.448-1.3,1.735,1.735,0,0,0-1.318-.471H45.352Z" transform="translate(680 3072.688)" fill="#12263f"/>
    <path id="Trazado_915304" data-name="Trazado 915304" d="M11.8-6.135a7.546,7.546,0,0,1-.694,3.313A5.132,5.132,0,0,1,9.136-.6,5.494,5.494,0,0,1,6.223.176a5.572,5.572,0,0,1-2.9-.751A5.123,5.123,0,0,1,1.349-2.725,7.329,7.329,0,0,1,.606-5.933v-.721A7.58,7.58,0,0,1,1.3-9.971,5.119,5.119,0,0,1,3.274-12.19a5.533,5.533,0,0,1,2.931-.782,5.479,5.479,0,0,1,2.9.773A5.211,5.211,0,0,1,11.087-10,7.362,7.362,0,0,1,11.8-6.724ZM8.666-6.671a5.381,5.381,0,0,0-.637-2.9,2.044,2.044,0,0,0-1.824-.989q-2.32,0-2.452,3.48l-.009.94a5.535,5.535,0,0,0,.624,2.892A2.041,2.041,0,0,0,6.223-2.232a2.016,2.016,0,0,0,1.8-.993,5.383,5.383,0,0,0,.642-2.856Z" transform="translate(680 3023.688)" fill="#12263f"/>
    <path id="Trazado_915305" data-name="Trazado 915305" d="M11.32-4.333a4.673,4.673,0,0,1-.721,2.36A4.35,4.35,0,0,1,8.75-.387a6.3,6.3,0,0,1-2.72.563A5.025,5.025,0,0,1,2.057-1.468,6.786,6.786,0,0,1,.606-6.108v-.633a7.746,7.746,0,0,1,.655-3.292,4.961,4.961,0,0,1,1.885-2.18,5.26,5.26,0,0,1,2.848-.769,5.516,5.516,0,0,1,3.744,1.226,4.844,4.844,0,0,1,1.608,3.379H8.271a2.292,2.292,0,0,0-.589-1.679,2.422,2.422,0,0,0-1.687-.51A1.843,1.843,0,0,0,4.307-9.7a5.536,5.536,0,0,0-.562,2.751v.905A6.125,6.125,0,0,0,4.258-3.12a1.882,1.882,0,0,0,1.771.879,2.369,2.369,0,0,0,1.626-.5,2.126,2.126,0,0,0,.6-1.591ZM23.476,0H20.408V-5.344H15.864V0H12.779V-12.8h3.085v5.08h4.544V-12.8h3.067Zm10.7,0h-8.93V-1.934l4.113-4.324a4.909,4.909,0,0,0,1.521-2.751,1.913,1.913,0,0,0-.36-1.257A1.287,1.287,0,0,0,29.47-10.7a1.3,1.3,0,0,0-1.1.576,2.366,2.366,0,0,0-.422,1.437H24.979a4.2,4.2,0,0,1,.589-2.175,4.129,4.129,0,0,1,1.635-1.56,4.856,4.856,0,0,1,2.338-.562,4.777,4.777,0,0,1,3.195.958,3.42,3.42,0,0,1,1.121,2.751A4,4,0,0,1,33.574-7.8,6.456,6.456,0,0,1,32.7-6.3a22.029,22.029,0,0,1-1.912,2.1L29.136-2.285h5.036ZM45.984-4.377H40.7V-6.662h5.282Zm17.279.044a4.673,4.673,0,0,1-.721,2.36,4.35,4.35,0,0,1-1.85,1.586,6.3,6.3,0,0,1-2.72.563A5.025,5.025,0,0,1,54-1.468a6.786,6.786,0,0,1-1.45-4.641v-.633a7.746,7.746,0,0,1,.655-3.292,4.961,4.961,0,0,1,1.885-2.18,5.26,5.26,0,0,1,2.848-.769,5.516,5.516,0,0,1,3.744,1.226A4.844,4.844,0,0,1,63.29-8.376H60.214a2.292,2.292,0,0,0-.589-1.679,2.422,2.422,0,0,0-1.687-.51A1.843,1.843,0,0,0,56.25-9.7a5.536,5.536,0,0,0-.562,2.751v.905A6.126,6.126,0,0,0,56.2-3.12a1.882,1.882,0,0,0,1.771.879,2.369,2.369,0,0,0,1.626-.5,2.126,2.126,0,0,0,.6-1.591ZM75.419,0H72.352V-5.344H67.808V0H64.723V-12.8h3.085v5.08h4.544V-12.8h3.067ZM87.5-4.377H82.222V-6.662H87.5ZM105.117,0H102.05L97.515-7.963V0H94.43V-12.8h3.085l4.526,7.963V-12.8h3.076Zm12.647,0H114.7V-5.344h-4.544V0h-3.085V-12.8h3.085v5.08H114.7V-12.8h3.067ZM129.85-4.377h-5.282V-6.662h5.282Zm17.279.044a4.673,4.673,0,0,1-.721,2.36,4.35,4.35,0,0,1-1.85,1.586,6.3,6.3,0,0,1-2.72.563,5.025,5.025,0,0,1-3.973-1.644,6.786,6.786,0,0,1-1.45-4.641v-.633a7.746,7.746,0,0,1,.655-3.292,4.961,4.961,0,0,1,1.885-2.18,5.26,5.26,0,0,1,2.848-.769,5.516,5.516,0,0,1,3.744,1.226,4.844,4.844,0,0,1,1.608,3.379h-3.076a2.292,2.292,0,0,0-.589-1.679,2.422,2.422,0,0,0-1.687-.51,1.843,1.843,0,0,0-1.687.861,5.536,5.536,0,0,0-.562,2.751v.905a6.126,6.126,0,0,0,.514,2.927,1.882,1.882,0,0,0,1.771.879,2.369,2.369,0,0,0,1.626-.5,2.126,2.126,0,0,0,.6-1.591Z" transform="translate(620.816 3126.438)" fill="#12263f"/>
    <path id="Trazado_915306" data-name="Trazado 915306" d="M5.739-3.457,7.831.8h3.524L7.778-5.549,11.452-12H7.893L5.739-7.667,3.586-12H.035L3.7-5.549.132.8H3.647Z" transform="translate(821 3228.457)" fill="#12263f"/>
    <path id="Trazado_915307" data-name="Trazado 915307" d="M11.32-4.333a4.673,4.673,0,0,1-.721,2.36A4.35,4.35,0,0,1,8.75-.387a6.3,6.3,0,0,1-2.72.563A5.025,5.025,0,0,1,2.057-1.468,6.786,6.786,0,0,1,.606-6.108v-.633a7.746,7.746,0,0,1,.655-3.292,4.961,4.961,0,0,1,1.885-2.18,5.26,5.26,0,0,1,2.848-.769,5.516,5.516,0,0,1,3.744,1.226,4.844,4.844,0,0,1,1.608,3.379H8.271a2.292,2.292,0,0,0-.589-1.679,2.422,2.422,0,0,0-1.687-.51A1.843,1.843,0,0,0,4.307-9.7a5.536,5.536,0,0,0-.562,2.751v.905A6.125,6.125,0,0,0,4.258-3.12a1.882,1.882,0,0,0,1.771.879,2.369,2.369,0,0,0,1.626-.5,2.126,2.126,0,0,0,.6-1.591ZM23.476,0H20.408V-5.344H15.864V0H12.779V-12.8h3.085v5.08h4.544V-12.8h3.067ZM26.5,1.545h.815A.847.847,0,0,0,28.279.6a.82.82,0,0,0-.231-.6A.875.875,0,0,0,27.4-.239a.937.937,0,0,0-.6.2.61.61,0,0,0-.254.5H24.819a1.769,1.769,0,0,1,.328-1.051,2.167,2.167,0,0,1,.91-.72,3.111,3.111,0,0,1,1.279-.259A3.057,3.057,0,0,1,29.294-1,1.892,1.892,0,0,1,30.007.561a1.577,1.577,0,0,1-.295.91,2.1,2.1,0,0,1-.859.695,2.007,2.007,0,0,1,.933.654A1.721,1.721,0,0,1,30.125,3.9a1.926,1.926,0,0,1-.769,1.6,3.192,3.192,0,0,1-2.02.6,3.31,3.31,0,0,1-1.361-.279,2.133,2.133,0,0,1-.951-.774A2.013,2.013,0,0,1,24.7,3.924h1.738a.778.778,0,0,0,.277.595.977.977,0,0,0,.682.251,1.024,1.024,0,0,0,.728-.254.848.848,0,0,0,.272-.649.992.992,0,0,0-.282-.8,1.179,1.179,0,0,0-.779-.236H26.5Z" transform="translate(960.921 3190.129)" fill="#12263f"/>
  </g>
</svg>
