<svg xmlns="http://www.w3.org/2000/svg" width="505" height="267.022" viewBox="0 0 505 267.022">
  <g id="Grupo_1103875" data-name="Grupo 1103875" transform="translate(-810 -4447)">
    <path id="Trazado_915319" data-name="Trazado 915319" d="M10,0H495a10,10,0,0,1,10,10V257.022a10,10,0,0,1-10,10H10a10,10,0,0,1-10-10V10A10,10,0,0,1,10,0Z" transform="translate(810 4447)" fill="#ebf8fa"/>
    <path id="Trazado_915320" data-name="Trazado 915320" d="M9.945-3.789A4.025,4.025,0,0,1,8.59-.9,4.76,4.76,0,0,1,5.367.156,4.28,4.28,0,0,1,1.926-1.316,6.038,6.038,0,0,1,.672-5.359v-.7A6.819,6.819,0,0,1,1.25-8.945,4.332,4.332,0,0,1,2.9-10.863a4.629,4.629,0,0,1,2.5-.668A4.637,4.637,0,0,1,8.57-10.477,4.326,4.326,0,0,1,9.961-7.516H7.617A2.376,2.376,0,0,0,7-9.113a2.271,2.271,0,0,0-1.605-.5,1.991,1.991,0,0,0-1.754.84,4.707,4.707,0,0,0-.6,2.605V-5.3a5.038,5.038,0,0,0,.559,2.7,1.954,1.954,0,0,0,1.762.852,2.314,2.314,0,0,0,1.621-.5A2.241,2.241,0,0,0,7.6-3.789ZM15.227.156A4.15,4.15,0,0,1,12.2-.984a4.054,4.054,0,0,1-1.168-3.039v-.219a5.106,5.106,0,0,1,.492-2.277,3.612,3.612,0,0,1,1.395-1.547,3.914,3.914,0,0,1,2.059-.543,3.508,3.508,0,0,1,2.73,1.094,4.444,4.444,0,0,1,1,3.1v.922H13.32a2.1,2.1,0,0,0,.66,1.328,2,2,0,0,0,1.395.5,2.437,2.437,0,0,0,2.039-.945l1.109,1.242A3.389,3.389,0,0,1,17.148-.246,4.511,4.511,0,0,1,15.227.156Zm-.258-6.945a1.411,1.411,0,0,0-1.09.455,2.357,2.357,0,0,0-.535,1.3h3.141v-.181a1.681,1.681,0,0,0-.406-1.165A1.456,1.456,0,0,0,14.969-6.789ZM24.883,0a2.507,2.507,0,0,1-.227-.758,2.732,2.732,0,0,1-2.133.914,3,3,0,0,1-2.059-.719,2.312,2.312,0,0,1-.816-1.812,2.389,2.389,0,0,1,1-2.062,4.915,4.915,0,0,1,2.879-.727h1.039v-.484a1.393,1.393,0,0,0-.3-.937,1.183,1.183,0,0,0-.949-.352,1.345,1.345,0,0,0-.895.273.929.929,0,0,0-.324.75H19.836a2.268,2.268,0,0,1,.453-1.359,3,3,0,0,1,1.281-.98,4.669,4.669,0,0,1,1.859-.355,3.689,3.689,0,0,1,2.48.785,2.747,2.747,0,0,1,.918,2.207v3.664a4.041,4.041,0,0,0,.336,1.82V0ZM23.016-1.57a1.945,1.945,0,0,0,.922-.223,1.462,1.462,0,0,0,.625-.6V-3.844h-.844q-1.7,0-1.8,1.172l-.008.133a.9.9,0,0,0,.3.7A1.153,1.153,0,0,0,23.016-1.57Zm10.3-4.766A6.134,6.134,0,0,0,32.5-6.4a1.654,1.654,0,0,0-1.68.867V0H28.563V-8.453H30.7l.063,1.008a2.092,2.092,0,0,1,1.883-1.164,2.366,2.366,0,0,1,.7.1ZM39.063,0a2.507,2.507,0,0,1-.227-.758A2.732,2.732,0,0,1,36.7.156a3,3,0,0,1-2.059-.719,2.312,2.312,0,0,1-.816-1.812,2.389,2.389,0,0,1,1-2.062A4.915,4.915,0,0,1,37.7-5.164h1.039v-.484a1.393,1.393,0,0,0-.3-.937,1.183,1.183,0,0,0-.949-.352,1.345,1.345,0,0,0-.895.273.929.929,0,0,0-.324.75H34.016a2.268,2.268,0,0,1,.453-1.359,3,3,0,0,1,1.281-.98,4.669,4.669,0,0,1,1.859-.355,3.689,3.689,0,0,1,2.48.785,2.747,2.747,0,0,1,.918,2.207v3.664a4.041,4.041,0,0,0,.336,1.82V0ZM37.2-1.57a1.945,1.945,0,0,0,.922-.223,1.462,1.462,0,0,0,.625-.6V-3.844H37.9q-1.7,0-1.8,1.172l-.008.133a.9.9,0,0,0,.3.7A1.153,1.153,0,0,0,37.2-1.57ZM45.125,0H42.859V-12h2.266Zm5.75.156A4.15,4.15,0,0,1,47.848-.984,4.054,4.054,0,0,1,46.68-4.023v-.219a5.106,5.106,0,0,1,.492-2.277,3.612,3.612,0,0,1,1.395-1.547,3.914,3.914,0,0,1,2.059-.543,3.508,3.508,0,0,1,2.73,1.094,4.444,4.444,0,0,1,1,3.1v.922H48.969a2.1,2.1,0,0,0,.66,1.328,2,2,0,0,0,1.395.5,2.437,2.437,0,0,0,2.039-.945l1.109,1.242A3.389,3.389,0,0,1,52.8-.246,4.511,4.511,0,0,1,50.875.156Zm-.258-6.945a1.411,1.411,0,0,0-1.09.455,2.357,2.357,0,0,0-.535,1.3h3.141v-.181a1.681,1.681,0,0,0-.406-1.165A1.456,1.456,0,0,0,50.617-6.789Zm7.094-1.664.07.977a2.951,2.951,0,0,1,2.43-1.133,2.453,2.453,0,0,1,2,.789,3.682,3.682,0,0,1,.672,2.359V0H60.625V-5.419a1.47,1.47,0,0,0-.312-1.045,1.4,1.4,0,0,0-1.039-.325,1.553,1.553,0,0,0-1.43.814V0H55.586V-8.453ZM64.242-4.3a5.013,5.013,0,0,1,.484-2.242A3.546,3.546,0,0,1,66.121-8.07a4.069,4.069,0,0,1,2.113-.539,3.849,3.849,0,0,1,2.793,1.047,4.2,4.2,0,0,1,1.207,2.844l.016.578A4.418,4.418,0,0,1,71.164-1.02,3.775,3.775,0,0,1,68.25.156a3.793,3.793,0,0,1-2.918-1.172A4.5,4.5,0,0,1,64.242-4.2Zm2.258.16A3.16,3.16,0,0,0,66.953-2.3a1.5,1.5,0,0,0,1.3.638,1.5,1.5,0,0,0,1.281-.63,3.457,3.457,0,0,0,.461-2.015,3.128,3.128,0,0,0-.461-1.831,1.5,1.5,0,0,0-1.3-.649,1.474,1.474,0,0,0-1.281.646A3.516,3.516,0,0,0,66.5-4.144Zm9.219-4.309.07.977a2.951,2.951,0,0,1,2.43-1.133,2.453,2.453,0,0,1,2,.789,3.682,3.682,0,0,1,.672,2.359V0H78.633V-5.419a1.47,1.47,0,0,0-.312-1.045,1.4,1.4,0,0,0-1.039-.325,1.553,1.553,0,0,0-1.43.814V0H73.594V-8.453ZM87.5,0a2.507,2.507,0,0,1-.227-.758,2.732,2.732,0,0,1-2.133.914,3,3,0,0,1-2.059-.719,2.312,2.312,0,0,1-.816-1.812,2.389,2.389,0,0,1,1-2.062,4.915,4.915,0,0,1,2.879-.727H87.18v-.484a1.393,1.393,0,0,0-.3-.937,1.183,1.183,0,0,0-.949-.352,1.345,1.345,0,0,0-.895.273.929.929,0,0,0-.324.75H82.453a2.268,2.268,0,0,1,.453-1.359,3,3,0,0,1,1.281-.98,4.669,4.669,0,0,1,1.859-.355,3.689,3.689,0,0,1,2.48.785,2.747,2.747,0,0,1,.918,2.207v3.664a4.041,4.041,0,0,0,.336,1.82V0ZM85.633-1.57a1.945,1.945,0,0,0,.922-.223,1.462,1.462,0,0,0,.625-.6V-3.844h-.844q-1.7,0-1.8,1.172l-.008.133a.9.9,0,0,0,.3.7A1.153,1.153,0,0,0,85.633-1.57ZM98.32-3.2l1.563-5.258H102.3l-3.4,9.766-.187.445a2.577,2.577,0,0,1-2.5,1.656,3.552,3.552,0,0,1-1-.148V1.555l.344.008a1.857,1.857,0,0,0,.957-.2,1.283,1.283,0,0,0,.5-.648l.266-.7L94.32-8.453h2.43Zm13.438.859a.727.727,0,0,0-.41-.652,4.659,4.659,0,0,0-1.316-.426q-3.016-.633-3.016-2.562a2.323,2.323,0,0,1,.934-1.879,3.766,3.766,0,0,1,2.441-.754,4.053,4.053,0,0,1,2.574.758,2.388,2.388,0,0,1,.965,1.969h-2.258a1.092,1.092,0,0,0-.312-.8A1.322,1.322,0,0,0,110.383-7a1.351,1.351,0,0,0-.883.258.814.814,0,0,0-.312.656.7.7,0,0,0,.355.605,3.657,3.657,0,0,0,1.2.4,9.8,9.8,0,0,1,1.422.379,2.336,2.336,0,0,1,1.789,2.273,2.2,2.2,0,0,1-.992,1.871A4.28,4.28,0,0,1,110.4.156a4.47,4.47,0,0,1-1.887-.379,3.166,3.166,0,0,1-1.293-1.039,2.414,2.414,0,0,1-.469-1.426h2.141a1.179,1.179,0,0,0,.445.922,1.766,1.766,0,0,0,1.109.32,1.635,1.635,0,0,0,.98-.246A.766.766,0,0,0,111.758-2.336Zm8.711,1.477A2.831,2.831,0,0,1,118.156.156a2.67,2.67,0,0,1-2.074-.781,3.335,3.335,0,0,1-.73-2.289V-8.453h2.258v5.467q0,1.322,1.2,1.322a1.63,1.63,0,0,0,1.578-.8V-8.453h2.266V0h-2.125Zm8.469-1.477a.727.727,0,0,0-.41-.652,4.659,4.659,0,0,0-1.316-.426Q124.2-4.047,124.2-5.977a2.323,2.323,0,0,1,.934-1.879,3.766,3.766,0,0,1,2.441-.754,4.053,4.053,0,0,1,2.574.758,2.388,2.388,0,0,1,.965,1.969h-2.258a1.092,1.092,0,0,0-.312-.8A1.322,1.322,0,0,0,127.563-7a1.351,1.351,0,0,0-.883.258.814.814,0,0,0-.312.656.7.7,0,0,0,.355.605,3.657,3.657,0,0,0,1.2.4,9.8,9.8,0,0,1,1.422.379,2.336,2.336,0,0,1,1.789,2.273,2.205,2.205,0,0,1-.992,1.871,4.28,4.28,0,0,1-2.562.715,4.47,4.47,0,0,1-1.887-.379A3.166,3.166,0,0,1,124.4-1.262a2.414,2.414,0,0,1-.469-1.426h2.141a1.179,1.179,0,0,0,.445.922,1.766,1.766,0,0,0,1.109.32,1.635,1.635,0,0,0,.98-.246A.766.766,0,0,0,128.938-2.336Zm7.281-1.953a5.094,5.094,0,0,1,.887-3.148,2.877,2.877,0,0,1,2.426-1.172,2.589,2.589,0,0,1,2.039.922V-12h2.266V0H141.8l-.109-.9A2.657,2.657,0,0,1,139.516.156a2.869,2.869,0,0,1-2.395-1.176A5.258,5.258,0,0,1,136.219-4.289Zm2.258.161a3.355,3.355,0,0,0,.414,1.829,1.348,1.348,0,0,0,1.2.636,1.51,1.51,0,0,0,1.477-.887V-5.9a1.489,1.489,0,0,0-1.461-.887Q138.477-6.789,138.477-4.128Zm11,4.285a4.15,4.15,0,0,1-3.027-1.141,4.054,4.054,0,0,1-1.168-3.039v-.219a5.106,5.106,0,0,1,.492-2.277,3.612,3.612,0,0,1,1.395-1.547,3.914,3.914,0,0,1,2.059-.543,3.508,3.508,0,0,1,2.73,1.094,4.444,4.444,0,0,1,1,3.1v.922H147.57a2.1,2.1,0,0,0,.66,1.328,2,2,0,0,0,1.395.5,2.437,2.437,0,0,0,2.039-.945l1.109,1.242A3.389,3.389,0,0,1,151.4-.246,4.511,4.511,0,0,1,149.477.156Zm-.258-6.945a1.411,1.411,0,0,0-1.09.455,2.357,2.357,0,0,0-.535,1.3h3.141v-.181a1.681,1.681,0,0,0-.406-1.165A1.456,1.456,0,0,0,149.219-6.789Zm9.766.453a6.134,6.134,0,0,0-.812-.062,1.654,1.654,0,0,0-1.68.867V0h-2.258V-8.453h2.133l.063,1.008a2.092,2.092,0,0,1,1.883-1.164,2.366,2.366,0,0,1,.7.1ZM162.453,0h-2.266V-8.453h2.266Zm-2.4-10.641a1.112,1.112,0,0,1,.34-.836,1.277,1.277,0,0,1,.926-.328,1.28,1.28,0,0,1,.922.328,1.105,1.105,0,0,1,.344.836,1.109,1.109,0,0,1-.348.844,1.283,1.283,0,0,1-.918.328A1.283,1.283,0,0,1,160.4-9.8,1.109,1.109,0,0,1,160.055-10.641Zm7.422,7.883,1.57-5.7h2.359L168.555,0H166.4l-2.852-8.453h2.359ZM177.18,0a2.507,2.507,0,0,1-.227-.758,2.732,2.732,0,0,1-2.133.914,3,3,0,0,1-2.059-.719,2.312,2.312,0,0,1-.816-1.812,2.389,2.389,0,0,1,1-2.062,4.915,4.915,0,0,1,2.879-.727h1.039v-.484a1.393,1.393,0,0,0-.3-.937,1.183,1.183,0,0,0-.949-.352,1.345,1.345,0,0,0-.895.273.929.929,0,0,0-.324.75h-2.258a2.268,2.268,0,0,1,.453-1.359,3,3,0,0,1,1.281-.98,4.669,4.669,0,0,1,1.859-.355,3.689,3.689,0,0,1,2.48.785,2.747,2.747,0,0,1,.918,2.207v3.664a4.041,4.041,0,0,0,.336,1.82V0Zm-1.867-1.57a1.945,1.945,0,0,0,.922-.223,1.462,1.462,0,0,0,.625-.6V-3.844h-.844q-1.7,0-1.8,1.172l-.008.133a.9.9,0,0,0,.3.7A1.153,1.153,0,0,0,175.313-1.57Zm5.2-2.719a5.094,5.094,0,0,1,.887-3.148,2.877,2.877,0,0,1,2.426-1.172,2.589,2.589,0,0,1,2.039.922V-12h2.266V0h-2.039l-.109-.9A2.657,2.657,0,0,1,183.8.156,2.869,2.869,0,0,1,181.41-1.02,5.258,5.258,0,0,1,180.508-4.289Zm2.258.161A3.355,3.355,0,0,0,183.18-2.3a1.348,1.348,0,0,0,1.2.636,1.51,1.51,0,0,0,1.477-.887V-5.9a1.489,1.489,0,0,0-1.461-.887Q182.766-6.789,182.766-4.128Zm6.758-.176a5.013,5.013,0,0,1,.484-2.242A3.546,3.546,0,0,1,191.4-8.07a4.069,4.069,0,0,1,2.113-.539,3.849,3.849,0,0,1,2.793,1.047,4.2,4.2,0,0,1,1.207,2.844l.016.578a4.418,4.418,0,0,1-1.086,3.121A3.775,3.775,0,0,1,193.531.156a3.793,3.793,0,0,1-2.918-1.172,4.5,4.5,0,0,1-1.09-3.187Zm2.258.16a3.16,3.16,0,0,0,.453,1.843,1.5,1.5,0,0,0,1.3.638,1.5,1.5,0,0,0,1.281-.63,3.457,3.457,0,0,0,.461-2.015,3.128,3.128,0,0,0-.461-1.831,1.5,1.5,0,0,0-1.3-.649,1.474,1.474,0,0,0-1.281.646A3.516,3.516,0,0,0,191.781-4.144ZM203.5-2.336a.727.727,0,0,0-.41-.652,4.659,4.659,0,0,0-1.316-.426q-3.016-.633-3.016-2.562a2.323,2.323,0,0,1,.934-1.879,3.766,3.766,0,0,1,2.441-.754,4.053,4.053,0,0,1,2.574.758,2.388,2.388,0,0,1,.965,1.969h-2.258a1.092,1.092,0,0,0-.312-.8A1.322,1.322,0,0,0,202.125-7a1.351,1.351,0,0,0-.883.258.814.814,0,0,0-.312.656.7.7,0,0,0,.355.605,3.657,3.657,0,0,0,1.2.4,9.8,9.8,0,0,1,1.422.379A2.336,2.336,0,0,1,205.7-2.43,2.205,2.205,0,0,1,204.7-.559a4.28,4.28,0,0,1-2.562.715,4.47,4.47,0,0,1-1.887-.379,3.166,3.166,0,0,1-1.293-1.039,2.414,2.414,0,0,1-.469-1.426h2.141a1.179,1.179,0,0,0,.445.922,1.766,1.766,0,0,0,1.109.32,1.635,1.635,0,0,0,.98-.246A.766.766,0,0,0,203.5-2.336Zm15.242-1.812a5.07,5.07,0,0,1-.887,3.129A2.843,2.843,0,0,1,215.461.156a2.633,2.633,0,0,1-2.07-.891V3.25h-2.258v-11.7h2.094l.078.828a2.654,2.654,0,0,1,2.141-.984,2.862,2.862,0,0,1,2.43,1.156,5.207,5.207,0,0,1,.867,3.188Zm-2.258-.172a3.345,3.345,0,0,0-.418-1.826,1.36,1.36,0,0,0-1.215-.643,1.478,1.478,0,0,0-1.461.815V-2.5a1.5,1.5,0,0,0,1.477.839Q216.484-1.664,216.484-4.321Zm8.406-2.015a6.134,6.134,0,0,0-.812-.062,1.654,1.654,0,0,0-1.68.867V0h-2.258V-8.453h2.133l.063,1.008a2.092,2.092,0,0,1,1.883-1.164,2.366,2.366,0,0,1,.7.1Zm.453,2.031a5.013,5.013,0,0,1,.484-2.242,3.546,3.546,0,0,1,1.395-1.523,4.069,4.069,0,0,1,2.113-.539,3.849,3.849,0,0,1,2.793,1.047,4.2,4.2,0,0,1,1.207,2.844l.016.578a4.418,4.418,0,0,1-1.086,3.121A3.775,3.775,0,0,1,229.352.156a3.793,3.793,0,0,1-2.918-1.172,4.5,4.5,0,0,1-1.09-3.187Zm2.258.16a3.16,3.16,0,0,0,.453,1.843,1.5,1.5,0,0,0,1.3.638,1.5,1.5,0,0,0,1.281-.63,3.457,3.457,0,0,0,.461-2.015,3.128,3.128,0,0,0-.461-1.831,1.5,1.5,0,0,0-1.3-.649,1.474,1.474,0,0,0-1.281.646A3.516,3.516,0,0,0,227.6-4.144Zm6.789-.145a5.094,5.094,0,0,1,.887-3.148A2.877,2.877,0,0,1,237.7-8.609a2.589,2.589,0,0,1,2.039.922V-12h2.266V0h-2.039l-.109-.9A2.657,2.657,0,0,1,237.688.156a2.869,2.869,0,0,1-2.395-1.176A5.258,5.258,0,0,1,234.391-4.289Zm2.258.161a3.355,3.355,0,0,0,.414,1.829,1.348,1.348,0,0,0,1.2.636,1.51,1.51,0,0,0,1.477-.887V-5.9a1.489,1.489,0,0,0-1.461-.887Q236.648-6.789,236.648-4.128ZM248.82-.859A2.831,2.831,0,0,1,246.508.156a2.67,2.67,0,0,1-2.074-.781,3.335,3.335,0,0,1-.73-2.289V-8.453h2.258v5.467q0,1.322,1.2,1.322a1.63,1.63,0,0,0,1.578-.8V-8.453h2.266V0h-2.125Zm7.406-.8a1.481,1.481,0,0,0,1.016-.344,1.2,1.2,0,0,0,.406-.914h2.117a2.9,2.9,0,0,1-.469,1.574,3.093,3.093,0,0,1-1.262,1.109,3.949,3.949,0,0,1-1.77.395A3.67,3.67,0,0,1,253.406-1a4.56,4.56,0,0,1-1.047-3.184v-.148A4.508,4.508,0,0,1,253.4-7.445a3.627,3.627,0,0,1,2.852-1.164,3.555,3.555,0,0,1,2.543.9,3.2,3.2,0,0,1,.973,2.4h-2.117a1.551,1.551,0,0,0-.406-1.072,1.354,1.354,0,0,0-1.031-.412,1.36,1.36,0,0,0-1.191.575,3.333,3.333,0,0,0-.4,1.866v.235a3.375,3.375,0,0,0,.4,1.878A1.377,1.377,0,0,0,256.227-1.664ZM263.438,0h-2.266V-8.453h2.266Zm-2.4-10.641a1.112,1.112,0,0,1,.34-.836,1.277,1.277,0,0,1,.926-.328,1.28,1.28,0,0,1,.922.328,1.105,1.105,0,0,1,.344.836,1.108,1.108,0,0,1-.348.844,1.283,1.283,0,0,1-.918.328,1.283,1.283,0,0,1-.918-.328A1.108,1.108,0,0,1,261.039-10.641Zm3.906,6.352a5.094,5.094,0,0,1,.887-3.148,2.877,2.877,0,0,1,2.426-1.172,2.589,2.589,0,0,1,2.039.922V-12h2.266V0h-2.039l-.109-.9A2.657,2.657,0,0,1,268.242.156a2.869,2.869,0,0,1-2.395-1.176A5.258,5.258,0,0,1,264.945-4.289Zm2.258.161a3.355,3.355,0,0,0,.414,1.829,1.348,1.348,0,0,0,1.2.636,1.51,1.51,0,0,0,1.477-.887V-5.9a1.489,1.489,0,0,0-1.461-.887Q267.2-6.789,267.2-4.128Zm6.758-.176a5.013,5.013,0,0,1,.484-2.242A3.546,3.546,0,0,1,275.84-8.07a4.069,4.069,0,0,1,2.113-.539,3.849,3.849,0,0,1,2.793,1.047,4.2,4.2,0,0,1,1.207,2.844l.016.578a4.418,4.418,0,0,1-1.086,3.121A3.775,3.775,0,0,1,277.969.156a3.793,3.793,0,0,1-2.918-1.172,4.5,4.5,0,0,1-1.09-3.187Zm2.258.16a3.16,3.16,0,0,0,.453,1.843,1.5,1.5,0,0,0,1.3.638,1.5,1.5,0,0,0,1.281-.63,3.458,3.458,0,0,0,.461-2.015,3.128,3.128,0,0,0-.461-1.831,1.5,1.5,0,0,0-1.3-.649,1.474,1.474,0,0,0-1.281.646A3.516,3.516,0,0,0,276.219-4.144Zm11.719,1.808a.727.727,0,0,0-.41-.652,4.659,4.659,0,0,0-1.316-.426Q283.2-4.047,283.2-5.977a2.323,2.323,0,0,1,.934-1.879,3.766,3.766,0,0,1,2.441-.754,4.053,4.053,0,0,1,2.574.758,2.388,2.388,0,0,1,.965,1.969h-2.258a1.092,1.092,0,0,0-.312-.8A1.322,1.322,0,0,0,286.563-7a1.351,1.351,0,0,0-.883.258.814.814,0,0,0-.312.656.7.7,0,0,0,.355.605,3.657,3.657,0,0,0,1.2.4,9.8,9.8,0,0,1,1.422.379,2.336,2.336,0,0,1,1.789,2.273,2.2,2.2,0,0,1-.992,1.871,4.28,4.28,0,0,1-2.562.715,4.47,4.47,0,0,1-1.887-.379A3.166,3.166,0,0,1,283.4-1.262a2.414,2.414,0,0,1-.469-1.426h2.141a1.179,1.179,0,0,0,.445.922,1.766,1.766,0,0,0,1.109.32,1.635,1.635,0,0,0,.98-.246A.766.766,0,0,0,287.938-2.336ZM303.18-4.148a5.07,5.07,0,0,1-.887,3.129A2.843,2.843,0,0,1,299.9.156a2.633,2.633,0,0,1-2.07-.891V3.25H295.57v-11.7h2.094l.078.828a2.654,2.654,0,0,1,2.141-.984,2.862,2.862,0,0,1,2.43,1.156,5.207,5.207,0,0,1,.867,3.188Zm-2.258-.172a3.345,3.345,0,0,0-.418-1.826,1.36,1.36,0,0,0-1.215-.643,1.478,1.478,0,0,0-1.461.815V-2.5a1.5,1.5,0,0,0,1.477.839Q300.922-1.664,300.922-4.321Zm3.3.016a5.013,5.013,0,0,1,.484-2.242,3.546,3.546,0,0,1,1.395-1.523,4.069,4.069,0,0,1,2.113-.539,3.849,3.849,0,0,1,2.793,1.047,4.2,4.2,0,0,1,1.207,2.844l.016.578a4.418,4.418,0,0,1-1.086,3.121A3.775,3.775,0,0,1,308.234.156a3.793,3.793,0,0,1-2.918-1.172,4.5,4.5,0,0,1-1.09-3.187Zm2.258.16a3.16,3.16,0,0,0,.453,1.843,1.5,1.5,0,0,0,1.3.638,1.5,1.5,0,0,0,1.281-.63,3.458,3.458,0,0,0,.461-2.015,3.128,3.128,0,0,0-.461-1.831,1.5,1.5,0,0,0-1.3-.649,1.474,1.474,0,0,0-1.281.646A3.516,3.516,0,0,0,306.484-4.144Zm11.891-2.192a6.134,6.134,0,0,0-.812-.062,1.654,1.654,0,0,0-1.68.867V0h-2.258V-8.453h2.133l.063,1.008A2.092,2.092,0,0,1,317.7-8.609a2.366,2.366,0,0,1,.7.1Zm12.063,1.688h-4.5V0h-2.344V-11.375H331v1.9h-5.062v2.938h4.5ZM337.1-.859A2.831,2.831,0,0,1,334.789.156a2.67,2.67,0,0,1-2.074-.781,3.335,3.335,0,0,1-.73-2.289V-8.453h2.258v5.467q0,1.322,1.2,1.322a1.63,1.63,0,0,0,1.578-.8V-8.453h2.266V0h-2.125Zm8.469-1.477a.727.727,0,0,0-.41-.652,4.659,4.659,0,0,0-1.316-.426q-3.016-.633-3.016-2.562a2.323,2.323,0,0,1,.934-1.879,3.766,3.766,0,0,1,2.441-.754,4.053,4.053,0,0,1,2.574.758,2.388,2.388,0,0,1,.965,1.969h-2.258a1.092,1.092,0,0,0-.312-.8A1.322,1.322,0,0,0,344.2-7a1.351,1.351,0,0,0-.883.258.814.814,0,0,0-.312.656.7.7,0,0,0,.355.605,3.657,3.657,0,0,0,1.2.4,9.8,9.8,0,0,1,1.422.379,2.336,2.336,0,0,1,1.789,2.273,2.2,2.2,0,0,1-.992,1.871,4.28,4.28,0,0,1-2.562.715,4.47,4.47,0,0,1-1.887-.379,3.166,3.166,0,0,1-1.293-1.039,2.414,2.414,0,0,1-.469-1.426H342.7a1.179,1.179,0,0,0,.445.922,1.766,1.766,0,0,0,1.109.32,1.635,1.635,0,0,0,.98-.246A.766.766,0,0,0,345.57-2.336ZM354.117,0a2.508,2.508,0,0,1-.227-.758,2.732,2.732,0,0,1-2.133.914A3,3,0,0,1,349.7-.562a2.312,2.312,0,0,1-.816-1.812,2.389,2.389,0,0,1,1-2.062,4.915,4.915,0,0,1,2.879-.727H353.8v-.484a1.393,1.393,0,0,0-.3-.937,1.183,1.183,0,0,0-.949-.352,1.345,1.345,0,0,0-.895.273.929.929,0,0,0-.324.75H349.07a2.268,2.268,0,0,1,.453-1.359,3,3,0,0,1,1.281-.98,4.669,4.669,0,0,1,1.859-.355,3.689,3.689,0,0,1,2.48.785,2.747,2.747,0,0,1,.918,2.207v3.664a4.041,4.041,0,0,0,.336,1.82V0ZM352.25-1.57a1.945,1.945,0,0,0,.922-.223,1.462,1.462,0,0,0,.625-.6V-3.844h-.844q-1.7,0-1.8,1.172l-.008.133a.9.9,0,0,0,.3.7A1.153,1.153,0,0,0,352.25-1.57Zm10.3-4.766a6.134,6.134,0,0,0-.812-.062,1.654,1.654,0,0,0-1.68.867V0H357.8V-8.453h2.133l.063,1.008a2.092,2.092,0,0,1,1.883-1.164,2.366,2.366,0,0,1,.7.1ZM366.016,0H363.75V-8.453h2.266Zm-2.4-10.641a1.112,1.112,0,0,1,.34-.836,1.277,1.277,0,0,1,.926-.328,1.28,1.28,0,0,1,.922.328,1.105,1.105,0,0,1,.344.836,1.108,1.108,0,0,1-.348.844,1.283,1.283,0,0,1-.918.328,1.283,1.283,0,0,1-.918-.328A1.108,1.108,0,0,1,363.617-10.641Zm9.32,9.781A2.831,2.831,0,0,1,370.625.156a2.67,2.67,0,0,1-2.074-.781,3.335,3.335,0,0,1-.73-2.289V-8.453h2.258v5.467q0,1.322,1.2,1.322a1.63,1.63,0,0,0,1.578-.8V-8.453h2.266V0H373Zm6.008-7.594.07.945a2.971,2.971,0,0,1,2.43-1.1,2.255,2.255,0,0,1,2.242,1.289,2.9,2.9,0,0,1,2.539-1.289,2.521,2.521,0,0,1,2.047.8,3.681,3.681,0,0,1,.672,2.41V0H386.68V-5.4a1.616,1.616,0,0,0-.281-1.053,1.245,1.245,0,0,0-.992-.333A1.409,1.409,0,0,0,384-5.818L384.008,0H381.75V-5.4a1.6,1.6,0,0,0-.289-1.065,1.257,1.257,0,0,0-.984-.329,1.463,1.463,0,0,0-1.391.8V0h-2.258V-8.453Zm20.3,6.117a.727.727,0,0,0-.41-.652,4.659,4.659,0,0,0-1.316-.426Q394.5-4.047,394.5-5.977a2.323,2.323,0,0,1,.934-1.879,3.766,3.766,0,0,1,2.441-.754,4.053,4.053,0,0,1,2.574.758,2.388,2.388,0,0,1,.965,1.969h-2.258a1.092,1.092,0,0,0-.312-.8A1.322,1.322,0,0,0,397.867-7a1.351,1.351,0,0,0-.883.258.814.814,0,0,0-.312.656.7.7,0,0,0,.355.605,3.657,3.657,0,0,0,1.2.4,9.8,9.8,0,0,1,1.422.379,2.336,2.336,0,0,1,1.789,2.273,2.2,2.2,0,0,1-.992,1.871,4.28,4.28,0,0,1-2.562.715A4.47,4.47,0,0,1,396-.223,3.166,3.166,0,0,1,394.7-1.262a2.414,2.414,0,0,1-.469-1.426h2.141a1.179,1.179,0,0,0,.445.922,1.766,1.766,0,0,0,1.109.32,1.635,1.635,0,0,0,.98-.246A.766.766,0,0,0,399.242-2.336ZM410.5-4.148a5.07,5.07,0,0,1-.887,3.129A2.843,2.843,0,0,1,407.219.156a2.633,2.633,0,0,1-2.07-.891V3.25h-2.258v-11.7h2.094l.078.828a2.654,2.654,0,0,1,2.141-.984,2.862,2.862,0,0,1,2.43,1.156,5.207,5.207,0,0,1,.867,3.188Zm-2.258-.172a3.345,3.345,0,0,0-.418-1.826,1.36,1.36,0,0,0-1.215-.643,1.478,1.478,0,0,0-1.461.815V-2.5a1.5,1.5,0,0,0,1.477.839Q408.242-1.664,408.242-4.321Zm3.773,3.211a1.137,1.137,0,0,1,.363-.875,1.289,1.289,0,0,1,.91-.336,1.3,1.3,0,0,1,.918.336,1.137,1.137,0,0,1,.363.875,1.121,1.121,0,0,1-.359.863,1.305,1.305,0,0,1-.922.332,1.294,1.294,0,0,1-.914-.332A1.121,1.121,0,0,1,412.016-1.109Z" transform="translate(872.758 4474)" fill="#12263f"/>
    <path id="Trazado_876256" data-name="Trazado 876256" d="M-982.249-9181.147v-39.424l39.424-21.824,38.944,21.824v39.424l-38.944,20.423Z" transform="translate(1896.905 13787.74)" fill="none" stroke="#12263f" stroke-width="3"/>
    <path id="Trazado_876275" data-name="Trazado 876275" d="M-982.249-9220.571l39.424-21.824,38.944,21.824v39.424l38.59,20.96v42.309l-42.59,20.77-34.944-20.77-39.424,20.77-40.735-20.77v-42.309l-39.231-20.96v-39.424l39.231-21.824Z" transform="translate(2055.537 13787.74)" fill="none" stroke="#12263f" stroke-width="3"/>
    <path id="Trazado_876261" data-name="Trazado 876261" d="M-1220.76-9163.17v25.328" transform="translate(2258.416 13685.214)" fill="none" stroke="#12263f" stroke-width="3"/>
    <path id="Trazado_876281" data-name="Trazado 876281" d="M-1220.76-9163.17v25.328" transform="translate(2333.416 13685.214)" fill="none" stroke="#12263f" stroke-width="3"/>
    <path id="Trazado_876277" data-name="Trazado 876277" d="M-1220.76-9163.17v25.328" transform="translate(2174.6 13790.186)" fill="none" stroke="#12263f" stroke-width="3"/>
    <path id="Trazado_876262" data-name="Trazado 876262" d="M-1220.76-9163.17v25.328" transform="translate(2248.047 13685.214)" fill="none" stroke="#12263f" stroke-width="3"/>
    <path id="Trazado_915321" data-name="Trazado 915321" d="M11.32-4.333a4.673,4.673,0,0,1-.721,2.36A4.35,4.35,0,0,1,8.75-.387a6.3,6.3,0,0,1-2.72.563A5.025,5.025,0,0,1,2.057-1.468,6.786,6.786,0,0,1,.606-6.108v-.633a7.746,7.746,0,0,1,.655-3.292,4.961,4.961,0,0,1,1.885-2.18,5.26,5.26,0,0,1,2.848-.769,5.516,5.516,0,0,1,3.744,1.226,4.844,4.844,0,0,1,1.608,3.379H8.271a2.292,2.292,0,0,0-.589-1.679,2.422,2.422,0,0,0-1.687-.51A1.843,1.843,0,0,0,4.307-9.7a5.536,5.536,0,0,0-.562,2.751v.905A6.125,6.125,0,0,0,4.258-3.12a1.882,1.882,0,0,0,1.771.879,2.369,2.369,0,0,0,1.626-.5,2.126,2.126,0,0,0,.6-1.591Z" transform="translate(1025.656 4514.833)" fill="#12263f"/>
    <path id="Trazado_915322" data-name="Trazado 915322" d="M11.32-4.333a4.673,4.673,0,0,1-.721,2.36A4.35,4.35,0,0,1,8.75-.387a6.3,6.3,0,0,1-2.72.563A5.025,5.025,0,0,1,2.057-1.468,6.786,6.786,0,0,1,.606-6.108v-.633a7.746,7.746,0,0,1,.655-3.292,4.961,4.961,0,0,1,1.885-2.18,5.26,5.26,0,0,1,2.848-.769,5.516,5.516,0,0,1,3.744,1.226,4.844,4.844,0,0,1,1.608,3.379H8.271a2.292,2.292,0,0,0-.589-1.679,2.422,2.422,0,0,0-1.687-.51A1.843,1.843,0,0,0,4.307-9.7a5.536,5.536,0,0,0-.562,2.751v.905A6.125,6.125,0,0,0,4.258-3.12a1.882,1.882,0,0,0,1.771.879,2.369,2.369,0,0,0,1.626-.5,2.126,2.126,0,0,0,.6-1.591ZM14.186-.571h.659a2.317,2.317,0,0,0,1.406-.4,1.2,1.2,0,0,0,.519-1,1.321,1.321,0,0,0-.47-1.071,1.978,1.978,0,0,0-1.305-.392,2.116,2.116,0,0,0-1.332.41,1.3,1.3,0,0,0-.532,1.08h-.466a1.689,1.689,0,0,1,.664-1.377,2.569,2.569,0,0,1,1.666-.535,2.472,2.472,0,0,1,1.648.509,1.741,1.741,0,0,1,.6,1.4,1.459,1.459,0,0,1-.352.935,2.016,2.016,0,0,1-1.011.636,2.106,2.106,0,0,1,1.143.616,1.569,1.569,0,0,1,.387,1.074,1.746,1.746,0,0,1-.65,1.417,2.621,2.621,0,0,1-1.723.537,2.846,2.846,0,0,1-1.806-.559,1.756,1.756,0,0,1-.716-1.449h.475A1.388,1.388,0,0,0,13.562,2.4a2.317,2.317,0,0,0,1.477.45,2.161,2.161,0,0,0,1.4-.405,1.366,1.366,0,0,0,.5-1.12q0-1.472-2.224-1.472h-.527Z" transform="translate(1105.656 4514.833)" fill="#12263f"/>
    <path id="Trazado_876271" data-name="Trazado 876271" d="M-1249.03-9163.17l28.27,15.465" transform="translate(2200.686 13717.169)" fill="none" stroke="#12263f" stroke-width="3"/>
    <path id="Trazado_876272" data-name="Trazado 876272" d="M-1220.76-9163.17l-28.27,15.465" transform="translate(2203.87 13764.349)" fill="none" stroke="#12263f" stroke-width="3"/>
    <path id="Trazado_876273" data-name="Trazado 876273" d="M-1249.03-9163.17v25.182" transform="translate(2171.6 13736.899)" fill="none" stroke="#12263f" stroke-width="3"/>
    <path id="Trazado_876276" data-name="Trazado 876276" d="M-1249.03-9163.17v25.182" transform="translate(2288.686 13796.899)" fill="none" stroke="#12263f" stroke-width="3"/>
    <path id="Trazado_876278" data-name="Trazado 876278" d="M0,23.328V0" transform="translate(1151.986 4606.252) rotate(-124)" fill="none" stroke="#12263f" stroke-width="3"/>
    <path id="Trazado_876279" data-name="Trazado 876279" d="M0,0V23.328" transform="translate(1209.326 4680.298) rotate(124)" fill="none" stroke="#12263f" stroke-width="3"/>
    <path id="Trazado_876280" data-name="Trazado 876280" d="M0,23.328V0" transform="translate(915.378 4607.911) rotate(56)" fill="none" stroke="#12263f" stroke-width="3"/>
    <path id="Trazado_915323" data-name="Trazado 915323" d="M9.026-5.1H4.052V0H.967V-12.8H9.527v2.382H4.052v2.944H9.026Zm6.539,8.271H10.793V2.794l2.549-2.6A7.086,7.086,0,0,0,14.361-1a1.808,1.808,0,0,0,.325-.96,1.4,1.4,0,0,0-.431-1.079,1.823,1.823,0,0,0-1.283-.4,1.991,1.991,0,0,0-1.4.459,1.565,1.565,0,0,0-.5,1.21H10.6a1.924,1.924,0,0,1,.664-1.5,2.468,2.468,0,0,1,1.709-.593,2.332,2.332,0,0,1,1.6.519,1.754,1.754,0,0,1,.584,1.38,3.053,3.053,0,0,1-.993,1.907l-.58.615L11.382,2.751h4.184Z" transform="translate(1174.657 4591.729)" fill="#12263f"/>
    <path id="Trazado_915324" data-name="Trazado 915324" d="M5.722-4.526H4.052V0H.967V-12.8H6a5.621,5.621,0,0,1,3.56,1.01,3.421,3.421,0,0,1,1.283,2.853,4.155,4.155,0,0,1-.541,2.213A3.837,3.837,0,0,1,8.613-5.3L11.285-.132V0H7.98ZM4.052-6.9H6a1.751,1.751,0,0,0,1.323-.463A1.788,1.788,0,0,0,7.77-8.653a1.809,1.809,0,0,0-.448-1.3A1.735,1.735,0,0,0,6-10.424H4.052ZM17.464,3.173H12.691V2.794L15.24.193A7.086,7.086,0,0,0,16.26-1a1.808,1.808,0,0,0,.325-.96,1.4,1.4,0,0,0-.431-1.079,1.823,1.823,0,0,0-1.283-.4,1.991,1.991,0,0,0-1.4.459,1.565,1.565,0,0,0-.5,1.21H12.5a1.924,1.924,0,0,1,.664-1.5,2.468,2.468,0,0,1,1.709-.593,2.332,2.332,0,0,1,1.6.519,1.754,1.754,0,0,1,.584,1.38,3.053,3.053,0,0,1-.993,1.907l-.58.615L13.28,2.751h4.184Z" transform="translate(945.792 4673.298)" fill="#12263f"/>
    <g id="Grupo_1103096" data-name="Grupo 1103096" transform="translate(-85.344 51.089)">
      <text id="F" transform="translate(1300 4638.209)" fill="#12263f" font-size="18" font-family="Roboto-Black, Roboto" font-weight="800"><tspan x="0" y="0">F</tspan></text>
      <text id="_1" data-name="1" transform="translate(1310.051 4644)" fill="#12263f" font-size="12" font-family="Roboto-Black, Roboto" font-weight="800"><tspan x="0" y="0">1</tspan></text>
    </g>
    <g id="Grupo_1103097" data-name="Grupo 1103097" transform="translate(873.656 4610.957)">
      <text id="H" transform="translate(7.051 19)" fill="#12263f" font-size="18" font-family="Roboto-Black, Roboto" font-weight="800"><tspan x="0" y="0">H</tspan></text>
    </g>
  </g>
</svg>
