<svg xmlns="http://www.w3.org/2000/svg" width="505" height="267.022" viewBox="0 0 505 267.022">
  <g id="Grupo_1103874" data-name="Grupo 1103874" transform="translate(-285 -4447)">
    <path id="Trazado_915318" data-name="Trazado 915318" d="M10,0H495a10,10,0,0,1,10,10V257.022a10,10,0,0,1-10,10H10a10,10,0,0,1-10-10V10A10,10,0,0,1,10,0Z" transform="translate(285 4447)" fill="#ebf8fa"/>
    <path id="Trazado_915317" data-name="Trazado 915317" d="M9.578-9.477H6.094V0H3.75V-9.477H.313v-1.9H9.578Zm5.43,3.141A6.134,6.134,0,0,0,14.2-6.4a1.654,1.654,0,0,0-1.68.867V0H10.258V-8.453h2.133l.063,1.008a2.092,2.092,0,0,1,1.883-1.164,2.366,2.366,0,0,1,.7.1ZM18.477,0H16.211V-8.453h2.266Zm-2.4-10.641a1.112,1.112,0,0,1,.34-.836,1.277,1.277,0,0,1,.926-.328,1.28,1.28,0,0,1,.922.328,1.105,1.105,0,0,1,.344.836,1.108,1.108,0,0,1-.348.844,1.283,1.283,0,0,1-.918.328,1.283,1.283,0,0,1-.918-.328A1.108,1.108,0,0,1,16.078-10.641Zm7.773,8.977a1.481,1.481,0,0,0,1.016-.344,1.2,1.2,0,0,0,.406-.914h2.117a2.9,2.9,0,0,1-.469,1.574A3.093,3.093,0,0,1,25.66-.238a3.949,3.949,0,0,1-1.77.395A3.67,3.67,0,0,1,21.031-1,4.56,4.56,0,0,1,19.984-4.18v-.148a4.508,4.508,0,0,1,1.039-3.117,3.627,3.627,0,0,1,2.852-1.164,3.555,3.555,0,0,1,2.543.9,3.2,3.2,0,0,1,.973,2.4H25.273a1.551,1.551,0,0,0-.406-1.072,1.354,1.354,0,0,0-1.031-.412,1.36,1.36,0,0,0-1.191.575,3.333,3.333,0,0,0-.4,1.866v.235a3.375,3.375,0,0,0,.4,1.878A1.377,1.377,0,0,0,23.852-1.664ZM28.328-4.3a5.013,5.013,0,0,1,.484-2.242A3.546,3.546,0,0,1,30.207-8.07a4.069,4.069,0,0,1,2.113-.539,3.849,3.849,0,0,1,2.793,1.047A4.2,4.2,0,0,1,36.32-4.719l.016.578A4.418,4.418,0,0,1,35.25-1.02,3.775,3.775,0,0,1,32.336.156a3.793,3.793,0,0,1-2.918-1.172A4.5,4.5,0,0,1,28.328-4.2Zm2.258.16A3.16,3.16,0,0,0,31.039-2.3a1.5,1.5,0,0,0,1.3.638,1.5,1.5,0,0,0,1.281-.63,3.457,3.457,0,0,0,.461-2.015,3.128,3.128,0,0,0-.461-1.831,1.5,1.5,0,0,0-1.3-.649,1.474,1.474,0,0,0-1.281.646A3.516,3.516,0,0,0,30.586-4.144Zm9.844-6.387v2.078h1.445V-6.8H40.43v4.219a1.007,1.007,0,0,0,.18.672.9.9,0,0,0,.688.2,3.6,3.6,0,0,0,.664-.055V-.047a4.648,4.648,0,0,1-1.367.2,2.156,2.156,0,0,1-2.422-2.4V-6.8H36.938V-8.453h1.234v-2.078ZM47.023.156A4.15,4.15,0,0,1,44-.984a4.054,4.054,0,0,1-1.168-3.039v-.219A5.106,5.106,0,0,1,43.32-6.52a3.612,3.612,0,0,1,1.395-1.547,3.914,3.914,0,0,1,2.059-.543A3.508,3.508,0,0,1,49.5-7.516a4.444,4.444,0,0,1,1,3.1v.922H45.117a2.1,2.1,0,0,0,.66,1.328,2,2,0,0,0,1.395.5,2.437,2.437,0,0,0,2.039-.945L50.32-1.367A3.389,3.389,0,0,1,48.945-.246,4.511,4.511,0,0,1,47.023.156Zm-.258-6.945a1.411,1.411,0,0,0-1.09.455,2.357,2.357,0,0,0-.535,1.3h3.141v-.181a1.681,1.681,0,0,0-.406-1.165A1.456,1.456,0,0,0,46.766-6.789ZM55.3-1.664a1.481,1.481,0,0,0,1.016-.344,1.2,1.2,0,0,0,.406-.914h2.117a2.9,2.9,0,0,1-.469,1.574A3.093,3.093,0,0,1,57.105-.238a3.949,3.949,0,0,1-1.77.395A3.67,3.67,0,0,1,52.477-1,4.56,4.56,0,0,1,51.43-4.18v-.148a4.508,4.508,0,0,1,1.039-3.117A3.627,3.627,0,0,1,55.32-8.609a3.555,3.555,0,0,1,2.543.9,3.2,3.2,0,0,1,.973,2.4H56.719a1.551,1.551,0,0,0-.406-1.072,1.354,1.354,0,0,0-1.031-.412,1.36,1.36,0,0,0-1.191.575,3.333,3.333,0,0,0-.4,1.866v.235a3.375,3.375,0,0,0,.4,1.878A1.377,1.377,0,0,0,55.3-1.664ZM64.016.156A4.15,4.15,0,0,1,60.988-.984,4.054,4.054,0,0,1,59.82-4.023v-.219a5.106,5.106,0,0,1,.492-2.277,3.612,3.612,0,0,1,1.395-1.547,3.914,3.914,0,0,1,2.059-.543A3.508,3.508,0,0,1,66.5-7.516a4.444,4.444,0,0,1,1,3.1v.922H62.109a2.1,2.1,0,0,0,.66,1.328,2,2,0,0,0,1.395.5A2.437,2.437,0,0,0,66.2-2.609l1.109,1.242A3.389,3.389,0,0,1,65.938-.246,4.511,4.511,0,0,1,64.016.156Zm-.258-6.945a1.411,1.411,0,0,0-1.09.455,2.357,2.357,0,0,0-.535,1.3h3.141v-.181a1.681,1.681,0,0,0-.406-1.165A1.456,1.456,0,0,0,63.758-6.789Zm7.094-1.664.07.977a2.951,2.951,0,0,1,2.43-1.133,2.453,2.453,0,0,1,2,.789,3.682,3.682,0,0,1,.672,2.359V0H73.766V-5.419a1.47,1.47,0,0,0-.312-1.045,1.4,1.4,0,0,0-1.039-.325,1.553,1.553,0,0,0-1.43.814V0H68.727V-8.453ZM77.383-4.3a5.013,5.013,0,0,1,.484-2.242A3.546,3.546,0,0,1,79.262-8.07a4.069,4.069,0,0,1,2.113-.539,3.849,3.849,0,0,1,2.793,1.047,4.2,4.2,0,0,1,1.207,2.844l.016.578A4.418,4.418,0,0,1,84.3-1.02,3.775,3.775,0,0,1,81.391.156a3.793,3.793,0,0,1-2.918-1.172A4.5,4.5,0,0,1,77.383-4.2Zm2.258.16A3.16,3.16,0,0,0,80.094-2.3a1.5,1.5,0,0,0,1.3.638,1.5,1.5,0,0,0,1.281-.63,3.457,3.457,0,0,0,.461-2.015,3.128,3.128,0,0,0-.461-1.831,1.5,1.5,0,0,0-1.3-.649,1.474,1.474,0,0,0-1.281.646A3.516,3.516,0,0,0,79.641-4.144ZM91.359-2.336a.727.727,0,0,0-.41-.652,4.659,4.659,0,0,0-1.316-.426q-3.016-.633-3.016-2.562a2.323,2.323,0,0,1,.934-1.879,3.766,3.766,0,0,1,2.441-.754,4.053,4.053,0,0,1,2.574.758,2.388,2.388,0,0,1,.965,1.969H91.273a1.092,1.092,0,0,0-.312-.8A1.322,1.322,0,0,0,89.984-7a1.351,1.351,0,0,0-.883.258.814.814,0,0,0-.312.656.7.7,0,0,0,.355.605,3.657,3.657,0,0,0,1.2.4,9.8,9.8,0,0,1,1.422.379A2.336,2.336,0,0,1,93.555-2.43a2.2,2.2,0,0,1-.992,1.871A4.28,4.28,0,0,1,90,.156a4.47,4.47,0,0,1-1.887-.379A3.166,3.166,0,0,1,86.82-1.262a2.414,2.414,0,0,1-.469-1.426h2.141a1.179,1.179,0,0,0,.445.922,1.766,1.766,0,0,0,1.109.32,1.635,1.635,0,0,0,.98-.246A.766.766,0,0,0,91.359-2.336Z" transform="translate(486.051 4471)" fill="#12263f"/>
    <path id="Trazado_876249" data-name="Trazado 876249" d="M-982.249-9181.147v-39.424l39.424-21.824,38.944,21.824v39.424l-38.944,20.423Z" transform="translate(1505.777 13763.39)" fill="none" stroke="#12263f" stroke-width="3"/>
    <path id="Trazado_876266" data-name="Trazado 876266" d="M-982.249-9181.147v-39.424l39.424-21.824,38.944,21.824v39.424l-38.944,20.423Z" transform="translate(1426.738 13763.39)" fill="none" stroke="#12263f" stroke-width="3"/>
    <path id="Trazado_876259" data-name="Trazado 876259" d="M-1220.76-9163.169v43.85" transform="translate(1743.617 13744.91)" fill="none" stroke="#12263f" stroke-width="3"/>
    <path id="Trazado_876268" data-name="Trazado 876268" d="M-1220.76-9163.169v22.925" transform="translate(1705.187 13765.835)" fill="none" stroke="#12263f" stroke-width="3"/>
    <path id="Trazado_876267" data-name="Trazado 876267" d="M-1220.76-9163.169v18.023" transform="translate(1743.617 13813.76)" fill="none" stroke="#12263f" stroke-width="3"/>
    <path id="Trazado_876253" data-name="Trazado 876253" d="M-1220.76-9163.17v13.48" transform="translate(9843.116 3380.734) rotate(-90)" fill="none" stroke="#12263f" stroke-width="3"/>
    <path id="Trazado_876257" data-name="Trazado 876257" d="M-1220.76-9163.17l-28.27,15.465" transform="translate(1704.187 13693.574)" fill="none" stroke="#12263f" stroke-width="3"/>
    <path id="Trazado_876254" data-name="Trazado 876254" d="M-1220.76-9163.17v23.328" transform="translate(-7583.485 445.189) rotate(124)" fill="none" stroke="#12263f" stroke-width="3"/>
    <path id="Trazado_876265" data-name="Trazado 876265" d="M-1210.293-9159.689l-10.467,19.848" transform="translate(-7583.485 508.189) rotate(124)" fill="none" stroke="#12263f" stroke-width="3"/>
    <path id="Trazado_876269" data-name="Trazado 876269" d="M1.982,23.2,0,0" transform="translate(444.102 4582.322) rotate(56)" fill="none" stroke="#12263f" stroke-width="3"/>
    <path id="Trazado_876270" data-name="Trazado 876270" d="M1.982,0,0,23.2" transform="translate(424.87 4531.321) rotate(-56)" fill="none" stroke="#12263f" stroke-width="3"/>
    <g id="Trazado_915308" data-name="Trazado 915308" transform="translate(553.689 4511.273)" fill="#ebf8fa">
      <path d="M 9.369011878967285 17.23802375793457 C 5.030021667480469 17.23802375793457 1.500001907348633 13.70800399780273 1.500001907348633 9.369013786315918 C 1.500001907348633 5.030023574829102 5.030021667480469 1.500003814697266 9.369011878967285 1.500003814697266 C 13.7080020904541 1.500003814697266 17.23802185058594 5.030023574829102 17.23802185058594 9.369013786315918 C 17.23802185058594 13.70800399780273 13.7080020904541 17.23802375793457 9.369011878967285 17.23802375793457 Z" stroke="none"/>
      <path d="M 9.369011878967285 3.000003814697266 C 5.857131958007812 3.000003814697266 3.000001907348633 5.857133865356445 3.000001907348633 9.369013786315918 C 3.000001907348633 12.88089370727539 5.857131958007812 15.73802375793457 9.369011878967285 15.73802375793457 C 12.88089179992676 15.73802375793457 15.73802185058594 12.88089370727539 15.73802185058594 9.369013786315918 C 15.73802185058594 5.857133865356445 12.88089179992676 3.000003814697266 9.369011878967285 3.000003814697266 M 9.369011878967285 3.814697265625e-06 C 14.54337120056152 3.814697265625e-06 18.73802185058594 4.194653511047363 18.73802185058594 9.369013786315918 C 18.73802185058594 14.54337310791016 14.54337120056152 18.73802375793457 9.369011878967285 18.73802375793457 C 4.19465160369873 18.73802375793457 1.9073486328125e-06 14.54337310791016 1.9073486328125e-06 9.369013786315918 C 1.9073486328125e-06 4.194653511047363 4.19465160369873 3.814697265625e-06 9.369011878967285 3.814697265625e-06 Z" stroke="none" fill="#12263f"/>
    </g>
    <g id="Trazado_915309" data-name="Trazado 915309" transform="translate(617.478 4559.83)" fill="#ebf8fa">
      <path d="M 9.369011878967285 17.23802375793457 C 5.030021667480469 17.23802375793457 1.500001907348633 13.70800399780273 1.500001907348633 9.369013786315918 C 1.500001907348633 5.030023574829102 5.030021667480469 1.500003814697266 9.369011878967285 1.500003814697266 C 13.7080020904541 1.500003814697266 17.23802185058594 5.030023574829102 17.23802185058594 9.369013786315918 C 17.23802185058594 13.70800399780273 13.7080020904541 17.23802375793457 9.369011878967285 17.23802375793457 Z" stroke="none"/>
      <path d="M 9.369011878967285 3.000003814697266 C 5.857131958007812 3.000003814697266 3.000001907348633 5.857133865356445 3.000001907348633 9.369013786315918 C 3.000001907348633 12.88089370727539 5.857131958007812 15.73802375793457 9.369011878967285 15.73802375793457 C 12.88089179992676 15.73802375793457 15.73802185058594 12.88089370727539 15.73802185058594 9.369013786315918 C 15.73802185058594 5.857133865356445 12.88089179992676 3.000003814697266 9.369011878967285 3.000003814697266 M 9.369011878967285 3.814697265625e-06 C 14.54337120056152 3.814697265625e-06 18.73802185058594 4.194653511047363 18.73802185058594 9.369013786315918 C 18.73802185058594 14.54337310791016 14.54337120056152 18.73802375793457 9.369011878967285 18.73802375793457 C 4.19465160369873 18.73802375793457 1.9073486328125e-06 14.54337310791016 1.9073486328125e-06 9.369013786315918 C 1.9073486328125e-06 4.194653511047363 4.19465160369873 3.814697265625e-06 9.369011878967285 3.814697265625e-06 Z" stroke="none" fill="#12263f"/>
    </g>
    <path id="Trazado_915310" data-name="Trazado 915310" d="M5.651-7.242,8.007-12.8h3.331L7.216-4.6V0H4.087V-4.6L-.026-12.8H3.287Z" transform="translate(479.427 4646.845)" fill="#12263f"/>
    <path id="Trazado_915311" data-name="Trazado 915311" d="M5.739-8.543,7.831-12.8h3.524L7.778-6.451,11.452,0H7.893L5.739-4.333,3.586,0H.035L3.7-6.451.132-12.8H3.647Z" transform="translate(517.028 4689.517)" fill="#12263f"/>
    <path id="Trazado_915312" data-name="Trazado 915312" d="M11.8-6.135a7.546,7.546,0,0,1-.694,3.313A5.132,5.132,0,0,1,9.136-.6,5.494,5.494,0,0,1,6.223.176a5.572,5.572,0,0,1-2.9-.751A5.123,5.123,0,0,1,1.349-2.725,7.329,7.329,0,0,1,.606-5.933v-.721A7.58,7.58,0,0,1,1.3-9.971,5.119,5.119,0,0,1,3.274-12.19a5.533,5.533,0,0,1,2.931-.782,5.479,5.479,0,0,1,2.9.773A5.211,5.211,0,0,1,11.087-10,7.362,7.362,0,0,1,11.8-6.724ZM8.666-6.671a5.381,5.381,0,0,0-.637-2.9,2.044,2.044,0,0,0-1.824-.989q-2.32,0-2.452,3.48l-.009.94a5.535,5.535,0,0,0,.624,2.892A2.041,2.041,0,0,0,6.223-2.232a2.016,2.016,0,0,0,1.8-.993,5.383,5.383,0,0,0,.642-2.856ZM24.091,0H21.023V-5.344H16.479V0H13.395V-12.8h3.085v5.08h4.544V-12.8h3.067Z" transform="translate(695.098 4574.591)" fill="#12263f"/>
    <path id="Trazado_915313" data-name="Trazado 915313" d="M10.881-4.772,12.349-12.8h3.059L12.691,0h-3.2L7.778-7.295,6.1,0H2.909L.185-12.8H3.252L4.72-4.772,6.478-12.8H9.1Z" transform="translate(688.528 4644.591)" fill="#12263f"/>
    <path id="Trazado_915314" data-name="Trazado 915314" d="M4.43-2.373h6.117V0H.58V-1.626l6.1-8.789H.545V-12.8h9.94v1.582Z" transform="translate(413 4611.21)" fill="#12263f"/>
    <path id="Trazado_915315" data-name="Trazado 915315" d="M11.663,0H8.6V-5.344H4.052V0H.967V-12.8H4.052v5.08H8.6V-12.8h3.067Zm6.706,3.173H13.6V2.794l2.549-2.6A7.086,7.086,0,0,0,17.165-1a1.808,1.808,0,0,0,.325-.96,1.4,1.4,0,0,0-.431-1.079,1.823,1.823,0,0,0-1.283-.4,1.991,1.991,0,0,0-1.4.459,1.565,1.565,0,0,0-.5,1.21H13.4a1.924,1.924,0,0,1,.664-1.5,2.468,2.468,0,0,1,1.709-.593,2.332,2.332,0,0,1,1.6.519,1.754,1.754,0,0,1,.584,1.38,3.053,3.053,0,0,1-.993,1.907l-.58.615L14.186,2.751h4.184ZM30.727-4.333a4.673,4.673,0,0,1-.721,2.36,4.35,4.35,0,0,1-1.85,1.586,6.3,6.3,0,0,1-2.72.563,5.025,5.025,0,0,1-3.973-1.644,6.786,6.786,0,0,1-1.45-4.641v-.633a7.746,7.746,0,0,1,.655-3.292,4.961,4.961,0,0,1,1.885-2.18,5.26,5.26,0,0,1,2.848-.769,5.516,5.516,0,0,1,3.744,1.226,4.844,4.844,0,0,1,1.608,3.379H27.677a2.292,2.292,0,0,0-.589-1.679,2.422,2.422,0,0,0-1.687-.51,1.843,1.843,0,0,0-1.687.861,5.536,5.536,0,0,0-.562,2.751v.905a6.126,6.126,0,0,0,.514,2.927,1.882,1.882,0,0,0,1.771.879,2.369,2.369,0,0,0,1.626-.5,2.126,2.126,0,0,0,.6-1.591Z" transform="translate(390 4528.404)" fill="#12263f"/>
    <path id="Trazado_915316" data-name="Trazado 915316" d="M11.32-4.333a4.673,4.673,0,0,1-.721,2.36A4.35,4.35,0,0,1,8.75-.387a6.3,6.3,0,0,1-2.72.563A5.025,5.025,0,0,1,2.057-1.468,6.786,6.786,0,0,1,.606-6.108v-.633a7.746,7.746,0,0,1,.655-3.292,4.961,4.961,0,0,1,1.885-2.18,5.26,5.26,0,0,1,2.848-.769,5.516,5.516,0,0,1,3.744,1.226,4.844,4.844,0,0,1,1.608,3.379H8.271a2.292,2.292,0,0,0-.589-1.679,2.422,2.422,0,0,0-1.687-.51A1.843,1.843,0,0,0,4.307-9.7a5.536,5.536,0,0,0-.562,2.751v.905A6.125,6.125,0,0,0,4.258-3.12a1.882,1.882,0,0,0,1.771.879,2.369,2.369,0,0,0,1.626-.5,2.126,2.126,0,0,0,.6-1.591ZM23.476,0H20.408V-5.344H15.864V0H12.779V-12.8h3.085v5.08h4.544V-12.8h3.067Zm6.706,3.173H25.409V2.794l2.549-2.6A7.086,7.086,0,0,0,28.978-1a1.808,1.808,0,0,0,.325-.96,1.4,1.4,0,0,0-.431-1.079,1.823,1.823,0,0,0-1.283-.4,1.991,1.991,0,0,0-1.4.459,1.565,1.565,0,0,0-.5,1.21h-.475a1.924,1.924,0,0,1,.664-1.5,2.468,2.468,0,0,1,1.709-.593,2.332,2.332,0,0,1,1.6.519,1.754,1.754,0,0,1,.584,1.38,3.053,3.053,0,0,1-.993,1.907L28.2.563,26,2.751h4.184Z" transform="translate(507.028 4645.591)" fill="#12263f"/>
    <path id="Trazado_876263" data-name="Trazado 876263" d="M-1574-7041.665h-47.051L-1592-7019" transform="translate(2190.478 11603.494)" fill="none" stroke="#12263f" stroke-width="3"/>
    <path id="Trazado_876264" data-name="Trazado 876264" d="M-1574-7028.332-1626.344-7002h110.294v-58H-1588" transform="translate(2190.478 11603.494)" fill="none" stroke="#12263f" stroke-width="3"/>
  </g>
</svg>
