<svg xmlns="http://www.w3.org/2000/svg" xmlns:xlink="http://www.w3.org/1999/xlink" width="673.781" height="222.704" viewBox="0 0 673.781 222.704">
  <defs>
    <clipPath id="clip-path">
      <rect id="Rectángulo_403033" data-name="Rectángulo 403033" width="20.07" height="106.803" fill="#12263f"/>
    </clipPath>
    <clipPath id="clip-path-3">
      <rect id="Rectángulo_403033-3" data-name="Rectángulo 403033" width="20.07" height="65.901" fill="#12263f"/>
    </clipPath>
    <clipPath id="clip-path-4">
      <rect id="Rectángulo_403033-4" data-name="Rectángulo 403033" width="20.07" height="173.803" fill="#12263f"/>
    </clipPath>
  </defs>
  <g id="Grupo_1103873" data-name="Grupo 1103873" transform="translate(-430 -6164.997)">
    <path id="Trazado_915302" data-name="Trazado 915302" d="M1.32,0V-11.375H5.039a4.317,4.317,0,0,1,2.785.766,2.759,2.759,0,0,1,.934,2.266A2.31,2.31,0,0,1,8.3-6.934a2.938,2.938,0,0,1-1.234.949A2.638,2.638,0,0,1,8.527-5a2.814,2.814,0,0,1,.535,1.723A3.042,3.042,0,0,1,8.07-.875,4.1,4.1,0,0,1,5.266,0Zm1.5-5.32v4.094H5.3A2.385,2.385,0,0,0,6.949-1.77a1.907,1.907,0,0,0,.605-1.5q0-2.055-2.234-2.055Zm0-1.2H5.086A2.375,2.375,0,0,0,6.66-7.017a1.654,1.654,0,0,0,.59-1.339A1.626,1.626,0,0,0,6.7-9.722a2.686,2.686,0,0,0-1.664-.427H2.82ZM16.273,0a3.036,3.036,0,0,1-.2-.891A3.225,3.225,0,0,1,13.664.156a2.984,2.984,0,0,1-2.051-.707,2.287,2.287,0,0,1-.8-1.793,2.39,2.39,0,0,1,1-2.051,4.733,4.733,0,0,1,2.824-.73h1.406v-.664A1.623,1.623,0,0,0,15.594-7a1.821,1.821,0,0,0-1.336-.449,2.107,2.107,0,0,0-1.3.391,1.151,1.151,0,0,0-.523.945H10.984a2,2,0,0,1,.449-1.223,3.066,3.066,0,0,1,1.219-.934,4.1,4.1,0,0,1,1.691-.344,3.342,3.342,0,0,1,2.289.73,2.635,2.635,0,0,1,.859,2.012v3.891a4.757,4.757,0,0,0,.3,1.852V0Zm-2.4-1.1a2.54,2.54,0,0,0,1.289-.352,2.127,2.127,0,0,0,.883-.914V-4.1H14.914q-2.656,0-2.656,1.555a1.316,1.316,0,0,0,.453,1.063A1.742,1.742,0,0,0,13.875-1.1Zm9.273.078A2.082,2.082,0,0,0,24.5-1.492a1.649,1.649,0,0,0,.641-1.172h1.367a2.621,2.621,0,0,1-.5,1.383,3.293,3.293,0,0,1-1.23,1.047,3.55,3.55,0,0,1-1.629.391A3.482,3.482,0,0,1,20.4-1a4.59,4.59,0,0,1-1.02-3.152v-.242a5.089,5.089,0,0,1,.453-2.2,3.451,3.451,0,0,1,1.3-1.492,3.7,3.7,0,0,1,2-.531,3.39,3.39,0,0,1,2.363.852,3.043,3.043,0,0,1,1,2.211H25.141a1.992,1.992,0,0,0-.621-1.348,1.932,1.932,0,0,0-1.379-.527,2.023,2.023,0,0,0-1.707.793,3.724,3.724,0,0,0-.605,2.293v.273a3.65,3.65,0,0,0,.6,2.25A2.033,2.033,0,0,0,23.148-1.023ZM30.094-10.5v2.047h1.578v1.117H30.094v5.249a1.173,1.173,0,0,0,.211.763.888.888,0,0,0,.719.254,3.5,3.5,0,0,0,.688-.094V0A4.215,4.215,0,0,1,30.6.156,1.8,1.8,0,0,1,29.141-.43a2.517,2.517,0,0,1-.492-1.664V-7.336H27.109V-8.453h1.539V-10.5ZM36.867.156a3.693,3.693,0,0,1-2.8-1.129,4.19,4.19,0,0,1-1.078-3.02v-.266a5.073,5.073,0,0,1,.48-2.246,3.748,3.748,0,0,1,1.344-1.547,3.378,3.378,0,0,1,1.871-.559A3.166,3.166,0,0,1,39.25-7.523a4.7,4.7,0,0,1,.914,3.109v.6H34.438a3,3,0,0,0,.73,2.02,2.3,2.3,0,0,0,1.777.77,2.517,2.517,0,0,0,1.3-.312,3.259,3.259,0,0,0,.93-.828l.883.688A3.55,3.55,0,0,1,36.867.156Zm-.18-7.578a1.928,1.928,0,0,0-1.469.637A3.1,3.1,0,0,0,34.484-5h4.234v-.109a2.753,2.753,0,0,0-.594-1.707A1.815,1.815,0,0,0,36.688-7.422Zm9.234.266a4.331,4.331,0,0,0-.711-.055A1.9,1.9,0,0,0,43.281-6V0H41.836V-8.453h1.406l.023.977a2.251,2.251,0,0,1,2.016-1.133,1.477,1.477,0,0,1,.641.109ZM48.82,0H47.375V-8.453H48.82ZM47.258-10.7a.863.863,0,0,1,.215-.594.807.807,0,0,1,.637-.242.819.819,0,0,1,.641.242.854.854,0,0,1,.219.594.826.826,0,0,1-.219.586.834.834,0,0,1-.641.234.821.821,0,0,1-.637-.234A.834.834,0,0,1,47.258-10.7ZM56.352,0a3.036,3.036,0,0,1-.2-.891A3.225,3.225,0,0,1,53.742.156a2.984,2.984,0,0,1-2.051-.707,2.287,2.287,0,0,1-.8-1.793,2.39,2.39,0,0,1,1-2.051,4.733,4.733,0,0,1,2.824-.73h1.406v-.664A1.623,1.623,0,0,0,55.672-7a1.821,1.821,0,0,0-1.336-.449,2.107,2.107,0,0,0-1.3.391,1.151,1.151,0,0,0-.523.945H51.063a2,2,0,0,1,.449-1.223,3.066,3.066,0,0,1,1.219-.934,4.1,4.1,0,0,1,1.691-.344,3.342,3.342,0,0,1,2.289.73,2.635,2.635,0,0,1,.859,2.012v3.891a4.757,4.757,0,0,0,.3,1.852V0Zm-2.4-1.1a2.54,2.54,0,0,0,1.289-.352,2.127,2.127,0,0,0,.883-.914V-4.1H54.992q-2.656,0-2.656,1.555a1.316,1.316,0,0,0,.453,1.063A1.742,1.742,0,0,0,53.953-1.1Zm10.8-1.141a1.064,1.064,0,0,0-.441-.91,4.249,4.249,0,0,0-1.539-.559,7.277,7.277,0,0,1-1.742-.562,2.479,2.479,0,0,1-.953-.781,1.869,1.869,0,0,1-.309-1.078,2.193,2.193,0,0,1,.879-1.758A3.432,3.432,0,0,1,62.9-8.609a3.532,3.532,0,0,1,2.332.742,2.357,2.357,0,0,1,.895,1.9H64.672a1.3,1.3,0,0,0-.5-1.023,1.888,1.888,0,0,0-1.27-.43,1.976,1.976,0,0,0-1.234.344,1.082,1.082,0,0,0-.445.9.877.877,0,0,0,.414.789,5.1,5.1,0,0,0,1.5.508,7.8,7.8,0,0,1,1.754.578,2.558,2.558,0,0,1,1,.809A1.988,1.988,0,0,1,66.2-2.344,2.163,2.163,0,0,1,65.3-.527a3.8,3.8,0,0,1-2.352.684,4.257,4.257,0,0,1-1.8-.359,2.922,2.922,0,0,1-1.223-1A2.42,2.42,0,0,1,59.484-2.6H60.93a1.5,1.5,0,0,0,.582,1.152,2.258,2.258,0,0,0,1.434.426,2.331,2.331,0,0,0,1.316-.332A1.02,1.02,0,0,0,64.758-2.242ZM2.828,22.773H8.219V24H1.32V12.625H2.828Zm10.383,1.383a3.693,3.693,0,0,1-2.8-1.129,4.19,4.19,0,0,1-1.078-3.02v-.266a5.073,5.073,0,0,1,.48-2.246,3.748,3.748,0,0,1,1.344-1.547,3.378,3.378,0,0,1,1.871-.559,3.166,3.166,0,0,1,2.563,1.086,4.7,4.7,0,0,1,.914,3.109v.6H10.781a3,3,0,0,0,.73,2.02,2.3,2.3,0,0,0,1.777.77,2.517,2.517,0,0,0,1.3-.312,3.259,3.259,0,0,0,.93-.828l.883.688A3.55,3.55,0,0,1,13.211,24.156Zm-.18-7.578a1.928,1.928,0,0,0-1.469.637A3.1,3.1,0,0,0,10.828,19h4.234v-.109a2.753,2.753,0,0,0-.594-1.707A1.815,1.815,0,0,0,13.031,16.578Zm7.836,5.461,2.094-6.492h1.477L21.406,24H20.3l-3.062-8.453h1.477ZM30.93,24a3.036,3.036,0,0,1-.2-.891,3.225,3.225,0,0,1-2.406,1.047,2.984,2.984,0,0,1-2.051-.707,2.287,2.287,0,0,1-.8-1.793,2.39,2.39,0,0,1,1-2.051,4.733,4.733,0,0,1,2.824-.73H30.7v-.664A1.623,1.623,0,0,0,30.25,17a1.821,1.821,0,0,0-1.336-.449,2.108,2.108,0,0,0-1.3.391,1.151,1.151,0,0,0-.523.945H25.641a2,2,0,0,1,.449-1.223,3.066,3.066,0,0,1,1.219-.934A4.1,4.1,0,0,1,29,15.391a3.342,3.342,0,0,1,2.289.73,2.635,2.635,0,0,1,.859,2.012v3.891a4.757,4.757,0,0,0,.3,1.852V24Zm-2.4-1.1a2.54,2.54,0,0,0,1.289-.352,2.127,2.127,0,0,0,.883-.914V19.9H29.57q-2.656,0-2.656,1.555a1.316,1.316,0,0,0,.453,1.063A1.742,1.742,0,0,0,28.531,22.9Zm5.531-3.2a4.952,4.952,0,0,1,.922-3.129,3.137,3.137,0,0,1,4.766-.168V12H41.2V24H39.867l-.07-.906a2.943,2.943,0,0,1-2.414,1.063,2.887,2.887,0,0,1-2.395-1.2,5.008,5.008,0,0,1-.926-3.141Zm1.445.164a3.749,3.749,0,0,0,.594,2.25,1.92,1.92,0,0,0,1.641.813A2.108,2.108,0,0,0,39.75,21.7V17.813a2.125,2.125,0,0,0-1.992-1.2,1.929,1.929,0,0,0-1.656.82A4.128,4.128,0,0,0,35.508,19.867Zm13.148,3.3a3.07,3.07,0,0,1-2.477.992,2.628,2.628,0,0,1-2.059-.785,3.4,3.4,0,0,1-.715-2.324v-5.5h1.445v5.461q0,1.922,1.563,1.922a2.163,2.163,0,0,0,2.2-1.234V15.547h1.445V24H48.688Zm7.688-6.32a4.331,4.331,0,0,0-.711-.055A1.9,1.9,0,0,0,53.7,18v6H52.258V15.547h1.406l.023.977A2.251,2.251,0,0,1,55.7,15.391a1.477,1.477,0,0,1,.641.109ZM62.578,24a3.036,3.036,0,0,1-.2-.891,3.225,3.225,0,0,1-2.406,1.047,2.984,2.984,0,0,1-2.051-.707,2.287,2.287,0,0,1-.8-1.793,2.39,2.39,0,0,1,1-2.051,4.733,4.733,0,0,1,2.824-.73h1.406v-.664A1.623,1.623,0,0,0,61.9,17a1.821,1.821,0,0,0-1.336-.449,2.107,2.107,0,0,0-1.3.391,1.151,1.151,0,0,0-.523.945H57.289a2,2,0,0,1,.449-1.223,3.066,3.066,0,0,1,1.219-.934,4.1,4.1,0,0,1,1.691-.344,3.342,3.342,0,0,1,2.289.73,2.635,2.635,0,0,1,.859,2.012v3.891a4.757,4.757,0,0,0,.3,1.852V24Zm-2.4-1.1a2.54,2.54,0,0,0,1.289-.352,2.127,2.127,0,0,0,.883-.914V19.9H61.219q-2.656,0-2.656,1.555a1.316,1.316,0,0,0,.453,1.063A1.742,1.742,0,0,0,60.18,22.9Zm10.8-1.141a1.064,1.064,0,0,0-.441-.91A4.249,4.249,0,0,0,69,20.289a7.277,7.277,0,0,1-1.742-.562,2.478,2.478,0,0,1-.953-.781A1.869,1.869,0,0,1,66,17.867a2.193,2.193,0,0,1,.879-1.758,3.432,3.432,0,0,1,2.246-.719,3.532,3.532,0,0,1,2.332.742,2.357,2.357,0,0,1,.895,1.9H70.9a1.3,1.3,0,0,0-.5-1.023,1.888,1.888,0,0,0-1.27-.43,1.976,1.976,0,0,0-1.234.344,1.082,1.082,0,0,0-.445.9.877.877,0,0,0,.414.789,5.1,5.1,0,0,0,1.5.508,7.8,7.8,0,0,1,1.754.578,2.558,2.558,0,0,1,1,.809,1.988,1.988,0,0,1,.324,1.152,2.163,2.163,0,0,1-.906,1.816,3.8,3.8,0,0,1-2.352.684,4.257,4.257,0,0,1-1.8-.359,2.922,2.922,0,0,1-1.223-1,2.42,2.42,0,0,1-.441-1.395h1.445a1.5,1.5,0,0,0,.582,1.152,2.258,2.258,0,0,0,1.434.426,2.331,2.331,0,0,0,1.316-.332A1.02,1.02,0,0,0,70.984,21.758Z" transform="translate(639 6279.8)" fill="#12263f"/>
    <path id="Trazado_915303" data-name="Trazado 915303" d="M2.82-4.453V0H1.32V-11.375h4.2a4.215,4.215,0,0,1,2.926.953A3.231,3.231,0,0,1,9.5-7.9,3.189,3.189,0,0,1,8.465-5.348,4.4,4.4,0,0,1,5.5-4.453Zm0-1.227h2.7a2.7,2.7,0,0,0,1.844-.567A2.075,2.075,0,0,0,8-7.887a2.143,2.143,0,0,0-.641-1.628A2.525,2.525,0,0,0,5.6-10.148H2.82ZM16.109-2.242a1.064,1.064,0,0,0-.441-.91,4.249,4.249,0,0,0-1.539-.559,7.277,7.277,0,0,1-1.742-.562,2.479,2.479,0,0,1-.953-.781,1.869,1.869,0,0,1-.309-1.078A2.193,2.193,0,0,1,12-7.891a3.432,3.432,0,0,1,2.246-.719,3.532,3.532,0,0,1,2.332.742,2.357,2.357,0,0,1,.895,1.9H16.023a1.3,1.3,0,0,0-.5-1.023,1.888,1.888,0,0,0-1.27-.43,1.976,1.976,0,0,0-1.234.344,1.082,1.082,0,0,0-.445.9.877.877,0,0,0,.414.789,5.1,5.1,0,0,0,1.5.508,7.8,7.8,0,0,1,1.754.578,2.558,2.558,0,0,1,1,.809,1.988,1.988,0,0,1,.324,1.152,2.163,2.163,0,0,1-.906,1.816A3.8,3.8,0,0,1,14.3.156,4.257,4.257,0,0,1,12.5-.2a2.922,2.922,0,0,1-1.223-1A2.42,2.42,0,0,1,10.836-2.6h1.445a1.5,1.5,0,0,0,.582,1.152,2.258,2.258,0,0,0,1.434.426,2.331,2.331,0,0,0,1.316-.332A1.02,1.02,0,0,0,16.109-2.242Zm6.836,2.4a3.693,3.693,0,0,1-2.8-1.129,4.19,4.19,0,0,1-1.078-3.02v-.266a5.073,5.073,0,0,1,.48-2.246,3.748,3.748,0,0,1,1.344-1.547,3.378,3.378,0,0,1,1.871-.559,3.166,3.166,0,0,1,2.563,1.086,4.7,4.7,0,0,1,.914,3.109v.6H20.516a3,3,0,0,0,.73,2.02,2.3,2.3,0,0,0,1.777.77,2.517,2.517,0,0,0,1.3-.312,3.259,3.259,0,0,0,.93-.828l.883.688A3.55,3.55,0,0,1,22.945.156Zm-.18-7.578a1.928,1.928,0,0,0-1.469.637A3.1,3.1,0,0,0,20.563-5H24.8v-.109A2.753,2.753,0,0,0,24.2-6.816,1.815,1.815,0,0,0,22.766-7.422ZM33.133-.836a3.07,3.07,0,0,1-2.477.992A2.628,2.628,0,0,1,28.6-.629a3.4,3.4,0,0,1-.715-2.324v-5.5h1.445v5.461q0,1.922,1.563,1.922a2.163,2.163,0,0,0,2.2-1.234V-8.453h1.445V0H33.164ZM36.383-4.3A4.952,4.952,0,0,1,37.3-7.426a2.915,2.915,0,0,1,2.414-1.184A2.932,2.932,0,0,1,42.07-7.594V-12h1.445V0H42.188l-.07-.906A2.943,2.943,0,0,1,39.7.156a2.887,2.887,0,0,1-2.395-1.2,5.008,5.008,0,0,1-.926-3.141Zm1.445.164a3.749,3.749,0,0,0,.594,2.25,1.92,1.92,0,0,0,1.641.813A2.108,2.108,0,0,0,42.07-2.3V-6.187a2.125,2.125,0,0,0-1.992-1.2,1.929,1.929,0,0,0-1.656.82A4.128,4.128,0,0,0,37.828-4.133ZM45.375-4.3a4.993,4.993,0,0,1,.488-2.234A3.643,3.643,0,0,1,47.223-8.07a3.7,3.7,0,0,1,1.988-.539A3.565,3.565,0,0,1,52-7.414a4.6,4.6,0,0,1,1.066,3.18v.1A5.036,5.036,0,0,1,52.6-1.918,3.589,3.589,0,0,1,51.246-.391a3.743,3.743,0,0,1-2.02.547,3.556,3.556,0,0,1-2.785-1.2A4.575,4.575,0,0,1,45.375-4.2Zm1.453.172a3.616,3.616,0,0,0,.652,2.258,2.088,2.088,0,0,0,1.746.852,2.075,2.075,0,0,0,1.75-.863A3.955,3.955,0,0,0,51.625-4.3a3.61,3.61,0,0,0-.66-2.254,2.1,2.1,0,0,0-1.754-.863,2.075,2.075,0,0,0-1.727.852A3.925,3.925,0,0,0,46.828-4.133Zm9.414-4.32.039.938a3.122,3.122,0,0,1,2.508-1.094A2.417,2.417,0,0,1,61.2-7.25a3.2,3.2,0,0,1,1.1-.984,3.242,3.242,0,0,1,1.6-.375q2.781,0,2.828,2.945V0H65.281V-5.578a1.941,1.941,0,0,0-.414-1.355,1.823,1.823,0,0,0-1.391-.449,1.917,1.917,0,0,0-1.336.48,1.949,1.949,0,0,0-.617,1.293V0H60.07V-5.539a1.613,1.613,0,0,0-1.8-1.844A1.934,1.934,0,0,0,56.32-6.172V0H54.875V-8.453ZM68.523-4.3a4.993,4.993,0,0,1,.488-2.234A3.643,3.643,0,0,1,70.371-8.07a3.7,3.7,0,0,1,1.988-.539,3.565,3.565,0,0,1,2.793,1.2,4.6,4.6,0,0,1,1.066,3.18v.1a5.036,5.036,0,0,1-.473,2.215A3.589,3.589,0,0,1,74.395-.391a3.743,3.743,0,0,1-2.02.547,3.556,3.556,0,0,1-2.785-1.2A4.575,4.575,0,0,1,68.523-4.2Zm1.453.172a3.616,3.616,0,0,0,.652,2.258,2.088,2.088,0,0,0,1.746.852,2.075,2.075,0,0,0,1.75-.863A3.955,3.955,0,0,0,74.773-4.3a3.61,3.61,0,0,0-.66-2.254,2.1,2.1,0,0,0-1.754-.863,2.075,2.075,0,0,0-1.727.852A3.925,3.925,0,0,0,69.977-4.133ZM79.4-8.453l.047,1.063a3.08,3.08,0,0,1,2.531-1.219q2.68,0,2.7,3.023V0H83.234V-5.594a1.946,1.946,0,0,0-.418-1.352,1.675,1.675,0,0,0-1.277-.437,2.086,2.086,0,0,0-1.234.375,2.546,2.546,0,0,0-.828.984V0H78.031V-8.453ZM92.078,0a3.036,3.036,0,0,1-.2-.891A3.225,3.225,0,0,1,89.469.156a2.984,2.984,0,0,1-2.051-.707,2.288,2.288,0,0,1-.8-1.793,2.39,2.39,0,0,1,1-2.051,4.733,4.733,0,0,1,2.824-.73h1.406v-.664A1.623,1.623,0,0,0,91.4-7a1.821,1.821,0,0,0-1.336-.449,2.108,2.108,0,0,0-1.3.391,1.151,1.151,0,0,0-.523.945H86.789a2,2,0,0,1,.449-1.223,3.066,3.066,0,0,1,1.219-.934,4.1,4.1,0,0,1,1.691-.344,3.342,3.342,0,0,1,2.289.73A2.635,2.635,0,0,1,93.3-5.867v3.891a4.757,4.757,0,0,0,.3,1.852V0Zm-2.4-1.1a2.54,2.54,0,0,0,1.289-.352,2.127,2.127,0,0,0,.883-.914V-4.1H90.719q-2.656,0-2.656,1.555a1.316,1.316,0,0,0,.453,1.063A1.742,1.742,0,0,0,89.68-1.1Zm10.8-1.141a1.064,1.064,0,0,0-.441-.91A4.249,4.249,0,0,0,98.5-3.711a7.277,7.277,0,0,1-1.742-.562,2.479,2.479,0,0,1-.953-.781A1.869,1.869,0,0,1,95.5-6.133a2.193,2.193,0,0,1,.879-1.758,3.432,3.432,0,0,1,2.246-.719,3.532,3.532,0,0,1,2.332.742,2.357,2.357,0,0,1,.895,1.9H100.4a1.3,1.3,0,0,0-.5-1.023,1.888,1.888,0,0,0-1.27-.43,1.976,1.976,0,0,0-1.234.344,1.082,1.082,0,0,0-.445.9.877.877,0,0,0,.414.789,5.1,5.1,0,0,0,1.5.508,7.8,7.8,0,0,1,1.754.578,2.558,2.558,0,0,1,1,.809,1.988,1.988,0,0,1,.324,1.152,2.163,2.163,0,0,1-.906,1.816,3.8,3.8,0,0,1-2.352.684,4.257,4.257,0,0,1-1.8-.359,2.922,2.922,0,0,1-1.223-1A2.42,2.42,0,0,1,95.211-2.6h1.445a1.5,1.5,0,0,0,.582,1.152,2.258,2.258,0,0,0,1.434.426,2.331,2.331,0,0,0,1.316-.332A1.02,1.02,0,0,0,100.484-2.242ZM7.6,21.023H2.836L1.766,24H.219L4.563,12.625H5.875L10.227,24H8.688ZM3.289,19.8H7.156l-1.937-5.32ZM13.1,24H11.656V12H13.1Zm4.273-10.5v2.047h1.578v1.117H17.375v5.249a1.173,1.173,0,0,0,.211.763.888.888,0,0,0,.719.254,3.5,3.5,0,0,0,.688-.094V24a4.215,4.215,0,0,1-1.109.155,1.8,1.8,0,0,1-1.461-.586,2.517,2.517,0,0,1-.492-1.664V16.664H14.391V15.547H15.93V13.5Zm6.773,10.656a3.693,3.693,0,0,1-2.8-1.129,4.19,4.19,0,0,1-1.078-3.02v-.266a5.073,5.073,0,0,1,.48-2.246A3.748,3.748,0,0,1,22.1,15.949a3.378,3.378,0,0,1,1.871-.559,3.166,3.166,0,0,1,2.563,1.086,4.7,4.7,0,0,1,.914,3.109v.6H21.719a3,3,0,0,0,.73,2.02,2.3,2.3,0,0,0,1.777.77,2.517,2.517,0,0,0,1.3-.312,3.259,3.259,0,0,0,.93-.828l.883.688A3.55,3.55,0,0,1,24.148,24.156Zm-.18-7.578a1.928,1.928,0,0,0-1.469.637A3.1,3.1,0,0,0,21.766,19H26v-.109a2.753,2.753,0,0,0-.594-1.707A1.815,1.815,0,0,0,23.969,16.578Zm9.234.266a4.331,4.331,0,0,0-.711-.055A1.9,1.9,0,0,0,30.563,18v6H29.117V15.547h1.406l.023.977a2.251,2.251,0,0,1,2.016-1.133,1.477,1.477,0,0,1,.641.109Zm.789,2.852a4.993,4.993,0,0,1,.488-2.234A3.643,3.643,0,0,1,35.84,15.93a3.7,3.7,0,0,1,1.988-.539,3.565,3.565,0,0,1,2.793,1.2,4.6,4.6,0,0,1,1.066,3.18v.1a5.036,5.036,0,0,1-.473,2.215,3.589,3.589,0,0,1-1.352,1.527,3.743,3.743,0,0,1-2.02.547,3.556,3.556,0,0,1-2.785-1.2A4.575,4.575,0,0,1,33.992,19.8Zm1.453.172a3.616,3.616,0,0,0,.652,2.258,2.211,2.211,0,0,0,3.5-.012,3.955,3.955,0,0,0,.648-2.418,3.61,3.61,0,0,0-.66-2.254,2.1,2.1,0,0,0-1.754-.863,2.075,2.075,0,0,0-1.727.852A3.925,3.925,0,0,0,35.445,19.867Zm9.414-4.32.039.938a3.122,3.122,0,0,1,2.508-1.094A2.417,2.417,0,0,1,49.82,16.75a3.2,3.2,0,0,1,1.1-.984,3.242,3.242,0,0,1,1.6-.375q2.781,0,2.828,2.945V24H53.9V18.422a1.941,1.941,0,0,0-.414-1.355,1.823,1.823,0,0,0-1.391-.449,1.916,1.916,0,0,0-1.336.48,1.949,1.949,0,0,0-.617,1.293V24H48.688V18.461a1.613,1.613,0,0,0-1.8-1.844,1.934,1.934,0,0,0-1.945,1.211V24H43.492V15.547ZM57.141,19.7a4.993,4.993,0,0,1,.488-2.234,3.643,3.643,0,0,1,1.359-1.531,3.7,3.7,0,0,1,1.988-.539,3.565,3.565,0,0,1,2.793,1.2,4.6,4.6,0,0,1,1.066,3.18v.1a5.036,5.036,0,0,1-.473,2.215,3.589,3.589,0,0,1-1.352,1.527,3.743,3.743,0,0,1-2.02.547,3.556,3.556,0,0,1-2.785-1.2A4.575,4.575,0,0,1,57.141,19.8Zm1.453.172a3.616,3.616,0,0,0,.652,2.258,2.211,2.211,0,0,0,3.5-.012,3.955,3.955,0,0,0,.648-2.418,3.61,3.61,0,0,0-.66-2.254,2.1,2.1,0,0,0-1.754-.863,2.075,2.075,0,0,0-1.727.852A3.925,3.925,0,0,0,58.594,19.867Zm9.422-4.32.047,1.063a3.08,3.08,0,0,1,2.531-1.219q2.68,0,2.7,3.023V24H71.852V18.406a1.946,1.946,0,0,0-.418-1.352,1.675,1.675,0,0,0-1.277-.437,2.086,2.086,0,0,0-1.234.375,2.546,2.546,0,0,0-.828.984V24H66.648V15.547ZM80.7,24a3.036,3.036,0,0,1-.2-.891,3.225,3.225,0,0,1-2.406,1.047,2.984,2.984,0,0,1-2.051-.707,2.288,2.288,0,0,1-.8-1.793,2.39,2.39,0,0,1,1-2.051,4.733,4.733,0,0,1,2.824-.73h1.406v-.664A1.623,1.623,0,0,0,80.016,17a1.821,1.821,0,0,0-1.336-.449,2.108,2.108,0,0,0-1.3.391,1.151,1.151,0,0,0-.523.945H75.406a2,2,0,0,1,.449-1.223,3.066,3.066,0,0,1,1.219-.934,4.1,4.1,0,0,1,1.691-.344,3.342,3.342,0,0,1,2.289.73,2.635,2.635,0,0,1,.859,2.012v3.891a4.757,4.757,0,0,0,.3,1.852V24Zm-2.4-1.1a2.54,2.54,0,0,0,1.289-.352,2.127,2.127,0,0,0,.883-.914V19.9H79.336q-2.656,0-2.656,1.555a1.316,1.316,0,0,0,.453,1.063A1.742,1.742,0,0,0,78.3,22.9Zm10.8-1.141a1.064,1.064,0,0,0-.441-.91,4.249,4.249,0,0,0-1.539-.559,7.277,7.277,0,0,1-1.742-.562,2.478,2.478,0,0,1-.953-.781,1.869,1.869,0,0,1-.309-1.078A2.193,2.193,0,0,1,85,16.109a3.432,3.432,0,0,1,2.246-.719,3.532,3.532,0,0,1,2.332.742,2.357,2.357,0,0,1,.895,1.9H89.016a1.3,1.3,0,0,0-.5-1.023,1.888,1.888,0,0,0-1.27-.43,1.976,1.976,0,0,0-1.234.344,1.082,1.082,0,0,0-.445.9.877.877,0,0,0,.414.789,5.1,5.1,0,0,0,1.5.508,7.8,7.8,0,0,1,1.754.578,2.558,2.558,0,0,1,1,.809,1.988,1.988,0,0,1,.324,1.152,2.163,2.163,0,0,1-.906,1.816,3.8,3.8,0,0,1-2.352.684,4.257,4.257,0,0,1-1.8-.359,2.922,2.922,0,0,1-1.223-1,2.42,2.42,0,0,1-.441-1.395h1.445a1.5,1.5,0,0,0,.582,1.152,2.258,2.258,0,0,0,1.434.426,2.331,2.331,0,0,0,1.316-.332A1.02,1.02,0,0,0,89.1,21.758ZM7.6,45.023H2.836L1.766,48H.219L4.563,36.625H5.875L10.227,48H8.688ZM3.289,43.8H7.156l-1.937-5.32Zm11.75,4.359a3.693,3.693,0,0,1-2.8-1.129,4.19,4.19,0,0,1-1.078-3.02v-.266a5.073,5.073,0,0,1,.48-2.246,3.748,3.748,0,0,1,1.344-1.547,3.378,3.378,0,0,1,1.871-.559,3.166,3.166,0,0,1,2.563,1.086,4.7,4.7,0,0,1,.914,3.109v.6H12.609a3,3,0,0,0,.73,2.02,2.3,2.3,0,0,0,1.777.77,2.517,2.517,0,0,0,1.3-.312,3.259,3.259,0,0,0,.93-.828l.883.688A3.55,3.55,0,0,1,15.039,48.156Zm-.18-7.578a1.928,1.928,0,0,0-1.469.637A3.1,3.1,0,0,0,12.656,43h4.234v-.109a2.753,2.753,0,0,0-.594-1.707A1.815,1.815,0,0,0,14.859,40.578Zm9.234.266a4.331,4.331,0,0,0-.711-.055A1.9,1.9,0,0,0,21.453,42v6H20.008V39.547h1.406l.023.977a2.251,2.251,0,0,1,2.016-1.133,1.477,1.477,0,0,1,.641.109Zm.789,2.852a4.993,4.993,0,0,1,.488-2.234A3.643,3.643,0,0,1,26.73,39.93a3.7,3.7,0,0,1,1.988-.539,3.565,3.565,0,0,1,2.793,1.2,4.6,4.6,0,0,1,1.066,3.18v.1a5.036,5.036,0,0,1-.473,2.215,3.589,3.589,0,0,1-1.352,1.527,3.743,3.743,0,0,1-2.02.547,3.556,3.556,0,0,1-2.785-1.2A4.575,4.575,0,0,1,24.883,43.8Zm1.453.172a3.616,3.616,0,0,0,.652,2.258,2.211,2.211,0,0,0,3.5-.012,3.955,3.955,0,0,0,.648-2.418,3.61,3.61,0,0,0-.66-2.254,2.1,2.1,0,0,0-1.754-.863,2.075,2.075,0,0,0-1.727.852A3.925,3.925,0,0,0,26.336,43.867Zm9.414-4.32.039.938A3.122,3.122,0,0,1,38.3,39.391a2.417,2.417,0,0,1,2.414,1.359,3.2,3.2,0,0,1,1.1-.984,3.242,3.242,0,0,1,1.6-.375q2.781,0,2.828,2.945V48H44.789V42.422a1.941,1.941,0,0,0-.414-1.355,1.823,1.823,0,0,0-1.391-.449,1.916,1.916,0,0,0-1.336.48,1.949,1.949,0,0,0-.617,1.293V48H39.578V42.461a1.613,1.613,0,0,0-1.8-1.844,1.934,1.934,0,0,0-1.945,1.211V48H34.383V39.547ZM48.031,43.7a4.993,4.993,0,0,1,.488-2.234,3.643,3.643,0,0,1,1.359-1.531,3.7,3.7,0,0,1,1.988-.539,3.565,3.565,0,0,1,2.793,1.2,4.6,4.6,0,0,1,1.066,3.18v.1a5.036,5.036,0,0,1-.473,2.215A3.589,3.589,0,0,1,53.9,47.609a3.743,3.743,0,0,1-2.02.547,3.556,3.556,0,0,1-2.785-1.2A4.575,4.575,0,0,1,48.031,43.8Zm1.453.172a3.616,3.616,0,0,0,.652,2.258,2.211,2.211,0,0,0,3.5-.012,3.955,3.955,0,0,0,.648-2.418,3.61,3.61,0,0,0-.66-2.254,2.1,2.1,0,0,0-1.754-.863,2.075,2.075,0,0,0-1.727.852A3.925,3.925,0,0,0,49.484,43.867Zm9.422-4.32.047,1.063a3.08,3.08,0,0,1,2.531-1.219q2.68,0,2.7,3.023V48H62.742V42.406a1.946,1.946,0,0,0-.418-1.352,1.675,1.675,0,0,0-1.277-.437,2.086,2.086,0,0,0-1.234.375,2.546,2.546,0,0,0-.828.984V48H57.539V39.547ZM71.586,48a3.036,3.036,0,0,1-.2-.891,3.225,3.225,0,0,1-2.406,1.047,2.984,2.984,0,0,1-2.051-.707,2.288,2.288,0,0,1-.8-1.793,2.39,2.39,0,0,1,1-2.051,4.733,4.733,0,0,1,2.824-.73h1.406v-.664A1.623,1.623,0,0,0,70.906,41a1.821,1.821,0,0,0-1.336-.449,2.107,2.107,0,0,0-1.3.391,1.151,1.151,0,0,0-.523.945H66.3a2,2,0,0,1,.449-1.223,3.066,3.066,0,0,1,1.219-.934,4.1,4.1,0,0,1,1.691-.344,3.342,3.342,0,0,1,2.289.73,2.635,2.635,0,0,1,.859,2.012v3.891a4.757,4.757,0,0,0,.3,1.852V48Zm-2.4-1.1a2.54,2.54,0,0,0,1.289-.352,2.127,2.127,0,0,0,.883-.914V43.9H70.227q-2.656,0-2.656,1.555a1.316,1.316,0,0,0,.453,1.063A1.742,1.742,0,0,0,69.188,46.9Zm10.8-1.141a1.064,1.064,0,0,0-.441-.91,4.249,4.249,0,0,0-1.539-.559,7.277,7.277,0,0,1-1.742-.562,2.479,2.479,0,0,1-.953-.781,1.869,1.869,0,0,1-.309-1.078,2.193,2.193,0,0,1,.879-1.758,3.432,3.432,0,0,1,2.246-.719,3.532,3.532,0,0,1,2.332.742,2.357,2.357,0,0,1,.895,1.9H79.906a1.3,1.3,0,0,0-.5-1.023,1.888,1.888,0,0,0-1.27-.43,1.976,1.976,0,0,0-1.234.344,1.082,1.082,0,0,0-.445.9.877.877,0,0,0,.414.789,5.1,5.1,0,0,0,1.5.508,7.8,7.8,0,0,1,1.754.578,2.558,2.558,0,0,1,1,.809,1.988,1.988,0,0,1,.324,1.152,2.163,2.163,0,0,1-.906,1.816,3.8,3.8,0,0,1-2.352.684,4.257,4.257,0,0,1-1.8-.359,2.922,2.922,0,0,1-1.223-1,2.42,2.42,0,0,1-.441-1.395h1.445a1.5,1.5,0,0,0,.582,1.152,2.258,2.258,0,0,0,1.434.426,2.331,2.331,0,0,0,1.316-.332A1.02,1.02,0,0,0,79.992,45.758ZM2.82,67.547V72H1.32V60.625h4.2a4.215,4.215,0,0,1,2.926.953A3.231,3.231,0,0,1,9.5,64.1a3.189,3.189,0,0,1-1.035,2.551,4.4,4.4,0,0,1-2.965.895Zm0-1.227h2.7a2.7,2.7,0,0,0,1.844-.567A2.075,2.075,0,0,0,8,64.113a2.143,2.143,0,0,0-.641-1.628A2.525,2.525,0,0,0,5.6,61.852H2.82Zm12.453-1.477a4.331,4.331,0,0,0-.711-.055A1.9,1.9,0,0,0,12.633,66v6H11.188V63.547h1.406l.023.977a2.251,2.251,0,0,1,2.016-1.133,1.477,1.477,0,0,1,.641.109Zm.789,2.852a4.993,4.993,0,0,1,.488-2.234A3.643,3.643,0,0,1,17.91,63.93a3.7,3.7,0,0,1,1.988-.539,3.565,3.565,0,0,1,2.793,1.2,4.6,4.6,0,0,1,1.066,3.18v.1a5.036,5.036,0,0,1-.473,2.215,3.589,3.589,0,0,1-1.352,1.527,3.743,3.743,0,0,1-2.02.547,3.556,3.556,0,0,1-2.785-1.2A4.575,4.575,0,0,1,16.063,67.8Zm1.453.172a3.616,3.616,0,0,0,.652,2.258,2.211,2.211,0,0,0,3.5-.012,3.955,3.955,0,0,0,.648-2.418,3.61,3.61,0,0,0-.66-2.254,2.1,2.1,0,0,0-1.754-.863,2.075,2.075,0,0,0-1.727.852A3.925,3.925,0,0,0,17.516,67.867ZM27.531,61.5v2.047h1.578v1.117H27.531v5.249a1.173,1.173,0,0,0,.211.763.888.888,0,0,0,.719.254,3.5,3.5,0,0,0,.688-.094V72a4.215,4.215,0,0,1-1.109.155,1.8,1.8,0,0,1-1.461-.586,2.517,2.517,0,0,1-.492-1.664V64.664H24.547V63.547h1.539V61.5ZM34.3,72.156a3.693,3.693,0,0,1-2.8-1.129,4.19,4.19,0,0,1-1.078-3.02v-.266a5.073,5.073,0,0,1,.48-2.246,3.748,3.748,0,0,1,1.344-1.547,3.378,3.378,0,0,1,1.871-.559,3.166,3.166,0,0,1,2.563,1.086,4.7,4.7,0,0,1,.914,3.109v.6H31.875a3,3,0,0,0,.73,2.02,2.3,2.3,0,0,0,1.777.77,2.517,2.517,0,0,0,1.3-.312,3.259,3.259,0,0,0,.93-.828l.883.688A3.55,3.55,0,0,1,34.3,72.156Zm-.18-7.578a1.928,1.928,0,0,0-1.469.637A3.1,3.1,0,0,0,31.922,67h4.234v-.109a2.753,2.753,0,0,0-.594-1.707A1.815,1.815,0,0,0,34.125,64.578Zm10.367,6.586a3.07,3.07,0,0,1-2.477.992,2.628,2.628,0,0,1-2.059-.785,3.4,3.4,0,0,1-.715-2.324v-5.5h1.445v5.461q0,1.922,1.563,1.922a2.163,2.163,0,0,0,2.2-1.234V63.547H45.9V72H44.523Zm8.523-1.406a1.064,1.064,0,0,0-.441-.91,4.249,4.249,0,0,0-1.539-.559,7.277,7.277,0,0,1-1.742-.562,2.479,2.479,0,0,1-.953-.781,1.869,1.869,0,0,1-.309-1.078,2.193,2.193,0,0,1,.879-1.758,3.432,3.432,0,0,1,2.246-.719,3.532,3.532,0,0,1,2.332.742,2.357,2.357,0,0,1,.895,1.9H52.93a1.3,1.3,0,0,0-.5-1.023,1.888,1.888,0,0,0-1.27-.43,1.976,1.976,0,0,0-1.234.344,1.082,1.082,0,0,0-.445.9.877.877,0,0,0,.414.789,5.1,5.1,0,0,0,1.5.508,7.8,7.8,0,0,1,1.754.578,2.558,2.558,0,0,1,1,.809,1.988,1.988,0,0,1,.324,1.152,2.163,2.163,0,0,1-.906,1.816,3.8,3.8,0,0,1-2.352.684,4.257,4.257,0,0,1-1.8-.359,2.922,2.922,0,0,1-1.223-1,2.42,2.42,0,0,1-.441-1.395h1.445a1.5,1.5,0,0,0,.582,1.152,2.258,2.258,0,0,0,1.434.426,2.331,2.331,0,0,0,1.316-.332A1.02,1.02,0,0,0,53.016,69.758Z" transform="translate(984 6187.8)" fill="#12263f"/>
    <path id="Trazado_915299" data-name="Trazado 915299" d="M9.688-3.609A4.185,4.185,0,0,1,8.355-.824a4.365,4.365,0,0,1-2.98.98,4.008,4.008,0,0,1-3.23-1.445A5.815,5.815,0,0,1,.93-5.156V-6.25A6.481,6.481,0,0,1,1.5-9.039,4.231,4.231,0,0,1,3.1-10.887a4.47,4.47,0,0,1,2.406-.645A4.11,4.11,0,0,1,8.414-10.52a4.235,4.235,0,0,1,1.273,2.8H8.18a3.268,3.268,0,0,0-.848-1.975A2.565,2.565,0,0,0,5.508-10.3,2.684,2.684,0,0,0,3.254-9.241a4.882,4.882,0,0,0-.816,3.026v1.1a5.018,5.018,0,0,0,.773,2.948A2.5,2.5,0,0,0,5.375-1.07a2.887,2.887,0,0,0,1.918-.566A3.143,3.143,0,0,0,8.18-3.609Zm1.438-.7a4.993,4.993,0,0,1,.488-2.234A3.643,3.643,0,0,1,12.973-8.07a3.7,3.7,0,0,1,1.988-.539,3.565,3.565,0,0,1,2.793,1.2,4.6,4.6,0,0,1,1.066,3.18v.1a5.036,5.036,0,0,1-.473,2.215A3.589,3.589,0,0,1,17-.391a3.743,3.743,0,0,1-2.02.547,3.556,3.556,0,0,1-2.785-1.2A4.575,4.575,0,0,1,11.125-4.2Zm1.453.172a3.616,3.616,0,0,0,.652,2.258,2.088,2.088,0,0,0,1.746.852,2.075,2.075,0,0,0,1.75-.863A3.955,3.955,0,0,0,17.375-4.3a3.61,3.61,0,0,0-.66-2.254,2.1,2.1,0,0,0-1.754-.863,2.075,2.075,0,0,0-1.727.852A3.925,3.925,0,0,0,12.578-4.133ZM24.719-7.156a4.331,4.331,0,0,0-.711-.055A1.9,1.9,0,0,0,22.078-6V0H20.633V-8.453h1.406l.023.977a2.251,2.251,0,0,1,2.016-1.133,1.477,1.477,0,0,1,.641.109Zm4.234,5.039,1.969-6.336h1.547L29.07,1.3q-.789,2.109-2.508,2.109l-.273-.023-.539-.1V2.117l.391.031a1.923,1.923,0,0,0,1.145-.3A2.148,2.148,0,0,0,27.961.766l.32-.859L25.266-8.453h1.578Zm6.172-6.336.047,1.063A3.08,3.08,0,0,1,37.7-8.609q2.68,0,2.7,3.023V0H38.961V-5.594a1.946,1.946,0,0,0-.418-1.352,1.675,1.675,0,0,0-1.277-.437,2.086,2.086,0,0,0-1.234.375,2.546,2.546,0,0,0-.828.984V0H33.758V-8.453ZM46.094.156A3.693,3.693,0,0,1,43.3-.973a4.19,4.19,0,0,1-1.078-3.02v-.266A5.073,5.073,0,0,1,42.7-6.5a3.748,3.748,0,0,1,1.344-1.547,3.378,3.378,0,0,1,1.871-.559,3.166,3.166,0,0,1,2.563,1.086,4.7,4.7,0,0,1,.914,3.109v.6H43.664a3,3,0,0,0,.73,2.02,2.3,2.3,0,0,0,1.777.77,2.517,2.517,0,0,0,1.3-.312,3.259,3.259,0,0,0,.93-.828l.883.688A3.55,3.55,0,0,1,46.094.156Zm-.18-7.578a1.928,1.928,0,0,0-1.469.637A3.1,3.1,0,0,0,43.711-5h4.234v-.109a2.753,2.753,0,0,0-.594-1.707A1.815,1.815,0,0,0,45.914-7.422Zm12.3,3.289a5.026,5.026,0,0,1-.891,3.113A2.846,2.846,0,0,1,54.938.156,2.947,2.947,0,0,1,52.461-.977L52.391,0H51.063V-12h1.445v4.477a2.93,2.93,0,0,1,2.414-1.086A2.863,2.863,0,0,1,57.34-7.445a5.177,5.177,0,0,1,.879,3.188ZM56.773-4.3a3.906,3.906,0,0,0-.57-2.281,1.888,1.888,0,0,0-1.641-.8,2.122,2.122,0,0,0-2.055,1.328V-2.4a2.181,2.181,0,0,0,2.07,1.328,1.878,1.878,0,0,0,1.617-.8A4.153,4.153,0,0,0,56.773-4.3ZM65.258,0a3.036,3.036,0,0,1-.2-.891A3.225,3.225,0,0,1,62.648.156,2.984,2.984,0,0,1,60.6-.551a2.287,2.287,0,0,1-.8-1.793,2.39,2.39,0,0,1,1-2.051,4.733,4.733,0,0,1,2.824-.73h1.406v-.664A1.623,1.623,0,0,0,64.578-7a1.821,1.821,0,0,0-1.336-.449,2.107,2.107,0,0,0-1.3.391,1.151,1.151,0,0,0-.523.945H59.969a2,2,0,0,1,.449-1.223,3.066,3.066,0,0,1,1.219-.934,4.1,4.1,0,0,1,1.691-.344,3.342,3.342,0,0,1,2.289.73,2.635,2.635,0,0,1,.859,2.012v3.891a4.757,4.757,0,0,0,.3,1.852V0Zm-2.4-1.1a2.54,2.54,0,0,0,1.289-.352,2.127,2.127,0,0,0,.883-.914V-4.1H63.9q-2.656,0-2.656,1.555A1.316,1.316,0,0,0,61.7-1.484,1.742,1.742,0,0,0,62.859-1.1Zm9.273.078a2.082,2.082,0,0,0,1.352-.469,1.649,1.649,0,0,0,.641-1.172h1.367a2.621,2.621,0,0,1-.5,1.383,3.293,3.293,0,0,1-1.23,1.047,3.55,3.55,0,0,1-1.629.391A3.482,3.482,0,0,1,69.387-1a4.59,4.59,0,0,1-1.02-3.152v-.242a5.089,5.089,0,0,1,.453-2.2,3.451,3.451,0,0,1,1.3-1.492,3.7,3.7,0,0,1,2-.531,3.39,3.39,0,0,1,2.363.852,3.043,3.043,0,0,1,1,2.211H74.125A1.992,1.992,0,0,0,73.5-6.895a1.932,1.932,0,0,0-1.379-.527,2.023,2.023,0,0,0-1.707.793,3.724,3.724,0,0,0-.605,2.293v.273a3.65,3.65,0,0,0,.6,2.25A2.033,2.033,0,0,0,72.133-1.023ZM79.078-10.5v2.047h1.578v1.117H79.078v5.249a1.173,1.173,0,0,0,.211.763.888.888,0,0,0,.719.254,3.5,3.5,0,0,0,.688-.094V0a4.215,4.215,0,0,1-1.109.155A1.8,1.8,0,0,1,78.125-.43a2.517,2.517,0,0,1-.492-1.664V-7.336H76.094V-8.453h1.539V-10.5ZM85.852.156a3.693,3.693,0,0,1-2.8-1.129,4.19,4.19,0,0,1-1.078-3.02v-.266a5.073,5.073,0,0,1,.48-2.246A3.748,3.748,0,0,1,83.8-8.051a3.378,3.378,0,0,1,1.871-.559,3.166,3.166,0,0,1,2.563,1.086,4.7,4.7,0,0,1,.914,3.109v.6H83.422a3,3,0,0,0,.73,2.02,2.3,2.3,0,0,0,1.777.77,2.517,2.517,0,0,0,1.3-.312,3.259,3.259,0,0,0,.93-.828l.883.688A3.55,3.55,0,0,1,85.852.156Zm-.18-7.578a1.928,1.928,0,0,0-1.469.637A3.1,3.1,0,0,0,83.469-5H87.7v-.109a2.753,2.753,0,0,0-.594-1.707A1.815,1.815,0,0,0,85.672-7.422Zm9.234.266a4.331,4.331,0,0,0-.711-.055A1.9,1.9,0,0,0,92.266-6V0H90.82V-8.453h1.406l.023.977a2.251,2.251,0,0,1,2.016-1.133,1.477,1.477,0,0,1,.641.109ZM97.8,0H96.359V-8.453H97.8ZM96.242-10.7a.863.863,0,0,1,.215-.594.807.807,0,0,1,.637-.242.819.819,0,0,1,.641.242.854.854,0,0,1,.219.594.826.826,0,0,1-.219.586.834.834,0,0,1-.641.234.821.821,0,0,1-.637-.234A.834.834,0,0,1,96.242-10.7Zm9.094,9.859a3.07,3.07,0,0,1-2.477.992A2.628,2.628,0,0,1,100.8-.629a3.4,3.4,0,0,1-.715-2.324v-5.5h1.445v5.461q0,1.922,1.563,1.922A2.163,2.163,0,0,0,105.3-2.3V-8.453h1.445V0h-1.375ZM110.3-8.453l.039.938a3.122,3.122,0,0,1,2.508-1.094,2.417,2.417,0,0,1,2.414,1.359,3.2,3.2,0,0,1,1.1-.984,3.242,3.242,0,0,1,1.6-.375q2.781,0,2.828,2.945V0h-1.445V-5.578a1.941,1.941,0,0,0-.414-1.355,1.823,1.823,0,0,0-1.391-.449,1.916,1.916,0,0,0-1.336.48,1.949,1.949,0,0,0-.617,1.293V0h-1.453V-5.539a1.613,1.613,0,0,0-1.8-1.844,1.934,1.934,0,0,0-1.945,1.211V0H108.93V-8.453Z" transform="translate(983 6350.8)" fill="#12263f"/>
    <path id="Trazado_915304" data-name="Trazado 915304" d="M18,0H152a18,18,0,0,1,0,36H18A18,18,0,0,1,18,0Z" transform="translate(430 6291.8)" fill="#fcedb6"/>
    <path id="Trazado_915305" data-name="Trazado 915305" d="M18,0H125a18,18,0,0,1,0,36H18A18,18,0,0,1,18,0Z" transform="translate(788.787 6223.701)" fill="#fddadb"/>
    <path id="Trazado_915300" data-name="Trazado 915300" d="M18,0H125a18,18,0,0,1,0,36H18A18,18,0,0,1,18,0Z" transform="translate(788.787 6351.701)" fill="#fddadb"/>
    <path id="Trazado_915306" data-name="Trazado 915306" d="M4.461-11.375,7-3.461l2.531-7.914h3.609V0h-2.75V-2.656l.266-5.437L7.906,0H6.094L3.336-8.1,3.6-2.656V0H.859V-11.375ZM17.539,0H14.9V-8.453h2.641Zm-2.8-10.641a1.186,1.186,0,0,1,.406-.927A1.527,1.527,0,0,1,16.2-11.93a1.527,1.527,0,0,1,1.055.362,1.186,1.186,0,0,1,.406.927,1.186,1.186,0,0,1-.406.927,1.527,1.527,0,0,1-1.055.362,1.527,1.527,0,0,1-1.055-.362A1.186,1.186,0,0,1,14.742-10.641Zm7.992,8.766a1.171,1.171,0,0,0,.859-.3,1.1,1.1,0,0,0,.3-.84h2.469a2.922,2.922,0,0,1-1,2.281A3.705,3.705,0,0,1,22.8.156,3.751,3.751,0,0,1,19.891-1a4.556,4.556,0,0,1-1.062-3.2v-.109A5.149,5.149,0,0,1,19.3-6.574a3.441,3.441,0,0,1,1.363-1.508,4.065,4.065,0,0,1,2.109-.527,3.658,3.658,0,0,1,2.617.914,3.242,3.242,0,0,1,.969,2.477H23.891a1.445,1.445,0,0,0-.32-1.008,1.106,1.106,0,0,0-.859-.352q-1.023,0-1.2,1.3a9.206,9.206,0,0,0-.055,1.141,3.616,3.616,0,0,0,.3,1.766A1.055,1.055,0,0,0,22.734-1.875Zm9.852-4.2-.867-.062a1.558,1.558,0,0,0-1.594.781V0H27.492V-8.453h2.469l.086,1.086A2.039,2.039,0,0,1,31.9-8.609a2.567,2.567,0,0,1,.734.094ZM32.922-4.3a4.989,4.989,0,0,1,.492-2.254,3.52,3.52,0,0,1,1.414-1.52,4.259,4.259,0,0,1,2.164-.531,3.887,3.887,0,0,1,2.992,1.176,4.512,4.512,0,0,1,1.094,3.2v.094A4.378,4.378,0,0,1,39.98-1,3.9,3.9,0,0,1,37.008.156a3.942,3.942,0,0,1-2.9-1.082,4.232,4.232,0,0,1-1.18-2.934Zm2.633.164a3.145,3.145,0,0,0,.367,1.719,1.223,1.223,0,0,0,1.086.547q1.406,0,1.438-2.164V-4.3q0-2.273-1.453-2.273-1.32,0-1.43,1.961Zm14.531-.016a5.152,5.152,0,0,1-.859,3.2A2.878,2.878,0,0,1,46.8.156,2.5,2.5,0,0,1,44.727-.867L44.617,0H42.258V-12h2.633v4.227a2.41,2.41,0,0,1,1.9-.836,2.879,2.879,0,0,1,2.438,1.133,5.179,5.179,0,0,1,.859,3.188Zm-2.641-.168a3.437,3.437,0,0,0-.324-1.735,1.093,1.093,0,0,0-1-.519,1.261,1.261,0,0,0-1.234.679v3.354a1.268,1.268,0,0,0,1.25.671,1.118,1.118,0,0,0,1.18-.9A6.5,6.5,0,0,0,47.445-4.324ZM54.023,0H51.383V-8.453h2.641Zm-2.8-10.641a1.186,1.186,0,0,1,.406-.927,1.527,1.527,0,0,1,1.055-.362,1.527,1.527,0,0,1,1.055.362,1.186,1.186,0,0,1,.406.927,1.186,1.186,0,0,1-.406.927,1.527,1.527,0,0,1-1.055.362,1.527,1.527,0,0,1-1.055-.362A1.186,1.186,0,0,1,51.227-10.641ZM55.313-4.3A4.989,4.989,0,0,1,55.8-6.559a3.52,3.52,0,0,1,1.414-1.52,4.259,4.259,0,0,1,2.164-.531,3.887,3.887,0,0,1,2.992,1.176,4.512,4.512,0,0,1,1.094,3.2v.094A4.378,4.378,0,0,1,62.371-1,3.9,3.9,0,0,1,59.4.156,3.942,3.942,0,0,1,56.5-.926a4.232,4.232,0,0,1-1.18-2.934Zm2.633.164a3.145,3.145,0,0,0,.367,1.719,1.223,1.223,0,0,0,1.086.547q1.406,0,1.438-2.164V-4.3q0-2.273-1.453-2.273-1.32,0-1.43,1.961Zm9.75-6.414v2.1h1.391v1.828H67.7v3.867a.987.987,0,0,0,.172.664.922.922,0,0,0,.68.188,3.862,3.862,0,0,0,.656-.047V-.07a4.859,4.859,0,0,1-1.484.227,2.758,2.758,0,0,1-2.008-.641,2.626,2.626,0,0,1-.648-1.945v-4.2H63.984V-8.453h1.078v-2.1ZM74.883,0a2.973,2.973,0,0,1-.25-.758A2.448,2.448,0,0,1,72.6.156,3,3,0,0,1,70.57-.566a2.3,2.3,0,0,1-.836-1.816A2.364,2.364,0,0,1,70.75-4.461a5.174,5.174,0,0,1,2.953-.7h.813v-.448q0-1.17-1.008-1.17a.824.824,0,0,0-.937.926H69.938a2.36,2.36,0,0,1,1.043-1.99,4.383,4.383,0,0,1,2.66-.765A3.843,3.843,0,0,1,76.2-7.82a2.743,2.743,0,0,1,.961,2.164v3.742a3.832,3.832,0,0,0,.359,1.781V0ZM73.234-1.719a1.469,1.469,0,0,0,.816-.211,1.322,1.322,0,0,0,.465-.477V-3.758H73.75q-1.375,0-1.375,1.234a.754.754,0,0,0,.242.582A.876.876,0,0,0,73.234-1.719ZM85.016-8.453l.086.992a2.867,2.867,0,0,1,2.414-1.148,2.412,2.412,0,0,1,1.973.789,3.757,3.757,0,0,1,.676,2.375V0H87.523V-5.336a1.426,1.426,0,0,0-.258-.941,1.193,1.193,0,0,0-.937-.3,1.256,1.256,0,0,0-1.148.609V0H82.547V-8.453ZM91.289-4.3a4.989,4.989,0,0,1,.492-2.254A3.52,3.52,0,0,1,93.2-8.078a4.259,4.259,0,0,1,2.164-.531,3.887,3.887,0,0,1,2.992,1.176,4.512,4.512,0,0,1,1.094,3.2v.094A4.378,4.378,0,0,1,98.348-1,3.9,3.9,0,0,1,95.375.156a3.942,3.942,0,0,1-2.9-1.082A4.232,4.232,0,0,1,91.3-3.859Zm2.633.164a3.145,3.145,0,0,0,.367,1.719,1.223,1.223,0,0,0,1.086.547q1.406,0,1.438-2.164V-4.3q0-2.273-1.453-2.273-1.32,0-1.43,1.961Zm11.8-1.93-.867-.062a1.558,1.558,0,0,0-1.594.781V0h-2.633V-8.453h2.469l.086,1.086a2.039,2.039,0,0,1,1.852-1.242,2.567,2.567,0,0,1,.734.094Zm3.438-2.383.086.992a2.906,2.906,0,0,1,2.414-1.148,2.14,2.14,0,0,1,2.164,1.273A2.813,2.813,0,0,1,116.3-8.609q2.57,0,2.641,3.109V0H116.3V-5.336a1.611,1.611,0,0,0-.219-.945.931.931,0,0,0-.8-.3,1.247,1.247,0,0,0-1.164.7l.008.109V0h-2.641V-5.32a1.694,1.694,0,0,0-.211-.961.929.929,0,0,0-.8-.3,1.263,1.263,0,0,0-1.156.7V0h-2.633V-8.453ZM125.211,0a2.973,2.973,0,0,1-.25-.758,2.448,2.448,0,0,1-2.031.914A3,3,0,0,1,120.9-.566a2.3,2.3,0,0,1-.836-1.816,2.364,2.364,0,0,1,1.016-2.078,5.174,5.174,0,0,1,2.953-.7h.813v-.448q0-1.17-1.008-1.17a.824.824,0,0,0-.937.926h-2.633a2.36,2.36,0,0,1,1.043-1.99,4.383,4.383,0,0,1,2.66-.765,3.843,3.843,0,0,1,2.555.789,2.743,2.743,0,0,1,.961,2.164v3.742a3.832,3.832,0,0,0,.359,1.781V0Zm-1.648-1.719a1.469,1.469,0,0,0,.816-.211,1.322,1.322,0,0,0,.465-.477V-3.758h-.766q-1.375,0-1.375,1.234a.754.754,0,0,0,.242.582A.876.876,0,0,0,123.563-1.719ZM131.719,0h-2.641V-12h2.641Z" transform="translate(450 6315.8)" fill="#12263f"/>
    <path id="Trazado_915307" data-name="Trazado 915307" d="M10.172-1.406A4.409,4.409,0,0,1,8.32-.273a7.986,7.986,0,0,1-2.672.43,4.764,4.764,0,0,1-3.57-1.367,5.534,5.534,0,0,1-1.43-3.8L.641-6a6.788,6.788,0,0,1,.594-2.934,4.409,4.409,0,0,1,1.7-1.93,4.807,4.807,0,0,1,2.559-.676,5.039,5.039,0,0,1,3.3.973,4.121,4.121,0,0,1,1.371,2.9H7.523a2.157,2.157,0,0,0-.609-1.359A1.966,1.966,0,0,0,5.586-9.43a1.789,1.789,0,0,0-1.594.875,4.672,4.672,0,0,0-.57,2.5v.688A4.574,4.574,0,0,0,4-2.809a2.059,2.059,0,0,0,1.832.855A2.3,2.3,0,0,0,7.43-2.43V-4.2H5.523V-6.078h4.648ZM16.758-6.07l-.867-.062a1.558,1.558,0,0,0-1.594.781V0H11.664V-8.453h2.469l.086,1.086A2.039,2.039,0,0,1,16.07-8.609a2.567,2.567,0,0,1,.734.094ZM22.234,0a2.973,2.973,0,0,1-.25-.758,2.448,2.448,0,0,1-2.031.914,3,3,0,0,1-2.031-.723,2.3,2.3,0,0,1-.836-1.816A2.364,2.364,0,0,1,18.1-4.461a5.174,5.174,0,0,1,2.953-.7h.813v-.448q0-1.17-1.008-1.17a.824.824,0,0,0-.937.926H17.289a2.36,2.36,0,0,1,1.043-1.99,4.383,4.383,0,0,1,2.66-.765,3.843,3.843,0,0,1,2.555.789,2.743,2.743,0,0,1,.961,2.164v3.742a3.832,3.832,0,0,0,.359,1.781V0ZM20.586-1.719A1.469,1.469,0,0,0,21.4-1.93a1.322,1.322,0,0,0,.465-.477V-3.758H21.1q-1.375,0-1.375,1.234a.754.754,0,0,0,.242.582A.876.876,0,0,0,20.586-1.719Zm7.867-6.734.086.992a2.906,2.906,0,0,1,2.414-1.148,2.14,2.14,0,0,1,2.164,1.273A2.813,2.813,0,0,1,35.6-8.609q2.57,0,2.641,3.109V0H35.6V-5.336a1.611,1.611,0,0,0-.219-.945.931.931,0,0,0-.8-.3,1.247,1.247,0,0,0-1.164.7l.008.109V0H30.789V-5.32a1.694,1.694,0,0,0-.211-.961.929.929,0,0,0-.8-.3,1.263,1.263,0,0,0-1.156.7V0H25.984V-8.453Zm13.711,0,.086.992a2.867,2.867,0,0,1,2.414-1.148,2.412,2.412,0,0,1,1.973.789,3.757,3.757,0,0,1,.676,2.375V0H44.672V-5.336a1.426,1.426,0,0,0-.258-.941,1.193,1.193,0,0,0-.937-.3,1.256,1.256,0,0,0-1.148.609V0H39.7V-8.453ZM52.859.156A4.345,4.345,0,0,1,49.711-1a4.006,4.006,0,0,1-1.2-3.02v-.219a5.191,5.191,0,0,1,.48-2.289,3.516,3.516,0,0,1,1.4-1.535,4.233,4.233,0,0,1,2.188-.543A3.659,3.659,0,0,1,55.391-7.5a4.344,4.344,0,0,1,1.031,3.082V-3.4H51.188A1.9,1.9,0,0,0,51.8-2.281a1.836,1.836,0,0,0,1.234.406,2.366,2.366,0,0,0,1.953-.875l1.2,1.422A3.363,3.363,0,0,1,54.8-.246,4.713,4.713,0,0,1,52.859.156Zm-.3-6.734q-1.156,0-1.375,1.531h2.656v-.2a1.3,1.3,0,0,0-.32-.98A1.275,1.275,0,0,0,52.563-6.578Zm4.609,2.289a5.708,5.708,0,0,1,.422-2.266A3.4,3.4,0,0,1,58.8-8.074a3.192,3.192,0,0,1,1.836-.535,2.538,2.538,0,0,1,2.063.891l.094-.734h2.391V-.32a3.564,3.564,0,0,1-.52,1.941,3.334,3.334,0,0,1-1.5,1.266,5.528,5.528,0,0,1-2.281.441,4.769,4.769,0,0,1-1.8-.352,3.251,3.251,0,0,1-1.332-.914l1.1-1.547a2.414,2.414,0,0,0,1.938.867,1.568,1.568,0,0,0,1.75-1.8V-.68a2.472,2.472,0,0,1-1.914.836,3.055,3.055,0,0,1-2.5-1.184A4.9,4.9,0,0,1,57.172-4.2Zm2.641.164A3.007,3.007,0,0,0,60.2-2.48a1.232,1.232,0,0,0,1.094.605,1.4,1.4,0,0,0,1.242-.57V-6a1.363,1.363,0,0,0-1.227-.578,1.241,1.241,0,0,0-1.1.629A3.429,3.429,0,0,0,59.813-4.125ZM71.445,0a2.973,2.973,0,0,1-.25-.758,2.448,2.448,0,0,1-2.031.914,3,3,0,0,1-2.031-.723A2.3,2.3,0,0,1,66.3-2.383a2.364,2.364,0,0,1,1.016-2.078,5.174,5.174,0,0,1,2.953-.7h.813v-.448q0-1.17-1.008-1.17a.824.824,0,0,0-.937.926H66.5a2.36,2.36,0,0,1,1.043-1.99,4.383,4.383,0,0,1,2.66-.765,3.843,3.843,0,0,1,2.555.789,2.743,2.743,0,0,1,.961,2.164v3.742a3.832,3.832,0,0,0,.359,1.781V0ZM69.8-1.719a1.469,1.469,0,0,0,.816-.211,1.322,1.322,0,0,0,.465-.477V-3.758h-.766q-1.375,0-1.375,1.234a.754.754,0,0,0,.242.582A.876.876,0,0,0,69.8-1.719Zm8.445-8.836v2.1h1.391v1.828H78.242v3.867a.987.987,0,0,0,.172.664.922.922,0,0,0,.68.188,3.862,3.862,0,0,0,.656-.047V-.07a4.859,4.859,0,0,1-1.484.227,2.758,2.758,0,0,1-2.008-.641,2.626,2.626,0,0,1-.648-1.945v-4.2H74.531V-8.453h1.078v-2.1ZM83.445,0H80.8V-8.453h2.641Zm-2.8-10.641a1.186,1.186,0,0,1,.406-.927,1.527,1.527,0,0,1,1.055-.362,1.527,1.527,0,0,1,1.055.362,1.186,1.186,0,0,1,.406.927,1.186,1.186,0,0,1-.406.927,1.527,1.527,0,0,1-1.055.362,1.527,1.527,0,0,1-1.055-.362A1.186,1.186,0,0,1,80.648-10.641Zm7.789,7.508,1.336-5.32h2.773L89.789,0H87.1L84.344-8.453h2.781ZM97.977,0a2.973,2.973,0,0,1-.25-.758A2.448,2.448,0,0,1,95.7.156a3,3,0,0,1-2.031-.723,2.3,2.3,0,0,1-.836-1.816,2.364,2.364,0,0,1,1.016-2.078,5.174,5.174,0,0,1,2.953-.7h.813v-.448q0-1.17-1.008-1.17a.824.824,0,0,0-.937.926H93.031a2.36,2.36,0,0,1,1.043-1.99,4.383,4.383,0,0,1,2.66-.765,3.843,3.843,0,0,1,2.555.789,2.743,2.743,0,0,1,.961,2.164v3.742a3.832,3.832,0,0,0,.359,1.781V0ZM96.328-1.719a1.469,1.469,0,0,0,.816-.211,1.322,1.322,0,0,0,.465-.477V-3.758h-.766q-1.375,0-1.375,1.234a.754.754,0,0,0,.242.582A.876.876,0,0,0,96.328-1.719Zm9.8-.656a.608.608,0,0,0-.352-.539,5.348,5.348,0,0,0-1.336-.422,6.092,6.092,0,0,1-1.625-.574,2.722,2.722,0,0,1-.977-.863,2.061,2.061,0,0,1-.336-1.164,2.336,2.336,0,0,1,.961-1.918,3.958,3.958,0,0,1,2.516-.754,4.386,4.386,0,0,1,2.688.758,2.37,2.37,0,0,1,1.016,1.992h-2.641q0-1.016-1.07-1.016a1.061,1.061,0,0,0-.7.23A.714.714,0,0,0,104-6.07a.655.655,0,0,0,.344.57,3.248,3.248,0,0,0,1.1.359,9.486,9.486,0,0,1,1.324.336,2.406,2.406,0,0,1,1.906,2.352A2.214,2.214,0,0,1,107.645-.57a4.505,4.505,0,0,1-2.66.727,4.6,4.6,0,0,1-1.937-.391A3.24,3.24,0,0,1,101.719-1.3a2.406,2.406,0,0,1-.477-1.414H103.7a1.017,1.017,0,0,0,.391.855,1.607,1.607,0,0,0,.961.27,1.264,1.264,0,0,0,.809-.219A.7.7,0,0,0,106.133-2.375Z" transform="translate(805.787 6248.701)" fill="#12263f"/>
    <path id="Trazado_915301" data-name="Trazado 915301" d="M10.172-1.406A4.409,4.409,0,0,1,8.32-.273a7.986,7.986,0,0,1-2.672.43,4.764,4.764,0,0,1-3.57-1.367,5.534,5.534,0,0,1-1.43-3.8L.641-6a6.788,6.788,0,0,1,.594-2.934,4.409,4.409,0,0,1,1.7-1.93,4.807,4.807,0,0,1,2.559-.676,5.039,5.039,0,0,1,3.3.973,4.121,4.121,0,0,1,1.371,2.9H7.523a2.157,2.157,0,0,0-.609-1.359A1.966,1.966,0,0,0,5.586-9.43a1.789,1.789,0,0,0-1.594.875,4.672,4.672,0,0,0-.57,2.5v.688A4.574,4.574,0,0,0,4-2.809a2.059,2.059,0,0,0,1.832.855A2.3,2.3,0,0,0,7.43-2.43V-4.2H5.523V-6.078h4.648ZM16.758-6.07l-.867-.062a1.558,1.558,0,0,0-1.594.781V0H11.664V-8.453h2.469l.086,1.086A2.039,2.039,0,0,1,16.07-8.609a2.567,2.567,0,0,1,.734.094ZM22.234,0a2.973,2.973,0,0,1-.25-.758,2.448,2.448,0,0,1-2.031.914,3,3,0,0,1-2.031-.723,2.3,2.3,0,0,1-.836-1.816A2.364,2.364,0,0,1,18.1-4.461a5.174,5.174,0,0,1,2.953-.7h.813v-.448q0-1.17-1.008-1.17a.824.824,0,0,0-.937.926H17.289a2.36,2.36,0,0,1,1.043-1.99,4.383,4.383,0,0,1,2.66-.765,3.843,3.843,0,0,1,2.555.789,2.743,2.743,0,0,1,.961,2.164v3.742a3.832,3.832,0,0,0,.359,1.781V0ZM20.586-1.719A1.469,1.469,0,0,0,21.4-1.93a1.322,1.322,0,0,0,.465-.477V-3.758H21.1q-1.375,0-1.375,1.234a.754.754,0,0,0,.242.582A.876.876,0,0,0,20.586-1.719Zm7.867-6.734.086.992a2.906,2.906,0,0,1,2.414-1.148,2.14,2.14,0,0,1,2.164,1.273A2.813,2.813,0,0,1,35.6-8.609q2.57,0,2.641,3.109V0H35.6V-5.336a1.611,1.611,0,0,0-.219-.945.931.931,0,0,0-.8-.3,1.247,1.247,0,0,0-1.164.7l.008.109V0H30.789V-5.32a1.694,1.694,0,0,0-.211-.961.929.929,0,0,0-.8-.3,1.263,1.263,0,0,0-1.156.7V0H25.984V-8.453ZM47.594-4.164a5.1,5.1,0,0,1-.887,3.145A2.843,2.843,0,0,1,44.313.156,2.437,2.437,0,0,1,42.4-.7V3.25H39.766v-11.7h2.461l.078.781A2.437,2.437,0,0,1,44.3-8.609a2.866,2.866,0,0,1,2.43,1.152,5.16,5.16,0,0,1,.867,3.168Zm-2.633-.164q0-2.25-1.312-2.25a1.239,1.239,0,0,0-1.25.672v3.328a1.279,1.279,0,0,0,1.266.7q1.258,0,1.3-2.172Zm3.461.023a4.989,4.989,0,0,1,.492-2.254,3.52,3.52,0,0,1,1.414-1.52,4.259,4.259,0,0,1,2.164-.531,3.887,3.887,0,0,1,2.992,1.176,4.512,4.512,0,0,1,1.094,3.2v.094A4.378,4.378,0,0,1,55.48-1,3.9,3.9,0,0,1,52.508.156a3.942,3.942,0,0,1-2.9-1.082,4.232,4.232,0,0,1-1.18-2.934Zm2.633.164a3.145,3.145,0,0,0,.367,1.719,1.223,1.223,0,0,0,1.086.547q1.406,0,1.438-2.164V-4.3q0-2.273-1.453-2.273-1.32,0-1.43,1.961ZM62.164-2.375a.608.608,0,0,0-.352-.539,5.348,5.348,0,0,0-1.336-.422,6.092,6.092,0,0,1-1.625-.574,2.722,2.722,0,0,1-.977-.863,2.061,2.061,0,0,1-.336-1.164A2.336,2.336,0,0,1,58.5-7.855a3.958,3.958,0,0,1,2.516-.754,4.386,4.386,0,0,1,2.688.758,2.37,2.37,0,0,1,1.016,1.992H62.078q0-1.016-1.07-1.016a1.061,1.061,0,0,0-.7.23.714.714,0,0,0-.281.574.655.655,0,0,0,.344.57,3.248,3.248,0,0,0,1.1.359A9.485,9.485,0,0,1,62.8-4.8,2.406,2.406,0,0,1,64.7-2.453,2.214,2.214,0,0,1,63.676-.57a4.505,4.505,0,0,1-2.66.727,4.6,4.6,0,0,1-1.937-.391A3.24,3.24,0,0,1,57.75-1.3a2.406,2.406,0,0,1-.477-1.414h2.461a1.017,1.017,0,0,0,.391.855,1.607,1.607,0,0,0,.961.27,1.264,1.264,0,0,0,.809-.219A.7.7,0,0,0,62.164-2.375ZM68.711,0H66.07V-8.453h2.641Zm-2.8-10.641a1.186,1.186,0,0,1,.406-.927,1.527,1.527,0,0,1,1.055-.362,1.527,1.527,0,0,1,1.055.362,1.186,1.186,0,0,1,.406.927,1.186,1.186,0,0,1-.406.927,1.527,1.527,0,0,1-1.055.362,1.527,1.527,0,0,1-1.055-.362A1.186,1.186,0,0,1,65.914-10.641Zm7.484.086v2.1h1.391v1.828H73.4v3.867a.987.987,0,0,0,.172.664.922.922,0,0,0,.68.188,3.862,3.862,0,0,0,.656-.047V-.07a4.859,4.859,0,0,1-1.484.227,2.758,2.758,0,0,1-2.008-.641,2.626,2.626,0,0,1-.648-1.945v-4.2H69.688V-8.453h1.078v-2.1ZM78.6,0H75.961V-8.453H78.6ZM75.8-10.641a1.186,1.186,0,0,1,.406-.927,1.527,1.527,0,0,1,1.055-.362,1.527,1.527,0,0,1,1.055.362,1.186,1.186,0,0,1,.406.927,1.186,1.186,0,0,1-.406.927,1.527,1.527,0,0,1-1.055.362,1.527,1.527,0,0,1-1.055-.362A1.186,1.186,0,0,1,75.8-10.641Zm7.789,7.508,1.336-5.32H87.7L84.945,0H82.258L79.5-8.453h2.781ZM93.133,0a2.973,2.973,0,0,1-.25-.758,2.448,2.448,0,0,1-2.031.914A3,3,0,0,1,88.82-.566a2.3,2.3,0,0,1-.836-1.816A2.364,2.364,0,0,1,89-4.461a5.174,5.174,0,0,1,2.953-.7h.813v-.448q0-1.17-1.008-1.17a.824.824,0,0,0-.937.926H88.188a2.36,2.36,0,0,1,1.043-1.99,4.383,4.383,0,0,1,2.66-.765,3.843,3.843,0,0,1,2.555.789,2.743,2.743,0,0,1,.961,2.164v3.742a3.832,3.832,0,0,0,.359,1.781V0ZM91.484-1.719A1.469,1.469,0,0,0,92.3-1.93a1.322,1.322,0,0,0,.465-.477V-3.758H92q-1.375,0-1.375,1.234a.754.754,0,0,0,.242.582A.876.876,0,0,0,91.484-1.719Zm9.8-.656a.608.608,0,0,0-.352-.539A5.348,5.348,0,0,0,99.6-3.336a6.092,6.092,0,0,1-1.625-.574A2.722,2.722,0,0,1,97-4.773a2.061,2.061,0,0,1-.336-1.164,2.336,2.336,0,0,1,.961-1.918,3.958,3.958,0,0,1,2.516-.754,4.386,4.386,0,0,1,2.688.758,2.37,2.37,0,0,1,1.016,1.992H101.2q0-1.016-1.07-1.016a1.061,1.061,0,0,0-.7.23.714.714,0,0,0-.281.574.655.655,0,0,0,.344.57,3.248,3.248,0,0,0,1.1.359,9.486,9.486,0,0,1,1.324.336,2.406,2.406,0,0,1,1.906,2.352A2.214,2.214,0,0,1,102.8-.57a4.505,4.505,0,0,1-2.66.727A4.6,4.6,0,0,1,98.2-.234,3.24,3.24,0,0,1,96.875-1.3,2.406,2.406,0,0,1,96.4-2.711h2.461a1.017,1.017,0,0,0,.391.855,1.607,1.607,0,0,0,.961.27,1.264,1.264,0,0,0,.809-.219A.7.7,0,0,0,101.289-2.375Z" transform="translate(806.787 6375.701)" fill="#12263f"/>
    <g id="Grupo_1103062" data-name="Grupo 1103062" transform="translate(610.254 6235.203)">
      <g id="Grupo_1103055" data-name="Grupo 1103055" transform="translate(0 -0.002)" clip-path="url(#clip-path)">
        <path id="Trazado_876229" data-name="Trazado 876229" d="M20.07.234C14.478-1.038,8.768,3,6.985,8.261c-1.032,2.537-.874,5.445-.9,8.111-.131,8.843-.059,18.389-.224,27.173a12.056,12.056,0,0,1-2.6,6.37C2.7,50.595.517,53.253,0,53.881c.491.553,1.647,1.782,2.144,2.347A12.2,12.2,0,0,1,5.449,64.96c.014,6.114.038,12.248.1,18.36l.065,7.73c-.025,2.607,0,5.561,1.134,8.053,2.029,5.124,7.9,8.779,13.32,7.407-4.894-.934-9.22-3.7-11.158-8.308-.969-2.306-.861-4.624-.824-7.152l.065-7.73q.075-7.731.092-15.461c0-.665.008-2.243.009-2.9A15.05,15.05,0,0,0,4.274,54.3l-.463-.514L5.5,51.7c2.79-3.316,3.471-7.788,3.222-11.926-.005-7.539-.093-15.818-.155-23.407,0-1.041-.054-2.879-.008-3.852C8.659,6.191,14.164,1.485,20.07.234" transform="translate(0 0.002)" fill="#12263f"/>
      </g>
    </g>
    <g id="Grupo_1103058" data-name="Grupo 1103058" transform="translate(941.93 6164.999)">
      <g id="Grupo_1103055-2" data-name="Grupo 1103055" transform="translate(0 -0.002)" clip-path="url(#clip-path)">
        <path id="Trazado_876229-2" data-name="Trazado 876229" d="M20.07.234C14.478-1.038,8.768,3,6.985,8.261c-1.032,2.537-.874,5.445-.9,8.111-.131,8.843-.059,18.389-.224,27.173a12.056,12.056,0,0,1-2.6,6.37C2.7,50.595.517,53.253,0,53.881c.491.553,1.647,1.782,2.144,2.347A12.2,12.2,0,0,1,5.449,64.96c.014,6.114.038,12.248.1,18.36l.065,7.73c-.025,2.607,0,5.561,1.134,8.053,2.029,5.124,7.9,8.779,13.32,7.407-4.894-.934-9.22-3.7-11.158-8.308-.969-2.306-.861-4.624-.824-7.152l.065-7.73q.075-7.731.092-15.461c0-.665.008-2.243.009-2.9A15.05,15.05,0,0,0,4.274,54.3l-.463-.514L5.5,51.7c2.79-3.316,3.471-7.788,3.222-11.926-.005-7.539-.093-15.818-.155-23.407,0-1.041-.054-2.879-.008-3.852C8.659,6.191,14.164,1.485,20.07.234" transform="translate(0 0.002)" fill="#12263f"/>
      </g>
    </g>
    <g id="Grupo_1103063" data-name="Grupo 1103063" transform="translate(941.93 6311.802)">
      <g id="Grupo_1103055-3" data-name="Grupo 1103055" transform="translate(0 -0.002)" clip-path="url(#clip-path-3)">
        <path id="Trazado_876229-3" data-name="Trazado 876229" d="M20.07.144C14.478-.641,8.768,1.851,6.985,5.1c-1.032,1.565-.874,3.36-.9,5-.131,5.456-.059,11.347-.224,16.767a6.351,6.351,0,0,1-2.6,3.93c-.56.42-2.74,2.06-3.257,2.447.491.341,1.647,1.1,2.144,1.448,2.221,1.442,3.4,3.406,3.305,5.388.014,3.772.038,7.557.1,11.329l.065,4.77A7.783,7.783,0,0,0,6.75,61.15c2.029,3.162,7.9,5.417,13.32,4.57-4.894-.576-9.22-2.286-11.158-5.126-.969-1.423-.861-2.853-.824-4.413l.065-4.77q.075-4.77.092-9.54c0-.41.008-1.384.009-1.789.13-2.4-1.323-4.827-3.982-6.581l-.463-.317L5.5,31.9a7.73,7.73,0,0,0,3.222-7.359c-.005-4.652-.093-9.76-.155-14.443,0-.642-.054-1.777-.008-2.377.1-3.9,5.606-6.809,11.512-7.58" transform="translate(0 0.002)" fill="#12263f"/>
      </g>
    </g>
    <g id="Grupo_1103061" data-name="Grupo 1103061" transform="translate(746.965 6202.9)">
      <g id="Grupo_1103055-4" data-name="Grupo 1103055" transform="translate(0 -0.002)" clip-path="url(#clip-path-4)">
        <path id="Trazado_876229-4" data-name="Trazado 876229" d="M20.07.383c-5.592-2.071-11.3,4.5-13.085,13.061-1.032,4.128-.874,8.861-.9,13.2-.131,14.39-.059,29.926-.224,44.219a27.414,27.414,0,0,1-2.6,10.366C2.7,82.335.517,86.662,0,87.682c.491.9,1.647,2.9,2.144,3.82a27.952,27.952,0,0,1,3.305,14.21c.014,9.949.038,19.931.1,29.878l.065,12.58c-.025,4.242,0,9.049,1.134,13.1,2.029,8.338,7.9,14.287,13.32,12.053-4.894-1.52-9.22-6.028-11.158-13.52-.969-3.753-.861-7.525-.824-11.639l.065-12.58q.075-12.58.092-25.16c0-1.081.008-3.651.009-4.717.13-6.333-1.323-12.731-3.982-17.355l-.463-.836L5.5,84.141c2.79-5.4,3.471-12.673,3.222-19.408-.005-12.269-.093-25.741-.155-38.091,0-1.694-.054-4.686-.008-6.269.1-10.3,5.606-17.956,11.512-19.991" transform="translate(0 0.002)" fill="#12263f"/>
      </g>
    </g>
    <g id="Grupo_1103076" data-name="Grupo 1103076" transform="translate(-764.833 5822.3)">
      <g id="Grupo_1098742" data-name="Grupo 1098742" transform="translate(1251.333 413)">
        <g id="Rectángulo_400898" data-name="Rectángulo 400898" transform="translate(0)" fill="#fff" stroke="#fff" stroke-width="3" opacity="0.859">
          <rect width="49.644" height="49.644" rx="24.822" stroke="none"/>
          <rect x="1.5" y="1.5" width="46.644" height="46.644" rx="23.322" fill="none"/>
        </g>
        <g id="Rectángulo_400907" data-name="Rectángulo 400907" transform="translate(0)" fill="none" stroke="#fff" stroke-width="3">
          <rect width="49.644" height="49.644" rx="24.822" stroke="none"/>
          <rect x="1.5" y="1.5" width="46.644" height="46.644" rx="23.322" fill="none"/>
        </g>
      </g>
      <path id="Trazado_126669" data-name="Trazado 126669" d="M860.517,1918.275a10.837,10.837,0,0,1,15.344,15.193c2.167,3.1,1.286,5.41-2.333,6.042A3.47,3.47,0,0,1,870.01,1943a3.516,3.516,0,0,1-3.514,3.53c-.662,3.51-3.064,4.468-5.922,2.384a3.444,3.444,0,0,1-5.92-2.361c-2.461-.515-3.094-1.147-3.515-3.535a3.493,3.493,0,0,1-3.51-3.528,3.347,3.347,0,0,1-3.221-2.123,3.412,3.412,0,0,1,.866-3.778,11.1,11.1,0,0,1-2.365-9.049,10.362,10.362,0,0,1,3.315-6.027A10.986,10.986,0,0,1,860.517,1918.275Zm.4,22.022c.14.015.287.026.433.047a3.128,3.128,0,0,1,2.746,2.057,4.671,4.671,0,0,0,1.3,1.851,1.527,1.527,0,0,0,2.3.053,1.571,1.571,0,0,0,.028-2.351c-.142-.151-.292-.294-.439-.441-1.693-1.693-3.4-3.376-5.065-5.092a1.142,1.142,0,0,1-.3-.884.922.922,0,0,1,.646-.592,1.354,1.354,0,0,1,.914.393c1.819,1.779,3.608,3.589,5.411,5.385a1.485,1.485,0,0,0,1.947.29,1.572,1.572,0,0,0,.367-2.606c-1.819-1.833-3.652-3.653-5.474-5.482-.483-.485-.481-.99-.018-1.354.4-.316.787-.265,1.242.188q2.2,2.2,4.4,4.4c.386.387.761.786,1.164,1.155a1.747,1.747,0,0,0,2.364-.062,1.4,1.4,0,0,0,.133-2.068,7.575,7.575,0,0,0-.86-.971c-.9-.883-1.828-1.743-2.728-2.629-.179-.176-.411-.442-.389-.642a1.119,1.119,0,0,1,.435-.812,1.074,1.074,0,0,1,.952.115c.748.625,1.423,1.338,2.148,2.039a9.121,9.121,0,0,0-2.953-13.912,9.038,9.038,0,0,0-10.161,1.385c-2.028,1.915-3.969,3.921-5.922,5.914a1.845,1.845,0,0,0-.448.993,1.655,1.655,0,0,0,1.014,1.619,1.492,1.492,0,0,0,1.8-.379q2.628-2.61,5.241-5.235c.7-.7,1.043-.724,1.756-.023,1.424,1.4,2.822,2.829,4.222,4.254.455.463.479.909.105,1.283s-.86.354-1.329-.112q-1.744-1.735-3.48-3.477c-.128-.128-.267-.244-.481-.438a5.955,5.955,0,0,1-.411.522q-2.194,2.2-4.4,4.4a3.187,3.187,0,0,1-2.186,1.048,3.628,3.628,0,0,1-3.3-2.168,3.027,3.027,0,0,1,.747-3.565c1.484-1.5,2.984-2.988,4.476-4.482.127-.127.242-.265.362-.4a9.132,9.132,0,0,0-11.976.355c-3.915,3.648-3.238,8.859-.664,12.518.571-.6,1.1-1.22,1.7-1.758a3.307,3.307,0,0,1,5.45,1.792c.061.287.1.58.144.867a3.443,3.443,0,0,1,2.478,1.008,3.559,3.559,0,0,1,1.009,2.48C859.6,1937.025,860.553,1937.977,860.914,1940.3Zm-3.631-1.811a3.437,3.437,0,0,0-.868.483c-1.037.984-2.046,2-3.04,3.026a1.659,1.659,0,0,0,.006,2.338,1.611,1.611,0,0,0,2.288-.021c1.029-.993,2.031-2.013,3.035-3.031a1.422,1.422,0,0,0,.31-1.711A1.881,1.881,0,0,0,857.284,1938.487Zm-.979,8.129a1.869,1.869,0,0,0,1.059,1.545,1.541,1.541,0,0,0,1.822-.324q1.519-1.475,3-2.991a1.543,1.543,0,0,0-.03-2.3,1.526,1.526,0,0,0-2.3.015c-.982.96-1.966,1.921-2.9,2.923A5.39,5.39,0,0,0,856.3,1946.615Zm-8.622-8.862a2.04,2.04,0,0,0,.755-.326c1.155-1.1,2.3-2.216,3.386-3.389a1.453,1.453,0,0,0-.25-2.073,1.479,1.479,0,0,0-2.088-.125q-1.677,1.592-3.268,3.272a1.463,1.463,0,0,0-.166,1.742A1.62,1.62,0,0,0,847.682,1937.754Zm8.071-.99a2.114,2.114,0,0,0-1.2-1.637,1.462,1.462,0,0,0-1.705.356c-.988.98-1.977,1.959-2.95,2.954a1.654,1.654,0,0,0-.021,2.375,1.609,1.609,0,0,0,2.324-.056c1-.97,1.988-1.948,2.946-2.958A5.19,5.19,0,0,0,855.753,1936.763Zm6.072,10.916c.943.849,1.932.833,2.586-.01a1.585,1.585,0,0,0-.385-2.3Z" transform="translate(415.619 -1493.015)" fill="#59836b"/>
    </g>
    <g id="Grupo_1103077" data-name="Grupo 1103077" transform="translate(-419.368 5754.058)">
      <g id="Grupo_1098742-2" data-name="Grupo 1098742" transform="translate(1251.333 413)">
        <g id="Rectángulo_400898-2" data-name="Rectángulo 400898" transform="translate(0)" fill="#fff" stroke="#fff" stroke-width="3" opacity="0.859">
          <rect width="49.644" height="49.644" rx="24.822" stroke="none"/>
          <rect x="1.5" y="1.5" width="46.644" height="46.644" rx="23.322" fill="none"/>
        </g>
        <g id="Rectángulo_400907-2" data-name="Rectángulo 400907" transform="translate(0)" fill="none" stroke="#fff" stroke-width="3">
          <rect width="49.644" height="49.644" rx="24.822" stroke="none"/>
          <rect x="1.5" y="1.5" width="46.644" height="46.644" rx="23.322" fill="none"/>
        </g>
      </g>
      <g id="Grupo_1103656" data-name="Grupo 1103656" transform="translate(1260.419 421.742)">
        <path id="Trazado_914928" data-name="Trazado 914928" d="M16,1A15,15,0,1,0,31,16,15.017,15.017,0,0,0,16,1Zm0,27.1A12.1,12.1,0,1,1,28.1,16,12.11,12.11,0,0,1,16,28.1Z" fill="#7b8883"/>
        <path id="Trazado_914929" data-name="Trazado 914929" d="M8.258,14.548H23.742v2.9H8.258Z" fill="#7b8883"/>
      </g>
    </g>
    <g id="Grupo_1103078" data-name="Grupo 1103078" transform="translate(-419.368 5881.156)">
      <g id="Grupo_1098742-3" data-name="Grupo 1098742" transform="translate(1251.333 413)">
        <g id="Rectángulo_400898-3" data-name="Rectángulo 400898" transform="translate(0)" fill="#fff" stroke="#fff" stroke-width="3" opacity="0.859">
          <rect width="49.644" height="49.644" rx="24.822" stroke="none"/>
          <rect x="1.5" y="1.5" width="46.644" height="46.644" rx="23.322" fill="none"/>
        </g>
        <g id="Rectángulo_400907-3" data-name="Rectángulo 400907" transform="translate(0)" fill="none" stroke="#fff" stroke-width="3">
          <rect width="49.644" height="49.644" rx="24.822" stroke="none"/>
          <rect x="1.5" y="1.5" width="46.644" height="46.644" rx="23.322" fill="none"/>
        </g>
      </g>
      <g id="Grupo_1103657" data-name="Grupo 1103657" transform="translate(1260.593 421.818)">
        <path id="Trazado_914930" data-name="Trazado 914930" d="M15.826,30.651A14.826,14.826,0,1,1,30.651,15.826,14.826,14.826,0,0,1,15.826,30.651Zm0-26.956a12.13,12.13,0,1,0,12.13,12.13A12.13,12.13,0,0,0,15.826,3.7Z" transform="translate(0 0)" fill="#7b8883"/>
        <path id="Trazado_914931" data-name="Trazado 914931" d="M20.826,12.739H15.435V7.348a1.348,1.348,0,1,0-2.7,0v5.391H7.348a1.348,1.348,0,1,0,0,2.7h5.391v5.391a1.348,1.348,0,1,0,2.7,0V15.435h5.391a1.348,1.348,0,1,0,0-2.7Z" transform="translate(1.739 1.739)" fill="#7b8883"/>
      </g>
    </g>
    <path id="Trazado_915267" data-name="Trazado 915267" d="M4281.747,1899.406a5.615,5.615,0,1,0-5.616,5.772A5.6,5.6,0,0,0,4281.747,1899.406Zm-2.128-1c-.246.252-.5.5-.747.748-.152.152-.308.3-.462.452a.215.215,0,0,1-.081.082,8.47,8.47,0,0,1-.607.6.036.036,0,0,1-.021.009.15.15,0,0,1-.107.108.038.038,0,0,1-.009.021h0a8.4,8.4,0,0,1-.6.607h0a.167.167,0,0,1-.1.087.035.035,0,0,1-.009.021h0a7.8,7.8,0,0,1-.63.63l-.084.084a9.609,9.609,0,0,1-.69.7c-.161.151-.38.107-.55-.085a1.508,1.508,0,0,1-.236-.236h0l-.478-.479a1.641,1.641,0,0,1-.237-.237h0l-.505-.5a1.315,1.315,0,0,1-.21-.209l-.026-.027h0l-.478-.479-.026-.027c-.279-.236-.279-.453,0-.689l.026-.027a3.09,3.09,0,0,1,.476-.455c.012-.024.034-.021.055-.018a.4.4,0,0,1,.424.134c.089.1.182.189.273.283l1.108,1.1c.139.138.139.139.285.017l.371-.371h0a3.461,3.461,0,0,1,.37-.37l.318-.318.027-.026h0l.4-.4h0l.319-.316a3.9,3.9,0,0,1,.372-.371,3.809,3.809,0,0,1,.37-.37,3.949,3.949,0,0,1,.37-.371c.12-.123.235-.251.36-.367a.353.353,0,0,1,.491.008c.175.167.347.338.514.513A.351.351,0,0,1,4279.619,1898.41Z" transform="translate(-3305.75 4305.3)" fill="#f54749"/>
    <path id="Trazado_915268" data-name="Trazado 915268" d="M4281.747,1899.406a5.615,5.615,0,1,0-5.616,5.772A5.6,5.6,0,0,0,4281.747,1899.406Zm-2.128-1c-.246.252-.5.5-.747.748-.152.152-.308.3-.462.452a.215.215,0,0,1-.081.082,8.47,8.47,0,0,1-.607.6.036.036,0,0,1-.021.009.15.15,0,0,1-.107.108.038.038,0,0,1-.009.021h0a8.4,8.4,0,0,1-.6.607h0a.167.167,0,0,1-.1.087.035.035,0,0,1-.009.021h0a7.8,7.8,0,0,1-.63.63l-.084.084a9.609,9.609,0,0,1-.69.7c-.161.151-.38.107-.55-.085a1.508,1.508,0,0,1-.236-.236h0l-.478-.479a1.641,1.641,0,0,1-.237-.237h0l-.505-.5a1.315,1.315,0,0,1-.21-.209l-.026-.027h0l-.478-.479-.026-.027c-.279-.236-.279-.453,0-.689l.026-.027a3.09,3.09,0,0,1,.476-.455c.012-.024.034-.021.055-.018a.4.4,0,0,1,.424.134c.089.1.182.189.273.283l1.108,1.1c.139.138.139.139.285.017l.371-.371h0a3.461,3.461,0,0,1,.37-.37l.318-.318.027-.026h0l.4-.4h0l.319-.316a3.9,3.9,0,0,1,.372-.371,3.809,3.809,0,0,1,.37-.37,3.949,3.949,0,0,1,.37-.371c.12-.123.235-.251.36-.367a.353.353,0,0,1,.491.008c.175.167.347.338.514.513A.351.351,0,0,1,4279.619,1898.41Z" transform="translate(-3305.75 4280.479)" fill="#f54749"/>
    <path id="Trazado_915269" data-name="Trazado 915269" d="M4281.747,1899.406a5.615,5.615,0,1,0-5.616,5.772A5.6,5.6,0,0,0,4281.747,1899.406Zm-2.128-1c-.246.252-.5.5-.747.748-.152.152-.308.3-.462.452a.215.215,0,0,1-.081.082,8.47,8.47,0,0,1-.607.6.036.036,0,0,1-.021.009.15.15,0,0,1-.107.108.038.038,0,0,1-.009.021h0a8.4,8.4,0,0,1-.6.607h0a.167.167,0,0,1-.1.087.035.035,0,0,1-.009.021h0a7.8,7.8,0,0,1-.63.63l-.084.084a9.609,9.609,0,0,1-.69.7c-.161.151-.38.107-.55-.085a1.508,1.508,0,0,1-.236-.236h0l-.478-.479a1.641,1.641,0,0,1-.237-.237h0l-.505-.5a1.315,1.315,0,0,1-.21-.209l-.026-.027h0l-.478-.479-.026-.027c-.279-.236-.279-.453,0-.689l.026-.027a3.09,3.09,0,0,1,.476-.455c.012-.024.034-.021.055-.018a.4.4,0,0,1,.424.134c.089.1.182.189.273.283l1.108,1.1c.139.138.139.139.285.017l.371-.371h0a3.461,3.461,0,0,1,.37-.37l.318-.318.027-.026h0l.4-.4h0l.319-.316a3.9,3.9,0,0,1,.372-.371,3.809,3.809,0,0,1,.37-.37,3.949,3.949,0,0,1,.37-.371c.12-.123.235-.251.36-.367a.353.353,0,0,1,.491.008c.175.167.347.338.514.513A.351.351,0,0,1,4279.619,1898.41Z" transform="translate(-3305.75 4330.122)" fill="#f54749"/>
    <path id="Trazado_915270" data-name="Trazado 915270" d="M4281.747,1899.406a5.615,5.615,0,1,0-5.616,5.772A5.6,5.6,0,0,0,4281.747,1899.406Zm-2.128-1c-.246.252-.5.5-.747.748-.152.152-.308.3-.462.452a.215.215,0,0,1-.081.082,8.47,8.47,0,0,1-.607.6.036.036,0,0,1-.021.009.15.15,0,0,1-.107.108.038.038,0,0,1-.009.021h0a8.4,8.4,0,0,1-.6.607h0a.167.167,0,0,1-.1.087.035.035,0,0,1-.009.021h0a7.8,7.8,0,0,1-.63.63l-.084.084a9.609,9.609,0,0,1-.69.7c-.161.151-.38.107-.55-.085a1.508,1.508,0,0,1-.236-.236h0l-.478-.479a1.641,1.641,0,0,1-.237-.237h0l-.505-.5a1.315,1.315,0,0,1-.21-.209l-.026-.027h0l-.478-.479-.026-.027c-.279-.236-.279-.453,0-.689l.026-.027a3.09,3.09,0,0,1,.476-.455c.012-.024.034-.021.055-.018a.4.4,0,0,1,.424.134c.089.1.182.189.273.283l1.108,1.1c.139.138.139.139.285.017l.371-.371h0a3.461,3.461,0,0,1,.37-.37l.318-.318.027-.026h0l.4-.4h0l.319-.316a3.9,3.9,0,0,1,.372-.371,3.809,3.809,0,0,1,.37-.37,3.949,3.949,0,0,1,.37-.371c.12-.123.235-.251.36-.367a.353.353,0,0,1,.491.008c.175.167.347.338.514.513A.351.351,0,0,1,4279.619,1898.41Z" transform="translate(-3305.75 4354.944)" fill="#f54749"/>
    <path id="Trazado_915271" data-name="Trazado 915271" d="M4281.747,1899.406a5.615,5.615,0,1,0-5.616,5.772A5.6,5.6,0,0,0,4281.747,1899.406Zm-2.128-1c-.246.252-.5.5-.747.748-.152.152-.308.3-.462.452a.215.215,0,0,1-.081.082,8.47,8.47,0,0,1-.607.6.036.036,0,0,1-.021.009.15.15,0,0,1-.107.108.038.038,0,0,1-.009.021h0a8.4,8.4,0,0,1-.6.607h0a.167.167,0,0,1-.1.087.035.035,0,0,1-.009.021h0a7.8,7.8,0,0,1-.63.63l-.084.084a9.609,9.609,0,0,1-.69.7c-.161.151-.38.107-.55-.085a1.508,1.508,0,0,1-.236-.236h0l-.478-.479a1.641,1.641,0,0,1-.237-.237h0l-.505-.5a1.315,1.315,0,0,1-.21-.209l-.026-.027h0l-.478-.479-.026-.027c-.279-.236-.279-.453,0-.689l.026-.027a3.09,3.09,0,0,1,.476-.455c.012-.024.034-.021.055-.018a.4.4,0,0,1,.424.134c.089.1.182.189.273.283l1.108,1.1c.139.138.139.139.285.017l.371-.371h0a3.461,3.461,0,0,1,.37-.37l.318-.318.027-.026h0l.4-.4h0l.319-.316a3.9,3.9,0,0,1,.372-.371,3.809,3.809,0,0,1,.37-.37,3.949,3.949,0,0,1,.37-.371c.12-.123.235-.251.36-.367a.353.353,0,0,1,.491.008c.175.167.347.338.514.513A.351.351,0,0,1,4279.619,1898.41Z" transform="translate(-3305.75 4444.231)" fill="#f54749"/>
  </g>
</svg>
