<svg xmlns="http://www.w3.org/2000/svg" xmlns:xlink="http://www.w3.org/1999/xlink" width="820" height="249.115" viewBox="0 0 820 249.115">
  <defs>
    <clipPath id="clip-path">
      <rect id="Rect치ngulo_403033" data-name="Rect치ngulo 403033" width="20.07" height="106.803" fill="#12263f"/>
    </clipPath>
  </defs>
  <g id="Grupo_1103875" data-name="Grupo 1103875" transform="translate(-390 -6874.686)">
    <g id="Grupo_1103070" data-name="Grupo 1103070" transform="translate(389.949 6874.686)">
      <rect id="Rect치ngulo_402888" data-name="Rect치ngulo 402888" width="820" height="249.115" transform="translate(0.051)" fill="#d6f1f4" opacity="0.3"/>
    </g>
    <path id="Trazado_915317" data-name="Trazado 915317" d="M2.93,0H1.43V-11.375h1.5ZM6.813-8.453l.047,1.063A3.08,3.08,0,0,1,9.391-8.609q2.68,0,2.7,3.023V0H10.648V-5.594a1.946,1.946,0,0,0-.418-1.352,1.675,1.675,0,0,0-1.277-.437,2.086,2.086,0,0,0-1.234.375,2.546,2.546,0,0,0-.828.984V0H5.445V-8.453ZM16.234-10.5v2.047h1.578v1.117H16.234v5.249a1.173,1.173,0,0,0,.211.763.888.888,0,0,0,.719.254,3.5,3.5,0,0,0,.688-.094V0a4.215,4.215,0,0,1-1.109.155A1.8,1.8,0,0,1,15.281-.43a2.517,2.517,0,0,1-.492-1.664V-7.336H13.25V-8.453h1.539V-10.5ZM23.008.156a3.693,3.693,0,0,1-2.8-1.129,4.19,4.19,0,0,1-1.078-3.02v-.266a5.073,5.073,0,0,1,.48-2.246,3.748,3.748,0,0,1,1.344-1.547,3.378,3.378,0,0,1,1.871-.559,3.166,3.166,0,0,1,2.563,1.086A4.7,4.7,0,0,1,26.3-4.414v.6H20.578a3,3,0,0,0,.73,2.02,2.3,2.3,0,0,0,1.777.77,2.517,2.517,0,0,0,1.3-.312,3.259,3.259,0,0,0,.93-.828l.883.688A3.55,3.55,0,0,1,23.008.156Zm-.18-7.578a1.928,1.928,0,0,0-1.469.637A3.1,3.1,0,0,0,20.625-5h4.234v-.109a2.753,2.753,0,0,0-.594-1.707A1.815,1.815,0,0,0,22.828-7.422ZM32.9-2.242a1.064,1.064,0,0,0-.441-.91,4.249,4.249,0,0,0-1.539-.559,7.277,7.277,0,0,1-1.742-.562,2.479,2.479,0,0,1-.953-.781,1.869,1.869,0,0,1-.309-1.078,2.193,2.193,0,0,1,.879-1.758,3.432,3.432,0,0,1,2.246-.719,3.532,3.532,0,0,1,2.332.742,2.357,2.357,0,0,1,.895,1.9H32.813a1.3,1.3,0,0,0-.5-1.023,1.888,1.888,0,0,0-1.27-.43,1.976,1.976,0,0,0-1.234.344,1.082,1.082,0,0,0-.445.9.877.877,0,0,0,.414.789,5.1,5.1,0,0,0,1.5.508,7.8,7.8,0,0,1,1.754.578,2.558,2.558,0,0,1,1,.809,1.988,1.988,0,0,1,.324,1.152,2.163,2.163,0,0,1-.906,1.816,3.8,3.8,0,0,1-2.352.684,4.257,4.257,0,0,1-1.8-.359,2.922,2.922,0,0,1-1.223-1A2.42,2.42,0,0,1,27.625-2.6H29.07a1.5,1.5,0,0,0,.582,1.152,2.258,2.258,0,0,0,1.434.426A2.331,2.331,0,0,0,32.4-1.355,1.02,1.02,0,0,0,32.9-2.242ZM38.188-10.5v2.047h1.578v1.117H38.188v5.249a1.173,1.173,0,0,0,.211.763.888.888,0,0,0,.719.254,3.5,3.5,0,0,0,.688-.094V0A4.215,4.215,0,0,1,38.7.156,1.8,1.8,0,0,1,37.234-.43a2.517,2.517,0,0,1-.492-1.664V-7.336H35.2V-8.453h1.539V-10.5ZM43.023,0H41.578V-8.453h1.445ZM41.461-10.7a.863.863,0,0,1,.215-.594.807.807,0,0,1,.637-.242.819.819,0,0,1,.641.242.854.854,0,0,1,.219.594.826.826,0,0,1-.219.586.834.834,0,0,1-.641.234.821.821,0,0,1-.637-.234A.834.834,0,0,1,41.461-10.7ZM46.7-8.453l.047,1.063a3.08,3.08,0,0,1,2.531-1.219q2.68,0,2.7,3.023V0H50.539V-5.594a1.946,1.946,0,0,0-.418-1.352,1.675,1.675,0,0,0-1.277-.437,2.086,2.086,0,0,0-1.234.375,2.546,2.546,0,0,0-.828.984V0H45.336V-8.453ZM53.781-4.3a4.993,4.993,0,0,1,.488-2.234A3.643,3.643,0,0,1,55.629-8.07a3.7,3.7,0,0,1,1.988-.539,3.565,3.565,0,0,1,2.793,1.2,4.6,4.6,0,0,1,1.066,3.18v.1A5.036,5.036,0,0,1,61-1.918,3.589,3.589,0,0,1,59.652-.391a3.743,3.743,0,0,1-2.02.547,3.556,3.556,0,0,1-2.785-1.2A4.575,4.575,0,0,1,53.781-4.2Zm1.453.172a3.616,3.616,0,0,0,.652,2.258,2.088,2.088,0,0,0,1.746.852,2.075,2.075,0,0,0,1.75-.863A3.955,3.955,0,0,0,60.031-4.3a3.61,3.61,0,0,0-.66-2.254,2.1,2.1,0,0,0-1.754-.863,2.075,2.075,0,0,0-1.727.852A3.925,3.925,0,0,0,55.234-4.133ZM66.9-4.3a4.952,4.952,0,0,1,.922-3.129,2.915,2.915,0,0,1,2.414-1.184,2.932,2.932,0,0,1,2.352,1.016V-12h1.445V0H72.7l-.07-.906A2.943,2.943,0,0,1,70.219.156a2.887,2.887,0,0,1-2.395-1.2A5.008,5.008,0,0,1,66.9-4.187Zm1.445.164a3.749,3.749,0,0,0,.594,2.25,1.92,1.92,0,0,0,1.641.813A2.109,2.109,0,0,0,72.586-2.3V-6.187a2.125,2.125,0,0,0-1.992-1.2,1.929,1.929,0,0,0-1.656.82A4.128,4.128,0,0,0,68.344-4.133ZM79.781.156a3.693,3.693,0,0,1-2.8-1.129,4.19,4.19,0,0,1-1.078-3.02v-.266a5.073,5.073,0,0,1,.48-2.246A3.748,3.748,0,0,1,77.73-8.051,3.378,3.378,0,0,1,79.6-8.609a3.166,3.166,0,0,1,2.563,1.086,4.7,4.7,0,0,1,.914,3.109v.6H77.352a3,3,0,0,0,.73,2.02,2.3,2.3,0,0,0,1.777.77,2.517,2.517,0,0,0,1.3-.312,3.259,3.259,0,0,0,.93-.828l.883.688A3.55,3.55,0,0,1,79.781.156ZM79.6-7.422a1.928,1.928,0,0,0-1.469.637A3.1,3.1,0,0,0,77.4-5h4.234v-.109a2.753,2.753,0,0,0-.594-1.707A1.815,1.815,0,0,0,79.6-7.422ZM90.281,0H88.836V-12h1.445Zm7.531,0a3.036,3.036,0,0,1-.2-.891A3.225,3.225,0,0,1,95.2.156a2.984,2.984,0,0,1-2.051-.707,2.288,2.288,0,0,1-.8-1.793,2.39,2.39,0,0,1,1-2.051,4.733,4.733,0,0,1,2.824-.73h1.406v-.664A1.623,1.623,0,0,0,97.133-7,1.821,1.821,0,0,0,95.8-7.445a2.108,2.108,0,0,0-1.3.391,1.151,1.151,0,0,0-.523.945H92.523a2,2,0,0,1,.449-1.223,3.066,3.066,0,0,1,1.219-.934,4.1,4.1,0,0,1,1.691-.344,3.342,3.342,0,0,1,2.289.73,2.635,2.635,0,0,1,.859,2.012v3.891a4.757,4.757,0,0,0,.3,1.852V0Zm-2.4-1.1A2.54,2.54,0,0,0,96.7-1.453a2.127,2.127,0,0,0,.883-.914V-4.1H96.453Q93.8-4.1,93.8-2.547a1.316,1.316,0,0,0,.453,1.063A1.742,1.742,0,0,0,95.414-1.1Zm10.8-1.141a1.064,1.064,0,0,0-.441-.91,4.249,4.249,0,0,0-1.539-.559,7.277,7.277,0,0,1-1.742-.562,2.479,2.479,0,0,1-.953-.781,1.869,1.869,0,0,1-.309-1.078,2.193,2.193,0,0,1,.879-1.758,3.432,3.432,0,0,1,2.246-.719,3.532,3.532,0,0,1,2.332.742,2.357,2.357,0,0,1,.895,1.9h-1.453a1.3,1.3,0,0,0-.5-1.023,1.888,1.888,0,0,0-1.27-.43,1.976,1.976,0,0,0-1.234.344,1.082,1.082,0,0,0-.445.9.877.877,0,0,0,.414.789,5.1,5.1,0,0,0,1.5.508,7.8,7.8,0,0,1,1.754.578,2.558,2.558,0,0,1,1,.809,1.988,1.988,0,0,1,.324,1.152,2.163,2.163,0,0,1-.906,1.816,3.8,3.8,0,0,1-2.352.684,4.257,4.257,0,0,1-1.8-.359,2.922,2.922,0,0,1-1.223-1,2.42,2.42,0,0,1-.441-1.395h1.445a1.5,1.5,0,0,0,.582,1.152,2.258,2.258,0,0,0,1.434.426,2.331,2.331,0,0,0,1.316-.332A1.02,1.02,0,0,0,106.219-2.242ZM118.727,0a3.036,3.036,0,0,1-.2-.891A3.225,3.225,0,0,1,116.117.156a2.984,2.984,0,0,1-2.051-.707,2.288,2.288,0,0,1-.8-1.793,2.39,2.39,0,0,1,1-2.051,4.733,4.733,0,0,1,2.824-.73H118.5v-.664A1.623,1.623,0,0,0,118.047-7a1.821,1.821,0,0,0-1.336-.449,2.108,2.108,0,0,0-1.3.391,1.151,1.151,0,0,0-.523.945h-1.453a2,2,0,0,1,.449-1.223,3.066,3.066,0,0,1,1.219-.934,4.1,4.1,0,0,1,1.691-.344,3.342,3.342,0,0,1,2.289.73,2.635,2.635,0,0,1,.859,2.012v3.891a4.757,4.757,0,0,0,.3,1.852V0Zm-2.4-1.1a2.54,2.54,0,0,0,1.289-.352,2.127,2.127,0,0,0,.883-.914V-4.1h-1.133q-2.656,0-2.656,1.555a1.316,1.316,0,0,0,.453,1.063A1.742,1.742,0,0,0,116.328-1.1Zm8.555-.859,2.094-6.492h1.477L125.422,0h-1.1l-3.062-8.453h1.477ZM133.25.156a3.693,3.693,0,0,1-2.8-1.129,4.19,4.19,0,0,1-1.078-3.02v-.266a5.073,5.073,0,0,1,.48-2.246A3.748,3.748,0,0,1,131.2-8.051a3.378,3.378,0,0,1,1.871-.559,3.166,3.166,0,0,1,2.563,1.086,4.7,4.7,0,0,1,.914,3.109v.6H130.82a3,3,0,0,0,.73,2.02,2.3,2.3,0,0,0,1.777.77,2.517,2.517,0,0,0,1.3-.312,3.258,3.258,0,0,0,.93-.828l.883.688A3.55,3.55,0,0,1,133.25.156Zm-.18-7.578a1.928,1.928,0,0,0-1.469.637A3.1,3.1,0,0,0,130.867-5H135.1v-.109a2.753,2.753,0,0,0-.594-1.707A1.815,1.815,0,0,0,133.07-7.422Zm10.07,5.18a1.064,1.064,0,0,0-.441-.91,4.249,4.249,0,0,0-1.539-.559,7.277,7.277,0,0,1-1.742-.562,2.479,2.479,0,0,1-.953-.781,1.869,1.869,0,0,1-.309-1.078,2.193,2.193,0,0,1,.879-1.758,3.432,3.432,0,0,1,2.246-.719,3.532,3.532,0,0,1,2.332.742,2.357,2.357,0,0,1,.895,1.9h-1.453a1.3,1.3,0,0,0-.5-1.023,1.888,1.888,0,0,0-1.27-.43,1.976,1.976,0,0,0-1.234.344,1.082,1.082,0,0,0-.445.9.877.877,0,0,0,.414.789,5.1,5.1,0,0,0,1.5.508,7.8,7.8,0,0,1,1.754.578,2.558,2.558,0,0,1,1,.809,1.988,1.988,0,0,1,.324,1.152,2.163,2.163,0,0,1-.906,1.816,3.8,3.8,0,0,1-2.352.684,4.257,4.257,0,0,1-1.8-.359,2.922,2.922,0,0,1-1.223-1,2.42,2.42,0,0,1-.441-1.395h1.445a1.5,1.5,0,0,0,.582,1.152,2.258,2.258,0,0,0,1.434.426,2.331,2.331,0,0,0,1.316-.332A1.02,1.02,0,0,0,143.141-2.242ZM3.258,12.625l3.719,9.281L10.7,12.625h1.945V24h-1.5V19.57l.141-4.781L7.547,24H6.4L2.672,14.813,2.82,19.57V24H1.32V12.625ZM20.281,24a3.036,3.036,0,0,1-.2-.891,3.225,3.225,0,0,1-2.406,1.047,2.984,2.984,0,0,1-2.051-.707,2.287,2.287,0,0,1-.8-1.793,2.39,2.39,0,0,1,1-2.051,4.733,4.733,0,0,1,2.824-.73h1.406v-.664A1.623,1.623,0,0,0,19.6,17a1.821,1.821,0,0,0-1.336-.449,2.108,2.108,0,0,0-1.3.391,1.151,1.151,0,0,0-.523.945H14.992a2,2,0,0,1,.449-1.223,3.066,3.066,0,0,1,1.219-.934,4.1,4.1,0,0,1,1.691-.344,3.342,3.342,0,0,1,2.289.73,2.635,2.635,0,0,1,.859,2.012v3.891a4.757,4.757,0,0,0,.3,1.852V24Zm-2.4-1.1a2.54,2.54,0,0,0,1.289-.352,2.127,2.127,0,0,0,.883-.914V19.9H18.922q-2.656,0-2.656,1.555a1.316,1.316,0,0,0,.453,1.063A1.742,1.742,0,0,0,17.883,22.9Zm7.844-9.4v2.047H27.3v1.117H25.727v5.249a1.173,1.173,0,0,0,.211.763.888.888,0,0,0,.719.254,3.5,3.5,0,0,0,.688-.094V24a4.215,4.215,0,0,1-1.109.155,1.8,1.8,0,0,1-1.461-.586,2.517,2.517,0,0,1-.492-1.664V16.664H22.742V15.547h1.539V13.5ZM32.5,24.156a3.693,3.693,0,0,1-2.8-1.129,4.19,4.19,0,0,1-1.078-3.02v-.266a5.073,5.073,0,0,1,.48-2.246,3.748,3.748,0,0,1,1.344-1.547,3.378,3.378,0,0,1,1.871-.559,3.166,3.166,0,0,1,2.563,1.086,4.7,4.7,0,0,1,.914,3.109v.6H30.07a3,3,0,0,0,.73,2.02,2.3,2.3,0,0,0,1.777.77,2.517,2.517,0,0,0,1.3-.312,3.259,3.259,0,0,0,.93-.828l.883.688A3.55,3.55,0,0,1,32.5,24.156Zm-.18-7.578a1.928,1.928,0,0,0-1.469.637A3.1,3.1,0,0,0,30.117,19h4.234v-.109a2.753,2.753,0,0,0-.594-1.707A1.815,1.815,0,0,0,32.32,16.578Zm9.234.266a4.331,4.331,0,0,0-.711-.055A1.9,1.9,0,0,0,38.914,18v6H37.469V15.547h1.406l.023.977a2.251,2.251,0,0,1,2.016-1.133,1.477,1.477,0,0,1,.641.109ZM44.453,24H43.008V15.547h1.445ZM42.891,13.3a.863.863,0,0,1,.215-.594.807.807,0,0,1,.637-.242.819.819,0,0,1,.641.242.854.854,0,0,1,.219.594.826.826,0,0,1-.219.586.834.834,0,0,1-.641.234.821.821,0,0,1-.637-.234A.834.834,0,0,1,42.891,13.3ZM51.984,24a3.036,3.036,0,0,1-.2-.891,3.225,3.225,0,0,1-2.406,1.047,2.984,2.984,0,0,1-2.051-.707,2.287,2.287,0,0,1-.8-1.793,2.39,2.39,0,0,1,1-2.051,4.733,4.733,0,0,1,2.824-.73h1.406v-.664A1.623,1.623,0,0,0,51.3,17a1.821,1.821,0,0,0-1.336-.449,2.107,2.107,0,0,0-1.3.391,1.151,1.151,0,0,0-.523.945H46.7a2,2,0,0,1,.449-1.223,3.066,3.066,0,0,1,1.219-.934,4.1,4.1,0,0,1,1.691-.344,3.342,3.342,0,0,1,2.289.73,2.635,2.635,0,0,1,.859,2.012v3.891a4.757,4.757,0,0,0,.3,1.852V24Zm-2.4-1.1a2.54,2.54,0,0,0,1.289-.352,2.127,2.127,0,0,0,.883-.914V19.9H50.625q-2.656,0-2.656,1.555a1.316,1.316,0,0,0,.453,1.063A1.742,1.742,0,0,0,49.586,22.9ZM57.039,24H55.594V12h1.445Zm5.922-4.3a4.952,4.952,0,0,1,.922-3.129,3.137,3.137,0,0,1,4.766-.168V12h1.445V24H68.766l-.07-.906a2.943,2.943,0,0,1-2.414,1.063,2.887,2.887,0,0,1-2.395-1.2,5.008,5.008,0,0,1-.926-3.141Zm1.445.164A3.749,3.749,0,0,0,65,22.117a1.92,1.92,0,0,0,1.641.813A2.109,2.109,0,0,0,68.648,21.7V17.813a2.125,2.125,0,0,0-1.992-1.2,1.929,1.929,0,0,0-1.656.82A4.128,4.128,0,0,0,64.406,19.867Zm11.438,4.289a3.693,3.693,0,0,1-2.8-1.129,4.19,4.19,0,0,1-1.078-3.02v-.266a5.073,5.073,0,0,1,.48-2.246,3.748,3.748,0,0,1,1.344-1.547,3.378,3.378,0,0,1,1.871-.559,3.166,3.166,0,0,1,2.563,1.086,4.7,4.7,0,0,1,.914,3.109v.6H73.414a3,3,0,0,0,.73,2.02,2.3,2.3,0,0,0,1.777.77,2.517,2.517,0,0,0,1.3-.312,3.259,3.259,0,0,0,.93-.828l.883.688A3.55,3.55,0,0,1,75.844,24.156Zm-.18-7.578a1.928,1.928,0,0,0-1.469.637A3.1,3.1,0,0,0,73.461,19H77.7v-.109a2.753,2.753,0,0,0-.594-1.707A1.815,1.815,0,0,0,75.664,16.578ZM89.992,24a3.036,3.036,0,0,1-.2-.891,3.225,3.225,0,0,1-2.406,1.047,2.984,2.984,0,0,1-2.051-.707,2.288,2.288,0,0,1-.8-1.793,2.39,2.39,0,0,1,1-2.051,4.733,4.733,0,0,1,2.824-.73h1.406v-.664A1.623,1.623,0,0,0,89.313,17a1.821,1.821,0,0,0-1.336-.449,2.108,2.108,0,0,0-1.3.391,1.151,1.151,0,0,0-.523.945H84.7a2,2,0,0,1,.449-1.223,3.066,3.066,0,0,1,1.219-.934,4.1,4.1,0,0,1,1.691-.344,3.342,3.342,0,0,1,2.289.73,2.635,2.635,0,0,1,.859,2.012v3.891a4.757,4.757,0,0,0,.3,1.852V24Zm-2.4-1.1a2.54,2.54,0,0,0,1.289-.352,2.127,2.127,0,0,0,.883-.914V19.9H88.633q-2.656,0-2.656,1.555a1.316,1.316,0,0,0,.453,1.063A1.742,1.742,0,0,0,87.594,22.9ZM95.047,24H93.6V12h1.445Zm3.672-8.453.039.938a3.122,3.122,0,0,1,2.508-1.094,2.417,2.417,0,0,1,2.414,1.359,3.2,3.2,0,0,1,1.1-.984,3.242,3.242,0,0,1,1.6-.375q2.781,0,2.828,2.945V24h-1.445V18.422a1.941,1.941,0,0,0-.414-1.355,1.823,1.823,0,0,0-1.391-.449,1.916,1.916,0,0,0-1.336.48A1.949,1.949,0,0,0,104,18.391V24h-1.453V18.461a1.613,1.613,0,0,0-1.8-1.844A1.934,1.934,0,0,0,98.8,17.828V24H97.352V15.547ZM116.6,24a3.036,3.036,0,0,1-.2-.891,3.225,3.225,0,0,1-2.406,1.047,2.984,2.984,0,0,1-2.051-.707,2.288,2.288,0,0,1-.8-1.793,2.39,2.39,0,0,1,1-2.051,4.733,4.733,0,0,1,2.824-.73h1.406v-.664A1.623,1.623,0,0,0,115.922,17a1.821,1.821,0,0,0-1.336-.449,2.108,2.108,0,0,0-1.3.391,1.151,1.151,0,0,0-.523.945h-1.453a2,2,0,0,1,.449-1.223,3.066,3.066,0,0,1,1.219-.934,4.1,4.1,0,0,1,1.691-.344,3.342,3.342,0,0,1,2.289.73,2.635,2.635,0,0,1,.859,2.012v3.891a4.757,4.757,0,0,0,.3,1.852V24Zm-2.4-1.1a2.54,2.54,0,0,0,1.289-.352,2.127,2.127,0,0,0,.883-.914V19.9h-1.133q-2.656,0-2.656,1.555a1.316,1.316,0,0,0,.453,1.063A1.742,1.742,0,0,0,114.2,22.9Zm9.273.078a2.082,2.082,0,0,0,1.352-.469,1.649,1.649,0,0,0,.641-1.172h1.367a2.621,2.621,0,0,1-.5,1.383,3.293,3.293,0,0,1-1.23,1.047,3.55,3.55,0,0,1-1.629.391A3.482,3.482,0,0,1,120.73,23a4.59,4.59,0,0,1-1.02-3.152v-.242a5.089,5.089,0,0,1,.453-2.2,3.451,3.451,0,0,1,1.3-1.492,3.7,3.7,0,0,1,2-.531,3.39,3.39,0,0,1,2.363.852,3.043,3.043,0,0,1,1,2.211h-1.367a1.992,1.992,0,0,0-.621-1.348,1.932,1.932,0,0,0-1.379-.527,2.023,2.023,0,0,0-1.707.793,3.724,3.724,0,0,0-.605,2.293v.273a3.65,3.65,0,0,0,.6,2.25A2.033,2.033,0,0,0,123.477,22.977Zm8.492,1.18a3.693,3.693,0,0,1-2.8-1.129,4.19,4.19,0,0,1-1.078-3.02v-.266a5.073,5.073,0,0,1,.48-2.246,3.748,3.748,0,0,1,1.344-1.547,3.378,3.378,0,0,1,1.871-.559,3.166,3.166,0,0,1,2.563,1.086,4.7,4.7,0,0,1,.914,3.109v.6h-5.727a3,3,0,0,0,.73,2.02,2.3,2.3,0,0,0,1.777.77,2.517,2.517,0,0,0,1.3-.312,3.258,3.258,0,0,0,.93-.828l.883.688A3.55,3.55,0,0,1,131.969,24.156Zm-.18-7.578a1.928,1.928,0,0,0-1.469.637A3.1,3.1,0,0,0,129.586,19h4.234v-.109a2.753,2.753,0,0,0-.594-1.707A1.815,1.815,0,0,0,131.789,16.578Zm6.516-1.031.047,1.063a3.08,3.08,0,0,1,2.531-1.219q2.68,0,2.7,3.023V24h-1.445V18.406a1.946,1.946,0,0,0-.418-1.352,1.675,1.675,0,0,0-1.277-.437,2.086,2.086,0,0,0-1.234.375,2.546,2.546,0,0,0-.828.984V24h-1.445V15.547ZM150.984,24a3.036,3.036,0,0,1-.2-.891,3.225,3.225,0,0,1-2.406,1.047,2.984,2.984,0,0,1-2.051-.707,2.287,2.287,0,0,1-.8-1.793,2.39,2.39,0,0,1,1-2.051,4.733,4.733,0,0,1,2.824-.73h1.406v-.664A1.623,1.623,0,0,0,150.3,17a1.821,1.821,0,0,0-1.336-.449,2.107,2.107,0,0,0-1.3.391,1.151,1.151,0,0,0-.523.945H145.7a2,2,0,0,1,.449-1.223,3.066,3.066,0,0,1,1.219-.934,4.1,4.1,0,0,1,1.691-.344,3.342,3.342,0,0,1,2.289.73,2.635,2.635,0,0,1,.859,2.012v3.891a4.757,4.757,0,0,0,.3,1.852V24Zm-2.4-1.1a2.54,2.54,0,0,0,1.289-.352,2.127,2.127,0,0,0,.883-.914V19.9h-1.133q-2.656,0-2.656,1.555a1.316,1.316,0,0,0,.453,1.063A1.742,1.742,0,0,0,148.586,22.9Zm7.242-7.352.039.938a3.122,3.122,0,0,1,2.508-1.094,2.417,2.417,0,0,1,2.414,1.359,3.2,3.2,0,0,1,1.1-.984,3.242,3.242,0,0,1,1.6-.375q2.781,0,2.828,2.945V24h-1.445V18.422a1.941,1.941,0,0,0-.414-1.355,1.823,1.823,0,0,0-1.391-.449,1.917,1.917,0,0,0-1.336.48,1.949,1.949,0,0,0-.617,1.293V24h-1.453V18.461a1.613,1.613,0,0,0-1.8-1.844,1.934,1.934,0,0,0-1.945,1.211V24h-1.445V15.547ZM170.063,24h-1.445V15.547h1.445ZM168.5,13.3a.863.863,0,0,1,.215-.594.807.807,0,0,1,.637-.242.819.819,0,0,1,.641.242.854.854,0,0,1,.219.594.826.826,0,0,1-.219.586.834.834,0,0,1-.641.234.821.821,0,0,1-.637-.234A.834.834,0,0,1,168.5,13.3Zm7.383,10.852a3.693,3.693,0,0,1-2.8-1.129,4.19,4.19,0,0,1-1.078-3.02v-.266a5.073,5.073,0,0,1,.48-2.246,3.748,3.748,0,0,1,1.344-1.547,3.378,3.378,0,0,1,1.871-.559,3.166,3.166,0,0,1,2.563,1.086,4.7,4.7,0,0,1,.914,3.109v.6h-5.727a3,3,0,0,0,.73,2.02,2.3,2.3,0,0,0,1.777.77,2.517,2.517,0,0,0,1.3-.312,3.258,3.258,0,0,0,.93-.828l.883.688A3.55,3.55,0,0,1,175.883,24.156Zm-.18-7.578a1.928,1.928,0,0,0-1.469.637A3.1,3.1,0,0,0,173.5,19h4.234v-.109a2.753,2.753,0,0,0-.594-1.707A1.815,1.815,0,0,0,175.7,16.578Zm6.516-1.031.047,1.063a3.08,3.08,0,0,1,2.531-1.219q2.68,0,2.7,3.023V24h-1.445V18.406a1.946,1.946,0,0,0-.418-1.352,1.675,1.675,0,0,0-1.277-.437,2.086,2.086,0,0,0-1.234.375,2.546,2.546,0,0,0-.828.984V24h-1.445V15.547Zm9.422-2.047v2.047h1.578v1.117h-1.578v5.249a1.173,1.173,0,0,0,.211.763.888.888,0,0,0,.719.254,3.5,3.5,0,0,0,.688-.094V24a4.215,4.215,0,0,1-1.109.155,1.8,1.8,0,0,1-1.461-.586,2.517,2.517,0,0,1-.492-1.664V16.664h-1.539V15.547H190.2V13.5Zm2.727,6.2a4.993,4.993,0,0,1,.488-2.234,3.642,3.642,0,0,1,1.359-1.531,3.7,3.7,0,0,1,1.988-.539,3.565,3.565,0,0,1,2.793,1.2,4.6,4.6,0,0,1,1.066,3.18v.1a5.036,5.036,0,0,1-.473,2.215,3.589,3.589,0,0,1-1.352,1.527,3.743,3.743,0,0,1-2.02.547,3.556,3.556,0,0,1-2.785-1.2,4.575,4.575,0,0,1-1.066-3.164Zm1.453.172a3.616,3.616,0,0,0,.652,2.258,2.211,2.211,0,0,0,3.5-.012,3.954,3.954,0,0,0,.648-2.418,3.61,3.61,0,0,0-.66-2.254,2.1,2.1,0,0,0-1.754-.863,2.075,2.075,0,0,0-1.727.852A3.925,3.925,0,0,0,195.82,19.867Zm11.961-.484a12.079,12.079,0,0,1,.473-3.391,9.85,9.85,0,0,1,1.41-2.953,6,6,0,0,1,1.945-1.875l.3.953a6.222,6.222,0,0,0-1.871,2.672,11.583,11.583,0,0,0-.8,4.023l-.008.664a11.643,11.643,0,0,0,1.1,5.234,6.252,6.252,0,0,0,1.578,2.078l-.3.883a6.192,6.192,0,0,1-1.984-1.937A10.859,10.859,0,0,1,207.781,19.383Zm8.914,3.594a2.082,2.082,0,0,0,1.352-.469,1.649,1.649,0,0,0,.641-1.172h1.367a2.621,2.621,0,0,1-.5,1.383,3.293,3.293,0,0,1-1.23,1.047,3.55,3.55,0,0,1-1.629.391A3.482,3.482,0,0,1,213.949,23a4.59,4.59,0,0,1-1.02-3.152v-.242a5.089,5.089,0,0,1,.453-2.2,3.451,3.451,0,0,1,1.3-1.492,3.7,3.7,0,0,1,2-.531,3.39,3.39,0,0,1,2.363.852,3.043,3.043,0,0,1,1,2.211h-1.367a1.992,1.992,0,0,0-.621-1.348,1.932,1.932,0,0,0-1.379-.527,2.023,2.023,0,0,0-1.707.793,3.724,3.724,0,0,0-.605,2.293v.273a3.65,3.65,0,0,0,.6,2.25A2.033,2.033,0,0,0,216.7,22.977ZM226.9,24a3.036,3.036,0,0,1-.2-.891,3.225,3.225,0,0,1-2.406,1.047,2.984,2.984,0,0,1-2.051-.707,2.287,2.287,0,0,1-.8-1.793,2.39,2.39,0,0,1,1-2.051,4.733,4.733,0,0,1,2.824-.73h1.406v-.664A1.623,1.623,0,0,0,226.219,17a1.821,1.821,0,0,0-1.336-.449,2.107,2.107,0,0,0-1.3.391,1.151,1.151,0,0,0-.523.945h-1.453a2,2,0,0,1,.449-1.223,3.066,3.066,0,0,1,1.219-.934,4.1,4.1,0,0,1,1.691-.344,3.342,3.342,0,0,1,2.289.73,2.635,2.635,0,0,1,.859,2.012v3.891a4.757,4.757,0,0,0,.3,1.852V24Zm-2.4-1.1a2.54,2.54,0,0,0,1.289-.352,2.127,2.127,0,0,0,.883-.914V19.9h-1.133q-2.656,0-2.656,1.555a1.316,1.316,0,0,0,.453,1.063A1.742,1.742,0,0,0,224.5,22.9Zm7.242-7.352.039.938a3.122,3.122,0,0,1,2.508-1.094A2.417,2.417,0,0,1,236.7,16.75a3.2,3.2,0,0,1,1.1-.984,3.242,3.242,0,0,1,1.6-.375q2.781,0,2.828,2.945V24h-1.445V18.422a1.941,1.941,0,0,0-.414-1.355,1.823,1.823,0,0,0-1.391-.449,1.917,1.917,0,0,0-1.336.48,1.949,1.949,0,0,0-.617,1.293V24H235.57V18.461a1.613,1.613,0,0,0-1.8-1.844,1.934,1.934,0,0,0-1.945,1.211V24h-1.445V15.547Zm19.82,4.32a5.026,5.026,0,0,1-.891,3.113,2.846,2.846,0,0,1-2.391,1.176,2.947,2.947,0,0,1-2.477-1.133l-.07.977h-1.328V12h1.445v4.477a2.93,2.93,0,0,1,2.414-1.086,2.863,2.863,0,0,1,2.418,1.164,5.177,5.177,0,0,1,.879,3.188Zm-1.445-.164a3.906,3.906,0,0,0-.57-2.281,1.888,1.888,0,0,0-1.641-.8,2.122,2.122,0,0,0-2.055,1.328V21.6a2.181,2.181,0,0,0,2.07,1.328,1.878,1.878,0,0,0,1.617-.8A4.153,4.153,0,0,0,250.117,19.7Zm4.836,4.3h-1.445V15.547h1.445Zm-1.562-10.7a.863.863,0,0,1,.215-.594.807.807,0,0,1,.637-.242.819.819,0,0,1,.641.242.854.854,0,0,1,.219.594.826.826,0,0,1-.219.586.834.834,0,0,1-.641.234.821.821,0,0,1-.637-.234A.834.834,0,0,1,253.391,13.3Zm3.492,6.391a4.993,4.993,0,0,1,.488-2.234,3.643,3.643,0,0,1,1.359-1.531,3.7,3.7,0,0,1,1.988-.539,3.565,3.565,0,0,1,2.793,1.2,4.6,4.6,0,0,1,1.066,3.18v.1a5.036,5.036,0,0,1-.473,2.215,3.589,3.589,0,0,1-1.352,1.527,3.743,3.743,0,0,1-2.02.547,3.556,3.556,0,0,1-2.785-1.2,4.575,4.575,0,0,1-1.066-3.164Zm1.453.172a3.616,3.616,0,0,0,.652,2.258,2.211,2.211,0,0,0,3.5-.012,3.955,3.955,0,0,0,.648-2.418,3.61,3.61,0,0,0-.66-2.254,2.1,2.1,0,0,0-1.754-.863,2.075,2.075,0,0,0-1.727.852A3.925,3.925,0,0,0,258.336,19.867Zm12.977,1.891a1.064,1.064,0,0,0-.441-.91,4.249,4.249,0,0,0-1.539-.559,7.276,7.276,0,0,1-1.742-.562,2.478,2.478,0,0,1-.953-.781,1.869,1.869,0,0,1-.309-1.078,2.193,2.193,0,0,1,.879-1.758,3.432,3.432,0,0,1,2.246-.719,3.532,3.532,0,0,1,2.332.742,2.357,2.357,0,0,1,.895,1.9h-1.453a1.3,1.3,0,0,0-.5-1.023,1.888,1.888,0,0,0-1.27-.43,1.976,1.976,0,0,0-1.234.344,1.082,1.082,0,0,0-.445.9.877.877,0,0,0,.414.789,5.1,5.1,0,0,0,1.5.508,7.8,7.8,0,0,1,1.754.578,2.559,2.559,0,0,1,1,.809,1.988,1.988,0,0,1,.324,1.152,2.163,2.163,0,0,1-.906,1.816,3.8,3.8,0,0,1-2.352.684,4.257,4.257,0,0,1-1.8-.359,2.922,2.922,0,0,1-1.223-1,2.42,2.42,0,0,1-.441-1.395h1.445a1.5,1.5,0,0,0,.582,1.152,2.258,2.258,0,0,0,1.434.426,2.331,2.331,0,0,0,1.316-.332A1.02,1.02,0,0,0,271.313,21.758ZM278.25,19.7a4.952,4.952,0,0,1,.922-3.129,3.137,3.137,0,0,1,4.766-.168V12h1.445V24h-1.328l-.07-.906a2.943,2.943,0,0,1-2.414,1.063,2.887,2.887,0,0,1-2.395-1.2,5.008,5.008,0,0,1-.926-3.141Zm1.445.164a3.749,3.749,0,0,0,.594,2.25,1.92,1.92,0,0,0,1.641.813,2.109,2.109,0,0,0,2.008-1.234V17.813a2.125,2.125,0,0,0-1.992-1.2,1.929,1.929,0,0,0-1.656.82A4.128,4.128,0,0,0,279.7,19.867Zm11.438,4.289a3.693,3.693,0,0,1-2.8-1.129,4.19,4.19,0,0,1-1.078-3.02v-.266a5.073,5.073,0,0,1,.48-2.246,3.748,3.748,0,0,1,1.344-1.547,3.379,3.379,0,0,1,1.871-.559,3.166,3.166,0,0,1,2.563,1.086,4.7,4.7,0,0,1,.914,3.109v.6H288.7a3,3,0,0,0,.73,2.02,2.3,2.3,0,0,0,1.777.77,2.517,2.517,0,0,0,1.3-.312,3.259,3.259,0,0,0,.93-.828l.883.688A3.55,3.55,0,0,1,291.133,24.156Zm-.18-7.578a1.928,1.928,0,0,0-1.469.637A3.1,3.1,0,0,0,288.75,19h4.234v-.109a2.753,2.753,0,0,0-.594-1.707A1.815,1.815,0,0,0,290.953,16.578Zm11.07-3.078v2.047H303.6v1.117h-1.578v5.249a1.173,1.173,0,0,0,.211.763.888.888,0,0,0,.719.254,3.5,3.5,0,0,0,.688-.094V24a4.215,4.215,0,0,1-1.109.155,1.8,1.8,0,0,1-1.461-.586,2.517,2.517,0,0,1-.492-1.664V16.664h-1.539V15.547h1.539V13.5ZM308.8,24.156a3.693,3.693,0,0,1-2.8-1.129,4.19,4.19,0,0,1-1.078-3.02v-.266a5.073,5.073,0,0,1,.48-2.246,3.748,3.748,0,0,1,1.344-1.547,3.379,3.379,0,0,1,1.871-.559,3.166,3.166,0,0,1,2.563,1.086,4.7,4.7,0,0,1,.914,3.109v.6h-5.727a3,3,0,0,0,.73,2.02,2.3,2.3,0,0,0,1.777.77,2.517,2.517,0,0,0,1.3-.312,3.259,3.259,0,0,0,.93-.828l.883.688A3.55,3.55,0,0,1,308.8,24.156Zm-.18-7.578a1.928,1.928,0,0,0-1.469.637A3.1,3.1,0,0,0,306.414,19h4.234v-.109a2.753,2.753,0,0,0-.594-1.707A1.815,1.815,0,0,0,308.617,16.578Zm6.508-1.031.039.938a3.122,3.122,0,0,1,2.508-1.094,2.417,2.417,0,0,1,2.414,1.359,3.2,3.2,0,0,1,1.1-.984,3.242,3.242,0,0,1,1.6-.375q2.781,0,2.828,2.945V24h-1.445V18.422a1.941,1.941,0,0,0-.414-1.355,1.823,1.823,0,0,0-1.391-.449,1.916,1.916,0,0,0-1.336.48,1.949,1.949,0,0,0-.617,1.293V24h-1.453V18.461a1.613,1.613,0,0,0-1.8-1.844,1.934,1.934,0,0,0-1.945,1.211V24h-1.445V15.547Zm19.8,4.32a5.062,5.062,0,0,1-.883,3.109,2.829,2.829,0,0,1-2.391,1.18,3.1,3.1,0,0,1-2.422-.977v4.07h-1.445v-11.7h1.32l.07.938a2.977,2.977,0,0,1,2.453-1.094,2.882,2.882,0,0,1,2.41,1.148,5.117,5.117,0,0,1,.887,3.2Zm-1.445-.164a3.735,3.735,0,0,0-.609-2.258,1.963,1.963,0,0,0-1.672-.828,2.125,2.125,0,0,0-1.969,1.164V21.82a2.129,2.129,0,0,0,1.984,1.156,1.954,1.954,0,0,0,1.652-.824A4.077,4.077,0,0,0,333.484,19.7Zm6.789,4.453a3.693,3.693,0,0,1-2.8-1.129,4.19,4.19,0,0,1-1.078-3.02v-.266a5.073,5.073,0,0,1,.48-2.246,3.748,3.748,0,0,1,1.344-1.547,3.379,3.379,0,0,1,1.871-.559,3.166,3.166,0,0,1,2.563,1.086,4.7,4.7,0,0,1,.914,3.109v.6h-5.727a3,3,0,0,0,.73,2.02,2.3,2.3,0,0,0,1.777.77,2.517,2.517,0,0,0,1.3-.312,3.259,3.259,0,0,0,.93-.828l.883.688A3.55,3.55,0,0,1,340.273,24.156Zm-.18-7.578a1.928,1.928,0,0,0-1.469.637A3.1,3.1,0,0,0,337.891,19h4.234v-.109a2.753,2.753,0,0,0-.594-1.707A1.815,1.815,0,0,0,340.094,16.578Zm9.234.266a4.331,4.331,0,0,0-.711-.055A1.9,1.9,0,0,0,346.688,18v6h-1.445V15.547h1.406l.023.977a2.251,2.251,0,0,1,2.016-1.133,1.477,1.477,0,0,1,.641.109ZM355.563,24a3.036,3.036,0,0,1-.2-.891,3.225,3.225,0,0,1-2.406,1.047,2.984,2.984,0,0,1-2.051-.707,2.288,2.288,0,0,1-.8-1.793,2.39,2.39,0,0,1,1-2.051,4.733,4.733,0,0,1,2.824-.73h1.406v-.664A1.623,1.623,0,0,0,354.883,17a1.821,1.821,0,0,0-1.336-.449,2.108,2.108,0,0,0-1.3.391,1.151,1.151,0,0,0-.523.945h-1.453a2,2,0,0,1,.449-1.223,3.066,3.066,0,0,1,1.219-.934,4.1,4.1,0,0,1,1.691-.344,3.342,3.342,0,0,1,2.289.73,2.635,2.635,0,0,1,.859,2.012v3.891a4.757,4.757,0,0,0,.3,1.852V24Zm-2.4-1.1a2.54,2.54,0,0,0,1.289-.352,2.126,2.126,0,0,0,.883-.914V19.9H354.2q-2.656,0-2.656,1.555A1.316,1.316,0,0,0,352,22.516,1.742,1.742,0,0,0,353.164,22.9Zm7.844-9.4v2.047h1.578v1.117h-1.578v5.249a1.173,1.173,0,0,0,.211.763.888.888,0,0,0,.719.254,3.5,3.5,0,0,0,.688-.094V24a4.215,4.215,0,0,1-1.109.155,1.8,1.8,0,0,1-1.461-.586,2.517,2.517,0,0,1-.492-1.664V16.664h-1.539V15.547h1.539V13.5Zm8.484,9.664a3.07,3.07,0,0,1-2.477.992,2.628,2.628,0,0,1-2.059-.785,3.4,3.4,0,0,1-.715-2.324v-5.5h1.445v5.461q0,1.922,1.563,1.922a2.163,2.163,0,0,0,2.2-1.234V15.547H370.9V24h-1.375Zm7.688-6.32a4.331,4.331,0,0,0-.711-.055A1.9,1.9,0,0,0,374.539,18v6h-1.445V15.547H374.5l.023.977a2.251,2.251,0,0,1,2.016-1.133,1.477,1.477,0,0,1,.641.109ZM383.414,24a3.036,3.036,0,0,1-.2-.891,3.225,3.225,0,0,1-2.406,1.047,2.984,2.984,0,0,1-2.051-.707,2.288,2.288,0,0,1-.8-1.793,2.39,2.39,0,0,1,1-2.051,4.733,4.733,0,0,1,2.824-.73h1.406v-.664A1.623,1.623,0,0,0,382.734,17a1.821,1.821,0,0,0-1.336-.449,2.108,2.108,0,0,0-1.3.391,1.151,1.151,0,0,0-.523.945h-1.453a2,2,0,0,1,.449-1.223,3.066,3.066,0,0,1,1.219-.934,4.1,4.1,0,0,1,1.691-.344,3.342,3.342,0,0,1,2.289.73,2.635,2.635,0,0,1,.859,2.012v3.891a4.757,4.757,0,0,0,.3,1.852V24Zm-2.4-1.1a2.54,2.54,0,0,0,1.289-.352,2.126,2.126,0,0,0,.883-.914V19.9h-1.133q-2.656,0-2.656,1.555a1.316,1.316,0,0,0,.453,1.063A1.742,1.742,0,0,0,381.016,22.9Zm12.609-1.016,1.969-6.336h1.547l-3.4,9.758q-.789,2.109-2.508,2.109l-.273-.023-.539-.1V26.117l.391.031a1.923,1.923,0,0,0,1.145-.3,2.149,2.149,0,0,0,.676-1.086l.32-.859-3.016-8.359h1.578Zm10.211-5.312a3.073,3.073,0,0,1,2.5-1.18q2.68,0,2.7,3.023V24h-1.445V18.406a1.946,1.946,0,0,0-.418-1.352,1.675,1.675,0,0,0-1.277-.437,2.086,2.086,0,0,0-1.234.375,2.546,2.546,0,0,0-.828.984V24h-1.445V12h1.445Zm12.586,6.594a3.07,3.07,0,0,1-2.477.992,2.628,2.628,0,0,1-2.059-.785,3.4,3.4,0,0,1-.715-2.324v-5.5h1.445v5.461q0,1.922,1.563,1.922a2.163,2.163,0,0,0,2.2-1.234V15.547h1.445V24h-1.375Zm4.961-7.617.039.938a3.122,3.122,0,0,1,2.508-1.094,2.417,2.417,0,0,1,2.414,1.359,3.2,3.2,0,0,1,1.1-.984,3.242,3.242,0,0,1,1.6-.375q2.781,0,2.828,2.945V24h-1.445V18.422a1.941,1.941,0,0,0-.414-1.355,1.823,1.823,0,0,0-1.391-.449,1.916,1.916,0,0,0-1.336.48,1.949,1.949,0,0,0-.617,1.293V24h-1.453V18.461a1.613,1.613,0,0,0-1.8-1.844,1.934,1.934,0,0,0-1.945,1.211V24h-1.445V15.547Zm16.172,8.609a3.693,3.693,0,0,1-2.8-1.129,4.19,4.19,0,0,1-1.078-3.02v-.266a5.073,5.073,0,0,1,.48-2.246,3.748,3.748,0,0,1,1.344-1.547,3.379,3.379,0,0,1,1.871-.559,3.166,3.166,0,0,1,2.563,1.086,4.7,4.7,0,0,1,.914,3.109v.6h-5.727a3,3,0,0,0,.73,2.02,2.3,2.3,0,0,0,1.777.77,2.517,2.517,0,0,0,1.3-.312,3.259,3.259,0,0,0,.93-.828l.883.688A3.55,3.55,0,0,1,437.555,24.156Zm-.18-7.578a1.928,1.928,0,0,0-1.469.637A3.1,3.1,0,0,0,435.172,19h4.234v-.109a2.753,2.753,0,0,0-.594-1.707A1.815,1.815,0,0,0,437.375,16.578Zm4.8,3.125a4.952,4.952,0,0,1,.922-3.129,3.137,3.137,0,0,1,4.766-.168V12H449.3V24h-1.328l-.07-.906a2.943,2.943,0,0,1-2.414,1.063,2.887,2.887,0,0,1-2.395-1.2,5.008,5.008,0,0,1-.926-3.141Zm1.445.164a3.749,3.749,0,0,0,.594,2.25,1.92,1.92,0,0,0,1.641.813,2.109,2.109,0,0,0,2.008-1.234V17.813a2.125,2.125,0,0,0-1.992-1.2,1.929,1.929,0,0,0-1.656.82A4.128,4.128,0,0,0,443.617,19.867ZM456.766,24a3.036,3.036,0,0,1-.2-.891,3.225,3.225,0,0,1-2.406,1.047,2.984,2.984,0,0,1-2.051-.707,2.288,2.288,0,0,1-.8-1.793,2.39,2.39,0,0,1,1-2.051,4.733,4.733,0,0,1,2.824-.73h1.406v-.664A1.623,1.623,0,0,0,456.086,17a1.821,1.821,0,0,0-1.336-.449,2.108,2.108,0,0,0-1.3.391,1.151,1.151,0,0,0-.523.945h-1.453a2,2,0,0,1,.449-1.223,3.066,3.066,0,0,1,1.219-.934,4.1,4.1,0,0,1,1.691-.344,3.342,3.342,0,0,1,2.289.73,2.635,2.635,0,0,1,.859,2.012v3.891a4.757,4.757,0,0,0,.3,1.852V24Zm-2.4-1.1a2.54,2.54,0,0,0,1.289-.352,2.126,2.126,0,0,0,.883-.914V19.9h-1.133q-2.656,0-2.656,1.555a1.316,1.316,0,0,0,.453,1.063A1.742,1.742,0,0,0,454.367,22.9Zm5.531-3.2a4.952,4.952,0,0,1,.922-3.129,3.137,3.137,0,0,1,4.766-.168V12h1.445V24H465.7l-.07-.906a2.943,2.943,0,0,1-2.414,1.063,2.887,2.887,0,0,1-2.395-1.2,5.008,5.008,0,0,1-.926-3.141Zm1.445.164a3.749,3.749,0,0,0,.594,2.25,1.92,1.92,0,0,0,1.641.813,2.109,2.109,0,0,0,2.008-1.234V17.813a2.125,2.125,0,0,0-1.992-1.2,1.929,1.929,0,0,0-1.656.82A4.128,4.128,0,0,0,461.344,19.867Zm11.266-.406a12.084,12.084,0,0,1-.457,3.34,9.876,9.876,0,0,1-1.4,2.949,6.127,6.127,0,0,1-1.973,1.922l-.3-.883a6.281,6.281,0,0,0,1.934-2.863,12.387,12.387,0,0,0,.746-4.309v-.25a12.862,12.862,0,0,0-.344-3.051,10.3,10.3,0,0,0-.957-2.527,5.838,5.838,0,0,0-1.379-1.742l.3-.883a6.1,6.1,0,0,1,1.965,1.906,9.9,9.9,0,0,1,1.4,2.945A12.363,12.363,0,0,1,472.609,19.461ZM3.258,36.625l3.719,9.281L10.7,36.625h1.945V48h-1.5V43.57l.141-4.781L7.547,48H6.4L2.672,38.813,2.82,43.57V48H1.32V36.625ZM20.281,48a3.036,3.036,0,0,1-.2-.891,3.225,3.225,0,0,1-2.406,1.047,2.984,2.984,0,0,1-2.051-.707,2.287,2.287,0,0,1-.8-1.793,2.39,2.39,0,0,1,1-2.051,4.733,4.733,0,0,1,2.824-.73h1.406v-.664A1.623,1.623,0,0,0,19.6,41a1.821,1.821,0,0,0-1.336-.449,2.107,2.107,0,0,0-1.3.391,1.151,1.151,0,0,0-.523.945H14.992a2,2,0,0,1,.449-1.223,3.066,3.066,0,0,1,1.219-.934,4.1,4.1,0,0,1,1.691-.344,3.342,3.342,0,0,1,2.289.73,2.635,2.635,0,0,1,.859,2.012v3.891a4.757,4.757,0,0,0,.3,1.852V48Zm-2.4-1.1a2.54,2.54,0,0,0,1.289-.352,2.127,2.127,0,0,0,.883-.914V43.9H18.922q-2.656,0-2.656,1.555a1.316,1.316,0,0,0,.453,1.063A1.742,1.742,0,0,0,17.883,46.9Zm7.25-7.352.047,1.063a3.08,3.08,0,0,1,2.531-1.219q2.68,0,2.7,3.023V48H28.969V42.406a1.946,1.946,0,0,0-.418-1.352,1.675,1.675,0,0,0-1.277-.437,2.086,2.086,0,0,0-1.234.375,2.546,2.546,0,0,0-.828.984V48H23.766V39.547ZM34.164,48H32.719V39.547h1.445ZM32.6,37.3a.863.863,0,0,1,.215-.594.807.807,0,0,1,.637-.242.819.819,0,0,1,.641.242.854.854,0,0,1,.219.594.826.826,0,0,1-.219.586.834.834,0,0,1-.641.234.821.821,0,0,1-.637-.234A.834.834,0,0,1,32.6,37.3Zm11.016,6.563a5.062,5.062,0,0,1-.883,3.109,2.829,2.829,0,0,1-2.391,1.18,3.1,3.1,0,0,1-2.422-.977v4.07H36.477v-11.7H37.8l.07.938a2.977,2.977,0,0,1,2.453-1.094,2.882,2.882,0,0,1,2.41,1.148,5.117,5.117,0,0,1,.887,3.2ZM42.172,43.7a3.735,3.735,0,0,0-.609-2.258,1.963,1.963,0,0,0-1.672-.828,2.125,2.125,0,0,0-1.969,1.164V45.82a2.129,2.129,0,0,0,1.984,1.156,1.954,1.954,0,0,0,1.652-.824A4.077,4.077,0,0,0,42.172,43.7Zm8.5,3.461a3.07,3.07,0,0,1-2.477.992,2.628,2.628,0,0,1-2.059-.785,3.4,3.4,0,0,1-.715-2.324v-5.5h1.445v5.461q0,1.922,1.563,1.922a2.163,2.163,0,0,0,2.2-1.234V39.547h1.445V48H50.7ZM55.844,48H54.4V36h1.445Zm7.531,0a3.036,3.036,0,0,1-.2-.891,3.225,3.225,0,0,1-2.406,1.047,2.984,2.984,0,0,1-2.051-.707,2.287,2.287,0,0,1-.8-1.793,2.39,2.39,0,0,1,1-2.051,4.733,4.733,0,0,1,2.824-.73h1.406v-.664A1.623,1.623,0,0,0,62.7,41a1.821,1.821,0,0,0-1.336-.449,2.107,2.107,0,0,0-1.3.391,1.151,1.151,0,0,0-.523.945H58.086a2,2,0,0,1,.449-1.223,3.066,3.066,0,0,1,1.219-.934,4.1,4.1,0,0,1,1.691-.344,3.342,3.342,0,0,1,2.289.73,2.635,2.635,0,0,1,.859,2.012v3.891a4.757,4.757,0,0,0,.3,1.852V48Zm-2.4-1.1a2.54,2.54,0,0,0,1.289-.352,2.127,2.127,0,0,0,.883-.914V43.9H62.016q-2.656,0-2.656,1.555a1.316,1.316,0,0,0,.453,1.063A1.742,1.742,0,0,0,60.977,46.9Zm5.531-3.2a4.952,4.952,0,0,1,.922-3.129,3.137,3.137,0,0,1,4.766-.168V36h1.445V48H72.313l-.07-.906a2.943,2.943,0,0,1-2.414,1.063,2.887,2.887,0,0,1-2.395-1.2,5.008,5.008,0,0,1-.926-3.141Zm1.445.164a3.749,3.749,0,0,0,.594,2.25,1.92,1.92,0,0,0,1.641.813A2.108,2.108,0,0,0,72.2,45.7V41.813a2.125,2.125,0,0,0-1.992-1.2,1.929,1.929,0,0,0-1.656.82A4.128,4.128,0,0,0,67.953,43.867ZM75.5,43.7a4.993,4.993,0,0,1,.488-2.234,3.643,3.643,0,0,1,1.359-1.531,3.7,3.7,0,0,1,1.988-.539,3.565,3.565,0,0,1,2.793,1.2,4.6,4.6,0,0,1,1.066,3.18v.1a5.036,5.036,0,0,1-.473,2.215,3.589,3.589,0,0,1-1.352,1.527,3.743,3.743,0,0,1-2.02.547,3.556,3.556,0,0,1-2.785-1.2A4.575,4.575,0,0,1,75.5,43.8Zm1.453.172a3.616,3.616,0,0,0,.652,2.258,2.211,2.211,0,0,0,3.5-.012A3.955,3.955,0,0,0,81.75,43.7a3.61,3.61,0,0,0-.66-2.254,2.1,2.1,0,0,0-1.754-.863,2.075,2.075,0,0,0-1.727.852A3.925,3.925,0,0,0,76.953,43.867Zm12.141-3.023a4.331,4.331,0,0,0-.711-.055A1.9,1.9,0,0,0,86.453,42v6H85.008V39.547h1.406l.023.977a2.251,2.251,0,0,1,2.016-1.133,1.477,1.477,0,0,1,.641.109Zm4.688,7.313a3.693,3.693,0,0,1-2.8-1.129,4.19,4.19,0,0,1-1.078-3.02v-.266a5.073,5.073,0,0,1,.48-2.246,3.748,3.748,0,0,1,1.344-1.547,3.378,3.378,0,0,1,1.871-.559,3.166,3.166,0,0,1,2.563,1.086,4.7,4.7,0,0,1,.914,3.109v.6H91.352a3,3,0,0,0,.73,2.02,2.3,2.3,0,0,0,1.777.77,2.517,2.517,0,0,0,1.3-.312,3.259,3.259,0,0,0,.93-.828l.883.688A3.55,3.55,0,0,1,93.781,48.156Zm-.18-7.578a1.928,1.928,0,0,0-1.469.637A3.1,3.1,0,0,0,91.4,43h4.234v-.109a2.753,2.753,0,0,0-.594-1.707A1.815,1.815,0,0,0,93.6,40.578Zm10.07,5.18a1.064,1.064,0,0,0-.441-.91,4.249,4.249,0,0,0-1.539-.559,7.277,7.277,0,0,1-1.742-.562A2.479,2.479,0,0,1,99,42.945a1.869,1.869,0,0,1-.309-1.078,2.193,2.193,0,0,1,.879-1.758,3.432,3.432,0,0,1,2.246-.719,3.532,3.532,0,0,1,2.332.742,2.357,2.357,0,0,1,.895,1.9h-1.453a1.3,1.3,0,0,0-.5-1.023,1.888,1.888,0,0,0-1.27-.43,1.976,1.976,0,0,0-1.234.344,1.082,1.082,0,0,0-.445.9.877.877,0,0,0,.414.789,5.1,5.1,0,0,0,1.5.508,7.8,7.8,0,0,1,1.754.578,2.558,2.558,0,0,1,1,.809,1.988,1.988,0,0,1,.324,1.152,2.163,2.163,0,0,1-.906,1.816,3.8,3.8,0,0,1-2.352.684,4.257,4.257,0,0,1-1.8-.359,2.922,2.922,0,0,1-1.223-1A2.42,2.42,0,0,1,98.4,45.4h1.445a1.5,1.5,0,0,0,.582,1.152,2.258,2.258,0,0,0,1.434.426,2.331,2.331,0,0,0,1.316-.332A1.02,1.02,0,0,0,103.672,45.758Zm6.938-2.055a4.952,4.952,0,0,1,.922-3.129,3.137,3.137,0,0,1,4.766-.168V36h1.445V48h-1.328l-.07-.906a2.943,2.943,0,0,1-2.414,1.063,2.887,2.887,0,0,1-2.395-1.2,5.008,5.008,0,0,1-.926-3.141Zm1.445.164a3.749,3.749,0,0,0,.594,2.25,1.92,1.92,0,0,0,1.641.813A2.108,2.108,0,0,0,116.3,45.7V41.813a2.125,2.125,0,0,0-1.992-1.2,1.929,1.929,0,0,0-1.656.82A4.128,4.128,0,0,0,112.055,43.867Zm11.438,4.289a3.693,3.693,0,0,1-2.8-1.129,4.19,4.19,0,0,1-1.078-3.02v-.266a5.073,5.073,0,0,1,.48-2.246,3.748,3.748,0,0,1,1.344-1.547,3.378,3.378,0,0,1,1.871-.559,3.166,3.166,0,0,1,2.563,1.086,4.7,4.7,0,0,1,.914,3.109v.6h-5.727a3,3,0,0,0,.73,2.02,2.3,2.3,0,0,0,1.777.77,2.517,2.517,0,0,0,1.3-.312,3.259,3.259,0,0,0,.93-.828l.883.688A3.55,3.55,0,0,1,123.492,48.156Zm-.18-7.578a1.928,1.928,0,0,0-1.469.637A3.1,3.1,0,0,0,121.109,43h4.234v-.109a2.753,2.753,0,0,0-.594-1.707A1.815,1.815,0,0,0,123.313,40.578ZM137.641,48a3.036,3.036,0,0,1-.2-.891,3.225,3.225,0,0,1-2.406,1.047,2.984,2.984,0,0,1-2.051-.707,2.287,2.287,0,0,1-.8-1.793,2.39,2.39,0,0,1,1-2.051,4.733,4.733,0,0,1,2.824-.73h1.406v-.664A1.623,1.623,0,0,0,136.961,41a1.821,1.821,0,0,0-1.336-.449,2.107,2.107,0,0,0-1.3.391,1.151,1.151,0,0,0-.523.945h-1.453a2,2,0,0,1,.449-1.223,3.066,3.066,0,0,1,1.219-.934,4.1,4.1,0,0,1,1.691-.344,3.342,3.342,0,0,1,2.289.73,2.635,2.635,0,0,1,.859,2.012v3.891a4.757,4.757,0,0,0,.3,1.852V48Zm-2.4-1.1a2.54,2.54,0,0,0,1.289-.352,2.127,2.127,0,0,0,.883-.914V43.9h-1.133q-2.656,0-2.656,1.555a1.316,1.316,0,0,0,.453,1.063A1.742,1.742,0,0,0,135.242,46.9ZM142.7,48H141.25V36H142.7Zm3.883,0h-1.445V39.547h1.445Zm-1.562-10.7a.863.863,0,0,1,.215-.594.807.807,0,0,1,.637-.242.819.819,0,0,1,.641.242.854.854,0,0,1,.219.594.826.826,0,0,1-.219.586.834.834,0,0,1-.641.234.821.821,0,0,1-.637-.234A.834.834,0,0,1,145.016,37.3Zm5.234,2.242.039.938a3.122,3.122,0,0,1,2.508-1.094,2.417,2.417,0,0,1,2.414,1.359,3.2,3.2,0,0,1,1.1-.984,3.242,3.242,0,0,1,1.6-.375q2.781,0,2.828,2.945V48h-1.445V42.422a1.941,1.941,0,0,0-.414-1.355,1.823,1.823,0,0,0-1.391-.449,1.917,1.917,0,0,0-1.336.48,1.949,1.949,0,0,0-.617,1.293V48h-1.453V42.461a1.613,1.613,0,0,0-1.8-1.844,1.934,1.934,0,0,0-1.945,1.211V48h-1.445V39.547Zm16.172,8.609a3.693,3.693,0,0,1-2.8-1.129,4.19,4.19,0,0,1-1.078-3.02v-.266a5.073,5.073,0,0,1,.48-2.246,3.748,3.748,0,0,1,1.344-1.547,3.378,3.378,0,0,1,1.871-.559,3.166,3.166,0,0,1,2.563,1.086,4.7,4.7,0,0,1,.914,3.109v.6h-5.727a3,3,0,0,0,.73,2.02,2.3,2.3,0,0,0,1.777.77,2.517,2.517,0,0,0,1.3-.312,3.258,3.258,0,0,0,.93-.828l.883.688A3.55,3.55,0,0,1,166.422,48.156Zm-.18-7.578a1.928,1.928,0,0,0-1.469.637A3.1,3.1,0,0,0,164.039,43h4.234v-.109a2.753,2.753,0,0,0-.594-1.707A1.815,1.815,0,0,0,166.242,40.578Zm6.516-1.031.047,1.063a3.08,3.08,0,0,1,2.531-1.219q2.68,0,2.7,3.023V48h-1.445V42.406a1.946,1.946,0,0,0-.418-1.352,1.675,1.675,0,0,0-1.277-.437,2.086,2.086,0,0,0-1.234.375,2.546,2.546,0,0,0-.828.984V48h-1.445V39.547ZM182.18,37.5v2.047h1.578v1.117H182.18v5.249a1.173,1.173,0,0,0,.211.763.888.888,0,0,0,.719.254,3.5,3.5,0,0,0,.688-.094V48a4.215,4.215,0,0,1-1.109.155,1.8,1.8,0,0,1-1.461-.586,2.517,2.517,0,0,1-.492-1.664V40.664H179.2V39.547h1.539V37.5Zm2.727,6.2a4.993,4.993,0,0,1,.488-2.234,3.642,3.642,0,0,1,1.359-1.531,3.7,3.7,0,0,1,1.988-.539,3.565,3.565,0,0,1,2.793,1.2,4.6,4.6,0,0,1,1.066,3.18v.1a5.036,5.036,0,0,1-.473,2.215,3.589,3.589,0,0,1-1.352,1.527,3.743,3.743,0,0,1-2.02.547,3.556,3.556,0,0,1-2.785-1.2,4.575,4.575,0,0,1-1.066-3.164Zm1.453.172a3.616,3.616,0,0,0,.652,2.258,2.211,2.211,0,0,0,3.5-.012,3.954,3.954,0,0,0,.648-2.418,3.61,3.61,0,0,0-.66-2.254,2.1,2.1,0,0,0-1.754-.863,2.075,2.075,0,0,0-1.727.852A3.925,3.925,0,0,0,186.359,43.867Zm12.977,1.891a1.064,1.064,0,0,0-.441-.91,4.249,4.249,0,0,0-1.539-.559,7.277,7.277,0,0,1-1.742-.562,2.479,2.479,0,0,1-.953-.781,1.869,1.869,0,0,1-.309-1.078,2.193,2.193,0,0,1,.879-1.758,3.432,3.432,0,0,1,2.246-.719,3.532,3.532,0,0,1,2.332.742,2.357,2.357,0,0,1,.895,1.9H199.25a1.3,1.3,0,0,0-.5-1.023,1.888,1.888,0,0,0-1.27-.43,1.976,1.976,0,0,0-1.234.344,1.082,1.082,0,0,0-.445.9.877.877,0,0,0,.414.789,5.1,5.1,0,0,0,1.5.508,7.8,7.8,0,0,1,1.754.578,2.558,2.558,0,0,1,1,.809,1.988,1.988,0,0,1,.324,1.152,2.163,2.163,0,0,1-.906,1.816,3.8,3.8,0,0,1-2.352.684,4.257,4.257,0,0,1-1.8-.359,2.922,2.922,0,0,1-1.223-1,2.42,2.42,0,0,1-.441-1.395h1.445a1.5,1.5,0,0,0,.582,1.152,2.258,2.258,0,0,0,1.434.426,2.331,2.331,0,0,0,1.316-.332A1.02,1.02,0,0,0,199.336,45.758Z" transform="translate(697.051 7005.891)" fill="#12263f"/>
    <path id="Trazado_915318" data-name="Trazado 915318" d="M20,0H192a20,20,0,0,1,20,20V40.5a20,20,0,0,1-20,20H20a20,20,0,0,1-20-20V20A20,20,0,0,1,20,0Z" transform="translate(430 7018.391)" fill="#fcedb6"/>
    <path id="Trazado_915319" data-name="Trazado 915319" d="M18,0H87a18,18,0,0,1,0,36H18A18,18,0,0,1,18,0Z" transform="translate(430 6899.891)" fill="#33b9cb"/>
    <path id="Trazado_915320" data-name="Trazado 915320" d="M-65.668-3.852a4.154,4.154,0,0,1-.641,2.1,3.866,3.866,0,0,1-1.645,1.41,5.6,5.6,0,0,1-2.418.5A4.467,4.467,0,0,1-73.9-1.3,6.032,6.032,0,0,1-75.191-5.43v-.562a6.885,6.885,0,0,1,.582-2.926,4.41,4.41,0,0,1,1.676-1.937,4.676,4.676,0,0,1,2.531-.684,4.9,4.9,0,0,1,3.328,1.09,4.306,4.306,0,0,1,1.43,3h-2.734A2.037,2.037,0,0,0-68.9-8.937a2.153,2.153,0,0,0-1.5-.453,1.638,1.638,0,0,0-1.5.766,4.921,4.921,0,0,0-.5,2.445v.8a5.445,5.445,0,0,0,.457,2.6,1.672,1.672,0,0,0,1.574.781,2.106,2.106,0,0,0,1.445-.445,1.89,1.89,0,0,0,.531-1.414Zm.844-.453a4.989,4.989,0,0,1,.492-2.254,3.52,3.52,0,0,1,1.414-1.52,4.259,4.259,0,0,1,2.164-.531,3.887,3.887,0,0,1,2.992,1.176,4.512,4.512,0,0,1,1.094,3.2v.094A4.378,4.378,0,0,1-57.766-1,3.9,3.9,0,0,1-60.738.156a3.942,3.942,0,0,1-2.9-1.082,4.232,4.232,0,0,1-1.18-2.934Zm2.633.164a3.145,3.145,0,0,0,.367,1.719,1.223,1.223,0,0,0,1.086.547q1.406,0,1.438-2.164V-4.3q0-2.273-1.453-2.273-1.32,0-1.43,1.961Zm9.1-4.312.086.992A2.867,2.867,0,0,1-50.59-8.609a2.412,2.412,0,0,1,1.973.789,3.757,3.757,0,0,1,.676,2.375V0h-2.641V-5.336a1.426,1.426,0,0,0-.258-.941,1.193,1.193,0,0,0-.937-.3,1.256,1.256,0,0,0-1.148.609V0h-2.633V-8.453Zm9.672-2.1v2.1h1.391v1.828h-1.391v3.867a.987.987,0,0,0,.172.664.922.922,0,0,0,.68.188,3.862,3.862,0,0,0,.656-.047V-.07a4.859,4.859,0,0,1-1.484.227A2.758,2.758,0,0,1-45.4-.484a2.626,2.626,0,0,1-.648-1.945v-4.2h-1.078V-8.453h1.078v-2.1ZM-36.23,0a2.973,2.973,0,0,1-.25-.758,2.448,2.448,0,0,1-2.031.914,3,3,0,0,1-2.031-.723,2.3,2.3,0,0,1-.836-1.816,2.364,2.364,0,0,1,1.016-2.078,5.174,5.174,0,0,1,2.953-.7h.813v-.448q0-1.17-1.008-1.17a.824.824,0,0,0-.937.926h-2.633a2.36,2.36,0,0,1,1.043-1.99,4.383,4.383,0,0,1,2.66-.765,3.843,3.843,0,0,1,2.555.789,2.743,2.743,0,0,1,.961,2.164v3.742A3.832,3.832,0,0,0-33.6-.133V0Zm-1.648-1.719a1.469,1.469,0,0,0,.816-.211,1.322,1.322,0,0,0,.465-.477V-3.758h-.766q-1.375,0-1.375,1.234a.754.754,0,0,0,.242.582A.876.876,0,0,0-37.879-1.719Zm7.867-6.734.086.992a2.906,2.906,0,0,1,2.414-1.148,2.14,2.14,0,0,1,2.164,1.273,2.813,2.813,0,0,1,2.484-1.273q2.57,0,2.641,3.109V0h-2.641V-5.336a1.611,1.611,0,0,0-.219-.945.931.931,0,0,0-.8-.3,1.247,1.247,0,0,0-1.164.7l.008.109V0h-2.641V-5.32a1.694,1.694,0,0,0-.211-.961.929.929,0,0,0-.8-.3,1.263,1.263,0,0,0-1.156.7V0H-32.48V-8.453ZM-15.941,0h-2.641V-8.453h2.641Zm-2.8-10.641a1.186,1.186,0,0,1,.406-.927,1.527,1.527,0,0,1,1.055-.362,1.527,1.527,0,0,1,1.055.362,1.186,1.186,0,0,1,.406.927,1.186,1.186,0,0,1-.406.927,1.527,1.527,0,0,1-1.055.362,1.527,1.527,0,0,1-1.055-.362A1.186,1.186,0,0,1-18.738-10.641ZM-11.9-8.453l.086.992A2.867,2.867,0,0,1-9.4-8.609,2.412,2.412,0,0,1-7.43-7.82a3.757,3.757,0,0,1,.676,2.375V0H-9.395V-5.336a1.426,1.426,0,0,0-.258-.941,1.193,1.193,0,0,0-.937-.3,1.256,1.256,0,0,0-1.148.609V0h-2.633V-8.453ZM-.535,0a2.973,2.973,0,0,1-.25-.758A2.448,2.448,0,0,1-2.816.156,3,3,0,0,1-4.848-.566a2.3,2.3,0,0,1-.836-1.816A2.364,2.364,0,0,1-4.668-4.461a5.174,5.174,0,0,1,2.953-.7H-.9v-.448q0-1.17-1.008-1.17a.824.824,0,0,0-.937.926H-5.48a2.36,2.36,0,0,1,1.043-1.99,4.383,4.383,0,0,1,2.66-.765A3.843,3.843,0,0,1,.777-7.82a2.743,2.743,0,0,1,.961,2.164v3.742A3.832,3.832,0,0,0,2.1-.133V0ZM-2.184-1.719a1.469,1.469,0,0,0,.816-.211A1.322,1.322,0,0,0-.9-2.406V-3.758h-.766q-1.375,0-1.375,1.234a.754.754,0,0,0,.242.582A.876.876,0,0,0-2.184-1.719ZM6.77-1.875a1.171,1.171,0,0,0,.859-.3,1.1,1.1,0,0,0,.3-.84h2.469a2.922,2.922,0,0,1-1,2.281A3.705,3.705,0,0,1,6.832.156,3.751,3.751,0,0,1,3.926-1,4.556,4.556,0,0,1,2.863-4.2v-.109a5.149,5.149,0,0,1,.473-2.262A3.441,3.441,0,0,1,4.7-8.082a4.065,4.065,0,0,1,2.109-.527A3.658,3.658,0,0,1,9.426-7.7a3.242,3.242,0,0,1,.969,2.477H7.926a1.445,1.445,0,0,0-.32-1.008,1.106,1.106,0,0,0-.859-.352q-1.023,0-1.2,1.3A9.206,9.206,0,0,0,5.5-4.133a3.616,3.616,0,0,0,.3,1.766A1.055,1.055,0,0,0,6.77-1.875ZM14.285,0H11.645V-8.453h2.641Zm-2.8-10.641a1.186,1.186,0,0,1,.406-.927,1.527,1.527,0,0,1,1.055-.362A1.527,1.527,0,0,1,14-11.568a1.186,1.186,0,0,1,.406.927A1.186,1.186,0,0,1,14-9.713a1.527,1.527,0,0,1-1.055.362,1.527,1.527,0,0,1-1.055-.362A1.186,1.186,0,0,1,11.488-10.641ZM15.574-4.3a4.989,4.989,0,0,1,.492-2.254,3.52,3.52,0,0,1,1.414-1.52,4.259,4.259,0,0,1,2.164-.531,3.887,3.887,0,0,1,2.992,1.176,4.512,4.512,0,0,1,1.094,3.2v.094A4.378,4.378,0,0,1,22.633-1,3.9,3.9,0,0,1,19.66.156a3.942,3.942,0,0,1-2.9-1.082,4.232,4.232,0,0,1-1.18-2.934Zm2.633.164a3.145,3.145,0,0,0,.367,1.719,1.223,1.223,0,0,0,1.086.547q1.406,0,1.438-2.164V-4.3q0-2.273-1.453-2.273-1.32,0-1.43,1.961ZM20-12h2.781L20.613-9.547l-2.148,0Zm7.3,3.547.086.992a2.867,2.867,0,0,1,2.414-1.148,2.412,2.412,0,0,1,1.973.789,3.757,3.757,0,0,1,.676,2.375V0H29.816V-5.336a1.426,1.426,0,0,0-.258-.941,1.193,1.193,0,0,0-.937-.3,1.256,1.256,0,0,0-1.148.609V0H24.84V-8.453ZM37.566-4.289a5.164,5.164,0,0,1,.867-3.164,2.854,2.854,0,0,1,2.422-1.156,2.428,2.428,0,0,1,1.906.891V-12H45.4V0H43.035L42.9-.906A2.493,2.493,0,0,1,40.84.156,2.849,2.849,0,0,1,38.449-1,5.327,5.327,0,0,1,37.566-4.289Zm2.633.164q0,2.25,1.313,2.25a1.3,1.3,0,0,0,1.25-.734V-5.828a1.261,1.261,0,0,0-1.234-.75q-1.219,0-1.32,1.969ZM50.988.156A4.345,4.345,0,0,1,47.84-1a4.006,4.006,0,0,1-1.2-3.02v-.219a5.191,5.191,0,0,1,.48-2.289,3.516,3.516,0,0,1,1.4-1.535,4.233,4.233,0,0,1,2.188-.543A3.659,3.659,0,0,1,53.52-7.5a4.344,4.344,0,0,1,1.031,3.082V-3.4H49.316a1.9,1.9,0,0,0,.617,1.117,1.836,1.836,0,0,0,1.234.406,2.366,2.366,0,0,0,1.953-.875l1.2,1.422A3.363,3.363,0,0,1,52.93-.246,4.713,4.713,0,0,1,50.988.156Zm-.3-6.734q-1.156,0-1.375,1.531h2.656v-.2a1.3,1.3,0,0,0-.32-.98A1.275,1.275,0,0,0,50.691-6.578ZM62.371,0H59.73V-12h2.641Zm6.383,0a2.973,2.973,0,0,1-.25-.758,2.448,2.448,0,0,1-2.031.914,3,3,0,0,1-2.031-.723,2.3,2.3,0,0,1-.836-1.816,2.364,2.364,0,0,1,1.016-2.078,5.174,5.174,0,0,1,2.953-.7h.813v-.448q0-1.17-1.008-1.17a.824.824,0,0,0-.937.926H63.809a2.36,2.36,0,0,1,1.043-1.99,4.383,4.383,0,0,1,2.66-.765,3.843,3.843,0,0,1,2.555.789,2.743,2.743,0,0,1,.961,2.164v3.742a3.832,3.832,0,0,0,.359,1.781V0ZM67.105-1.719a1.469,1.469,0,0,0,.816-.211,1.322,1.322,0,0,0,.465-.477V-3.758h-.766q-1.375,0-1.375,1.234a.754.754,0,0,0,.242.582A.876.876,0,0,0,67.105-1.719ZM-23.75,17.125a1.171,1.171,0,0,0,.859-.3,1.1,1.1,0,0,0,.3-.84h2.469a2.922,2.922,0,0,1-1,2.281,3.705,3.705,0,0,1-2.566.891A3.751,3.751,0,0,1-26.594,18a4.556,4.556,0,0,1-1.062-3.2v-.109a5.149,5.149,0,0,1,.473-2.262,3.441,3.441,0,0,1,1.363-1.508,4.065,4.065,0,0,1,2.109-.527,3.658,3.658,0,0,1,2.617.914,3.242,3.242,0,0,1,.969,2.477h-2.469a1.445,1.445,0,0,0-.32-1.008,1.106,1.106,0,0,0-.859-.352q-1.023,0-1.2,1.3a9.206,9.206,0,0,0-.055,1.141,3.616,3.616,0,0,0,.3,1.766A1.055,1.055,0,0,0-23.75,17.125ZM-14.25,19a2.973,2.973,0,0,1-.25-.758,2.448,2.448,0,0,1-2.031.914,3,3,0,0,1-2.031-.723,2.3,2.3,0,0,1-.836-1.816,2.364,2.364,0,0,1,1.016-2.078,5.174,5.174,0,0,1,2.953-.7h.813v-.448q0-1.17-1.008-1.17a.824.824,0,0,0-.937.926H-19.2a2.36,2.36,0,0,1,1.043-1.99,4.383,4.383,0,0,1,2.66-.765,3.843,3.843,0,0,1,2.555.789,2.743,2.743,0,0,1,.961,2.164v3.742a3.832,3.832,0,0,0,.359,1.781V19ZM-15.9,17.281a1.469,1.469,0,0,0,.816-.211,1.322,1.322,0,0,0,.465-.477V15.242h-.766q-1.375,0-1.375,1.234a.754.754,0,0,0,.242.582A.876.876,0,0,0-15.9,17.281ZM-15.242,7h2.781l-2.172,2.453-2.148,0Zm9.148,9.625a.608.608,0,0,0-.352-.539,5.348,5.348,0,0,0-1.336-.422,6.092,6.092,0,0,1-1.625-.574,2.722,2.722,0,0,1-.977-.863,2.061,2.061,0,0,1-.336-1.164,2.336,2.336,0,0,1,.961-1.918,3.958,3.958,0,0,1,2.516-.754,4.386,4.386,0,0,1,2.688.758,2.37,2.37,0,0,1,1.016,1.992H-6.18q0-1.016-1.07-1.016a1.061,1.061,0,0,0-.7.23.714.714,0,0,0-.281.574.655.655,0,0,0,.344.57,3.248,3.248,0,0,0,1.1.359,9.486,9.486,0,0,1,1.324.336,2.406,2.406,0,0,1,1.906,2.352A2.214,2.214,0,0,1-4.582,18.43a4.505,4.505,0,0,1-2.66.727,4.6,4.6,0,0,1-1.937-.391A3.24,3.24,0,0,1-10.508,17.7a2.406,2.406,0,0,1-.477-1.414h2.461a1.017,1.017,0,0,0,.391.855,1.607,1.607,0,0,0,.961.27,1.264,1.264,0,0,0,.809-.219A.7.7,0,0,0-6.094,16.625Zm7.344.5a1.171,1.171,0,0,0,.859-.3,1.1,1.1,0,0,0,.3-.84H4.875a2.922,2.922,0,0,1-1,2.281,3.705,3.705,0,0,1-2.566.891A3.751,3.751,0,0,1-1.594,18a4.556,4.556,0,0,1-1.062-3.2v-.109a5.149,5.149,0,0,1,.473-2.262A3.441,3.441,0,0,1-.82,10.918a4.065,4.065,0,0,1,2.109-.527,3.658,3.658,0,0,1,2.617.914,3.242,3.242,0,0,1,.969,2.477H2.406a1.445,1.445,0,0,0-.32-1.008,1.106,1.106,0,0,0-.859-.352q-1.023,0-1.2,1.3a9.206,9.206,0,0,0-.055,1.141,3.616,3.616,0,0,0,.3,1.766A1.055,1.055,0,0,0,1.25,17.125ZM10.75,19a2.973,2.973,0,0,1-.25-.758,2.448,2.448,0,0,1-2.031.914,3,3,0,0,1-2.031-.723A2.3,2.3,0,0,1,5.6,16.617a2.364,2.364,0,0,1,1.016-2.078,5.174,5.174,0,0,1,2.953-.7h.813v-.448q0-1.17-1.008-1.17a.824.824,0,0,0-.937.926H5.8a2.36,2.36,0,0,1,1.043-1.99,4.383,4.383,0,0,1,2.66-.765,3.843,3.843,0,0,1,2.555.789,2.743,2.743,0,0,1,.961,2.164v3.742a3.832,3.832,0,0,0,.359,1.781V19ZM9.1,17.281a1.469,1.469,0,0,0,.816-.211,1.322,1.322,0,0,0,.465-.477V15.242H9.617q-1.375,0-1.375,1.234a.754.754,0,0,0,.242.582A.876.876,0,0,0,9.1,17.281ZM19.594,12.93l-.867-.062a1.558,1.558,0,0,0-1.594.781V19H14.5V10.547h2.469l.086,1.086a2.039,2.039,0,0,1,1.852-1.242,2.567,2.567,0,0,1,.734.094ZM25.07,19a2.973,2.973,0,0,1-.25-.758,2.448,2.448,0,0,1-2.031.914,3,3,0,0,1-2.031-.723,2.3,2.3,0,0,1-.836-1.816,2.364,2.364,0,0,1,1.016-2.078,5.174,5.174,0,0,1,2.953-.7H24.7v-.448q0-1.17-1.008-1.17a.824.824,0,0,0-.937.926H20.125a2.36,2.36,0,0,1,1.043-1.99,4.383,4.383,0,0,1,2.66-.765,3.843,3.843,0,0,1,2.555.789,2.743,2.743,0,0,1,.961,2.164v3.742a3.832,3.832,0,0,0,.359,1.781V19Zm-1.648-1.719a1.469,1.469,0,0,0,.816-.211,1.322,1.322,0,0,0,.465-.477V15.242h-.766q-1.375,0-1.375,1.234a.754.754,0,0,0,.242.582A.876.876,0,0,0,23.422,17.281Z" transform="translate(537 7046.391)" fill="#12263f"/>
    <g id="Grupo_1103069" data-name="Grupo 1103069" transform="translate(650.751 6971.241)">
      <g id="Grupo_1103055" data-name="Grupo 1103055" transform="translate(0 -0.002)" clip-path="url(#clip-path)">
        <path id="Trazado_876229" data-name="Trazado 876229" d="M20.07.234C14.478-1.038,8.768,3,6.985,8.261c-1.032,2.537-.874,5.445-.9,8.111-.131,8.843-.059,18.389-.224,27.173a12.056,12.056,0,0,1-2.6,6.37C2.7,50.595.517,53.253,0,53.881c.491.553,1.647,1.782,2.144,2.347A12.2,12.2,0,0,1,5.449,64.96c.014,6.114.038,12.248.1,18.36l.065,7.73c-.025,2.607,0,5.561,1.134,8.053,2.029,5.124,7.9,8.779,13.32,7.407-4.894-.934-9.22-3.7-11.158-8.308-.969-2.306-.861-4.624-.824-7.152l.065-7.73q.075-7.731.092-15.461c0-.665.008-2.243.009-2.9A15.05,15.05,0,0,0,4.274,54.3l-.463-.514L5.5,51.7c2.79-3.316,3.471-7.788,3.222-11.926-.005-7.539-.093-15.818-.155-23.407,0-1.041-.054-2.879-.008-3.852C8.659,6.191,14.164,1.485,20.07.234" transform="translate(0 0.002)" fill="#12263f"/>
      </g>
    </g>
    <path id="Trazado_915321" data-name="Trazado 915321" d="M11.663,0H8.6V-5.344H4.052V0H.967V-12.8H4.052v5.08H8.6V-12.8h3.067Zm7.479-1.028A3.054,3.054,0,0,1,16.6.176a3,3,0,0,1-2.369-.91,3.826,3.826,0,0,1-.8-2.615V-9.51h2.962v6.179a1.065,1.065,0,0,0,1.187,1.222,1.548,1.548,0,0,0,1.45-.729V-9.51h2.979V0H19.23ZM28.23.176a4.889,4.889,0,0,1-3.542-1.305,4.507,4.507,0,0,1-1.354-3.4v-.246a5.84,5.84,0,0,1,.541-2.575,3.955,3.955,0,0,1,1.578-1.727,4.763,4.763,0,0,1,2.461-.611,4.117,4.117,0,0,1,3.164,1.244,4.887,4.887,0,0,1,1.16,3.467v1.151H26.35a2.135,2.135,0,0,0,.694,1.257,2.066,2.066,0,0,0,1.389.457,2.662,2.662,0,0,0,2.2-.984l1.354,1.6A3.784,3.784,0,0,1,30.415-.277,5.3,5.3,0,0,1,28.23.176ZM27.9-7.4q-1.3,0-1.547,1.723h2.988v-.229a1.467,1.467,0,0,0-.36-1.1A1.434,1.434,0,0,0,27.9-7.4Zm9.211,3.876,1.5-5.985h3.12L38.628,0H35.6L32.5-9.51h3.129Zm5-1.318a5.613,5.613,0,0,1,.554-2.536,3.96,3.96,0,0,1,1.591-1.709,4.791,4.791,0,0,1,2.435-.6,4.373,4.373,0,0,1,3.366,1.323,5.076,5.076,0,0,1,1.23,3.6v.105a4.925,4.925,0,0,1-1.235,3.529A4.384,4.384,0,0,1,46.705.176a4.434,4.434,0,0,1-3.261-1.217,4.761,4.761,0,0,1-1.327-3.3Zm2.962.185a3.538,3.538,0,0,0,.413,1.934,1.376,1.376,0,0,0,1.222.615q1.582,0,1.617-2.435v-.3q0-2.558-1.635-2.558-1.485,0-1.608,2.206Zm12.5,1.986a.684.684,0,0,0-.4-.606,6.016,6.016,0,0,0-1.5-.475A6.853,6.853,0,0,1,53.842-4.4a3.062,3.062,0,0,1-1.1-.971,2.319,2.319,0,0,1-.378-1.31,2.628,2.628,0,0,1,1.081-2.158,4.453,4.453,0,0,1,2.83-.848,4.934,4.934,0,0,1,3.023.853,2.666,2.666,0,0,1,1.143,2.241H57.472q0-1.143-1.2-1.143a1.194,1.194,0,0,0-.782.259.8.8,0,0,0-.316.646.737.737,0,0,0,.387.642,3.654,3.654,0,0,0,1.235.4,10.671,10.671,0,0,1,1.49.378A2.706,2.706,0,0,1,60.425-2.76,2.491,2.491,0,0,1,59.269-.642a5.068,5.068,0,0,1-2.993.817A5.172,5.172,0,0,1,54.1-.264a3.645,3.645,0,0,1-1.494-1.2,2.707,2.707,0,0,1-.536-1.591h2.769a1.145,1.145,0,0,0,.439.962,1.808,1.808,0,0,0,1.081.3,1.422,1.422,0,0,0,.91-.246A.787.787,0,0,0,57.568-2.672Z" transform="translate(454.051 6924.891)" fill="#12263f"/>
    <g id="Grupo_1103082" data-name="Grupo 1103082" transform="translate(-736.282 6548.069)">
      <g id="Grupo_1098742" data-name="Grupo 1098742" transform="translate(1251.333 413)">
        <g id="Rect치ngulo_400898" data-name="Rect치ngulo 400898" transform="translate(0)" fill="#fff" stroke="#fff" stroke-width="3" opacity="0.859">
          <rect width="49.644" height="49.644" rx="24.822" stroke="none"/>
          <rect x="1.5" y="1.5" width="46.644" height="46.644" rx="23.322" fill="none"/>
        </g>
        <g id="Rect치ngulo_400907" data-name="Rect치ngulo 400907" transform="translate(0)" fill="none" stroke="#fff" stroke-width="3">
          <rect width="49.644" height="49.644" rx="24.822" stroke="none"/>
          <rect x="1.5" y="1.5" width="46.644" height="46.644" rx="23.322" fill="none"/>
        </g>
      </g>
      <g id="Grupo_1103662" data-name="Grupo 1103662" transform="translate(1202.282 419.563)">
        <path id="Trazado_914932" data-name="Trazado 914932" d="M85.778,27.533V17.551A9.307,9.307,0,0,0,78.3,8.437L81.475,3.67a1.032,1.032,0,0,0-.859-1.605c-.15,0-.6-.488-.787-.7a2.635,2.635,0,0,0-4.621,0c-.191.208-.637.7-.787.7s-.6-.488-.787-.7a2.635,2.635,0,0,0-4.621,0c-.191.208-.637.7-.787.7a1.032,1.032,0,0,0-.859,1.605L70.4,8.211a5.971,5.971,0,0,1-3.5-1.714,1.032,1.032,0,0,0-1.46,1.46,8.09,8.09,0,0,0,2.227,1.58,9.3,9.3,0,0,0-4.594,8.014v9.982A4.13,4.13,0,0,0,65.13,35.24H83.713a4.13,4.13,0,0,0,2.065-7.707ZM70.537,2.761c.191-.208.637-.7.787-.7s.6.488.787.7a2.635,2.635,0,0,0,4.621,0c.191-.208.637-.7.787-.7s.6.488.787.7a7.419,7.419,0,0,0,.78.771L75.934,8.259H72.909L69.757,3.532a7.412,7.412,0,0,0,.78-.771ZM83.713,33.175H65.13a2.065,2.065,0,0,1-.688-4.012,1.032,1.032,0,0,0,.688-.973V17.551a7.235,7.235,0,0,1,7.227-7.227h4.13a7.235,7.235,0,0,1,7.227,7.227V28.189a1.033,1.033,0,0,0,.688.973,2.065,2.065,0,0,1-.688,4.012Z" transform="translate(0)" fill="#7b8883"/>
        <path id="Trazado_914933" data-name="Trazado 914933" d="M163.572,227.721a4.135,4.135,0,0,0-.994-4.239,1.032,1.032,0,1,0-1.46,1.46,2.065,2.065,0,1,1-2.92,0,1.032,1.032,0,1,0-1.46-1.46,4.135,4.135,0,0,0-.994,4.241,4.134,4.134,0,0,0-3.172,2.978,1.032,1.032,0,0,0,1.994.534,2.065,2.065,0,1,1,1.46,2.529,1.032,1.032,0,1,0-.534,1.994,4.125,4.125,0,0,0,4.167-1.259,4.125,4.125,0,0,0,4.166,1.258,1.032,1.032,0,1,0-.534-1.994,2.065,2.065,0,1,1,1.46-2.529,1.032,1.032,0,0,0,1.994-.534A4.134,4.134,0,0,0,163.572,227.721Z" transform="translate(-85.236 -207.818)" fill="#7b8883"/>
      </g>
    </g>
    <g id="Grupo_1103837" data-name="Grupo 1103837" transform="translate(-160.666 278.437)">
      <path id="Trazado_915277" data-name="Trazado 915277" d="M4281.747,1899.406a5.615,5.615,0,1,0-5.616,5.772A5.6,5.6,0,0,0,4281.747,1899.406Zm-2.128-1c-.246.252-.5.5-.747.748-.152.152-.308.3-.462.452a.215.215,0,0,1-.081.082,8.47,8.47,0,0,1-.607.6.036.036,0,0,1-.021.009.15.15,0,0,1-.107.108.038.038,0,0,1-.009.021h0a8.4,8.4,0,0,1-.6.607h0a.167.167,0,0,1-.1.087.035.035,0,0,1-.009.021h0a7.8,7.8,0,0,1-.63.63l-.084.084a9.609,9.609,0,0,1-.69.7c-.161.151-.38.107-.55-.085a1.508,1.508,0,0,1-.236-.236h0l-.478-.479a1.641,1.641,0,0,1-.237-.237h0l-.505-.5a1.315,1.315,0,0,1-.21-.209l-.026-.027h0l-.478-.479-.026-.027c-.279-.236-.279-.453,0-.689l.026-.027a3.09,3.09,0,0,1,.476-.455c.012-.024.034-.021.055-.018a.4.4,0,0,1,.424.134c.089.1.182.189.273.283l1.108,1.1c.139.138.139.139.285.017l.371-.371h0a3.461,3.461,0,0,1,.37-.37l.318-.318.027-.026h0l.4-.4h0l.319-.316a3.9,3.9,0,0,1,.372-.371,3.809,3.809,0,0,1,.37-.37,3.949,3.949,0,0,1,.37-.371c.12-.123.235-.251.36-.367a.353.353,0,0,1,.491.008c.175.167.347.338.514.513A.351.351,0,0,1,4279.619,1898.41Z" transform="translate(-3436.084 4821.768)" fill="#f54749"/>
      <path id="Trazado_915279" data-name="Trazado 915279" d="M4281.747,1899.406a5.615,5.615,0,1,0-5.616,5.772A5.6,5.6,0,0,0,4281.747,1899.406Zm-2.128-1c-.246.252-.5.5-.747.748-.152.152-.308.3-.462.452a.215.215,0,0,1-.081.082,8.47,8.47,0,0,1-.607.6.036.036,0,0,1-.021.009.15.15,0,0,1-.107.108.038.038,0,0,1-.009.021h0a8.4,8.4,0,0,1-.6.607h0a.167.167,0,0,1-.1.087.035.035,0,0,1-.009.021h0a7.8,7.8,0,0,1-.63.63l-.084.084a9.609,9.609,0,0,1-.69.7c-.161.151-.38.107-.55-.085a1.508,1.508,0,0,1-.236-.236h0l-.478-.479a1.641,1.641,0,0,1-.237-.237h0l-.505-.5a1.315,1.315,0,0,1-.21-.209l-.026-.027h0l-.478-.479-.026-.027c-.279-.236-.279-.453,0-.689l.026-.027a3.09,3.09,0,0,1,.476-.455c.012-.024.034-.021.055-.018a.4.4,0,0,1,.424.134c.089.1.182.189.273.283l1.108,1.1c.139.138.139.139.285.017l.371-.371h0a3.461,3.461,0,0,1,.37-.37l.318-.318.027-.026h0l.4-.4h0l.319-.316a3.9,3.9,0,0,1,.372-.371,3.809,3.809,0,0,1,.37-.37,3.949,3.949,0,0,1,.37-.371c.12-.123.235-.251.36-.367a.353.353,0,0,1,.491.008c.175.167.347.338.514.513A.351.351,0,0,1,4279.619,1898.41Z" transform="translate(-3436.084 4871.277)" fill="#f54749"/>
      <path id="Trazado_915278" data-name="Trazado 915278" d="M4281.747,1899.406a5.615,5.615,0,1,0-5.616,5.772A5.6,5.6,0,0,0,4281.747,1899.406Zm-2.128-1c-.246.252-.5.5-.747.748-.152.152-.308.3-.462.452a.215.215,0,0,1-.081.082,8.47,8.47,0,0,1-.607.6.036.036,0,0,1-.021.009.15.15,0,0,1-.107.108.038.038,0,0,1-.009.021h0a8.4,8.4,0,0,1-.6.607h0a.167.167,0,0,1-.1.087.035.035,0,0,1-.009.021h0a7.8,7.8,0,0,1-.63.63l-.084.084a9.609,9.609,0,0,1-.69.7c-.161.151-.38.107-.55-.085a1.508,1.508,0,0,1-.236-.236h0l-.478-.479a1.641,1.641,0,0,1-.237-.237h0l-.505-.5a1.315,1.315,0,0,1-.21-.209l-.026-.027h0l-.478-.479-.026-.027c-.279-.236-.279-.453,0-.689l.026-.027a3.09,3.09,0,0,1,.476-.455c.012-.024.034-.021.055-.018a.4.4,0,0,1,.424.134c.089.1.182.189.273.283l1.108,1.1c.139.138.139.139.285.017l.371-.371h0a3.461,3.461,0,0,1,.37-.37l.318-.318.027-.026h0l.4-.4h0l.319-.316a3.9,3.9,0,0,1,.372-.371,3.809,3.809,0,0,1,.37-.37,3.949,3.949,0,0,1,.37-.371c.12-.123.235-.251.36-.367a.353.353,0,0,1,.491.008c.175.167.347.338.514.513A.351.351,0,0,1,4279.619,1898.41Z" transform="translate(-3436.084 4846.522)" fill="#f54749"/>
    </g>
  </g>
</svg>
