<svg xmlns="http://www.w3.org/2000/svg" xmlns:xlink="http://www.w3.org/1999/xlink" width="715" height="366.5" viewBox="0 0 715 366.5">
  <defs>
    <clipPath id="clip-path">
      <rect id="Rectángulo_403033" data-name="Rectángulo 403033" width="20.07" height="106.803" fill="#12263f"/>
    </clipPath>
    <clipPath id="clip-path-3">
      <rect id="Rectángulo_403033-3" data-name="Rectángulo 403033" width="20.07" height="173.803" fill="#12263f"/>
    </clipPath>
  </defs>
  <g id="Grupo_1103874" data-name="Grupo 1103874" transform="translate(-705 -5541.8)">
    <g id="Grupo_1103074" data-name="Grupo 1103074" transform="translate(704.949 5541.8)">
      <rect id="Rectángulo_402888" data-name="Rectángulo 402888" width="715" height="366.5" transform="translate(0.051)" fill="#d6f1f4" opacity="0.3"/>
    </g>
    <path id="Trazado_915303" data-name="Trazado 915303" d="M4.078-11.375,7-3.125l2.906-8.25h3.078V0H10.633V-3.109l.234-5.367L7.8,0H6.188L3.125-8.469l.234,5.359V0H1.016V-11.375ZM17.266,0H15V-8.453h2.266Zm-2.4-10.641a1.112,1.112,0,0,1,.34-.836,1.277,1.277,0,0,1,.926-.328,1.28,1.28,0,0,1,.922.328,1.105,1.105,0,0,1,.344.836,1.108,1.108,0,0,1-.348.844,1.283,1.283,0,0,1-.918.328,1.283,1.283,0,0,1-.918-.328A1.108,1.108,0,0,1,14.867-10.641Zm7.773,8.977a1.481,1.481,0,0,0,1.016-.344,1.2,1.2,0,0,0,.406-.914H26.18a2.9,2.9,0,0,1-.469,1.574A3.093,3.093,0,0,1,24.449-.238a3.949,3.949,0,0,1-1.77.395A3.67,3.67,0,0,1,19.82-1,4.56,4.56,0,0,1,18.773-4.18v-.148a4.508,4.508,0,0,1,1.039-3.117,3.627,3.627,0,0,1,2.852-1.164,3.555,3.555,0,0,1,2.543.9,3.2,3.2,0,0,1,.973,2.4H24.063a1.551,1.551,0,0,0-.406-1.072,1.354,1.354,0,0,0-1.031-.412,1.36,1.36,0,0,0-1.191.575,3.333,3.333,0,0,0-.4,1.866v.235a3.375,3.375,0,0,0,.4,1.878A1.377,1.377,0,0,0,22.641-1.664Zm9.578-4.672a6.134,6.134,0,0,0-.812-.062,1.654,1.654,0,0,0-1.68.867V0H27.469V-8.453H29.6l.063,1.008a2.092,2.092,0,0,1,1.883-1.164,2.366,2.366,0,0,1,.7.1ZM32.672-4.3a5.013,5.013,0,0,1,.484-2.242A3.546,3.546,0,0,1,34.551-8.07a4.069,4.069,0,0,1,2.113-.539,3.849,3.849,0,0,1,2.793,1.047,4.2,4.2,0,0,1,1.207,2.844l.016.578A4.418,4.418,0,0,1,39.594-1.02,3.775,3.775,0,0,1,36.68.156a3.793,3.793,0,0,1-2.918-1.172A4.5,4.5,0,0,1,32.672-4.2Zm2.258.16A3.16,3.16,0,0,0,35.383-2.3a1.5,1.5,0,0,0,1.3.638,1.5,1.5,0,0,0,1.281-.63,3.457,3.457,0,0,0,.461-2.015,3.128,3.128,0,0,0-.461-1.831,1.5,1.5,0,0,0-1.3-.649,1.474,1.474,0,0,0-1.281.646A3.516,3.516,0,0,0,34.93-4.144Zm6.789-.16A5.013,5.013,0,0,1,42.2-6.547,3.546,3.546,0,0,1,43.6-8.07a4.069,4.069,0,0,1,2.113-.539A3.849,3.849,0,0,1,48.5-7.562a4.2,4.2,0,0,1,1.207,2.844l.016.578A4.418,4.418,0,0,1,48.641-1.02,3.775,3.775,0,0,1,45.727.156a3.793,3.793,0,0,1-2.918-1.172A4.5,4.5,0,0,1,41.719-4.2Zm2.258.16A3.16,3.16,0,0,0,44.43-2.3a1.5,1.5,0,0,0,1.3.638,1.5,1.5,0,0,0,1.281-.63,3.457,3.457,0,0,0,.461-2.015,3.128,3.128,0,0,0-.461-1.831,1.5,1.5,0,0,0-1.3-.649,1.474,1.474,0,0,0-1.281.646A3.516,3.516,0,0,0,43.977-4.144ZM55.867-6.336a6.134,6.134,0,0,0-.812-.062,1.654,1.654,0,0,0-1.68.867V0H51.117V-8.453H53.25l.063,1.008A2.092,2.092,0,0,1,55.2-8.609a2.366,2.366,0,0,1,.7.1Zm.609,2.047A4.954,4.954,0,0,1,57.4-7.422a3,3,0,0,1,2.5-1.187,2.631,2.631,0,0,1,2.164.953l.094-.8H64.2V-.281a3.613,3.613,0,0,1-.5,1.93A3.236,3.236,0,0,1,62.281,2.9a4.985,4.985,0,0,1-2.141.43,4.635,4.635,0,0,1-1.812-.371A3.217,3.217,0,0,1,56.992,2l1-1.375a2.645,2.645,0,0,0,2.047.945,1.936,1.936,0,0,0,1.4-.48,1.8,1.8,0,0,0,.5-1.363V-.727a2.612,2.612,0,0,1-2.055.883,2.992,2.992,0,0,1-2.465-1.191,4.953,4.953,0,0,1-.941-3.16Zm2.258.161A3.1,3.1,0,0,0,59.2-2.319a1.465,1.465,0,0,0,1.266.655,1.567,1.567,0,0,0,1.477-.777V-6.012a1.563,1.563,0,0,0-1.461-.777,1.474,1.474,0,0,0-1.277.667A3.5,3.5,0,0,0,58.734-4.128ZM70.836,0a2.507,2.507,0,0,1-.227-.758,2.732,2.732,0,0,1-2.133.914,3,3,0,0,1-2.059-.719A2.312,2.312,0,0,1,65.6-2.375a2.389,2.389,0,0,1,1-2.062,4.915,4.915,0,0,1,2.879-.727h1.039v-.484a1.393,1.393,0,0,0-.3-.937,1.183,1.183,0,0,0-.949-.352,1.345,1.345,0,0,0-.895.273.929.929,0,0,0-.324.75H65.789a2.268,2.268,0,0,1,.453-1.359,3,3,0,0,1,1.281-.98,4.669,4.669,0,0,1,1.859-.355,3.689,3.689,0,0,1,2.48.785,2.747,2.747,0,0,1,.918,2.207v3.664a4.041,4.041,0,0,0,.336,1.82V0ZM68.969-1.57a1.945,1.945,0,0,0,.922-.223,1.462,1.462,0,0,0,.625-.6V-3.844h-.844q-1.7,0-1.8,1.172l-.008.133a.9.9,0,0,0,.3.7A1.153,1.153,0,0,0,68.969-1.57Zm7.625-6.883.07.977a2.951,2.951,0,0,1,2.43-1.133,2.453,2.453,0,0,1,2,.789,3.682,3.682,0,0,1,.672,2.359V0H79.508V-5.419A1.47,1.47,0,0,0,79.2-6.464a1.4,1.4,0,0,0-1.039-.325,1.553,1.553,0,0,0-1.43.814V0H74.469V-8.453ZM85.859,0H83.594V-8.453h2.266Zm-2.4-10.641a1.112,1.112,0,0,1,.34-.836,1.277,1.277,0,0,1,.926-.328,1.28,1.28,0,0,1,.922.328,1.105,1.105,0,0,1,.344.836,1.108,1.108,0,0,1-.348.844,1.283,1.283,0,0,1-.918.328,1.283,1.283,0,0,1-.918-.328A1.108,1.108,0,0,1,83.461-10.641Zm8.836,8.3a.727.727,0,0,0-.41-.652,4.659,4.659,0,0,0-1.316-.426q-3.016-.633-3.016-2.562a2.323,2.323,0,0,1,.934-1.879,3.766,3.766,0,0,1,2.441-.754,4.053,4.053,0,0,1,2.574.758,2.388,2.388,0,0,1,.965,1.969H92.211a1.092,1.092,0,0,0-.312-.8A1.322,1.322,0,0,0,90.922-7a1.351,1.351,0,0,0-.883.258.814.814,0,0,0-.312.656.7.7,0,0,0,.355.605,3.657,3.657,0,0,0,1.2.4A9.8,9.8,0,0,1,92.7-4.7,2.336,2.336,0,0,1,94.492-2.43,2.2,2.2,0,0,1,93.5-.559a4.28,4.28,0,0,1-2.562.715,4.47,4.47,0,0,1-1.887-.379,3.166,3.166,0,0,1-1.293-1.039,2.414,2.414,0,0,1-.469-1.426H89.43a1.179,1.179,0,0,0,.445.922,1.766,1.766,0,0,0,1.109.32,1.635,1.635,0,0,0,.98-.246A.766.766,0,0,0,92.3-2.336Zm5.766-6.117.07.945a2.971,2.971,0,0,1,2.43-1.1A2.255,2.255,0,0,1,102.8-7.32a2.9,2.9,0,0,1,2.539-1.289,2.521,2.521,0,0,1,2.047.8,3.681,3.681,0,0,1,.672,2.41V0H105.8V-5.4a1.616,1.616,0,0,0-.281-1.053,1.245,1.245,0,0,0-.992-.333,1.409,1.409,0,0,0-1.406.971L103.125,0h-2.258V-5.4a1.6,1.6,0,0,0-.289-1.065,1.257,1.257,0,0,0-.984-.329,1.463,1.463,0,0,0-1.391.8V0H95.945V-8.453ZM109.445-4.3a5.013,5.013,0,0,1,.484-2.242,3.546,3.546,0,0,1,1.395-1.523,4.069,4.069,0,0,1,2.113-.539,3.849,3.849,0,0,1,2.793,1.047,4.2,4.2,0,0,1,1.207,2.844l.016.578a4.418,4.418,0,0,1-1.086,3.121A3.775,3.775,0,0,1,113.453.156a3.793,3.793,0,0,1-2.918-1.172,4.5,4.5,0,0,1-1.09-3.187Zm2.258.16a3.16,3.16,0,0,0,.453,1.843,1.5,1.5,0,0,0,1.3.638,1.5,1.5,0,0,0,1.281-.63,3.457,3.457,0,0,0,.461-2.015,3.128,3.128,0,0,0-.461-1.831,1.5,1.5,0,0,0-1.3-.649,1.474,1.474,0,0,0-1.281.646A3.516,3.516,0,0,0,111.7-4.144Zm11.719,1.808a.727.727,0,0,0-.41-.652,4.659,4.659,0,0,0-1.316-.426q-3.016-.633-3.016-2.562a2.323,2.323,0,0,1,.934-1.879,3.766,3.766,0,0,1,2.441-.754,4.053,4.053,0,0,1,2.574.758,2.388,2.388,0,0,1,.965,1.969h-2.258a1.092,1.092,0,0,0-.312-.8A1.322,1.322,0,0,0,122.047-7a1.351,1.351,0,0,0-.883.258.814.814,0,0,0-.312.656.7.7,0,0,0,.355.605,3.657,3.657,0,0,0,1.2.4,9.8,9.8,0,0,1,1.422.379,2.336,2.336,0,0,1,1.789,2.273,2.2,2.2,0,0,1-.992,1.871,4.28,4.28,0,0,1-2.562.715,4.47,4.47,0,0,1-1.887-.379,3.166,3.166,0,0,1-1.293-1.039,2.414,2.414,0,0,1-.469-1.426h2.141a1.179,1.179,0,0,0,.445.922,1.766,1.766,0,0,0,1.109.32,1.635,1.635,0,0,0,.98-.246A.766.766,0,0,0,123.422-2.336Zm12.383-4a6.134,6.134,0,0,0-.812-.062,1.654,1.654,0,0,0-1.68.867V0h-2.258V-8.453h2.133l.063,1.008a2.092,2.092,0,0,1,1.883-1.164,2.366,2.366,0,0,1,.7.1ZM140.633.156a4.15,4.15,0,0,1-3.027-1.141,4.054,4.054,0,0,1-1.168-3.039v-.219a5.106,5.106,0,0,1,.492-2.277,3.612,3.612,0,0,1,1.395-1.547,3.914,3.914,0,0,1,2.059-.543,3.508,3.508,0,0,1,2.73,1.094,4.444,4.444,0,0,1,1,3.1v.922h-5.383a2.1,2.1,0,0,0,.66,1.328,2,2,0,0,0,1.395.5,2.437,2.437,0,0,0,2.039-.945l1.109,1.242a3.389,3.389,0,0,1-1.375,1.121A4.511,4.511,0,0,1,140.633.156Zm-.258-6.945a1.411,1.411,0,0,0-1.09.455,2.357,2.357,0,0,0-.535,1.3h3.141v-.181a1.681,1.681,0,0,0-.406-1.165A1.456,1.456,0,0,0,140.375-6.789Zm9.594,4.453a.727.727,0,0,0-.41-.652,4.659,4.659,0,0,0-1.316-.426q-3.016-.633-3.016-2.562a2.323,2.323,0,0,1,.934-1.879,3.766,3.766,0,0,1,2.441-.754,4.053,4.053,0,0,1,2.574.758,2.388,2.388,0,0,1,.965,1.969h-2.258a1.092,1.092,0,0,0-.312-.8A1.322,1.322,0,0,0,148.594-7a1.351,1.351,0,0,0-.883.258.814.814,0,0,0-.312.656.7.7,0,0,0,.355.605,3.657,3.657,0,0,0,1.2.4,9.8,9.8,0,0,1,1.422.379,2.336,2.336,0,0,1,1.789,2.273,2.205,2.205,0,0,1-.992,1.871,4.28,4.28,0,0,1-2.562.715,4.47,4.47,0,0,1-1.887-.379,3.166,3.166,0,0,1-1.293-1.039,2.414,2.414,0,0,1-.469-1.426H147.1a1.179,1.179,0,0,0,.445.922,1.766,1.766,0,0,0,1.109.32,1.635,1.635,0,0,0,.98-.246A.766.766,0,0,0,149.969-2.336Zm11.258-1.812a5.07,5.07,0,0,1-.887,3.129A2.843,2.843,0,0,1,157.945.156a2.633,2.633,0,0,1-2.07-.891V3.25h-2.258v-11.7h2.094l.078.828a2.654,2.654,0,0,1,2.141-.984,2.862,2.862,0,0,1,2.43,1.156,5.207,5.207,0,0,1,.867,3.188Zm-2.258-.172a3.345,3.345,0,0,0-.418-1.826,1.36,1.36,0,0,0-1.215-.643,1.478,1.478,0,0,0-1.461.815V-2.5a1.5,1.5,0,0,0,1.477.839Q158.969-1.664,158.969-4.321Zm3.3.016a5.013,5.013,0,0,1,.484-2.242,3.546,3.546,0,0,1,1.395-1.523,4.069,4.069,0,0,1,2.113-.539,3.849,3.849,0,0,1,2.793,1.047,4.2,4.2,0,0,1,1.207,2.844l.016.578A4.418,4.418,0,0,1,169.2-1.02,3.775,3.775,0,0,1,166.281.156a3.793,3.793,0,0,1-2.918-1.172,4.5,4.5,0,0,1-1.09-3.187Zm2.258.16a3.16,3.16,0,0,0,.453,1.843,1.5,1.5,0,0,0,1.3.638,1.5,1.5,0,0,0,1.281-.63,3.457,3.457,0,0,0,.461-2.015,3.128,3.128,0,0,0-.461-1.831,1.5,1.5,0,0,0-1.3-.649,1.474,1.474,0,0,0-1.281.646A3.516,3.516,0,0,0,164.531-4.144Zm9.219-4.309.07.977a2.951,2.951,0,0,1,2.43-1.133,2.453,2.453,0,0,1,2,.789,3.682,3.682,0,0,1,.672,2.359V0h-2.258V-5.419a1.47,1.47,0,0,0-.312-1.045,1.4,1.4,0,0,0-1.039-.325,1.553,1.553,0,0,0-1.43.814V0h-2.258V-8.453Zm11.461,6.117a.727.727,0,0,0-.41-.652,4.659,4.659,0,0,0-1.316-.426q-3.016-.633-3.016-2.562a2.323,2.323,0,0,1,.934-1.879,3.766,3.766,0,0,1,2.441-.754,4.053,4.053,0,0,1,2.574.758,2.388,2.388,0,0,1,.965,1.969h-2.258a1.092,1.092,0,0,0-.312-.8A1.322,1.322,0,0,0,183.836-7a1.351,1.351,0,0,0-.883.258.814.814,0,0,0-.312.656A.7.7,0,0,0,183-5.48a3.657,3.657,0,0,0,1.2.4,9.8,9.8,0,0,1,1.422.379,2.336,2.336,0,0,1,1.789,2.273,2.205,2.205,0,0,1-.992,1.871,4.28,4.28,0,0,1-2.562.715,4.47,4.47,0,0,1-1.887-.379,3.166,3.166,0,0,1-1.293-1.039,2.414,2.414,0,0,1-.469-1.426h2.141a1.179,1.179,0,0,0,.445.922,1.766,1.766,0,0,0,1.109.32,1.635,1.635,0,0,0,.98-.246A.766.766,0,0,0,185.211-2.336ZM193.758,0a2.507,2.507,0,0,1-.227-.758A2.732,2.732,0,0,1,191.4.156a3,3,0,0,1-2.059-.719,2.312,2.312,0,0,1-.816-1.812,2.389,2.389,0,0,1,1-2.062,4.915,4.915,0,0,1,2.879-.727h1.039v-.484a1.393,1.393,0,0,0-.3-.937,1.183,1.183,0,0,0-.949-.352,1.345,1.345,0,0,0-.895.273.929.929,0,0,0-.324.75h-2.258a2.268,2.268,0,0,1,.453-1.359,3,3,0,0,1,1.281-.98,4.669,4.669,0,0,1,1.859-.355,3.689,3.689,0,0,1,2.48.785,2.747,2.747,0,0,1,.918,2.207v3.664a4.041,4.041,0,0,0,.336,1.82V0Zm-1.867-1.57a1.945,1.945,0,0,0,.922-.223,1.462,1.462,0,0,0,.625-.6V-3.844h-.844q-1.7,0-1.8,1.172l-.008.133a.9.9,0,0,0,.3.7A1.153,1.153,0,0,0,191.891-1.57Zm13.164-2.578a5.119,5.119,0,0,1-.867,3.168A2.872,2.872,0,0,1,201.766.156,2.639,2.639,0,0,1,199.57-.9l-.1.9h-2.031V-12H199.7v4.3a2.571,2.571,0,0,1,2.055-.914,2.9,2.9,0,0,1,2.426,1.137,5.126,5.126,0,0,1,.879,3.2ZM202.8-4.321a3.381,3.381,0,0,0-.406-1.877,1.372,1.372,0,0,0-1.211-.592A1.489,1.489,0,0,0,199.7-5.9v3.346a1.509,1.509,0,0,0,1.5.893,1.4,1.4,0,0,0,1.438-1.081A5.6,5.6,0,0,0,202.8-4.321ZM208.828,0h-2.266V-12h2.266Zm5.75.156a4.15,4.15,0,0,1-3.027-1.141,4.054,4.054,0,0,1-1.168-3.039v-.219a5.106,5.106,0,0,1,.492-2.277,3.612,3.612,0,0,1,1.395-1.547,3.914,3.914,0,0,1,2.059-.543,3.508,3.508,0,0,1,2.73,1.094,4.444,4.444,0,0,1,1,3.1v.922h-5.383a2.1,2.1,0,0,0,.66,1.328,2,2,0,0,0,1.395.5,2.437,2.437,0,0,0,2.039-.945l1.109,1.242A3.389,3.389,0,0,1,216.5-.246,4.511,4.511,0,0,1,214.578.156Zm-.258-6.945a1.411,1.411,0,0,0-1.09.455,2.357,2.357,0,0,0-.535,1.3h3.141v-.181a1.681,1.681,0,0,0-.406-1.165A1.456,1.456,0,0,0,214.32-6.789Zm9.594,4.453a.727.727,0,0,0-.41-.652,4.659,4.659,0,0,0-1.316-.426q-3.016-.633-3.016-2.562a2.323,2.323,0,0,1,.934-1.879,3.766,3.766,0,0,1,2.441-.754,4.053,4.053,0,0,1,2.574.758,2.388,2.388,0,0,1,.965,1.969h-2.258a1.092,1.092,0,0,0-.312-.8A1.322,1.322,0,0,0,222.539-7a1.351,1.351,0,0,0-.883.258.814.814,0,0,0-.312.656.7.7,0,0,0,.355.605,3.657,3.657,0,0,0,1.2.4,9.8,9.8,0,0,1,1.422.379,2.336,2.336,0,0,1,1.789,2.273,2.205,2.205,0,0,1-.992,1.871,4.28,4.28,0,0,1-2.562.715,4.47,4.47,0,0,1-1.887-.379,3.166,3.166,0,0,1-1.293-1.039,2.414,2.414,0,0,1-.469-1.426h2.141a1.179,1.179,0,0,0,.445.922,1.766,1.766,0,0,0,1.109.32,1.635,1.635,0,0,0,.98-.246A.766.766,0,0,0,223.914-2.336ZM231.2-4.289a5.094,5.094,0,0,1,.887-3.148,2.877,2.877,0,0,1,2.426-1.172,2.589,2.589,0,0,1,2.039.922V-12h2.266V0h-2.039l-.109-.9A2.657,2.657,0,0,1,234.492.156,2.869,2.869,0,0,1,232.1-1.02,5.258,5.258,0,0,1,231.2-4.289Zm2.258.161a3.355,3.355,0,0,0,.414,1.829,1.348,1.348,0,0,0,1.2.636,1.51,1.51,0,0,0,1.477-.887V-5.9a1.489,1.489,0,0,0-1.461-.887Q233.453-6.789,233.453-4.128Zm11,4.285a4.15,4.15,0,0,1-3.027-1.141,4.054,4.054,0,0,1-1.168-3.039v-.219a5.106,5.106,0,0,1,.492-2.277,3.612,3.612,0,0,1,1.395-1.547,3.914,3.914,0,0,1,2.059-.543,3.508,3.508,0,0,1,2.73,1.094,4.444,4.444,0,0,1,1,3.1v.922h-5.383a2.1,2.1,0,0,0,.66,1.328,2,2,0,0,0,1.395.5,2.437,2.437,0,0,0,2.039-.945l1.109,1.242a3.389,3.389,0,0,1-1.375,1.121A4.511,4.511,0,0,1,244.453.156ZM244.2-6.789a1.411,1.411,0,0,0-1.09.455,2.357,2.357,0,0,0-.535,1.3h3.141v-.181a1.681,1.681,0,0,0-.406-1.165A1.456,1.456,0,0,0,244.2-6.789ZM255.578,0h-2.266V-12h2.266Zm6.758,0a2.508,2.508,0,0,1-.227-.758,2.732,2.732,0,0,1-2.133.914,3,3,0,0,1-2.059-.719,2.312,2.312,0,0,1-.816-1.812,2.389,2.389,0,0,1,1-2.062,4.915,4.915,0,0,1,2.879-.727h1.039v-.484a1.393,1.393,0,0,0-.3-.937,1.183,1.183,0,0,0-.949-.352,1.345,1.345,0,0,0-.895.273.929.929,0,0,0-.324.75h-2.258a2.268,2.268,0,0,1,.453-1.359,3,3,0,0,1,1.281-.98,4.669,4.669,0,0,1,1.859-.355,3.689,3.689,0,0,1,2.48.785,2.747,2.747,0,0,1,.918,2.207v3.664a4.041,4.041,0,0,0,.336,1.82V0Zm-1.867-1.57a1.945,1.945,0,0,0,.922-.223,1.462,1.462,0,0,0,.625-.6V-3.844h-.844q-1.7,0-1.8,1.172l-.008.133a.9.9,0,0,0,.3.7A1.153,1.153,0,0,0,260.469-1.57Zm12.125-.25h4.133V0h-7.016V-1.375l3.977-5.258h-3.859v-1.82H276.6v1.33Zm5.07-2.484a5.013,5.013,0,0,1,.484-2.242,3.546,3.546,0,0,1,1.395-1.523,4.069,4.069,0,0,1,2.113-.539,3.849,3.849,0,0,1,2.793,1.047,4.2,4.2,0,0,1,1.207,2.844l.016.578a4.418,4.418,0,0,1-1.086,3.121A3.775,3.775,0,0,1,281.672.156a3.793,3.793,0,0,1-2.918-1.172,4.5,4.5,0,0,1-1.09-3.187Zm2.258.16a3.16,3.16,0,0,0,.453,1.843,1.5,1.5,0,0,0,1.3.638,1.5,1.5,0,0,0,1.281-.63,3.458,3.458,0,0,0,.461-2.015,3.128,3.128,0,0,0-.461-1.831,1.5,1.5,0,0,0-1.3-.649,1.474,1.474,0,0,0-1.281.646A3.516,3.516,0,0,0,279.922-4.144Zm6.789-.16a5.013,5.013,0,0,1,.484-2.242A3.546,3.546,0,0,1,288.59-8.07a4.069,4.069,0,0,1,2.113-.539A3.849,3.849,0,0,1,293.5-7.562,4.2,4.2,0,0,1,294.7-4.719l.016.578a4.418,4.418,0,0,1-1.086,3.121A3.775,3.775,0,0,1,290.719.156,3.793,3.793,0,0,1,287.8-1.016a4.5,4.5,0,0,1-1.09-3.187Zm2.258.16a3.16,3.16,0,0,0,.453,1.843,1.5,1.5,0,0,0,1.3.638A1.5,1.5,0,0,0,292-2.294a3.458,3.458,0,0,0,.461-2.015A3.128,3.128,0,0,0,292-6.14a1.5,1.5,0,0,0-1.3-.649,1.474,1.474,0,0,0-1.281.646A3.516,3.516,0,0,0,288.969-4.144Zm9.219-4.309.07.977a2.951,2.951,0,0,1,2.43-1.133,2.453,2.453,0,0,1,2,.789,3.681,3.681,0,0,1,.672,2.359V0H301.1V-5.419a1.47,1.47,0,0,0-.312-1.045,1.4,1.4,0,0,0-1.039-.325,1.553,1.553,0,0,0-1.43.814V0h-2.258V-8.453ZM304.719-4.3a5.013,5.013,0,0,1,.484-2.242A3.546,3.546,0,0,1,306.6-8.07a4.069,4.069,0,0,1,2.113-.539A3.849,3.849,0,0,1,311.5-7.562a4.2,4.2,0,0,1,1.207,2.844l.016.578a4.418,4.418,0,0,1-1.086,3.121A3.775,3.775,0,0,1,308.727.156a3.793,3.793,0,0,1-2.918-1.172,4.5,4.5,0,0,1-1.09-3.187Zm2.258.16A3.16,3.16,0,0,0,307.43-2.3a1.5,1.5,0,0,0,1.3.638,1.5,1.5,0,0,0,1.281-.63,3.458,3.458,0,0,0,.461-2.015,3.128,3.128,0,0,0-.461-1.831,1.5,1.5,0,0,0-1.3-.649,1.474,1.474,0,0,0-1.281.646A3.516,3.516,0,0,0,306.977-4.144ZM318.7-2.336a.727.727,0,0,0-.41-.652,4.659,4.659,0,0,0-1.316-.426q-3.016-.633-3.016-2.562a2.323,2.323,0,0,1,.934-1.879,3.766,3.766,0,0,1,2.441-.754,4.053,4.053,0,0,1,2.574.758,2.388,2.388,0,0,1,.965,1.969h-2.258a1.092,1.092,0,0,0-.312-.8A1.322,1.322,0,0,0,317.32-7a1.351,1.351,0,0,0-.883.258.814.814,0,0,0-.312.656.7.7,0,0,0,.355.605,3.657,3.657,0,0,0,1.2.4A9.8,9.8,0,0,1,319.1-4.7a2.336,2.336,0,0,1,1.789,2.273A2.2,2.2,0,0,1,319.9-.559a4.28,4.28,0,0,1-2.562.715,4.47,4.47,0,0,1-1.887-.379,3.166,3.166,0,0,1-1.293-1.039,2.414,2.414,0,0,1-.469-1.426h2.141a1.179,1.179,0,0,0,.445.922,1.766,1.766,0,0,0,1.109.32,1.635,1.635,0,0,0,.98-.246A.766.766,0,0,0,318.7-2.336ZM324.727,0h-2.266V-8.453h2.266Zm-2.4-10.641a1.112,1.112,0,0,1,.34-.836,1.277,1.277,0,0,1,.926-.328,1.28,1.28,0,0,1,.922.328,1.105,1.105,0,0,1,.344.836,1.108,1.108,0,0,1-.348.844,1.283,1.283,0,0,1-.918.328,1.283,1.283,0,0,1-.918-.328A1.108,1.108,0,0,1,322.328-10.641Zm8.836,8.3a.727.727,0,0,0-.41-.652,4.659,4.659,0,0,0-1.316-.426q-3.016-.633-3.016-2.562a2.323,2.323,0,0,1,.934-1.879,3.766,3.766,0,0,1,2.441-.754,4.053,4.053,0,0,1,2.574.758,2.388,2.388,0,0,1,.965,1.969h-2.258a1.092,1.092,0,0,0-.312-.8A1.322,1.322,0,0,0,329.789-7a1.351,1.351,0,0,0-.883.258.814.814,0,0,0-.312.656.7.7,0,0,0,.355.605,3.657,3.657,0,0,0,1.2.4,9.8,9.8,0,0,1,1.422.379,2.336,2.336,0,0,1,1.789,2.273,2.2,2.2,0,0,1-.992,1.871A4.28,4.28,0,0,1,329.8.156a4.47,4.47,0,0,1-1.887-.379,3.166,3.166,0,0,1-1.293-1.039,2.414,2.414,0,0,1-.469-1.426H328.3a1.179,1.179,0,0,0,.445.922,1.766,1.766,0,0,0,1.109.32,1.635,1.635,0,0,0,.98-.246A.766.766,0,0,0,331.164-2.336Zm3.758,1.227a1.137,1.137,0,0,1,.363-.875,1.289,1.289,0,0,1,.91-.336,1.3,1.3,0,0,1,.918.336,1.137,1.137,0,0,1,.363.875,1.121,1.121,0,0,1-.359.863,1.305,1.305,0,0,1-.922.332,1.294,1.294,0,0,1-.914-.332A1.121,1.121,0,0,1,334.922-1.109Zm0-6.4a1.137,1.137,0,0,1,.363-.875,1.289,1.289,0,0,1,.91-.336,1.3,1.3,0,0,1,.918.336,1.137,1.137,0,0,1,.363.875,1.121,1.121,0,0,1-.359.863,1.305,1.305,0,0,1-.922.332,1.294,1.294,0,0,1-.914-.332A1.121,1.121,0,0,1,334.922-7.508Z" transform="translate(871.051 5584.8)" fill="#12263f"/>
    <path id="Trazado_915304" data-name="Trazado 915304" d="M1.32,0V-11.375H5.039a4.317,4.317,0,0,1,2.785.766,2.759,2.759,0,0,1,.934,2.266A2.31,2.31,0,0,1,8.3-6.934a2.938,2.938,0,0,1-1.234.949A2.638,2.638,0,0,1,8.527-5a2.814,2.814,0,0,1,.535,1.723A3.042,3.042,0,0,1,8.07-.875,4.1,4.1,0,0,1,5.266,0Zm1.5-5.32v4.094H5.3A2.385,2.385,0,0,0,6.949-1.77a1.907,1.907,0,0,0,.605-1.5q0-2.055-2.234-2.055Zm0-1.2H5.086A2.375,2.375,0,0,0,6.66-7.017a1.654,1.654,0,0,0,.59-1.339A1.626,1.626,0,0,0,6.7-9.722a2.686,2.686,0,0,0-1.664-.427H2.82Zm12.32-.633a4.331,4.331,0,0,0-.711-.055A1.9,1.9,0,0,0,12.5-6V0H11.055V-8.453h1.406l.023.977A2.251,2.251,0,0,1,14.5-8.609a1.477,1.477,0,0,1,.641.109Zm6.547,6.32a3.07,3.07,0,0,1-2.477.992,2.628,2.628,0,0,1-2.059-.785,3.4,3.4,0,0,1-.715-2.324v-5.5h1.445v5.461q0,1.922,1.563,1.922a2.163,2.163,0,0,0,2.2-1.234V-8.453h1.445V0H21.719Zm6.992-.187a2.082,2.082,0,0,0,1.352-.469,1.649,1.649,0,0,0,.641-1.172h1.367a2.621,2.621,0,0,1-.5,1.383,3.293,3.293,0,0,1-1.23,1.047A3.55,3.55,0,0,1,28.68.156,3.482,3.482,0,0,1,25.934-1a4.59,4.59,0,0,1-1.02-3.152v-.242a5.089,5.089,0,0,1,.453-2.2,3.451,3.451,0,0,1,1.3-1.492,3.7,3.7,0,0,1,2-.531,3.39,3.39,0,0,1,2.363.852,3.043,3.043,0,0,1,1,2.211H30.672a1.992,1.992,0,0,0-.621-1.348,1.932,1.932,0,0,0-1.379-.527,2.023,2.023,0,0,0-1.707.793,3.724,3.724,0,0,0-.605,2.293v.273a3.65,3.65,0,0,0,.6,2.25A2.033,2.033,0,0,0,28.68-1.023ZM37.172.156a3.693,3.693,0,0,1-2.8-1.129A4.19,4.19,0,0,1,33.3-3.992v-.266a5.073,5.073,0,0,1,.48-2.246,3.748,3.748,0,0,1,1.344-1.547,3.378,3.378,0,0,1,1.871-.559,3.166,3.166,0,0,1,2.563,1.086,4.7,4.7,0,0,1,.914,3.109v.6H34.742a3,3,0,0,0,.73,2.02,2.3,2.3,0,0,0,1.777.77,2.517,2.517,0,0,0,1.3-.312,3.259,3.259,0,0,0,.93-.828l.883.688A3.55,3.55,0,0,1,37.172.156Zm-.18-7.578a1.928,1.928,0,0,0-1.469.637A3.1,3.1,0,0,0,34.789-5h4.234v-.109a2.753,2.753,0,0,0-.594-1.707A1.815,1.815,0,0,0,36.992-7.422ZM43.711,0H42.266V-12h1.445Zm3.883,0H46.148V-12h1.445Zm7.531,0a3.036,3.036,0,0,1-.2-.891A3.225,3.225,0,0,1,52.516.156a2.984,2.984,0,0,1-2.051-.707,2.287,2.287,0,0,1-.8-1.793,2.39,2.39,0,0,1,1-2.051,4.733,4.733,0,0,1,2.824-.73H54.9v-.664A1.623,1.623,0,0,0,54.445-7a1.821,1.821,0,0,0-1.336-.449,2.107,2.107,0,0,0-1.3.391,1.151,1.151,0,0,0-.523.945H49.836a2,2,0,0,1,.449-1.223A3.066,3.066,0,0,1,51.5-8.266,4.1,4.1,0,0,1,53.2-8.609a3.342,3.342,0,0,1,2.289.73,2.635,2.635,0,0,1,.859,2.012v3.891a4.757,4.757,0,0,0,.3,1.852V0Zm-2.4-1.1a2.54,2.54,0,0,0,1.289-.352,2.127,2.127,0,0,0,.883-.914V-4.1H53.766q-2.656,0-2.656,1.555a1.316,1.316,0,0,0,.453,1.063A1.742,1.742,0,0,0,52.727-1.1ZM4.672,18.93a7.053,7.053,0,0,1-2.809-1.363,2.6,2.6,0,0,1-.879-2,2.751,2.751,0,0,1,1.074-2.223,4.269,4.269,0,0,1,2.793-.879,4.66,4.66,0,0,1,2.09.453,3.436,3.436,0,0,1,1.422,1.25,3.2,3.2,0,0,1,.5,1.742H7.359A2.08,2.08,0,0,0,6.7,14.287,2.669,2.669,0,0,0,4.852,13.7a2.732,2.732,0,0,0-1.73.489A1.632,1.632,0,0,0,2.5,15.542a1.468,1.468,0,0,0,.59,1.178A5.785,5.785,0,0,0,5.1,17.6a9.316,9.316,0,0,1,2.219.88A3.367,3.367,0,0,1,8.5,19.6a2.861,2.861,0,0,1,.387,1.508,2.658,2.658,0,0,1-1.078,2.215,4.6,4.6,0,0,1-2.883.832,5.347,5.347,0,0,1-2.187-.449,3.681,3.681,0,0,1-1.566-1.23A3,3,0,0,1,.625,20.7H2.133a1.959,1.959,0,0,0,.762,1.629,3.207,3.207,0,0,0,2.035.6,2.948,2.948,0,0,0,1.82-.484,1.573,1.573,0,0,0,.633-1.32A1.545,1.545,0,0,0,6.8,19.832,6.755,6.755,0,0,0,4.672,18.93ZM15.8,24a3.036,3.036,0,0,1-.2-.891A3.225,3.225,0,0,1,13.2,24.156a2.984,2.984,0,0,1-2.051-.707,2.287,2.287,0,0,1-.8-1.793,2.39,2.39,0,0,1,1-2.051,4.733,4.733,0,0,1,2.824-.73h1.406v-.664A1.623,1.623,0,0,0,15.125,17a1.821,1.821,0,0,0-1.336-.449,2.108,2.108,0,0,0-1.3.391,1.151,1.151,0,0,0-.523.945H10.516a2,2,0,0,1,.449-1.223,3.066,3.066,0,0,1,1.219-.934,4.1,4.1,0,0,1,1.691-.344,3.342,3.342,0,0,1,2.289.73,2.635,2.635,0,0,1,.859,2.012v3.891a4.757,4.757,0,0,0,.3,1.852V24Zm-2.4-1.1a2.54,2.54,0,0,0,1.289-.352,2.127,2.127,0,0,0,.883-.914V19.9H14.445q-2.656,0-2.656,1.555a1.316,1.316,0,0,0,.453,1.063A1.742,1.742,0,0,0,13.406,22.9ZM20.859,24H19.414V12h1.445Zm3.672-8.453.039.938a3.122,3.122,0,0,1,2.508-1.094,2.417,2.417,0,0,1,2.414,1.359,3.2,3.2,0,0,1,1.1-.984,3.242,3.242,0,0,1,1.6-.375q2.781,0,2.828,2.945V24H33.57V18.422a1.941,1.941,0,0,0-.414-1.355,1.823,1.823,0,0,0-1.391-.449,1.916,1.916,0,0,0-1.336.48,1.949,1.949,0,0,0-.617,1.293V24H28.359V18.461a1.613,1.613,0,0,0-1.8-1.844,1.934,1.934,0,0,0-1.945,1.211V24H23.164V15.547ZM36.813,19.7a4.993,4.993,0,0,1,.488-2.234A3.643,3.643,0,0,1,38.66,15.93a3.7,3.7,0,0,1,1.988-.539,3.565,3.565,0,0,1,2.793,1.2,4.6,4.6,0,0,1,1.066,3.18v.1a5.036,5.036,0,0,1-.473,2.215,3.589,3.589,0,0,1-1.352,1.527,3.743,3.743,0,0,1-2.02.547,3.556,3.556,0,0,1-2.785-1.2A4.575,4.575,0,0,1,36.813,19.8Zm1.453.172a3.616,3.616,0,0,0,.652,2.258,2.211,2.211,0,0,0,3.5-.012,3.955,3.955,0,0,0,.648-2.418,3.61,3.61,0,0,0-.66-2.254,2.1,2.1,0,0,0-1.754-.863,2.075,2.075,0,0,0-1.727.852A3.925,3.925,0,0,0,38.266,19.867Zm9.422-4.32.047,1.063a3.08,3.08,0,0,1,2.531-1.219q2.68,0,2.7,3.023V24H51.523V18.406a1.946,1.946,0,0,0-.418-1.352,1.675,1.675,0,0,0-1.277-.437,2.086,2.086,0,0,0-1.234.375,2.546,2.546,0,0,0-.828.984V24H46.32V15.547Zm10.969,8.609a3.693,3.693,0,0,1-2.8-1.129,4.19,4.19,0,0,1-1.078-3.02v-.266a5.073,5.073,0,0,1,.48-2.246,3.748,3.748,0,0,1,1.344-1.547,3.378,3.378,0,0,1,1.871-.559,3.166,3.166,0,0,1,2.563,1.086,4.7,4.7,0,0,1,.914,3.109v.6H56.227a3,3,0,0,0,.73,2.02,2.3,2.3,0,0,0,1.777.77,2.517,2.517,0,0,0,1.3-.312,3.259,3.259,0,0,0,.93-.828l.883.688A3.55,3.55,0,0,1,58.656,24.156Zm-.18-7.578a1.928,1.928,0,0,0-1.469.637A3.1,3.1,0,0,0,56.273,19h4.234v-.109a2.753,2.753,0,0,0-.594-1.707A1.815,1.815,0,0,0,58.477,16.578ZM65.2,24H63.75V12H65.2Zm3.883,0H67.633V12h1.445Zm7.531,0a3.036,3.036,0,0,1-.2-.891A3.225,3.225,0,0,1,74,24.156a2.984,2.984,0,0,1-2.051-.707,2.288,2.288,0,0,1-.8-1.793,2.39,2.39,0,0,1,1-2.051,4.733,4.733,0,0,1,2.824-.73h1.406v-.664A1.623,1.623,0,0,0,75.93,17a1.821,1.821,0,0,0-1.336-.449,2.108,2.108,0,0,0-1.3.391,1.151,1.151,0,0,0-.523.945H71.32a2,2,0,0,1,.449-1.223,3.066,3.066,0,0,1,1.219-.934,4.1,4.1,0,0,1,1.691-.344,3.342,3.342,0,0,1,2.289.73,2.635,2.635,0,0,1,.859,2.012v3.891a4.757,4.757,0,0,0,.3,1.852V24Zm-2.4-1.1a2.54,2.54,0,0,0,1.289-.352,2.127,2.127,0,0,0,.883-.914V19.9H75.25q-2.656,0-2.656,1.555a1.316,1.316,0,0,0,.453,1.063A1.742,1.742,0,0,0,74.211,22.9ZM9.688,44.391a4.185,4.185,0,0,1-1.332,2.785,4.365,4.365,0,0,1-2.98.98,4.008,4.008,0,0,1-3.23-1.445A5.815,5.815,0,0,1,.93,42.844V41.75A6.481,6.481,0,0,1,1.5,38.961,4.231,4.231,0,0,1,3.1,37.113a4.47,4.47,0,0,1,2.406-.645A4.11,4.11,0,0,1,8.414,37.48a4.235,4.235,0,0,1,1.273,2.8H8.18a3.268,3.268,0,0,0-.848-1.975A2.565,2.565,0,0,0,5.508,37.7a2.684,2.684,0,0,0-2.254,1.063,4.882,4.882,0,0,0-.816,3.026v1.1a5.018,5.018,0,0,0,.773,2.948A2.5,2.5,0,0,0,5.375,46.93a2.886,2.886,0,0,0,1.918-.566,3.143,3.143,0,0,0,.887-1.973ZM16.727,48a3.036,3.036,0,0,1-.2-.891,3.225,3.225,0,0,1-2.406,1.047,2.984,2.984,0,0,1-2.051-.707,2.287,2.287,0,0,1-.8-1.793,2.39,2.39,0,0,1,1-2.051,4.733,4.733,0,0,1,2.824-.73H16.5v-.664A1.623,1.623,0,0,0,16.047,41a1.821,1.821,0,0,0-1.336-.449,2.107,2.107,0,0,0-1.3.391,1.151,1.151,0,0,0-.523.945H11.438a2,2,0,0,1,.449-1.223,3.066,3.066,0,0,1,1.219-.934,4.1,4.1,0,0,1,1.691-.344,3.342,3.342,0,0,1,2.289.73,2.635,2.635,0,0,1,.859,2.012v3.891a4.757,4.757,0,0,0,.3,1.852V48Zm-2.4-1.1a2.54,2.54,0,0,0,1.289-.352,2.127,2.127,0,0,0,.883-.914V43.9H15.367q-2.656,0-2.656,1.555a1.316,1.316,0,0,0,.453,1.063A1.742,1.742,0,0,0,14.328,46.9Zm7.242-7.352.039.938a3.122,3.122,0,0,1,2.508-1.094,2.417,2.417,0,0,1,2.414,1.359,3.2,3.2,0,0,1,1.1-.984,3.242,3.242,0,0,1,1.6-.375q2.781,0,2.828,2.945V48H30.609V42.422a1.941,1.941,0,0,0-.414-1.355,1.823,1.823,0,0,0-1.391-.449,1.916,1.916,0,0,0-1.336.48,1.949,1.949,0,0,0-.617,1.293V48H25.4V42.461a1.613,1.613,0,0,0-1.8-1.844,1.934,1.934,0,0,0-1.945,1.211V48H20.2V39.547Zm19.8,4.32a5.062,5.062,0,0,1-.883,3.109,2.829,2.829,0,0,1-2.391,1.18,3.1,3.1,0,0,1-2.422-.977v4.07H34.234v-11.7h1.32l.07.938a2.977,2.977,0,0,1,2.453-1.094,2.882,2.882,0,0,1,2.41,1.148,5.117,5.117,0,0,1,.887,3.2ZM39.93,43.7a3.735,3.735,0,0,0-.609-2.258,1.963,1.963,0,0,0-1.672-.828,2.125,2.125,0,0,0-1.969,1.164V45.82a2.129,2.129,0,0,0,1.984,1.156,1.954,1.954,0,0,0,1.652-.824A4.077,4.077,0,0,0,39.93,43.7Zm5.961,2.18,1.969-6.336h1.547l-3.4,9.758q-.789,2.109-2.508,2.109l-.273-.023-.539-.1V50.117l.391.031a1.923,1.923,0,0,0,1.145-.3,2.148,2.148,0,0,0,.676-1.086l.32-.859L42.2,39.547h1.578ZM52.266,48H50.82V36h1.445Zm1.93-4.3a4.993,4.993,0,0,1,.488-2.234,3.643,3.643,0,0,1,1.359-1.531,3.7,3.7,0,0,1,1.988-.539,3.565,3.565,0,0,1,2.793,1.2,4.6,4.6,0,0,1,1.066,3.18v.1a5.036,5.036,0,0,1-.473,2.215,3.589,3.589,0,0,1-1.352,1.527,3.743,3.743,0,0,1-2.02.547,3.556,3.556,0,0,1-2.785-1.2A4.575,4.575,0,0,1,54.2,43.8Zm1.453.172a3.616,3.616,0,0,0,.652,2.258,2.211,2.211,0,0,0,3.5-.012,3.955,3.955,0,0,0,.648-2.418,3.61,3.61,0,0,0-.66-2.254,2.1,2.1,0,0,0-1.754-.863,2.075,2.075,0,0,0-1.727.852A3.925,3.925,0,0,0,55.648,43.867Zm15.211,0a5.026,5.026,0,0,1-.891,3.113,2.846,2.846,0,0,1-2.391,1.176A2.947,2.947,0,0,1,65.1,47.023l-.07.977H63.7V36h1.445v4.477a2.93,2.93,0,0,1,2.414-1.086,2.863,2.863,0,0,1,2.418,1.164,5.177,5.177,0,0,1,.879,3.188ZM69.414,43.7a3.906,3.906,0,0,0-.57-2.281,1.888,1.888,0,0,0-1.641-.8,2.122,2.122,0,0,0-2.055,1.328V45.6a2.181,2.181,0,0,0,2.07,1.328,1.878,1.878,0,0,0,1.617-.8A4.153,4.153,0,0,0,69.414,43.7ZM77.9,48a3.036,3.036,0,0,1-.2-.891,3.225,3.225,0,0,1-2.406,1.047,2.984,2.984,0,0,1-2.051-.707,2.288,2.288,0,0,1-.8-1.793,2.39,2.39,0,0,1,1-2.051,4.733,4.733,0,0,1,2.824-.73h1.406v-.664A1.623,1.623,0,0,0,77.219,41a1.821,1.821,0,0,0-1.336-.449,2.107,2.107,0,0,0-1.3.391,1.151,1.151,0,0,0-.523.945H72.609a2,2,0,0,1,.449-1.223,3.066,3.066,0,0,1,1.219-.934,4.1,4.1,0,0,1,1.691-.344,3.342,3.342,0,0,1,2.289.73,2.635,2.635,0,0,1,.859,2.012v3.891a4.757,4.757,0,0,0,.3,1.852V48Zm-2.4-1.1a2.54,2.54,0,0,0,1.289-.352,2.127,2.127,0,0,0,.883-.914V43.9H76.539q-2.656,0-2.656,1.555a1.316,1.316,0,0,0,.453,1.063A1.742,1.742,0,0,0,75.5,46.9Zm9.273.078a2.082,2.082,0,0,0,1.352-.469,1.649,1.649,0,0,0,.641-1.172h1.367a2.621,2.621,0,0,1-.5,1.383,3.293,3.293,0,0,1-1.23,1.047,3.55,3.55,0,0,1-1.629.391A3.482,3.482,0,0,1,82.027,47a4.59,4.59,0,0,1-1.02-3.152v-.242a5.089,5.089,0,0,1,.453-2.2,3.451,3.451,0,0,1,1.3-1.492,3.7,3.7,0,0,1,2-.531,3.39,3.39,0,0,1,2.363.852,3.043,3.043,0,0,1,1,2.211H86.766a1.992,1.992,0,0,0-.621-1.348,1.932,1.932,0,0,0-1.379-.527,2.023,2.023,0,0,0-1.707.793,3.724,3.724,0,0,0-.605,2.293v.273a3.65,3.65,0,0,0,.6,2.25A2.033,2.033,0,0,0,84.773,46.977ZM91.719,37.5v2.047H93.3v1.117H91.719v5.249a1.173,1.173,0,0,0,.211.763.888.888,0,0,0,.719.254,3.5,3.5,0,0,0,.688-.094V48a4.215,4.215,0,0,1-1.109.155,1.8,1.8,0,0,1-1.461-.586,2.517,2.517,0,0,1-.492-1.664V40.664H88.734V39.547h1.539V37.5Zm6.773,10.656a3.693,3.693,0,0,1-2.8-1.129,4.19,4.19,0,0,1-1.078-3.02v-.266A5.073,5.073,0,0,1,95.1,41.5a3.748,3.748,0,0,1,1.344-1.547,3.378,3.378,0,0,1,1.871-.559,3.166,3.166,0,0,1,2.563,1.086,4.7,4.7,0,0,1,.914,3.109v.6H96.063a3,3,0,0,0,.73,2.02,2.3,2.3,0,0,0,1.777.77,2.517,2.517,0,0,0,1.3-.312,3.259,3.259,0,0,0,.93-.828l.883.688A3.55,3.55,0,0,1,98.492,48.156Zm-.18-7.578a1.928,1.928,0,0,0-1.469.637A3.1,3.1,0,0,0,96.109,43h4.234v-.109a2.753,2.753,0,0,0-.594-1.707A1.815,1.815,0,0,0,98.313,40.578Zm9.234.266a4.331,4.331,0,0,0-.711-.055A1.9,1.9,0,0,0,104.906,42v6h-1.445V39.547h1.406l.023.977a2.251,2.251,0,0,1,2.016-1.133,1.477,1.477,0,0,1,.641.109Zm-99.8,25.9H2.82v4.031H8.547V72H1.32V60.625H8.469v1.227H2.82v3.664H7.75Zm7.359,3.016a1.064,1.064,0,0,0-.441-.91,4.249,4.249,0,0,0-1.539-.559,7.277,7.277,0,0,1-1.742-.562,2.479,2.479,0,0,1-.953-.781,1.869,1.869,0,0,1-.309-1.078A2.193,2.193,0,0,1,11,64.109a3.432,3.432,0,0,1,2.246-.719,3.532,3.532,0,0,1,2.332.742,2.357,2.357,0,0,1,.895,1.9H15.023a1.3,1.3,0,0,0-.5-1.023,1.888,1.888,0,0,0-1.27-.43,1.976,1.976,0,0,0-1.234.344,1.082,1.082,0,0,0-.445.9.877.877,0,0,0,.414.789,5.1,5.1,0,0,0,1.5.508,7.8,7.8,0,0,1,1.754.578,2.558,2.558,0,0,1,1,.809,1.988,1.988,0,0,1,.324,1.152,2.163,2.163,0,0,1-.906,1.816,3.8,3.8,0,0,1-2.352.684,4.257,4.257,0,0,1-1.8-.359,2.922,2.922,0,0,1-1.223-1A2.42,2.42,0,0,1,9.836,69.4h1.445a1.5,1.5,0,0,0,.582,1.152,2.258,2.258,0,0,0,1.434.426,2.331,2.331,0,0,0,1.316-.332A1.02,1.02,0,0,0,15.109,69.758Zm6.719,1.219a2.082,2.082,0,0,0,1.352-.469,1.649,1.649,0,0,0,.641-1.172h1.367a2.621,2.621,0,0,1-.5,1.383,3.293,3.293,0,0,1-1.23,1.047,3.55,3.55,0,0,1-1.629.391A3.482,3.482,0,0,1,19.082,71a4.59,4.59,0,0,1-1.02-3.152v-.242a5.089,5.089,0,0,1,.453-2.2,3.451,3.451,0,0,1,1.3-1.492,3.7,3.7,0,0,1,2-.531,3.39,3.39,0,0,1,2.363.852,3.043,3.043,0,0,1,1,2.211H23.82a1.992,1.992,0,0,0-.621-1.348,1.932,1.932,0,0,0-1.379-.527,2.023,2.023,0,0,0-1.707.793,3.724,3.724,0,0,0-.605,2.293v.273a3.65,3.65,0,0,0,.6,2.25A2.033,2.033,0,0,0,21.828,70.977Zm6.43-6.406a3.073,3.073,0,0,1,2.5-1.18q2.68,0,2.7,3.023V72H32.016V66.406a1.946,1.946,0,0,0-.418-1.352,1.675,1.675,0,0,0-1.277-.437,2.086,2.086,0,0,0-1.234.375,2.546,2.546,0,0,0-.828.984V72H26.813V60h1.445Zm10.875,7.586a3.693,3.693,0,0,1-2.8-1.129,4.19,4.19,0,0,1-1.078-3.02v-.266a5.073,5.073,0,0,1,.48-2.246,3.748,3.748,0,0,1,1.344-1.547,3.378,3.378,0,0,1,1.871-.559,3.166,3.166,0,0,1,2.563,1.086,4.7,4.7,0,0,1,.914,3.109v.6H36.7a3,3,0,0,0,.73,2.02,2.3,2.3,0,0,0,1.777.77,2.517,2.517,0,0,0,1.3-.312,3.259,3.259,0,0,0,.93-.828l.883.688A3.55,3.55,0,0,1,39.133,72.156Zm-.18-7.578a1.928,1.928,0,0,0-1.469.637A3.1,3.1,0,0,0,36.75,67h4.234v-.109a2.753,2.753,0,0,0-.594-1.707A1.815,1.815,0,0,0,38.953,64.578Zm9.234.266a4.331,4.331,0,0,0-.711-.055A1.9,1.9,0,0,0,45.547,66v6H44.1V63.547h1.406l.023.977a2.251,2.251,0,0,1,2.016-1.133,1.477,1.477,0,0,1,.641.109ZM51.086,72H49.641V63.547h1.445ZM49.523,61.3a.863.863,0,0,1,.215-.594.807.807,0,0,1,.637-.242.819.819,0,0,1,.641.242.854.854,0,0,1,.219.594.826.826,0,0,1-.219.586.834.834,0,0,1-.641.234.821.821,0,0,1-.637-.234A.834.834,0,0,1,49.523,61.3Zm7.266,9.672a2.082,2.082,0,0,0,1.352-.469,1.649,1.649,0,0,0,.641-1.172h1.367a2.621,2.621,0,0,1-.5,1.383,3.293,3.293,0,0,1-1.23,1.047,3.55,3.55,0,0,1-1.629.391A3.482,3.482,0,0,1,54.043,71a4.59,4.59,0,0,1-1.02-3.152v-.242a5.089,5.089,0,0,1,.453-2.2,3.451,3.451,0,0,1,1.3-1.492,3.7,3.7,0,0,1,2-.531,3.39,3.39,0,0,1,2.363.852,3.043,3.043,0,0,1,1,2.211H58.781a1.992,1.992,0,0,0-.621-1.348,1.932,1.932,0,0,0-1.379-.527,2.023,2.023,0,0,0-1.707.793,3.724,3.724,0,0,0-.605,2.293v.273a3.65,3.65,0,0,0,.6,2.25A2.033,2.033,0,0,0,56.789,70.977Zm6.43-6.406a3.073,3.073,0,0,1,2.5-1.18q2.68,0,2.7,3.023V72H66.977V66.406a1.946,1.946,0,0,0-.418-1.352,1.675,1.675,0,0,0-1.277-.437,2.086,2.086,0,0,0-1.234.375,2.546,2.546,0,0,0-.828.984V72H61.773V60h1.445ZM72.156,72H70.711V63.547h1.445ZM70.594,61.3a.863.863,0,0,1,.215-.594.807.807,0,0,1,.637-.242.819.819,0,0,1,.641.242.854.854,0,0,1,.219.594.826.826,0,0,1-.219.586.834.834,0,0,1-.641.234.821.821,0,0,1-.637-.234A.834.834,0,0,1,70.594,61.3ZM79.688,72a3.036,3.036,0,0,1-.2-.891,3.225,3.225,0,0,1-2.406,1.047,2.984,2.984,0,0,1-2.051-.707,2.287,2.287,0,0,1-.8-1.793,2.39,2.39,0,0,1,1-2.051,4.733,4.733,0,0,1,2.824-.73h1.406v-.664A1.623,1.623,0,0,0,79.008,65a1.821,1.821,0,0,0-1.336-.449,2.108,2.108,0,0,0-1.3.391,1.151,1.151,0,0,0-.523.945H74.4a2,2,0,0,1,.449-1.223,3.066,3.066,0,0,1,1.219-.934,4.1,4.1,0,0,1,1.691-.344,3.342,3.342,0,0,1,2.289.73,2.635,2.635,0,0,1,.859,2.012v3.891a4.757,4.757,0,0,0,.3,1.852V72Zm-2.4-1.1a2.54,2.54,0,0,0,1.289-.352,2.127,2.127,0,0,0,.883-.914V67.9H78.328q-2.656,0-2.656,1.555a1.316,1.316,0,0,0,.453,1.063A1.742,1.742,0,0,0,77.289,70.9Zm13.234.078a2.082,2.082,0,0,0,1.352-.469,1.649,1.649,0,0,0,.641-1.172h1.367a2.621,2.621,0,0,1-.5,1.383,3.293,3.293,0,0,1-1.23,1.047,3.55,3.55,0,0,1-1.629.391A3.482,3.482,0,0,1,87.777,71a4.59,4.59,0,0,1-1.02-3.152v-.242a5.089,5.089,0,0,1,.453-2.2,3.451,3.451,0,0,1,1.3-1.492,3.7,3.7,0,0,1,2-.531,3.39,3.39,0,0,1,2.363.852,3.043,3.043,0,0,1,1,2.211H92.516a1.992,1.992,0,0,0-.621-1.348,1.932,1.932,0,0,0-1.379-.527,2.023,2.023,0,0,0-1.707.793,3.724,3.724,0,0,0-.605,2.293v.273a3.65,3.65,0,0,0,.6,2.25A2.033,2.033,0,0,0,90.523,70.977Zm4.6-3.281a4.993,4.993,0,0,1,.488-2.234,3.643,3.643,0,0,1,1.359-1.531,3.7,3.7,0,0,1,1.988-.539,3.565,3.565,0,0,1,2.793,1.2,4.6,4.6,0,0,1,1.066,3.18v.1a5.036,5.036,0,0,1-.473,2.215A3.589,3.589,0,0,1,101,71.609a3.743,3.743,0,0,1-2.02.547,3.556,3.556,0,0,1-2.785-1.2A4.575,4.575,0,0,1,95.125,67.8Zm1.453.172a3.616,3.616,0,0,0,.652,2.258,2.211,2.211,0,0,0,3.5-.012,3.955,3.955,0,0,0,.648-2.418,3.61,3.61,0,0,0-.66-2.254,2.1,2.1,0,0,0-1.754-.863,2.075,2.075,0,0,0-1.727.852A3.925,3.925,0,0,0,96.578,67.867ZM106.2,72h-1.445V60H106.2Zm3.883,0h-1.445V63.547h1.445Zm-1.562-10.7a.863.863,0,0,1,.215-.594.807.807,0,0,1,.637-.242.819.819,0,0,1,.641.242.854.854,0,0,1,.219.594.826.826,0,0,1-.219.586.834.834,0,0,1-.641.234.821.821,0,0,1-.637-.234A.834.834,0,0,1,108.523,61.3Z" transform="translate(1144.051 5647.8)" fill="#12263f"/>
    <path id="Trazado_915305" data-name="Trazado 915305" d="M3.258-11.375,6.977-2.094,10.7-11.375h1.945V0h-1.5V-4.43l.141-4.781L7.547,0H6.4L2.672-9.187,2.82-4.43V0H1.32V-11.375Zm14.57,9.258L19.8-8.453h1.547L17.945,1.3q-.789,2.109-2.508,2.109l-.273-.023-.539-.1V2.117l.391.031a1.923,1.923,0,0,0,1.145-.3A2.148,2.148,0,0,0,16.836.766l.32-.859L14.141-8.453h1.578Zm8.094,1.094a2.082,2.082,0,0,0,1.352-.469,1.649,1.649,0,0,0,.641-1.172h1.367a2.621,2.621,0,0,1-.5,1.383,3.293,3.293,0,0,1-1.23,1.047,3.55,3.55,0,0,1-1.629.391A3.482,3.482,0,0,1,23.176-1a4.59,4.59,0,0,1-1.02-3.152v-.242a5.089,5.089,0,0,1,.453-2.2,3.451,3.451,0,0,1,1.3-1.492,3.7,3.7,0,0,1,2-.531,3.39,3.39,0,0,1,2.363.852,3.043,3.043,0,0,1,1,2.211H27.914a1.992,1.992,0,0,0-.621-1.348,1.932,1.932,0,0,0-1.379-.527,2.023,2.023,0,0,0-1.707.793A3.724,3.724,0,0,0,23.6-4.336v.273a3.65,3.65,0,0,0,.6,2.25A2.033,2.033,0,0,0,25.922-1.023Zm4.6-3.281a4.993,4.993,0,0,1,.488-2.234A3.643,3.643,0,0,1,32.371-8.07a3.7,3.7,0,0,1,1.988-.539,3.565,3.565,0,0,1,2.793,1.2,4.6,4.6,0,0,1,1.066,3.18v.1a5.036,5.036,0,0,1-.473,2.215A3.589,3.589,0,0,1,36.395-.391a3.743,3.743,0,0,1-2.02.547,3.556,3.556,0,0,1-2.785-1.2A4.575,4.575,0,0,1,30.523-4.2Zm1.453.172a3.616,3.616,0,0,0,.652,2.258,2.088,2.088,0,0,0,1.746.852,2.075,2.075,0,0,0,1.75-.863A3.955,3.955,0,0,0,36.773-4.3a3.61,3.61,0,0,0-.66-2.254,2.1,2.1,0,0,0-1.754-.863,2.075,2.075,0,0,0-1.727.852A3.925,3.925,0,0,0,31.977-4.133Zm15.211,0A5.026,5.026,0,0,1,46.3-1.02,2.846,2.846,0,0,1,43.906.156,2.947,2.947,0,0,1,41.43-.977L41.359,0H40.031V-12h1.445v4.477a2.93,2.93,0,0,1,2.414-1.086,2.863,2.863,0,0,1,2.418,1.164,5.177,5.177,0,0,1,.879,3.188ZM45.742-4.3a3.906,3.906,0,0,0-.57-2.281,1.888,1.888,0,0,0-1.641-.8,2.122,2.122,0,0,0-2.055,1.328V-2.4a2.181,2.181,0,0,0,2.07,1.328,1.878,1.878,0,0,0,1.617-.8A4.153,4.153,0,0,0,45.742-4.3ZM54.227,0a3.036,3.036,0,0,1-.2-.891A3.225,3.225,0,0,1,51.617.156a2.984,2.984,0,0,1-2.051-.707,2.287,2.287,0,0,1-.8-1.793,2.39,2.39,0,0,1,1-2.051,4.733,4.733,0,0,1,2.824-.73H54v-.664A1.623,1.623,0,0,0,53.547-7a1.821,1.821,0,0,0-1.336-.449,2.107,2.107,0,0,0-1.3.391,1.151,1.151,0,0,0-.523.945H48.938a2,2,0,0,1,.449-1.223,3.066,3.066,0,0,1,1.219-.934A4.1,4.1,0,0,1,52.3-8.609a3.342,3.342,0,0,1,2.289.73,2.635,2.635,0,0,1,.859,2.012v3.891a4.757,4.757,0,0,0,.3,1.852V0Zm-2.4-1.1a2.54,2.54,0,0,0,1.289-.352A2.127,2.127,0,0,0,54-2.367V-4.1H52.867q-2.656,0-2.656,1.555a1.316,1.316,0,0,0,.453,1.063A1.742,1.742,0,0,0,51.828-1.1Zm9.273.078a2.082,2.082,0,0,0,1.352-.469,1.649,1.649,0,0,0,.641-1.172h1.367a2.621,2.621,0,0,1-.5,1.383A3.293,3.293,0,0,1,62.73-.234,3.55,3.55,0,0,1,61.1.156,3.482,3.482,0,0,1,58.355-1a4.59,4.59,0,0,1-1.02-3.152v-.242a5.089,5.089,0,0,1,.453-2.2,3.451,3.451,0,0,1,1.3-1.492,3.7,3.7,0,0,1,2-.531,3.39,3.39,0,0,1,2.363.852,3.043,3.043,0,0,1,1,2.211H63.094a1.992,1.992,0,0,0-.621-1.348,1.932,1.932,0,0,0-1.379-.527,2.023,2.023,0,0,0-1.707.793,3.724,3.724,0,0,0-.605,2.293v.273a3.65,3.65,0,0,0,.6,2.25A2.033,2.033,0,0,0,61.1-1.023ZM68.047-10.5v2.047h1.578v1.117H68.047v5.249a1.173,1.173,0,0,0,.211.763.888.888,0,0,0,.719.254,3.5,3.5,0,0,0,.688-.094V0a4.215,4.215,0,0,1-1.109.155A1.8,1.8,0,0,1,67.094-.43,2.517,2.517,0,0,1,66.6-2.094V-7.336H65.063V-8.453H66.6V-10.5ZM74.82.156a3.693,3.693,0,0,1-2.8-1.129,4.19,4.19,0,0,1-1.078-3.02v-.266a5.073,5.073,0,0,1,.48-2.246A3.748,3.748,0,0,1,72.77-8.051a3.378,3.378,0,0,1,1.871-.559A3.166,3.166,0,0,1,77.2-7.523a4.7,4.7,0,0,1,.914,3.109v.6H72.391a3,3,0,0,0,.73,2.02,2.3,2.3,0,0,0,1.777.77,2.517,2.517,0,0,0,1.3-.312,3.259,3.259,0,0,0,.93-.828l.883.688A3.55,3.55,0,0,1,74.82.156Zm-.18-7.578a1.928,1.928,0,0,0-1.469.637A3.1,3.1,0,0,0,72.438-5h4.234v-.109a2.753,2.753,0,0,0-.594-1.707A1.815,1.815,0,0,0,74.641-7.422Zm9.234.266a4.331,4.331,0,0,0-.711-.055A1.9,1.9,0,0,0,81.234-6V0H79.789V-8.453H81.2l.023.977a2.251,2.251,0,0,1,2.016-1.133,1.477,1.477,0,0,1,.641.109ZM86.773,0H85.328V-8.453h1.445ZM85.211-10.7a.863.863,0,0,1,.215-.594.807.807,0,0,1,.637-.242.819.819,0,0,1,.641.242.854.854,0,0,1,.219.594.826.826,0,0,1-.219.586.834.834,0,0,1-.641.234.821.821,0,0,1-.637-.234A.834.834,0,0,1,85.211-10.7ZM94.3-.836a3.07,3.07,0,0,1-2.477.992A2.628,2.628,0,0,1,89.77-.629a3.4,3.4,0,0,1-.715-2.324v-5.5H90.5v5.461q0,1.922,1.563,1.922a2.163,2.163,0,0,0,2.2-1.234V-8.453h1.445V0H94.336Zm4.961-7.617.039.938a3.122,3.122,0,0,1,2.508-1.094,2.417,2.417,0,0,1,2.414,1.359,3.2,3.2,0,0,1,1.1-.984,3.242,3.242,0,0,1,1.6-.375q2.781,0,2.828,2.945V0H108.3V-5.578a1.941,1.941,0,0,0-.414-1.355,1.823,1.823,0,0,0-1.391-.449,1.916,1.916,0,0,0-1.336.48,1.949,1.949,0,0,0-.617,1.293V0h-1.453V-5.539a1.613,1.613,0,0,0-1.8-1.844,1.934,1.934,0,0,0-1.945,1.211V0H97.9V-8.453ZM117.852-10.5v2.047h1.578v1.117h-1.578v5.249a1.173,1.173,0,0,0,.211.763.888.888,0,0,0,.719.254,3.5,3.5,0,0,0,.688-.094V0a4.215,4.215,0,0,1-1.109.155A1.8,1.8,0,0,1,116.9-.43a2.517,2.517,0,0,1-.492-1.664V-7.336h-1.539V-8.453h1.539V-10.5Zm8.484,9.664a3.07,3.07,0,0,1-2.477.992A2.628,2.628,0,0,1,121.8-.629a3.4,3.4,0,0,1-.715-2.324v-5.5h1.445v5.461q0,1.922,1.563,1.922A2.163,2.163,0,0,0,126.3-2.3V-8.453h1.445V0h-1.375Zm10.758-3.3A5.026,5.026,0,0,1,136.2-1.02,2.846,2.846,0,0,1,133.813.156a2.947,2.947,0,0,1-2.477-1.133l-.07.977h-1.328V-12h1.445v4.477A2.93,2.93,0,0,1,133.8-8.609a2.863,2.863,0,0,1,2.418,1.164,5.177,5.177,0,0,1,.879,3.188ZM135.648-4.3a3.906,3.906,0,0,0-.57-2.281,1.888,1.888,0,0,0-1.641-.8,2.122,2.122,0,0,0-2.055,1.328V-2.4a2.181,2.181,0,0,0,2.07,1.328,1.878,1.878,0,0,0,1.617-.8A4.153,4.153,0,0,0,135.648-4.3ZM142.422.156a3.693,3.693,0,0,1-2.8-1.129,4.19,4.19,0,0,1-1.078-3.02v-.266a5.073,5.073,0,0,1,.48-2.246,3.748,3.748,0,0,1,1.344-1.547,3.378,3.378,0,0,1,1.871-.559A3.166,3.166,0,0,1,144.8-7.523a4.7,4.7,0,0,1,.914,3.109v.6h-5.727a3,3,0,0,0,.73,2.02,2.3,2.3,0,0,0,1.777.77,2.517,2.517,0,0,0,1.3-.312,3.258,3.258,0,0,0,.93-.828l.883.688A3.55,3.55,0,0,1,142.422.156Zm-.18-7.578a1.928,1.928,0,0,0-1.469.637A3.1,3.1,0,0,0,140.039-5h4.234v-.109a2.753,2.753,0,0,0-.594-1.707A1.815,1.815,0,0,0,142.242-7.422Zm9.234.266a4.331,4.331,0,0,0-.711-.055A1.9,1.9,0,0,0,148.836-6V0h-1.445V-8.453H148.8l.023.977a2.251,2.251,0,0,1,2.016-1.133,1.477,1.477,0,0,1,.641.109Zm4.57,6.133a2.082,2.082,0,0,0,1.352-.469,1.649,1.649,0,0,0,.641-1.172h1.367a2.621,2.621,0,0,1-.5,1.383,3.293,3.293,0,0,1-1.23,1.047,3.55,3.55,0,0,1-1.629.391A3.482,3.482,0,0,1,153.3-1a4.59,4.59,0,0,1-1.02-3.152v-.242a5.089,5.089,0,0,1,.453-2.2,3.451,3.451,0,0,1,1.3-1.492,3.7,3.7,0,0,1,2-.531,3.39,3.39,0,0,1,2.363.852,3.043,3.043,0,0,1,1,2.211h-1.367a1.992,1.992,0,0,0-.621-1.348,1.932,1.932,0,0,0-1.379-.527,2.023,2.023,0,0,0-1.707.793,3.724,3.724,0,0,0-.605,2.293v.273a3.65,3.65,0,0,0,.6,2.25A2.033,2.033,0,0,0,156.047-1.023Zm10.2.188a3.07,3.07,0,0,1-2.477.992,2.628,2.628,0,0,1-2.059-.785A3.4,3.4,0,0,1,161-2.953v-5.5h1.445v5.461q0,1.922,1.563,1.922a2.163,2.163,0,0,0,2.2-1.234V-8.453h1.445V0h-1.375ZM171.422,0h-1.445V-12h1.445Zm1.93-4.3a4.993,4.993,0,0,1,.488-2.234A3.642,3.642,0,0,1,175.2-8.07a3.7,3.7,0,0,1,1.988-.539,3.565,3.565,0,0,1,2.793,1.2,4.6,4.6,0,0,1,1.066,3.18v.1a5.036,5.036,0,0,1-.473,2.215,3.589,3.589,0,0,1-1.352,1.527,3.743,3.743,0,0,1-2.02.547,3.556,3.556,0,0,1-2.785-1.2A4.575,4.575,0,0,1,173.352-4.2Zm1.453.172a3.616,3.616,0,0,0,.652,2.258,2.088,2.088,0,0,0,1.746.852,2.075,2.075,0,0,0,1.75-.863A3.954,3.954,0,0,0,179.6-4.3a3.61,3.61,0,0,0-.66-2.254,2.1,2.1,0,0,0-1.754-.863,2.075,2.075,0,0,0-1.727.852A3.925,3.925,0,0,0,174.8-4.133Zm12.977,1.891a1.064,1.064,0,0,0-.441-.91,4.249,4.249,0,0,0-1.539-.559,7.277,7.277,0,0,1-1.742-.562,2.479,2.479,0,0,1-.953-.781,1.869,1.869,0,0,1-.309-1.078,2.193,2.193,0,0,1,.879-1.758,3.432,3.432,0,0,1,2.246-.719,3.532,3.532,0,0,1,2.332.742,2.357,2.357,0,0,1,.895,1.9H187.7a1.3,1.3,0,0,0-.5-1.023,1.888,1.888,0,0,0-1.27-.43,1.976,1.976,0,0,0-1.234.344,1.082,1.082,0,0,0-.445.9.877.877,0,0,0,.414.789,5.1,5.1,0,0,0,1.5.508,7.8,7.8,0,0,1,1.754.578,2.558,2.558,0,0,1,1,.809,1.988,1.988,0,0,1,.324,1.152,2.163,2.163,0,0,1-.906,1.816,3.8,3.8,0,0,1-2.352.684,4.257,4.257,0,0,1-1.8-.359,2.922,2.922,0,0,1-1.223-1,2.42,2.42,0,0,1-.441-1.395h1.445a1.5,1.5,0,0,0,.582,1.152,2.258,2.258,0,0,0,1.434.426,2.331,2.331,0,0,0,1.316-.332A1.02,1.02,0,0,0,187.781-2.242ZM192.68,0h-1.445V-8.453h1.445Zm-1.562-10.7a.863.863,0,0,1,.215-.594.807.807,0,0,1,.637-.242.819.819,0,0,1,.641.242.854.854,0,0,1,.219.594.826.826,0,0,1-.219.586.834.834,0,0,1-.641.234.821.821,0,0,1-.637-.234A.834.834,0,0,1,191.117-10.7Zm8.8,8.453a1.064,1.064,0,0,0-.441-.91,4.249,4.249,0,0,0-1.539-.559,7.277,7.277,0,0,1-1.742-.562,2.479,2.479,0,0,1-.953-.781,1.869,1.869,0,0,1-.309-1.078,2.193,2.193,0,0,1,.879-1.758,3.432,3.432,0,0,1,2.246-.719,3.532,3.532,0,0,1,2.332.742,2.357,2.357,0,0,1,.895,1.9h-1.453a1.3,1.3,0,0,0-.5-1.023,1.888,1.888,0,0,0-1.27-.43,1.976,1.976,0,0,0-1.234.344,1.082,1.082,0,0,0-.445.9.877.877,0,0,0,.414.789,5.1,5.1,0,0,0,1.5.508,7.8,7.8,0,0,1,1.754.578,2.558,2.558,0,0,1,1,.809,1.988,1.988,0,0,1,.324,1.152,2.163,2.163,0,0,1-.906,1.816A3.8,3.8,0,0,1,198.1.156,4.257,4.257,0,0,1,196.3-.2a2.922,2.922,0,0,1-1.223-1,2.42,2.42,0,0,1-.441-1.395h1.445a1.5,1.5,0,0,0,.582,1.152,2.258,2.258,0,0,0,1.434.426,2.331,2.331,0,0,0,1.316-.332A1.02,1.02,0,0,0,199.914-2.242ZM2.828,22.773H8.219V24H1.32V12.625H2.828ZM11.273,24H9.828V15.547h1.445ZM9.711,13.3a.863.863,0,0,1,.215-.594.807.807,0,0,1,.637-.242.819.819,0,0,1,.641.242.854.854,0,0,1,.219.594.826.826,0,0,1-.219.586.834.834,0,0,1-.641.234.821.821,0,0,1-.637-.234A.834.834,0,0,1,9.711,13.3Zm8.8,8.453a1.064,1.064,0,0,0-.441-.91,4.249,4.249,0,0,0-1.539-.559,7.277,7.277,0,0,1-1.742-.562,2.479,2.479,0,0,1-.953-.781,1.869,1.869,0,0,1-.309-1.078,2.193,2.193,0,0,1,.879-1.758,3.432,3.432,0,0,1,2.246-.719,3.532,3.532,0,0,1,2.332.742,2.357,2.357,0,0,1,.895,1.9H18.422a1.3,1.3,0,0,0-.5-1.023,1.888,1.888,0,0,0-1.27-.43,1.976,1.976,0,0,0-1.234.344,1.082,1.082,0,0,0-.445.9.877.877,0,0,0,.414.789,5.1,5.1,0,0,0,1.5.508,7.8,7.8,0,0,1,1.754.578,2.558,2.558,0,0,1,1,.809,1.988,1.988,0,0,1,.324,1.152,2.163,2.163,0,0,1-.906,1.816,3.8,3.8,0,0,1-2.352.684,4.257,4.257,0,0,1-1.8-.359,2.922,2.922,0,0,1-1.223-1,2.42,2.42,0,0,1-.441-1.395H14.68a1.5,1.5,0,0,0,.582,1.152,2.258,2.258,0,0,0,1.434.426,2.331,2.331,0,0,0,1.316-.332A1.02,1.02,0,0,0,18.508,21.758ZM23.8,13.5v2.047h1.578v1.117H23.8v5.249a1.173,1.173,0,0,0,.211.763.888.888,0,0,0,.719.254,3.5,3.5,0,0,0,.688-.094V24a4.215,4.215,0,0,1-1.109.155,1.8,1.8,0,0,1-1.461-.586,2.517,2.517,0,0,1-.492-1.664V16.664H20.813V15.547h1.539V13.5ZM30.57,24.156a3.693,3.693,0,0,1-2.8-1.129,4.19,4.19,0,0,1-1.078-3.02v-.266a5.073,5.073,0,0,1,.48-2.246,3.748,3.748,0,0,1,1.344-1.547,3.378,3.378,0,0,1,1.871-.559,3.166,3.166,0,0,1,2.563,1.086,4.7,4.7,0,0,1,.914,3.109v.6H28.141a3,3,0,0,0,.73,2.02,2.3,2.3,0,0,0,1.777.77,2.517,2.517,0,0,0,1.3-.312,3.259,3.259,0,0,0,.93-.828l.883.688A3.55,3.55,0,0,1,30.57,24.156Zm-.18-7.578a1.928,1.928,0,0,0-1.469.637A3.1,3.1,0,0,0,28.188,19h4.234v-.109a2.753,2.753,0,0,0-.594-1.707A1.815,1.815,0,0,0,30.391,16.578Zm9.234.266a4.331,4.331,0,0,0-.711-.055A1.9,1.9,0,0,0,36.984,18v6H35.539V15.547h1.406l.023.977a2.251,2.251,0,0,1,2.016-1.133,1.477,1.477,0,0,1,.641.109ZM42.523,24H41.078V15.547h1.445ZM40.961,13.3a.863.863,0,0,1,.215-.594.807.807,0,0,1,.637-.242.819.819,0,0,1,.641.242.854.854,0,0,1,.219.594.826.826,0,0,1-.219.586.834.834,0,0,1-.641.234.821.821,0,0,1-.637-.234A.834.834,0,0,1,40.961,13.3ZM50.055,24a3.036,3.036,0,0,1-.2-.891,3.225,3.225,0,0,1-2.406,1.047,2.984,2.984,0,0,1-2.051-.707,2.287,2.287,0,0,1-.8-1.793,2.39,2.39,0,0,1,1-2.051,4.733,4.733,0,0,1,2.824-.73h1.406v-.664A1.623,1.623,0,0,0,49.375,17a1.821,1.821,0,0,0-1.336-.449,2.107,2.107,0,0,0-1.3.391,1.151,1.151,0,0,0-.523.945H44.766a2,2,0,0,1,.449-1.223,3.066,3.066,0,0,1,1.219-.934,4.1,4.1,0,0,1,1.691-.344,3.342,3.342,0,0,1,2.289.73,2.635,2.635,0,0,1,.859,2.012v3.891a4.757,4.757,0,0,0,.3,1.852V24Zm-2.4-1.1a2.54,2.54,0,0,0,1.289-.352,2.127,2.127,0,0,0,.883-.914V19.9H48.7q-2.656,0-2.656,1.555a1.316,1.316,0,0,0,.453,1.063A1.742,1.742,0,0,0,47.656,22.9Zm11.2-7.352.039.938a3.122,3.122,0,0,1,2.508-1.094A2.417,2.417,0,0,1,63.82,16.75a3.2,3.2,0,0,1,1.1-.984,3.242,3.242,0,0,1,1.6-.375q2.781,0,2.828,2.945V24H67.9V18.422a1.941,1.941,0,0,0-.414-1.355,1.823,1.823,0,0,0-1.391-.449,1.916,1.916,0,0,0-1.336.48,1.949,1.949,0,0,0-.617,1.293V24H62.688V18.461a1.613,1.613,0,0,0-1.8-1.844,1.934,1.934,0,0,0-1.945,1.211V24H57.492V15.547ZM71.141,19.7a4.993,4.993,0,0,1,.488-2.234,3.643,3.643,0,0,1,1.359-1.531,3.7,3.7,0,0,1,1.988-.539,3.565,3.565,0,0,1,2.793,1.2,4.6,4.6,0,0,1,1.066,3.18v.1a5.036,5.036,0,0,1-.473,2.215,3.589,3.589,0,0,1-1.352,1.527,3.743,3.743,0,0,1-2.02.547,3.556,3.556,0,0,1-2.785-1.2A4.575,4.575,0,0,1,71.141,19.8Zm1.453.172a3.616,3.616,0,0,0,.652,2.258,2.211,2.211,0,0,0,3.5-.012,3.955,3.955,0,0,0,.648-2.418,3.61,3.61,0,0,0-.66-2.254,2.1,2.1,0,0,0-1.754-.863,2.075,2.075,0,0,0-1.727.852A3.925,3.925,0,0,0,72.594,19.867Zm9.422-4.32.047,1.063a3.08,3.08,0,0,1,2.531-1.219q2.68,0,2.7,3.023V24H85.852V18.406a1.946,1.946,0,0,0-.418-1.352,1.675,1.675,0,0,0-1.277-.437,2.086,2.086,0,0,0-1.234.375,2.546,2.546,0,0,0-.828.984V24H80.648V15.547ZM89.094,19.7a4.993,4.993,0,0,1,.488-2.234,3.643,3.643,0,0,1,1.359-1.531,3.7,3.7,0,0,1,1.988-.539,3.565,3.565,0,0,1,2.793,1.2,4.6,4.6,0,0,1,1.066,3.18v.1a5.036,5.036,0,0,1-.473,2.215,3.589,3.589,0,0,1-1.352,1.527,3.743,3.743,0,0,1-2.02.547,3.556,3.556,0,0,1-2.785-1.2A4.575,4.575,0,0,1,89.094,19.8Zm1.453.172a3.616,3.616,0,0,0,.652,2.258,2.211,2.211,0,0,0,3.5-.012,3.955,3.955,0,0,0,.648-2.418,3.61,3.61,0,0,0-.66-2.254,2.1,2.1,0,0,0-1.754-.863,2.075,2.075,0,0,0-1.727.852A3.925,3.925,0,0,0,90.547,19.867Zm11.445,3.109a2.082,2.082,0,0,0,1.352-.469,1.649,1.649,0,0,0,.641-1.172h1.367a2.621,2.621,0,0,1-.5,1.383,3.293,3.293,0,0,1-1.23,1.047,3.55,3.55,0,0,1-1.629.391A3.482,3.482,0,0,1,99.246,23a4.59,4.59,0,0,1-1.02-3.152v-.242a5.089,5.089,0,0,1,.453-2.2,3.451,3.451,0,0,1,1.3-1.492,3.7,3.7,0,0,1,2-.531,3.39,3.39,0,0,1,2.363.852,3.043,3.043,0,0,1,1,2.211h-1.367a1.992,1.992,0,0,0-.621-1.348,1.932,1.932,0,0,0-1.379-.527,2.023,2.023,0,0,0-1.707.793,3.724,3.724,0,0,0-.605,2.293v.273a3.65,3.65,0,0,0,.6,2.25A2.033,2.033,0,0,0,101.992,22.977Zm7.75-1.094,1.969-6.336h1.547l-3.4,9.758q-.789,2.109-2.508,2.109l-.273-.023-.539-.1V26.117l.391.031a1.923,1.923,0,0,0,1.145-.3,2.149,2.149,0,0,0,.676-1.086l.32-.859-3.016-8.359h1.578Zm6.766-8.383v2.047h1.578v1.117h-1.578v5.249a1.173,1.173,0,0,0,.211.763.888.888,0,0,0,.719.254,3.5,3.5,0,0,0,.688-.094V24a4.215,4.215,0,0,1-1.109.155,1.8,1.8,0,0,1-1.461-.586,2.517,2.517,0,0,1-.492-1.664V16.664h-1.539V15.547h1.539V13.5Zm2.727,6.2a4.993,4.993,0,0,1,.488-2.234,3.643,3.643,0,0,1,1.359-1.531,3.7,3.7,0,0,1,1.988-.539,3.565,3.565,0,0,1,2.793,1.2,4.6,4.6,0,0,1,1.066,3.18v.1a5.036,5.036,0,0,1-.473,2.215,3.589,3.589,0,0,1-1.352,1.527,3.743,3.743,0,0,1-2.02.547,3.556,3.556,0,0,1-2.785-1.2,4.575,4.575,0,0,1-1.066-3.164Zm1.453.172a3.616,3.616,0,0,0,.652,2.258,2.211,2.211,0,0,0,3.5-.012,3.955,3.955,0,0,0,.648-2.418,3.61,3.61,0,0,0-.66-2.254,2.1,2.1,0,0,0-1.754-.863,2.075,2.075,0,0,0-1.727.852A3.925,3.925,0,0,0,120.688,19.867ZM128.4,19.7a4.968,4.968,0,0,1,.914-3.145,3.151,3.151,0,0,1,4.836-.074l.07-.937h1.32V23.8a3.439,3.439,0,0,1-.973,2.586,3.589,3.589,0,0,1-2.613.945,4.348,4.348,0,0,1-1.789-.391,3.08,3.08,0,0,1-1.336-1.07l.75-.867a2.826,2.826,0,0,0,2.273,1.148,2.214,2.214,0,0,0,1.645-.594,2.269,2.269,0,0,0,.59-1.672v-.727a2.971,2.971,0,0,1-2.367,1,2.887,2.887,0,0,1-2.4-1.2A5.224,5.224,0,0,1,128.4,19.7Zm1.453.164a3.79,3.79,0,0,0,.586,2.246,1.9,1.9,0,0,0,1.641.816,2.117,2.117,0,0,0,2.008-1.242V17.828a2.142,2.142,0,0,0-1.992-1.211,1.921,1.921,0,0,0-1.648.82A4.128,4.128,0,0,0,129.852,19.867Zm11.375,4.289a3.693,3.693,0,0,1-2.8-1.129,4.19,4.19,0,0,1-1.078-3.02v-.266a5.073,5.073,0,0,1,.48-2.246,3.748,3.748,0,0,1,1.344-1.547,3.378,3.378,0,0,1,1.871-.559,3.166,3.166,0,0,1,2.563,1.086,4.7,4.7,0,0,1,.914,3.109v.6H138.8a3,3,0,0,0,.73,2.02,2.3,2.3,0,0,0,1.777.77,2.517,2.517,0,0,0,1.3-.312,3.258,3.258,0,0,0,.93-.828l.883.688A3.55,3.55,0,0,1,141.227,24.156Zm-.18-7.578a1.928,1.928,0,0,0-1.469.637A3.1,3.1,0,0,0,138.844,19h4.234v-.109a2.753,2.753,0,0,0-.594-1.707A1.815,1.815,0,0,0,141.047,16.578Zm6.516-1.031.047,1.063a3.08,3.08,0,0,1,2.531-1.219q2.68,0,2.7,3.023V24H151.4V18.406a1.946,1.946,0,0,0-.418-1.352,1.675,1.675,0,0,0-1.277-.437,2.086,2.086,0,0,0-1.234.375,2.546,2.546,0,0,0-.828.984V24H146.2V15.547Zm10.969,8.609a3.693,3.693,0,0,1-2.8-1.129,4.19,4.19,0,0,1-1.078-3.02v-.266a5.073,5.073,0,0,1,.48-2.246,3.748,3.748,0,0,1,1.344-1.547,3.378,3.378,0,0,1,1.871-.559,3.166,3.166,0,0,1,2.563,1.086,4.7,4.7,0,0,1,.914,3.109v.6H156.1a3,3,0,0,0,.73,2.02,2.3,2.3,0,0,0,1.777.77,2.517,2.517,0,0,0,1.3-.312,3.258,3.258,0,0,0,.93-.828l.883.688A3.55,3.55,0,0,1,158.531,24.156Zm-.18-7.578a1.928,1.928,0,0,0-1.469.637A3.1,3.1,0,0,0,156.148,19h4.234v-.109a2.753,2.753,0,0,0-.594-1.707A1.815,1.815,0,0,0,158.352,16.578Zm10.07,5.18a1.064,1.064,0,0,0-.441-.91,4.249,4.249,0,0,0-1.539-.559,7.277,7.277,0,0,1-1.742-.562,2.479,2.479,0,0,1-.953-.781,1.869,1.869,0,0,1-.309-1.078,2.193,2.193,0,0,1,.879-1.758,3.432,3.432,0,0,1,2.246-.719,3.532,3.532,0,0,1,2.332.742,2.357,2.357,0,0,1,.895,1.9h-1.453a1.3,1.3,0,0,0-.5-1.023,1.888,1.888,0,0,0-1.27-.43,1.976,1.976,0,0,0-1.234.344,1.082,1.082,0,0,0-.445.9.877.877,0,0,0,.414.789,5.1,5.1,0,0,0,1.5.508,7.8,7.8,0,0,1,1.754.578,2.558,2.558,0,0,1,1,.809,1.988,1.988,0,0,1,.324,1.152,2.163,2.163,0,0,1-.906,1.816,3.8,3.8,0,0,1-2.352.684,4.257,4.257,0,0,1-1.8-.359,2.922,2.922,0,0,1-1.223-1,2.42,2.42,0,0,1-.441-1.395h1.445a1.5,1.5,0,0,0,.582,1.152,2.258,2.258,0,0,0,1.434.426,2.331,2.331,0,0,0,1.316-.332A1.02,1.02,0,0,0,168.422,21.758ZM4.672,42.93a7.053,7.053,0,0,1-2.809-1.363,2.6,2.6,0,0,1-.879-2,2.751,2.751,0,0,1,1.074-2.223,4.269,4.269,0,0,1,2.793-.879,4.66,4.66,0,0,1,2.09.453,3.436,3.436,0,0,1,1.422,1.25,3.2,3.2,0,0,1,.5,1.742H7.359A2.08,2.08,0,0,0,6.7,38.287,2.669,2.669,0,0,0,4.852,37.7a2.732,2.732,0,0,0-1.73.489A1.632,1.632,0,0,0,2.5,39.542a1.468,1.468,0,0,0,.59,1.178A5.786,5.786,0,0,0,5.1,41.6a9.316,9.316,0,0,1,2.219.88A3.367,3.367,0,0,1,8.5,43.6a2.861,2.861,0,0,1,.387,1.508,2.658,2.658,0,0,1-1.078,2.215,4.6,4.6,0,0,1-2.883.832,5.347,5.347,0,0,1-2.187-.449,3.681,3.681,0,0,1-1.566-1.23A3,3,0,0,1,.625,44.7H2.133a1.959,1.959,0,0,0,.762,1.629,3.207,3.207,0,0,0,2.035.6,2.948,2.948,0,0,0,1.82-.484,1.573,1.573,0,0,0,.633-1.32A1.545,1.545,0,0,0,6.8,43.832,6.755,6.755,0,0,0,4.672,42.93Zm7.875-5.43v2.047h1.578v1.117H12.547v5.249a1.173,1.173,0,0,0,.211.763.888.888,0,0,0,.719.254,3.5,3.5,0,0,0,.688-.094V48a4.215,4.215,0,0,1-1.109.155,1.8,1.8,0,0,1-1.461-.586,2.517,2.517,0,0,1-.492-1.664V40.664H9.563V39.547H11.1V37.5ZM19.9,40.844a4.331,4.331,0,0,0-.711-.055A1.9,1.9,0,0,0,17.258,42v6H15.813V39.547h1.406l.023.977a2.251,2.251,0,0,1,2.016-1.133,1.477,1.477,0,0,1,.641.109Zm4.688,7.313a3.693,3.693,0,0,1-2.8-1.129,4.19,4.19,0,0,1-1.078-3.02v-.266a5.073,5.073,0,0,1,.48-2.246,3.748,3.748,0,0,1,1.344-1.547,3.378,3.378,0,0,1,1.871-.559,3.166,3.166,0,0,1,2.563,1.086,4.7,4.7,0,0,1,.914,3.109v.6H22.156a3,3,0,0,0,.73,2.02,2.3,2.3,0,0,0,1.777.77,2.517,2.517,0,0,0,1.3-.312,3.259,3.259,0,0,0,.93-.828l.883.688A3.55,3.55,0,0,1,24.586,48.156Zm-.18-7.578a1.928,1.928,0,0,0-1.469.637A3.1,3.1,0,0,0,22.2,43h4.234v-.109a2.753,2.753,0,0,0-.594-1.707A1.815,1.815,0,0,0,24.406,40.578ZM36.7,43.867a5.062,5.062,0,0,1-.883,3.109,2.829,2.829,0,0,1-2.391,1.18A3.1,3.1,0,0,1,31,47.18v4.07H29.555v-11.7h1.32l.07.938A2.977,2.977,0,0,1,33.4,39.391a2.882,2.882,0,0,1,2.41,1.148,5.117,5.117,0,0,1,.887,3.2ZM35.25,43.7a3.735,3.735,0,0,0-.609-2.258,1.963,1.963,0,0,0-1.672-.828A2.125,2.125,0,0,0,31,41.781V45.82a2.129,2.129,0,0,0,1.984,1.156,1.954,1.954,0,0,0,1.652-.824A4.077,4.077,0,0,0,35.25,43.7Zm5.242-6.2v2.047H42.07v1.117H40.492v5.249a1.173,1.173,0,0,0,.211.763.888.888,0,0,0,.719.254,3.5,3.5,0,0,0,.688-.094V48A4.215,4.215,0,0,1,41,48.156a1.8,1.8,0,0,1-1.461-.586,2.517,2.517,0,0,1-.492-1.664V40.664H37.508V39.547h1.539V37.5Zm2.727,6.2a4.993,4.993,0,0,1,.488-2.234,3.643,3.643,0,0,1,1.359-1.531,3.7,3.7,0,0,1,1.988-.539,3.565,3.565,0,0,1,2.793,1.2,4.6,4.6,0,0,1,1.066,3.18v.1a5.036,5.036,0,0,1-.473,2.215,3.589,3.589,0,0,1-1.352,1.527,3.743,3.743,0,0,1-2.02.547,3.556,3.556,0,0,1-2.785-1.2A4.575,4.575,0,0,1,43.219,43.8Zm1.453.172a3.616,3.616,0,0,0,.652,2.258,2.211,2.211,0,0,0,3.5-.012,3.955,3.955,0,0,0,.648-2.418,3.61,3.61,0,0,0-.66-2.254,2.1,2.1,0,0,0-1.754-.863,2.075,2.075,0,0,0-1.727.852A3.925,3.925,0,0,0,44.672,43.867Zm11.445,3.109a2.082,2.082,0,0,0,1.352-.469,1.649,1.649,0,0,0,.641-1.172h1.367a2.621,2.621,0,0,1-.5,1.383,3.293,3.293,0,0,1-1.23,1.047,3.55,3.55,0,0,1-1.629.391A3.482,3.482,0,0,1,53.371,47a4.59,4.59,0,0,1-1.02-3.152v-.242a5.089,5.089,0,0,1,.453-2.2,3.451,3.451,0,0,1,1.3-1.492,3.7,3.7,0,0,1,2-.531,3.39,3.39,0,0,1,2.363.852,3.043,3.043,0,0,1,1,2.211H58.109a1.992,1.992,0,0,0-.621-1.348,1.932,1.932,0,0,0-1.379-.527,2.023,2.023,0,0,0-1.707.793,3.724,3.724,0,0,0-.605,2.293v.273a3.65,3.65,0,0,0,.6,2.25A2.033,2.033,0,0,0,56.117,46.977Zm4.6-3.281a4.993,4.993,0,0,1,.488-2.234,3.643,3.643,0,0,1,1.359-1.531,3.7,3.7,0,0,1,1.988-.539,3.565,3.565,0,0,1,2.793,1.2,4.6,4.6,0,0,1,1.066,3.18v.1a5.036,5.036,0,0,1-.473,2.215,3.589,3.589,0,0,1-1.352,1.527,3.743,3.743,0,0,1-2.02.547,3.556,3.556,0,0,1-2.785-1.2A4.575,4.575,0,0,1,60.719,43.8Zm1.453.172a3.616,3.616,0,0,0,.652,2.258,2.211,2.211,0,0,0,3.5-.012,3.955,3.955,0,0,0,.648-2.418,3.61,3.61,0,0,0-.66-2.254,2.1,2.1,0,0,0-1.754-.863,2.075,2.075,0,0,0-1.727.852A3.925,3.925,0,0,0,62.172,43.867Zm11.445,3.109a2.082,2.082,0,0,0,1.352-.469,1.649,1.649,0,0,0,.641-1.172h1.367a2.621,2.621,0,0,1-.5,1.383,3.293,3.293,0,0,1-1.23,1.047,3.55,3.55,0,0,1-1.629.391A3.482,3.482,0,0,1,70.871,47a4.59,4.59,0,0,1-1.02-3.152v-.242a5.089,5.089,0,0,1,.453-2.2,3.451,3.451,0,0,1,1.3-1.492,3.7,3.7,0,0,1,2-.531,3.39,3.39,0,0,1,2.363.852,3.043,3.043,0,0,1,1,2.211H75.609a1.992,1.992,0,0,0-.621-1.348,1.932,1.932,0,0,0-1.379-.527,2.023,2.023,0,0,0-1.707.793,3.724,3.724,0,0,0-.605,2.293v.273a3.65,3.65,0,0,0,.6,2.25A2.033,2.033,0,0,0,73.617,46.977Zm8.375,0a2.082,2.082,0,0,0,1.352-.469,1.649,1.649,0,0,0,.641-1.172h1.367a2.621,2.621,0,0,1-.5,1.383,3.293,3.293,0,0,1-1.23,1.047,3.55,3.55,0,0,1-1.629.391A3.482,3.482,0,0,1,79.246,47a4.59,4.59,0,0,1-1.02-3.152v-.242a5.089,5.089,0,0,1,.453-2.2,3.451,3.451,0,0,1,1.3-1.492,3.7,3.7,0,0,1,2-.531,3.39,3.39,0,0,1,2.363.852,3.043,3.043,0,0,1,1,2.211H83.984a1.992,1.992,0,0,0-.621-1.348,1.932,1.932,0,0,0-1.379-.527,2.023,2.023,0,0,0-1.707.793,3.724,3.724,0,0,0-.605,2.293v.273a3.65,3.65,0,0,0,.6,2.25A2.033,2.033,0,0,0,81.992,46.977Zm10.2.188a3.07,3.07,0,0,1-2.477.992,2.628,2.628,0,0,1-2.059-.785,3.4,3.4,0,0,1-.715-2.324v-5.5h1.445v5.461q0,1.922,1.563,1.922a2.163,2.163,0,0,0,2.2-1.234V39.547H93.6V48H92.227Zm8.523-1.406a1.064,1.064,0,0,0-.441-.91,4.249,4.249,0,0,0-1.539-.559A7.277,7.277,0,0,1,97,43.727a2.479,2.479,0,0,1-.953-.781,1.869,1.869,0,0,1-.309-1.078,2.193,2.193,0,0,1,.879-1.758,3.432,3.432,0,0,1,2.246-.719,3.532,3.532,0,0,1,2.332.742,2.357,2.357,0,0,1,.895,1.9h-1.453a1.3,1.3,0,0,0-.5-1.023,1.888,1.888,0,0,0-1.27-.43,1.976,1.976,0,0,0-1.234.344,1.082,1.082,0,0,0-.445.9.877.877,0,0,0,.414.789,5.1,5.1,0,0,0,1.5.508,7.8,7.8,0,0,1,1.754.578,2.558,2.558,0,0,1,1,.809,1.988,1.988,0,0,1,.324,1.152,2.163,2.163,0,0,1-.906,1.816,3.8,3.8,0,0,1-2.352.684,4.257,4.257,0,0,1-1.8-.359,2.922,2.922,0,0,1-1.223-1,2.42,2.42,0,0,1-.441-1.395h1.445a1.5,1.5,0,0,0,.582,1.152,2.258,2.258,0,0,0,1.434.426,2.331,2.331,0,0,0,1.316-.332A1.02,1.02,0,0,0,100.719,45.758Zm10.8,2.4a3.693,3.693,0,0,1-2.8-1.129,4.19,4.19,0,0,1-1.078-3.02v-.266a5.073,5.073,0,0,1,.48-2.246,3.748,3.748,0,0,1,1.344-1.547,3.378,3.378,0,0,1,1.871-.559,3.166,3.166,0,0,1,2.563,1.086,4.7,4.7,0,0,1,.914,3.109v.6h-5.727a3,3,0,0,0,.73,2.02,2.3,2.3,0,0,0,1.777.77,2.517,2.517,0,0,0,1.3-.312,3.259,3.259,0,0,0,.93-.828l.883.688A3.55,3.55,0,0,1,111.516,48.156Zm-.18-7.578a1.928,1.928,0,0,0-1.469.637A3.1,3.1,0,0,0,109.133,43h4.234v-.109a2.753,2.753,0,0,0-.594-1.707A1.815,1.815,0,0,0,111.336,40.578Zm6.508-1.031.039.938a3.122,3.122,0,0,1,2.508-1.094A2.417,2.417,0,0,1,122.8,40.75a3.2,3.2,0,0,1,1.1-.984,3.242,3.242,0,0,1,1.6-.375q2.781,0,2.828,2.945V48h-1.445V42.422a1.941,1.941,0,0,0-.414-1.355,1.823,1.823,0,0,0-1.391-.449,1.916,1.916,0,0,0-1.336.48,1.949,1.949,0,0,0-.617,1.293V48h-1.453V42.461a1.613,1.613,0,0,0-1.8-1.844,1.934,1.934,0,0,0-1.945,1.211V48h-1.445V39.547ZM130.125,43.7a4.993,4.993,0,0,1,.488-2.234,3.642,3.642,0,0,1,1.359-1.531,3.7,3.7,0,0,1,1.988-.539,3.565,3.565,0,0,1,2.793,1.2,4.6,4.6,0,0,1,1.066,3.18v.1a5.036,5.036,0,0,1-.473,2.215A3.589,3.589,0,0,1,136,47.609a3.743,3.743,0,0,1-2.02.547,3.556,3.556,0,0,1-2.785-1.2,4.575,4.575,0,0,1-1.066-3.164Zm1.453.172a3.616,3.616,0,0,0,.652,2.258,2.211,2.211,0,0,0,3.5-.012,3.954,3.954,0,0,0,.648-2.418,3.61,3.61,0,0,0-.66-2.254,2.1,2.1,0,0,0-1.754-.863,2.075,2.075,0,0,0-1.727.852A3.925,3.925,0,0,0,131.578,43.867ZM141.2,48h-1.445V36H141.2Zm3.883,0h-1.445V39.547h1.445Zm-1.562-10.7a.863.863,0,0,1,.215-.594.807.807,0,0,1,.637-.242.819.819,0,0,1,.641.242.854.854,0,0,1,.219.594.826.826,0,0,1-.219.586.834.834,0,0,1-.641.234.821.821,0,0,1-.637-.234A.834.834,0,0,1,143.523,37.3Zm5.836.2v2.047h1.578v1.117h-1.578v5.249a1.173,1.173,0,0,0,.211.763.888.888,0,0,0,.719.254,3.5,3.5,0,0,0,.688-.094V48a4.215,4.215,0,0,1-1.109.155,1.8,1.8,0,0,1-1.461-.586,2.517,2.517,0,0,1-.492-1.664V40.664h-1.539V39.547h1.539V37.5ZM154.2,48H152.75V39.547H154.2Zm-1.562-10.7a.863.863,0,0,1,.215-.594.807.807,0,0,1,.637-.242.819.819,0,0,1,.641.242.854.854,0,0,1,.219.594.826.826,0,0,1-.219.586.834.834,0,0,1-.641.234.821.821,0,0,1-.637-.234A.834.834,0,0,1,152.633,37.3Zm7.266,9.672a2.082,2.082,0,0,0,1.352-.469,1.649,1.649,0,0,0,.641-1.172h1.367a2.621,2.621,0,0,1-.5,1.383,3.293,3.293,0,0,1-1.23,1.047,3.55,3.55,0,0,1-1.629.391A3.482,3.482,0,0,1,157.152,47a4.59,4.59,0,0,1-1.02-3.152v-.242a5.089,5.089,0,0,1,.453-2.2,3.451,3.451,0,0,1,1.3-1.492,3.7,3.7,0,0,1,2-.531,3.39,3.39,0,0,1,2.363.852,3.043,3.043,0,0,1,1,2.211h-1.367a1.992,1.992,0,0,0-.621-1.348,1.932,1.932,0,0,0-1.379-.527,2.023,2.023,0,0,0-1.707.793,3.724,3.724,0,0,0-.605,2.293v.273a3.65,3.65,0,0,0,.6,2.25A2.033,2.033,0,0,0,159.9,46.977Zm10.2.188a3.07,3.07,0,0,1-2.477.992,2.628,2.628,0,0,1-2.059-.785,3.4,3.4,0,0,1-.715-2.324v-5.5H166.3v5.461q0,1.922,1.563,1.922a2.163,2.163,0,0,0,2.2-1.234V39.547h1.445V48h-1.375Zm8.523-1.406a1.064,1.064,0,0,0-.441-.91,4.249,4.249,0,0,0-1.539-.559,7.277,7.277,0,0,1-1.742-.562,2.479,2.479,0,0,1-.953-.781,1.869,1.869,0,0,1-.309-1.078,2.193,2.193,0,0,1,.879-1.758,3.432,3.432,0,0,1,2.246-.719,3.532,3.532,0,0,1,2.332.742,2.357,2.357,0,0,1,.895,1.9h-1.453a1.3,1.3,0,0,0-.5-1.023,1.888,1.888,0,0,0-1.27-.43,1.976,1.976,0,0,0-1.234.344,1.082,1.082,0,0,0-.445.9.877.877,0,0,0,.414.789,5.1,5.1,0,0,0,1.5.508,7.8,7.8,0,0,1,1.754.578,2.558,2.558,0,0,1,1,.809,1.988,1.988,0,0,1,.324,1.152,2.163,2.163,0,0,1-.906,1.816,3.8,3.8,0,0,1-2.352.684,4.257,4.257,0,0,1-1.8-.359,2.922,2.922,0,0,1-1.223-1,2.42,2.42,0,0,1-.441-1.395H174.8a1.5,1.5,0,0,0,.582,1.152,2.258,2.258,0,0,0,1.434.426,2.331,2.331,0,0,0,1.316-.332A1.02,1.02,0,0,0,178.625,45.758Z" transform="translate(1144.051 5789.8)" fill="#12263f"/>
    <path id="Trazado_915306" data-name="Trazado 915306" d="M18,0H87a18,18,0,0,1,0,36H18A18,18,0,0,1,18,0Z" transform="translate(777.051 5744.8)" fill="#fcedb6"/>
    <path id="Trazado_915307" data-name="Trazado 915307" d="M18,0H125a18,18,0,0,1,0,36H18A18,18,0,0,1,18,0Z" transform="translate(949.051 5668.8)" fill="#fddadb"/>
    <path id="Trazado_915308" data-name="Trazado 915308" d="M18,0H125a18,18,0,0,1,0,36H18A18,18,0,0,1,18,0Z" transform="translate(949.051 5801.8)" fill="#fddadb"/>
    <path id="Trazado_915309" data-name="Trazado 915309" d="M.859,0V-11.375H4.945a5.786,5.786,0,0,1,3.34.8A2.677,2.677,0,0,1,9.43-8.234a2.707,2.707,0,0,1-.406,1.508,2.367,2.367,0,0,1-1.2.922A2.4,2.4,0,0,1,9.2-4.93a2.544,2.544,0,0,1,.477,1.563A3.012,3.012,0,0,1,8.613-.855,5.038,5.038,0,0,1,5.477,0ZM3.6-4.836v2.727H5.4a1.709,1.709,0,0,0,1.141-.34,1.189,1.189,0,0,0,.4-.957,1.261,1.261,0,0,0-1.414-1.43Zm0-1.8h1.43a2.031,2.031,0,0,0,1.281-.329A1.168,1.168,0,0,0,6.7-7.91a1.226,1.226,0,0,0-.414-1.038,2.216,2.216,0,0,0-1.336-.317H3.6ZM15.82,0a2.973,2.973,0,0,1-.25-.758,2.448,2.448,0,0,1-2.031.914,3,3,0,0,1-2.031-.723,2.3,2.3,0,0,1-.836-1.816,2.364,2.364,0,0,1,1.016-2.078,5.174,5.174,0,0,1,2.953-.7h.813v-.448q0-1.17-1.008-1.17a.824.824,0,0,0-.937.926H10.875a2.36,2.36,0,0,1,1.043-1.99,4.383,4.383,0,0,1,2.66-.765,3.843,3.843,0,0,1,2.555.789,2.743,2.743,0,0,1,.961,2.164v3.742a3.832,3.832,0,0,0,.359,1.781V0ZM14.172-1.719a1.469,1.469,0,0,0,.816-.211,1.322,1.322,0,0,0,.465-.477V-3.758h-.766q-1.375,0-1.375,1.234a.754.754,0,0,0,.242.582A.876.876,0,0,0,14.172-1.719Zm8.953-.156a1.171,1.171,0,0,0,.859-.3,1.1,1.1,0,0,0,.3-.84H26.75a2.922,2.922,0,0,1-1,2.281,3.705,3.705,0,0,1-2.566.891A3.751,3.751,0,0,1,20.281-1a4.556,4.556,0,0,1-1.062-3.2v-.109a5.149,5.149,0,0,1,.473-2.262,3.441,3.441,0,0,1,1.363-1.508,4.065,4.065,0,0,1,2.109-.527,3.658,3.658,0,0,1,2.617.914,3.242,3.242,0,0,1,.969,2.477H24.281a1.445,1.445,0,0,0-.32-1.008,1.106,1.106,0,0,0-.859-.352q-1.023,0-1.2,1.3a9.206,9.206,0,0,0-.055,1.141,3.616,3.616,0,0,0,.3,1.766A1.055,1.055,0,0,0,23.125-1.875Zm7.8-8.68v2.1H32.32v1.828H30.93v3.867a.987.987,0,0,0,.172.664.922.922,0,0,0,.68.188,3.862,3.862,0,0,0,.656-.047V-.07a4.859,4.859,0,0,1-1.484.227,2.758,2.758,0,0,1-2.008-.641A2.626,2.626,0,0,1,28.3-2.43v-4.2H27.219V-8.453H28.3v-2.1ZM37.445.156A4.345,4.345,0,0,1,34.3-1a4.006,4.006,0,0,1-1.2-3.02v-.219a5.191,5.191,0,0,1,.48-2.289,3.516,3.516,0,0,1,1.4-1.535,4.233,4.233,0,0,1,2.188-.543A3.659,3.659,0,0,1,39.977-7.5a4.344,4.344,0,0,1,1.031,3.082V-3.4H35.773a1.9,1.9,0,0,0,.617,1.117,1.836,1.836,0,0,0,1.234.406,2.366,2.366,0,0,0,1.953-.875l1.2,1.422A3.363,3.363,0,0,1,39.387-.246,4.713,4.713,0,0,1,37.445.156Zm-.3-6.734q-1.156,0-1.375,1.531H38.43v-.2a1.3,1.3,0,0,0-.32-.98A1.275,1.275,0,0,0,37.148-6.578ZM47.18-6.07l-.867-.062a1.558,1.558,0,0,0-1.594.781V0H42.086V-8.453h2.469l.086,1.086a2.039,2.039,0,0,1,1.852-1.242,2.567,2.567,0,0,1,.734.094ZM50.906,0H48.266V-8.453h2.641Zm-2.8-10.641a1.186,1.186,0,0,1,.406-.927,1.527,1.527,0,0,1,1.055-.362,1.527,1.527,0,0,1,1.055.362,1.186,1.186,0,0,1,.406.927,1.186,1.186,0,0,1-.406.927,1.527,1.527,0,0,1-1.055.362,1.527,1.527,0,0,1-1.055-.362A1.186,1.186,0,0,1,48.109-10.641ZM57.289,0a2.973,2.973,0,0,1-.25-.758,2.448,2.448,0,0,1-2.031.914,3,3,0,0,1-2.031-.723,2.3,2.3,0,0,1-.836-1.816,2.364,2.364,0,0,1,1.016-2.078,5.174,5.174,0,0,1,2.953-.7h.813v-.448q0-1.17-1.008-1.17a.824.824,0,0,0-.937.926H52.344a2.36,2.36,0,0,1,1.043-1.99,4.383,4.383,0,0,1,2.66-.765A3.843,3.843,0,0,1,58.6-7.82a2.743,2.743,0,0,1,.961,2.164v3.742a3.832,3.832,0,0,0,.359,1.781V0ZM55.641-1.719a1.469,1.469,0,0,0,.816-.211,1.322,1.322,0,0,0,.465-.477V-3.758h-.766q-1.375,0-1.375,1.234a.754.754,0,0,0,.242.582A.876.876,0,0,0,55.641-1.719Zm9.8-.656a.608.608,0,0,0-.352-.539,5.348,5.348,0,0,0-1.336-.422,6.092,6.092,0,0,1-1.625-.574,2.722,2.722,0,0,1-.977-.863,2.061,2.061,0,0,1-.336-1.164,2.336,2.336,0,0,1,.961-1.918A3.958,3.958,0,0,1,64.3-8.609a4.386,4.386,0,0,1,2.688.758A2.37,2.37,0,0,1,68-5.859H65.359q0-1.016-1.07-1.016a1.061,1.061,0,0,0-.7.23.714.714,0,0,0-.281.574.655.655,0,0,0,.344.57,3.248,3.248,0,0,0,1.1.359,9.486,9.486,0,0,1,1.324.336,2.406,2.406,0,0,1,1.906,2.352A2.214,2.214,0,0,1,66.957-.57,4.505,4.505,0,0,1,64.3.156a4.6,4.6,0,0,1-1.937-.391A3.24,3.24,0,0,1,61.031-1.3a2.406,2.406,0,0,1-.477-1.414h2.461a1.017,1.017,0,0,0,.391.855,1.607,1.607,0,0,0,.961.27,1.264,1.264,0,0,0,.809-.219A.7.7,0,0,0,65.445-2.375Zm5.406-.18a1.5,1.5,0,0,1,1.039.371,1.218,1.218,0,0,1,.414.949,1.218,1.218,0,0,1-.414.949,1.5,1.5,0,0,1-1.039.371,1.486,1.486,0,0,1-1.043-.375,1.226,1.226,0,0,1-.41-.945,1.226,1.226,0,0,1,.41-.945A1.486,1.486,0,0,1,70.852-2.555Zm0-6.234a1.5,1.5,0,0,1,1.039.371,1.218,1.218,0,0,1,.414.949,1.218,1.218,0,0,1-.414.949,1.5,1.5,0,0,1-1.039.371,1.486,1.486,0,0,1-1.043-.375,1.226,1.226,0,0,1-.41-.945,1.226,1.226,0,0,1,.41-.945A1.486,1.486,0,0,1,70.852-8.789Z" transform="translate(794.051 5769.8)" fill="#12263f"/>
    <path id="Trazado_915310" data-name="Trazado 915310" d="M10.172-1.406A4.409,4.409,0,0,1,8.32-.273a7.986,7.986,0,0,1-2.672.43,4.764,4.764,0,0,1-3.57-1.367,5.534,5.534,0,0,1-1.43-3.8L.641-6a6.788,6.788,0,0,1,.594-2.934,4.409,4.409,0,0,1,1.7-1.93,4.807,4.807,0,0,1,2.559-.676,5.039,5.039,0,0,1,3.3.973,4.121,4.121,0,0,1,1.371,2.9H7.523a2.157,2.157,0,0,0-.609-1.359A1.966,1.966,0,0,0,5.586-9.43a1.789,1.789,0,0,0-1.594.875,4.672,4.672,0,0,0-.57,2.5v.688A4.574,4.574,0,0,0,4-2.809a2.059,2.059,0,0,0,1.832.855A2.3,2.3,0,0,0,7.43-2.43V-4.2H5.523V-6.078h4.648ZM16.758-6.07l-.867-.062a1.558,1.558,0,0,0-1.594.781V0H11.664V-8.453h2.469l.086,1.086A2.039,2.039,0,0,1,16.07-8.609a2.567,2.567,0,0,1,.734.094ZM22.234,0a2.973,2.973,0,0,1-.25-.758,2.448,2.448,0,0,1-2.031.914,3,3,0,0,1-2.031-.723,2.3,2.3,0,0,1-.836-1.816A2.364,2.364,0,0,1,18.1-4.461a5.174,5.174,0,0,1,2.953-.7h.813v-.448q0-1.17-1.008-1.17a.824.824,0,0,0-.937.926H17.289a2.36,2.36,0,0,1,1.043-1.99,4.383,4.383,0,0,1,2.66-.765,3.843,3.843,0,0,1,2.555.789,2.743,2.743,0,0,1,.961,2.164v3.742a3.832,3.832,0,0,0,.359,1.781V0ZM20.586-1.719A1.469,1.469,0,0,0,21.4-1.93a1.322,1.322,0,0,0,.465-.477V-3.758H21.1q-1.375,0-1.375,1.234a.754.754,0,0,0,.242.582A.876.876,0,0,0,20.586-1.719Zm7.867-6.734.086.992a2.906,2.906,0,0,1,2.414-1.148,2.14,2.14,0,0,1,2.164,1.273A2.813,2.813,0,0,1,35.6-8.609q2.57,0,2.641,3.109V0H35.6V-5.336a1.611,1.611,0,0,0-.219-.945.931.931,0,0,0-.8-.3,1.247,1.247,0,0,0-1.164.7l.008.109V0H30.789V-5.32a1.694,1.694,0,0,0-.211-.961.929.929,0,0,0-.8-.3,1.263,1.263,0,0,0-1.156.7V0H25.984V-8.453Zm13.711,0,.086.992a2.867,2.867,0,0,1,2.414-1.148,2.412,2.412,0,0,1,1.973.789,3.757,3.757,0,0,1,.676,2.375V0H44.672V-5.336a1.426,1.426,0,0,0-.258-.941,1.193,1.193,0,0,0-.937-.3,1.256,1.256,0,0,0-1.148.609V0H39.7V-8.453ZM52.859.156A4.345,4.345,0,0,1,49.711-1a4.006,4.006,0,0,1-1.2-3.02v-.219a5.191,5.191,0,0,1,.48-2.289,3.516,3.516,0,0,1,1.4-1.535,4.233,4.233,0,0,1,2.188-.543A3.659,3.659,0,0,1,55.391-7.5a4.344,4.344,0,0,1,1.031,3.082V-3.4H51.188A1.9,1.9,0,0,0,51.8-2.281a1.836,1.836,0,0,0,1.234.406,2.366,2.366,0,0,0,1.953-.875l1.2,1.422A3.363,3.363,0,0,1,54.8-.246,4.713,4.713,0,0,1,52.859.156Zm-.3-6.734q-1.156,0-1.375,1.531h2.656v-.2a1.3,1.3,0,0,0-.32-.98A1.275,1.275,0,0,0,52.563-6.578Zm4.609,2.289a5.708,5.708,0,0,1,.422-2.266A3.4,3.4,0,0,1,58.8-8.074a3.192,3.192,0,0,1,1.836-.535,2.538,2.538,0,0,1,2.063.891l.094-.734h2.391V-.32a3.564,3.564,0,0,1-.52,1.941,3.334,3.334,0,0,1-1.5,1.266,5.528,5.528,0,0,1-2.281.441,4.769,4.769,0,0,1-1.8-.352,3.251,3.251,0,0,1-1.332-.914l1.1-1.547a2.414,2.414,0,0,0,1.938.867,1.568,1.568,0,0,0,1.75-1.8V-.68a2.472,2.472,0,0,1-1.914.836,3.055,3.055,0,0,1-2.5-1.184A4.9,4.9,0,0,1,57.172-4.2Zm2.641.164A3.007,3.007,0,0,0,60.2-2.48a1.232,1.232,0,0,0,1.094.605,1.4,1.4,0,0,0,1.242-.57V-6a1.363,1.363,0,0,0-1.227-.578,1.241,1.241,0,0,0-1.1.629A3.429,3.429,0,0,0,59.813-4.125ZM71.445,0a2.973,2.973,0,0,1-.25-.758,2.448,2.448,0,0,1-2.031.914,3,3,0,0,1-2.031-.723A2.3,2.3,0,0,1,66.3-2.383a2.364,2.364,0,0,1,1.016-2.078,5.174,5.174,0,0,1,2.953-.7h.813v-.448q0-1.17-1.008-1.17a.824.824,0,0,0-.937.926H66.5a2.36,2.36,0,0,1,1.043-1.99,4.383,4.383,0,0,1,2.66-.765,3.843,3.843,0,0,1,2.555.789,2.743,2.743,0,0,1,.961,2.164v3.742a3.832,3.832,0,0,0,.359,1.781V0ZM69.8-1.719a1.469,1.469,0,0,0,.816-.211,1.322,1.322,0,0,0,.465-.477V-3.758h-.766q-1.375,0-1.375,1.234a.754.754,0,0,0,.242.582A.876.876,0,0,0,69.8-1.719Zm8.445-8.836v2.1h1.391v1.828H78.242v3.867a.987.987,0,0,0,.172.664.922.922,0,0,0,.68.188,3.862,3.862,0,0,0,.656-.047V-.07a4.859,4.859,0,0,1-1.484.227,2.758,2.758,0,0,1-2.008-.641,2.626,2.626,0,0,1-.648-1.945v-4.2H74.531V-8.453h1.078v-2.1ZM83.445,0H80.8V-8.453h2.641Zm-2.8-10.641a1.186,1.186,0,0,1,.406-.927,1.527,1.527,0,0,1,1.055-.362,1.527,1.527,0,0,1,1.055.362,1.186,1.186,0,0,1,.406.927,1.186,1.186,0,0,1-.406.927,1.527,1.527,0,0,1-1.055.362,1.527,1.527,0,0,1-1.055-.362A1.186,1.186,0,0,1,80.648-10.641Zm7.789,7.508,1.336-5.32h2.773L89.789,0H87.1L84.344-8.453h2.781ZM97.977,0a2.973,2.973,0,0,1-.25-.758A2.448,2.448,0,0,1,95.7.156a3,3,0,0,1-2.031-.723,2.3,2.3,0,0,1-.836-1.816,2.364,2.364,0,0,1,1.016-2.078,5.174,5.174,0,0,1,2.953-.7h.813v-.448q0-1.17-1.008-1.17a.824.824,0,0,0-.937.926H93.031a2.36,2.36,0,0,1,1.043-1.99,4.383,4.383,0,0,1,2.66-.765,3.843,3.843,0,0,1,2.555.789,2.743,2.743,0,0,1,.961,2.164v3.742a3.832,3.832,0,0,0,.359,1.781V0ZM96.328-1.719a1.469,1.469,0,0,0,.816-.211,1.322,1.322,0,0,0,.465-.477V-3.758h-.766q-1.375,0-1.375,1.234a.754.754,0,0,0,.242.582A.876.876,0,0,0,96.328-1.719Zm9.8-.656a.608.608,0,0,0-.352-.539,5.348,5.348,0,0,0-1.336-.422,6.092,6.092,0,0,1-1.625-.574,2.722,2.722,0,0,1-.977-.863,2.061,2.061,0,0,1-.336-1.164,2.336,2.336,0,0,1,.961-1.918,3.958,3.958,0,0,1,2.516-.754,4.386,4.386,0,0,1,2.688.758,2.37,2.37,0,0,1,1.016,1.992h-2.641q0-1.016-1.07-1.016a1.061,1.061,0,0,0-.7.23A.714.714,0,0,0,104-6.07a.655.655,0,0,0,.344.57,3.248,3.248,0,0,0,1.1.359,9.486,9.486,0,0,1,1.324.336,2.406,2.406,0,0,1,1.906,2.352A2.214,2.214,0,0,1,107.645-.57a4.505,4.505,0,0,1-2.66.727,4.6,4.6,0,0,1-1.937-.391A3.24,3.24,0,0,1,101.719-1.3a2.406,2.406,0,0,1-.477-1.414H103.7a1.017,1.017,0,0,0,.391.855,1.607,1.607,0,0,0,.961.27,1.264,1.264,0,0,0,.809-.219A.7.7,0,0,0,106.133-2.375Z" transform="translate(966.051 5693.8)" fill="#12263f"/>
    <path id="Trazado_915311" data-name="Trazado 915311" d="M10.172-1.406A4.409,4.409,0,0,1,8.32-.273a7.986,7.986,0,0,1-2.672.43,4.764,4.764,0,0,1-3.57-1.367,5.534,5.534,0,0,1-1.43-3.8L.641-6a6.788,6.788,0,0,1,.594-2.934,4.409,4.409,0,0,1,1.7-1.93,4.807,4.807,0,0,1,2.559-.676,5.039,5.039,0,0,1,3.3.973,4.121,4.121,0,0,1,1.371,2.9H7.523a2.157,2.157,0,0,0-.609-1.359A1.966,1.966,0,0,0,5.586-9.43a1.789,1.789,0,0,0-1.594.875,4.672,4.672,0,0,0-.57,2.5v.688A4.574,4.574,0,0,0,4-2.809a2.059,2.059,0,0,0,1.832.855A2.3,2.3,0,0,0,7.43-2.43V-4.2H5.523V-6.078h4.648ZM16.758-6.07l-.867-.062a1.558,1.558,0,0,0-1.594.781V0H11.664V-8.453h2.469l.086,1.086A2.039,2.039,0,0,1,16.07-8.609a2.567,2.567,0,0,1,.734.094ZM22.234,0a2.973,2.973,0,0,1-.25-.758,2.448,2.448,0,0,1-2.031.914,3,3,0,0,1-2.031-.723,2.3,2.3,0,0,1-.836-1.816A2.364,2.364,0,0,1,18.1-4.461a5.174,5.174,0,0,1,2.953-.7h.813v-.448q0-1.17-1.008-1.17a.824.824,0,0,0-.937.926H17.289a2.36,2.36,0,0,1,1.043-1.99,4.383,4.383,0,0,1,2.66-.765,3.843,3.843,0,0,1,2.555.789,2.743,2.743,0,0,1,.961,2.164v3.742a3.832,3.832,0,0,0,.359,1.781V0ZM20.586-1.719A1.469,1.469,0,0,0,21.4-1.93a1.322,1.322,0,0,0,.465-.477V-3.758H21.1q-1.375,0-1.375,1.234a.754.754,0,0,0,.242.582A.876.876,0,0,0,20.586-1.719Zm7.867-6.734.086.992a2.906,2.906,0,0,1,2.414-1.148,2.14,2.14,0,0,1,2.164,1.273A2.813,2.813,0,0,1,35.6-8.609q2.57,0,2.641,3.109V0H35.6V-5.336a1.611,1.611,0,0,0-.219-.945.931.931,0,0,0-.8-.3,1.247,1.247,0,0,0-1.164.7l.008.109V0H30.789V-5.32a1.694,1.694,0,0,0-.211-.961.929.929,0,0,0-.8-.3,1.263,1.263,0,0,0-1.156.7V0H25.984V-8.453ZM47.594-4.164a5.1,5.1,0,0,1-.887,3.145A2.843,2.843,0,0,1,44.313.156,2.437,2.437,0,0,1,42.4-.7V3.25H39.766v-11.7h2.461l.078.781A2.437,2.437,0,0,1,44.3-8.609a2.866,2.866,0,0,1,2.43,1.152,5.16,5.16,0,0,1,.867,3.168Zm-2.633-.164q0-2.25-1.312-2.25a1.239,1.239,0,0,0-1.25.672v3.328a1.279,1.279,0,0,0,1.266.7q1.258,0,1.3-2.172Zm3.461.023a4.989,4.989,0,0,1,.492-2.254,3.52,3.52,0,0,1,1.414-1.52,4.259,4.259,0,0,1,2.164-.531,3.887,3.887,0,0,1,2.992,1.176,4.512,4.512,0,0,1,1.094,3.2v.094A4.378,4.378,0,0,1,55.48-1,3.9,3.9,0,0,1,52.508.156a3.942,3.942,0,0,1-2.9-1.082,4.232,4.232,0,0,1-1.18-2.934Zm2.633.164a3.145,3.145,0,0,0,.367,1.719,1.223,1.223,0,0,0,1.086.547q1.406,0,1.438-2.164V-4.3q0-2.273-1.453-2.273-1.32,0-1.43,1.961ZM62.164-2.375a.608.608,0,0,0-.352-.539,5.348,5.348,0,0,0-1.336-.422,6.092,6.092,0,0,1-1.625-.574,2.722,2.722,0,0,1-.977-.863,2.061,2.061,0,0,1-.336-1.164A2.336,2.336,0,0,1,58.5-7.855a3.958,3.958,0,0,1,2.516-.754,4.386,4.386,0,0,1,2.688.758,2.37,2.37,0,0,1,1.016,1.992H62.078q0-1.016-1.07-1.016a1.061,1.061,0,0,0-.7.23.714.714,0,0,0-.281.574.655.655,0,0,0,.344.57,3.248,3.248,0,0,0,1.1.359A9.485,9.485,0,0,1,62.8-4.8,2.406,2.406,0,0,1,64.7-2.453,2.214,2.214,0,0,1,63.676-.57a4.505,4.505,0,0,1-2.66.727,4.6,4.6,0,0,1-1.937-.391A3.24,3.24,0,0,1,57.75-1.3a2.406,2.406,0,0,1-.477-1.414h2.461a1.017,1.017,0,0,0,.391.855,1.607,1.607,0,0,0,.961.27,1.264,1.264,0,0,0,.809-.219A.7.7,0,0,0,62.164-2.375ZM68.711,0H66.07V-8.453h2.641Zm-2.8-10.641a1.186,1.186,0,0,1,.406-.927,1.527,1.527,0,0,1,1.055-.362,1.527,1.527,0,0,1,1.055.362,1.186,1.186,0,0,1,.406.927,1.186,1.186,0,0,1-.406.927,1.527,1.527,0,0,1-1.055.362,1.527,1.527,0,0,1-1.055-.362A1.186,1.186,0,0,1,65.914-10.641Zm7.484.086v2.1h1.391v1.828H73.4v3.867a.987.987,0,0,0,.172.664.922.922,0,0,0,.68.188,3.862,3.862,0,0,0,.656-.047V-.07a4.859,4.859,0,0,1-1.484.227,2.758,2.758,0,0,1-2.008-.641,2.626,2.626,0,0,1-.648-1.945v-4.2H69.688V-8.453h1.078v-2.1ZM78.6,0H75.961V-8.453H78.6ZM75.8-10.641a1.186,1.186,0,0,1,.406-.927,1.527,1.527,0,0,1,1.055-.362,1.527,1.527,0,0,1,1.055.362,1.186,1.186,0,0,1,.406.927,1.186,1.186,0,0,1-.406.927,1.527,1.527,0,0,1-1.055.362,1.527,1.527,0,0,1-1.055-.362A1.186,1.186,0,0,1,75.8-10.641Zm7.789,7.508,1.336-5.32H87.7L84.945,0H82.258L79.5-8.453h2.781ZM93.133,0a2.973,2.973,0,0,1-.25-.758,2.448,2.448,0,0,1-2.031.914A3,3,0,0,1,88.82-.566a2.3,2.3,0,0,1-.836-1.816A2.364,2.364,0,0,1,89-4.461a5.174,5.174,0,0,1,2.953-.7h.813v-.448q0-1.17-1.008-1.17a.824.824,0,0,0-.937.926H88.188a2.36,2.36,0,0,1,1.043-1.99,4.383,4.383,0,0,1,2.66-.765,3.843,3.843,0,0,1,2.555.789,2.743,2.743,0,0,1,.961,2.164v3.742a3.832,3.832,0,0,0,.359,1.781V0ZM91.484-1.719A1.469,1.469,0,0,0,92.3-1.93a1.322,1.322,0,0,0,.465-.477V-3.758H92q-1.375,0-1.375,1.234a.754.754,0,0,0,.242.582A.876.876,0,0,0,91.484-1.719Zm9.8-.656a.608.608,0,0,0-.352-.539A5.348,5.348,0,0,0,99.6-3.336a6.092,6.092,0,0,1-1.625-.574A2.722,2.722,0,0,1,97-4.773a2.061,2.061,0,0,1-.336-1.164,2.336,2.336,0,0,1,.961-1.918,3.958,3.958,0,0,1,2.516-.754,4.386,4.386,0,0,1,2.688.758,2.37,2.37,0,0,1,1.016,1.992H101.2q0-1.016-1.07-1.016a1.061,1.061,0,0,0-.7.23.714.714,0,0,0-.281.574.655.655,0,0,0,.344.57,3.248,3.248,0,0,0,1.1.359,9.486,9.486,0,0,1,1.324.336,2.406,2.406,0,0,1,1.906,2.352A2.214,2.214,0,0,1,102.8-.57a4.505,4.505,0,0,1-2.66.727A4.6,4.6,0,0,1,98.2-.234,3.24,3.24,0,0,1,96.875-1.3,2.406,2.406,0,0,1,96.4-2.711h2.461a1.017,1.017,0,0,0,.391.855,1.607,1.607,0,0,0,.961.27,1.264,1.264,0,0,0,.809-.219A.7.7,0,0,0,101.289-2.375Z" transform="translate(967.051 5825.8)" fill="#12263f"/>
    <g id="Grupo_1103059" data-name="Grupo 1103059" transform="translate(1106.229 5758.4)">
      <g id="Grupo_1103055" data-name="Grupo 1103055" transform="translate(0 -0.002)" clip-path="url(#clip-path)">
        <path id="Trazado_876229" data-name="Trazado 876229" d="M20.07.234C14.478-1.038,8.768,3,6.985,8.261c-1.032,2.537-.874,5.445-.9,8.111-.131,8.843-.059,18.389-.224,27.173a12.056,12.056,0,0,1-2.6,6.37C2.7,50.595.517,53.253,0,53.881c.491.553,1.647,1.782,2.144,2.347A12.2,12.2,0,0,1,5.449,64.96c.014,6.114.038,12.248.1,18.36l.065,7.73c-.025,2.607,0,5.561,1.134,8.053,2.029,5.124,7.9,8.779,13.32,7.407-4.894-.934-9.22-3.7-11.158-8.308-.969-2.306-.861-4.624-.824-7.152l.065-7.73q.075-7.731.092-15.461c0-.665.008-2.243.009-2.9A15.05,15.05,0,0,0,4.274,54.3l-.463-.514L5.5,51.7c2.79-3.316,3.471-7.788,3.222-11.926-.005-7.539-.093-15.818-.155-23.407,0-1.041-.054-2.879-.008-3.852C8.659,6.191,14.164,1.485,20.07.234" transform="translate(0 0.002)" fill="#12263f"/>
      </g>
    </g>
    <g id="Grupo_1103064" data-name="Grupo 1103064" transform="translate(1106.229 5622.999)">
      <g id="Grupo_1103055-2" data-name="Grupo 1103055" transform="translate(0 -0.002)" clip-path="url(#clip-path)">
        <path id="Trazado_876229-2" data-name="Trazado 876229" d="M20.07.234C14.478-1.038,8.768,3,6.985,8.261c-1.032,2.537-.874,5.445-.9,8.111-.131,8.843-.059,18.389-.224,27.173a12.056,12.056,0,0,1-2.6,6.37C2.7,50.595.517,53.253,0,53.881c.491.553,1.647,1.782,2.144,2.347A12.2,12.2,0,0,1,5.449,64.96c.014,6.114.038,12.248.1,18.36l.065,7.73c-.025,2.607,0,5.561,1.134,8.053,2.029,5.124,7.9,8.779,13.32,7.407-4.894-.934-9.22-3.7-11.158-8.308-.969-2.306-.861-4.624-.824-7.152l.065-7.73q.075-7.731.092-15.461c0-.665.008-2.243.009-2.9A15.05,15.05,0,0,0,4.274,54.3l-.463-.514L5.5,51.7c2.79-3.316,3.471-7.788,3.222-11.926-.005-7.539-.093-15.818-.155-23.407,0-1.041-.054-2.879-.008-3.852C8.659,6.191,14.164,1.485,20.07.234" transform="translate(0 0.002)" fill="#12263f"/>
      </g>
    </g>
    <g id="Grupo_1103057" data-name="Grupo 1103057" transform="translate(897.802 5657.999)">
      <g id="Grupo_1103055-3" data-name="Grupo 1103055" transform="translate(0 -0.002)" clip-path="url(#clip-path-3)">
        <path id="Trazado_876229-3" data-name="Trazado 876229" d="M20.07.383c-5.592-2.071-11.3,4.5-13.085,13.061-1.032,4.128-.874,8.861-.9,13.2-.131,14.39-.059,29.926-.224,44.219a27.414,27.414,0,0,1-2.6,10.366C2.7,82.335.517,86.662,0,87.682c.491.9,1.647,2.9,2.144,3.82a27.952,27.952,0,0,1,3.305,14.21c.014,9.949.038,19.931.1,29.878l.065,12.58c-.025,4.242,0,9.049,1.134,13.1,2.029,8.338,7.9,14.287,13.32,12.053-4.894-1.52-9.22-6.028-11.158-13.52-.969-3.753-.861-7.525-.824-11.639l.065-12.58q.075-12.58.092-25.16c0-1.081.008-3.651.009-4.717.13-6.333-1.323-12.731-3.982-17.355l-.463-.836L5.5,84.141c2.79-5.4,3.471-12.673,3.222-19.408-.005-12.269-.093-25.741-.155-38.091,0-1.694-.054-4.686-.008-6.269.1-10.3,5.606-17.956,11.512-19.991" transform="translate(0 0.002)" fill="#12263f"/>
      </g>
    </g>
    <g id="Grupo_1103658" data-name="Grupo 1103658" transform="translate(-255.333 5199.429)">
      <g id="Grupo_1098742" data-name="Grupo 1098742" transform="translate(1251.333 413)">
        <g id="Rectángulo_400898" data-name="Rectángulo 400898" transform="translate(0)" fill="#fff" stroke="#fff" stroke-width="3" opacity="0.859">
          <rect width="49.644" height="49.644" rx="24.822" stroke="none"/>
          <rect x="1.5" y="1.5" width="46.644" height="46.644" rx="23.322" fill="none"/>
        </g>
        <g id="Rectángulo_400907" data-name="Rectángulo 400907" transform="translate(0)" fill="none" stroke="#fff" stroke-width="3">
          <rect width="49.644" height="49.644" rx="24.822" stroke="none"/>
          <rect x="1.5" y="1.5" width="46.644" height="46.644" rx="23.322" fill="none"/>
        </g>
      </g>
      <g id="Grupo_1103656" data-name="Grupo 1103656" transform="translate(1260.419 421.742)">
        <path id="Trazado_914928" data-name="Trazado 914928" d="M16,1A15,15,0,1,0,31,16,15.017,15.017,0,0,0,16,1Zm0,27.1A12.1,12.1,0,1,1,28.1,16,12.11,12.11,0,0,1,16,28.1Z" fill="#7b8883"/>
        <path id="Trazado_914929" data-name="Trazado 914929" d="M8.258,14.548H23.742v2.9H8.258Z" fill="#7b8883"/>
      </g>
    </g>
    <g id="Grupo_1103083" data-name="Grupo 1103083" transform="translate(-447.333 5275.156)">
      <g id="Grupo_1098742-2" data-name="Grupo 1098742" transform="translate(1251.333 413)">
        <g id="Rectángulo_400898-2" data-name="Rectángulo 400898" transform="translate(0)" fill="#fff" stroke="#fff" stroke-width="3" opacity="0.859">
          <rect width="49.644" height="49.644" rx="24.822" stroke="none"/>
          <rect x="1.5" y="1.5" width="46.644" height="46.644" rx="23.322" fill="none"/>
        </g>
        <g id="Rectángulo_400907-2" data-name="Rectángulo 400907" transform="translate(0)" fill="none" stroke="#fff" stroke-width="3">
          <rect width="49.644" height="49.644" rx="24.822" stroke="none"/>
          <rect x="1.5" y="1.5" width="46.644" height="46.644" rx="23.322" fill="none"/>
        </g>
      </g>
      <g id="Grupo_1103653" data-name="Grupo 1103653" transform="translate(1254.14 419.644)">
        <path id="Trazado_914926" data-name="Trazado 914926" d="M38.221,9.174H36.149a7.479,7.479,0,0,0-1.45-3.28l1.429-1.429a.992.992,0,1,0-1.4-1.4L33.3,4.492A7.479,7.479,0,0,0,30.11,3.065V.992a.992.992,0,1,0-1.984,0V2.954a7.489,7.489,0,0,0-3.67,1.277L22.986,2.76a.992.992,0,0,0-1.4,1.4l1.376,1.376-3.17,3.17L18.4,7.322a.992.992,0,0,0-1.4,1.4l1.385,1.385-3.17,3.17-1.385-1.385a.992.992,0,0,0-1.4,1.4l1.429,1.429a7.484,7.484,0,0,0-1.515,3.668H10.325a.992.992,0,1,0,0,1.984h2.027a7.482,7.482,0,0,0,1.493,3.573l-.22.22a1.116,1.116,0,0,1-1.576,0,3.4,3.4,0,0,0-4.81,4.81l.011.011a1.957,1.957,0,0,1,.022,2.79l-.321.321a.992.992,0,1,0,1.4,1.4l.321-.321a3.941,3.941,0,0,0-.037-5.61,1.418,1.418,0,0,1,2.009-2,3.1,3.1,0,0,0,4.381,0l.22-.22a7.483,7.483,0,0,0,3.629,1.5v2.008a.992.992,0,1,0,1.984,0V26.849a7.486,7.486,0,0,0,3.778-1.64l1.411,1.411a.992.992,0,1,0,1.4-1.4l-1.384-1.384,3.1-3.1,1.384,1.384a.992.992,0,1,0,1.4-1.4l-1.384-1.384,3.1-3.1,1.384,1.384a.992.992,0,0,0,1.4-1.4l-1.48-1.48a7.486,7.486,0,0,0,1.27-3.584h1.985a.992.992,0,0,0,0-1.984Zm-9.74,9.439-.021.019-.019.021-4.457,4.457-.021.019-.019.021L23.8,23.3a5.538,5.538,0,0,1-3.8,1.63.894.894,0,0,0-.268,0A5.538,5.538,0,0,1,15.907,23.3l0,0h0l0,0A5.54,5.54,0,0,1,14.267,19.4s0-.008,0-.013,0-.024,0-.036v0A5.542,5.542,0,0,1,15.9,15.4L24.752,6.55A5.541,5.541,0,0,1,28.7,4.917q.142,0,.283.007a1,1,0,0,0,.14.011h.006a5.534,5.534,0,0,1,3.5,1.6l.013.015.017.015a5.578,5.578,0,0,1-.009,7.879Z" fill="#7b8883"/>
        <path id="Trazado_914927" data-name="Trazado 914927" d="M293.365,118.2a3.214,3.214,0,1,0,0,4.548A3.22,3.22,0,0,0,293.365,118.2Zm-1.4,3.145a1.231,1.231,0,1,1,0-1.742A1.233,1.233,0,0,1,291.962,121.346Z" transform="translate(-263.011 -109.507)" fill="#7b8883"/>
        <circle id="Elipse_11522" data-name="Elipse 11522" cx="0.992" cy="0.992" r="0.992" transform="translate(18.463 20.035)" fill="#7b8883"/>
        <circle id="Elipse_11523" data-name="Elipse 11523" cx="0.992" cy="0.992" r="0.992" transform="translate(17.792 16.327)" fill="#7b8883"/>
      </g>
    </g>
    <g id="Grupo_1103659" data-name="Grupo 1103659" transform="translate(-255.333 5332.527)">
      <g id="Grupo_1098742-3" data-name="Grupo 1098742" transform="translate(1251.333 413)">
        <g id="Rectángulo_400898-3" data-name="Rectángulo 400898" transform="translate(0)" fill="#fff" stroke="#fff" stroke-width="3" opacity="0.859">
          <rect width="49.644" height="49.644" rx="24.822" stroke="none"/>
          <rect x="1.5" y="1.5" width="46.644" height="46.644" rx="23.322" fill="none"/>
        </g>
        <g id="Rectángulo_400907-3" data-name="Rectángulo 400907" transform="translate(0)" fill="none" stroke="#fff" stroke-width="3">
          <rect width="49.644" height="49.644" rx="24.822" stroke="none"/>
          <rect x="1.5" y="1.5" width="46.644" height="46.644" rx="23.322" fill="none"/>
        </g>
      </g>
      <g id="Grupo_1103657" data-name="Grupo 1103657" transform="translate(1260.593 421.818)">
        <path id="Trazado_914930" data-name="Trazado 914930" d="M15.826,30.651A14.826,14.826,0,1,1,30.651,15.826,14.826,14.826,0,0,1,15.826,30.651Zm0-26.956a12.13,12.13,0,1,0,12.13,12.13A12.13,12.13,0,0,0,15.826,3.7Z" transform="translate(0 0)" fill="#7b8883"/>
        <path id="Trazado_914931" data-name="Trazado 914931" d="M20.826,12.739H15.435V7.348a1.348,1.348,0,1,0-2.7,0v5.391H7.348a1.348,1.348,0,1,0,0,2.7h5.391v5.391a1.348,1.348,0,1,0,2.7,0V15.435h5.391a1.348,1.348,0,1,0,0-2.7Z" transform="translate(1.739 1.739)" fill="#7b8883"/>
      </g>
    </g>
    <path id="Trazado_915265" data-name="Trazado 915265" d="M4281.747,1899.406a5.615,5.615,0,1,0-5.616,5.772A5.6,5.6,0,0,0,4281.747,1899.406Zm-2.128-1c-.246.252-.5.5-.747.748-.152.152-.308.3-.462.452a.215.215,0,0,1-.081.082,8.47,8.47,0,0,1-.607.6.036.036,0,0,1-.021.009.15.15,0,0,1-.107.108.038.038,0,0,1-.009.021h0a8.4,8.4,0,0,1-.6.607h0a.167.167,0,0,1-.1.087.035.035,0,0,1-.009.021h0a7.8,7.8,0,0,1-.63.63l-.084.084a9.609,9.609,0,0,1-.69.7c-.161.151-.38.107-.55-.085a1.508,1.508,0,0,1-.236-.236h0l-.478-.479a1.641,1.641,0,0,1-.237-.237h0l-.505-.5a1.315,1.315,0,0,1-.21-.209l-.026-.027h0l-.478-.479-.026-.027c-.279-.236-.279-.453,0-.689l.026-.027a3.09,3.09,0,0,1,.476-.455c.012-.024.034-.021.055-.018a.4.4,0,0,1,.424.134c.089.1.182.189.273.283l1.108,1.1c.139.138.139.139.285.017l.371-.371h0a3.461,3.461,0,0,1,.37-.37l.318-.318.027-.026h0l.4-.4h0l.319-.316a3.9,3.9,0,0,1,.372-.371,3.809,3.809,0,0,1,.37-.37,3.949,3.949,0,0,1,.37-.371c.12-.123.235-.251.36-.367a.353.353,0,0,1,.491.008c.175.167.347.338.514.513A.351.351,0,0,1,4279.619,1898.41Z" transform="translate(-3145.521 3908.575)" fill="#f54749"/>
    <path id="Trazado_915264" data-name="Trazado 915264" d="M4281.747,1899.406a5.615,5.615,0,1,0-5.616,5.772A5.6,5.6,0,0,0,4281.747,1899.406Zm-2.128-1c-.246.252-.5.5-.747.748-.152.152-.308.3-.462.452a.215.215,0,0,1-.081.082,8.47,8.47,0,0,1-.607.6.036.036,0,0,1-.021.009.15.15,0,0,1-.107.108.038.038,0,0,1-.009.021h0a8.4,8.4,0,0,1-.6.607h0a.167.167,0,0,1-.1.087.035.035,0,0,1-.009.021h0a7.8,7.8,0,0,1-.63.63l-.084.084a9.609,9.609,0,0,1-.69.7c-.161.151-.38.107-.55-.085a1.508,1.508,0,0,1-.236-.236h0l-.478-.479a1.641,1.641,0,0,1-.237-.237h0l-.505-.5a1.315,1.315,0,0,1-.21-.209l-.026-.027h0l-.478-.479-.026-.027c-.279-.236-.279-.453,0-.689l.026-.027a3.09,3.09,0,0,1,.476-.455c.012-.024.034-.021.055-.018a.4.4,0,0,1,.424.134c.089.1.182.189.273.283l1.108,1.1c.139.138.139.139.285.017l.371-.371h0a3.461,3.461,0,0,1,.37-.37l.318-.318.027-.026h0l.4-.4h0l.319-.316a3.9,3.9,0,0,1,.372-.371,3.809,3.809,0,0,1,.37-.37,3.949,3.949,0,0,1,.37-.371c.12-.123.235-.251.36-.367a.353.353,0,0,1,.491.008c.175.167.347.338.514.513A.351.351,0,0,1,4279.619,1898.41Z" transform="translate(-3145.521 3883.753)" fill="#f54749"/>
    <g id="Grupo_1103838" data-name="Grupo 1103838" transform="translate(0 153.8)">
      <path id="Trazado_915260" data-name="Trazado 915260" d="M4281.747,1899.406a5.615,5.615,0,1,0-5.616,5.772A5.6,5.6,0,0,0,4281.747,1899.406Zm-2.128-1c-.246.252-.5.5-.747.748-.152.152-.308.3-.462.452a.215.215,0,0,1-.081.082,8.47,8.47,0,0,1-.607.6.036.036,0,0,1-.021.009.15.15,0,0,1-.107.108.038.038,0,0,1-.009.021h0a8.4,8.4,0,0,1-.6.607h0a.167.167,0,0,1-.1.087.035.035,0,0,1-.009.021h0a7.8,7.8,0,0,1-.63.63l-.084.084a9.609,9.609,0,0,1-.69.7c-.161.151-.38.107-.55-.085a1.508,1.508,0,0,1-.236-.236h0l-.478-.479a1.641,1.641,0,0,1-.237-.237h0l-.505-.5a1.315,1.315,0,0,1-.21-.209l-.026-.027h0l-.478-.479-.026-.027c-.279-.236-.279-.453,0-.689l.026-.027a3.09,3.09,0,0,1,.476-.455c.012-.024.034-.021.055-.018a.4.4,0,0,1,.424.134c.089.1.182.189.273.283l1.108,1.1c.139.138.139.139.285.017l.371-.371h0a3.461,3.461,0,0,1,.37-.37l.318-.318.027-.026h0l.4-.4h0l.319-.316a3.9,3.9,0,0,1,.372-.371,3.809,3.809,0,0,1,.37-.37,3.949,3.949,0,0,1,.37-.371c.12-.123.235-.251.36-.367a.353.353,0,0,1,.491.008c.175.167.347.338.514.513A.351.351,0,0,1,4279.619,1898.41Z" transform="translate(-3145.521 3588.491)" fill="#f54749"/>
      <path id="Trazado_915263" data-name="Trazado 915263" d="M4281.747,1899.406a5.615,5.615,0,1,0-5.616,5.772A5.6,5.6,0,0,0,4281.747,1899.406Zm-2.128-1c-.246.252-.5.5-.747.748-.152.152-.308.3-.462.452a.215.215,0,0,1-.081.082,8.47,8.47,0,0,1-.607.6.036.036,0,0,1-.021.009.15.15,0,0,1-.107.108.038.038,0,0,1-.009.021h0a8.4,8.4,0,0,1-.6.607h0a.167.167,0,0,1-.1.087.035.035,0,0,1-.009.021h0a7.8,7.8,0,0,1-.63.63l-.084.084a9.609,9.609,0,0,1-.69.7c-.161.151-.38.107-.55-.085a1.508,1.508,0,0,1-.236-.236h0l-.478-.479a1.641,1.641,0,0,1-.237-.237h0l-.505-.5a1.315,1.315,0,0,1-.21-.209l-.026-.027h0l-.478-.479-.026-.027c-.279-.236-.279-.453,0-.689l.026-.027a3.09,3.09,0,0,1,.476-.455c.012-.024.034-.021.055-.018a.4.4,0,0,1,.424.134c.089.1.182.189.273.283l1.108,1.1c.139.138.139.139.285.017l.371-.371h0a3.461,3.461,0,0,1,.37-.37l.318-.318.027-.026h0l.4-.4h0l.319-.316a3.9,3.9,0,0,1,.372-.371,3.809,3.809,0,0,1,.37-.37,3.949,3.949,0,0,1,.37-.371c.12-.123.235-.251.36-.367a.353.353,0,0,1,.491.008c.175.167.347.338.514.513A.351.351,0,0,1,4279.619,1898.41Z" transform="translate(-3145.521 3638.135)" fill="#f54749"/>
      <path id="Trazado_915261" data-name="Trazado 915261" d="M4281.747,1899.406a5.615,5.615,0,1,0-5.616,5.772A5.6,5.6,0,0,0,4281.747,1899.406Zm-2.128-1c-.246.252-.5.5-.747.748-.152.152-.308.3-.462.452a.215.215,0,0,1-.081.082,8.47,8.47,0,0,1-.607.6.036.036,0,0,1-.021.009.15.15,0,0,1-.107.108.038.038,0,0,1-.009.021h0a8.4,8.4,0,0,1-.6.607h0a.167.167,0,0,1-.1.087.035.035,0,0,1-.009.021h0a7.8,7.8,0,0,1-.63.63l-.084.084a9.609,9.609,0,0,1-.69.7c-.161.151-.38.107-.55-.085a1.508,1.508,0,0,1-.236-.236h0l-.478-.479a1.641,1.641,0,0,1-.237-.237h0l-.505-.5a1.315,1.315,0,0,1-.21-.209l-.026-.027h0l-.478-.479-.026-.027c-.279-.236-.279-.453,0-.689l.026-.027a3.09,3.09,0,0,1,.476-.455c.012-.024.034-.021.055-.018a.4.4,0,0,1,.424.134c.089.1.182.189.273.283l1.108,1.1c.139.138.139.139.285.017l.371-.371h0a3.461,3.461,0,0,1,.37-.37l.318-.318.027-.026h0l.4-.4h0l.319-.316a3.9,3.9,0,0,1,.372-.371,3.809,3.809,0,0,1,.37-.37,3.949,3.949,0,0,1,.37-.371c.12-.123.235-.251.36-.367a.353.353,0,0,1,.491.008c.175.167.347.338.514.513A.351.351,0,0,1,4279.619,1898.41Z" transform="translate(-3145.521 3613.313)" fill="#f54749"/>
      <path id="Trazado_915262" data-name="Trazado 915262" d="M4281.747,1899.406a5.615,5.615,0,1,0-5.616,5.772A5.6,5.6,0,0,0,4281.747,1899.406Zm-2.128-1c-.246.252-.5.5-.747.748-.152.152-.308.3-.462.452a.215.215,0,0,1-.081.082,8.47,8.47,0,0,1-.607.6.036.036,0,0,1-.021.009.15.15,0,0,1-.107.108.038.038,0,0,1-.009.021h0a8.4,8.4,0,0,1-.6.607h0a.167.167,0,0,1-.1.087.035.035,0,0,1-.009.021h0a7.8,7.8,0,0,1-.63.63l-.084.084a9.609,9.609,0,0,1-.69.7c-.161.151-.38.107-.55-.085a1.508,1.508,0,0,1-.236-.236h0l-.478-.479a1.641,1.641,0,0,1-.237-.237h0l-.505-.5a1.315,1.315,0,0,1-.21-.209l-.026-.027h0l-.478-.479-.026-.027c-.279-.236-.279-.453,0-.689l.026-.027a3.09,3.09,0,0,1,.476-.455c.012-.024.034-.021.055-.018a.4.4,0,0,1,.424.134c.089.1.182.189.273.283l1.108,1.1c.139.138.139.139.285.017l.371-.371h0a3.461,3.461,0,0,1,.37-.37l.318-.318.027-.026h0l.4-.4h0l.319-.316a3.9,3.9,0,0,1,.372-.371,3.809,3.809,0,0,1,.37-.37,3.949,3.949,0,0,1,.37-.371c.12-.123.235-.251.36-.367a.353.353,0,0,1,.491.008c.175.167.347.338.514.513A.351.351,0,0,1,4279.619,1898.41Z" transform="translate(-3145.521 3662.957)" fill="#f54749"/>
    </g>
    <path id="Trazado_915266" data-name="Trazado 915266" d="M4281.747,1899.406a5.615,5.615,0,1,0-5.616,5.772A5.6,5.6,0,0,0,4281.747,1899.406Zm-2.128-1c-.246.252-.5.5-.747.748-.152.152-.308.3-.462.452a.215.215,0,0,1-.081.082,8.47,8.47,0,0,1-.607.6.036.036,0,0,1-.021.009.15.15,0,0,1-.107.108.038.038,0,0,1-.009.021h0a8.4,8.4,0,0,1-.6.607h0a.167.167,0,0,1-.1.087.035.035,0,0,1-.009.021h0a7.8,7.8,0,0,1-.63.63l-.084.084a9.609,9.609,0,0,1-.69.7c-.161.151-.38.107-.55-.085a1.508,1.508,0,0,1-.236-.236h0l-.478-.479a1.641,1.641,0,0,1-.237-.237h0l-.505-.5a1.315,1.315,0,0,1-.21-.209l-.026-.027h0l-.478-.479-.026-.027c-.279-.236-.279-.453,0-.689l.026-.027a3.09,3.09,0,0,1,.476-.455c.012-.024.034-.021.055-.018a.4.4,0,0,1,.424.134c.089.1.182.189.273.283l1.108,1.1c.139.138.139.139.285.017l.371-.371h0a3.461,3.461,0,0,1,.37-.37l.318-.318.027-.026h0l.4-.4h0l.319-.316a3.9,3.9,0,0,1,.372-.371,3.809,3.809,0,0,1,.37-.37,3.949,3.949,0,0,1,.37-.371c.12-.123.235-.251.36-.367a.353.353,0,0,1,.491.008c.175.167.347.338.514.513A.351.351,0,0,1,4279.619,1898.41Z" transform="translate(-3145.521 3933.397)" fill="#f54749"/>
  </g>
</svg>
