<svg xmlns="http://www.w3.org/2000/svg" width="124.097" height="118.257" viewBox="0 0 124.097 118.257">
  <g id="Grupo_1102938" data-name="Grupo 1102938" transform="translate(-180 -1090.401)">
    <rect id="Rectángulo_402895" data-name="Rectángulo 402895" width="124.097" height="118.257" transform="translate(180 1090.401)" fill="#ebf8fa"/>
    <g id="Grupo_1103651" data-name="Grupo 1103651" transform="translate(189.05 1097.505)">
      <path id="Trazado_914900" data-name="Trazado 914900" d="M250.257,275.78a1.575,1.575,0,0,0-2.8,1.444l4.114,7.98a1.575,1.575,0,1,0,2.8-1.444Z" transform="translate(-195.339 -217.177)" fill="#1f6f7a"/>
      <path id="Trazado_914901" data-name="Trazado 914901" d="M283.107,251.077l-8.367-3.386a1.575,1.575,0,0,0-1.182,2.921L281.925,254a1.575,1.575,0,1,0,1.182-2.921Z" transform="translate(-215.318 -195.571)" fill="#1f6f7a"/>
      <g id="Grupo_1103649" data-name="Grupo 1103649" transform="translate(81.182 66.855)">
        <path id="Trazado_914902" data-name="Trazado 914902" d="M431.618,321.484a1.575,1.575,0,0,0-1.575,1.575V342.6a1.575,1.575,0,1,0,3.151,0V323.059A1.575,1.575,0,0,0,431.618,321.484Z" transform="translate(-420.892 -320.809)" fill="#1f6f7a"/>
        <path id="Trazado_914903" data-name="Trazado 914903" d="M393.668,318.291a1.575,1.575,0,0,0-1.794,1.321l-1.056,6.958a15.3,15.3,0,0,1-1.733,5.106l-2.409,4.369a1.575,1.575,0,1,0,2.759,1.521l2.409-4.369a18.439,18.439,0,0,0,2.089-6.154l1.056-6.958A1.576,1.576,0,0,0,393.668,318.291Z" transform="translate(-386.479 -318.273)" fill="#1f6f7a"/>
        <path id="Trazado_914904" data-name="Trazado 914904" d="M456.415,336.044l-2.409-4.369a15.292,15.292,0,0,1-1.733-5.106l-1.056-6.958a1.576,1.576,0,0,0-3.115.473l1.056,6.958a18.438,18.438,0,0,0,2.089,6.154l2.409,4.369a1.575,1.575,0,0,0,2.759-1.521Z" transform="translate(-435.143 -318.272)" fill="#1f6f7a"/>
      </g>
      <path id="Trazado_914905" data-name="Trazado 914905" d="M394.368,143.689c0,12.137-7,26.568-15.64,26.568s-15.64-14.43-15.64-26.568,7-17.385,15.64-17.385S394.368,131.552,394.368,143.689Z" transform="translate(-286.82 -99.773)" fill="#f54749"/>
      <path id="Trazado_914906" data-name="Trazado 914906" d="M425.337,126.3a19.384,19.384,0,0,0-3.246.267c7.08,1.2,12.394,6.545,12.394,17.118s-5.314,22.885-12.394,25.883a8.282,8.282,0,0,0,3.246.685c8.638,0,15.64-14.43,15.64-26.568S433.975,126.3,425.337,126.3Z" transform="translate(-333.429 -99.773)" fill="#c4393a"/>
      <path id="Trazado_914907" data-name="Trazado 914907" d="M56.55,31.712,29.964,5.124A17.564,17.564,0,0,0,5.122,29.96L31.708,56.548A17.564,17.564,0,1,0,56.55,31.712Z" fill="#33b9cb"/>
      <path id="Trazado_914908" data-name="Trazado 914908" d="M110.912,31.72,84.326,5.132A17.581,17.581,0,0,0,68.659.309a17.435,17.435,0,0,1,9.175,4.823L104.42,31.72a17.614,17.614,0,0,1,0,24.836,17.435,17.435,0,0,1-9.175,4.823A17.548,17.548,0,0,0,110.912,31.72Z" transform="translate(-54.237 -0.008)" fill="#2994a3"/>
      <circle id="Elipse_11517" data-name="Elipse 11517" cx="7.934" cy="7.934" r="7.934" transform="translate(8.383 12.624)" fill="#feeded"/>
      <path id="Trazado_914909" data-name="Trazado 914909" d="M65.472,60.1a7.9,7.9,0,0,0-3.246.695,7.933,7.933,0,0,1,0,14.478A7.934,7.934,0,1,0,65.472,60.1Z" transform="translate(-49.155 -47.475)" fill="#fddadb"/>
      <circle id="Elipse_11518" data-name="Elipse 11518" cx="6.492" cy="6.492" r="6.492" transform="translate(34.282 31.706)" fill="#feeded"/>
      <path id="Trazado_914910" data-name="Trazado 914910" d="M181.9,150.941a6.46,6.46,0,0,0-3.246.871,6.49,6.49,0,0,1,0,11.243,6.492,6.492,0,1,0,3.246-12.113Z" transform="translate(-141.129 -119.235)" fill="#fddadb"/>
      <circle id="Elipse_11519" data-name="Elipse 11519" cx="7.934" cy="7.934" r="7.934" transform="translate(83.974 35.602)" fill="#fddadb"/>
      <path id="Trazado_914911" data-name="Trazado 914911" d="M425.337,169.489a7.9,7.9,0,0,0-3.246.695,7.933,7.933,0,0,1,0,14.478,7.934,7.934,0,1,0,3.246-15.173Z" transform="translate(-333.429 -133.887)" fill="#fbb5b6"/>
      <g id="Grupo_1103650" data-name="Grupo 1103650" transform="translate(22.727 74.102)">
        <path id="Trazado_914912" data-name="Trazado 914912" d="M181.884,352.774a1.575,1.575,0,0,0-1.575,1.575v3.9a1.575,1.575,0,1,0,3.151,0v-3.9A1.575,1.575,0,0,0,181.884,352.774Z" transform="translate(-165.161 -352.774)" fill="#fbb5b6"/>
        <path id="Trazado_914913" data-name="Trazado 914913" d="M181.884,478.457a1.575,1.575,0,0,0-1.575,1.575v3.9a1.575,1.575,0,1,0,3.151,0v-3.9A1.575,1.575,0,0,0,181.884,478.457Z" transform="translate(-165.161 -452.057)" fill="#fbb5b6"/>
        <path id="Trazado_914914" data-name="Trazado 914914" d="M219.764,379.8a1.57,1.57,0,0,0,1.114-.461l2.754-2.754a1.575,1.575,0,0,0-2.228-2.228l-2.754,2.754a1.575,1.575,0,0,0,1.114,2.689Z" transform="translate(-195.084 -369.459)" fill="#fbb5b6"/>
        <path id="Trazado_914915" data-name="Trazado 914915" d="M132.533,463.228l-2.754,2.754a1.575,1.575,0,1,0,2.228,2.228l2.754-2.754a1.575,1.575,0,0,0-2.228-2.228Z" transform="translate(-124.881 -439.662)" fill="#fbb5b6"/>
        <path id="Trazado_914916" data-name="Trazado 914916" d="M239.348,424.887h-3.9a1.575,1.575,0,0,0,0,3.151h3.9a1.575,1.575,0,1,0,0-3.151Z" transform="translate(-207.478 -409.739)" fill="#fbb5b6"/>
        <path id="Trazado_914917" data-name="Trazado 914917" d="M115.242,426.462a1.575,1.575,0,0,0-1.575-1.575h-3.9a1.575,1.575,0,0,0,0,3.151h3.9A1.575,1.575,0,0,0,115.242,426.462Z" transform="translate(-108.196 -409.739)" fill="#fbb5b6"/>
        <path id="Trazado_914918" data-name="Trazado 914918" d="M220.878,463.228a1.575,1.575,0,0,0-2.228,2.228l2.754,2.754a1.575,1.575,0,1,0,2.228-2.228Z" transform="translate(-195.084 -439.662)" fill="#fbb5b6"/>
        <path id="Trazado_914919" data-name="Trazado 914919" d="M132.008,374.358a1.575,1.575,0,0,0-2.228,2.228l2.754,2.754a1.575,1.575,0,1,0,2.228-2.228Z" transform="translate(-124.881 -369.459)" fill="#fbb5b6"/>
      </g>
      <path id="Trazado_914920" data-name="Trazado 914920" d="M201.341,238.1l-7.371,1.577a1.576,1.576,0,1,0,.659,3.081L202,241.182a1.575,1.575,0,0,0-.659-3.081Z" transform="translate(-152.241 -188.059)" fill="#efefef"/>
      <path id="Trazado_914921" data-name="Trazado 914921" d="M67.425,90.37H64.288a1.575,1.575,0,1,0,0,3.151h3.136a1.575,1.575,0,0,0,0-3.151Z" transform="translate(-49.54 -71.387)" fill="#1f6f7a"/>
      <path id="Trazado_914922" data-name="Trazado 914922" d="M419.9,202.911h3.9a1.575,1.575,0,1,0,0-3.151h-3.9a1.575,1.575,0,1,0,0,3.151Z" transform="translate(-330.451 -157.799)" fill="#ff6167"/>
      <circle id="Elipse_11520" data-name="Elipse 11520" cx="11.252" cy="11.252" r="11.252" transform="translate(28.198 79.572)" fill="#fbb5b6"/>
      <path id="Trazado_914923" data-name="Trazado 914923" d="M175.6,378.818a11.251,11.251,0,0,0-3.246.477,11.254,11.254,0,0,1,0,21.55,11.253,11.253,0,1,0,3.246-22.028Z" transform="translate(-136.152 -299.246)" fill="#fddadb"/>
      <circle id="Elipse_11521" data-name="Elipse 11521" cx="3.462" cy="3.462" r="3.462" transform="translate(34.66 86.035)" fill="#f54749"/>
    </g>
  </g>
</svg>
