<svg xmlns="http://www.w3.org/2000/svg" width="113.063" height="107.742" viewBox="0 0 113.063 107.742">
  <g id="Grupo_1103086" data-name="Grupo 1103086" transform="translate(-180 -1090.401)">
    <rect id="Rectángulo_402895" data-name="Rectángulo 402895" width="113.063" height="107.742" transform="translate(180 1090.401)" fill="#f5f9f7"/>
    <g id="Page-1" transform="translate(197.108 1106.599)">
      <g id="_011---Fish" data-name="011---Fish" transform="translate(0.088 0.75)">
        <path id="Shape" d="M16.953,14.117c.028,0,2.593-11.545,21.51-13.362A1.347,1.347,0,0,1,39.924,2.1V17.257" transform="translate(5.773 -0.75)" fill="#9bc8c2"/>
        <path id="Shape-2" data-name="Shape" d="M57.664,28.282a73.843,73.843,0,0,1-6.037,5.646,54.95,54.95,0,0,1-6.2,4.5A41.733,41.733,0,0,0,41.2,36.1l.256-.539V23.714A1.348,1.348,0,0,0,40,22.366c-13.327,1.28-18.542,7.384-20.469,10.888l.04.135a33.188,33.188,0,0,0-3.733,1.091A25.1,25.1,0,0,0,17.2,26.3,25.771,25.771,0,0,0,12.55,11.6a33.4,33.4,0,0,1,7.007-2.466h.013A31.864,31.864,0,0,1,40.241,11.4c.323.148.633.3.957.445a51.268,51.268,0,0,1,10.874,7.2,73.649,73.649,0,0,1,5.592,5.269,2.955,2.955,0,0,1,0,3.975Z" transform="translate(4.243 1.888)" fill="#2980ba"/>
        <path id="Shape-3" data-name="Shape" d="M21.53,25.461a25.1,25.1,0,0,1-1.361,8.179v.013a29.547,29.547,0,0,0-3.288,1.361,40.922,40.922,0,0,0-4.622,2.56A51.5,51.5,0,0,1,.724,27.267a2.9,2.9,0,0,1,0-3.625A49.073,49.073,0,0,1,16.881,10.76a25.771,25.771,0,0,1,4.649,14.7Z" transform="translate(-0.088 2.728)" fill="#9bc8c2"/>
        <circle id="Oval" cx="1.347" cy="1.347" r="1.347" transform="translate(10.662 21.896)" fill="#35495e"/>
        <path id="Shape-4" data-name="Shape" d="M63.716,37.255H50.241c-3.881,0-6.872-2.682-8.691-4.945a73.842,73.842,0,0,0,6.037-5.646,2.955,2.955,0,0,0,0-3.975,73.649,73.649,0,0,0-5.592-5.269C43.841,15.277,46.657,13,50.241,13H63.716s0,9.432-6.737,12.127C63.716,27.822,63.716,37.255,63.716,37.255Z" transform="translate(14.321 3.506)" fill="#285680"/>
        <path id="Shape-5" data-name="Shape" d="M24.375,28.763a1.419,1.419,0,0,1-.224-.019,1.347,1.347,0,0,1-1.106-1.551c.7-4.21.318-7.351-1.109-9.081a3.76,3.76,0,0,0-2.609-1.418,1.356,1.356,0,0,1-1.321-1.365A1.339,1.339,0,0,1,19.345,14a6.468,6.468,0,0,1,4.61,2.326c2.021,2.377,2.6,6.182,1.752,11.311a1.347,1.347,0,0,1-1.331,1.127Z" transform="translate(6.139 3.854)" fill="#285680"/>
        <path id="Shape-6" data-name="Shape" d="M29.706,26.733h-.088A1.348,1.348,0,0,1,28.36,25.3c.512-7.995-4.414-10.645-4.625-10.752a1.348,1.348,0,0,1,1.213-2.407c.27.135,6.737,3.483,6.1,13.331a1.348,1.348,0,0,1-1.342,1.259Z" transform="translate(7.875 3.16)" fill="#285680"/>
        <path id="Shape-7" data-name="Shape" d="M16.954,32.126c.02,0,2.582-11.556,21.514-13.375A1.348,1.348,0,0,1,39.923,20.1V33.91Z" transform="translate(5.773 5.503)" fill="#81ccb8"/>
        <path id="Shape-8" data-name="Shape" d="M57.664,46.282a73.842,73.842,0,0,1-6.037,5.646C36.1,64.837,22.521,63.705,12.55,58.989A25.761,25.761,0,0,0,17.2,44.3,25.771,25.771,0,0,0,12.55,29.6a29.547,29.547,0,0,1,3.288-1.361v-.013a33.187,33.187,0,0,1,3.733-1.091A31.864,31.864,0,0,1,40.241,29.4c.323.135.633.283.957.445a41.733,41.733,0,0,1,4.231,2.331,53.845,53.845,0,0,1,6.643,4.864,73.65,73.65,0,0,1,5.592,5.269A2.955,2.955,0,0,1,57.664,46.282Z" transform="translate(4.243 8.143)" fill="#3b97d3"/>
        <path id="Shape-9" data-name="Shape" d="M21.53,43.461a25.761,25.761,0,0,1-4.649,14.688A48.926,48.926,0,0,1,.724,45.267a2.9,2.9,0,0,1,0-3.625A51.817,51.817,0,0,1,12.259,31.32a40.92,40.92,0,0,1,4.622-2.56,25.771,25.771,0,0,1,4.649,14.7Z" transform="translate(-0.088 8.983)" fill="#81ccb8"/>
        <circle id="Oval-2" data-name="Oval" cx="1.347" cy="1.347" r="1.347" transform="translate(10.662 46.151)" fill="#35495e"/>
        <g id="Grupo_1103663" data-name="Grupo 1103663" transform="translate(24.146 39.42)">
          <path id="Shape-10" data-name="Shape" d="M63.716,55.255H50.241c-3.881,0-6.872-2.682-8.691-4.945a73.842,73.842,0,0,0,6.037-5.646,2.955,2.955,0,0,0,0-3.975,73.648,73.648,0,0,0-5.592-5.269C43.841,33.277,46.657,31,50.241,31H63.716s0,9.432-6.737,12.127C63.716,45.822,63.716,55.255,63.716,55.255Z" transform="translate(-9.826 -29.658)" fill="#2980ba"/>
          <path id="Shape-11" data-name="Shape" d="M24.735,42.78a1.348,1.348,0,0,1-1.347-1.347c0-6.442-3.638-6.727-4.06-6.737a1.356,1.356,0,0,1-1.321-1.365A1.339,1.339,0,0,1,19.345,32c.067,0,6.737.108,6.737,9.432A1.348,1.348,0,0,1,24.735,42.78Z" transform="translate(-18.007 -29.311)" fill="#2980ba"/>
          <path id="Shape-12" data-name="Shape" d="M29.738,43.473a1.347,1.347,0,0,1-1.347-1.347c0-7.169-4.6-9.551-4.645-9.567a1.348,1.348,0,0,1,1.2-2.412c.251.121,6.135,3.163,6.135,11.979a1.348,1.348,0,0,1-1.347,1.347Z" transform="translate(-16.272 -30.004)" fill="#2980ba"/>
        </g>
      </g>
    </g>
  </g>
</svg>
