<svg xmlns="http://www.w3.org/2000/svg" width="85" height="72.783" viewBox="0 0 85 72.783">
  <g id="Grupo_1103877" data-name="Grupo 1103877" transform="translate(-180 -3350.438)">
    <g id="Grupo_1103876" data-name="Grupo 1103876">
      <rect id="Rectángulo_403002" data-name="Rectángulo 403002" width="85" height="72.783" transform="translate(180 3350.438)" fill="#ebf8fa"/>
      <g id="Grupo_1102996" data-name="Grupo 1102996" transform="translate(200.001 3361.655)">
        <g id="Grupo_1103734" data-name="Grupo 1103734" transform="translate(-8.104 -5.091)">
          <g id="Grupo_1103727" data-name="Grupo 1103727" transform="translate(0 12.207)">
            <path id="Trazado_914977" data-name="Trazado 914977" d="M145.127,111.056a14.977,14.977,0,0,1-.295-2.964c0-8.229,6.113-14.9,15.292-14.9-3.4,0-3.451,5.3,0,5.3h2.235a9.648,9.648,0,0,1,9.18,12.566l-13.18,5.365Z" transform="translate(-127.508 -93.193)" fill="#b55c22"/>
            <path id="Trazado_914978" data-name="Trazado 914978" d="M244.23,93.192a2.439,2.439,0,0,0-2.456,1.843,14.519,14.519,0,0,0-7.6,13.057,14.975,14.975,0,0,0,.295,2.964l10.608,4.3-2.615,1.064-13.233-5.365a14.975,14.975,0,0,1-.295-2.964C228.938,99.863,235.051,93.192,244.23,93.192Z" transform="translate(-211.243 -93.192)" fill="#a84c0f"/>
            <path id="Trazado_914979" data-name="Trazado 914979" d="M108.73,245.315a10.049,10.049,0,0,0,2.034-6.114c0-5.324-4.015-9.639-8.967-9.639H75.3c-4.952,0-8.967,4.316-8.967,9.639a10.049,10.049,0,0,0,2.034,6.114L88.5,249.464Z" transform="translate(-57.646 -214.739)" fill="#a84c0f"/>
            <path id="Trazado_914980" data-name="Trazado 914980" d="M238.482,229.563h5.24a9.641,9.641,0,0,0-7.447,15.753l19.012,3.648-2.626.5-21.625-4.149a9.641,9.641,0,0,1,7.447-15.753Z" transform="translate(-220.161 -214.74)" fill="#8f3c04"/>
            <path id="Trazado_914981" data-name="Trazado 914981" d="M9.148,369.1H52.659a9.4,9.4,0,0,0,9.148-9.636v-.007a9.4,9.4,0,0,0-9.148-9.636H9.148A9.4,9.4,0,0,0,0,359.458v.007A9.4,9.4,0,0,0,9.148,369.1Z" transform="translate(0 -321.822)" fill="#b55c22"/>
            <path id="Trazado_914982" data-name="Trazado 914982" d="M393.075,349.822h5.24a9.636,9.636,0,0,0-9.636,9.636v.007a9.636,9.636,0,0,0,9.636,9.636h-5.24a9.636,9.636,0,0,1-9.636-9.636v-.007A9.636,9.636,0,0,1,393.075,349.822Z" transform="translate(-383.439 -321.822)" fill="#a84c0f"/>
          </g>
          <g id="Grupo_1103728" data-name="Grupo 1103728" transform="translate(46.339 9.215)">
            <path id="Trazado_914983" data-name="Trazado 914983" d="M49.6,98.542c-1.136.35-3.261,3.256-3.261,3.256s3.391,1.208,4.527.859A2.153,2.153,0,0,0,49.6,98.542Z" transform="translate(-42.984 -95.751)" fill="#bac3cc"/>
            <path id="Trazado_914984" data-name="Trazado 914984" d="M85.556,80.656c.35,1.136,3.256,3.261,3.256,3.261s1.208-3.391.859-4.527a2.153,2.153,0,0,0-4.115,1.267Z" transform="translate(-85.46 -77.869)" fill="#bac3cc"/>
          </g>
          <g id="Grupo_1103729" data-name="Grupo 1103729" transform="translate(35.849 0)">
            <path id="Trazado_914985" data-name="Trazado 914985" d="M131.314,1.146c-.556,1.051,0,4.608,0,4.608s3.252-1.543,3.808-2.594a2.153,2.153,0,0,0-3.805-2.014Z" transform="translate(-125.556 0)" fill="#bac3cc"/>
            <path id="Trazado_914986" data-name="Trazado 914986" d="M163.2,17c1.051.556,4.608,0,4.608,0s-1.543-3.252-2.594-3.808A2.153,2.153,0,1,0,163.2,17Z" transform="translate(-162.052 -11.247)" fill="#bac3cc"/>
          </g>
          <g id="Grupo_1103730" data-name="Grupo 1103730" transform="translate(11.285 9.627)">
            <path id="Trazado_914987" data-name="Trazado 914987" d="M383.292,88.578a.982.982,0,0,0,.982-.982,2.654,2.654,0,0,0-.942-2.006c-.308-.308-.368-.389-.368-.618s.06-.31.368-.618a2.607,2.607,0,0,0,0-4.012c-.308-.308-.368-.388-.368-.618s.06-.31.368-.618a2.607,2.607,0,0,0,0-4.012c-.308-.308-.368-.388-.368-.618a.982.982,0,1,0-1.965,0,2.653,2.653,0,0,0,.942,2.006c.308.308.368.388.368.618s-.06.31-.368.618a2.607,2.607,0,0,0,0,4.012c.308.308.368.388.368.618s-.06.31-.368.618a2.607,2.607,0,0,0,0,4.013c.308.308.368.389.368.618a.982.982,0,0,0,.982.982Z" transform="translate(-381 -73.492)" fill="#fcd1b3"/>
          </g>
          <g id="Grupo_1103733" data-name="Grupo 1103733" transform="translate(0.916 22.674)">
            <g id="Grupo_1103731" data-name="Grupo 1103731" transform="translate(0)">
              <path id="Trazado_914988" data-name="Trazado 914988" d="M467.3,210.079a.982.982,0,0,0,.982-.982,2.654,2.654,0,0,0-.942-2.006c-.308-.308-.368-.389-.368-.618s.06-.31.368-.618a2.607,2.607,0,0,0,0-4.012c-.308-.308-.368-.388-.368-.618s.06-.31.368-.618a2.607,2.607,0,0,0,0-4.012c-.308-.308-.368-.388-.368-.618a.982.982,0,1,0-1.965,0,2.653,2.653,0,0,0,.942,2.006c.308.308.368.388.368.618s-.06.31-.368.618a2.607,2.607,0,0,0,0,4.012c.308.308.368.388.368.618s-.06.31-.368.618a2.607,2.607,0,0,0,0,4.013c.308.308.368.389.368.618A.982.982,0,0,0,467.3,210.079Z" transform="translate(-465.012 -194.993)" fill="#fcd1b3"/>
            </g>
            <g id="Grupo_1103732" data-name="Grupo 1103732" transform="translate(56.702)">
              <path id="Trazado_914989" data-name="Trazado 914989" d="M9.28,210.079a.982.982,0,0,0,.982-.982,2.654,2.654,0,0,0-.942-2.006c-.308-.308-.368-.389-.368-.618s.06-.31.368-.618a2.607,2.607,0,0,0,0-4.012c-.308-.308-.368-.388-.368-.618s.06-.31.368-.618a2.607,2.607,0,0,0,0-4.012c-.308-.308-.368-.388-.368-.618a.982.982,0,1,0-1.965,0,2.653,2.653,0,0,0,.942,2.006c.308.308.368.388.368.618s-.06.31-.368.618a2.607,2.607,0,0,0,0,4.012c.308.308.368.388.368.618s-.06.31-.368.618a2.607,2.607,0,0,0,0,4.013c.308.308.368.389.368.618A.982.982,0,0,0,9.28,210.079Z" transform="translate(-6.988 -194.993)" fill="#fcd1b3"/>
            </g>
          </g>
        </g>
      </g>
    </g>
  </g>
</svg>
