<svg xmlns="http://www.w3.org/2000/svg" xmlns:xlink="http://www.w3.org/1999/xlink" width="420" height="318.233" viewBox="0 0 420 318.233">
  <defs>
    <clipPath id="clip-path">
      <rect id="Rectángulo_404448" data-name="Rectángulo 404448" width="313.114" height="308.26" fill="none"/>
    </clipPath>
    <clipPath id="clip-path-4">
      <rect id="Rectángulo_404422" data-name="Rectángulo 404422" width="82.033" height="81.698" fill="#2994a3"/>
    </clipPath>
    <clipPath id="clip-path-5">
      <rect id="Rectángulo_404423" data-name="Rectángulo 404423" width="54.489" height="98.92" fill="none"/>
    </clipPath>
    <clipPath id="clip-path-6">
      <rect id="Rectángulo_404424" data-name="Rectángulo 404424" width="30.171" height="21.412" fill="none"/>
    </clipPath>
    <clipPath id="clip-path-7">
      <rect id="Rectángulo_404425" data-name="Rectángulo 404425" width="29.982" height="20.077" fill="none"/>
    </clipPath>
    <clipPath id="clip-path-9">
      <rect id="Rectángulo_404433" data-name="Rectángulo 404433" width="17.301" height="5.318" fill="none"/>
    </clipPath>
    <clipPath id="clip-path-10">
      <rect id="Rectángulo_404434" data-name="Rectángulo 404434" width="14.074" height="51.018" fill="none"/>
    </clipPath>
    <clipPath id="clip-path-11">
      <rect id="Rectángulo_404435" data-name="Rectángulo 404435" width="11.157" height="43.655" fill="none"/>
    </clipPath>
    <clipPath id="clip-path-12">
      <rect id="Rectángulo_404436" data-name="Rectángulo 404436" width="56.269" height="72.287" fill="#2994a3"/>
    </clipPath>
  </defs>
  <g id="Grupo_1103878" data-name="Grupo 1103878" transform="translate(-180 -4006.984)">
    <rect id="Rectángulo_403004" data-name="Rectángulo 403004" width="420" height="318.233" transform="translate(180 4006.984)" fill="#f6f0ca"/>
    <g id="Grupo_1103001" data-name="Grupo 1103001" transform="translate(-464.835 -4230.248)">
      <g id="Grupo_133605" data-name="Grupo 133605" transform="translate(649.835 8254.821)">
        <g id="Grupo_133604" data-name="Grupo 133604" transform="translate(0 21.536)">
          <path id="Trazado_126504" data-name="Trazado 126504" d="M97.288,294.725S119.969,263.408,179.9,269.4s53.334,33.316,94.825,31.984,86.661-20.656,123.514,17.294c42.753,44.027-30.3,81.472-1.288,108.377,51.988,48.2,0,105.023-116.1,94.236C184.558,512.351,183.7,499.8,127.8,515S21.092,474.073,41.4,430.129s71.908-27.186,47.728-63.071S97.288,294.725,97.288,294.725Z" transform="translate(-36.834 -268.641)" fill="#fcd189"/>
          <path id="Trazado_126505" data-name="Trazado 126505" d="M28.839,50.917a4.836,4.836,0,0,0,2.8-.065,4.118,4.118,0,0,0,1.866-1.983c2.532-4.844.644-10.866-2.317-15.46s-6.963-8.557-9.152-13.564c-1.847-4.23-2.3-8.986-4.311-13.137S11.182-1.063,6.767.288c-9.9,3.026-6.8,23.626-3.98,30.8C6.756,41.189,18.527,48.958,28.839,50.917Z" transform="translate(382.879 107.946) rotate(39)" fill="#fcd189"/>
          <path id="Trazado_126506" data-name="Trazado 126506" d="M28.839,50.917a4.837,4.837,0,0,0,2.8-.065,4.118,4.118,0,0,0,1.866-1.983c2.532-4.844.644-10.866-2.317-15.46s-6.963-8.557-9.152-13.564c-1.847-4.23-2.3-8.986-4.311-13.137S11.182-1.063,6.767.288c-9.9,3.026-6.8,23.626-3.98,30.8C6.756,41.189,18.527,48.958,28.839,50.917Z" transform="matrix(0.988, -0.156, 0.156, 0.988, 7.721, 70.184)" fill="#fcd189"/>
        </g>
        <g id="Grupo_1103589" data-name="Grupo 1103589" transform="translate(52.919 -12.511)">
          <g id="Grupo_1103588" data-name="Grupo 1103588" clip-path="url(#clip-path)">
            <path id="Trazado_914482" data-name="Trazado 914482" d="M78.279,362.326l-39.14.067L0,362.578l39.139.185,39.14.067,78.278.128,78.279-.126,39.138-.067,39.14-.186-39.14-.187-39.138-.066-78.279-.126Z" transform="translate(0 -86.456)" fill="#263238"/>
            <g id="Grupo_1103557" data-name="Grupo 1103557">
              <g id="Grupo_1103556" data-name="Grupo 1103556" clip-path="url(#clip-path)">
                <path id="Trazado_914483" data-name="Trazado 914483" d="M294.626,385.176c0,6.7-58.035,12.13-129.624,12.13s-129.624-5.431-129.624-12.13S93.412,373.046,165,373.046s129.624,5.431,129.624,12.13" transform="translate(-8.445 -89.045)" fill="#ebebeb"/>
              </g>
            </g>
            <g id="Grupo_1103571" data-name="Grupo 1103571">
              <g id="Grupo_1103570" data-name="Grupo 1103570" clip-path="url(#clip-path)">
                <g id="Grupo_1103560" data-name="Grupo 1103560" transform="translate(178.697)" opacity="0.5">
                  <g id="Grupo_1103559" data-name="Grupo 1103559">
                    <g id="Grupo_1103558" data-name="Grupo 1103558" clip-path="url(#clip-path-4)">
                      <path id="Trazado_914484" data-name="Trazado 914484" d="M285.342,80.578s9.924-9,6.514-15.6c-4.755-9.2-24.615-2.1-28.793-17.992-3.157-12,6.894-21.718-.7-31.085-5.1-6.292-27.638-4.556-27.638-4.556C249.24,0,270.337-4.6,282.957,5.861c11.348,9.408,6.219,23.743,11.132,30.886,6.965,10.126,22.949,10.464,22.666,23.8C316.428,76,296.323,79.74,294.933,81.7Z" transform="translate(-234.726 0)" fill="#2994a3"/>
                    </g>
                  </g>
                </g>
                <path id="Trazado_914485" data-name="Trazado 914485" d="M143.16,195.089a63.708,63.708,0,0,0,12.288,6c-6.926-9.4-6.86-31.409-5.934-28.317,4.44,14.784,15.786,30.655,19.874,31.262.027,0,.043.009.07.007a52.159,52.159,0,0,0,28.8-6.869.09.09,0,0,0-.03-.047c-8.87-10.577-9.467-32.923-8.84-31.593,6.782,14.258,19.89,22.13,22.094,22l.014,0c7.889-7.324,11.933-14.443,10.736-15.084-8.7-4.671-16.477-17.453-23.579-31.017l0-.012c-7.018-13.372-11.7-33.589-21.276-45.358-8.766-10.773-25.419-12.064-34.557-5.877-23.978,16.233-5.059,101.537.345,104.909" transform="translate(-31.26 -20.641)" fill="#263238"/>
                <path id="Trazado_914486" data-name="Trazado 914486" d="M143.71,90.044a16.561,16.561,0,0,0-5.286,4.228,35.571,35.571,0,0,0-3.794,5.4,56.322,56.322,0,0,0-4.754,11.944c-2.356,8.195-2.113,24.024-1.95,32.4a130.675,130.675,0,0,0,3.339,24.882c.445,2.048,1.028,4.068,1.536,6.1l1.744,6.05,2.007,5.979,2.2,5.916-1.8-6.025-1.652-6.054-1.523-6.077c-.433-2.04-.942-4.064-1.312-6.113a142.362,142.362,0,0,1-2.983-24.719c-.3-8.289-.5-23.984,1.522-32.122a56.9,56.9,0,0,1,4.281-11.89,34.429,34.429,0,0,1,3.449-5.461,22.218,22.218,0,0,1,2.241-2.43,11.908,11.908,0,0,1,2.727-2" transform="translate(-30.512 -21.493)" fill="#263238"/>
                <path id="Trazado_914487" data-name="Trazado 914487" d="M235.615,171.364a108,108,0,0,1-7.6-8.372c-2.412-2.87-4.7-5.822-6.817-8.864-2.1-3.051-4.134-6.136-5.92-9.335s-3.458-6.489-5.2-9.732c-3.551-6.463-7.973-20.3-11.957-26.572-2.011-3.128-4.085-6.229-6.4-9.2a50.26,50.26,0,0,0-3.755-4.263,14.309,14.309,0,0,0-4.708-3.389,14.919,14.919,0,0,1,4.385,3.631,48.516,48.516,0,0,1,3.431,4.407c2.16,3.019,4.1,6.162,5.975,9.338,3.743,6.353,8.165,20.16,11.6,26.665,1.784,3.23,3.481,6.477,5.339,9.7a90.25,90.25,0,0,0,6.182,9.337,104.838,104.838,0,0,0,15.439,16.646" transform="translate(-43.745 -21.874)" fill="#263238"/>
                <path id="Trazado_914488" data-name="Trazado 914488" d="M167.855,183.5c14.791,14.1,42.242,35.209,53.632,38.488,12.661,3.644,37.844-27.02,54.4-45.771,3.291-3.728-24.066-31.085-27.375-26.923-8.647,10.869-25.982,35.374-29.11,35.539-2.558.136-27-8.675-40.743-13.8-21.872-8.164-21.211,2.547-10.8,12.471" transform="translate(-38.394 -35.533)" fill="#d3766a"/>
                <path id="Trazado_914489" data-name="Trazado 914489" d="M241.87,158.394l27.3,32.546s-31.086,34.769-43.616,34.919-46.716-27.676-57.659-39.261-9.583-20.117,7.02-14.827,42.318,13.973,44.625,13.432,22.332-26.809,22.332-26.809" transform="translate(-38.391 -37.808)" fill="#ebebeb"/>
                <path id="Trazado_914490" data-name="Trazado 914490" d="M283.4,201.016c-9.22-14.563-21.119-28.47-23.021-31.042-.09-.121-.276.037-.178.155,2,2.426,13.871,19.794,23,31.058.106.13.286-.031.2-.171" transform="translate(-62.103 -40.562)" fill="#263238"/>
                <path id="Trazado_914491" data-name="Trazado 914491" d="M236.493,226.243c-4.116,2.744-7.959,4.553-10.94,4.585-12.53.151-46.72-27.676-57.66-39.257-4.68-4.961-7.113-9.353-7.058-12.357,18.1,11.328,60.374,37.56,75.658,47.029" transform="translate(-38.391 -42.778)" fill="#c7c7c7"/>
                <path id="Trazado_914492" data-name="Trazado 914492" d="M292.237,175.218l-24.357-29.39c.353-.843,2.289-2.843,3.992-5.6-.007-.014,3.768-9.815,3.783-19.382.027-8.035-.854-19.969,3.468-20.116,6.3-.232,9.228,14.724,10.384,23.412,3.807-2.866,7.353-4.976,9.869-5.448,8.356-1.566,20.092,34.846,14.455,41.4-5.434,6.322-16.893,14.556-21.593,15.122" transform="translate(-63.943 -24.043)" fill="#d3766a"/>
                <g id="Grupo_1103563" data-name="Grupo 1103563" transform="translate(198.755 79.797)" opacity="0.7">
                  <g id="Grupo_1103562" data-name="Grupo 1103562">
                    <g id="Grupo_1103561" data-name="Grupo 1103561" clip-path="url(#clip-path-5)">
                      <path id="Trazado_914493" data-name="Trazado 914493" d="M315.437,179.746a27.134,27.134,0,1,1-30.971-29.984l4.655-39.992-2.178-.25.494-4.284,18.47,2.154-.494,4.284-2.186-.251-4.664,39.992a27.125,27.125,0,0,1,16.874,28.332" transform="translate(-261.138 -104.917)" fill="#fff"/>
                      <path id="Trazado_914494" data-name="Trazado 914494" d="M315.37,179.646a27.32,27.32,0,0,1-5.7,13.761l-.579.746c-.206.238-.429.461-.642.692-.436.453-.853.926-1.306,1.364a28.969,28.969,0,0,1-2.92,2.392,29.339,29.339,0,0,1-3.2,2.01c-.561.285-1.141.534-1.711.8-.288.129-.569.273-.862.388l-.893.311a26.371,26.371,0,0,1-7.377,1.551l-1.891.072c-.63.009-1.259-.065-1.89-.094a29.54,29.54,0,0,1-3.749-.5,27.34,27.34,0,0,1-13.2-7.041l-.69-.65-.628-.71c-.411-.48-.848-.94-1.237-1.438a28.623,28.623,0,0,1-2.111-3.15,29.57,29.57,0,0,1-1.7-3.392c-.228-.59-.423-1.194-.636-1.79-.1-.3-.217-.6-.3-.9l-.224-.923a27.361,27.361,0,0,1,8.74-27.537,27.8,27.8,0,0,1,13.692-6.284l-.289.3c.764-6.667,1.494-13.337,2.307-20l2.385-19.989.268.339-2.177-.257-.3-.035.035-.3.505-4.282.034-.286.285.034,18.463,2.206.233.028-.027.231-.506,4.282-.026.221-.22-.026-2.185-.257.238-.189L298.6,151.326l-.062-.105a27.2,27.2,0,0,1,16.837,28.425m0,0a27.1,27.1,0,0,0-16.912-28.238l-.072-.028.009-.078,4.55-40,.024-.213.214.024,2.187.244-.246.195.482-4.285.206.26-18.476-2.1.318-.252-.481,4.285-.263-.332,2.179.245.3.033-.034.305-2.271,20c-.74,6.67-1.561,13.33-2.349,19.993l-.03.259-.259.04a27.159,27.159,0,0,0-13.4,6.064,26.849,26.849,0,0,0-8.714,26.978l.215.91c.084.3.2.592.295.888.206.588.394,1.183.615,1.766a29.208,29.208,0,0,0,1.657,3.351,28.236,28.236,0,0,0,2.064,3.12c.381.493.811.949,1.214,1.426l.616.7.678.646a27.034,27.034,0,0,0,13.021,7.036,29.424,29.424,0,0,0,3.714.519c.624.032,1.248.11,1.874.1l1.877-.061a26.21,26.21,0,0,0,7.333-1.5l.889-.3c.292-.113.572-.255.858-.381.568-.264,1.147-.509,1.706-.789a30.089,30.089,0,0,0,6.112-4.347c.453-.433.87-.9,1.308-1.352.214-.229.437-.45.644-.685l.58-.741a27.276,27.276,0,0,0,5.771-13.707" transform="translate(-261.072 -104.817)" fill="#263238"/>
                    </g>
                  </g>
                </g>
                <path id="Trazado_914495" data-name="Trazado 914495" d="M312.124,198.016a22.264,22.264,0,1,1-41.3-13.877,49.212,49.212,0,0,0,13.477,5.175c9.438,2.136,17.006-2.349,25.455-4.172a22.234,22.234,0,0,1,2.364,12.874" transform="translate(-63.91 -43.954)" fill="#2994a3"/>
                <path id="Trazado_914496" data-name="Trazado 914496" d="M267.943,189.734s1.159-15.365,17.342-18.7" transform="translate(-63.958 -40.825)" fill="#fff"/>
                <path id="Trazado_914497" data-name="Trazado 914497" d="M292.442,127.207c-.734,4.356,4.82,2.728,4.82,2.728s-7.43,4.271-6.451,9.055c.958,4.609,7.6,2.4,8.075,2.253-.391.229-7.116,4.333-5.636,9.038,1.542,4.89,7.828,1.533,8.233,1.315-.3.332-4.211,4.8-2.273,8.115,3.331,5.7,13.643-5.436,18.99-5.417,0,0,1,9.066,1.088,9.323,0,0,10.027-10.4,9.649-17.61a4.613,4.613,0,0,0-3.783-4.368s3.6-2.995,2.555-6.737c-.543-1.919-4.1-2.758-4.1-2.758s2.785-2.518,1.645-5.789c-.9-2.613-4.326-3.047-4.326-3.047s1.552-3.659-.236-6.029c-3.6-4.789-26.674.6-28.254,9.927" transform="translate(-69.395 -27.569)" fill="#d3766a"/>
                <path id="Trazado_914498" data-name="Trazado 914498" d="M322.322,125.516a.062.062,0,0,0,0-.124c-8.022-.079-16.861,2.29-23.444,6.96-.216.153-.061.57.209.446a84.228,84.228,0,0,1,23.24-7.282" transform="translate(-71.316 -29.931)" fill="#263238"/>
                <path id="Trazado_914499" data-name="Trazado 914499" d="M326.128,137.215c.091-.013.07-.165-.029-.165-8.266-.038-18.148,2.906-25.1,9.181-.238.216-.237.648.057.421,4.94-3.822,17.493-8.339,25.074-9.436" transform="translate(-71.806 -32.714)" fill="#263238"/>
                <path id="Trazado_914500" data-name="Trazado 914500" d="M304.345,160.323c6.9-5.758,14.953-8.726,23.663-10.585.113-.024.068-.182-.033-.187-4.508-.252-9.936,1.512-14.044,3.241a23.7,23.7,0,0,0-9.787,7.29c-.1.13.054.365.2.241" transform="translate(-72.591 -35.692)" fill="#263238"/>
                <path id="Trazado_914501" data-name="Trazado 914501" d="M296.8,134.4c-.259.184.3.36.042.552-1.065.808-7.055,6.224-5.844,8.839.977,2.092,4.465,2.232,5.825,1.76l3.422-1.186-2.8,2.305a14.839,14.839,0,0,0-3.2,3.581,5.3,5.3,0,0,0-.864,4.247,3.027,3.027,0,0,0,3.012,2.335,9.168,9.168,0,0,0,4.393-1.332l3.737-2.11-2.829,3.2a13.97,13.97,0,0,0-2,2.939,5.736,5.736,0,0,0-.71,3.234,2.728,2.728,0,0,0,1.8,2.244,6.034,6.034,0,0,0,3.361-.308,47.411,47.411,0,0,0,6.738-3.156c1.114-.581,2.231-1.166,3.378-1.7a8.963,8.963,0,0,1,3.62-1.039,9.66,9.66,0,0,0-3.463,1.35c-1.091.611-2.153,1.274-3.22,1.939a40.452,40.452,0,0,1-6.715,3.584,7.049,7.049,0,0,1-4.019.5,3.87,3.87,0,0,1-2.78-3.207,7.018,7.018,0,0,1,.772-4.036,15.289,15.289,0,0,1,2.177-3.306l.908,1.092a10.509,10.509,0,0,1-5.173,1.626,4.389,4.389,0,0,1-2.812-.962,4.953,4.953,0,0,1-1.57-2.479,6.685,6.685,0,0,1,1.092-5.377,16.088,16.088,0,0,1,3.578-3.885l.62,1.118c-1.75.541-5.666.809-7.588-2.246-1.909-4.356,5.662-9.308,7.111-10.115" transform="translate(-69.075 -32.08)" fill="#263238"/>
                <path id="Trazado_914502" data-name="Trazado 914502" d="M297.568,132.43a8.9,8.9,0,0,1-2.706-.169,2.049,2.049,0,0,1-1.561-1.372,4.177,4.177,0,0,1,.26-2.359c.3-.837.663-1.7,1.072-2.579a7.057,7.057,0,0,0-1.95,2.177,4.134,4.134,0,0,0-.569,3.111,2.935,2.935,0,0,0,1.018,1.433,3.061,3.061,0,0,0,1.577.539,4.754,4.754,0,0,0,2.858-.781" transform="translate(-69.701 -30.064)" fill="#263238"/>
                <path id="Trazado_914503" data-name="Trazado 914503" d="M121.529,283.334s1.085,12.227,2.688,29.919v.008c.049.51.1,1.029.146,1.547.785,8.688,1.684,18.583,2.631,28.947h55.57c-3.983-31.141-7.425-57.975-7.717-60.259-.016-.106-.024-.162-.024-.162Z" transform="translate(-29.009 -67.631)" fill="#37474f"/>
                <path id="Trazado_914504" data-name="Trazado 914504" d="M131.761,292.5q.522,6.413,1.077,12.834v.008c.105,1.239.226,2.47.332,3.709v.032c1.076,12.284,2.21,24.567,3.474,36.834h.8c-1.36-12.623-2.623-25.255-3.9-37.895v-.032c-.138-1.369-.276-2.737-.413-4.114v-.024c-.381-3.79-.77-7.563-1.158-11.353-.024-.129-.227-.129-.211,0" transform="translate(-31.451 -69.797)" fill="#263238"/>
                <path id="Trazado_914505" data-name="Trazado 914505" d="M104.49,283.334s2.534,14.34,6.089,34.429v.008c.065.324.122.64.178.979v.008c1.36,7.685,2.866,16.17,4.429,25H153.9l.883-5.822v-.008l.17-1.141.049-.3.639-4.276V332.2l.251-1.6,7.174-47.263Z" transform="translate(-24.942 -67.631)" fill="#263238"/>
                <path id="Trazado_914506" data-name="Trazado 914506" d="M84.931,343.74h52.583c.016-.227.032-.405.04-.55.016-.235.032-.356.032-.356.292-.162.583-.324.883-.478,3.093-1.684,5.806-3,8.04-3.992.381-.171.745-.332,1.1-.494,1.012-.437,1.918-.81,2.671-1.1,1.935-.769,3.012-1.109,3.012-1.109.065-.161.121-.315.178-.477,7.619-19.393,12.211-48.947,12.64-51.7.016-.145.024-.21.024-.21H91.028s-2.859,27.806-6.1,60.469" transform="translate(-20.273 -67.616)" fill="#37474f"/>
                <path id="Trazado_914507" data-name="Trazado 914507" d="M94.6,346.254h.7c1.376-17.409,2.655-34.826,3.992-52.243.024-.283-.421-.283-.437.008q-2.077,26.113-4.251,52.234" transform="translate(-22.581 -70.129)" fill="#263238"/>
                <path id="Trazado_914508" data-name="Trazado 914508" d="M172.451,350.253a116.723,116.723,0,0,0-18.393,8.566.208.208,0,0,0,.171.378c6.2-2.661,12.515-5.207,18.557-8.205a.406.406,0,0,0-.334-.739" transform="translate(-36.746 -83.598)" fill="#263238"/>
                <path id="Trazado_914509" data-name="Trazado 914509" d="M176.878,294.355c-.017-.214-.393-.262-.391-.03a206.464,206.464,0,0,1-1.039,20.7c-.288,3.191-2.856,20.83-8.39,19.544-.926-.215-1.4-1.128-1.545-2.525-.174-1.679.458-3.74.735-5.41.614-3.692,1.108-7.4,1.424-11.126a101.187,101.187,0,0,0-.225-20.866.179.179,0,0,0-.357.021,191.35,191.35,0,0,1-1.685,28.8c-.693,4.587-3,11.494,1.794,12.2,4.888.719,8.049-10.851,8.645-14.016a105.66,105.66,0,0,0,1.033-27.3" transform="translate(-39.204 -70.218)" fill="#263238"/>
                <path id="Trazado_914510" data-name="Trazado 914510" d="M167.576,347.741a29.869,29.869,0,0,0-1.245,3.656,8.314,8.314,0,0,0-.518,3.006c.021.194.279.213.384.081a10.57,10.57,0,0,0,1.286-2.924c.421-1.13.866-2.253,1.255-3.4a.619.619,0,0,0-1.162-.423" transform="translate(-39.575 -82.913)" fill="#263238"/>
                <path id="Trazado_914511" data-name="Trazado 914511" d="M128.213,301.251a9.83,9.83,0,0,0-.236-2.29.117.117,0,0,0-.223.005,9.091,9.091,0,0,0-.259,1.978c-.078.759-.178,1.516-.26,2.276a33.5,33.5,0,0,1-.811,4.607,16.389,16.389,0,0,1-4.225,7.593,22.007,22.007,0,0,1-7.147,4.706c-2.972,1.26-6.1,1.729-9.171,2.631a.117.117,0,0,0,.037.227,26.417,26.417,0,0,0,9.931-1.955,21.223,21.223,0,0,0,7.455-4.756,16.609,16.609,0,0,0,4.346-7.812,23.372,23.372,0,0,0,.6-4.621,21.317,21.317,0,0,0-.032-2.591" transform="translate(-25.255 -71.342)" fill="#263238"/>
                <path id="Trazado_914512" data-name="Trazado 914512" d="M173.476,269.986l-6.354-35.335s6.7-10.233,5.721-22.331c-.71-8.805-19.77-39.6-21.387-41.109-6.5-6.056-17.466-3.64-21.967-.238-24.93,18.841-34.4,59.27-42.835,99.013Z" transform="translate(-20.684 -39.982)" fill="#33b9cb"/>
                <path id="Trazado_914513" data-name="Trazado 914513" d="M161.239,251.366a72.717,72.717,0,0,1,10.775.164c1.778.184,3.536.449,5.3.752.879.151,1.756.273,2.639.39a11.456,11.456,0,0,0,2.786.107.065.065,0,0,1,.017.128,19.541,19.541,0,0,1-2.617.34,18.876,18.876,0,0,1-2.557-.1c-1.806-.17-3.6-.423-5.406-.611-3.639-.379-7.276-.757-10.934-.873-.168-.005-.169-.291,0-.3" transform="translate(-38.457 -59.972)" fill="#263238"/>
                <path id="Trazado_914514" data-name="Trazado 914514" d="M150.361,256.549a78.662,78.662,0,0,1,8.724-1.73c1.471-.2,2.942-.315,4.425-.391.708-.037,1.417-.059,2.125-.075.78-.017,1.563.072,2.342.044.081,0,.1.122.017.127-.734.048-1.463.219-2.193.309s-1.467.177-2.2.268c-1.469.182-2.934.381-4.4.549-2.944.336-5.871.7-8.8,1.14-.159.024-.18-.2-.032-.241" transform="translate(-35.867 -60.713)" fill="#263238"/>
                <path id="Trazado_914515" data-name="Trazado 914515" d="M173.477,174.12l8.612,40,7.767,103.567H207.62s-18.385-83.292-18.319-83.962,8.1-9.49,5.857-21.584-20.133-36.912-21.68-38.017" transform="translate(-41.409 -41.562)" fill="#ebebeb"/>
                <path id="Trazado_914516" data-name="Trazado 914516" d="M175.937,178.346c.824,2.059,1.681,4.1,2.538,6.148s1.705,4.093,2.586,6.127q2.61,6.115,5.314,12.188l.173-.773c-1.923,1.564-5.822,5.167-5.822,5.167l6.911,9.424s-.62,28.627-.836,31.231c.5-2.563,2-31.522,2-31.522L181.947,207l-.173.906q2.83-2.411,5.622-4.866l.379-.334-.206-.439q-2.822-6.019-5.721-12c-.959-2-1.947-3.982-2.932-5.969s-1.965-3.975-2.98-5.947" transform="translate(-41.996 -42.571)" fill="#dbdbdb"/>
                <path id="Trazado_914517" data-name="Trazado 914517" d="M151.649,164.532c.45,1.577,7.615,10.82,14.89,10.125,2.369-.23,2.641-12.471,2.641-12.471l.17-.971,2.355-13.582-16.273-9.366-2.346-1.231s-.4,3.759-.85,8.444c-.022.217-.044.435-.065.668-.032.264-.066.513-.085.761-.077.7-.151,1.413-.211,2.126-.048.543-.1,1.07-.126,1.641-.044.572-.075,1.128-.12,1.7a88.822,88.822,0,0,0,.019,12.154" transform="translate(-36.151 -32.711)" fill="#d3766a"/>
                <path id="Trazado_914518" data-name="Trazado 914518" d="M152.484,145.482A27.652,27.652,0,0,0,169.6,161.216l2.356-13.582-16.273-9.366-2.346-1.23s-.4,3.759-.85,8.444" transform="translate(-36.398 -32.711)" fill="#263238"/>
                <path id="Trazado_914519" data-name="Trazado 914519" d="M187.511,111.555c5.1,23.649-8.487,29.375-13.588,30.47-4.63.993-20.523,3.787-28.041-19.208s1.865-32.843,12.335-35.675,24.193.764,29.294,24.413" transform="translate(-34.173 -20.604)" fill="#d3766a"/>
                <path id="Trazado_914520" data-name="Trazado 914520" d="M193.535,114.14a15.837,15.837,0,0,1-1.667-.109,2.7,2.7,0,0,1-1.679-.436.861.861,0,0,1-.148-1.04,2.133,2.133,0,0,1,2.011-.793,3.134,3.134,0,0,1,2.106.818.918.918,0,0,1-.623,1.559" transform="translate(-45.336 -26.677)" fill="#263238"/>
                <path id="Trazado_914521" data-name="Trazado 914521" d="M173.426,122.053a15.835,15.835,0,0,0,1.569-.574,2.7,2.7,0,0,0,1.489-.89.86.86,0,0,0-.151-1.04,2.132,2.132,0,0,0-2.153-.195,3.136,3.136,0,0,0-1.791,1.377.918.918,0,0,0,1.036,1.322" transform="translate(-41.118 -28.443)" fill="#263238"/>
                <path id="Trazado_914522" data-name="Trazado 914522" d="M178.781,126.829c-.023-.06-.114.1-.1.164.324,1.616.423,3.521-.957,4.307-.043.024-.024.105.028.088,1.752-.553,1.6-3.08,1.03-4.559" transform="translate(-42.416 -30.271)" fill="#263238"/>
                <path id="Trazado_914523" data-name="Trazado 914523" d="M176.309,124.922c-2.646.239-1.973,5.514.478,5.293,2.413-.218,1.74-5.493-.478-5.293" transform="translate(-41.68 -29.817)" fill="#263238"/>
                <path id="Trazado_914524" data-name="Trazado 914524" d="M174.55,125.451c-.423.357-.807.942-1.355,1.067-.635.145-1.191-.345-1.678-.823-.051-.049-.091,0-.083.072.114,1.013.635,2,1.737,2.013,1.006.011,1.6-.974,1.725-2.023.023-.194-.177-.451-.346-.307" transform="translate(-40.921 -29.935)" fill="#263238"/>
                <path id="Trazado_914525" data-name="Trazado 914525" d="M191.064,124.058c.008-.063.134.069.136.136.062,1.647.409,3.523,1.933,3.966.048.014.049.1-.007.093-1.832-.13-2.268-2.625-2.062-4.195" transform="translate(-45.596 -29.608)" fill="#263238"/>
                <path id="Trazado_914526" data-name="Trazado 914526" d="M192.419,121.67c2.63-.383,3.2,4.9.767,5.258-2.4.349-2.971-4.937-.767-5.258" transform="translate(-45.601 -29.038)" fill="#263238"/>
                <path id="Trazado_914527" data-name="Trazado 914527" d="M194.165,121.739c.494.249,1,.728,1.566.722.652-.006,1.078-.612,1.441-1.19.037-.06.088-.019.1.051.126,1.012-.152,2.093-1.221,2.362-.976.245-1.784-.575-2.148-1.566-.068-.183.066-.48.265-.379" transform="translate(-46.279 -28.94)" fill="#263238"/>
                <path id="Trazado_914528" data-name="Trazado 914528" d="M181.429,143.431c.424.352.86.85,1.46.851a4.347,4.347,0,0,0,1.73-.557.058.058,0,0,1,.078.078,2.221,2.221,0,0,1-2.011,1.062,1.756,1.756,0,0,1-1.41-1.347c-.033-.094.091-.139.152-.088" transform="translate(-43.269 -34.232)" fill="#263238"/>
                <path id="Trazado_914529" data-name="Trazado 914529" d="M187.639,129.487s.677,2.39.837,3.539c.014.107-.257.2-.643.275-.018.008-.027.017-.045.008a5.514,5.514,0,0,1-5.591-1.3c-.1-.1.033-.24.148-.183a8.314,8.314,0,0,0,5.189.734c.037-.33-1.3-4.054-1.115-4.094a10.11,10.11,0,0,1,2.693.227c-1.265-5.018-3.325-9.793-4.509-14.81a.158.158,0,0,1,.289-.116c2.513,4.852,4.1,10.6,5.535,15.745.185.64-2.3.107-2.789-.024" transform="translate(-43.482 -27.137)" fill="#263238"/>
                <path id="Trazado_914530" data-name="Trazado 914530" d="M143.6,121.983c4.112.318,5.055-8.3,5.055-8.3s8.355.024,11.11-11.989a18.509,18.509,0,0,1-3.7,9.934s14.73-1.562,20.933-13.89c0,0-2.473,6.279-4.794,8.512,0,0,6.179-1.724,9.191-6.74,0,0,2.579,7.114,4.566,9.08,0,0-.609-25.775-24.487-23.033,0,0-14.951.993-20.32,12.828s2.445,23.6,2.445,23.6" transform="translate(-33.243 -20.373)" fill="#263238"/>
                <path id="Trazado_914531" data-name="Trazado 914531" d="M157.827,122s-14.351,2.744-17.063,5.072c-1.111.954.139,6.163,1.045,6.8.57.4,8.372-3.105,16.756-4.244,0,0-1.543-4.355-.738-7.632" transform="translate(-33.496 -29.121)" fill="#455a64"/>
                <g id="Grupo_1103566" data-name="Grupo 1103566" transform="translate(124.215 83.262)" opacity="0.2">
                  <g id="Grupo_1103565" data-name="Grupo 1103565">
                    <g id="Grupo_1103564" data-name="Grupo 1103564" clip-path="url(#clip-path-6)">
                      <path id="Trazado_914532" data-name="Trazado 914532" d="M192.763,124.886a6.458,6.458,0,0,1-.6.795c-.884.981-2.045,1.443-4.016.943-1.29-.328-2.289-1.586-4.389-1.354a7.092,7.092,0,0,0-3.622,1.323,20.372,20.372,0,0,0-2,1.6c-.161.128-.318.273-.475.418a5.155,5.155,0,0,1-.464.373,6.315,6.315,0,0,1-.782.484c-3.114,1.669-8.274,1.735-10.256.268-1.805-1.341-3.19-5.26-2.977-9.047a11.57,11.57,0,0,1,.369-2.406,9.251,9.251,0,0,1,.891-2.216c.073-.126.143-.245.221-.362a5.668,5.668,0,0,1,.738-.914c1.883-1.941,5.5-3.507,9.442-4.444.4-.091.8-.182,1.208-.263.873-.18,1.762-.325,2.635-.441,1.013-.129,2.024-.219,3-.253,3.458-.136,6.5.354,8.095,1.635a8.313,8.313,0,0,1,2.441,3.648,14.7,14.7,0,0,1,.624,2.071,19.546,19.546,0,0,1,.321,6.846,3.826,3.826,0,0,1-.4,1.3" transform="translate(-163.161 -109.368)" fill="#fff"/>
                    </g>
                  </g>
                </g>
                <g id="Grupo_1103569" data-name="Grupo 1103569" transform="translate(124.236 83.284)" opacity="0.2">
                  <g id="Grupo_1103568" data-name="Grupo 1103568">
                    <g id="Grupo_1103567" data-name="Grupo 1103567" clip-path="url(#clip-path-7)">
                      <path id="Trazado_914533" data-name="Trazado 914533" d="M199.113,128.04a6.462,6.462,0,0,1-.6.795l-8.106-4.063a1.157,1.157,0,0,1-.514-1.553,1.169,1.169,0,0,1,1.326-.6,1.252,1.252,0,0,1,.228.082l8.07,4.046a3.826,3.826,0,0,1-.4,1.3" transform="translate(-169.533 -112.544)" fill="#fff"/>
                      <path id="Trazado_914534" data-name="Trazado 914534" d="M180.14,129.388a20.177,20.177,0,0,0-2,1.6l-14.955-7.5a11.62,11.62,0,0,1,.369-2.406Z" transform="translate(-163.189 -112.185)" fill="#fff"/>
                      <path id="Trazado_914535" data-name="Trazado 914535" d="M175.85,122.4a.782.782,0,0,1-.891.409.614.614,0,0,1-.155-.055l-9.959-4.993c.072-.126.142-.244.22-.362a5.636,5.636,0,0,1,.738-.914l9.7,4.862a.784.784,0,0,1,.344,1.051" transform="translate(-163.584 -111.09)" fill="#fff"/>
                      <path id="Trazado_914536" data-name="Trazado 914536" d="M197.711,116.749l-14.157-7.1c1.013-.129,2.024-.218,3-.253l10.536,5.283a14.837,14.837,0,0,1,.624,2.071" transform="translate(-168.05 -109.397)" fill="#fff"/>
                      <path id="Trazado_914537" data-name="Trazado 914537" d="M193.738,117.776a.389.389,0,0,1-.445.2.3.3,0,0,1-.081-.028l-14.705-7.377c.4-.091.8-.182,1.208-.263l13.851,6.943a.387.387,0,0,1,.172.525" transform="translate(-166.845 -109.614)" fill="#fff"/>
                      <path id="Trazado_914538" data-name="Trazado 914538" d="M178.905,133.859a6.317,6.317,0,0,1-.782.484l-7.592-3.8a.391.391,0,0,1-.171-.525.384.384,0,0,1,.444-.2.366.366,0,0,1,.081.029Z" transform="translate(-164.891 -114.267)" fill="#fff"/>
                    </g>
                  </g>
                </g>
                <path id="Trazado_914539" data-name="Trazado 914539" d="M168.117,131.057a5.7,5.7,0,0,1-2.343-1.151c-2.765-2.386-4.687-9.7-1.573-14.533,2.094-3.248,8.383-5.3,13.132-6.068,4.4-.713,10.014-.748,12.556,1.3,4.2,3.373,4.217,11.7,3.1,14.316-.761,1.784-2.755,2.555-5.08,1.966a7.158,7.158,0,0,1-1.407-.579,5.441,5.441,0,0,0-2.866-.77c-1.951.1-3.031.874-5.861,3.252a11.7,11.7,0,0,1-9.661,2.271m-3.261-15.263c-2.81,4.36-1.147,11.3,1.427,13.522,2.359,2.036,7.907,1.466,10.993-1.127,2.735-2.3,4.041-3.32,6.323-3.434a6.154,6.154,0,0,1,3.25.85,6.594,6.594,0,0,0,1.253.521c1.538.391,3.442.2,4.172-1.516,1.016-2.382.974-10.31-2.873-13.4-1.96-1.575-6.536-2.01-11.943-1.134-6.046.979-10.993,3.225-12.6,5.721" transform="translate(-38.813 -25.985)" fill="#455a64"/>
                <path id="Trazado_914540" data-name="Trazado 914540" d="M148.952,134.014s-6.186-6.829-9.35-4.53,2.151,12.66,6.329,13.64a4.091,4.091,0,0,0,5.162-2.87Z" transform="translate(-33.094 -30.795)" fill="#d3766a"/>
                <path id="Trazado_914541" data-name="Trazado 914541" d="M141.986,133.482a.056.056,0,0,0-.008.11c2.942.78,4.744,3.188,6.116,5.747-.963-.93-2.168-1.354-3.43-.188-.066.061.018.167.094.14a2.517,2.517,0,0,1,2.858.524,12.124,12.124,0,0,1,1.6,2.056c.163.234.6.043.466-.233-.01-.021-.021-.041-.031-.062-.381-3.577-3.786-8.218-7.663-8.093" transform="translate(-33.88 -31.861)" fill="#263238"/>
                <path id="Trazado_914542" data-name="Trazado 914542" d="M149.006,147.343a1.324,1.324,0,1,0,1.324-1.323,1.324,1.324,0,0,0-1.324,1.323" transform="translate(-35.567 -34.855)" fill="#fff"/>
                <path id="Trazado_914543" data-name="Trazado 914543" d="M169.191,171.6l-.65,6.743c-.314,7.387-1.274,10.338-2.869,10.449-5.229.362-13.4-13.282-13.963-16.141s17.482-1.051,17.482-1.051" transform="translate(-36.21 -40.825)" fill="#d3766a"/>
                <path id="Trazado_914544" data-name="Trazado 914544" d="M74.188,316.3h70.621L132.9,168.345s-2.534-.172-8.83,4.188c-6.717,4.652-13.552,14.178-22.783,34.145C79.97,252.785,74.188,316.3,74.188,316.3" transform="translate(-17.709 -40.183)" fill="#ebebeb"/>
                <path id="Trazado_914545" data-name="Trazado 914545" d="M129.732,185.4c-2.37,7.633-22.774,57.626-30.192,66.577-5.639,6.8-23.378,15.559-28.115-2.414-3.156-11.976,33.166-60.309,49.545-74.458,7.522-6.5,13.735-5.721,8.763,10.294" transform="translate(-17.003 -40.885)" fill="#ebebeb"/>
                <path id="Trazado_914546" data-name="Trazado 914546" d="M86.846,270.376A20.555,20.555,0,0,0,95.5,267.97a23.745,23.745,0,0,0,7.009-5.531,31.1,31.1,0,0,0,2.684-3.583c.808-1.262,1.539-2.585,2.26-3.912,1.425-2.667,2.755-5.392,4.046-8.135,2.645-5.459,5.1-11.014,7.579-16.557l7.4-16.659c-1.012,2.869-2.114,5.7-3.193,8.544q-1.671,4.242-3.4,8.462-3.478,8.432-7.357,16.7c-1.328,2.739-2.695,5.462-4.165,8.139-.745,1.334-1.5,2.664-2.343,3.952a25.9,25.9,0,0,1-2.865,3.634,24.254,24.254,0,0,1-7.411,5.443,22.073,22.073,0,0,1-4.353,1.47,16.63,16.63,0,0,1-4.543.438" transform="translate(-20.73 -50.985)" fill="#263238"/>
                <path id="Trazado_914547" data-name="Trazado 914547" d="M135.314,220.848a23.715,23.715,0,0,1,1.779-2.524c.635-.8,1.272-1.577,1.941-2.384a7.947,7.947,0,0,1-1.493,2.737,11,11,0,0,1-2.228,2.172" transform="translate(-32.299 -51.544)" fill="#263238"/>
                <path id="Trazado_914548" data-name="Trazado 914548" d="M147.964,168.346c-1.073,2.454-8.5,24.329-10.489,29.3l-.18.45.392.311q3.992,3.162,8.028,6.266l-.138-1.025-7.461,9.857-.247.326.15.378c2.157,5.46,15.85,30.633,17.057,33.312-.937-2.785-13.572-28.373-15.7-33.842l-.1.7,7.473-9.849.442-.582-.579-.444q-4.044-3.095-8.122-6.144l.212.76c1.907-5,8.388-27.244,9.266-29.774" transform="translate(-32.772 -40.184)" fill="#dbdbdb"/>
                <path id="Trazado_914549" data-name="Trazado 914549" d="M98.317,310.208c-.279,8.9.131,18.982,2.026,20.833,3.55,3.47,13,3.175,15.961,3.152,2.94-.023,13.556-.033,16.038-5.49,1.1-2.407,1.386-14.838,1.357-19.24-.012-1.785-.415-10.576-.547-11.56-.031-.232-.662-.206-.684-.053-.15,1.007-.053,4.655-.106,5.349-17.039,2.19-27.587.359-33.054-.7,0-1.643,0-2.923-.027-4.566a92.691,92.691,0,0,0,16.139,1.529,176.75,176.75,0,0,0,17.7-1.257c.136-.018.035-.672-.169-.669-2.219.03-9.918.784-17.669.784a141.313,141.313,0,0,1-16.573-1.291c-.254.078-.257,8.909-.391,13.176m3.06,19.817c-1.881-2.161-2.112-8.382-2.11-12.094,0-5.124.02-9.216.037-14.339,13.118,3.051,27.556,1.55,33.03.441-.015.219.1,11.027,0,14.47-.127,4.4-.27,8.374-1.957,10.658-1.447,1.96-5.53,3.925-14.919,3.914-6.788-.008-12.507-1.242-14.08-3.05" transform="translate(-23.449 -70.901)" fill="#dbdbdb"/>
                <path id="Trazado_914550" data-name="Trazado 914550" d="M83.1,150.836c2.532-10.061,6.983-23.994,10.962-26.577,4.176-2.713,19.24-11.659,23.411-12.609s19.775,1.272,22.857,3.537c2.468,1.813-.544,7.416-9.183,7.921-8.077.47-10.031.187-12.274.877-2.289.7-8.321,7.2-7.231,10.491.643,1.938,5.774,4.693,9.279,3.55s5.175-4.978,9.331-7.678,10.844-1.581,11.034.279-2.126,2.464-6.246,8.262c-2.65,3.728-3.964,10.558-9.735,16.84-2.9,3.156-8.3,11.812-8.3,11.812Z" transform="translate(-19.837 -26.597)" fill="#d3766a"/>
                <path id="Trazado_914551" data-name="Trazado 914551" d="M97.5,123.446c3.8-4.743,13.118-13.027,21.693-15.285,5.8-1.526,23.921,9.886,22.963,13.485s-4.228,3.253-9.007,2.148c-1.742-.4-10.705-4.771-12.508-2.988-2.593,2.563-6.546,11.86-6.546,11.86Z" transform="translate(-23.274 -25.785)" fill="#d3766a"/>
                <path id="Trazado_914552" data-name="Trazado 914552" d="M151.98,121.134c-1.938-4.176-6.908-6.833-11.9-9.049-.078-.034-.136.084-.059.118,1.271.566,9.277,5.364,11.9,8.986.03.041.083-.014.064-.056" transform="translate(-33.414 -26.753)" fill="#263238"/>
                <path id="Trazado_914553" data-name="Trazado 914553" d="M97.5,123.452c3.8-4.743,13.118-13.027,21.693-15.285,5.8-1.526,19.639,12.057,18.68,15.655s-5.688,3.376-10.683,1c-1.614-.767-6.808-5.343-8.612-3.56-2.592,2.563-8.927,8.938-8.927,8.938Z" transform="translate(-23.274 -25.791)" fill="#d3766a"/>
                <path id="Trazado_914554" data-name="Trazado 914554" d="M118.267,126.1c.61-.747.818-1.009,1.442-1.747s1.253-1.459,1.925-2.145a7.33,7.33,0,0,1,1.913-1.622,3.7,3.7,0,0,1,2.346-.2c1.782.363,3.283,1.685,4.715,2.728,1.6,1.164,4.962,3.139,7.7,3.147a5.362,5.362,0,0,0,2.2-.346,3.367,3.367,0,0,0,1.392-.882c1.392-1.865.172-4.3-1.153-6.075a34.811,34.811,0,0,0-9.445-8.083c-.848-.537-1.71-1.053-2.571-1.569a8.123,8.123,0,0,0-3.183-1.3c-1.881-.219-5.173,1.356-6.195,1.829-.077.037-.118-.088-.043-.124,1.236-.6,4.359-2.629,7.379-2.145a9.6,9.6,0,0,1,3.044,1.409c1.009.572,2,1.178,2.974,1.806a42.986,42.986,0,0,1,5.415,4.056,18.067,18.067,0,0,1,4.247,4.992,5.32,5.32,0,0,1-.261,5.453,4.643,4.643,0,0,1-3.612,1.446,9.02,9.02,0,0,1-2.394-.285,38.169,38.169,0,0,1-5.039-2.091c-1.574-.835-2.936-2.107-4.578-2.8a3.191,3.191,0,0,0-2.473-.108A8.511,8.511,0,0,0,122,122.912a25.976,25.976,0,0,0-3.465,3.3c-.284.334-.523.194-.268-.119" transform="translate(-28.204 -25.658)" fill="#263238"/>
                <path id="Trazado_914555" data-name="Trazado 914555" d="M93.7,125.446c1.457-2.295,4.56-12.071,6.824-14.925s12.233-12.5,16.3-11.587c5.108,1.141-1.3,9.869-4.425,13.412s-3.381,10.112-3.381,10.112Z" transform="translate(-22.366 -23.601)" fill="#d3766a"/>
                <path id="Trazado_914556" data-name="Trazado 914556" d="M121.676,108.745c-1.095,1.11-2.094,2.363-3.073,3.577a30.53,30.53,0,0,0-2.727,3.551,13.468,13.468,0,0,0-1.473,4.148c-.147.713-.247,1.426-.331,2.148-.091.788-.107,1.59-.211,2.374-.011.084.116.11.129.026a33.83,33.83,0,0,1,1.029-4.225,18.429,18.429,0,0,1,1.762-4.127c1.5-2.576,3.537-4.8,5.063-7.359.062-.1-.09-.192-.167-.113" transform="translate(-27.178 -25.95)" fill="#263238"/>
                <path id="Trazado_914557" data-name="Trazado 914557" d="M113.693,131.3a12.632,12.632,0,0,0,.377,3.624,26.574,26.574,0,0,0,1.033,3.494,34.629,34.629,0,0,0,1.406,3.353c.508,1.1,1.157,2.11,1.785,3.175a23.468,23.468,0,0,1,2.956,6.806,21.026,21.026,0,0,1,.4,7.368,26.148,26.148,0,0,0-.942-7.223,27.164,27.164,0,0,0-3.06-6.564,30.767,30.767,0,0,1-1.8-3.246,27.677,27.677,0,0,1-1.326-3.475,16.188,16.188,0,0,1-.828-7.311" transform="translate(-27.101 -31.341)" fill="#263238"/>
                <path id="Trazado_914558" data-name="Trazado 914558" d="M130.388,143.53a6.484,6.484,0,0,0,4.313-2.188c1.051-1.054,2.034-2.176,3.095-3.221a15.4,15.4,0,0,1,3.46-2.78,17.546,17.546,0,0,1,4.736-1.507,9.58,9.58,0,0,1,4.769.007c1.277.391,2.706,1.446,2.27,2.993a5.838,5.838,0,0,1-1.09,1.9,14.993,14.993,0,0,1-1.465,1.588c-1.053,1.014-2.191,1.947-3.147,3.062a22.851,22.851,0,0,0-2.863,5.13c-.313.65-2.28,5.063-3.056,6.572a24,24,0,0,1-2.264,3.663,33.581,33.581,0,0,1-2.768,3.007,20.064,20.064,0,0,0-2.854,3.408c-.037.059-.12,0-.1-.061.929-2.447,2.938-4.286,4.745-6.075,2.348-2.324,6.727-13.193,7.585-14.707,1.429-2.521,3.94-3.991,5.662-6.253.4-.519,1.006-1.271.889-1.979a2.014,2.014,0,0,0-1.42-1.356,8.216,8.216,0,0,0-4.651.123,21,21,0,0,0-4.55,1.443,15.39,15.39,0,0,0-3.441,2.48c-1.182,1.1-2.311,2.228-3.571,3.236a6.475,6.475,0,0,1-4.307,1.638c-.078,0-.06-.119.021-.124" transform="translate(-31.106 -31.874)" fill="#263238"/>
                <path id="Trazado_914559" data-name="Trazado 914559" d="M153.692,114.845c-1.129-.364-2.253-.769-3.389-1.106-.03-.009-.023-.056.008-.048,1.338.32,2.7.549,4.046.856a4.037,4.037,0,0,1,2.76,1.655,2.99,2.99,0,0,1-.174,2.984,8.047,8.047,0,0,1-2.5,2.284.049.049,0,0,1-.058-.078c1.4-1.105,3.52-3.233,1.98-5.084a5.486,5.486,0,0,0-2.672-1.462" transform="translate(-35.873 -27.138)" fill="#263238"/>
                <path id="Trazado_914560" data-name="Trazado 914560" d="M149.95,128.252a6.665,6.665,0,0,0,3.5-1.144,2.57,2.57,0,0,0,1.026-2.13,1.274,1.274,0,0,0-.238-.85c-.061-.056.049-.127.076-.055a3.969,3.969,0,0,0,.263.44,1.876,1.876,0,0,1,.149.405,2.182,2.182,0,0,1,.052.848,2.766,2.766,0,0,1-.851,1.625,4.6,4.6,0,0,1-3.981.962.051.051,0,0,1,0-.1" transform="translate(-35.782 -29.609)" fill="#263238"/>
                <path id="Trazado_914561" data-name="Trazado 914561" d="M114.049,179.566c-1.252,9.826-15.33,61.48-19.864,69.389s-16.264,12.963-21.867.655,5.082-76.544,7.828-86.748c1.529-5.682,34.356,13.15,33.9,16.7" transform="translate(-16.88 -38.622)" fill="#d3766a"/>
                <path id="Trazado_914562" data-name="Trazado 914562" d="M119.233,187.34,76.92,170.328s-8.431,59.7-6.183,77.407c1.613,12.714,17.065,19.492,26.6.622s21.893-61.017,21.893-61.017" transform="translate(-16.794 -40.657)" fill="#ebebeb"/>
                <path id="Trazado_914563" data-name="Trazado 914563" d="M117.021,197.873c-6.372-2.32-32.1-12.767-37.509-15.4-.375-.182-.35-.464.065-.324,19.262,6.492,31.394,12.874,37.527,15.47.153.065.079.314-.083.255" transform="translate(-18.916 -43.47)" fill="#263238"/>
                <path id="Trazado_914564" data-name="Trazado 914564" d="M117.653,231.842c3.007-8.338,5.838-16.736,8.241-25.268q1.008-3.581,1.95-7.18c.6-2.307,1.221-4.621,1.72-6.954-.9-.454-4.827-2.281-5.267-2.587a.161.161,0,0,1,.128-.282c.5.11,5.014,1.924,5.992,2.454.138.075-1.015,4.645-1.526,6.824s-1.046,4.352-1.61,6.517Q125.6,211.8,123.6,218.138q-2.143,6.833-4.633,13.534c-1.431,3.83-5.188,10.9-1.317.17" transform="translate(-27.678 -45.25)" fill="#263238"/>
              </g>
            </g>
            <rect id="Rectángulo_404427" data-name="Rectángulo 404427" width="2.996" height="58.513" transform="translate(166.448 245.243)" fill="#263238"/>
            <rect id="Rectángulo_404428" data-name="Rectángulo 404428" width="63.923" height="4.099" transform="translate(169.444 299.657)" fill="#263238"/>
            <g id="Grupo_1103585" data-name="Grupo 1103585">
              <g id="Grupo_1103584" data-name="Grupo 1103584" clip-path="url(#clip-path)">
                <path id="Trazado_914565" data-name="Trazado 914565" d="M247.58,317.019,247.359,366a5.779,5.779,0,0,1-11.557-.052l.221-48.983Z" transform="translate(-56.286 -75.659)" fill="#ebebeb"/>
                <path id="Trazado_914566" data-name="Trazado 914566" d="M247.056,335.631l-.157,34.78a5.108,5.108,0,1,1-10.216-.046l.157-34.78Z" transform="translate(-56.496 -80.104)" fill="#c7c7c7"/>
                <rect id="Rectángulo_404429" data-name="Rectángulo 404429" width="7.614" height="15.179" transform="matrix(0.005, -1, 1, 0.005, 177.911, 244.597)" fill="#ffc727"/>
                <path id="Trazado_914567" data-name="Trazado 914567" d="M270.97,317.019,270.749,366a5.779,5.779,0,0,1-11.557-.052l.221-48.983Z" transform="translate(-61.869 -75.659)" fill="#ebebeb"/>
                <path id="Trazado_914568" data-name="Trazado 914568" d="M270.446,335.631l-.157,34.78a5.108,5.108,0,1,1-10.216-.046l.157-34.78Z" transform="translate(-62.079 -80.104)" fill="#37474f"/>
                <rect id="Rectángulo_404430" data-name="Rectángulo 404430" width="7.614" height="15.179" transform="translate(195.718 244.597) rotate(-89.741)" fill="#455a64"/>
                <path id="Trazado_914569" data-name="Trazado 914569" d="M286.495,350.841l-.016,5.474H222.572v-5.474h10.381v1.834c0,.9,2.552,1.633,5.695,1.633s5.691-.729,5.691-1.633v-1.834h6.423v1.834c0,.9,2.547,1.633,5.691,1.633s5.69-.729,5.69-1.633v-1.834h6.428v1.834c0,.9,2.547,1.633,5.69,1.633s5.69-.729,5.69-1.633v-1.834Z" transform="translate(-53.128 -83.745)" fill="#455a64"/>
                <rect id="Rectángulo_404431" data-name="Rectángulo 404431" width="63.923" height="2.205" transform="translate(169.444 272.572)" fill="#263238"/>
                <rect id="Rectángulo_404432" data-name="Rectángulo 404432" width="2.996" height="58.513" transform="translate(233.367 245.243)" fill="#263238"/>
                <path id="Trazado_914570" data-name="Trazado 914570" d="M133.365,378.241H77.432s7.453-24.727,11.123-33.375a10.385,10.385,0,0,0,1.88,1.271,8.966,8.966,0,0,0,1.675.685,8.245,8.245,0,0,0,1.1.274.665.665,0,0,0,.122.015,3,3,0,0,0,.365.046c3.152.259,7.727-2.132,12.15-3.761a20.436,20.436,0,0,1,5.953-1.439c3.913-.167,8.093,1.82,10.514,3.213,3.639,8.572,11.054,33.071,11.054,33.071" transform="translate(-18.483 -81.622)" fill="#ffc727"/>
                <path id="Trazado_914571" data-name="Trazado 914571" d="M109.329,343.367c-4.659,1.716-9.484,4.278-12.638,3.7a9.978,9.978,0,0,1-4.652-2.227c-.27-1.515,4.443-3.44,10.35-2.921a43.8,43.8,0,0,1,6.94,1.449" transform="translate(-21.967 -81.595)" fill="#ffc727"/>
                <g id="Grupo_1103574" data-name="Grupo 1103574" transform="translate(70.061 260.237)" opacity="0.2">
                  <g id="Grupo_1103573" data-name="Grupo 1103573">
                    <g id="Grupo_1103572" data-name="Grupo 1103572" clip-path="url(#clip-path-9)">
                      <path id="Trazado_914572" data-name="Trazado 914572" d="M109.329,343.367c-4.659,1.716-9.484,4.278-12.638,3.7a9.978,9.978,0,0,1-4.652-2.227c-.27-1.515,4.443-3.44,10.35-2.921a43.8,43.8,0,0,1,6.94,1.449" transform="translate(-92.028 -341.832)"/>
                    </g>
                  </g>
                </g>
                <g id="Grupo_1103577" data-name="Grupo 1103577" transform="translate(65.848 228.771)" opacity="0.3">
                  <g id="Grupo_1103576" data-name="Grupo 1103576">
                    <g id="Grupo_1103575" data-name="Grupo 1103575" clip-path="url(#clip-path-10)">
                      <path id="Trazado_914573" data-name="Trazado 914573" d="M87.392,351.519a.89.89,0,0,1-.36-.076.9.9,0,0,1-.464-1.185c4.642-10.6,12.059-28.04,12.2-29.68V301.4a.9.9,0,1,1,1.8,0v19.2c0,2.01-9.453,23.763-12.35,30.381a.9.9,0,0,1-.824.539" transform="translate(-86.493 -300.5)" fill="#fff"/>
                    </g>
                  </g>
                </g>
                <g id="Grupo_1103580" data-name="Grupo 1103580" transform="translate(70.62 231.823)" opacity="0.3">
                  <g id="Grupo_1103579" data-name="Grupo 1103579">
                    <g id="Grupo_1103578" data-name="Grupo 1103578" clip-path="url(#clip-path-11)">
                      <path id="Trazado_914574" data-name="Trazado 914574" d="M92.942,348.163a.186.186,0,0,1-.072-.015.179.179,0,0,1-.092-.237c3.729-8.52,10.782-24.988,10.782-26.335V304.688a.18.18,0,1,1,.36,0v16.888c0,1.758-10.37,25.47-10.812,26.479a.18.18,0,0,1-.165.108" transform="translate(-92.762 -304.509)" fill="#fff"/>
                    </g>
                  </g>
                </g>
                <g id="Grupo_1103583" data-name="Grupo 1103583" transform="translate(58.612 224.582)" opacity="0.2">
                  <g id="Grupo_1103582" data-name="Grupo 1103582">
                    <g id="Grupo_1103581" data-name="Grupo 1103581" clip-path="url(#clip-path-12)">
                      <path id="Trazado_914575" data-name="Trazado 914575" d="M133.365,367.142H77.432s7.453-24.727,11.123-33.375l.388-.914c2.984-7.05,5.542-13.254,5.542-14.016V295.45h21.766v23.387c0,.8,2.847,7.689,6.06,15.234,3.639,8.572,11.054,33.071,11.054,33.071" transform="translate(-77.095 -295.106)" fill="#2994a3"/>
                      <path id="Trazado_914576" data-name="Trazado 914576" d="M133.259,367.034l-27.885.162-28.048.088-.337,0,.1-.324q2.7-8.938,5.558-17.823c.963-2.959,1.937-5.915,2.968-8.855s2.124-5.874,3.363-8.723c1.2-2.868,2.4-5.738,3.546-8.623l.838-2.17.388-1.088a4.765,4.765,0,0,0,.267-1.009L94,314.005l.034-18.663V295h.343l21.766.049h.295v.293l-.042,18.669-.011,4.667a4.783,4.783,0,0,0,.275,1.049l.39,1.092.837,2.173c1.147,2.889,2.345,5.76,3.549,8.628a186.647,186.647,0,0,1,6.321,17.574q2.851,8.89,5.5,17.841m0,0q-2.783-8.91-5.735-17.764c-.992-2.949-2-5.892-3.054-8.817s-2.158-5.82-3.418-8.67c-1.218-2.864-2.43-5.73-3.592-8.62l-.85-2.179-.4-1.1a4.832,4.832,0,0,1-.305-1.2l-.011-4.667-.042-18.669.294.294-21.766.049.343-.343.033,18.663-.01,4.666a4.8,4.8,0,0,1-.311,1.242l-.4,1.107-.853,2.18c-1.163,2.891-2.376,5.756-3.59,8.621-1.255,2.852-2.351,5.736-3.389,8.671s-2.027,5.876-3,8.828q-2.917,8.858-5.634,17.786l-.24-.323,27.885.088Z" transform="translate(-76.99 -294.998)" fill="#2994a3"/>
                      <path id="Trazado_914577" data-name="Trazado 914577" d="M100.09,302.179a12.067,12.067,0,0,1,5.219,0,12.067,12.067,0,0,1-5.219,0" transform="translate(-82.504 -296.644)" fill="#2994a3"/>
                      <path id="Trazado_914578" data-name="Trazado 914578" d="M100.09,305.725a2.861,2.861,0,0,1,1.3-.285,2.831,2.831,0,0,1,1.3.285,2.832,2.832,0,0,1-1.3.286,2.861,2.861,0,0,1-1.3-.286" transform="translate(-82.504 -297.49)" fill="#2994a3"/>
                      <path id="Trazado_914579" data-name="Trazado 914579" d="M100.09,308.44a2.862,2.862,0,0,1,1.3-.285,2.832,2.832,0,0,1,1.3.285,2.83,2.83,0,0,1-1.3.286,2.859,2.859,0,0,1-1.3-.286" transform="translate(-82.504 -298.139)" fill="#2994a3"/>
                      <path id="Trazado_914580" data-name="Trazado 914580" d="M100.09,311.157a2.861,2.861,0,0,1,1.3-.286,2.831,2.831,0,0,1,1.3.286,2.832,2.832,0,0,1-1.3.285,2.862,2.862,0,0,1-1.3-.285" transform="translate(-82.504 -298.787)" fill="#2994a3"/>
                      <path id="Trazado_914581" data-name="Trazado 914581" d="M100.09,313.651a12.066,12.066,0,0,1,5.219,0,12.069,12.069,0,0,1-5.219,0" transform="translate(-82.504 -299.382)" fill="#2994a3"/>
                      <path id="Trazado_914582" data-name="Trazado 914582" d="M100.09,317.2a2.862,2.862,0,0,1,1.3-.285,2.831,2.831,0,0,1,1.3.285,2.831,2.831,0,0,1-1.3.286,2.861,2.861,0,0,1-1.3-.286" transform="translate(-82.504 -300.229)" fill="#2994a3"/>
                      <path id="Trazado_914583" data-name="Trazado 914583" d="M100.09,319.913a2.862,2.862,0,0,1,1.3-.285,2.832,2.832,0,0,1,1.3.285,2.831,2.831,0,0,1-1.3.286,2.861,2.861,0,0,1-1.3-.286" transform="translate(-82.504 -300.877)" fill="#2994a3"/>
                      <path id="Trazado_914584" data-name="Trazado 914584" d="M100.09,322.63a2.861,2.861,0,0,1,1.3-.286,2.831,2.831,0,0,1,1.3.286,2.831,2.831,0,0,1-1.3.285,2.861,2.861,0,0,1-1.3-.285" transform="translate(-82.504 -301.525)" fill="#2994a3"/>
                    </g>
                  </g>
                </g>
                <path id="Trazado_914585" data-name="Trazado 914585" d="M25.193,380.788H7.263V356.7a6.453,6.453,0,0,1,6.453-6.452h5.025a6.453,6.453,0,0,1,6.452,6.452Z" transform="translate(-1.734 -83.602)" fill="#dbdbdb"/>
                <rect id="Rectángulo_404437" data-name="Rectángulo 404437" width="9.241" height="5.37" transform="translate(9.874 262.151)" fill="#dbdbdb"/>
                <rect id="Rectángulo_404438" data-name="Rectángulo 404438" width="12.5" height="4.779" transform="translate(8.245 259.647)" fill="#1f6f7a"/>
                <rect id="Rectángulo_404439" data-name="Rectángulo 404439" width="13.228" height="12.089" transform="translate(7.028 277.97)" fill="#fff"/>
                <path id="Trazado_914586" data-name="Trazado 914586" d="M53.57,380.788H35.641V356.7a6.452,6.452,0,0,1,6.452-6.452h5.025A6.452,6.452,0,0,1,53.57,356.7Z" transform="translate(-8.507 -83.602)" fill="#dbdbdb"/>
                <rect id="Rectángulo_404440" data-name="Rectángulo 404440" width="9.241" height="5.37" transform="translate(31.478 262.151)" fill="#dbdbdb"/>
                <rect id="Rectángulo_404441" data-name="Rectángulo 404441" width="12.5" height="4.779" transform="translate(29.848 259.647)" fill="#455a64"/>
                <rect id="Rectángulo_404442" data-name="Rectángulo 404442" width="13.228" height="12.089" transform="translate(28.631 277.97)" fill="#fff"/>
              </g>
            </g>
            <g id="Grupo_1103587" data-name="Grupo 1103587">
              <g id="Grupo_1103586" data-name="Grupo 1103586" clip-path="url(#clip-path)">
                <path id="Trazado_914587" data-name="Trazado 914587" d="M388.088,353.294h-6.757s-1.613-24.863-16.659-26.107c-7.962-.658-15.3,5.01-21.017,11.382,5.659-6.423,15.69-14.714,25.254-14.714,14.408,0,19.179,29.438,19.179,29.438" transform="translate(-82.03 -77.304)" fill="#263238"/>
                <path id="Trazado_914588" data-name="Trazado 914588" d="M343.456,254.758l10.359-21.119,3.507,4.744-8.886,16.376Z" transform="translate(-81.983 -55.769)" fill="#263238"/>
                <rect id="Rectángulo_404444" data-name="Rectángulo 404444" width="25.33" height="6.078" transform="translate(264.243 201.668) rotate(-62.186)" fill="#455a64"/>
                <path id="Trazado_914589" data-name="Trazado 914589" d="M354.155,261.6l3.222-.874,9.729-18.019-1.132-3.51Z" transform="translate(-84.536 -57.096)" fill="#37474f"/>
                <path id="Trazado_914590" data-name="Trazado 914590" d="M311.074,279.026l-.316-.14a2.015,2.015,0,0,1-1.025-2.658l4.871-10.979a2.015,2.015,0,0,1,2.658-1.024l.316.14a2.015,2.015,0,0,1,1.025,2.658L313.733,278a2.014,2.014,0,0,1-2.658,1.025" transform="translate(-73.892 -63.028)" fill="#37474f"/>
                <path id="Trazado_914591" data-name="Trazado 914591" d="M327.257,288.744l-.316-.14a2.015,2.015,0,0,1-1.025-2.658l4.871-10.98a2.015,2.015,0,0,1,2.658-1.024l.316.14a2.015,2.015,0,0,1,1.025,2.658l-4.871,10.979a2.014,2.014,0,0,1-2.658,1.025" transform="translate(-77.754 -65.348)" fill="#37474f"/>
                <path id="Trazado_914592" data-name="Trazado 914592" d="M315.856,289.526l-.558-.247a2.733,2.733,0,0,1-1.39-3.606l6.161-13.887a2.732,2.732,0,0,1,3.606-1.39l.559.248a2.732,2.732,0,0,1,1.389,3.605l-6.161,13.888a2.732,2.732,0,0,1-3.605,1.389" transform="translate(-74.873 -64.487)" fill="#37474f"/>
                <path id="Trazado_914593" data-name="Trazado 914593" d="M346.742,208.787l-.559-.247a2.733,2.733,0,0,1-1.389-3.606l6.161-13.887a2.733,2.733,0,0,1,3.605-1.39l.559.248a2.732,2.732,0,0,1,1.389,3.606L350.348,207.4a2.732,2.732,0,0,1-3.606,1.389" transform="translate(-82.246 -45.215)" fill="#37474f"/>
                <path id="Trazado_914594" data-name="Trazado 914594" d="M358.68,214.083l-.558-.247a2.733,2.733,0,0,1-1.39-3.606l6.161-13.887a2.733,2.733,0,0,1,3.606-1.39l.559.248a2.732,2.732,0,0,1,1.389,3.606l-6.16,13.888a2.733,2.733,0,0,1-3.606,1.389" transform="translate(-85.095 -46.479)" fill="#37474f"/>
                <path id="Trazado_914595" data-name="Trazado 914595" d="M316.3,250.663l21.751-45.287s6.209.212,16.964,7.669l-23.1,45.179a43.331,43.331,0,0,1-15.611-7.56" transform="translate(-75.501 -49.023)" fill="#37474f"/>
                <path id="Trazado_914596" data-name="Trazado 914596" d="M334.3,274.864s-20.5-6.046-26.128-11.591l1.794-4.042a55.19,55.19,0,0,1,26.127,11.591Z" transform="translate(-73.559 -61.878)" fill="#455a64"/>
                <path id="Trazado_914597" data-name="Trazado 914597" d="M362.187,213.066a45.937,45.937,0,0,0-19.127-8.995l1.882-4c11.637-.2,19.127,8.995,19.127,8.995Z" transform="translate(-81.888 -47.756)" fill="#455a64"/>
                <path id="Trazado_914598" data-name="Trazado 914598" d="M342.945,248.539s-8.965-5.931-16.692-7.849a.834.834,0,0,1-.424-1.176l2.107-4.481a.957.957,0,0,1,1.176-.423,45.96,45.96,0,0,1,16.692,7.849.883.883,0,0,1,.424,1.176l-2.107,4.481a.883.883,0,0,1-1.176.423" transform="translate(-77.754 -55.99)" fill="#455a64"/>
                <path id="Trazado_914599" data-name="Trazado 914599" d="M367.321,245.445l1.621-.723s22.62,10.03,21.447,37c-.777,17.868-13.81,30.218-13.81,30.218s15.853-20.452,9.926-39.385-19.183-27.111-19.183-27.111" transform="translate(-87.679 -58.415)" fill="#455a64"/>
                <path id="Trazado_914600" data-name="Trazado 914600" d="M380.336,283.811c-1.3,16.477-11.984,28.358-11.984,28.358h-16.22c-7.435-9.784-19.269-15.5-19.269-15.5l12.963,2.27,1.156-.592,2.279-1.166s3.286,5.025,8.227,4.913a7.677,7.677,0,0,0,2.927-.658c5.775-2.493,8.689-17.819,5.99-26.974s-14.524-14.808-14.524-14.808l7.216-13.979c12.906,5.79,22.536,21.665,21.24,38.137" transform="translate(-79.454 -58.642)" fill="#37474f"/>
                <path id="Trazado_914601" data-name="Trazado 914601" d="M361.919,318.246s-4.247,1.44-10.511-3.752l2.279-1.165s3.286,5.025,8.227,4.913Z" transform="translate(-83.881 -74.791)" fill="#455a64"/>
                <path id="Trazado_914602" data-name="Trazado 914602" d="M377.976,354.322H329.6c1.207-1.888,3.3-5.286,6.074-9.024,0,0,.061-.084.177-.243.075-.1.149-.2.219-.293.042-.056.089-.122.14-.187l.419-.546a1.807,1.807,0,0,1,.116-.154c.149-.191.3-.387.452-.578.242-.312.512-.648.811-1.011.206-.257.415-.509.63-.764.331-.4.685-.816,1.063-1.249.191-.224.387-.448.6-.676,5.714-6.372,13.056-12.04,21.016-11.382,15.046,1.244,16.659,26.107,16.659,26.107" transform="translate(-78.676 -78.332)" fill="#455a64"/>
                <rect id="Rectángulo_404445" data-name="Rectángulo 404445" width="6.042" height="47.716" transform="matrix(0.083, -0.997, 0.997, 0.083, 216.744, 236.573)" fill="#263238"/>
                <rect id="Rectángulo_404446" data-name="Rectángulo 404446" width="6.042" height="10.578" transform="translate(264.295 240.544) rotate(-85.224)" fill="#37474f"/>
                <path id="Trazado_914603" data-name="Trazado 914603" d="M341.113,356.779a1.637,1.637,0,1,1-1.638-1.637,1.637,1.637,0,0,1,1.638,1.637" transform="translate(-80.642 -84.772)" fill="#263238"/>
                <path id="Trazado_914604" data-name="Trazado 914604" d="M385.774,356.779a1.637,1.637,0,1,1-1.638-1.637,1.637,1.637,0,0,1,1.638,1.637" transform="translate(-91.302 -84.772)" fill="#263238"/>
                <path id="Trazado_914605" data-name="Trazado 914605" d="M368.061,334.655a1.637,1.637,0,1,1-1.637-1.637,1.637,1.637,0,0,1,1.637,1.637" transform="translate(-87.074 -79.491)" fill="#263238"/>
                <path id="Trazado_914606" data-name="Trazado 914606" d="M351.536,219.26a1.637,1.637,0,1,1-1.637-1.637,1.637,1.637,0,0,1,1.637,1.637" transform="translate(-83.13 -51.946)" fill="#263238"/>
                <path id="Trazado_914607" data-name="Trazado 914607" d="M332.92,258.718a1.637,1.637,0,1,1-1.637-1.637,1.637,1.637,0,0,1,1.637,1.637" transform="translate(-78.686 -61.365)" fill="#263238"/>
                <path id="Trazado_914608" data-name="Trazado 914608" d="M372.291,259.474a1.638,1.638,0,1,1-1.638-1.637,1.637,1.637,0,0,1,1.638,1.637" transform="translate(-88.084 -61.545)" fill="#263238"/>
                <path id="Trazado_914609" data-name="Trazado 914609" d="M356.207,321.619a1.637,1.637,0,1,1-1.637-1.637,1.637,1.637,0,0,1,1.637,1.637" transform="translate(-84.245 -76.379)" fill="#263238"/>
              </g>
            </g>
          </g>
        </g>
      </g>
    </g>
  </g>
</svg>
