<svg xmlns="http://www.w3.org/2000/svg" width="113.063" height="107.742" viewBox="0 0 113.063 107.742">
  <g id="Grupo_1102967" data-name="Grupo 1102967" transform="translate(-180 -1090.401)">
    <rect id="Rectángulo_402895" data-name="Rectángulo 402895" width="113.063" height="107.742" transform="translate(180 1090.401)" fill="#f5f9f7"/>
    <g id="Grupo_1103721" data-name="Grupo 1103721" transform="translate(173.051 1032.351)">
      <g id="Grupo_1103688" data-name="Grupo 1103688" transform="translate(60.765 79.196)">
        <g id="Grupo_1103667" data-name="Grupo 1103667" transform="translate(0 0)">
          <g id="Grupo_1103666" data-name="Grupo 1103666">
            <g id="Grupo_1103665" data-name="Grupo 1103665">
              <g id="Grupo_1103664" data-name="Grupo 1103664">
                <path id="Trazado_914934" data-name="Trazado 914934" d="M279.889,150.2l-14.309,8.943L251.271,150.2A23.981,23.981,0,0,1,240,129.867V104.789a1.6,1.6,0,0,1,1.6-1.6,9.592,9.592,0,0,0,9.593-9.593,1.6,1.6,0,0,1,1.6-1.6h25.58a1.6,1.6,0,0,1,1.6,1.6,9.592,9.592,0,0,0,9.593,9.593,1.6,1.6,0,0,1,1.6,1.6v25.078A23.981,23.981,0,0,1,279.889,150.2Z" transform="translate(-240 -91.999)" fill="#f54749"/>
              </g>
            </g>
          </g>
        </g>
        <g id="Grupo_1103671" data-name="Grupo 1103671" transform="translate(25.58 0)">
          <g id="Grupo_1103670" data-name="Grupo 1103670">
            <g id="Grupo_1103669" data-name="Grupo 1103669">
              <g id="Grupo_1103668" data-name="Grupo 1103668">
                <path id="Trazado_914935" data-name="Trazado 914935" d="M391.981,103.19a9.592,9.592,0,0,1-9.593-9.593,1.6,1.6,0,0,0-1.6-1.6H368v67.148l14.309-8.943a23.981,23.981,0,0,0,11.271-20.336V104.789A1.6,1.6,0,0,0,391.981,103.19Z" transform="translate(-368 -91.999)" fill="#f54749"/>
              </g>
            </g>
          </g>
        </g>
        <g id="Grupo_1103675" data-name="Grupo 1103675" transform="translate(6.395 6.395)">
          <g id="Grupo_1103674" data-name="Grupo 1103674">
            <g id="Grupo_1103673" data-name="Grupo 1103673">
              <g id="Grupo_1103672" data-name="Grupo 1103672">
                <path id="Trazado_914936" data-name="Trazado 914936" d="M280.266,170.386A17.486,17.486,0,0,1,272,155.473V134.455A16.058,16.058,0,0,0,282.456,124h17.457a16.058,16.058,0,0,0,10.456,10.456v21.017a17.486,17.486,0,0,1-8.266,14.913l-10.919,6.825Z" transform="translate(-272 -123.999)" fill="#555a6e"/>
              </g>
            </g>
          </g>
        </g>
        <g id="Grupo_1103679" data-name="Grupo 1103679" transform="translate(6.395 6.395)">
          <g id="Grupo_1103678" data-name="Grupo 1103678">
            <g id="Grupo_1103677" data-name="Grupo 1103677">
              <g id="Grupo_1103676" data-name="Grupo 1103676">
                <path id="Trazado_914937" data-name="Trazado 914937" d="M299.914,124H282.456A16.058,16.058,0,0,1,272,134.455v3.2A16.058,16.058,0,0,0,282.456,127.2h8.729V177.21l10.919-6.825a17.486,17.486,0,0,0,8.266-14.913V134.455A16.058,16.058,0,0,1,299.914,124Z" transform="translate(-272 -123.999)" fill="#463c4b"/>
              </g>
            </g>
          </g>
        </g>
        <g id="Grupo_1103683" data-name="Grupo 1103683" transform="translate(11.191 17.586)">
          <g id="Grupo_1103682" data-name="Grupo 1103682">
            <g id="Grupo_1103681" data-name="Grupo 1103681">
              <g id="Grupo_1103680" data-name="Grupo 1103680">
                <circle id="Elipse_11524" data-name="Elipse 11524" cx="14.5" cy="14.5" r="14.5" transform="translate(0.043 0.216)" fill="#23aae6"/>
              </g>
            </g>
          </g>
        </g>
        <g id="Grupo_1103687" data-name="Grupo 1103687" transform="translate(15.988 22.383)">
          <g id="Grupo_1103686" data-name="Grupo 1103686">
            <g id="Grupo_1103685" data-name="Grupo 1103685">
              <g id="Grupo_1103684" data-name="Grupo 1103684">
                <circle id="Elipse_11525" data-name="Elipse 11525" cx="9.5" cy="9.5" r="9.5" transform="translate(0.247 0.42)" fill="#fff"/>
              </g>
            </g>
          </g>
        </g>
      </g>
      <g id="Grupo_1103693" data-name="Grupo 1103693" transform="translate(16 75.999)">
        <path id="Trazado_914938" data-name="Trazado 914938" d="M45.577,89.588a2.4,2.4,0,0,0-2.259,1.6H39.941a7.958,7.958,0,0,0-1.765-4.259l2.388-2.388a2.4,2.4,0,1,0-1.131-1.13L37.046,85.8a7.957,7.957,0,0,0-4.259-1.765V80.656a2.4,2.4,0,1,0-1.6,0v3.377A7.955,7.955,0,0,0,26.929,85.8l-2.388-2.388a2.4,2.4,0,1,0-1.131,1.13L25.8,86.928a7.955,7.955,0,0,0-1.765,4.259H20.657a2.4,2.4,0,1,0,0,1.6h3.377A7.956,7.956,0,0,0,25.8,97.045l-2.388,2.388a2.4,2.4,0,1,0,1.131,1.131l2.388-2.388a7.956,7.956,0,0,0,4.259,1.765v3.377a2.4,2.4,0,1,0,1.6,0V99.94a7.957,7.957,0,0,0,4.259-1.765l2.388,2.388a2.4,2.4,0,1,0,1.131-1.131l-2.388-2.388a7.956,7.956,0,0,0,1.765-4.259h3.377a2.4,2.4,0,1,0,2.258-3.2Z" transform="translate(-16 -75.999)" fill="#23aae6"/>
        <g id="Grupo_1103692" data-name="Grupo 1103692" transform="translate(10.659 10.126)">
          <g id="Grupo_1103691" data-name="Grupo 1103691">
            <g id="Grupo_1103690" data-name="Grupo 1103690">
              <g id="Grupo_1103689" data-name="Grupo 1103689">
                <circle id="Elipse_11526" data-name="Elipse 11526" cx="2.665" cy="2.665" r="2.665" fill="#5ad7ff"/>
              </g>
            </g>
          </g>
        </g>
      </g>
      <g id="Grupo_1103698" data-name="Grupo 1103698" transform="translate(16 111.171)">
        <path id="Trazado_914939" data-name="Trazado 914939" d="M45.577,265.588a2.4,2.4,0,0,0-2.259,1.6H39.941a7.958,7.958,0,0,0-1.765-4.259l2.388-2.388a2.4,2.4,0,1,0-1.131-1.13L37.046,261.8a7.957,7.957,0,0,0-4.259-1.765v-3.377a2.4,2.4,0,1,0-1.6,0v3.377a7.955,7.955,0,0,0-4.259,1.765l-2.388-2.388a2.4,2.4,0,1,0-1.131,1.13l2.388,2.388a7.955,7.955,0,0,0-1.765,4.259H20.657a2.4,2.4,0,1,0,0,1.6h3.377a7.956,7.956,0,0,0,1.765,4.259l-2.388,2.388a2.4,2.4,0,1,0,1.131,1.131l2.388-2.388a7.956,7.956,0,0,0,4.259,1.765v3.377a2.4,2.4,0,1,0,1.6,0v-3.377a7.958,7.958,0,0,0,4.259-1.765l2.388,2.388a2.4,2.4,0,1,0,1.131-1.131l-2.388-2.388a7.956,7.956,0,0,0,1.765-4.259h3.377a2.4,2.4,0,1,0,2.258-3.2Z" transform="translate(-16 -251.998)" fill="#23aae6"/>
        <g id="Grupo_1103697" data-name="Grupo 1103697" transform="translate(10.659 10.126)">
          <g id="Grupo_1103696" data-name="Grupo 1103696">
            <g id="Grupo_1103695" data-name="Grupo 1103695">
              <g id="Grupo_1103694" data-name="Grupo 1103694">
                <circle id="Elipse_11527" data-name="Elipse 11527" cx="2.665" cy="2.665" r="2.665" fill="#5ad7ff"/>
              </g>
            </g>
          </g>
        </g>
      </g>
      <g id="Grupo_1103702" data-name="Grupo 1103702" transform="translate(77.3 102.116)">
        <g id="Grupo_1103701" data-name="Grupo 1103701" transform="translate(0 0)">
          <g id="Grupo_1103700" data-name="Grupo 1103700">
            <g id="Grupo_1103699" data-name="Grupo 1103699">
              <path id="Trazado_914940" data-name="Trazado 914940" d="M0,0H6.4V19.185H0Z" transform="translate(13.564 0) rotate(45)" fill="#23aae6"/>
            </g>
          </g>
        </g>
      </g>
      <g id="Grupo_1103711" data-name="Grupo 1103711" transform="translate(46.376 90.388)">
        <g id="Grupo_1103706" data-name="Grupo 1103706" transform="translate(0 15.987)">
          <g id="Grupo_1103705" data-name="Grupo 1103705">
            <g id="Grupo_1103704" data-name="Grupo 1103704">
              <g id="Grupo_1103703" data-name="Grupo 1103703">
                <path id="Trazado_914941" data-name="Trazado 914941" d="M169.6,234.394a1.6,1.6,0,0,1-1.429-2.314l1.6-3.2a1.6,1.6,0,0,1,2.86,1.43l-1.6,3.2A1.6,1.6,0,0,1,169.6,234.394Z" transform="translate(-167.999 -227.998)" fill="#5ad7ff"/>
              </g>
            </g>
          </g>
        </g>
        <g id="Grupo_1103710" data-name="Grupo 1103710" transform="translate(4.697 0)">
          <g id="Grupo_1103709" data-name="Grupo 1103709">
            <g id="Grupo_1103708" data-name="Grupo 1103708">
              <g id="Grupo_1103707" data-name="Grupo 1103707">
                <path id="Trazado_914942" data-name="Trazado 914942" d="M193.2,160.79a1.6,1.6,0,0,1-1.429-2.314l3.639-7.279H193.1a1.6,1.6,0,0,1,0-3.2h4.9a1.6,1.6,0,0,1,1.43,2.314l-4.8,9.593A1.6,1.6,0,0,1,193.2,160.79Z" transform="translate(-191.5 -148)" fill="#5ad7ff"/>
              </g>
            </g>
          </g>
        </g>
      </g>
      <g id="Grupo_1103720" data-name="Grupo 1103720" transform="translate(46.376 125.561)">
        <g id="Grupo_1103715" data-name="Grupo 1103715" transform="translate(0 15.987)">
          <g id="Grupo_1103714" data-name="Grupo 1103714">
            <g id="Grupo_1103713" data-name="Grupo 1103713">
              <g id="Grupo_1103712" data-name="Grupo 1103712">
                <path id="Trazado_914943" data-name="Trazado 914943" d="M169.6,410.393a1.6,1.6,0,0,1-1.429-2.314l1.6-3.2a1.6,1.6,0,1,1,2.86,1.43l-1.6,3.2A1.6,1.6,0,0,1,169.6,410.393Z" transform="translate(-167.999 -403.998)" fill="#5ad7ff"/>
              </g>
            </g>
          </g>
        </g>
        <g id="Grupo_1103719" data-name="Grupo 1103719" transform="translate(4.697)">
          <g id="Grupo_1103718" data-name="Grupo 1103718">
            <g id="Grupo_1103717" data-name="Grupo 1103717">
              <g id="Grupo_1103716" data-name="Grupo 1103716">
                <path id="Trazado_914944" data-name="Trazado 914944" d="M193.2,336.79a1.6,1.6,0,0,1-1.429-2.314l3.639-7.279H193.1a1.6,1.6,0,0,1,0-3.2h4.9a1.6,1.6,0,0,1,1.43,2.314l-4.8,9.593A1.6,1.6,0,0,1,193.2,336.79Z" transform="translate(-191.5 -324)" fill="#5ad7ff"/>
              </g>
            </g>
          </g>
        </g>
      </g>
    </g>
  </g>
</svg>
