<svg xmlns="http://www.w3.org/2000/svg" width="296" height="246" viewBox="0 0 296 246">
  <g id="Grupo_1099000" data-name="Grupo 1099000" transform="translate(-600.256 -404)">
    <rect id="Rectángulo_35929" data-name="Rectángulo 35929" width="295" height="246" transform="translate(600.256 404)" fill="#ffeed2"/>
    <g id="Grupo_133938" data-name="Grupo 133938" transform="translate(632.477 404.435)">
      <g id="Grupo_131231" data-name="Grupo 131231" transform="translate(0.778 7.566)">
        <path id="Trazado_126381" data-name="Trazado 126381" d="M74.814,292.217s14.25-28.305,51.9-22.886,33.507,30.112,59.573,28.908,54.445-18.67,77.6,15.631c26.859,39.793-19.039,73.636-.809,97.953,32.661,43.568,0,94.922-72.941,85.173-60.493-8.082-61.034-19.425-96.148-5.687S26.944,454.316,39.7,414.6s45.176-24.572,29.985-57.005S74.814,292.217,74.814,292.217Z" transform="translate(-36.834 -268.641)" fill="#fcd189"/>
        <g id="Grupo_1103750" data-name="Grupo 1103750" transform="translate(49 14.229)">
          <path id="Trazado_915023" data-name="Trazado 915023" d="M30.471,40.606V67.524L37.1,75.56v28.931l-9.24,11.047H47.544l1.207-9.041,4.886-6.829L49.554,88.216V69.335l3.817-9.244V39.8Z" transform="translate(65.607 98.461)" fill="#d8e2ef"/>
          <path id="Trazado_915024" data-name="Trazado 915024" d="M212.845,26.425c-28.219-5.726-67.725,5.726-76.931,2.411a37.5,37.5,0,0,0-17.227-1.957c-26.94,3.937-35.827,2.595-51.229-5.509,4.77-4.29,9.375-10.219,2.9-13.279-6.281-2.966-10.35,2.625-12.675,7.875-21.75-12.165-26.34,7.3-34.309,19.282-8.021,12.052-14,13.62-18.307,22.207s5.794,11.91,5.794,11.91c-1.091,6.48,5.734,10.819,22.77,4.369C53.264,66.306,61.109,79.952,64.5,90.268c4.065,12.375,3.7,19.072,25.822,43.387s66.832-.469,66.832-.469c25.537,11.306,44.4,9.675,56.846,5.276V26.6c-.375-.082-.75-.082-1.155-.176Z" transform="translate(0 8.981)" fill="#f3f9ff"/>
          <path id="Trazado_915025" data-name="Trazado 915025" d="M114.91,36.215a9.96,9.96,0,0,0-2.925,7.087,10.065,10.065,0,0,0,1.688,5.587,10.057,10.057,0,0,1-8.362,15.637h-9.6a10.087,10.087,0,0,0-3.15.525L74.785,70.977a10.286,10.286,0,0,1-6.375,0l-9.787-3.262A10.057,10.057,0,0,1,52.285,55l1.125-3.45A10.057,10.057,0,0,0,47.073,38.84L38.86,36.1a9.885,9.885,0,0,1-6.337-6.337L29.035,19.3a9.9,9.9,0,0,1-.525-3.262A161.527,161.527,0,0,0,51.273,13.9a37.17,37.17,0,0,1,17.25,1.95c6.525,2.325,28.35-2.737,50.55-3.862l3.075,9.15a10.039,10.039,0,0,1-2.438,10.275Z" transform="translate(67.402 21.972)" fill="#617093"/>
          <path id="Trazado_915026" data-name="Trazado 915026" d="M56.592,38.237v6.187a10.35,10.35,0,0,1-5.7,9.225L45.83,56.162a10.406,10.406,0,0,0-5.4,6.75l-1.612,6.525C24.492,52.449,23.33,45.587,20.33,35.949A7.241,7.241,0,0,1,21.9,35.8h7.912a10.331,10.331,0,0,0,7.312-3.037l1.837-1.837A10.324,10.324,0,0,1,55.5,33.587v.038a10.3,10.3,0,0,1,1.087,4.612Z" transform="translate(44.908 65.7)" fill="#617093"/>
          <path id="Trazado_915027" data-name="Trazado 915027" d="M36,59.412l2.077,13.072L44.7,80.521l3.75,28.931L39.214,120.5H58.9l1.207-9.041,4.886-6.829L60.911,93.177,57.161,74.3l3.817-9.244L58.5,38Z" transform="translate(88 93.5)" fill="#d8e2ef"/>
          <path id="Trazado_915028" data-name="Trazado 915028" d="M39.987,24.512l-7.5-7.5-3.75-3.75c-1.234-1.125-2.28-2.441-3.615-3.465C24.5,7.866,23.825,5.931,23,4c-1.065,2.5-1.875,5-2.689,7.5a1.166,1.166,0,0,0,.161,1.027l.626.874a44.841,44.841,0,0,0,3.664,3.836l2.824,2.827L17.045,16.551c-.469-.484-.915-.986-1.4-1.447l-2.475-1.275C11.514,13,9.785,12.216,8,11.5c.716,1.785,1.5,3.514,2.329,5.171L11.6,19.146c.611.637,1.316,1.185,1.909,1.841a2.25,2.25,0,0,0,.971.637l.128.045,22.5,7.5a2.809,2.809,0,0,0,2.876-4.657Z" transform="translate(11)" fill="#617093"/>
          <path id="Trazado_915029" data-name="Trazado 915029" d="M12,14.25h7.5v5.625H12Z" transform="translate(22 28.187)" fill="#617093"/>
          <circle id="Elipse_11530" data-name="Elipse 11530" cx="44.912" cy="44.912" r="44.912" transform="translate(4 93.823)" fill="#ade3ea"/>
          <path id="Trazado_915030" data-name="Trazado 915030" d="M61,73a45,45,0,0,1-45,45V28A45,45,0,0,1,61,73Z" transform="translate(33 66)" fill="#33b9cb"/>
          <circle id="Elipse_11531" data-name="Elipse 11531" cx="14.971" cy="14.971" r="14.971" transform="translate(33.941 123.764)" fill="#f95555"/>
          <path id="Trazado_915031" data-name="Trazado 915031" d="M31,51A15,15,0,0,1,16,66V36A15,15,0,0,1,31,51Z" transform="translate(33 88)" fill="#e52c2c"/>
          <path id="Trazado_915032" data-name="Trazado 915032" d="M18.687,49.062h5.625V36.875H29V31.25H14v5.625h4.687Z" transform="translate(27.5 74.937)" fill="#f95555"/>
          <path id="Trazado_915033" data-name="Trazado 915033" d="M16,49.062h2.812V36.875H23.5V31.25H16Z" transform="translate(33 74.937)" fill="#e52c2c"/>
          <path id="Trazado_915034" data-name="Trazado 915034" d="M25.062,48.312V42.687H12.875V38H7.25V53h5.625V48.312Z" transform="translate(8.938 93.5)" fill="#f95555"/>
          <path id="Trazado_915035" data-name="Trazado 915035" d="M27.327,45.747l-3.979-3.979-8.141,8.141L13.445,48.15,9.47,52.125l7.5,7.5,3.975-3.975-1.759-1.762Z" transform="translate(15.043 103.861)" fill="#f95555"/>
          <path id="Trazado_915036" data-name="Trazado 915036" d="M24.312,44H18.687V56.187H14v5.625H29V56.187H24.312Z" transform="translate(27.5 109.999)" fill="#f95555"/>
          <g id="Grupo_1103749" data-name="Grupo 1103749" transform="translate(49 114.512)">
            <path id="Trazado_915037" data-name="Trazado 915037" d="M18.812,44H16V61.812h7.5V56.187H18.812Z" transform="translate(-16 -4.513)" fill="#e52c2c"/>
            <path id="Trazado_915038" data-name="Trazado 915038" d="M17.768,47.349l3.979,3.979,8.141-8.141,1.762,1.759,3.975-3.975-7.5-7.5L24.15,37.445l1.759,1.762Z" transform="translate(-11.138 -33.47)" fill="#e52c2c"/>
            <path id="Trazado_915039" data-name="Trazado 915039" d="M32.187,38v4.687H20v5.625H32.187V53h5.625V38Z" transform="translate(-5 -21.013)" fill="#e52c2c"/>
            <path id="Trazado_915040" data-name="Trazado 915040" d="M29.888,49.909l-8.141-8.141-3.979,3.979,8.141,8.141L24.15,55.65l3.975,3.975,7.5-7.5L31.65,48.15Z" transform="translate(-11.138 -10.651)" fill="#e52c2c"/>
          </g>
          <path id="Trazado_915041" data-name="Trazado 915041" d="M15.207,43.186l8.141,8.141,3.979-3.979-8.141-8.141,1.759-1.762L16.97,33.47l-7.5,7.5,3.975,3.975Z" transform="translate(15.043 81.042)" fill="#f95555"/>
          <path id="Trazado_915042" data-name="Trazado 915042" d="M126,13.745V125.607c-12.45,4.425-31.312,6.037-56.85-5.25A102.3,102.3,0,0,1,36,131.082V13.783A37.7,37.7,0,0,1,47.925,16c9.187,3.3,48.712-8.137,76.912-2.438.412.113.787.113,1.162.188Z" transform="translate(88 21.83)" fill="#d8e2ef"/>
          <path id="Trazado_915043" data-name="Trazado 915043" d="M94.312,36.215A9.96,9.96,0,0,0,91.387,43.3a10.065,10.065,0,0,0,1.688,5.587,10.057,10.057,0,0,1-8.362,15.637h-9.6a10.088,10.088,0,0,0-3.15.525L54.187,70.977a10.286,10.286,0,0,1-6.375,0l-9.787-3.262A9.188,9.188,0,0,1,36,66.74V13.64a37.7,37.7,0,0,1,11.925,2.212c6.525,2.325,28.35-2.737,50.55-3.862l3.075,9.15a10.039,10.039,0,0,1-2.438,10.275Z" transform="translate(88 21.972)" fill="#3d4860"/>
        </g>
      </g>
      <path id="Trazado_126379" data-name="Trazado 126379" d="M3.31.1A2.737,2.737,0,0,0,1.725.136,2.33,2.33,0,0,0,.669,1.258C-.763,4,.305,7.407,1.98,10.006s3.94,4.842,5.179,7.675c1.045,2.393,1.3,5.085,2.439,7.434s3.7,4.4,6.2,3.632c5.6-1.712,3.849-13.368,2.252-17.428C15.805,5.6,9.145,1.207,3.31.1Z" transform="translate(239.263 151.788) rotate(-155)" fill="#fcd189"/>
      <path id="Trazado_126382" data-name="Trazado 126382" d="M3.31.1A2.737,2.737,0,0,0,1.725.136,2.33,2.33,0,0,0,.669,1.258C-.763,4,.305,7.407,1.98,10.006s3.94,4.842,5.179,7.675c1.045,2.393,1.3,5.085,2.439,7.434s3.7,4.4,6.2,3.632c5.6-1.712,3.849-13.368,2.252-17.428C15.805,5.6,9.145,1.207,3.31.1Z" transform="matrix(0.951, 0.309, -0.309, 0.951, 10.983, 83.264)" fill="#fcd189"/>
    </g>
  </g>
</svg>
