<svg xmlns="http://www.w3.org/2000/svg" width="295" height="246" viewBox="0 0 295 246">
  <g id="Grupo_1099000" data-name="Grupo 1099000" transform="translate(-600.256 -404)">
    <rect id="Rectángulo_35929" data-name="Rectángulo 35929" width="295" height="246" transform="translate(600.256 404)" fill="#ffeed2"/>
    <g id="Grupo_133938" data-name="Grupo 133938" transform="translate(621.477 404.435)">
      <g id="Grupo_131231" data-name="Grupo 131231" transform="translate(0.778 7.566)">
        <path id="Trazado_126381" data-name="Trazado 126381" d="M74.814,292.217s14.25-28.305,51.9-22.886,33.507,30.112,59.573,28.908,54.445-18.67,77.6,15.631c26.859,39.793-19.039,73.636-.809,97.953,32.661,43.568,0,94.922-72.941,85.173-60.493-8.082-61.034-19.425-96.148-5.687S26.944,454.316,39.7,414.6s45.176-24.572,29.985-57.005S74.814,292.217,74.814,292.217Z" transform="translate(-36.834 -268.641)" fill="#fcd189"/>
        <g id="Grupo_1103773" data-name="Grupo 1103773" transform="translate(-3.272 -31.577)">
          <path id="Trazado_915110" data-name="Trazado 915110" d="M376.688,192.735l-49.374-.334.023-5.872,49.374.334Z" transform="translate(-162.607 -67.183)" fill="#ffbf31" fill-rule="evenodd"/>
          <path id="Trazado_915111" data-name="Trazado 915111" d="M348.272,271.958h40.137v5.895H348.272Z" transform="translate(-174.316 -114.912)" fill="#1f6f7a" fill-rule="evenodd"/>
          <path id="Trazado_915112" data-name="Trazado 915112" d="M110.652,66.282H43.341c-3.894,0-7.069,3.706-7.069,8.249v133.3c0,4.543,3.176,8.249,7.069,8.249h86.635c3.894,0,7.069-3.705,7.069-8.249V188.245a39.263,39.263,0,0,1,0-78.527V93.836Z" fill="#ccc" fill-rule="evenodd"/>
          <path id="Trazado_915113" data-name="Trazado 915113" d="M110.652,66.282H43.341c-3.894,0-7.069,3.706-7.069,8.249v133.3q0,.476.046.939H121.6c3.894,0,7.069-3.705,7.069-8.249V187.347a39.269,39.269,0,0,1,0-76.73V85.1Z" fill="#e6e6e6" fill-rule="evenodd"/>
          <path id="Trazado_915114" data-name="Trazado 915114" d="M231.214,93.837,204.821,66.283V90.3a3.544,3.544,0,0,0,3.537,3.537h22.856Z" transform="translate(-94.169 -0.001)" fill="#ada0ad" fill-rule="evenodd"/>
          <path id="Trazado_915115" data-name="Trazado 915115" d="M75.594,148.631a2.947,2.947,0,1,1,0-5.895h43.468a2.947,2.947,0,1,1,0,5.895Zm0,88.433a2.947,2.947,0,1,1,0-5.895h43.468a2.947,2.947,0,1,1,0,5.895Zm0-22.108a2.947,2.947,0,1,1,0-5.895h26.225a2.947,2.947,0,1,1,0,5.895Zm0-22.108a2.947,2.947,0,0,1,0-5.895h23.13a2.947,2.947,0,1,1,0,5.895Zm0-22.108a2.947,2.947,0,1,1,0-5.895h26.372a2.947,2.947,0,1,1,0,5.895Z" transform="translate(-20.323 -42.715)" fill="#ada0ad" fill-rule="evenodd"/>
          <path id="Trazado_915116" data-name="Trazado 915116" d="M355.941,108.457H320.709L294.35,135.186l-4.191-4.122,27.082-27.46a2.94,2.94,0,0,1,2.247-1.041h36.453Z" transform="translate(-141.848 -20.27)" fill="#48a0e8" fill-rule="evenodd"/>
          <path id="Trazado_915117" data-name="Trazado 915117" d="M0,0H9.522V29.393H0Z" transform="translate(161.254 179.956) rotate(-45)" fill="#60b7fe" fill-rule="evenodd"/>
          <path id="Trazado_915118" data-name="Trazado 915118" d="M351.909,353.261,364.2,340.967a3.114,3.114,0,0,1,4.391,0L391.428,363.8a3.114,3.114,0,0,1,0,4.391l-12.295,12.295a3.114,3.114,0,0,1-4.391,0l-22.833-22.833A3.113,3.113,0,0,1,351.909,353.261Z" transform="translate(-175.842 -152.962)" fill="#932b2c" fill-rule="evenodd"/>
          <path id="Trazado_915119" data-name="Trazado 915119" d="M356.671,351.666l10.7-10.7a3.114,3.114,0,0,1,4.391,0L394.6,363.8a3.114,3.114,0,0,1,0,4.391L383.676,379.11,357.5,352.938a3.7,3.7,0,0,1-.833-1.272Z" transform="translate(-179.008 -152.962)" fill="#f54749" fill-rule="evenodd"/>
          <circle id="Elipse_11536" data-name="Elipse 11536" cx="10.813" cy="10.813" r="10.813" transform="translate(202.644 112.615) rotate(-4.069)" fill="#e3a829"/>
          <path id="Trazado_915120" data-name="Trazado 915120" d="M423,191.141a10.815,10.815,0,0,1,0-21.027,10.815,10.815,0,0,1,0,21.027Z" transform="translate(-211.442 -58.011)" fill="#ffe177" fill-rule="evenodd"/>
          <circle id="Elipse_11537" data-name="Elipse 11537" cx="10.813" cy="10.813" r="10.813" transform="translate(202.784 75.116) rotate(-3.151)" fill="#60b7fe"/>
          <path id="Trazado_915121" data-name="Trazado 915121" d="M423,106.443a10.815,10.815,0,0,1,0-21.027,10.815,10.815,0,0,1,0,21.027Z" transform="translate(-211.442 -10.69)" fill="#88c8fe" fill-rule="evenodd"/>
          <circle id="Elipse_11538" data-name="Elipse 11538" cx="35.251" cy="35.251" r="35.251" transform="translate(101.793 113.731)" fill="#e6e6e6"/>
          <path id="Trazado_915122" data-name="Trazado 915122" d="M215.989,244.368a35.251,35.251,0,0,1,0-70.045,35.251,35.251,0,0,1,0,70.045Z" transform="translate(-82.954 -60.363)" fill="#fff" fill-rule="evenodd"/>
          <path id="Trazado_915123" data-name="Trazado 915123" d="M178.271,167.328a43.766,43.766,0,1,1,0,61.894,43.766,43.766,0,0,1,0-61.894Zm7.3,7.3a33.448,33.448,0,1,0,47.3,0,33.448,33.448,0,0,0-47.3,0Z" transform="translate(-72.173 -49.293)" fill="#88c8fe" fill-rule="evenodd"/>
          <path id="Trazado_915124" data-name="Trazado 915124" d="M216,237.269a2.941,2.941,0,0,1,4.49-3.8l10.132,11.942L253.435,219.6a2.936,2.936,0,1,1,4.4,3.892l-25.36,28.656a2.941,2.941,0,0,1-4.145-.346Z" transform="translate(-100.026 -85.105)" fill="#41678a" fill-rule="evenodd"/>
          <circle id="Elipse_11539" data-name="Elipse 11539" cx="10.813" cy="10.813" r="10.813" transform="translate(202.647 150.012) rotate(-4.069)" fill="#2994a3"/>
          <path id="Trazado_915125" data-name="Trazado 915125" d="M423,275.84a10.815,10.815,0,0,1,0-21.027,10.815,10.815,0,0,1,0,21.027Z" transform="translate(-211.442 -105.333)" fill="#1f6f7a" fill-rule="evenodd"/>
        </g>
      </g>
      <path id="Trazado_126379" data-name="Trazado 126379" d="M3.31.1A2.737,2.737,0,0,0,1.725.136,2.33,2.33,0,0,0,.669,1.258C-.763,4,.305,7.407,1.98,10.006s3.94,4.842,5.179,7.675c1.045,2.393,1.3,5.085,2.439,7.434s3.7,4.4,6.2,3.632c5.6-1.712,3.849-13.368,2.252-17.428C15.805,5.6,9.145,1.207,3.31.1Z" transform="translate(239.263 151.788) rotate(-155)" fill="#fcd189"/>
      <path id="Trazado_126382" data-name="Trazado 126382" d="M3.31.1A2.737,2.737,0,0,0,1.725.136,2.33,2.33,0,0,0,.669,1.258C-.763,4,.305,7.407,1.98,10.006s3.94,4.842,5.179,7.675c1.045,2.393,1.3,5.085,2.439,7.434s3.7,4.4,6.2,3.632c5.6-1.712,3.849-13.368,2.252-17.428C15.805,5.6,9.145,1.207,3.31.1Z" transform="matrix(0.951, 0.309, -0.309, 0.951, 10.983, 83.264)" fill="#fcd189"/>
    </g>
  </g>
</svg>
