<svg xmlns="http://www.w3.org/2000/svg" width="295" height="246" viewBox="0 0 295 246">
  <g id="Grupo_1099000" data-name="Grupo 1099000" transform="translate(-600.256 -404)">
    <rect id="Rectángulo_35929" data-name="Rectángulo 35929" width="295" height="246" transform="translate(600.256 404)" fill="#ffeed2"/>
    <g id="Grupo_133938" data-name="Grupo 133938" transform="translate(621.477 404.435)">
      <g id="Grupo_131231" data-name="Grupo 131231" transform="translate(0.778 7.566)">
        <path id="Trazado_126381" data-name="Trazado 126381" d="M74.814,292.217s14.25-28.305,51.9-22.886,33.507,30.112,59.573,28.908,54.445-18.67,77.6,15.631c26.859,39.793-19.039,73.636-.809,97.953,32.661,43.568,0,94.922-72.941,85.173-60.493-8.082-61.034-19.425-96.148-5.687S26.944,454.316,39.7,414.6s45.176-24.572,29.985-57.005S74.814,292.217,74.814,292.217Z" transform="translate(-36.834 -268.641)" fill="#fcd189"/>
        <g id="Grupo_1103772" data-name="Grupo 1103772" transform="translate(40 30.057)">
          <path id="Trazado_915083" data-name="Trazado 915083" d="M124.5,51.859a62.025,62.025,0,0,0-8.266-12.766L93.412,22.073a61.884,61.884,0,0,0-47.057-.831L9.328,62.075a61.841,61.841,0,0,0,29.457,70.838l7.986,3.729a61.833,61.833,0,0,0,67.251-15.524Z" transform="translate(11.823 28.723)" fill="#64a8fb"/>
          <path id="Trazado_915084" data-name="Trazado 915084" d="M52.718,81.6A61.591,61.591,0,0,1,12.574,66.775c.251.291.49.592.746.879l.393.445A62.158,62.158,0,0,0,29.363,80.514l7.986,3.729A61.833,61.833,0,0,0,104.6,68.719l3.134-20.706A61.841,61.841,0,0,1,52.718,81.6Z" transform="translate(21.245 81.121)" fill="#449ced"/>
          <path id="Trazado_915085" data-name="Trazado 915085" d="M49.909,26.926,46.255,24.2A61.51,61.51,0,0,1,56.725,49.268l1.449-9.575a62.025,62.025,0,0,0-8.266-12.767Z" transform="translate(78.15 40.889)" fill="#449ced"/>
          <path id="Trazado_915086" data-name="Trazado 915086" d="M48.92,44.73H31.246l-2.209-8.837L13.571,46.939v5.891l6.628,16.2,8.837,2.209,2.209,6.628-6.628,7.364,3.06,15.759a61.529,61.529,0,0,0,7.986,3.729l4.419-11.387,11.046-6.628V77.869l6.628-2.209,6.628-11.047V57.985L53.338,55.776Z" transform="translate(22.93 60.643)" fill="#6ee6b4"/>
          <path id="Trazado_915087" data-name="Trazado 915087" d="M27.274,66.253l1.645-4.24a61.271,61.271,0,0,1-10.382-3.353l.75,3.864a61.549,61.549,0,0,0,7.986,3.729Z" transform="translate(31.32 99.111)" fill="#5ad5a3"/>
          <path id="Trazado_915088" data-name="Trazado 915088" d="M90.472,62.206a61.6,61.6,0,0,0-6.2-27.011L72.8,40.113,55.123,33.485,48.5,26.857H41.868L30.821,35.694,33.031,48.95l13.256,8.837,8.837-2.209,6.628,6.628L57.333,84.3l8.837,4.418v6.628l7.6,9.118A61.628,61.628,0,0,0,90.472,62.206Z" transform="translate(52.075 45.377)" fill="#fc5064"/>
          <path id="Trazado_915089" data-name="Trazado 915089" d="M61.143,29.957l-3.5,1.5A61.564,61.564,0,0,1,44.512,91.875l6.127,7.351A61.86,61.86,0,0,0,61.144,29.957Z" transform="translate(75.205 50.614)" fill="#f23247"/>
          <path id="Trazado_915090" data-name="Trazado 915090" d="M7.864,59.41l13.141,1.32,2.209,6.628,8.837,2.209V60.73l4.419-8.837,13.256-6.628,2.209-10.886,8.837-.16V27.591L44.891,18.577A61.984,61.984,0,0,0,7.864,59.41Z" transform="translate(13.287 31.388)" fill="#fc5064"/>
          <path id="Trazado_915091" data-name="Trazado 915091" d="M49,18.886l-13.5,3.764-2.209,6.628,11.047,2.209,6.628-2.209,6.628,6.628H71.82A62.025,62.025,0,0,0,49,18.886Z" transform="translate(56.238 31.91)" fill="#6ee6b4"/>
          <path id="Trazado_915092" data-name="Trazado 915092" d="M48.692,70.412A2.69,2.69,0,0,1,47.2,65.485L70.206,50.146V24.69a2.69,2.69,0,1,1,5.379,0v26.9a2.689,2.689,0,0,1-1.2,2.238L50.181,69.96A2.688,2.688,0,0,1,48.692,70.412Z" transform="translate(77.72 37.17)" fill="#5b6d7c"/>
          <path id="Trazado_915093" data-name="Trazado 915093" d="M36.759,42.178a2.723,2.723,0,0,1-.772-.113L9.091,34a2.692,2.692,0,0,1-1.917-2.508L6.9,20.774a2.692,2.692,0,0,1,2.621-2.758h.068a2.691,2.691,0,0,1,2.69,2.621L12.5,29.4l25.028,7.509a2.69,2.69,0,0,1-.772,5.266Z" transform="translate(11.653 30.44)" fill="#5b6d7c"/>
          <g id="Grupo_1103771" data-name="Grupo 1103771">
            <path id="Trazado_915094" data-name="Trazado 915094" d="M9.69,24.448A2.69,2.69,0,0,1,7,21.758V13.69a2.69,2.69,0,0,1,5.379,0v8.069A2.69,2.69,0,0,1,9.69,24.448Z" transform="translate(11.827 18.585)" fill="#f23247"/>
            <path id="Trazado_915095" data-name="Trazado 915095" d="M9.69,13.448A2.69,2.69,0,0,1,7,10.758V2.69a2.69,2.69,0,0,1,5.379,0v8.069A2.69,2.69,0,0,1,9.69,13.448Z" transform="translate(11.827)" fill="#f23247"/>
            <path id="Trazado_915096" data-name="Trazado 915096" d="M18.223,20.914a2.678,2.678,0,0,1-1.9-.788l-5.7-5.707a2.689,2.689,0,1,1,3.8-3.8l5.7,5.708a2.69,2.69,0,0,1-1.9,4.591Z" transform="translate(16.607 16.605)" fill="#f23247"/>
            <path id="Trazado_915097" data-name="Trazado 915097" d="M10.445,13.136a2.678,2.678,0,0,1-1.9-.788l-5.7-5.708a2.689,2.689,0,1,1,3.8-3.8l5.7,5.708a2.69,2.69,0,0,1-1.9,4.591Z" transform="translate(3.464 3.463)" fill="#f23247"/>
            <path id="Trazado_915098" data-name="Trazado 915098" d="M21.758,12.379H13.69A2.69,2.69,0,0,1,13.69,7h8.069a2.69,2.69,0,0,1,0,5.379Z" transform="translate(18.585 11.827)" fill="#f23247"/>
            <path id="Trazado_915099" data-name="Trazado 915099" d="M10.758,12.379H2.69A2.69,2.69,0,0,1,2.69,7h8.069a2.69,2.69,0,0,1,0,5.379Z" transform="translate(0 11.827)" fill="#f23247"/>
            <path id="Trazado_915100" data-name="Trazado 915100" d="M12.518,13.136a2.69,2.69,0,0,1-1.9-4.591l5.7-5.707a2.689,2.689,0,1,1,3.8,3.8L14.42,12.348a2.678,2.678,0,0,1-1.9.788Z" transform="translate(16.606 3.463)" fill="#f23247"/>
            <path id="Trazado_915101" data-name="Trazado 915101" d="M4.739,20.914a2.69,2.69,0,0,1-1.9-4.591l5.7-5.708a2.689,2.689,0,1,1,3.8,3.8L6.641,20.126a2.678,2.678,0,0,1-1.9.788Z" transform="translate(3.464 16.605)" fill="#f23247"/>
          </g>
          <circle id="Elipse_11534" data-name="Elipse 11534" cx="13.5" cy="13.5" r="13.5" transform="translate(8 8)" fill="#fc5064"/>
          <path id="Trazado_915102" data-name="Trazado 915102" d="M57.69,28.448A2.69,2.69,0,0,1,55,25.758V17.69a2.69,2.69,0,0,1,5.379,0v8.069A2.69,2.69,0,0,1,57.69,28.448Z" transform="translate(92.926 25.343)" fill="#f23247"/>
          <path id="Trazado_915103" data-name="Trazado 915103" d="M57.69,17.448A2.69,2.69,0,0,1,55,14.758V6.69a2.69,2.69,0,1,1,5.379,0v8.069A2.69,2.69,0,0,1,57.69,17.448Z" transform="translate(92.926 6.758)" fill="#f23247"/>
          <path id="Trazado_915104" data-name="Trazado 915104" d="M66.223,24.914a2.678,2.678,0,0,1-1.9-.788l-5.7-5.707a2.689,2.689,0,1,1,3.8-3.8l5.7,5.708a2.69,2.69,0,0,1-1.9,4.591Z" transform="translate(97.705 23.363)" fill="#f23247"/>
          <path id="Trazado_915105" data-name="Trazado 915105" d="M58.445,17.136a2.678,2.678,0,0,1-1.9-.788l-5.7-5.708a2.689,2.689,0,1,1,3.8-3.8l5.7,5.708a2.69,2.69,0,0,1-1.9,4.591Z" transform="translate(84.563 10.222)" fill="#f23247"/>
          <path id="Trazado_915106" data-name="Trazado 915106" d="M69.758,16.379H61.69a2.69,2.69,0,0,1,0-5.379h8.069a2.69,2.69,0,0,1,0,5.379Z" transform="translate(99.684 18.585)" fill="#f23247"/>
          <path id="Trazado_915107" data-name="Trazado 915107" d="M58.758,16.379H50.69a2.69,2.69,0,1,1,0-5.379h8.069a2.69,2.69,0,0,1,0,5.379Z" transform="translate(81.099 18.585)" fill="#f23247"/>
          <path id="Trazado_915108" data-name="Trazado 915108" d="M60.518,17.136a2.69,2.69,0,0,1-1.9-4.591l5.7-5.707a2.689,2.689,0,1,1,3.8,3.8L62.42,16.348a2.678,2.678,0,0,1-1.9.788Z" transform="translate(97.705 10.222)" fill="#f23247"/>
          <path id="Trazado_915109" data-name="Trazado 915109" d="M52.739,24.914a2.69,2.69,0,0,1-1.9-4.591l5.7-5.708a2.689,2.689,0,1,1,3.8,3.8l-5.705,5.707a2.678,2.678,0,0,1-1.9.788Z" transform="translate(84.563 23.363)" fill="#f23247"/>
          <circle id="Elipse_11535" data-name="Elipse 11535" cx="13.5" cy="13.5" r="13.5" transform="translate(137 19)" fill="#fc5064"/>
        </g>
      </g>
      <path id="Trazado_126379" data-name="Trazado 126379" d="M3.31.1A2.737,2.737,0,0,0,1.725.136,2.33,2.33,0,0,0,.669,1.258C-.763,4,.305,7.407,1.98,10.006s3.94,4.842,5.179,7.675c1.045,2.393,1.3,5.085,2.439,7.434s3.7,4.4,6.2,3.632c5.6-1.712,3.849-13.368,2.252-17.428C15.805,5.6,9.145,1.207,3.31.1Z" transform="translate(239.263 151.788) rotate(-155)" fill="#fcd189"/>
      <path id="Trazado_126382" data-name="Trazado 126382" d="M3.31.1A2.737,2.737,0,0,0,1.725.136,2.33,2.33,0,0,0,.669,1.258C-.763,4,.305,7.407,1.98,10.006s3.94,4.842,5.179,7.675c1.045,2.393,1.3,5.085,2.439,7.434s3.7,4.4,6.2,3.632c5.6-1.712,3.849-13.368,2.252-17.428C15.805,5.6,9.145,1.207,3.31.1Z" transform="matrix(0.951, 0.309, -0.309, 0.951, 10.983, 83.264)" fill="#fcd189"/>
    </g>
  </g>
</svg>
